<svg version="1.1" xmlns="http://www.w3.org/2000/svg" xmlns:xlink="http://www.w3.org/1999/xlink" width="372.00233" height="141.8647" viewBox="0,0,372.00233,141.8647"><g transform="translate(-53.99884,-109.06765)"><g fill="#c21313" stroke="none" stroke-width="0.5" stroke-miterlimit="10"><path d="M81.84985,181.76556c-1.42221,1.13439 -5.23948,3.58532 -9.43104,1.29047c0.27772,10.32713 0.58948,20.64412 0.58236,31.01065c-0.00646,9.40158 -1,18.60501 -1,28c0,0 0,8.75 -8.75,8.75c-8.75,0 -8.75,-8.75 -8.75,-8.75c0,-15.5125 1.88968,-30.95852 1.01339,-46.51612c-0.76173,-13.52359 -2.35222,-27.77338 -0.97081,-41.34608c0.31816,-3.12603 1.64779,-6.0872 2.02298,-9.2069c0.17245,-1.43392 -0.18663,-2.90733 0.04743,-4.33249c1.18088,-7.19029 5.12013,-14.25633 10.08961,-19.36515c3.42006,-2.28004 5.99923,-5.14323 9.70308,-7.09351c9.43249,-4.96675 21.35086,-6.7944 31.68402,-3.41613c6.41987,2.09888 11.13254,6.40071 15.99587,10.75652c1.85432,1.66081 4.14436,2.86201 5.7529,4.76186c1.83564,2.16808 3.28089,4.68112 4.43858,7.27532c1.11849,2.50637 1.5463,5.26696 2.33209,7.89668c1.71592,5.74246 2.18439,10.61928 -0.91593,16.18616c-2.89,5.18921 -9.34207,8.65563 -14.09471,11.4838c-5.64019,1.51605 -12.4567,2.56865 -17.80864,4.91805c-2.46338,1.08138 -4.69652,2.75436 -7.294,3.45487c-5.03013,1.35657 -9.74616,2.65907 -14.64716,4.242zM72.07062,167.46593l2.41354,-1.70022c4.32926,-1.43684 8.37334,-3.22641 12.84735,-4.23585c2.02178,-0.45616 4.25226,-0.33747 6.07532,-1.32343c6.59913,-3.56898 14.08611,-5.63366 21.49585,-7.22369c0.98787,-0.60428 2.05714,-1.0922 2.96362,-1.81285c0.82823,-0.65844 1.41861,-1.57444 2.19767,-2.29039c0.14492,-0.13318 0.74699,-0.21618 0.55017,-0.21441c-0.71265,0.0064 -0.51619,-1.33011 -0.72211,-2.01239c-0.5858,-1.94093 -1.29333,-6.84057 -3.22933,-8.828c-1.24222,-1.27521 -2.91068,-2.06203 -4.2471,-3.23814c-3.19681,-2.81335 -5.81154,-5.78734 -10.00413,-7.24348c-6.17712,-2.1454 -12.75133,0.12031 -18.31598,2.58387c-2.18674,0.9681 -4.28786,3.56711 -6.29692,4.90649c-0.84791,0.65991 -1.15083,1.82646 -1.5653,2.81775c-0.80649,1.92886 -2.12659,3.73788 -2.34509,5.8171c-0.12777,1.21591 0.20404,2.45498 0.04743,3.66751c-0.59725,4.62415 -1.94974,8.21031 -1.93444,12.9309c0.008,2.46922 0.03274,4.93537 0.06946,7.39924z"/><path d="M172.22466,220.82664c2.375,-1.00643 5.79434,-1.36648 9.21369,2.05286c6.18718,6.18718 0,12.37437 0,12.37437l-8.9032,3.3929c-5.51808,-1.16141 -10.84059,-1.39111 -16.35309,-2.89564c-3.55652,0 -7.11366,-0.46217 -10.61294,-1.09764c-2.42898,-0.4411 -5.00173,-0.24528 -7.32829,-1.07088c-2.89238,-1.02638 -6.56429,-1.73559 -8.08803,-4.39971c-1.90432,-3.32954 -1.65982,-7.68876 -0.98558,-11.4647c0.39134,-2.19159 3.66234,-2.88793 4.4697,-4.96263c1.21152,-3.11332 1.35302,-7.99787 2.04758,-11.47064c0.91469,-4.57345 2.20941,-9.07327 2.9396,-13.67978c1.87693,-11.84086 1.98268,-24.28019 2.90315,-36.21351c0.64961,-8.42182 0.29264,-17.23787 2.23518,-25.44715c0,0 2.12219,-8.48875 10.61093,-6.36656c8.48875,2.12219 6.36656,10.61093 6.36656,10.61093c-0.90124,3.30209 -0.57882,6.82268 -0.74631,10.24145c-0.2015,4.11289 -0.70354,8.20565 -1.01852,12.3114c-0.95699,12.47435 -1.14954,25.41002 -3.09685,37.78649c-0.44409,2.82246 -1.46327,5.52614 -2.0604,8.32022c-1.22155,5.71588 -1.43778,13.06229 -3.6188,19.06841c0.70348,0.22182 1.40883,0.39691 2.12123,0.46539c1.99082,0.19137 4,0 6,0c4.74841,1.1236 9.24545,1.68422 13.90439,2.44439z"/><path d="M228.78677,219.44125c-3.83586,1.12276 -9.44303,0.37544 -13.53561,0.37544c0,0 -0.61348,0 -1.51557,-0.16244c-1.67258,5.51193 -3.59354,10.91877 -4.99568,16.53463c0,0 -2.12219,8.48875 -10.61093,6.36656c-8.48875,-2.12219 -6.36656,-10.61093 -6.36656,-10.61093c1.71574,-6.85468 4.17022,-13.4236 6.05624,-20.21348c1.8459,-6.64544 3.12637,-13.44096 5.02051,-20.07281c1.50622,-5.27364 3.59429,-10.37885 4.92002,-15.70073c0.71573,-2.87316 1.0016,-5.84484 1.74198,-8.71091c0,-1.1704 0,-3.17989 0,-3.17989c0,-4.83249 3.91751,-8.75 8.75,-8.75c2.41625,0 4.60375,0.97938 6.18718,2.56282v0l2,2l-0.22069,0.22069c0.46308,0.32362 0.89973,0.68644 1.30378,1.09765c3.44861,3.50975 3.93725,9.01954 5.83048,13.56124c5.39118,12.93298 8.86975,26.36447 13.22481,39.6155c0.88745,2.7002 0.74309,5.68885 1.75838,8.34363c0.36556,0.95588 1.32689,1.58472 1.77631,2.50415c0.63301,1.29503 0.96048,2.71822 1.44072,4.07733l-10.30098,11.51699c0,0 -8.75,0 -8.75,-8.75c0,-0.59022 0.03981,-1.14062 0.11406,-1.6539c-0.16857,-0.32439 -0.32128,-0.65553 -0.44801,-0.99762c-1.86539,-5.03551 -0.84646,-5.54159 -2.24162,-9.65637c-0.07436,-0.21932 -0.14819,-0.43882 -0.2215,-0.6585c-0.29736,0.13324 -0.60233,0.24875 -0.91732,0.34095zM224.39753,201.78625l0.12064,-0.03029c-0.9905,-3.34529 -2.03118,-6.67395 -3.21773,-9.95361c-0.93231,3.59637 -1.88062,7.18957 -2.84264,10.77855c2.39483,0.23376 5.05658,0.37845 5.93974,-0.79465z"/><path d="M301.27605,159.304c-1.44103,-1.96631 -3.94117,-6.6954 0.78792,-11.42449c6.18718,-6.18718 12.37437,0 12.37437,0l3.30156,5.065c1.91018,8.07256 2.04901,16.54969 3.14827,24.72059c0.54415,4.04472 2.5695,8.20008 3.04743,12.33249c0.20867,1.80431 -0.10666,3.63871 0.04355,5.44882c0.69506,8.37593 2.02427,16.13774 2.02201,24.62028c-0.00066,2.47956 0.41198,15.22861 -1.23407,18.01034c-0.13773,0.23276 -0.28157,0.46083 -0.43098,0.68464l0.21603,0.07201l-0.9362,2.80859c-1.09961,3.57547 -4.42869,6.17442 -8.36478,6.17442c-3.9361,0 -7.26517,-2.59896 -8.36478,-6.17442l-0.59961,-1.79883c-3.32285,-4.47509 -4.71957,-9.14027 -7.01771,-14.19225c-2.84702,-6.25859 -6.65606,-12.16854 -9.22439,-18.54871c-0.44629,-1.10865 -0.32469,-2.39748 -0.79551,-3.49594c-1.03292,-2.40989 -2.66134,-4.57745 -3.39905,-7.09345c-0.27836,-0.94937 -0.20328,-2.00065 -0.60095,-2.90655c-0.07558,-0.17217 -0.15259,-0.34391 -0.23094,-0.51527c0.06509,1.78119 -0.17226,3.5758 -0.03908,5.35515c0.32472,4.33837 1.62377,8.5637 1.9922,12.89857c0.37093,4.36431 0.6923,8.73276 1.0078,13.10143c0.11927,1.65151 -0.40829,3.33234 -0.13587,4.96559c0.20477,1.22764 1.02137,2.27001 1.53205,3.40502c0,0 3.24967,8.12417 -4.8745,11.37384c-8.12417,3.24967 -11.37384,-4.8745 -11.37384,-4.8745c-0.82265,-2.19833 -2.02749,-4.28947 -2.46795,-6.59498c-0.44009,-2.30358 0.05332,-4.69681 -0.13587,-7.03441c-0.34787,-4.29817 -0.64207,-8.60059 -0.9922,-12.89857c-0.35873,-4.40354 -1.66069,-8.69696 -2.0078,-13.10143c-0.15448,-1.96012 0.15034,-3.93755 0.0078,-5.89857c-0.26505,-3.64655 -1.89262,-7.06361 -2.7718,-10.6125c-0.97513,-3.93619 -1.0073,-8.06821 -2,-12c-1.35121,-5.35175 -3.38626,-10.52509 -4.19246,-16.0401c-0.34093,-2.33224 -0.42834,-4.71335 -1,-7l0.46551,-1.06023c-0.00108,-0.00296 -0.00216,-0.00591 -0.00324,-0.00887h-0.52782v-3c0,-4.83249 3.91751,-8.75 8.75,-8.75c2.41625,0 4.60375,0.97938 6.18718,2.56282l2,2l-0.22837,0.22837c0.31829,0.18038 0.63121,0.37119 0.93799,0.57395c1.86098,1.23001 2.29395,3.82731 3.49705,5.7058c4.39092,6.85586 8.77876,13.47168 12.43239,20.76594c2.68894,5.3683 5.39056,10.76421 8.03402,16.06879c0.58545,1.17482 1.63178,2.09498 2.14174,3.30448c0.89986,2.13425 0.77344,4.64907 1.85826,6.69552c1.44384,2.72373 2.75233,5.51848 4.03797,8.33852c-0.2642,-1.68713 -0.49753,-3.33606 -0.62622,-4.87392c-0.12651,-1.51184 0.20203,-3.04235 0.04355,-4.55118c-0.41245,-3.92674 -2.37847,-7.79379 -2.95257,-11.66751c-1.02564,-6.92046 -0.86034,-14.28522 -2.33809,-21.16429z"/><path d="M426.00116,143.06669c0,8.75 -8.75,8.75 -8.75,8.75c-6.66667,0 -16.33333,0 -23,0c-3.5942,0 -7.57022,-0.46231 -11.1378,-0.04258c-3.3217,0.3908 -6.83291,1.05941 -10.31249,1.52453c0.94191,4.88755 1.68421,9.97272 2.15771,14.90584c0.31848,3.31808 -0.34735,6.68481 0,10c0.17711,1.69042 0.83761,3.3081 1,5c0.93801,9.77271 0.04258,20.04584 0.04258,29.8622c0,10.24369 1.5645,21.92054 -1.44902,31.76699c0,0 -2.76699,8.30098 -11.06797,5.53399c-8.30098,-2.76699 -5.53399,-11.06797 -5.53399,-11.06797c0.97997,-2.41257 0.55098,-4.53767 0.55098,-7.23301c0,-6.33333 0,-12.66667 0,-19c0,-9.20747 1.00126,-18.98802 0.04258,-28.1378c-0.17711,-1.69042 -0.83761,-3.3081 -1,-5c-0.31848,-3.31808 0.34735,-6.68481 0,-10c-0.43383,-4.14055 -0.90303,-8.53211 -1.74946,-12.61636c-0.39813,-1.18284 -0.93861,-2.33174 -1.34485,-3.51264c-0.0926,-0.01948 -0.18213,-0.03629 -0.26738,-0.04876c-1.64397,-0.24058 -3.22723,-0.79351 -4.85054,-1.14761c-5.18714,-1.13151 -10.88269,-1.59972 -15.92005,-3.26044c-1.01004,-0.33299 -1.79686,-1.187 -2.76329,-1.61245c-1.62649,0.06226 -4.29112,0.99394 -3.93263,-0.28938l-0.65326,-1.62655c-0.41937,-0.00888 -0.83149,-0.04727 -1.23435,-0.11317l-0.4304,0.6456l-2.88708,-1.92472c-2.41238,-1.55797 -4.00929,-4.27036 -4.00929,-7.35572c0,-4.83249 3.91751,-8.75 8.75,-8.75c1.83863,0 3.54481,0.5671 4.95317,1.53592l0.56463,0.37642c0.51806,0.03088 1.03522,0.08052 1.55131,0.15322c4.06732,0.57295 7.71392,2.33195 11.71265,3.11777c3.3527,0.65887 6.67442,1.58785 10.08045,1.85925c2.32596,0.18534 4.67505,-0.19759 7,0c1.45639,0.12377 2.81723,0.96054 4.27887,0.95855c1.74275,-0.00236 3.40243,-0.80498 5.13722,-0.97132c3.28785,-0.31526 6.57487,-0.64 9.8595,-0.98723c10.72097,-1.13337 22.06839,-0.04258 32.8622,-0.04258h3c0,0 8.75,0 8.75,8.75z"/></g></g></svg>