<svg version="1.1" xmlns="http://www.w3.org/2000/svg" xmlns:xlink="http://www.w3.org/1999/xlink" width="157.27383" height="159.84604" viewBox="0,0,157.27383,159.84604"><g transform="translate(-125.16898,-117.84933)"><g stroke="none" stroke-width="0.5" stroke-miterlimit="10"><path d="M223.02252,182.13447c7.5,0 7.5,7.5 7.5,7.5l-1.25962,4.91959c-2.70494,4.00186 -5.01152,8.27999 -7.71119,12.32091c-1.08215,1.38465 -2.02133,2.89402 -3.24644,4.15395c-0.54838,0.56396 -1.49498,0.64631 -2.00416,1.24591c-0.95533,1.12498 -1.31571,2.67765 -2.27801,3.79668c-0.63302,0.73612 -1.69243,0.98441 -2.40267,1.64633c-1.15708,1.07838 -1.53531,2.78649 -2.54058,4.00763c-4.09724,4.97705 -8.69067,9.55724 -12.9087,14.42737c-1.47076,1.69813 -2.47094,3.76696 -3.93084,5.47444c-2.91491,3.40925 -6.57455,7.13372 -10.02301,9.99808c-1.40404,1.16622 -3.19336,1.82301 -4.55601,3.03734c-2.46136,2.19345 -4.77192,4.56286 -7.34636,6.62241c-5.76393,5.76393 -12.78469,10.10967 -20.15354,13.40271c-3.49491,1.56183 -4.07808,2.47091 -8.23073,2.88001c-3.91342,0.38554 -8.27782,0.02458 -11.37638,-2.87816c-2.26644,-2.12321 -5.03125,-4.53473 -5.35618,-7.62329c-0.21154,-2.01077 0.75972,-3.90873 1.92044,-5.70402c-2.41322,-5.68982 3.20302,-9.05956 3.20302,-9.05956c6.48554,-3.86962 12.52378,-8.43666 19.07765,-12.205c9.92031,-5.70397 19.03446,-11.35329 25.79722,-20.8372c3.05264,-2.03509 3.14252,-3.42221 5.71208,-6.44473c2.89794,-3.40879 5.78642,-7.1098 9.26368,-9.99808c2.1026,-1.74646 4.70001,-2.86472 6.83402,-4.55601c1.16528,-0.92353 1.77917,-2.38601 2.75153,-3.51086c1.02447,-1.18513 2.09731,-2.34777 3.32316,-3.32316c0.23558,-0.18744 0.76312,0.22797 0.90231,-0.03897c0.26992,-0.51766 -0.19524,-1.21299 0.03109,-1.75113c1.23769,-2.94273 3.18594,-5.28902 5.49023,-7.29578c0.89329,-1.95575 2.76446,-4.00409 6.68397,-4.00409c3.78295,0 5.65781,1.9081 6.587,3.79943c0.08142,-0.00183 0.16376,-0.00275 0.24702,-0.00275z" fill="#92620f"/><path d="M266.22735,198.9819c0.10985,0.90303 0.05255,1.93208 -0.24,3.10229c-1.81902,7.27607 -9.09509,5.45705 -9.09509,5.45705c-7.67946,-2.01265 -14.10946,-6.77467 -20.92882,-10.6606c-4.18604,-2.38537 -8.56766,-5.31314 -12.97601,-7.23838c-3.06636,-1.33916 -5.29029,-1.83208 -8.14693,-3.79483c-0.88508,-0.60812 -1.40778,-1.64882 -2.27801,-2.27801c-2.22047,-1.60543 -5.03496,-2.8444 -7.36828,-4.39995c-3.80579,-2.73193 -6.81652,-4.05948 -7.13354,-10.24515c-0.11527,-2.24925 2.14279,-3.97112 3.00309,-6.05254c0.84452,-2.04324 1.36052,-4.22432 2.34183,-6.2055c4.66498,-9.41811 12.08899,-17.58539 20.74734,-23.37182c4.50255,-3.00908 8.25279,-6.72696 13.26186,-8.97063c3.51004,-1.57222 8.54267,-3.47116 12.28481,-4.31955c0.88855,-0.20144 1.84716,0.28038 2.7325,0.06531c0.80847,-0.1964 1.43893,-0.83563 2.15839,-1.25344c8.11176,-2.00774 15.27955,-1.43576 19.33231,7.03733c1.03215,2.15791 0.72043,4.76922 1.58891,6.99804c0.33134,0.85033 1.19987,1.42289 1.51867,2.27801c0.54063,1.45016 0.56822,3.04924 1.01931,4.5297c2.64976,8.69633 5.36516,17.289 4.05141,26.59287c-1.01481,7.18685 -5.3338,13.67131 -9.30967,19.55346c-1.24673,2.52461 -3.13392,5.09636 -4.18398,7.62239c-0.7721,1.85739 -1.42548,3.78763 -2.38013,5.55394z" fill="#918c81"/><path d="M250.99212,158.18496c3.3541,6.7082 -3.3541,10.06231 -3.3541,10.06231l-2.00612,0.89478c-1.72034,1.79727 -4.34148,2.84708 -5.91604,4.53433c-1.81893,1.9491 -3.68815,4.40307 -5.25544,6.62185c-0.96201,1.36189 -2.13052,1.99805 -1.65989,3.26156c0,0 0,7.5 -7.5,7.5c-7.5,0 -7.5,-7.5 -7.5,-7.5c0.10727,-1.73691 -0.16782,-3.54081 0.32181,-5.21072c1.37538,-4.69085 5.96112,-8.87364 8.97148,-12.4529c0.7448,-0.88556 1.18553,-2.02004 2.01544,-2.82639c2.37896,-2.31142 5.33244,-3.7548 7.75199,-6.09636l4.06857,-2.14256c0,0 6.7082,-3.3541 10.06231,3.3541z" fill="#7d786f"/></g></g></svg>