<svg version="1.1" xmlns="http://www.w3.org/2000/svg" xmlns:xlink="http://www.w3.org/1999/xlink" width="40.95904" height="42.38047" viewBox="0,0,40.95904,42.38047"><g transform="translate(-32.31988,-20.20574)"><g stroke-miterlimit="10"><path d="M34.06988,60.83621v-38.88047h37.45904v38.88047z" fill="#d3d9d8" stroke="#c3cac9" stroke-width="3.5"/><path d="M59.53729,30.52717c4.8487,-0.52459 5.15336,4.82813 4.70244,7.46992c-0.80803,4.73396 -4.62432,7.18451 -9.00458,5.41395c-0.11365,0.64085 -0.28886,1.2973 -0.30184,1.91674c-0.05197,2.47882 0.00852,4.96799 0.00852,7.44753c0,0 0,2.5 -2.5,2.5c-2.5,0 -2.5,-2.5 -2.5,-2.5c0,-2.44169 -0.4297,-5.46581 0.00852,-7.85994c0.08212,-0.44866 0.86183,-0.73936 0.71028,-1.16956c-0.0019,-0.00538 -0.00392,-0.01056 -0.00605,-0.01553c-0.08815,-0.02982 -0.17738,-0.06138 -0.26771,-0.0947c-0.24689,0.0483 -0.59491,0.24754 -0.82488,0.17738c-1.17065,-0.35715 -2.46189,-0.62463 -3.38033,-1.43361c-1.06402,-0.93722 -1.88238,-2.22145 -2.30564,-3.57474c-1.20727,-3.85995 1.583,-9.37206 6.18955,-9.14574c2.39041,0.11744 4.69349,2.32591 5.97536,4.79539c0.35727,-1.88944 1.20004,-3.67865 3.49637,-3.92709zM50.21441,34.81471c-0.25176,-0.21009 -0.51134,-0.24476 -0.77087,0.00115l0.73103,0.01296c0.01319,-0.00482 0.02647,-0.00952 0.03984,-0.01411z" fill="#6ce500" stroke="none" stroke-width="0.5"/><path d="M51.06823,51.20741c0.35801,0.61738 0.55089,1.51424 -0.19259,2.57635c-1.43366,2.04808 -3.48174,0.61442 -3.48174,0.61442c-0.1862,-0.13582 -0.3724,-0.27163 -0.5586,-0.40745l-1.3809,-0.42773l-2.28707,-1.03958c-0.89206,-0.38183 -1.51707,-1.26761 -1.51707,-2.29936c0,-1.38071 1.11929,-2.5 2.5,-2.5c0.22872,0 0.45026,0.03071 0.66073,0.08824l2.49686,0.62421l-0.05426,0.21702l0.48521,-0.06631c0.412,0.28009 0.824,0.56017 1.236,0.84026l0.35851,0.10284c0,0 1.39182,0.41755 1.7349,1.67708z" fill="#55b600" stroke="none" stroke-width="0.5"/><path d="M62.57043,49.5146c-0.35355,2.47487 -2.82843,2.12132 -2.82843,2.12132l0.8175,-1.12574c-1.24798,1.55091 -2.63059,3.00026 -4.10663,4.33597c0,0 -1.85824,1.67241 -3.53065,-0.18582c-1.67241,-1.85824 0.18582,-3.53065 0.18582,-3.53065c1.28125,-1.14588 2.47775,-2.39719 3.54711,-3.74297l3.79395,-0.70053c0,0 2.47487,0.35355 2.12132,2.82843z" fill="#55b600" stroke="none" stroke-width="0.5"/><path d="M49.72922,36.61742c0,-1.38071 1.11929,-2.5 2.5,-2.5c1.38071,0 2.5,1.11929 2.5,2.5c0,1.38071 -1.11929,2.5 -2.5,2.5c-1.38071,0 -2.5,-1.11929 -2.5,-2.5z" fill="#000000" stroke="none" stroke-width="0.5"/><path d="M39.58377,29.50601c-0.54233,-2.44047 1.89814,-2.98279 1.89814,-2.98279l4.50384,0.5816c0.49608,0.70868 0.99215,1.41736 1.48823,2.12604c0,0 1.43366,2.04808 -0.61442,3.48174c-2.04808,1.43366 -3.48174,-0.61442 -3.48174,-0.61442c-0.49608,-0.70868 -0.99215,-1.41736 -1.48823,-2.12604l0.67697,1.43202c0,0 -2.44047,0.54233 -2.98279,-1.89814z" fill="#55b600" stroke="none" stroke-width="0.5"/></g></g></svg>