<svg version="1.1" xmlns="http://www.w3.org/2000/svg" xmlns:xlink="http://www.w3.org/1999/xlink" width="174.61569" height="105.47679" viewBox="0,0,174.61569,105.47679"><g transform="translate(-152.69215,-127.2616)"><g fill="#c21313" stroke="none" stroke-width="0.5" stroke-miterlimit="10"><path d="M152.69217,193.9884c0,-8.75 8.75,-8.75 8.75,-8.75h1c4.95705,0.12724 9.60129,1.18702 14.40159,2.11298c1.80356,0.3479 2.92236,-0.17473 4.31286,-0.74107c-1.83509,-3.49726 -4.43677,-6.18084 -6.85742,-9.56816c-1.38269,-1.93486 -2.53044,-4.0336 -3.9554,-5.93754c-2.96815,-3.96585 -9.20535,-10.41047 -10.41756,-16.10588c-0.61583,-2.89339 -0.50068,-5.93054 -0.19149,-8.87254c0.29626,-2.81893 0.72928,-5.72929 1.99276,-8.26655c2.01548,-4.04741 6.92371,-6.69683 10.87496,-8.14763c8.78228,-3.22463 18.00317,-2.7988 27.10185,-1.3821c2.66777,0.41538 5.40538,0.63492 7.95555,1.52161c1.71441,0.5961 3.09061,1.90429 4.63592,2.85644c0,0 7.28044,4.85363 2.42681,12.13407c-4.85363,7.28044 -12.13407,2.42681 -12.13407,2.42681c-1.44237,-1.20919 -3.54066,-1.39044 -5.40853,-1.62195c-2.97989,-0.36934 -8.86069,-1.67589 -12.33625,-1.02147c-2.2156,0.41718 -4.38411,1.05617 -6.5619,1.63938c-0.29481,0.07895 -0.55807,0.29022 -0.82182,0.47963c0.40787,1.55413 -0.92886,3.86471 0.38469,5.57872c2.20178,2.87304 4.52099,5.65553 6.69581,8.54904c5.24238,6.97475 10.78748,14.08727 14.11775,22.10659c0.51129,2.00321 1.75776,3.95436 1.53388,6.00963c-0.33498,3.07524 -1.23262,6.29743 -3.13978,8.73302c-1.68735,2.15487 -4.56948,3.04184 -7.02573,4.24909c-5.11958,2.51626 -10.33579,3.50455 -15.98609,2.65491c-1.04237,-0.15674 -1.9565,-0.85093 -3,-1c-1.31993,-0.18856 -2.68007,0.18856 -4,0c-1.54537,-0.22077 -3.04123,-0.99709 -4.59841,-0.88702h-1c0,0 -8.75,0 -8.75,-8.75z"/><path d="M263.26841,206.07528c3.91312,7.82624 -3.91312,11.73936 -3.91312,11.73936l-3.79093,1.66251c-4.08958,0.9677 -5.75638,1.76362 -9.98439,1.21867c-7.73854,-0.99742 -16.12923,-5.36448 -20.58099,-12.10727c-0.73725,-1.11666 -0.81478,-2.56095 -1.41706,-3.75582c-0.59082,-1.17213 -1.63757,-2.09255 -2.14174,-3.30448c-0.67306,-1.61791 -1.23362,-3.33928 -1.68409,-5.12862c-1.70572,-0.49467 -3.29042,-1.10162 -4.62502,-1.79698c-1.52947,-0.79689 -2.58405,-2.28471 -3.87607,-3.42706c0,0 -6.18718,-6.18718 0,-12.37437c2.77763,-2.77763 5.55526,-3.06132 7.77309,-2.53049c0.32705,-1.95952 0.77144,-3.85117 1.33015,-5.63081c2.17605,-4.20383 2.90501,-7.03859 6.96773,-9.74989c7.79928,-5.20493 19.79964,-5.38424 26.0699,2.78717c1.50413,1.96019 2.15114,4.49682 2.68333,6.9096c2.56844,11.64442 -7.02529,21.63063 -17.46347,25.53165c0.25899,0.32434 0.50441,0.65674 0.68671,1.02562c0.34243,0.69289 0.3017,1.52428 0.58294,2.24418c0.52972,1.35599 2.45376,1.57336 3.61056,2.45718c0.44305,0.33849 0.773,0.86237 1.29472,1.05902c2.35323,0.88702 4.24694,0.21813 6.52933,-0.4048l0.20907,-0.33749c0,0 7.82624,-3.91312 11.73936,3.91312zM236.46779,177.48012c0.22145,-0.14368 0.41975,-0.27512 0.58952,-0.38852c0.27474,-0.18351 1.31653,-1.4885 1.38286,-1.64305c0.09761,-0.22743 0.09396,-0.59354 0.07634,-0.95672c-0.0215,0.00185 -0.04285,0.00591 -0.064,0.01249c-1.2982,0.40408 -1.42015,1.71855 -1.92639,2.83255c-0.0201,0.04735 -0.03953,0.09511 -0.05833,0.14324z"/><path d="M326.74315,191.22141c2.76699,8.30098 -5.53399,11.06797 -5.53399,11.06797l-4.3654,1.33604c-4.65274,0.09423 -9.27711,0.75083 -13.91772,1.0996c-1.81705,0.13656 -3.64197,0.22578 -5.47227,0.28003c0.00315,6.34134 -0.26161,12.72104 -0.26161,18.98335c0,0 0,8.75 -8.75,8.75c-8.75,0 -8.75,-8.75 -8.75,-8.75c0,-6.30695 0.30658,-12.74218 0.28547,-19.12673c-2.85434,-0.06676 -5.70261,-0.12327 -8.53547,-0.12327c0,0 -8.75,0 -8.75,-8.75c0,-8.75 8.75,-8.75 8.75,-8.75c2.38777,0 4.79006,0.04495 7.19922,0.10317c-0.26312,-5.41083 0.05078,-10.94522 0.05078,-16.35317v-3c0,0 0,-8.75 8.75,-8.75c8.75,0 8.75,8.75 8.75,8.75v3c0,5.44245 -0.38585,11.03108 -0.01691,16.4563c0.00232,0.03416 0.00472,0.06832 0.00719,0.10246c1.93426,-0.05151 3.86088,-0.14442 5.77584,-0.29537c4.02611,-0.31737 8.04579,-1.03083 12.08228,-0.9004l1.6346,-0.66396c0,0 8.30098,-2.76699 11.06797,5.53399z"/></g></g></svg>