<svg version="1.1" xmlns="http://www.w3.org/2000/svg" xmlns:xlink="http://www.w3.org/1999/xlink" width="40.95904" height="42.38047" viewBox="0,0,40.95904,42.38047"><g transform="translate(-168.40152,-20.20574)"><g stroke-miterlimit="10"><path d="M170.15152,60.83621v-38.88047h37.45904v38.88047z" fill="#d3d9d8" stroke="#c3cac9" stroke-width="3.5"/><path d="M190.44271,37.43949c2.01246,1.00623 1.00623,3.01869 1.00623,3.01869l-0.81094,1.5102c-2.28546,2.85683 -5.16021,5.41549 -6.28764,8.9335c0,0 -0.71152,2.13453 -2.84605,1.42303c-2.13453,-0.71151 -1.42302,-2.84605 -1.42302,-2.84605c1.41162,-4.1139 4.36102,-6.96937 7.04281,-10.3216l0.29993,-0.71154c0,0 1.00623,-2.01246 3.01869,-1.00623z" fill="#92620f" stroke="none" stroke-width="0.5"/><path d="M199.64772,37.6005l-0.15107,0.12765c-0.75532,2.77683 -2.6586,5.0714 -5.54911,5.0816c-3.50414,0.01236 -6.43124,-4.97973 -8.30461,-7.32144c0,0 -1.40556,-1.75695 0.35139,-3.16252c0.03991,-0.03193 0.07964,-0.06223 0.11918,-0.09095c0.04296,-0.25685 0.10537,-0.42328 0.10537,-0.42328l2.29228,-2.91052c2.02105,-0.33031 6.75744,-1.21639 8.55396,-0.08568c2.48338,1.56302 3.2554,5.24422 2.54833,8.43883c0.03429,0.20802 0.03429,0.34631 0.03429,0.34631z" fill="#918c81" stroke="none" stroke-width="0.5"/><path d="M193.47619,34.48651c0.70711,0.70711 0,1.41421 0,1.41421l-0.40505,0.36282c-0.81011,1.28357 -2.0222,2.24654 -3.11271,3.34008c0,0 -0.70711,0.70711 -1.41421,0c-0.70711,-0.70711 0,-1.41421 0,-1.41421c0.92627,-0.92341 2.20542,-1.8571 2.81194,-2.95486l0.70582,-0.74805c0,0 0.70711,-0.70711 1.41421,0z" fill="#7d786f" stroke="none" stroke-width="0.5"/></g></g></svg>