<svg version="1.1" xmlns="http://www.w3.org/2000/svg" xmlns:xlink="http://www.w3.org/1999/xlink" width="62.5" height="62.5" viewBox="0,0,62.5,62.5"><g transform="translate(-208.75,-148.75)"><g stroke-miterlimit="10"><path d="M212,180c0,-15.46397 12.53603,-28 28,-28c15.46397,0 28,12.53603 28,28c0,15.46397 -12.53603,28 -28,28c-15.46397,0 -28,-12.53603 -28,-28z" fill="#6ce500" stroke="#55b600" stroke-width="6.5"/><path d="M235.60638,166.68672c0,-6.75 6.75,-6.75 6.75,-6.75l3.3161,0.13108c1.55863,0.45031 3.34089,0.42903 4.67588,1.35093c3.98917,2.7548 5.09629,6.61466 6.74257,10.73035c0,0 2.50689,6.26722 -3.76033,8.7741c-6.26722,2.50689 -8.7741,-3.76033 -8.7741,-3.76033c-0.47137,-1.17843 -1.10923,-4.34866 -1.53158,-3.85722l-0.66853,0.13108c0,0 -6.75,0 -6.75,-6.75z" fill="#a5e66d" stroke="none" stroke-width="0.5"/></g></g></svg>