<svg version="1.1" xmlns="http://www.w3.org/2000/svg" xmlns:xlink="http://www.w3.org/1999/xlink" width="504" height="384" viewBox="0,0,504,384"><g transform="translate(16.5,11.5)"><g stroke="none" stroke-miterlimit="10"><path d="M-16.5,372.5v-384h504v384z" fill-opacity="0.30196" fill="#000000" stroke-width="0"/><path d="M120.25,99c0,6.25 -6.25,6.25 -6.25,6.25l-1.99886,-0.0807c-0.28649,0.09549 -0.57282,0.1845 -0.859,0.26721c1.0775,1.46044 1.76909,3.20342 2.78414,4.71717c0.96546,1.43981 2.84884,2.46229 3.09694,4.17799c0.6823,4.71843 -1.58091,10.54546 -5.22951,13.63525c-2.93329,2.48404 -10.02248,3.45864 -13.56799,4.16171c-8.42607,1.67087 -16.78632,1.52089 -25.25322,0.03633c-2.42818,-0.42575 -4.99239,-0.4117 -7.27087,-1.3529c-1.06885,-0.44152 -8.42287,-5.46111 -10.66406,-6.97867c-1.45138,-1.51586 -3.19255,-2.7997 -4.35414,-4.54757c-0.93263,-1.40334 -2.58635,-7.54593 -2.83488,-9.18031c-1.30078,-8.55404 -0.80334,-15.16696 1.05371,-23.47669c1.17253,-5.24669 0.89125,-6.61924 3.64921,-11.69085c4.50905,-8.29172 11.24787,-15.13594 18.62089,-20.87879c1.32749,-1.03399 6.58428,-5.06062 8.29918,-5.7749c5.52729,-2.30218 11.71034,-1.53428 17.52846,-1.53428c0,0 6.25,0 6.25,6.25c0,6.25 -6.25,6.25 -6.25,6.25c-3.70513,0 -8.97281,-1.13375 -12.47154,0.46572c-2.15115,0.98342 -3.83263,2.77445 -5.70082,4.2251c-6.16859,4.78995 -11.46933,10.30149 -15.37911,17.12121c-1.95685,3.41327 -2.64137,8.25425 -3.30479,12.08559c-1.23452,7.12945 -1.15605,7.29608 0.00771,14.74687c0.46166,2.95573 0.71381,4.42142 2.81098,6.27213c2.4822,1.61857 4.60587,3.86902 7.33594,5.02133c1.46585,0.61871 3.15684,0.40344 4.72913,0.6471c5.37268,0.83261 10.89596,1.49219 16.35665,0.94537c3.04936,-0.30536 6.03745,-1.08228 9.01169,-1.82104c1.2686,-0.31511 2.62988,-0.36518 3.81046,-0.92629c0.03548,-0.01686 0.07853,-0.04077 0.12602,-0.06879c-0.10581,-0.008 -0.19948,-0.04473 -0.25859,-0.11797c-1.1292,-1.39901 -1.53813,-3.30126 -2.71494,-4.66045c-0.92572,-1.06919 -2.37659,-1.54788 -3.45378,-2.46428c-1.54365,-1.31324 -2.41042,-3.43669 -4.19081,-4.40502c-0.926,-0.50363 -2,-0.66666 -3,-1l-4.48842,-9.70834c3.25846,-1.25917 6.34535,-3.11571 9.77539,-3.77753c2.305,-0.44474 4.43861,1.63397 6.7625,1.96613c2.58858,0.36998 4.80702,-0.15673 7.23521,-0.96613l4.00114,-0.0807c0,0 6.25,0 6.25,6.25z" fill="#e20000" stroke-width="0.5"/><path d="M216.41942,147.41941c-3.57209,3.57209 -7.14419,1.36974 -8.38261,0.39393c-1.5722,-0.24328 -3.15923,-0.44301 -4.58786,-1.10768c-10.08217,-4.69071 -13.72548,-15.65235 -15.8262,-26.28336c-1.14546,1.70418 -2.59193,3.21556 -3.96569,4.74596c-6.63124,7.38736 -20.05792,16.91553 -29.92292,10.05139c-0.23459,0.01996 -0.47916,0.03035 -0.73413,0.03035c-6.25,0 -6.25,-6.25 -6.25,-6.25v-3c0.15025,-9.31127 4.32025,-20.33859 12.96418,-25.31657c3.4444,-1.98361 7.40901,-2.97081 11.28468,-3.85273c1.95069,-0.44388 4.00079,-0.10997 6.00114,-0.0807c2.2719,0.03324 4.66972,-0.49138 6.81115,0.26817c3.22944,1.14548 5.77989,3.12062 7.21117,5.8087c6.12069,-0.98609 7.14264,5.14563 7.14264,5.14563c0.74549,4.4966 1.67448,8.97048 2.86157,13.37116c1.15118,4.26753 2.26465,11.83872 7.52453,13.95067c1.15061,0.462 2.44978,0.38469 3.67467,0.57704l4.19369,2.70922c0,0 4.41941,4.41941 0,8.83883zM159.84369,121.01327c0.90757,1.22233 1.21971,2.47088 1.21971,2.47088c-0.06271,0.53502 -0.32367,1.08371 -0.18813,1.60506c0.16405,0.63101 1.32127,-0.02955 1.94282,-0.22643c1.17741,-0.37295 2.30732,-0.89502 3.40465,-1.46182c4.62816,-2.39059 8.56788,-6.24121 11.416,-10.61332c0.74774,-1.14784 1.22516,-2.44839 1.82358,-3.68265c-2.12402,0.25253 -4.34999,-0.3429 -6.46117,0.06431c-2.30756,0.44509 -4.6679,0.99358 -6.71532,2.14727c-3.28508,1.8511 -5.46079,5.79015 -6.44214,9.6967z" fill="#e20000" stroke-width="0.5"/><path d="M314.16767,113.55278c1.54815,0.7883 3.08233,2.35067 3.08233,5.44722c0,6.25 -6.25,6.25 -6.25,6.25l-6.20031,-2.78312c-2.20315,-3.44952 -3.19483,-6.82605 -5.00484,-10.33589c0.00272,0.03441 -0.00574,0.06069 -0.0312,0.07218c-0.74126,0.33443 -1.6361,0.22473 -2.37187,0.57107c-3.14322,1.47958 -6.8223,4.67019 -9.17716,6.8409c-1.02602,0.94579 -11.23895,11.46504 -12.2655,11.89533c-3.30534,1.38547 -7.13004,0.73601 -10.69506,1.10401c-1.44144,-1.98667 -2.82773,-4.01456 -4.32432,-5.96003c-0.59342,-0.77141 -2.56427,-1.96561 -3.06678,-2.24875c-0.31392,-0.17688 -3.74948,-2.01262 -4.86409,-2.2364c-2.99266,-0.6008 -3.12826,1.30341 -5.34442,2.90097c-1.20926,0.87172 -2.77735,1.14715 -4,2c-0.88648,0.61835 -1.37771,1.69096 -2.23503,2.34915c-2.70777,2.07884 -5.01084,5.64292 -8.41941,5.83059c-2.94277,0.16202 -5.35147,-2.76771 -7.31657,-4.96418c-2.74315,-3.06612 -1.55015,-7.18084 -1.90301,-10.66996c-0.56754,-5.61185 -1.91725,-11.00496 -2.03042,-16.61586c0,0 0,-6.25 6.25,-6.25c6.25,0 6.25,6.25 6.25,6.25c-0.06835,1.69285 0.70873,3.31776 0.9193,4.99886c0.22311,1.78126 -0.13034,3.59922 0.05029,5.38528c0.12966,1.28209 0.54149,2.52192 0.80591,3.78374c0.10596,-0.08061 0.21274,-0.16004 0.32006,-0.23815c1.20532,-0.87716 2.78376,-1.13804 4,-2c1.33587,-0.94674 2.12178,-2.61428 3.57507,-3.36848c6.90834,-3.58514 13.95418,-1.57703 20.21642,2.03306c2.60787,1.50341 5.99804,3.23194 6.58389,6.1242c0.57723,-1.10626 2.01629,-2.2625 2.85965,-3.13792c5.51641,-5.72618 11.56063,-12.13784 19.02765,-15.35483c1.77761,-0.76584 3.6995,-1.26526 5.62813,-1.42893c6.99266,-0.59342 11.64768,3.52318 14.47936,9.67471c0.59945,1.30224 0.93268,2.74342 1.45195,4.08124z" fill="#e20000" stroke-width="0.5"/><path d="M398.08995,120.59463c1.40537,6.08995 -4.68457,7.49532 -4.68457,7.49532l-0.82011,0.18926c-9.25935,2.13054 -20.94437,6.44474 -30.44515,2.2781c-1.8796,-0.82431 -3.0852,-2.71004 -4.55953,-4.13788c-0.34397,-0.33312 -0.70506,-0.6549 -1.06704,-0.97696c-4.12139,1.13893 -8.24575,2.10365 -12.62966,2.74473c0,0 -6.18718,0.88389 -7.07107,-5.3033c-0.88389,-6.18718 5.3033,-7.07107 5.3033,-7.07107c2.80944,-0.39024 5.49674,-0.95272 8.14817,-1.621c-0.12583,-0.31325 -0.25433,-0.62516 -0.38664,-0.93515c-0.04294,-7.55607 -0.93733,-9.15273 2.58624,-16.15732c5.1662,-10.27004 16.78993,-13.46303 27.31704,-10.09023c2.48065,0.79478 5.14236,1.4864 7.15705,3.13755c5.52483,4.5279 6.13827,14.00694 2.02894,19.64705c-1.10787,1.52057 -2.97437,2.30578 -4.50004,3.4066c-2.4534,1.77021 -4.75542,3.78762 -7.40485,5.24822c-0.46645,0.25715 -1.09677,0.54894 -1.83025,0.85861c4.93601,-0.74357 10.01105,-2.15884 14.54274,-3.20783l0.82011,-0.18926c0,0 6.08995,-1.40537 7.49532,4.68457zM362.12268,110.71849c2.29471,-0.74549 7.71979,-2.55192 8.81529,-3.16702c2.67757,-1.50339 5.46274,-3.72056 8.09512,-5.34518c0.67942,-0.41931 -0.1005,-1.60134 -0.01491,-2.39514c0.10422,-0.96667 -1.8571,-0.57953 -2.79909,-0.82026c-3.34694,-0.85533 -5.18534,-1.28756 -8.87805,-0.19589c-4.50724,1.33248 -5.17059,8.32468 -5.21835,11.92349z" fill="#e20000" stroke-width="0.5"/><path d="M74.52358,295.42927c-5.92927,-1.97642 -3.95285,-7.90569 -3.95285,-7.90569l0.04715,-0.14146c3.50071,-10.48734 6.46232,-19.36694 12.78331,-28.49663c1.86193,-2.68927 7.22665,-9.17232 10.01944,-10.82424c10.95271,-6.4785 24.45622,1.66903 32.30838,8.83679c3.60704,3.29266 12.8459,13.34988 14.93557,16.08207c1.14815,1.50117 1.86703,3.29877 2.57683,5.05032c4.24022,10.46357 6.94986,19.60417 4.35376,30.85211c-1.9045,8.25148 -3.55967,10.46902 -7.23475,17.54669c-9.79347,8.1343 -19.49085,19.14073 -32.85927,21.24006c-8.43451,1.32453 -19.69576,-0.85594 -26.65558,-6.09903c-4.4324,-3.3391 -7.09609,-7.98238 -10.34556,-12.32026c-2.42534,-3.2377 -5.27915,-6.73645 -6.82951,-10.49627c-0.67808,-1.64444 -0.52269,-3.53691 -1.0822,-5.22538c-0.53261,-1.6073 -1.84798,-2.93026 -2.1711,-4.5924c-0.18967,-0.97569 -0.16719,-7.96562 -0.16719,-10.43596c0,0 0,-6.25 6.25,-6.25c6.25,0 6.25,6.25 6.25,6.25c0,2.52196 -0.68184,5.09515 -0.16719,7.56404c0.26307,1.262 1.41865,2.1855 1.8289,3.4076c0.51576,1.53642 0.33758,3.26137 0.9178,4.77462c0.67314,1.75557 4.11027,6.09186 5.17049,7.50373c2.25458,3.00237 4.55841,7.37625 7.65444,9.67974c4.40936,3.28062 12.0342,4.69052 17.34442,3.90097c10.0808,-1.49887 17.56993,-11.00926 25.14073,-16.75994c3.74213,-8.00482 7.22164,-16.63614 4.78448,-25.606c-0.93047,-3.42455 -2.36718,-6.69252 -3.66548,-9.9952c-0.39939,-1.016 -0.74168,-2.09683 -1.42317,-2.94968c-2.39648,-2.99902 -5.11762,-5.72455 -7.74496,-8.52354c-4.54479,-4.84171 -9.01863,-9.56165 -15.25887,-12.13457c-1.73101,-0.71372 -6.09673,-1.61835 -7.75222,-0.42303c-2.52448,1.82275 -4.20829,4.6156 -5.98056,7.17576c-5.59991,8.08944 -8.01341,15.87982 -11.12238,25.22045l-0.04715,0.14146c0,0 -1.97642,5.92927 -7.90569,3.95285z" fill="#e20000" stroke-width="0.5"/><path d="M203.29508,296.90983c5.59017,2.79508 2.79508,8.38525 2.79508,8.38525l-1,2c-3.7576,7.23837 -2.5974,15.61178 -5.66722,23.20021c-1.45004,3.58441 -2.39355,7.89658 -5.48238,10.22246c-5.53226,4.16578 -10.0641,0.17173 -13.27396,-3.25533c-3.59692,-3.84031 -5.47615,-8.6089 -7.76565,-13.18516c-3.58942,-7.17453 -7.2084,-13.96723 -10.20394,-21.45608c0,0 -2.32119,-5.80298 3.48179,-8.12417c5.80298,-2.32119 8.12417,3.48179 8.12417,3.48179c2.87808,7.19519 6.35055,13.64871 9.79606,20.54392c1.16714,2.33569 2.27018,4.72865 3.66858,6.9306c0.50256,-2.12539 1.17783,-4.21161 1.59895,-6.3548c1.27234,-6.47524 1.62948,-11.61085 4.54326,-17.59362l1,-2c0,0 2.79508,-5.59017 8.38525,-2.79508z" fill="#e20000" stroke-width="0.5"/><path d="M299.75,332.5c0,6.25 -6.25,6.25 -6.25,6.25h-1c-10.60041,-0.06479 -20.88019,4.27328 -31.61586,2.96958c-2.60146,-0.31591 -5.43475,-0.45478 -7.63347,-1.88064c-2.57499,-1.66986 -4.28154,-4.43805 -6.01527,-6.97049c-4.05025,-5.91617 -4.02269,-12.6562 -2.33214,-19.3343c-0.05784,-0.01311 -0.11564,-0.02646 -0.1734,-0.04008c-2.5407,-0.59883 -4.72519,-2.2537 -7.20628,-3.06482c0,0 -5.92927,-1.97642 -3.95285,-7.90569c1.97642,-5.92927 7.90569,-3.95285 7.90569,-3.95285c2.33687,0.7903 4.3868,2.39453 6.79372,2.93518c0.32681,0.07341 0.65543,0.13524 0.98547,0.18794c1.32316,-2.94817 2.6913,-5.76474 3.85457,-8.35808c2.36491,-3.12537 4.40279,-6.52755 7.09472,-9.3761c7.20182,-7.62084 17.49029,-4.96835 21.90957,3.79439c2.54224,5.04087 2.60045,13.11537 -0.2979,18.03177c-1.48971,2.52695 -4.45469,4.40178 -6.84969,5.91449c-1.52843,0.96538 -2.92875,2.24706 -4.65573,2.78151c-1.60884,0.49789 -3.37767,0.00249 -5.04751,0.22135c-1.56389,0.20497 -3.0377,1.04905 -4.61496,1.04506c-1.067,-0.0027 -2.11456,-0.21111 -3.15995,-0.452c-0.00712,0.02065 -0.01424,0.0413 -0.02136,0.06196c-1.43865,4.17652 -1.92998,10.75482 2.28195,13.80286c0.63987,0.46306 1.57674,0.10982 2.36653,0.11936c1.99846,0.02414 4.00228,0.12435 5.99578,-0.01834c8.22887,-0.589 16.12703,-2.97312 24.38836,-3.01208h1c0,0 6.25,0 6.25,6.25zM262.57215,302.61461c0.38085,-0.1458 0.7657,-0.27165 1.1642,-0.31778c0.98038,-0.11348 1.99112,0.44445 2.95249,0.22135c0.58912,-0.13672 0.85834,-0.85846 1.34427,-1.21849c1.01188,-0.74971 2.44273,-1.04372 3.15031,-2.08551c1.44703,-2.1305 -0.55523,-5.37223 -1.10285,-7.29476c-0.15574,-0.54677 -0.92391,0.68219 -1.28549,1.12092c-1.74737,2.12022 -3.27019,4.41593 -4.90528,6.6239c-0.43335,0.98595 -0.87588,1.968 -1.31766,2.95037z" fill="#e20000" stroke-width="0.5"/><path d="M354.91942,301.08058c4.41942,4.41942 0,8.83883 0,8.83883l-1,1c-2.49523,2.47135 -6.48395,4.29033 -8.34915,7.23502c-1.19652,1.88901 -1.81731,4.10231 -3,6c-0.45369,0.72797 -1.47307,1.01684 -1.85251,1.78613c-0.49247,0.99845 -5.86062,15.9427 -7.04234,17.06336c-0.28801,0.27313 -0.58705,0.53106 -0.89563,0.77586l0.13963,0.13963l-4,4c-1.13103,1.13103 -2.69353,1.83058 -4.41942,1.83058c-3.45178,0 -6.25,-2.79822 -6.25,-6.25v-3c0,-3.53722 0.26693,-7.08362 0.01208,-10.61164c-0.4368,-6.04684 -1.70937,-12.0216 -2.00432,-18.07702c-0.37394,-7.67724 1.01754,-14.74554 0.99224,-22.31134c0,0 0,-6.25 6.25,-6.25c6.25,0 6.25,6.25 6.25,6.25c-0.02018,7.33256 -1.38844,14.28842 -1.00776,21.68866c0.15591,3.03089 0.55502,6.0414 0.96658,9.05121c0.18521,-0.3962 0.37599,-0.78985 0.57342,-1.18044c0.4638,-0.91754 1.60155,-1.3427 2.14749,-2.21387c1.18741,-1.89475 1.72651,-4.16201 3,-6c2.54466,-3.67262 6.5845,-5.65794 9.65085,-8.76498l1,-1c0,0 4.41942,-4.41942 8.83883,0z" fill="#e20000" stroke-width="0.5"/><path d="M240.21637,242.20543c-2.11184,-3.81996 -4.25706,-7.63606 -5.64564,-11.729c-0.51457,-1.51672 -1.51619,-2.98054 -1.88079,-4.51674c-2.26587,-0.07201 -5.08231,-1.06775 -6.58171,-1.68543c-1.63458,-0.67338 -3.26863,-1.39653 -4.74527,-2.36856c-0.07078,-0.04659 -0.14435,-0.10202 -0.21632,-0.16414c-0.51668,0.56039 -1.16713,1.03172 -1.68421,1.59184c-5.96003,3.96771 -10.89854,5.54178 -17.96243,5.41661c-2.14571,-0.03802 -4.34652,0.32246 -6.43596,-0.16719c-2.04407,-0.47903 -3.90728,-1.58626 -5.70109,-2.67712c-0.39731,-0.24161 -0.23123,-1.15242 -0.69254,-1.21099c-0.50335,-0.06391 -0.66337,0.93583 -1.16928,0.9746c-5.79386,0.44403 -7.39217,0.07456 -11.0714,-4.51486c-1.14129,-1.42363 -1.69725,-3.23071 -2.51991,-4.85935c-3.71302,-7.35086 -6.6712,-17.25651 -5.613,-25.55873c0.27637,-2.16831 0.79405,-4.35707 1.76442,-6.31572c0.66627,-1.34483 1.90595,-2.33364 3.01933,-3.34005c0.15969,-0.14434 0.59951,0.238 0.64517,0.02765c0.21212,-0.97724 -0.43081,-2.09756 0,-3c0.75274,-1.57682 2.23655,-2.6851 3.35483,-4.02765c1.52983,-1.48834 2.47061,-3.51121 4,-5c6.46682,-6.29515 15.38056,-8.9119 24.18306,-7.78375c0.10646,0.01364 3.65776,0.8086 6.26832,1.55497c1.95021,-2.40745 5.01792,-5.19713 5.68222,-5.66837c0.85974,-0.60989 2.09081,-0.46663 3,-1c1.09163,-0.64039 1.70101,-2.03531 2.89405,-2.45768c1.51348,-0.53582 6.28918,-0.49118 8.39177,-0.47575c2.66711,0.01957 5.36631,-0.33346 8.00114,0.0807c6.14603,0.96608 13.02674,4.60405 18.89953,6.63318c3.59655,2.62267 7.42068,4.9067 10.51875,8.1167c0.98789,1.02358 2.14007,1.92924 2.89715,3.1336c0.6041,0.961 1.00632,2.0626 1.23155,3.18012c1.02102,-0.3 2.96544,0.73377 4.21553,0.90252c1.66898,0.2253 3.46047,-0.34219 5.04751,0.22135c4.01081,1.4242 7.88768,5.01867 9.17067,9.17067c1.89756,6.14083 -1.9166,9.67896 -4.36735,14.5571c-0.5642,1.12301 -0.59333,2.49917 -1.2979,3.53987c-1.06164,1.56811 -2.5835,2.76965 -3.89715,4.1336c-1.84588,1.91656 -3.22467,4.25764 -5.12432,6.12092c-0.20014,0.1963 -0.385,0.36617 -0.55547,0.51185c1.85186,2.24575 3.23344,4.67886 5.09377,6.98538c1.84401,2.28628 4.19558,4.37287 5.14844,7.15128c1.92779,5.62121 -0.05127,11.6763 -4.69601,15.12772c-3.16699,2.35333 -7.68751,2.28344 -11.28468,2.85273c-3.6164,0.57233 -7.46818,2.43557 -10.8514,3.69936c-1.54316,0.57644 -3.11608,1.04631 -4.70077,1.47484c-0.62201,1.04018 -1.69002,1.9916 -3.47254,2.58577c-2.16226,0.72075 -3.79884,0.39014 -5.00559,-0.32087c-0.33243,0.10339 -0.66396,0.21015 -0.99441,0.32087c0,0 -5.92927,1.97642 -7.90569,-3.95285c-1.36094,-4.08282 1.02662,-6.29139 2.64564,-7.271z" fill="#cc54e3" stroke-width="0.5"/><path d="M266.91942,226.91942c-0.37865,0.37865 -0.7573,0.69242 -1.13317,0.94964c2.99223,-1.5282 6.15858,-2.24617 9.41123,-2.4638c0.21892,-1.34281 0.60508,-2.83609 -0.01404,-3.61944c-2.39981,-3.03637 -6.92872,-5.13434 -8.45768,-8.89405c-1.39627,-3.43342 0.23118,-6.9854 -0.39505,-10.39063c-0.63914,-3.47545 -1.0807,-6.37825 -1.0807,-10.00114c0,-2 -0.12778,-4.00409 0,-6c0.02595,-0.40541 0.42527,-0.81421 0.26817,-1.18885c-0.33934,-0.80927 -1.26064,-1.27042 -1.63265,-2.0652c-1.93222,-4.12817 -1.55173,-4.59106 -1.63553,-8.74595c0,-1 -0.01614,-2.00013 0,-3c0.01444,-0.89444 0.81458,-2.40584 -0.03582,-2.68343c-1.00206,-0.3271 -2.10379,-0.44509 -3,-1c-0.53786,-0.33303 -0.56882,-1.20811 -1.10595,-1.54232c-0.21855,-0.13598 -0.35177,0.45377 -0.60823,0.47575c-1.32911,0.11391 -2.68277,0.1228 -4.00114,-0.0807c-1.04175,-0.16081 -1.96025,-0.82671 -3,-1c-0.98639,-0.1644 -2.01956,0.19683 -3,0c-1.6318,-0.32759 -3.2374,-0.84927 -4.74481,-1.55483c-0.79478,-0.372 -1.25594,-1.29331 -2.0652,-1.63265c-0.37464,-0.15709 -0.78344,0.24222 -1.18885,0.26817c-1.99591,0.12778 -4,0 -6,0c-3.7641,0 -8.34176,-0.75325 -11.99886,-0.0807c-1.99415,0.36673 -3.97241,1 -6,1c-2.24111,0.84242 -4.24524,2.32182 -6.56518,2.91351c-1.43269,0.3654 -2.96584,-0.08156 -4.43482,0.08649c-2.04821,0.23431 -3.71236,1.79783 -5.60937,2.60495c-0.64402,0.27401 -6.98768,2.32833 -7.39063,2.39505c-0.22168,0.03671 -6.24984,0.1288 -7.00114,0.0807c-0.40541,-0.02595 -0.80849,-0.41087 -1.18885,-0.26817c-3.86185,1.44879 -6.72811,6.34518 -9.84872,8.85156c-1.09712,0.88117 -2.28498,1.64954 -3.49555,2.36693c-0.46257,0.27412 -1.19253,0.15226 -1.49996,0.5934c-0.49087,0.70435 -0.21409,1.75269 -0.65035,2.49211c-0.47909,0.81201 -1.41519,1.26048 -2,2c-0.56136,0.70986 -0.10308,1.80992 -0.06657,2.71418c0,5.89104 -1.5822,14.09738 2.58339,19.03757c2.50388,2.96948 5.85459,4.81158 8.58603,7.54301c1.3642,1.3642 3.04302,2.37274 4.54301,3.58603c0.89267,0.72205 1.74297,1.51485 2.45699,2.41397c0.13386,0.16857 -0.24167,0.62223 -0.02765,0.64517c2.02291,0.21683 4.69323,-1.12164 6.60709,-1.39505c0.1524,-0.02177 0.30534,-0.036 0.45869,-0.04443c1.01935,-3.98763 0.23806,-8.74331 0.29245,-12.78627c0.01646,-1.22338 -0.25464,-4.91966 -1.75,-3.75h-3c0,0 -6.25,0 -6.25,-6.25c0,-6.25 6.25,-6.25 6.25,-6.25h3c1.79726,0.15858 3.72045,-0.20392 5.39177,0.47575c1.61856,0.65822 2.75261,2.16014 4.02765,3.35483c0.63086,0.5911 1.17951,1.18993 1.65666,1.79777c0.23058,-0.19884 0.44396,-0.41156 0.60736,-0.66417c0.87443,-1.35181 0.8719,-3.0992 1.36808,-4.63212l-0.30152,0.91793c0,0 0,-6.25 6.25,-6.25c6.25,0 6.25,6.25 6.25,6.25l-0.32073,2.97642c-0.47903,1.4371 -2.09431,6.40405 -2.6127,7.3094c-0.46848,0.81818 -1.51493,1.19155 -2,2c-0.54233,0.90388 -0.43471,2.11031 -1,3c-0.76289,1.20069 -1.93143,2.08907 -2.89715,3.1336c0,0 -0.84613,0.84613 -2.16816,1.4277c0.00594,2.30943 0.02457,4.49367 -0.13807,6.6662c0.96192,-0.21549 1.9177,-0.52128 2.88568,-0.68261c2.63552,-0.43925 4.73082,-0.19531 7.25519,-1.44517c1.37175,-0.67918 2.4321,-2.07596 3.9348,-2.36735c2.35805,-0.45726 4.89738,-0.46619 7.20292,0.20758c1.48004,0.43252 2.33826,2.01415 3.57066,2.94086c3.64259,2.73907 8.87791,5.63047 11.35414,9.54757c0.31093,0.49185 2.38606,6.46166 2.68418,7.5384c0.29706,1.07289 0.61483,2.14497 0.86705,3.22968c1.33172,-1.66651 2.82774,-3.33615 4.74042,-4.25651c1.62581,-0.78232 3.58753,-0.47575 5.39177,-0.47575c0.2574,0 0.386,0.60562 0.60823,0.47575c0.814,-0.4757 1.12462,-1.64985 2,-2c0.92848,-0.37139 2.02276,0.21212 3,0c0.21036,-0.04566 -0.16151,-0.4766 -0.02765,-0.64517c0.71401,-0.89912 1.551,-1.70869 2.45699,-2.41397c1.01583,-0.79079 2.06744,-1.54897 3.17591,-2.20555c-3.57339,1.51787 -6.6329,-1.54164 -6.6329,-1.54164l1.44299,0.50985c-2.26977,-0.84941 -4.40846,-2.10945 -6.3094,-3.6127c-1.34251,-1.06165 -3.52737,0.11913 -5.10595,-0.54232c-2.33788,-0.97961 -3.95181,-3.1894 -6.0751,-4.57393c0,0 -5.20031,-3.46688 -1.73344,-8.66719c3.46688,-5.20031 8.66719,-1.73344 8.66719,-1.73344c1.16518,0.78898 2.43545,1.44155 3.49555,2.36693c0.28699,0.25052 0.06712,0.94115 0.42934,1.05914c0.52522,0.17109 1.06893,-0.50932 1.60937,-0.39505c1.8263,0.38615 3.63457,0.98002 5.28468,1.85273c1.29516,0.68498 2.26246,2.06013 3.6906,2.3873l3.44299,2.50985c0,0 4.41942,4.41942 0,8.83883zM245.09703,254.54833c-0.4452,0.74868 -1.12614,1.48264 -2.13016,2.15198c-5.20031,3.46688 -8.66719,-1.73344 -8.66719,-1.73344c-0.92717,-1.55191 -2.2272,-2.93503 -2.78151,-4.65573c-0.72067,-2.23711 0.11121,-4.72082 -0.22135,-7.04751c-0.30841,-2.15779 -1.15616,-5.49227 -2.1134,-7.47783c-0.63605,-1.31933 -2.50217,-1.53747 -3.64586,-2.45243c-1.66103,-1.32883 -3.39548,-2.57077 -4.98384,-3.9856c-1.44451,1.11295 -4.23813,1.80466 -5.0773,2.08148c-4.40996,1.45474 -9.34158,2.22724 -13.97642,2.32073c-1.69285,-0.06835 -3.32166,0.6797 -4.99886,0.9193c-1.31993,0.18856 -2.68007,-0.18856 -4,0c-4.37968,0.62567 -8.77597,2.30232 -13.39291,0.60495c-3.22499,-1.18563 -3.38731,-3.21743 -5.57066,-4.94086c-8.46046,-6.67827 -18.2964,-13.29415 -20.20687,-24.83225c-0.78166,-4.72075 -0.0807,-10.23069 -0.0807,-15.00114c0.08529,-4.22849 -0.31438,-5.0357 1.93343,-9.28582c0.44078,-0.83343 1.51011,-1.19446 2,-2c0.651,-1.07045 0.54046,-2.55141 1.34965,-3.50789c2.32913,-2.7531 4.49506,-3.04383 7.00449,-5.03968c4.67523,-3.7184 8.08971,-9.19575 14.15128,-11.14844c3.18392,-1.02568 6.63344,0.34881 9.81001,-0.18747c2.99255,-0.50521 5.89183,-2.50537 8.60937,-3.60495c1.42353,-0.57599 2.87535,-1.14582 4.39063,-1.39505c1.17298,-0.19293 2.41001,0.367 3.56518,0.08649c2.60756,-0.63319 4.87746,-2.27393 7.43482,-3.08649c2.02759,0 3.99615,-0.69068 6,-1c5.40477,-0.83429 11.51721,-0.0807 17.00114,-0.0807c1.65828,0 6.73653,-0.05565 7.81115,0.26817c1.88401,0.56773 3.23298,2.60779 5.18999,2.81253c2.01658,0.21097 4.00585,0.63327 6,1c2.42637,0.44621 5.06501,-0.42829 7.39063,0.39505c1.19304,0.42237 1.80242,1.81729 2.89405,2.45768c0.90919,0.53337 2.14276,0.38661 3,1c1.54527,1.1057 3.0161,2.42423 4.03075,4.03075c2.43793,3.86002 1.93343,8.03262 1.93343,12.28582c-0.10342,2.56138 1.99219,4.7344 2.73183,7.18885c1.50514,4.99479 -0.73746,10.7805 0.18747,15.81001c0.19065,1.03671 0.83919,1.95825 1,3c0.35604,2.30655 0.38579,4.6873 0.0807,7.00114c-0.03365,0.25519 -0.54786,0.36114 -0.47575,0.60823c0.0603,0.20664 0.47261,-0.15632 0.64517,-0.02765c0.75582,0.56358 1.33333,1.33333 2,2c0.90933,0.90933 4.52336,4.47112 4.89715,5.1336c2.02701,3.5925 2.42774,8.2406 1.93343,12.28582c-0.27324,2.2361 0.2394,4.90491 -1.17974,6.65444c-1.65779,2.04375 -4.71275,2.34324 -7.06912,3.51486c-3.51887,0 -7.19426,0.26564 -10.03871,2.66409c-2.27031,1.91434 -2.13968,3.30299 -5.57066,4.94086c-0.90244,0.43081 -2.07152,-0.37139 -3,0c-0.87538,0.35015 -1.106,1.70057 -2,2c-1.64561,0.55117 -3.44469,0.48219 -5.18513,0.47613c-0.45757,2.23747 -2.22586,3.48025 -3.78722,5.16904z" fill="#bb4dd0" stroke-width="0.5"/><path d="M245.91689,176.69114c0.1575,-0.30358 2.95023,-5.49529 8.37819,-2.78131c5.59017,2.79508 2.79508,8.38525 2.79508,8.38525l-4.61375,5.13419c-1.83561,0.42052 -2.14331,0.77919 -2.78028,1.87941c0.6799,-0.03081 1.29846,-0.05868 1.80385,-0.05868h1c0,0 6.25,0 6.25,6.25c0,6.25 -6.25,6.25 -6.25,6.25h-1c-5.249,0 -12.43534,0.28283 -16.79371,-3.28308c-2.29964,-1.88151 -2.98327,-5.13983 -4.52286,-7.6811c-0.48853,-0.80637 -1.55922,-1.16657 -2,-2c-2.22199,-4.20131 -1.93343,-7.80224 -1.93343,-12.28582c0,0 0,-6.25 6.25,-6.25c6.25,0 6.25,6.25 6.25,6.25c0,0.55829 -0.51769,4.97537 0.06657,5.71418c0.12981,0.16415 0.27677,0.31405 0.43215,0.45681c2.02099,-2.80288 3.78596,-4.53714 6.66817,-5.97985z" fill="#bb4dd0" stroke-width="0.5"/></g></g></svg>