<svg version="1.1" xmlns="http://www.w3.org/2000/svg" xmlns:xlink="http://www.w3.org/1999/xlink" width="211.38483" height="330.70386" viewBox="0,0,211.38483,330.70386"><g transform="translate(-134.30759,-14.64807)"><g stroke="none" stroke-miterlimit="10"><path d="M291.70185,337.9191c-0.0269,0.05674 -0.05403,0.11336 -0.08139,0.16984c-2.41566,1.37213 -4.88923,2.43491 -7.57487,2.51194c-9.8414,0.28226 -19.17632,2.42803 -29.18173,2.0375c-3.30573,-0.12902 -4.77183,-4.57342 -9.31354,-3.33477c-0.25084,0.06841 -0.5038,0.13318 -0.75825,0.1955c-0.29964,-0.14162 -0.57377,-0.27164 -0.79017,-0.38531c-1.60025,-0.84057 -2.90347,-2.59017 -4.70827,-2.69044c-1.45751,-0.08097 -2.52074,1.45702 -3.80128,2.17402l-0.04435,-0.04558l-0.13287,-0.21037l-0.97485,0.79761c-1.15788,0.50539 -2.54817,1.09525 -3.1404,1.90933c-0.1103,0.15163 -0.21387,0.3056 -0.31088,0.46177l-0.62704,0.39603l-0.24163,0.12082l-0.43102,0.37225l-0.86205,0.27428l-0.32565,0.16282l-3.30169,1.25779l-1.65175,0.2591l-1.59324,0.50694l-3.51562,0.35157h-0.36409l-0.8937,0.14019l-0.55199,-0.14019h-4.75201l-0.552,0.14019l-0.8937,-0.14019h-0.36409l-3.51562,-0.35157l-1.59324,-0.50694l-1.65175,-0.2591l-0.08382,-0.03193l-1.32207,-0.13221l-1.11915,-0.35609l-0.37005,0.07489l-0.80606,-0.33586l-0.94973,-0.14897l-3.30169,-1.25779l-0.32565,-0.16282l-0.86204,-0.27428l-0.43102,-0.37225l-0.24164,-0.12082l-0.97543,-0.61606l-1.54014,-0.64172l-3.1014,-3.18755l-3.18755,-3.1014l-0.39648,-0.95156l-1.29747,-1.29747l-2.23733,-2.73451l-0.03602,-0.06964l-0.05467,-0.0562l-1.88669,-2.98725l-1.86035,-3.7207l-0.38776,-1.01788l-0.42538,-0.51991l-0.18301,-0.35384l-1.35725,-1.57155l-0.87014,-2.73474l-1.31847,-2.54904l-0.03789,-0.51788l-0.50399,-1.58395l-1.31847,-2.54905l-0.15154,-2.07097l-0.12078,-0.37961l-0.05338,-0.53378l-1.04093,-2.73245l-0.2591,-1.65175l-0.50694,-1.59324l-0.05338,-0.53379l-1.04093,-2.73245l-0.2591,-1.65175l-0.50694,-1.59324l-0.35157,-3.51563v-0.36409l-0.14018,-0.8937l0.10471,-0.41233l-0.45776,-2.28884l-0.21633,-2.20652l-0.2206,-2.20609v-0.56259l-0.49324,-2.4662l-0.21632,-2.20652l-0.22061,-2.2061v-31.6765l-0.14019,-0.55199l0.14019,-0.8937v-0.36409l0.10082,-1.00823l-0.68557,-0.26118l-2.28991,-1.14495l-1.54451,-0.63598l-0.17267,-0.2603l-0.68903,-0.43518l-1.54015,-0.64173l-3.1014,-3.18755l-3.18755,-3.10139l-0.50268,-1.20645l-1.56825,-1.91675l-0.18302,-0.35383l-1.35725,-1.57155l-0.87014,-2.73475l-1.31847,-2.54905l-0.00736,-0.10059l-0.80716,-1.1075l-1.44526,-3.22404l-0.11514,-0.3454l-0.41561,-0.80351l-0.04156,-0.56799l-1.28805,-3.86414l-0.77821,-3.44639l-0.00108,-0.0784l-0.02378,-0.07471l-0.09572,-0.9572l-0.03139,-0.09417l-0.77822,-3.44639l-0.00108,-0.0784l-0.02378,-0.07471l-0.09572,-0.9572l-0.03139,-0.09418l-0.77821,-3.44638l-0.00108,-0.0784l-0.02378,-0.07471l-0.35156,-3.51563v-1.87562l-0.07167,-0.45691l-0.50694,-1.59324l-0.35157,-3.51563v-0.36409l-0.14019,-0.8937l0.14019,-0.55199v-2.85637l-0.07167,-0.45691l-0.50694,-1.59324l-0.13221,-1.32207l-0.03193,-0.08381l-0.2591,-1.65175l-0.50694,-1.59324l-0.00608,-0.06081l-0.15805,-0.4149l-0.2591,-1.65175l-0.50694,-1.59324l-0.35157,-3.51563v-0.36409l-0.14018,-0.8937l0.14018,-0.55199v-17.72389l0.35157,-3.51563l0.02377,-0.07471l0.00108,-0.0784l0.77821,-3.44638l0.70573,-2.11718v-0.99963l0.35156,-3.51563l0.02377,-0.07471l0.00108,-0.0784l0.6507,-2.88169l0.25463,-2.54625l0.02377,-0.07471l0.00108,-0.0784l0.77821,-3.44639l0.03139,-0.09418l0.09572,-0.9572l0.50694,-1.59324l0.2591,-1.65174l1.25779,-3.3017l0.16282,-0.32565l0.27429,-0.86204l0.37224,-0.43102l1.98117,-3.96233l0.61606,-0.97543l0.64173,-1.54015l3.18755,-3.1014l3.1014,-3.18755l1.20645,-0.50268l1.91674,-1.56824l1.48505,-0.76813l1.35117,-0.98476l3.22404,-1.44526l0.34541,-0.11513l0.80351,-0.4156l0.39488,-0.0289l0.57267,-0.28633l-0.01866,-0.0256l-0.54179,-1.20861l-0.49585,-0.60604l-0.76813,-1.48505l-0.98476,-1.35117l-1.39873,-3.12024l-0.21281,-0.31922l-1.02676,-1.93272l-0.15222,-0.20887l-0.22294,-0.49731l-0.25568,-0.48129l-0.07141,-0.24838l-0.89523,-1.99706l-0.93017,-2.79053l-0.77822,-3.44639l-0.00107,-0.0784l-0.02378,-0.07471l-0.00608,-0.06082l-0.15805,-0.4149l-0.2591,-1.65175l-0.50694,-1.59324l-0.35156,-3.51563v-0.36408l-0.14019,-0.8937l0.14019,-0.55199v-4.75201l-0.14019,-0.55199l0.14019,-0.8937v-0.36409l0.35156,-3.51563l0.50694,-1.59324l0.2591,-1.65175l1.25779,-3.30169l0.16282,-0.32565l0.27429,-0.86205l0.37225,-0.43102l1.13094,-2.26188l0.0289,-0.39488l0.41561,-0.80351l0.11514,-0.3454l1.44525,-3.22404l0.98475,-1.35117l0.76813,-1.48505l1.30972,-1.60077l1.36378,-2.72754l1.88668,-2.98725l0.05467,-0.0562l0.03602,-0.06964l1.8827,-2.30107l0.81713,-1.29379l0.27781,-0.28552l1.0617,-1.78457l2.31925,-1.6903l2.00129,-2.05689l1.91678,-0.79866l0.32194,-0.23464l3.22404,-1.44526l2.42882,-0.80961l1.54183,-0.64243l0.20509,0.04151l0.31847,-0.15923l3.30169,-1.25779l1.65175,-0.25909l1.59324,-0.50694l1.99974,-0.19997l1.63987,-0.40997l1.73124,-0.25335l0.21019,-0.06688l0.77943,-0.07795l0.77507,-0.11342l0.22014,0.01391l1.74099,-0.1741h6.51122l3.51563,0.35157l0.07471,0.02377l0.0784,0.00108l3.44639,0.77821l2.48605,0.82869l2.28602,0.2286l0.07471,0.02377l0.0784,0.00108l3.44638,0.77821l2.79053,0.93017l1.45606,0.65272l1.49113,0.56805l1.86035,0.93018l0.62814,0.39672l1.07555,0.24287l2.79053,0.93017l1.45606,0.65272l1.49113,0.56805l0.43014,0.21507l3.24431,1.08144l2.8824,0.7206l1.19402,0.42862l0.10954,0.01718l1.0073,0.38373l1.01453,0.36419l0.09435,0.05824l1.18552,0.45162l7.4414,3.7207l2.98725,1.88668l0.0562,0.05467l0.06964,0.03602l1.91675,1.56825l1.20645,0.50268l3.10139,3.18754l0.93583,0.91054c-0.42034,5.2912 -0.32289,10.84579 -0.34379,15.66856c-0.03115,7.18432 -1.5219,14.64819 -1.63,21.97709c-0.07495,5.08092 -4.55108,9.04406 -4.48251,14.40864c0.08255,6.45827 0.3193,12.31946 4.75119,17.19454c5.16235,5.67857 17.82565,5.58677 24.95599,2.08474h4.79766l0.45691,-0.07167l1.59324,-0.50694l0.98828,-0.09883l0.06309,-0.02828l2.79053,-0.93017l3.44639,-0.77822l0.0784,-0.00108l0.07471,-0.02378l3.51563,-0.35156h5.58105l3.51563,0.35156l0.07471,0.02378l0.0784,0.00108l3.44639,0.77822l1.07361,0.35787l0.56799,0.04156l0.80351,0.4156l0.3454,0.11513l3.22404,1.44526l1.31525,0.95857l0.60122,0.25051l2.71506,0.86388l0.59823,0.51666l0.72965,0.30402l1.9869,2.04208l4.4196,3.81693l0.22725,0.84083l2.44572,2.37962l0.64173,1.54015l0.61606,0.97543l0.30372,0.60744l1.08333,1.62499l0.65639,1.23555l0.7471,1.18291l0.12081,0.24163l0.37224,0.43103l0.27429,0.86204l0.16282,0.32565l1.18854,3.11993c-1.19553,8.61706 -6.0923,19.74702 -12.32717,25.38223c-1.37867,1.24608 -3.65944,0.6613 -5.46631,1.09565c-5.37122,1.29116 -7.12724,1.71349 -12.14326,2.02184c-0.85657,-0.82243 -1.98146,-1.464 -3.45028,-1.83121c-5.88766,-1.47191 -14.03204,-1.71062 -20.89809,0.31233c-3.1371,-0.90842 -6.47471,-0.83735 -10.43601,1.1433c-8.11843,4.05921 -10.93629,14.23199 -10.55728,22.98834c0.23952,5.53378 4.79653,15.19783 6.41754,20.91383c0.77193,2.72198 1.2055,5.84363 2.14496,8.71353v1.56194l0.07167,0.45691l0.50694,1.59324l0.25463,2.54625l0.6507,2.88169l0.00108,0.0784l0.02377,0.07471l0.35156,3.51562v8.44102l0.70573,2.11717l0.77822,3.44638l0.00107,0.0784l0.02378,0.07471l0.00608,0.06082l0.15806,0.4149l0.2591,1.65174l0.50694,1.59324l0.25463,2.54626l0.6507,2.88169l0.00108,0.0784l0.02377,0.07471l0.25463,2.54625l0.06303,0.27914l0.29228,0.81423l1.34059,5.36233l0.52545,1.37931l0.12514,0.22613l0.15953,0.52112l0.19402,0.50928l0.04005,0.25533l0.64061,2.09267l0.33925,1.69623l0.51282,1.02565l0.45163,1.18552l0.05824,0.09434l0.36419,1.01453l0.38373,1.0073l0.01718,0.10954l0.42863,1.19402l0.4104,1.64163l1.00413,2.63585l0.2591,1.65175l0.50694,1.59324l0.1322,1.32207l0.03193,0.08382l0.22576,1.4392l1.03203,4.06363l-0.1973,1.25779l0.1973,1.25779l-1.03203,4.06363l-0.06748,0.43019l1.25742,1.53685l0.76813,1.48505l0.98476,1.35117l1.44526,3.22404l0.11514,0.3454l0.4156,0.80351l0.04156,0.568l1.28804,3.86414l0.25412,1.12535l0.63528,1.54282l-0.06092,4.44696l0.06092,4.44695l-0.63528,1.54282l-0.25412,1.12535l-0.93017,2.79053l-0.65271,1.45605l-0.56805,1.49113l-2.79053,5.58105l-0.7471,1.18291l-0.65639,1.23555l-1.08332,1.62498l-0.08573,0.17146zM210.65512,281.27855l3.16707,-3.08147l3.10139,-3.18755l1.54015,-0.64173l0.97543,-0.61606l0.24163,-0.12081l0.43103,-0.37225l0.86204,-0.27429l0.32565,-0.16282l3.30169,-1.25779l0.94973,-0.14898l0.80606,-0.33586l0.37005,0.07489l0.22239,-0.07076l-0.1937,-1.97568l-0.14709,-1.47091l-0.56676,-2.83379l-0.21632,-2.20652l-0.12367,-1.23672l-0.18065,-0.80001l-0.40953,-1.3378l-0.93017,-4.65088l-0.21633,-2.20652l-0.22061,-2.20609v-0.3901l-0.55376,-2.45239l-0.00108,-0.0784l-0.02377,-0.07472l-0.35157,-3.51563v-10.23192l0.02958,-0.29572l-0.15147,-2.07001l0.43402,-0.75551l0.03944,-0.39439l2.46093,-7.73438l6.67969,-7.73438l0.86432,-0.2336l-0.12458,-1.24586v-23.30494l-0.14019,-0.552l0.14019,-0.8937v-0.36409l0.35156,-3.51563l0.50694,-1.59324l0.2591,-1.65175l1.25779,-3.30169l0.16282,-0.32565l0.27429,-0.86205l0.37224,-0.43102l3.12641,-6.25282l1.35469,-4.06408l0.65272,-1.45605l0.56805,-1.49113l1.86034,-3.7207l0.61606,-0.97543l0.64173,-1.54015l3.18755,-3.10139l1.09468,-1.12509l-0.03502,-0.0157l-0.98828,-0.09883l-0.07472,-0.02377l-0.07839,-0.00108l-3.44639,-0.77821l-2.79053,-0.93017l-1.45605,-0.65272l-1.49113,-0.56805l-1.86035,-0.93018l-2.98725,-1.88668l-0.05619,-0.05468l-0.06964,-0.03602l-2.73451,-2.23733l-1.86035,-1.86035l-2.23733,-2.73451l-0.03602,-0.06964l-0.05467,-0.0562l-1.88669,-2.98725l-0.93017,-1.86034l-0.56805,-1.49113l-0.65272,-1.45606l-0.93017,-2.79052l-0.77822,-3.44639l-0.00107,-0.0784l-0.02378,-0.07471l-0.35156,-3.51563v-0.98074l-0.14019,-0.55199l0.14019,-0.8937v-0.36409l0.35156,-3.51563l0.50694,-1.59324l0.2591,-1.65174l0.03193,-0.08382l0.1322,-1.32207l0.50694,-1.59324l0.2591,-1.65174l0.15805,-0.4149l0.00608,-0.06082l0.50694,-1.59324l0.07167,-0.45691v-0.01528l0.35156,-3.51563l0.50694,-1.59324l0.2591,-1.65175l0.03193,-0.08382l0.13221,-1.32207l0.02377,-0.07471l0.00108,-0.0784l0.55376,-2.45239v-1.32027l0.35157,-3.51563l0.02377,-0.07471l0.00108,-0.0784l0.55376,-2.45239v-5.04097l0.35156,-3.51563l0.02377,-0.07471l0.00108,-0.0784l0.77822,-3.44639l0.70572,-2.11717v-4.12854l-0.63037,-0.15759l-0.81422,-0.29229l-0.84385,-0.19055l-5.58105,-1.86035l-1.45605,-0.65272l-0.5908,-0.22507l-1.79504,-0.17951l-0.37962,-0.12078l-2.07097,-0.15153l-2.54904,-1.31847l-2.73474,-0.87014l-1.44443,-1.24747l-0.12293,-0.01229l-0.07472,-0.02378l-0.0784,-0.00108l-3.44638,-0.77822l-2.11717,-0.70573h-0.0901l-1.03353,0.25838l-0.05615,0.00822l-0.15907,0.31815l-1.88669,2.98725l-0.05467,0.0562l-0.03602,0.06964l-0.42538,0.51991l-0.38776,1.01788l-0.33469,0.66938l0.24027,0.75512l0.64788,1.21953l0.15222,0.20886l0.22294,0.49731l0.25568,0.48129l0.06773,0.23558l0.4913,0.60048l0.76813,1.48505l0.98475,1.35117l0.22735,0.50718l0.43331,0.43331l2.23733,2.73451l0.03602,0.06964l0.05468,0.0562l1.88668,2.98725l0.4336,0.86719l1.30972,1.60077l0.76813,1.48506l0.98475,1.35117l1.44526,3.22404l0.11514,0.3454l0.41561,0.80351l0.02889,0.39488l0.07995,0.1599l1.25779,3.3017l0.2591,1.65175l0.50694,1.59324l0.1322,1.32207l0.03193,0.08382l0.2591,1.65174l0.50694,1.59324l0.35156,3.51562v0.36409l0.14019,0.8937l-0.03492,0.13747l0.03492,0.13747l-0.14019,0.8937v0.36409l-0.35156,3.51562l-0.35609,1.11914l0.07489,0.37005l-0.33586,0.80607l-0.14898,0.94973l-1.25779,3.30169l-0.16283,0.32565l-0.27429,0.86205l-0.37225,0.43102l-0.12081,0.24164l-0.61606,0.97543l-0.64173,1.54014l-3.18754,3.1014l-3.10139,3.18755l-1.54015,0.64173l-0.97543,0.61606l-0.60744,0.30372l-1.62499,1.08333l-1.93273,1.02676l-0.20886,0.15222l-0.49731,0.22293l-0.48129,0.25568l-0.24839,0.07141l-1.99705,0.89523l-3.24905,1.08302l-0.05747,0.04963l-0.86204,0.27429l-0.32565,0.16282l-3.30169,1.25778l-1.65175,0.2591l-1.59324,0.50694l-0.81896,0.0819l-0.08189,0.81896l-0.02378,0.07471l-0.00108,0.0784l-0.55376,2.45239v1.32027l-0.35156,3.51562l-0.02378,0.07471l-0.00107,0.0784l-0.77822,3.44639l-0.70573,2.11717v12.177l0.07168,0.45691l0.50694,1.59324l0.00608,0.06081l0.15805,0.4149l0.2591,1.65175l0.50694,1.59324l0.1322,1.32207l0.03193,0.08381l0.2591,1.65175l0.50694,1.59324l0.14822,1.48222l0.02753,-0.00276h2.5602l1.66587,-0.12189l0.02301,0.01322l0.10154,-0.01269l1.47934,0.42531l0.47619,0.04762l2.91003,0.92592l2.9349,0.84379l0.42263,0.22452l1.46681,0.46671l0.94026,0.81205l0.29049,0.15433l2.04588,1.36391l0.84177,0.35074l1.09269,1.12304l1.54035,1.26529l1.43032,1.7879l1.59669,1.64104l1.06446,1.68539l0.97884,1.22355l0.24362,0.87878l1.58093,3.16186l0.37225,0.43102l0.27429,0.86204l0.16282,0.32565l1.25779,3.30169l0.2591,1.65175l0.50694,1.59324l0.35156,3.51562v0.36409l0.14019,0.8937l-0.14019,0.55199v14.05376l0.14019,0.55199l-0.14019,0.8937v0.36409l-0.35156,3.51562l-0.50694,1.59324l-0.2591,1.65175l-1.25779,3.30169l-0.08177,0.16354l-0.33336,1.47633v2.30101l0.14018,0.552l-0.14018,0.8937v0.36409l-0.35157,3.51562l-0.50694,1.59324l-0.07167,0.45691v27.55292l0.49324,2.4662l0.21632,2.20652l0.22061,2.2061v0.56258l0.49324,2.4662z" fill="#000000" stroke-width="0.5"/><path d="M264.21965,285.97906c1.10686,0.6325 1.14599,5.50511 1.17327,6.88993c0.07712,3.91483 0.20519,9.94977 0.34417,12.66118c0.01605,0.31307 0.61725,-0.13576 0.93073,-0.13481c4.11426,0.01241 8.23346,-0.20087 12.34283,0c3.01312,0.14729 4.339,1.64443 5.6921,4.10264c0.71943,1.307 0.82901,3.21512 0.29533,4.43538c-2.13406,4.87945 -5.73253,8.80126 -11.3265,7.6283c-1.67223,-0.35064 -4.12834,-2.4383 -5.46539,-2.44547c-2.94453,-0.0158 -7.32617,1.34082 -9.75817,-0.28051c-7.5355,-5.02367 -4.68495,-15.67642 -4.71092,-22.98687c-0.01102,-3.10036 -1.62987,-6.81746 0.06166,-9.82457c0.13077,-0.23246 0.28821,-0.43842 0.46703,-0.62314c1.17256,-1.21121 3.26454,-1.50918 4.78297,-2.37686z" fill="#0fda42" stroke-width="0.5"/><path d="M210.18486,293.89497c1.32859,0.75919 0.79179,7.53997 0.82911,9.64362c0.0195,1.09956 2.19808,-0.31513 3.2926,-0.20828c1.4078,0.13742 2.72582,0.70312 4.09084,1.02271c4.23771,0.99217 6.98834,4.05267 8.50331,8.14491c1.33169,3.59716 -0.49889,8.21399 -4.46392,9.20525c-5.27669,1.31917 -19.18593,-0.73412 -22.67283,-5.93117c-3.50019,-5.21684 -0.98787,-12.55408 -0.75,-18.83184c0,-0.31952 0.02497,-0.63321 0.07308,-0.93922c0.12144,-0.9666 0.37499,-1.62333 0.76618,-2.12313c0.92547,-1.18243 2.62133,-1.48655 5.16074,-2.93765zM199.01398,296.94017z" fill="#0fda42" stroke-width="0.5"/><path d="M264.60279,322.55789c-2.66939,1.77959 -7.59766,-4.48591 -7.07983,-7.03251c0.2054,-1.01011 0.04263,-2.25025 0.75,-3c1.18932,-1.26056 3.22725,-1.41876 4.51416,-2.57951c0.28726,-1.54258 1.16471,-2.87764 2.38919,-3.76201c0.15163,-0.14677 0.31967,-0.27606 0.50922,-0.38269c3.47855,-1.95672 11.17708,-2.05777 15.29261,0c4.75383,2.37691 6.4631,8.30663 5.00336,13.06838c-1.48554,4.84587 -11.86915,5.3891 -15.27067,3.68834z" fill="#0fda42" stroke-width="0.5"/><path d="M167.34982,211.47754c0.28335,-2.40879 0.56578,-4.89012 2.7131,-6.64748c0.97185,-0.79535 2.36881,-0.74297 3.64722,-0.91559c0.01771,-0.21945 0.03442,-0.44696 0.04917,-0.68325c0,0 0.46513,-3.72104 4.18617,-3.25591c3.72104,0.46513 3.25591,4.18617 3.25591,4.18617c-0.02136,0.06795 -0.03767,0.13933 -0.05118,0.2126c0.11304,0.0856 0.22947,0.17614 0.34963,0.27182c0.38956,-0.09359 0.7827,-0.17952 1.1591,-0.30129l0.09069,0.30932c0.23933,-0.03841 0.48589,-0.05258 0.74075,-0.03899c2.31748,0.12358 2.39391,3.97655 3.59087,5.96482l-0.93633,1.20586l0.63312,0.27134l-0.99846,2.32976c-0.55418,1.3788 -1.90383,2.35224 -3.48084,2.35224c-1.57701,0 -2.92666,-0.97345 -3.48084,-2.35224l-0.64477,-1.50446c-0.45962,-0.23703 -0.86394,-0.56627 -1.18847,-0.96328c-0.6219,-0.41329 -1.13821,-0.79554 -1.56556,-1.15934c-0.28202,0.02522 -0.56461,0.04466 -0.84644,0.06309c-0.17131,0.0112 0.32624,0.22209 0.33207,0.39366c0.0255,0.74984 -0.16172,1.4918 -0.24259,2.2377l-1.41357,2.5307c0,0 -2.65165,2.65165 -5.3033,0c-1.76155,-1.76155 -1.18263,-3.5231 -0.59548,-4.50724z" fill="#d0d9d2" stroke-width="0.5"/><path d="M317.96549,139.56224c-1.09001,-0.27251 -1.80461,-0.91735 -2.62046,-1.41769c0.59141,1.21062 1.13777,2.39308 1.66062,2.97663c1.13773,1.26982 4.49578,1.3388 5.67668,3.00619c1.55825,2.20019 0.70002,8.91908 -2.31906,9.74247c-7.67235,2.09246 -14.54232,-3.29841 -16.90324,-10.78396c-2.93341,0.06725 -5.92986,-0.72892 -8.88063,-0.59697c-4.99098,0.22317 -10.66686,3.36824 -15.59621,0.59543c-0.24214,-0.13621 -0.45668,-0.30022 -0.6491,-0.48649c-1.26168,-1.22142 -1.57207,-3.40057 -2.4759,-4.98226l3.07791,-5.38635c0.74015,-1.29527 6.73684,-0.82832 7.30213,-0.86365c5.76386,-0.36024 10.46126,-1.22307 16.4931,-1.35902c0.12536,-0.08379 0.25393,-0.16317 0.38547,-0.23792c3.34299,-5.01448 9.55373,-8.42294 15.46826,-8.42294c6.6405,0 13.42034,4.22285 12.10611,11.79567c-1.02634,5.9139 -7.11957,7.82239 -12.72567,6.42087z" fill="#0fda42" stroke-width="0.5"/><path d="M172.1539,186.84377c1.14132,-1.50434 2.94833,-2.4759 4.98226,-2.4759c3.22481,0 5.87918,2.44234 6.21431,5.57819c0.02359,0.2207 0.03569,0.44484 0.03569,0.67181c0.39411,4.33884 0.56267,11.41256 -6.25,11.41256c-7.03295,0 -7.96717,-10.09601 -5.46875,-14.53756c0.13621,-0.24214 0.30021,-0.45668 0.48649,-0.6491z" fill="#0fda42" stroke-width="0.5"/><path d="M266.75311,275.36774c-0.00224,-0.48491 0.02447,-0.9672 0.11145,-1.44405c0.0245,-0.1343 0.47541,0.02251 0.39935,-0.09085c-0.36746,-0.54764 -1.16962,-0.78068 -1.39901,-1.399c-0.38059,-1.02587 -0.12506,-2.19128 -0.3316,-3.26581c-0.13918,-0.7241 -0.57829,-1.37121 -0.69951,-2.09852c-0.115,-0.68998 0.10801,-1.40739 0,-2.09851c-0.27238,-1.74285 -1.22254,-3.3438 -1.42744,-5.09587c-0.03158,-0.27003 0.50839,-0.50402 0.36004,-0.73185c-0.39667,-0.60919 -1.14288,-0.8987 -1.71433,-1.34804c-0.76968,-2.02761 -1.34046,-4.79702 -2.34858,-6.74871c-1.55771,-3.01569 -3.38471,-5.77142 -4.46126,-9.03998c-0.94648,-2.87367 -1.13977,-5.5178 -2.09851,-8.39405c-0.3396,-1.01881 -0.29281,-2.20182 -0.8847,-3.09791c-0.36348,-0.55029 -1.0731,-0.82565 -1.399,-1.399c-0.81273,-1.4298 -0.89718,-3.18748 -1.64907,-4.65019c-1.78234,-3.46731 -3.29448,-7.12927 -3.82951,-11.01197c-1.28046,0.29034 -2.60711,0.40321 -3.90788,0.59497c-3.03505,0.44742 -6.0218,2.30518 -9.09355,2.79802c-3.58709,0.57553 -7.69675,0.06774 -11.33291,0.06774c-2.79657,0 -5.59793,0.0467 -8.39405,0c-1.01475,-0.01695 -1.59824,0.08248 -1.85989,0.10123c-0.6852,1.92677 -2.34952,3.66882 -2.82723,5.65089c-0.19011,0.78878 0.18378,1.62931 0.0726,2.43303c-0.10105,0.73039 -0.56313,1.37389 -0.69951,2.09851c-0.33903,1.80131 0.08908,4.34756 0.06774,6.15468c-0.02813,2.38265 -0.40192,4.62706 -0.73881,6.93654c-0.30433,2.08626 -1.13496,4.07805 -1.38523,6.17148c-0.15062,1.25989 0.13227,2.57665 -0.19957,3.80135c-0.21986,0.81144 -1.06136,1.3286 -1.39901,2.09851c-0.08307,0.18942 0.20777,0.37212 0.22511,0.57822c0.04737,0.56327 -0.05024,4.92244 -0.06775,5.03738c-0.17143,1.12555 -0.69298,2.21977 -0.63176,3.35666c-0.06541,4.55809 -1.74384,8.36827 -3.00724,12.65886c-0.33697,1.1444 -0.47014,2.35654 -0.93876,3.45362c-0.24917,0.58334 -0.91142,0.91972 -1.17563,1.4964c-0.08615,0.18803 0.21134,0.37185 0.2251,0.57822c0.06536,0.9803 0.15816,1.97282 0.1578,2.95785c3.25363,-0.09437 6.69346,0.79182 9.84415,0.25766c0.782,-0.13257 1.49937,-0.5387 2.27925,-0.68322c0.71649,-0.5944 1.27048,-1.47652 2.14947,-1.78319c1.05681,-0.36871 2.20409,-0.45577 3.33465,-0.43145c0.59154,-1.56226 1.6952,-2.89677 2.52949,-4.3499c1.1996,-2.08943 1.5533,-3.77518 2.62276,-5.96725c0.46524,-0.9536 1.54003,-1.67545 1.63279,-2.73242c0.51649,-5.88572 -1.72077,-11.07102 0.20147,-16.90724c0.30331,-0.92092 0.27665,-2.06036 0.96375,-2.74445c0.16897,-0.16823 0.34188,-0.33184 0.51824,-0.49143l-0.17059,-0.11372l1.35387,-2.03081c0.93412,-1.4464 2.5604,-2.40387 4.4103,-2.40387c2.35998,0 4.35601,1.55827 5.01531,3.70203l0.66125,1.98374c0.39297,1.17889 0.56665,2.44589 1.13477,3.55108c0.41471,0.80675 1.1506,1.43746 1.48399,2.28107c0.54158,1.37043 0.85702,2.82749 1.10867,4.2794c0.08753,0.50497 -0.24574,1.04253 -0.10103,1.53417c0.21632,0.73494 0.8295,1.29532 1.14,1.9957c0.48538,1.09485 0.38001,2.43102 1.01483,3.44655c0.49346,0.7894 1.45565,1.27805 1.78319,2.14947c0.74177,1.97349 0.49795,4.19216 0.9231,6.25714c0.67559,1.99104 1.36587,3.98002 2.00504,5.98307c0.06457,0.20233 0.15276,0.40441 0.24954,0.60648c1.25336,-0.04457 2.48233,-0.43904 3.7261,-0.62848c2.01027,-0.30619 4.324,0.37106 6.29553,0c0.72462,-0.13637 1.36767,-0.60176 2.09851,-0.6995c1.91477,-0.25608 3.87704,0.19933 5.79538,-0.02844c0.30564,-0.03629 0.60335,-0.08181 0.89508,-0.13411c0.07532,-1.3019 0.71453,-2.30454 1.38324,-3.00792zM276.48744,279.21144c0.51946,0.74554 0.86967,1.7508 0.86967,3.10628c0,5.24627 -5.24628,5.24627 -5.24628,5.24627c-2.23224,-0.12019 -4.07097,1.06596 -6.35403,1.3597c-1.78421,0.22957 -3.61919,-0.30528 -5.39668,-0.02843c-1.67826,0.2614 -3.33904,0.74441 -5.03738,0.76725c-1.11902,0.01505 -2.25686,-0.27474 -3.35667,-0.06774c-0.72462,0.13638 -1.36767,0.60177 -2.09851,0.69951c-2.78892,0.37299 -9.53411,0.3286 -11.54507,-1.46886c-1.28747,-1.15078 -0.95031,-3.32072 -1.46885,-4.96783c-0.83138,-2.64083 -1.82373,-5.25399 -2.69001,-7.88785c-0.28324,-1.44237 -0.70862,-2.86398 -0.84972,-4.32711c-0.02283,-0.23675 0.48191,-0.39593 0.37381,-0.6078c-0.18158,-0.35589 -0.80753,-0.30172 -1.01191,-0.64359c-0.17031,0.55252 -0.37554,1.09974 -0.62041,1.64039c-0.34685,0.76582 -1.01318,1.35157 -1.399,2.09851c-0.67677,1.31022 -0.74929,2.87319 -1.39901,4.19703c-1.21222,2.46995 -2.83833,5.42719 -4.54466,7.60019c-1.03674,1.32026 -1.82654,2.98924 -3.28868,3.81391c-1.34018,0.75589 -3.03709,0.54782 -4.57401,0.62077c-0.13637,0.00648 0.01407,-0.48669 -0.09085,-0.39935c-0.30855,0.25683 -0.43236,0.67655 -0.64854,1.01483c-1.14333,0.434 -4.79144,1.89588 -6.11479,2.11479c-3.57461,0.59132 -7.70609,0.06774 -11.33292,0.06774c-1.45837,0 -5.36431,0.06771 -6.20469,-0.39935c-1.74635,-0.97057 -3.26769,-2.49192 -4.23827,-4.23827c-0.46706,-0.84038 -0.39935,-4.74632 -0.39935,-6.20468c0,-1.24269 -0.0579,-5.44876 0.22511,-6.41682c0.29468,-1.00796 1.20752,-1.73588 1.62238,-2.70062c0.60546,-1.40797 0.7363,-2.97876 1.21974,-4.43315c0.81493,-2.45164 1.8997,-4.82382 1.82929,-7.43453c0.03914,-1.69804 0.45309,-3.36819 0.76725,-5.03738c0.42772,-2.27257 -0.5063,-4.6392 0.15736,-6.97546c0.22973,-0.8087 1.15149,-1.29508 1.39901,-2.09851c0.17723,-0.57523 -0.26042,-1.19585 -0.19957,-1.79468c0.36865,-3.62777 1.47649,-7.28678 2.14072,-10.81596c0.5423,-2.88132 -0.44752,-6.15536 0,-9.09355c0.11103,-0.72893 0.59245,-1.36898 0.69951,-2.09851c0.15312,-1.04343 -0.18884,-2.14131 0.0726,-3.163c1.14505,-4.47491 4.06721,-8.47715 6.818,-12.05746c1.48087,-0.5696 2.89298,-1.36812 4.44261,-1.70879c0.36738,-0.08077 4.71498,-0.06775 5.73689,-0.06775c3.49752,0 6.99503,0 10.49255,0c1.67169,0 3.81773,0.3618 5.45517,0.06775c2.04011,-0.36635 4.18356,-1.26057 6.17638,-1.89703c1.61813,-0.51679 3.33519,-0.65324 5.01568,-0.90098c3.30992,-0.48794 5.32354,-2.96804 9.14356,-1.0674c4.9431,2.45942 4.22904,4.14339 4.63762,8.34444c-0.16633,3.08909 1.67384,6.24727 2.96405,8.8871c0.57321,1.17281 0.42948,2.65462 1.14895,3.74385c0.36348,0.55029 1.0731,0.82565 1.399,1.399c1.49502,2.63013 2.97587,7.31723 3.5138,10.31182c0.31416,1.74892 0.0708,3.16119 0.93328,4.83094c2.03804,3.94557 4.51257,7.64051 5.34597,12.13789c0.82756,0.94966 1.96557,1.70038 2.48269,2.84898c0.47674,1.05891 0.17255,2.31914 0.36005,3.46517c0.26336,1.60962 1.09042,3.0904 1.37057,4.69718c0.12015,0.68911 -0.115,1.40853 0,2.09851c0.12122,0.72731 0.61063,1.36655 0.69951,2.09851c0.03972,0.3271 -0.46883,0.63165 -0.33161,0.93121c0.27465,0.59958 1.19423,0.77211 1.39901,1.39901c0.77534,2.37351 0.39935,5.76724 0.39935,8.30319l-0.86967,1.09075z" fill="#06487f" stroke-width="0.5"/><path d="M266.89251,273.9447c-0.08698,0.47685 -0.11429,0.95991 -0.11205,1.44483c-0.66871,0.70338 -1.30957,1.70794 -1.38489,3.00984c-0.29173,0.0523 -0.58982,0.09823 -0.89546,0.13452c-1.91835,0.22776 -3.88317,-0.22523 -5.79794,0.03085c-0.73084,0.09774 -1.37531,0.56428 -2.09993,0.70066c-1.97153,0.37106 -4.28935,-0.30348 -6.29962,0.00271c-1.24377,0.18944 -2.47594,0.58552 -3.72931,0.63009c-0.09678,-0.20206 -0.21307,-0.4682 -0.27763,-0.67054c-0.63918,-2.00305 -1.33011,-3.99173 -2.0057,-5.98277c-0.42515,-2.06497 -0.18391,-4.28232 -0.92568,-6.25581c-0.32754,-0.87142 -1.25594,-1.29883 -1.7494,-2.08823c-0.63481,-1.01553 -0.56388,-2.41257 -1.04926,-3.50742c-0.3105,-0.70038 -0.92378,-1.26069 -1.1401,-1.99564c-0.14471,-0.49164 0.18639,-1.02778 0.09887,-1.53275c-0.25166,-1.45191 -0.57235,-2.90442 -1.11393,-4.27485c-0.33339,-0.84361 -1.07199,-1.47106 -1.4867,-2.27782c-0.56811,-1.10519 -0.74833,-2.34705 -1.1413,-3.52594l-0.65179,-1.96392c-0.6593,-2.14376 -2.61666,-3.69395 -4.97664,-3.69395c-1.84991,0 -3.45872,0.94156 -4.39284,2.38796l-1.35047,2.02125l0.17065,0.1134c-0.17637,0.1596 -0.34892,0.3209 -0.51788,0.48913c-0.6871,0.68409 -0.66073,1.81324 -0.96404,2.73416c-1.92224,5.83623 0.29689,10.99668 -0.21961,16.8824c-0.09275,1.05697 -1.16733,1.77894 -1.63257,2.73254c-1.06945,2.19207 -1.4557,3.93973 -2.6553,6.02916c-0.83429,1.45313 -1.93818,2.78751 -2.52972,4.34978c-1.13056,-0.02432 -2.28005,0.06148 -3.33687,0.43019c-0.87899,0.30667 -1.43363,1.18838 -2.15012,1.78278c-0.77987,0.14451 -1.4983,0.54994 -2.2803,0.68251c-3.15069,0.53416 -6.59506,-0.35585 -9.84869,-0.26148c0.00036,-0.98503 -0.09358,-1.97874 -0.15894,-2.95904c-0.01376,-0.20638 -0.31155,-0.39051 -0.2254,-0.57855c0.26421,-0.57668 0.92628,-0.91326 1.17545,-1.4966c0.46862,-1.09709 0.60072,-2.31051 0.9377,-3.4549c1.2634,-4.29059 2.93728,-8.10827 3.00268,-12.66636c-0.06122,-1.13689 0.45915,-2.23412 0.63058,-3.35967c0.0175,-0.11494 0.11372,-4.47966 0.06635,-5.04293c-0.01733,-0.2061 -0.30829,-0.38952 -0.22522,-0.57894c0.33765,-0.76991 1.17889,-1.28943 1.39875,-2.10087c0.33183,-1.2247 0.04892,-2.54628 0.19954,-3.80617c0.25028,-2.09344 1.08235,-4.09319 1.38667,-6.17945c0.3369,-2.30948 0.71398,-4.56144 0.74212,-6.94409c0.02134,-1.80712 -0.40355,-4.35797 -0.06452,-6.15928c0.13638,-0.72462 0.59988,-1.36973 0.70092,-2.10012c0.11118,-0.80372 -0.26152,-1.64546 -0.07141,-2.43424c0.47771,-1.98206 2.14626,-3.72762 2.83146,-5.65439c0.26165,-0.01875 0.84638,-0.11901 1.86113,-0.10206c2.79612,0.0467 5.60415,-0.00332 8.40071,-0.00332c3.63616,0 7.75769,0.50559 11.34478,-0.06993c3.07175,-0.49284 6.06757,-2.34949 9.10261,-2.79691c1.30077,-0.19176 2.63071,-0.30362 3.91117,-0.59395c0.53503,3.8827 2.05516,7.54881 3.8375,11.01612c0.7519,1.46271 0.84048,3.22378 1.65321,4.65358c0.3259,0.57335 1.03736,0.85059 1.40084,1.40089c0.5919,0.89609 0.54763,2.08225 0.88723,3.10106c0.95874,2.87625 1.15727,5.53142 2.10375,8.40509c1.07655,3.26857 2.90459,6.03722 4.46231,9.05291c1.00812,1.95169 1.57735,4.7283 2.34703,6.7559c0.57145,0.44934 1.31741,0.7396 1.71408,1.34879c0.14835,0.22782 -0.39192,0.46262 -0.36034,0.73266c0.2049,1.75207 1.15338,3.35678 1.42576,5.09963c0.10802,0.69112 -0.11584,1.41006 -0.00084,2.10004c0.12121,0.72731 0.55964,1.37553 0.69882,2.09962c0.20654,1.07453 -0.05022,2.24175 0.33037,3.26763c0.22939,0.61831 1.0314,0.85156 1.39886,1.3992c0.07606,0.11336 -0.375,-0.04325 -0.3995,0.09105z" fill="#0861a9" stroke-width="0.5"/><path d="M248.2324,193.66596c-0.25443,-0.88653 -0.25443,-1.58422 -0.25443,-1.58422v-2.09851c0,-5.36286 0,-10.72572 0,-16.08858c0,-3.49752 0,-6.99504 0,-10.49256c0,-0.96881 -0.01006,-5.27217 0.05071,-5.62419c0.31321,-1.81437 1.06623,-3.52771 1.47672,-5.32258c0.59583,-2.60526 0.6329,-7.78125 3.44931,-9.39781c2.08092,-1.1944 4.78496,-0.81609 7.17372,-0.59092c0.65659,0.06189 0.85137,1.03155 1.39901,1.39901c0.11336,0.07607 -0.04345,-0.37485 0.09085,-0.39935c1.10095,-0.20082 2.25685,0.27474 3.35666,0.06774c0.72462,-0.13638 1.36654,-0.61062 2.09851,-0.6995c0.3271,-0.03972 0.60373,0.29519 0.93121,0.33161c0.13266,0.01475 -0.36111,-0.1416 -0.30301,-0.26176c0.11403,-0.23581 0.46051,-0.26246 0.64594,-0.44746c0.34013,-0.33933 -0.07433,-0.95854 -0.08402,-1.43889c-0.02823,-1.39872 0,-2.79802 0,-4.19702c0.06052,-2.62523 0.4565,-4.72037 1.47262,-6.77514c-0.64088,-0.26653 -1.28436,-0.5223 -1.96322,-0.63739c-1.10337,-0.18706 -2.23756,0.06775 -3.35667,0.06775c-6.76187,0 -13.52374,0 -20.28561,0c-3.34922,0 -7.23211,-0.55421 -10.55105,-0.03931c-0.95,0.14738 -1.84331,0.58642 -2.79801,0.69951c-4.04254,0.47886 -8.39581,-0.65082 -12.39171,-0.02844c-0.72856,0.11347 -1.36958,0.58847 -2.09851,0.6995c-3.40336,0.51836 -7.14142,-0.60179 -10.49255,0c-1.73624,0.31178 -3.34959,1.17806 -5.09588,1.42744c-2.19185,0.31301 -4.71475,0.03931 -6.93654,0.03931c-3.36001,0 -6.38931,0.15075 -9.6522,0.63176c-1.45891,0.21506 -2.74556,1.13827 -4.19702,1.399c-0.68849,0.12367 -1.40854,-0.115 -2.09852,0c-0.72731,0.12122 -1.3712,0.57829 -2.09851,0.69951c-0.74943,0.12491 -1.7079,-0.51709 -2.27925,-0.01628c-1.6658,1.46016 -1.00937,4.13835 -1.00937,6.0298c0,4.43019 0,8.86038 0,13.29057c-0.03591,1.92899 -0.4104,3.84085 -0.76725,5.73689c-0.33136,1.76062 0.25855,3.6728 -0.3316,5.36433c-0.30667,0.87899 -1.22071,1.40767 -1.78319,2.14948c-0.29029,0.38283 0.07432,0.95854 0.08402,1.43889c0.03395,1.68226 -0.37695,3.81233 -0.06775,5.45517c0.13637,0.72461 0.57828,1.3712 0.6995,2.09851c0.04711,0.28267 0.15401,0.72271 0.23207,1.14372c0.94079,0.1037 1.25332,1.41565 2.19309,1.84474c0.26851,0.1226 0.49796,-0.35893 0.79035,-0.39935c0.69291,-0.09579 1.39901,0 2.09851,0c2.33168,0 4.66336,0 6.99504,0c0.34886,0.00804 0.69911,0.00024 1.04926,-0.00648c0,-0.81393 0,-1.62785 0,-2.44178c0,-1.11911 0.2548,-2.25329 0.06774,-3.35666c-0.24649,-1.45393 -1.15832,-2.74211 -1.399,-4.19702c-0.34565,-2.08944 -0.20583,-4.99046 -0.06775,-7.13589c0.08833,-1.37235 -0.52759,-3.09035 0.39935,-4.10618c1.95548,-2.143 4.56133,-4.75134 7.45128,-4.49728c2.36536,0.20795 3.1408,3.57865 4.47122,5.54542c1.44871,2.14165 1.80194,5.61108 2.98321,7.99444c0.79094,1.10049 1.80723,2.06989 2.37282,3.30145c0.63492,1.38253 0.91289,2.91214 1.16941,4.41171c0.06209,0.36296 -0.38974,0.74875 -0.22991,1.08049c0.50601,1.0503 1.76591,1.68062 2.09851,2.79801c1.39881,4.6994 -0.6022,10.06823 0.20148,14.80874c0.41702,2.45978 1.36318,4.22745 1.4591,6.78724c2.55459,0.01577 4.76093,0.18402 7.21158,-0.63286c5.12025,-0.11802 9.70537,-1.33937 14.68957,-2.09851c1.38305,-0.21066 2.8177,0.23385 4.19702,0c1.45393,-0.24649 2.74556,-1.13827 4.19702,-1.399c0.68849,-0.12367 1.4074,0.10801 2.09851,0c2.32926,-0.36402 4.64621,-1.74086 6.99504,-2.09851c0.92204,-0.1404 1.87471,0.1319 2.79801,0c0.48204,-0.06886 0.96333,-0.14955 1.44454,-0.23229zM257.16395,195.69868c0.37141,0.69052 0.60705,1.56675 0.60705,2.67862c0,5.24628 -5.24627,5.24627 -5.24627,5.24627c-4.85881,-0.16813 -9.1073,1.90352 -13.84922,2.73028c-0.68911,0.12015 -1.40648,-0.10201 -2.09851,0c-1.45891,0.21506 -2.74211,1.15832 -4.19702,1.399c-1.38025,0.22833 -2.82215,-0.25877 -4.19702,0c-1.39382,0.26234 -2.79802,0.46634 -4.19702,0.69951c-3.57615,0.59602 -6.75337,1.60033 -10.49256,1.399c-2.43546,0.81182 -4.58721,0.76725 -7.13589,0.76725c-2.50805,0 -7.76859,0.51249 -9.52416,-1.11113c-4.31532,-3.99096 -1.96521,-6.25403 -2.64942,-10.28982c-0.24649,-1.45393 -1.15832,-2.74211 -1.399,-4.19702c-0.32565,-1.96858 -0.1276,-4.27131 -0.07806,-6.34539c-0.04122,0.04195 -0.08363,0.08236 -0.12727,0.12116c-4.45131,3.95747 -6.2201,0.6333 -10.00521,0.8371c-4.23206,0 -9.84643,0.77531 -13.89923,-0.39935c-0.63342,-0.18359 -0.78667,-1.15408 -1.399,-1.39901c-0.64947,-0.25979 -1.49497,0.35362 -2.09851,0c-1.49494,-0.87593 -2.8584,-2.06982 -3.8541,-3.4878c-1.2023,-1.71218 -1.07134,-4.05112 -1.41529,-6.1148c-0.12122,-0.72731 -0.58849,-1.36957 -0.69951,-2.09851c-0.40635,-2.66792 -0.56328,-7.43308 0,-10.07476c0.29601,-1.38824 0.75949,-2.75741 1.41529,-4.01628c0.18547,-0.35603 0.75799,-0.33999 1.01483,-0.64854c0.08734,-0.10492 -0.38449,0.04486 -0.39935,-0.09085c-0.1066,-0.97406 -0.07979,-1.97016 0.06775,-2.93887c0.20604,-1.35275 0.67908,-2.68862 0.63176,-4.05616c0,-4.43019 0,-8.86038 0,-13.29057c0,-3.29258 -0.25588,-6.20993 1.23297,-9.29999c0.84985,-1.76382 3.01439,-4.63243 4.75269,-5.65531c3.05626,-1.79842 6.96855,-1.62195 10.31182,-2.1148c1.45891,-0.21506 2.74556,-1.13827 4.19702,-1.399c3.72676,-0.66946 7.48537,-0.76725 11.33292,-0.76725c1.7932,0 3.88195,0.29269 5.65453,0.0393c1.6146,-0.23081 3.08675,-1.11218 4.69717,-1.37057c3.39463,-0.54465 7.15286,0.62856 10.49256,0c0.72462,-0.13639 1.36767,-0.60177 2.09851,-0.69951c4.20073,-0.56181 8.61063,0.52847 12.79041,-0.02844c0.95296,-0.12697 1.84509,-0.57237 2.79802,-0.69951c3.80239,-0.50731 8.01223,-0.0393 11.83307,-0.0393c5.36286,0 10.72573,0 16.08859,0c2.95096,0 6.32831,-0.41299 9.2344,0.06774c1.45491,0.24067 2.73811,1.18395 4.19702,1.39901c4.29689,0.63343 9.45283,0.94619 10.00195,7.27704c0.36686,4.22958 -5.10852,5.15634 -4.89653,9.09355c0,5.07524 0.45237,9.70027 -3.63511,13.50273c-0.97772,0.90955 -1.88346,1.98783 -3.10102,2.53626c-0.99767,0.44938 -2.19129,0.12506 -3.26582,0.3316c-2.44787,0.47052 -4.56281,0.93286 -7.1359,0.76725c-0.54259,-0.03493 -1.09368,-0.03791 -1.6425,-0.05514c-0.54689,2.1008 -1.38819,4.46586 -1.55597,5.32958c-0.26501,1.36422 0.05071,2.77914 0.05071,4.16886c0,3.49752 0,6.99504 0,10.49256c0,5.36286 0,12.82423 0,18.18709c0,0 0,2.07668 -1.30656,3.61692z" fill="#253114" stroke-width="0.5"/><path d="M248.00314,192.10605c0,0 -0.00058,0.69828 0.25385,1.58481c-0.48122,0.08274 -0.96326,0.16415 -1.4453,0.23301c-0.9233,0.1319 -1.87738,-0.13915 -2.79942,0.00125c-2.34883,0.35766 -4.67122,1.73822 -7.00047,2.10224c-0.69111,0.10802 -1.41165,-0.12281 -2.10014,0.00086c-1.45145,0.26073 -2.74719,1.1542 -4.20113,1.4007c-1.37933,0.23384 -2.81798,-0.20956 -4.20104,0.0011c-4.98419,0.75914 -9.58418,1.9804 -14.70443,2.09842c-2.45065,0.81688 -4.66299,0.64671 -7.21758,0.63094c-0.09592,-2.55979 -1.04587,-4.32934 -1.46289,-6.78912c-0.80368,-4.74051 1.18785,-10.1173 -0.21096,-14.8167c-0.3326,-1.11739 -1.59574,-1.75232 -2.10175,-2.80262c-0.15983,-0.33173 0.29133,-0.71872 0.22924,-1.08168c-0.25653,-1.49957 -0.53736,-3.03625 -1.17228,-4.41878c-0.56559,-1.23156 -1.58301,-2.20691 -2.37395,-3.30739c-1.18127,-2.38336 -1.5338,-5.86415 -2.98251,-8.0058c-1.33042,-1.96676 -2.03909,-5.31717 -4.40445,-5.52512c-2.88995,-0.25406 -5.49408,2.34811 -7.44956,4.49111c-0.92695,1.01583 -0.31055,2.73002 -0.39887,4.10236c-0.13808,2.14543 -0.27805,5.0398 0.06759,7.12924c0.24068,1.45491 1.15179,2.73903 1.39828,4.19297c0.18706,1.10337 -0.06857,2.23467 -0.06857,3.35378c0,0.81393 -0.00072,1.62589 -0.00072,2.43982c-0.35014,0.00672 -0.76542,0.04029 -1.11428,0.03225c-2.33168,0 -4.66401,-0.00181 -6.99569,-0.00181c-0.69951,0 -1.40574,-0.09624 -2.09866,-0.00045c-0.29239,0.04042 -0.52181,0.52205 -0.79032,0.39945c-0.93977,-0.4291 -1.25276,-1.74265 -2.19355,-1.84635c-0.07806,-0.42101 -0.18516,-0.86183 -0.23227,-1.14451c-0.12122,-0.72731 -0.56345,-1.37537 -0.69983,-2.09999c-0.30919,-1.64285 0.10118,-3.7766 0.06723,-5.45887c-0.00969,-0.48035 -0.37437,-1.05706 -0.08409,-1.4399c0.56248,-0.74181 1.47646,-1.27197 1.78313,-2.15096c0.59015,-1.69153 0.00039,-3.60761 0.33176,-5.36822c0.35685,-1.89604 0.73199,-3.81204 0.7679,-5.74103c0,-4.43019 0.0029,-8.86856 0.0029,-13.29875c0,-1.89145 -0.65458,-4.57288 1.01122,-6.03304c0.57134,-0.50081 1.53026,0.14052 2.27969,0.01561c0.72731,-0.12122 1.37189,-0.57926 2.0992,-0.70048c0.68999,-0.11501 1.41054,0.12297 2.09903,-0.0007c1.45146,-0.26073 2.73983,-1.186 4.19874,-1.40107c3.26289,-0.481 6.29644,-0.63578 9.65645,-0.63578c2.22179,0 4.74889,0.27083 6.94074,-0.04218c1.7463,-0.24939 3.36405,-1.11783 5.10029,-1.42961c3.35113,-0.60179 7.09898,0.51594 10.50235,-0.00242c0.72893,-0.11102 1.37212,-0.58617 2.10068,-0.69964c3.99589,-0.62238 8.36116,0.50898 12.4037,0.03011c0.95471,-0.11309 1.85014,-0.55135 2.80015,-0.69873c3.31894,-0.5149 7.20892,0.04313 10.55814,0.04313c6.76187,0 13.53124,0.00708 20.29311,0.00708c1.11911,0 2.254,-0.25386 3.35737,-0.0668c0.67886,0.11509 1.32291,0.37164 1.96379,0.63817c-1.01612,2.05477 -1.41052,4.15242 -1.47104,6.77765c0,1.39901 -0.02713,2.80038 0.0011,4.19911c0.0097,0.48034 0.42452,1.10033 0.0844,1.43967c-0.18542,0.185 -0.53187,0.21174 -0.64589,0.44754c-0.0581,0.12016 0.37183,0.30514 0.23918,0.29039c-0.32748,-0.03641 -0.60392,-0.37091 -0.93102,-0.33119c-0.73196,0.08888 -1.37382,0.56328 -2.09844,0.69966c-1.09981,0.20699 -2.25523,-0.26758 -3.35618,-0.06676c-0.1343,0.02449 0.0224,0.4752 -0.09096,0.39914c-0.54764,-0.36746 -0.74176,-1.33586 -1.39835,-1.39775c-2.38876,-0.22517 -5.03279,-0.63931 -7.11371,0.55509c-2.81641,1.61656 -2.85046,6.79833 -3.44628,9.4036c-0.41049,1.79487 -1.1619,3.51318 -1.47511,5.32756c-0.06077,0.35203 -0.04976,4.66206 -0.04976,5.63087c0,3.49752 -0.00167,7.00741 -0.00167,10.50493c0,5.36286 -0.00716,10.7382 -0.00716,16.10106l-0.00095,2.09952z" fill="#31411b" stroke-width="0.5"/><path d="M224.13806,125.1089c3.31803,-1.10602 4.42405,2.21202 4.42405,2.21202l0.83382,2.64428c0.12987,7.64568 0.04516,15.29761 0.04516,22.94436c0,5.20097 0.39879,10.65044 -0.0262,15.81642c-0.20385,2.47802 -1.01052,4.27508 -0.6995,6.83987c0.199,1.64114 1.11547,3.13176 1.38004,4.76362c0.40708,2.5109 0.04516,5.74546 0.04516,8.25478c0,3.96386 0,7.92772 0,11.89157c0,0 0,3.49752 -3.49752,3.49752c-3.49752,0 -3.49751,-3.49752 -3.49751,-3.49752c0,-3.96386 0,-7.92772 0,-11.89157c0,-2.04369 0.40873,-5.0444 0.04516,-7.1343c-0.29853,-1.71606 -1.19745,-3.30162 -1.41796,-5.02943c-0.39739,-3.11378 0.44763,-5.56901 0.6995,-8.54922c0.41165,-4.87074 -0.0262,-10.05591 -0.0262,-14.96174c0,-7.26855 -0.16814,-14.55851 0.04516,-21.82388l-0.56519,-1.55274c0,0 -1.10601,-3.31803 2.21203,-4.42405z" fill="#253114" stroke-width="0.5"/><path d="M247.05775,105.2397c0,0.54105 -0.06875,1.06605 -0.19799,1.56673l0.02469,0.09055l-0.09399,0.15665c-0.30175,0.99655 -0.84568,1.88787 -1.5633,2.60549l-0.68834,0.68834l-0.86043,0.51626l-0.51626,0.51626l-0.86151,0.5169l-0.76282,0.65385l-0.49351,0.24675l-0.01677,0.08383l-0.67751,0.43115l-0.52264,0.60974l-0.47718,0.02651l-1.04025,0.66197l-0.61113,0.20371l-0.07225,0.03612l-1.00368,1.00368l-0.86151,0.51691l-0.76281,0.65385l-1.15787,0.57893l-0.31534,0.31534l-0.86151,0.51691l-0.76281,0.65384l-0.34031,0.17016l-2.77378,1.84919l-0.78617,0.28077l-0.70429,0.44818l-1.03251,0.34417l-0.24435,0.0188l-0.21623,0.11532l-0.71109,0.17777l-0.0747,0.03735l-0.81492,0.18109l-0.75444,0.35736l-1.72086,0.34417l-0.6218,-0.02961l-0.60392,0.15098h-5.8509l-1.14835,-0.28709l-1.17284,-0.15994l-1.72086,-0.68834l-0.53,-0.38278l-0.61569,-0.21989l-2.06502,-1.37668l-0.57788,-0.63567l-0.70059,-0.4972l-2.06503,-2.40919l-0.17138,-0.34278l-0.28357,-0.2578l-1.2593,-1.88894l-3.31268,-4.30649l-0.02943,-0.06757l-0.05671,-0.04709l-3.6267,-4.9455l-4.64114,-5.30416l-0.0438,-0.08541l-0.07716,-0.05708l-4.56967,-5.54888l-5.91062,-5.58226l-0.15,-0.23454l-0.22991,-0.15702l-2.75337,-3.09753l-0.30286,-0.57939l-0.45235,-0.47201l-2.75336,-4.81839l-0.04808,-0.17095l-0.11557,-0.13483l-1.37668,-2.75336l-0.08314,-0.37411l-0.21258,-0.31888l-1.72085,-4.81838l-0.00669,-0.06802l-0.03669,-0.05766l-0.68834,-2.06503l-0.03803,-0.49429l-0.19767,-0.45464l-0.34417,-2.06502l0.04166,-0.52072l-0.12669,-0.50678v-2.40919l0.1866,-0.74644v-0.76941l0.34418,-1.37668l0.20232,-0.37936l0.05809,-0.42599l1.37668,-3.4417l0.48291,-0.66865l0.32007,-0.76017l0.83907,-1.11875l0.74313,-1.23856l1.26934,-2.53867l0.33209,-0.38744l0.01729,-0.31133l0.94065,-0.80627l0.80628,-0.94065l0.10003,-0.00556l0.57842,-0.72302l0.63055,-0.48042l0.49988,-0.61524l0.79266,-0.59449l1.25349,-1.5042l0.59033,-0.43139l0.46106,-0.56746l1.37668,-1.03251l0.30239,-0.12732l0.23201,-0.23201l1.72085,-1.03251l0.23445,-0.07135l0.18607,-0.15949l3.44171,-1.72086l0.67191,-0.14931l0.60733,-0.32391l1.03133,-0.25783l2.42004,-0.90752l0.21371,-0.02442l0.18489,-0.10994l3.4417,-1.03251l0.29936,-0.01393l0.27084,-0.12829l1.33929,-0.26786l1.69588,-0.5653l0.17706,-0.01362l0.15488,-0.08689l3.78588,-1.03251l0.4925,-0.01048l0.46178,-0.17152l3.09753,-0.34417l0.34877,0.04713l0.34143,-0.08535h0.41364l1.114,-0.2228l0.6218,0.02961l0.60392,-0.15098h8.2601l0.60392,0.15098l0.6218,-0.02961l1.55075,0.31015l2.23746,0.31963l0.16446,0.067l0.17739,-0.00845l1.72085,0.34417l0.13772,0.06524h0.1524l1.37668,0.34417l0.09432,0.0503l0.10684,0.00356l2.30906,0.65974l1.27565,0.31891l0.21624,0.11532l0.24434,0.0188l2.7284,0.90946l1.3393,0.26786l0.52255,0.24753l0.57292,0.07812l1.72085,0.68834l0.53,0.38278l0.61569,0.21988l3.09753,2.06502l0.41875,0.46062l0.53379,0.32027l0.25073,0.25073l1.55009,1.0334l0.11945,0.1314l0.16367,0.06891l0.8111,0.60832l2.45148,1.08955l0.55847,0.4363l0.65316,0.27502l0.37071,0.27803l0.7394,0.16431l0.15577,0.07788l0.17415,0.04354l0.03483,0.06095l0.3236,0.1618l2.4457,2.09631l0.01369,0.24641l0.21428,0.12245l0.78125,3.125v1.03251l-0.78125,3.125l-0.21428,0.12244l-0.01369,0.24641l-0.66333,0.56857l-0.02486,0.32319l-0.02344,0.07032v2.01968l0.03894,0.05841l-0.03894,0.17524v0.17415l-0.34417,1.37668v3.78588l-0.18661,0.74644v0.76941l-0.34417,1.37668l-0.03815,0.07153l-0.12355,0.49416l-0.27686,1.24589l0.10769,0.39487l-0.41317,0.68863l-0.19477,0.77909l-0.41495,0.23712l-0.63438,1.0573l-0.51821,0.51821l-0.14598,0.17031l-0.09373,0.46864l-0.67752,0.43115l-0.52263,0.60974l-0.47718,0.02651l-1.04024,0.66197l-0.61114,0.20371l-0.07637,0.03818l-1.51502,0.90902l-0.23445,0.07135l-0.18607,0.15948l-0.46953,0.23477l-1.25441,1.25441l-0.05317,0.07976l0.00111,0.05256l-0.10847,0.10847l-0.18453,0.27678l-1.01488,0.92262l-0.96984,0.96984l-0.28525,0.17115l-0.11352,0.10319l-0.05245,-0.00362l-0.60988,0.36593l-0.14428,0.14428l-0.38575,0.23145l-0.28367,0.34914l-1.24856,0.93642l-1.7242,1.43683l-0.48787,0.48787l-0.86043,0.51626l-0.51626,0.51625l-0.03046,0.01828l-0.03089,0.10985l-1.36969,0.73049l-0.45325,0.27195l0.03653,0.07306l0.47108,0.28265l0.15577,0.15577l0.26837,0.09585l1.03251,0.68834l0.1616,0.17776l0.5433,0.12073l0.15577,0.07788l0.01698,0.00424l0.38528,-0.07706l0.19982,0.22333l0.94876,0.23719l0.84154,1.47269l0.58591,0.5022l0.01101,0.19824l0.06067,0.10617l0.24641,0.01369l0.97828,1.14133l0.02954,0.00738l0.04642,0.08124l0.11593,0.13525l0.2065,0.01148l0.32123,0.37476l0.34242,0.08561l0.12244,0.21428l0.24642,0.01369l2.09631,2.4457l0.85014,1.70027l0.06096,0.03483l0.04353,0.17415l0.07788,0.15576l0.31153,1.40189l0.3483,1.3932v0.17415l0.03894,0.17524l-0.03894,0.05841v0.28055l-0.62616,2.50463c0.61446,0.96746 0.97033,2.11531 0.97033,3.34627z" fill="#0fda42" stroke-width="0.5"/><path d="M246.05372,55.29313c0.57199,2.57395 4.24128,5.98078 1.0273,9.0423c-5.02416,4.78584 -16.56434,7.09327 -20.69048,0.31949c-4.4486,-7.30316 0.7556,-17.92532 9.94297,-16.94675c4.37606,0.4661 6.4146,3.15481 9.03187,6.20828z" fill="#ffffff" stroke-width="0.5"/><path d="M247.00279,96.38196c-1.38071,0 -2.5,-1.11929 -2.5,-2.5c0,-1.38071 1.11929,-2.5 2.5,-2.5c1.38071,0 2.5,1.11929 2.5,2.5c0,1.38071 -1.11929,2.5 -2.5,2.5z" fill="#ffffff" stroke-width="0.5"/><path d="M241.84023,91.2194c-1.38071,0 -2.5,-1.11929 -2.5,-2.5c0,-1.38071 1.11929,-2.5 2.5,-2.5c1.38071,0 2.5,1.11929 2.5,2.5c0,1.38071 -1.11929,2.5 -2.5,2.5z" fill="#ffffff" stroke-width="0.5"/><path d="M249.06782,79.86177c-1.38071,0 -2.5,-1.11929 -2.5,-2.5c0,-1.38071 1.11929,-2.5 2.5,-2.5c1.38071,0 2.5,1.11929 2.5,2.5c0,1.38071 -1.11929,2.5 -2.5,2.5z" fill="#ffffff" stroke-width="0.5"/><path d="M241.84023,83.64765c-1.38071,0 -2.5,-1.11929 -2.5,-2.5c0,-1.38071 1.11929,-2.5 2.5,-2.5c1.38071,0 2.5,1.11929 2.5,2.5c0,1.38071 -1.11929,2.5 -2.5,2.5z" fill="#ffffff" stroke-width="0.5"/><path d="M212.92989,24.44807c2.5,0 2.5,2.5 2.5,2.5l-0.89954,2.26472c-0.73991,0.58016 -1.70191,1.91604 -2.73532,2.10716c0.44673,0.76514 0.73951,1.63573 0.85694,2.50617c0.15285,1.13299 -0.22594,2.27532 -0.33892,3.41298c0,0 -0.31008,2.4807 -2.79078,2.17061c-2.4807,-0.31008 -2.17061,-2.79078 -2.17061,-2.79078c0.11647,-0.69792 0.44112,-1.39214 0.34942,-2.09375c-0.33235,-2.54279 -3.62411,-2.68916 -1.75816,-6.41179c0.62234,-1.24157 2.68876,-0.76356 3.92647,-1.39354c0.25845,-0.13155 0.47716,-0.32019 0.68224,-0.52841c0.21163,-0.73583 0.79118,-1.74336 2.37826,-1.74336z" fill="#0ca933" stroke-width="0.5"/><path d="M191.57624,24.52881c1.38675,-2.08012 3.46688,-0.69337 3.46688,-0.69337l2.59882,1.85634c0.75503,1.08251 2.08355,1.94025 2.26511,3.2475c0.48335,3.48027 -2.84676,5.60187 -2.71818,9.02226c0,0 0,2.5 -2.5,2.5c-2.5,0 -2.5,-2.5 -2.5,-2.5c0.02664,-1.12682 -0.22683,-2.29588 0.07993,-3.38047c0.73583,-2.60161 3.82189,-3.97076 1.53203,-5.68836l-1.53122,-0.89702c0,0 -2.08013,-1.38675 -0.69338,-3.46687z" fill="#0ca933" stroke-width="0.5"/><path d="M247.29925,26.37109c2.29786,0.9848 1.31306,3.28266 1.31306,3.28266l-1.82712,3.42195c-1.25223,0.26537 -2.4888,0.62018 -3.75669,0.79612c-0.33663,0.04671 -0.84533,-0.4315 -1.01065,-0.13457c-0.25441,0.45696 0.2814,1.03397 0.22068,1.55345c-0.40055,3.42662 -0.78521,3.51045 -2.35773,6.3204c0,0 -1.24035,2.1706 -3.41096,0.93026c-2.17061,-1.24035 -0.93026,-3.41096 -0.93026,-3.41096c0.84661,-1.44204 1.4085,-3.06093 1.77231,-4.69306c0.29418,-1.31977 0.02551,-2.92971 0.90902,-3.95329c1.63493,-1.89413 3.6072,-1.5236 5.55777,-1.40347l0.23791,-1.39644c0,0 0.98479,-2.29787 3.28266,-1.31307z" fill="#0ca933" stroke-width="0.5"/><path d="M240.9237,64.90521c-2.25057,0 -4.07501,-1.82444 -4.07501,-4.07501c0,-2.25057 1.82444,-4.07501 4.07501,-4.07501c2.25057,0 4.07501,1.82444 4.07501,4.07501c0,2.25057 -1.82444,4.07501 -4.07501,4.07501z" fill="#000000" stroke-width="0"/></g></g></svg>