<svg version="1.1" xmlns="http://www.w3.org/2000/svg" xmlns:xlink="http://www.w3.org/1999/xlink" width="312.61638" height="140.74242" viewBox="0,0,312.61638,140.74242"><g transform="translate(-83.69181,-109.62879)"><g fill="#c21313" stroke="none" stroke-width="0.5" stroke-miterlimit="10"><path d="M132.62972,211.63647c-6.18718,6.18718 -12.37437,0 -12.37437,0l-2.09326,-2.33356c-1.61786,-2.51035 -3.41273,-3.83274 -5.32978,-6.12061c-0.69286,-0.82688 -5.44576,-7.26662 -6.30692,-8.37432c-0.1741,-0.22395 -1.34708,-1.6322 -2.68154,-3.31414c0.07411,1.29873 0.16235,2.59509 0.28312,3.88634c0.21567,2.30578 1.58735,4.38065 1.95257,6.66751c0.23147,1.44931 0.07532,2.9344 0.11298,4.40159c0,0 0,8.75 -8.75,8.75c-8.75,0 -8.75,-8.75 -8.75,-8.75c0.21517,-3.04402 -1.55302,-5.84059 -1.93444,-8.9309c-0.21261,-1.72258 0.15011,-3.4799 -0.02298,-5.2069c-0.1695,-1.6912 -0.83127,-3.30872 -1,-5c-0.15861,-1.58983 0.19942,-3.20515 0.02298,-4.7931c-0.15178,-1.36596 -0.84823,-2.63404 -1,-4c-0.19167,-1.72503 0.15011,-3.4799 -0.02298,-5.2069c-0.1695,-1.6912 -0.83761,-3.3081 -1,-5c-0.05227,-0.54456 -0.04258,-8.44615 -0.04258,-9.8622c0,-10.90229 0.2574,-21.47642 3.88974,-31.84433c1.78139,-2.75961 4.57655,-7.36174 6.84712,-9.51214c4.71547,-4.46589 16.0344,-8.32499 22.31422,-7.29626c8.37398,1.37179 7.47446,3.3954 11.46565,8.10532c1.03063,1.21623 2.42319,2.12117 3.33163,3.43119c4.17865,6.02586 5.47935,12.71897 6.54872,19.77816c0.36545,2.41241 1.10582,4.7964 1.10232,7.23633c-0.01816,12.65404 -5.67822,30.42777 -18.20956,36.10372c-0.08416,0.03812 -0.16881,0.07489 -0.2539,0.11041c3.95509,5.02291 8.42198,9.78428 11.9945,15.03396l-0.09326,-0.33356c0,0 6.18718,6.18718 0,12.37437zM102.16275,171.72884c2.83984,-1.09473 7.04755,-2.1924 9.1576,-2.7683c4.26467,-0.84762 5.35702,-3.11478 7.14009,-7.09574c3.5077,-7.83148 3.50798,-15.88908 1.5289,-24.15589c-0.51909,-2.16829 -1.30589,-4.36092 -2.64517,-6.1434c-1.76924,-2.35473 -2.85809,-1.89829 -3.61483,-4.29639c-0.71052,0.26389 -1.45772,0.43157 -2.1776,0.67216c-1.13216,0.37837 -4.23523,0.84682 -5.09607,1.86449c-1.18071,1.39582 -2.08819,3.00164 -3.15288,4.48786c-0.83572,2.91562 -0.81764,5.00113 -1.15284,8.01788c-0.1877,1.68928 -0.8014,3.31197 -1,5c-0.9355,7.95148 0.21815,16.43875 1,24.27559c0.00471,0.04723 0.00897,0.09448 0.0128,0.14176z"/><path d="M193.19254,206.44929c0,8.1325 -7.55857,8.70642 -8.62542,8.74692c-4.75092,1.27491 -8.90187,2.96267 -14.13492,1.769c-5.12845,-1.16981 -12.47583,-6.09025 -15.29452,-10.69913c-1.68945,-2.76244 -2.74915,-5.75596 -3.57336,-8.82101c-2.13791,-0.11621 -4.22492,-0.24579 -6.12178,-0.24579c0,0 -8.75,0 -8.75,-8.75c0,-8.75 8.75,-8.75 8.75,-8.75c1.56045,0 3.1209,0 4.68135,0c0.2651,-0.97545 0.50043,-1.8295 0.6342,-2.3191c0.12782,-1.56596 -0.21684,-3.24592 0.38346,-4.69789c0.95994,-2.32185 2.7414,-4.21174 4.15801,-6.28677c4.52047,-6.62153 10.74263,-11.15739 19.49145,-8.03019c2.66057,0.951 4.56596,3.403 6.41826,5.53654c6.32808,7.28887 5.34262,19.67421 -1.97597,26.10709c-3.19571,2.80896 -6.1779,3.35243 -9.78114,4.65644c-0.10092,0.03652 -0.2016,0.07379 -0.30209,0.11169c0.90911,2.16653 2.38556,3.97932 5.3028,5.15626c0.83244,0.33584 1.68229,-0.63123 2.54327,-0.88512c1.42561,-0.4204 2.8828,-0.72513 4.32421,-1.0877l3.12219,-0.26125c0,0 8.75,0 8.75,8.75z"/><path d="M256.26878,218.36241c-3.91312,7.82624 -11.73936,3.91312 -11.73936,3.91312l-4.27407,-2.63905c-1.60045,-1.6713 -3.86743,-2.63872 -5.3725,-4.39641c-1.15327,-1.34685 -1.45056,-3.27454 -2.53869,-4.67456c-0.8126,-1.04551 -1.84457,-1.89142 -2.84455,-2.76867c-0.93829,1.12086 -2.08137,2.15985 -3.45693,3.09565c-1.51943,1.03368 -3.35693,1.57243 -5.15376,1.95786c-2.88192,0.61819 -5.9032,1.66372 -8.78206,1.03145c-2.35368,-0.51692 -3.90101,-2.83021 -5.85152,-4.24532c0,0 -4.82483,-4.82483 -1.69252,-10.21384l-2.42128,-7.74034c1.13795,-2.80149 0.91094,-5.65996 1.89993,-8.6794c0.72286,-2.20693 0.54339,-5.01761 2.24867,-6.59403c3.03193,-2.80283 6.89366,-5.40931 11.01459,-5.66699c2.86355,-0.17906 5.06967,2.74666 7.32498,4.52023c4.30043,3.38185 4.37593,4.58982 6.02194,9.16589c0.16719,0.11688 0.25696,0.18869 0.25696,0.18869c3.66888,2.97906 6.9015,6.47588 10.05379,9.99704c1.77632,1.98418 3.94277,3.61776 5.5785,5.71935c0.74368,0.95548 0.70901,2.37674 1.46131,3.32544c0.4631,0.584 1.39966,0.56609 1.98772,1.02403c0.97068,0.7559 1.75985,1.71971 2.63978,2.57956l-0.27407,-0.63905c0,0 7.82624,3.91312 3.91312,11.73936z"/><path d="M301.44254,202.19929c-3.27932,0 -5.32961,-1.22902 -6.6115,-2.76584c-1.07132,1.1481 -2.64058,1.75721 -3.84109,2.78258c-1.72551,1.47377 -3.06745,3.40534 -4.94726,4.67645c-1.35883,0.91883 -3.06242,1.17661 -4.59052,1.77293c-4.77956,1.86516 -7.74248,3.49059 -13.21779,3.5314c-1.04747,0.00781 -8.19385,-1.82873 -9.91403,-2.25878c0,0 -8.48875,-2.12219 -6.36656,-10.61093c0.9041,-3.61638 2.96368,-5.30695 5.03015,-6.05622c0.08579,-0.3731 0.15762,-0.58858 0.15762,-0.58858l1,-3c1.69299,-5.04062 1.11862,-11.76911 4.69076,-15.96602c1.69576,-1.99235 4.46474,-2.72882 6.6971,-4.09322c4.76767,-2.35824 8.26525,-5.27259 13.84402,-5.8582c3.80202,-0.39911 7.35712,0.47499 10.33608,2.23576c0.00874,-0.20733 0.02435,-0.41418 0.04859,-0.62042c0.16038,-1.36498 0.83918,-2.63507 1,-4c0.39004,-3.31043 -0.36366,-6.68656 0,-10c0.35822,-3.26388 1.63957,-6.38522 1.96426,-9.6526c0.55931,-5.62836 -0.02981,-11.60513 -0.02981,-17.2783c0,0 0,-8.75 8.75,-8.75c8.75,0 8.75,8.75 8.75,8.75c0,6.15906 0.58462,12.60417 -0.02981,18.7217c-0.3513,3.49765 -1.64055,6.85443 -2.03574,10.3474c-0.37474,3.3122 0.35079,6.68518 0,10c-0.14463,1.36674 -0.81637,2.63795 -1,4c-0.32658,2.4223 0.31603,4.91545 -0.04743,7.33249c-0.15674,1.04237 -0.85956,1.9553 -1,3c-0.57622,4.28641 0.11298,9.25912 0.11298,13.59841v2c0,0 0,8.75 -8.75,8.75zM275.7545,192.1751c0.38228,-0.02324 0.79962,0.06037 1.0879,-0.16901c1.17709,-0.93662 1.91366,-2.34105 3.05274,-3.32355c0.56439,-0.48681 1.51447,-0.44822 1.98772,-1.02403c0.58918,-0.71686 0.55173,-1.78412 0.99172,-2.60109c0.42015,-0.78013 1.16202,-1.35935 1.56596,-2.14798c0.23873,-0.46609 0.09288,-1.07617 0.17988,-1.58956c-0.22433,0.01186 -0.44594,0.03301 -0.63803,0.1314c-2.2699,1.16267 -4.34949,2.67601 -6.62672,3.82424c-0.00322,-0.00023 -0.00647,-0.00044 -0.00973,-0.00063c-0.05197,0.42108 -0.15905,0.85358 -0.21895,1.24349c-0.33727,2.19529 -0.8059,3.8932 -1.37248,5.65671z"/><path d="M328.52942,249.27553c-7.82624,-3.91312 -3.91312,-11.73936 -3.91312,-11.73936l2.63905,-4.27407c1.65812,-1.61686 2.93051,-3.58717 4.42044,-5.36022c4.11286,-4.89438 8.68086,-9.40127 13.06882,-14.08024c-2.10883,-0.80474 -3.48926,-2.18517 -3.48926,-2.18517l-1,-1c-1.08534,-1.19568 -2.38343,-2.22829 -3.25601,-3.58704c-0.65521,-1.02027 -0.60079,-2.39015 -1.243,-3.41865c-1.08569,-1.73874 -2.83364,-3.00972 -3.87386,-4.77603c-0.81506,-1.38399 -3.54344,-8.84755 -4.42205,-10.82097c-1.89744,-4.26179 -3.83231,-8.37416 -5.31888,-12.8175c0,0 -2.76699,-8.30098 5.53399,-11.06797c8.30098,-2.76699 11.06797,5.53399 11.06797,5.53399c1.29486,3.90148 3.02111,7.4414 4.68112,11.1825c1.33191,3.00167 1.86099,6.37973 3.57795,9.17903c1.16018,1.89152 2.94925,3.3428 4.12614,5.22397c0.59216,0.94652 0.5248,2.45246 1.50099,2.99431l1,1c0,0 0.62413,0.62413 1.2777,1.67416c0.24418,-0.35357 0.49854,-0.69966 0.76837,-1.03437c2.41016,-2.98966 5.62347,-5.30792 8.15652,-8.18561c2.03023,-2.30645 3.26956,-5.26235 5.42304,-7.45417c1.04219,-1.06075 2.50131,-1.62288 3.63978,-2.57956c3.95592,-3.32425 6.79105,-5.77125 11.78041,-7.53424c0,0 8.30098,-2.76699 11.06797,5.53399c2.76699,8.30098 -5.53399,11.06797 -5.53399,11.06797c-6.2041,1.80469 -9.21528,7.90711 -13.15677,12.43204c-2.42407,2.78288 -5.55087,4.92225 -7.84348,7.81439c-1.44015,1.81676 -2.39125,3.9889 -3.83997,5.79884c-4.28537,5.35387 -8.8744,10.46015 -13.46557,15.55422c-2.10529,2.33589 -4.69374,4.22088 -6.69445,6.64694c-1.83932,2.23035 -3.55247,4.57859 -5.57956,6.63978l0.63905,-0.27407c0,0 -3.91312,7.82624 -11.73936,3.91312z"/></g></g></svg>