<svg version="1.1" xmlns="http://www.w3.org/2000/svg" xmlns:xlink="http://www.w3.org/1999/xlink" width="171.75031" height="159.46043" viewBox="0,0,171.75031,159.46043"><g transform="translate(-142.46271,-90.54119)"><g stroke="none" stroke-miterlimit="10"><path d="M155.28812,136.09636c-2.17805,-2.11464 -5.77337,-0.75191 -8.61792,-4.07056c-5.13534,-5.99123 -5.74622,-25.51257 -0.8549,-31.35831c5.68372,-6.79274 6.43999,-6.9174 14.51307,-8.01356c1.84776,-0.25089 3.33426,-1.69645 5.40469,-1.95134c3.41922,-0.42092 7.70403,-0.21687 9.3998,3.06671c2.32137,-0.44851 4.65248,-0.70324 6.86714,-0.7693c5.54683,0.16545 9.20939,1.78343 14.38436,3.53357c1.66011,0.56144 3.4787,0.66347 5.06573,1.40677c4.24973,1.99039 10.88121,7.36863 12.71259,11.85014c0.66548,1.62847 0.80588,3.42144 0.83296,5.2088c0.14882,0.0096 0.29984,0.01398 0.45092,0.0182c1.26887,-0.84258 2.37401,-1.55008 2.83122,-1.71337c8.43304,-3.0118 10.76701,-4.56709 21.45914,-4.28835c8.18763,0.21345 17.45115,4.01774 23.5798,9.27087c2.0957,1.79631 3.98011,5.37018 6.65895,6.11585c1.99988,0.55667 4.04579,-0.39826 5.94786,-0.83136c4.42361,-1.00727 11.14333,-2.37731 16.69059,-1.64699c5.78734,-0.71301 13.4531,0.58675 17.16405,4.2977c2.33257,2.33257 3.11335,5.86216 4.07979,9.01617c0.17185,0.56085 0.14204,6.44888 0.14204,7.762c0,5.46343 0.56327,11.35069 -0.14204,16.762c-0.13624,1.04525 -0.82671,1.96025 -1,3c-0.1644,0.98639 0.18129,2.01657 0,3c-1.97476,10.71274 -8.11052,21.05666 -18.02509,26.11947c-6.43926,3.28817 -12.82572,3.34687 -19.59487,1.97649c-1.96024,-0.39684 -4.0213,0.29113 -6,0c-0.54888,-0.08076 -1.72123,-0.44933 -2.31108,-0.71556c-0.12828,0.12914 -0.21768,0.26114 -0.22117,0.38488c-0.04207,1.49201 -0.36749,2.96144 -0.67891,4.42569c2.32295,-0.03194 4.66421,0.00478 6.97317,0.04703c6.5942,0.12067 12.71258,1.92915 18.1017,5.84744c1.94117,1.41138 4.25496,2.51561 5.64008,4.47563c1.63639,2.31557 2.07745,5.27662 3.11618,7.91493c0.06139,6.28719 0.66257,7.762 -2.28576,14.18169c-0.61657,1.34252 -2.02664,2.15974 -2.90194,3.34985c-1.49519,2.03296 -2.32692,4.60616 -4.19631,6.30141c-4.47656,4.05955 -14.089,7.06194 -20.12993,7.84664c-2.17581,0.28263 -4.43154,-0.49498 -6.58201,-0.05963c-12.49363,2.52928 -25.82306,3.32253 -38.24051,-0.42244c-1.50656,-0.50219 -6.76344,-2.22244 -7.62667,-2.69195c-1.46412,-0.79632 -2.5717,-2.14108 -4,-3c-2.02862,-1.21992 -4.46247,-1.58209 -6.67836,-2.41474c-5.55924,-2.08895 -11.11102,-3.82344 -16.69497,-5.89332c-5.18181,-1.92082 -9.24667,-2.88566 -11.68417,-9.226c-2.97521,-7.73902 0.15588,-13.62207 5.48575,-18.95129c2.0856,-2.08534 7.30836,-3.10674 9.89389,-4.61539c1.30802,-0.76323 2.11484,-2.39846 3.57352,-2.80552c2.88909,-0.80623 5.97924,-0.90281 8.97152,-0.69528c3.05431,0.21183 6.37011,2.16745 9.05441,3.54122c1.63702,0.46148 3.38497,0.63354 4.91108,1.38442c1.49545,0.73579 2.60453,2.08872 4,3c1.00936,0.65914 2.42529,-0.17031 3.61653,0.01473c0.70356,0.10928 1.40147,0.24998 2.09564,0.40948c-0.533,-0.79523 -1.06817,-1.58904 -1.59222,-2.3902c-0.44236,-0.67627 -0.83924,-1.38258 -1.29828,-2.04747c-0.84281,0.06485 -1.70094,-0.05423 -2.54916,-0.05423l-6.91935,-2.1613c0,0 -3.30856,-1.65428 -5.12912,-4.96285c-2.21692,-0.69448 -4.3242,-1.69907 -6.78439,-2.99438c-2.18097,-1.14829 -4.81821,-1.28741 -6.95018,-2.52431c-1.23361,-0.7157 -2.06818,-1.97081 -3.19084,-2.85039c-2.24633,-1.75996 -4.75516,-3.30058 -6.53288,-5.53288c-2.06081,-2.58777 -3.34806,-5.72577 -4.65591,-8.76436c-1.76259,-4.09508 -3.88063,-7.97621 -4.69528,-12.44752c-0.20425,-1.12105 0.10151,-2.28994 -0.05963,-3.41799c-0.41764,-2.92375 -0.88507,-5.76718 -1.04352,-8.60238c-4.31017,-0.50903 -8.24553,-1.72261 -12.5174,-3.30612c-1.78065,-0.66006 -3.76953,-0.96025 -5.30453,-2.07836c-1.62768,-1.18561 -3.05489,-2.50946 -4.2869,-3.93972c-0.592,-0.39096 -1.14456,-0.83818 -1.64194,-1.32109zM192.68102,122.60501c-3.75448,-3.28702 -9.86508,-5.31639 -15.26478,-6.77125c-0.92551,0.33597 -1.8131,0.71827 -2.58337,1.04772c-0.41133,0.17593 -2.00639,1.57051 -1.97491,1.88054c0.08339,0.82111 -0.14047,1.6627 0,2.47599c0.06429,0.37219 0.41722,0.90274 0.60402,1.32239c0.00562,0.00138 0.01113,0.00276 0.01653,0.0041c2.32878,0.58079 4.94673,2.28856 7.2835,2.57755c4.38446,0.54224 9.67072,-1.16348 14.10066,0.40549c-0.26561,-0.54765 -0.50298,-1.11018 -0.71198,-1.68677c-0.49293,-0.41077 -0.9826,-0.82934 -1.46966,-1.25576zM235.11156,146.57509c0,-3.42335 2.54844,-6.25147 5.85167,-6.69074c-0.00377,-0.09269 -0.00568,-0.18586 -0.00568,-0.27948c0,-1.75895 0.67279,-3.36077 1.77508,-4.56214c-3.23893,0.41881 -6.38973,0.933 -9.73263,0.95728c-2.74633,0.01996 -5.5462,-0.68698 -8.238,-0.14204c-7.52316,1.52303 -15.57259,1.65502 -22.54504,-2.5008c-0.52779,-0.31458 -1.03319,-0.64499 -1.51613,-0.99063c0.58569,2.69413 0.5041,5.73649 1.15713,8.39547c-2.54192,7.62577 0.32266,15.03436 3.30472,22.02848c0.45806,1.07432 0.60152,2.33421 1.34409,3.23564c2.94143,3.57067 5.43896,3.21392 9.3261,5.09241c1.37223,0.66314 2.65301,2.05519 4.16714,1.88147c0,0 7.37201,0 10.04588,6.03507c1.74421,0.05204 3.37401,0.17104 4.14174,0.43692c4.97692,1.72366 8.28339,5.04337 11.14835,8.87785c0.9305,-2.7234 2.23157,-5.33125 3.74036,-7.78165c3.32178,-5.39482 8.54233,-7.42461 14.16166,-9.42614c3.19212,0 6.39535,0.36662 9.52401,1c1.96024,0.39684 4.0213,-0.29113 6,0c1.04287,0.15344 1.9975,0.67425 3,1c1.99896,0.64955 6.54072,-3.0675 7.35653,-4.97491c0.63778,-1.49115 0.88546,-3.12375 1.44595,-4.64564c0.78485,-2.13108 1.2048,-5.00778 1.57756,-7.2835c0.53386,-3.25933 0.12444,-7.09071 -0.06212,-10.62999c-1.11767,0.41995 -2.26676,0.76415 -3.41203,1.06356c-2.80174,0.73245 -5.333,2.32455 -8.14061,3.03417c-1.54079,0.38943 -3.19325,-0.08104 -4.76528,0.15222c-1.04267,0.15472 -1.95166,0.89008 -3,1c-5.64585,0.59197 -10.87457,-0.12343 -15.58005,-2.60881c-1.1145,-1.58273 -2.67662,-2.82755 -4.5023,-3.55041c-0.08953,-0.08357 -0.17854,-0.16827 -0.26707,-0.25392c-1.01338,0.98531 -2.33514,1.6551 -3.80671,1.85079c0.00377,0.09269 0.00568,0.18586 0.00568,0.27947c0,3.72792 -3.02208,6.75 -6.75,6.75c-3.72792,0 -6.75,-3.02208 -6.75,-6.75zM254.08807,218.38833c-0.78733,2.17389 -2.12873,4.20868 -4.30989,6.38985c-1.25486,1.25486 -2.50814,2.65878 -3.99947,3.61003c0.83342,-0.00987 1.6567,-0.08369 2.45929,-0.24617c1.03313,-0.20916 1.95713,-0.84656 3,-1c1.97869,-0.29113 4.03976,0.39684 6,0c1.03314,-0.20916 1.95713,-0.84656 3,-1c2.44641,-0.35995 4.96115,0.22042 7.41799,-0.05963c0.76383,-0.08706 4.29312,-1.32956 4.86551,-1.51793c0.75441,-0.24828 1.49195,-0.56283 2.26898,-0.72716c0.24174,-0.05113 0.59333,0.29378 0.73557,0.09173c0.09035,-0.12833 0.7507,-1.6695 1.39713,-2.86227c-0.82833,-0.52212 -1.67643,-1.0346 -2.68518,-1.20883c-6.94918,-1.20027 -13.48275,1.62994 -20.14993,-1.46963zM213.89995,114.71991c-0.03172,-0.16875 -0.06819,-0.33611 -0.12177,-0.49808c-0.04407,-0.13325 -0.10853,0.33831 0.00486,0.42102c0.03808,0.02778 0.07708,0.05341 0.11691,0.07706z" fill="#000000" stroke-width="0.5"/><path d="M273.16346,127.96284c12.59762,-6.06459 20.25849,4.46387 23.67777,14.17139c3.10638,13.09138 5.69847,30.33937 -8.15555,38.39429c-2.35594,1.36978 -4.62896,3.23423 -7.32516,3.63079c-2.55127,0.37525 -5.09341,-0.83736 -7.60185,-1.4353c-2.75766,-0.65734 -6.66985,-2.51275 -8.90341,-3.85868c-3.30598,-1.99214 -4.84484,-3.07255 -6.3393,-5.02691c-0.75666,1.45369 -1.64048,2.82301 -2.91436,4.09223c0.11348,3.78545 -0.87479,7.87519 -1.42839,11.32173c-0.38239,2.38067 0.0768,5.32918 0.0768,7.74762c0,11.79135 1.21483,23.93892 -2.52599,35.24133c0,0 -3.24133,9.72401 -12.96534,6.48267c-9.72401,-3.24133 -6.48267,-12.96534 -6.48267,-12.96534c1.79102,-5.32461 1.47401,-10.15729 1.47401,-15.75867c0,-6.33224 -0.06705,-12.6682 0,-19c0.02122,-2.00391 0.36433,-3.87566 0.64325,-5.74935c-0.69872,-0.00035 -1.48267,-0.0053 -2.39325,-0.00065c-3.1049,0.01584 -6.17172,-0.68919 -9.25238,-1.0768c-3.45201,-0.43433 -7.07519,-0.54439 -10.25097,-1.96547c-4.79076,-2.14375 -10.22805,-5.90012 -14.41677,-8.84025c-2.80784,-1.97087 -7.52266,-5.46473 -9.39511,-8.3742c-5.92971,-9.21376 -7.63102,-21.30961 -0.55422,-30.56094c0.84595,-1.10588 10.11155,-7.99622 11.46429,-8.68745c2.60333,-1.33028 5.60967,-1.75182 8.20619,-3.09535c11.12792,-4.42208 24.3094,-8.70528 36.45135,-6.82274c3.7204,0.57682 7.22523,2.18462 10.67013,3.70343c1.46313,0.64508 3.1703,0.81389 4.46624,1.75059c4.46576,3.22785 7.01919,7.85157 8.24203,12.99796c1.39013,-2.58455 3.00394,-5.0986 5.53268,-6.31595z" fill="#6ce500" stroke-width="0.5"/><path d="M272.378,159.15714c-0.54044,-3.05736 -1.95402,-6.90153 0,-9.31428c0.5575,-0.68838 1.20145,-1.26969 1.90778,-1.77373c0.07105,-0.18691 0.1487,-0.37056 0.23266,-0.55069l-0.35207,-0.35207l2,-2c0.76297,-0.76298 1.67469,-1.3772 2.68793,-1.79545c0.37395,-0.19081 0.78077,-0.32674 1.22713,-0.39667c0.61564,-0.14663 1.25804,-0.22425 1.91857,-0.22425c0.29637,0 0.58909,0.01563 0.87738,0.04611c9.42952,0.34056 10.23283,11.12881 9.26609,17.5254c-0.14211,0.94027 -0.45777,1.87105 -0.89347,2.78231c0,0.85549 0,1.89619 0,1.89619c0,4.55635 -3.69365,8.25 -8.25,8.25c-4.55635,0 -8.25,-3.69365 -8.25,-8.25v-2.61462c-0.36507,-0.4233 -0.68788,-0.8841 -0.96184,-1.37581c-0.0125,-0.00314 -0.02522,-0.00633 -0.03816,-0.00957l0.03177,-0.00192c-0.04865,-0.08764 -0.09575,-0.17627 -0.14126,-0.26583c-0.52064,-0.33408 -1.13639,-0.86154 -1.26252,-1.57511z" fill="#53b200" stroke-width="0.5"/><path d="M234.83363,233.83363c-2.53878,2.53878 -5.07757,2.86782 -7.13552,2.42962c-4.17081,0.93131 -7.53174,-2.42962 -7.53174,-2.42962c-1.47887,-1.53899 -3.49077,-2.49077 -5,-4c-1.55791,-1.55791 -2.44209,-3.44209 -4,-5c-0.02443,-0.02443 -0.05178,-0.05087 -0.08178,-0.07922c-0.85478,0.04824 -1.80512,1.24428 -2.76308,1.38906c-6.78006,1.0247 -17.9171,0.09586 -18.57151,-10.14347c-0.4094,-6.40585 8.02735,-10.20705 12.92849,-11.14347c4.76079,-0.9096 11.34008,-0.15451 15.32921,2.58714c1.50681,1.0356 2.19368,2.9282 3.37238,4.32592c0.20408,0.242 0.41917,0.47399 0.6414,0.69946c0.50868,0.34735 1.04023,0.72045 1.60317,1.11985c4.02482,1.51039 6.20313,3.57162 9.20898,6.57747l2,2c0,0 5.83363,5.83363 0,11.66726z" fill="#55b600" stroke-width="0.5"/><path d="M258.33278,235.0512c-2.00941,1.37361 -5.10854,2.3469 -8.90906,-0.18678c-6.86442,-4.57628 -2.28814,-11.44069 -2.28814,-11.44069c1.23944,-1.74694 1.69838,-3.95277 2.84655,-5.761c2.0582,-3.24142 6.23817,-6.94217 9.18424,-9.49635c1.51578,-1.31415 2.78569,-3.11795 4.67649,-3.78838c5.73737,-2.0343 8.41002,-0.19237 13.49442,1.60414l0.43661,1.2458c0.24127,0.08612 0.47736,0.18315 0.70767,0.29051c2.81642,1.31286 4.76844,4.16925 4.76844,7.48156c0,4.55635 -3.69365,8.25 -8.25,8.25c-0.4619,0 -0.91494,-0.03796 -1.35616,-0.11093c-1.52886,4.28709 -3.58259,6.46694 -6.81021,9.69456l-6.83363,2.41637c0,0 -0.68827,0 -1.66722,-0.1988z" fill="#55b600" stroke-width="0.5"/><path d="M195.85637,129.70747c-0.35416,0.23467 -0.74218,0.45923 -1.16685,0.67156c-4.27699,2.1385 -7.31448,0.55847 -9.11247,-1.14788c-1.71877,-0.03553 -3.35437,-0.12377 -3.96776,-0.33514c-1.86431,-0.64243 -5.98779,-2.33016 -6.21372,-3.56226c-0.78972,0.05275 -1.60009,-0.08375 -2.39557,-0.08375c-2,0 -4,0 -6,0c-2,0 -4.12664,0.70039 -6,0h-3c-4.55635,0 -8.25,-3.69365 -8.25,-8.25c0,-2.27818 0.92342,-4.34068 2.41637,-5.83363l2,-2c2.92152,-2.92152 6.91563,-8.25525 10.67649,-9.78838c2.88275,-1.17516 12.41561,-1.00338 15.31428,0c1.29474,0.44818 1.99869,1.91031 3.18014,2.60413c2.47334,1.45252 5.71047,2.24102 8.28737,3.60677c2.12251,1.12493 3.63921,3.18021 5.71263,4.39323c1.07314,0.62783 2.54178,0.51694 3.48658,1.32512c1.89201,1.61841 3.18409,3.8285 4.77614,5.74275c0,0 4.95,6.6 -1.65,11.55c-3.21743,2.41307 -6.04274,2.08134 -8.09363,1.10747z" fill="#55b600" stroke-width="0.5"/><path d="M257.12676,140.05456c0,5.46387 -5.0279,9.89321 -11.23013,9.89321c-6.20224,0 -11.23013,-4.42934 -11.23013,-9.89321c0,-5.46387 5.0279,-9.89321 11.23013,-9.89321c6.20224,0 11.23013,4.42934 11.23013,9.89321z" fill="#000000" stroke-width="0"/></g></g></svg>