<svg version="1.1" xmlns="http://www.w3.org/2000/svg" xmlns:xlink="http://www.w3.org/1999/xlink" width="500" height="402.69732" viewBox="0,0,500,402.69732"><g transform="translate(4.62538,28.86689)"><g stroke="none" stroke-miterlimit="10"><path d="M-4.62538,369.59107v-380h500v380z" fill="#84c171" stroke-width="0"/><path d="M40.03737,304.42733c-0.25307,-1.38005 -0.48931,-2.76234 -0.59939,-4.16058c-1.85328,-23.53965 -1.08794,-47.30722 -1.08794,-70.93473c0,-5.87046 0.3747,-11.9166 0.00575,-17.77452c-0.76828,-12.19817 -2.65738,-24.25801 -3.1985,-36.5015c-0.48671,-11.01229 0.08907,-21.98682 -1.11948,-32.98547c-0.57708,-5.25179 -1.90665,-10.54701 -2.17339,-15.82655c-0.31543,-6.24328 0.04181,-12.05324 -0.82268,-18.27353c-1.64131,-13.31332 -1.92852,-25.65614 0.88771,-38.76809c1.17812,-5.48516 2.57499,-11.4115 6.01307,-15.87822c1.56278,-2.03036 3.86601,-3.30427 5.82572,-4.922c1.38384,-1.14236 3.23102,-3.84164 4.65098,-4.73037c3.10408,-1.9428 3.83337,-0.86526 6.75023,-2.39302c1.1947,-0.62575 2.11897,-1.75148 3.35014,-2.29583c3.96444,-1.75283 9.3611,-2.68688 13.53738,-3.55749c10.10455,-2.62332 20.3519,-3.243 30.59055,-4.5437c3.3713,-0.42828 6.35894,0.39654 9.73968,0c1.47791,-0.17335 2.85023,-0.95519 4.32874,-1.1229c11.39006,-1.29199 23.27596,1.50555 34.62995,0c4.23876,-0.56206 7.92423,-1.14605 12.26774,-1.14605c16.79316,0 33.4473,0.5113 50.07385,2.26084c6.93555,0.7298 14.38542,-0.01503 21.35043,-0.01503c11.78271,0 23.56586,-0.03088 35.34846,0.02314c9.55969,-2.47984 20.28588,-1.14605 30.12484,-1.14605c7.93741,0 15.87482,0 23.81223,0c4.78679,0 10.12286,-0.52652 14.89765,0.01503c1.82847,0.20738 3.58637,0.88123 5.41093,1.1229c3.56765,0.47255 7.32323,-0.50709 10.89224,0.00812c5.09653,0.73571 10.12858,2.26254 15.26371,2.26254c11.3112,3.78413 20.90272,10.21428 27.89171,20.36281c0.69261,1.00572 0.58229,2.43648 1.20148,3.49249c0.55484,0.94624 1.76042,1.38553 2.23922,2.37547c0.66713,1.37932 0.43081,3.10419 1.08218,4.49161c0.37392,0.79643 1.34008,1.11984 1.87608,1.80943c0.26047,0.3351 4.68699,7.27071 4.77682,7.51358c0.68084,1.84083 0.54572,3.9239 1.14765,5.79409c0.5036,1.56466 1.58658,2.87619 2.1406,4.42239c3.24453,9.05505 4.56739,20.18419 4.47519,29.77227c1.16628,3.63049 0.48129,6.51213 1.08219,10.10612c0.63412,3.79264 1.66172,7.47705 2.18051,11.34638c0.29305,2.18564 -0.37965,4.44583 -0.01614,6.62005c2.97093,17.76914 2.20281,36.13011 2.20281,54.39403c0,14.59772 0,29.19545 0,43.79317c0,5.19132 0.58506,10.95065 -0.0223,16.09799c-0.45498,3.85596 -1.57241,7.57022 -2.18051,11.34638c-0.45177,2.80541 -0.28562,5.76645 -1.22864,8.43714c-1.26655,3.58694 -3.11114,6.92872 -4.48609,10.47242c-3.7525,5.88891 -7.87525,10.8992 -12.23647,16.24086c-0.98617,1.20787 -1.47341,2.86944 -2.65951,3.86509c-0.9602,0.80602 -2.42191,0.64943 -3.48843,1.29568c-1.70256,1.03166 -2.5148,3.23185 -4.1532,4.3699c-4.13176,2.86996 -9.07951,3.65019 -13.41889,5.88343c-1.30513,0.67168 -2.30777,1.95529 -3.69175,2.42734c-2.43309,0.8299 -5.14579,0.39218 -7.60566,1.13225c-3.0482,0.91708 -5.82893,2.72035 -8.92681,3.43615c-1.49619,0.34571 -3.0749,-0.13527 -4.59832,0.04069c-5.64713,0.65227 -11.41269,2.16769 -17.03004,3.13828c-13.44886,1.64027 -26.88418,2.33108 -40.35537,3.60201c-11.96422,1.12876 -23.78932,3.93105 -35.82763,4.49993c-13.23759,0.62556 -26.37143,1.12673 -39.6491,1.12673c-19.29864,0 -38.59727,0 -57.89592,0c-9.58438,0 -19.45653,-0.71887 -29.01204,-0.00778c-9.12783,0.67926 -18.07956,1.13067 -27.26164,1.13068c-16.97525,0 -34.43932,1.1011 -51.22644,-1.14605c-6.43688,-0.86165 -13.88574,-4.14965 -16.45468,-10.86667c-0.74081,-1.937 -0.80513,-4.08348 -1.23625,-6.11885c-0.36591,-1.72751 -1.16247,-3.40046 -1.1547,-5.16919c0.00875,-1.99446 1.61731,-6.65406 2.31712,-8.83699zM44.52835,320.31106c0.14764,1.11284 0.27916,2.22876 0.63036,3.2857c2.24,6.74125 10.68849,6.48614 15.94051,7.09166c11.75918,1.35574 23.52007,1.10787 35.41884,1.10787c3.60729,0 7.21458,0 10.82187,0c9.04351,0.00001 17.85053,-0.45738 26.83941,-1.11513c9.70132,-0.70988 19.70533,-0.00778 29.43428,-0.00778c19.29864,0 38.59727,0 57.89592,0c13.18078,0 26.21128,-0.50919 39.35256,-1.11907c11.95906,-0.55502 23.71061,-3.36321 35.59666,-4.48329c13.36721,-1.25966 26.70148,-1.94153 40.04626,-3.56501c5.69973,-0.98659 11.54935,-2.51006 17.28006,-3.16952c1.34488,-0.15476 2.73811,0.34458 4.05916,0.0407c2.91955,-0.67158 5.51012,-2.45864 8.38817,-3.30126c1.58477,-0.46398 3.16703,-0.98234 4.79726,-1.22294c0.90744,-0.13393 1.87978,0.41514 2.74769,0.10939c1.0845,-0.38206 1.77871,-1.52922 2.80136,-2.06427c4.0046,-2.09517 8.73412,-2.71785 12.55357,-5.34558c1.75829,-1.20968 2.70676,-3.46745 4.50429,-4.61332c0.89213,-0.5687 2.18236,-0.27761 3.00468,-0.95012c0.84625,-0.69209 0.98737,-2.00662 1.66924,-2.87232c4.00205,-5.08096 8.01081,-9.71134 11.57162,-15.2004c1.26404,-3.30178 2.9398,-6.42485 4.1714,-9.73981c0.84908,-2.28537 0.5486,-4.86735 0.93573,-7.28349c0.59482,-3.71236 1.68124,-7.31977 2.14824,-11.11166c0.42219,-3.42797 -0.02231,-7.37971 -0.02231,-10.85165c0,-16.09492 0,-32.18986 0,-48.28478c0,-9.35752 0,-18.71503 0,-28.07255c0,-3.38607 0.51027,-7.4047 0.03844,-10.7343c-0.16595,-1.17105 -0.92494,-2.19636 -1.08218,-3.3687c-0.34807,-2.59509 0.43162,-5.27878 0,-7.86032c-0.19498,-1.16622 -0.90111,-2.20007 -1.08219,-3.3687c-0.34956,-2.25596 0.30406,-4.59413 -0.01614,-6.85477c-0.53681,-3.79001 -1.5717,-7.39089 -2.14823,-11.11166c-0.59936,-3.86804 0.14388,-6.28951 -1.08219,-10.10612c-0.07134,-9.25542 -0.99506,-19.87994 -4.18229,-28.61863c-0.57929,-1.5883 -1.67149,-2.94942 -2.18815,-4.56082c-0.56144,-1.75109 -0.40731,-3.70118 -1.01673,-5.43492c-1.18728,-3.37773 -4.84753,-5.62808 -6.33334,-8.64343c-0.67708,-1.37409 -0.41911,-3.11018 -1.08219,-4.49161c-0.4339,-0.90397 -1.58338,-1.25355 -2.08952,-2.11614c-0.61953,-1.05581 -0.50926,-2.48647 -1.20148,-3.49249c-1.08339,-1.5745 -2.78039,-2.59422 -3.99599,-4.06111c-0.80254,-0.96843 -1.15601,-2.29954 -2.02481,-3.20432c-4.97411,-5.1801 -11.30749,-7.96138 -17.79383,-10.30286c-5.06115,0 -10.02002,-1.4639 -15.03749,-2.22906c-3.50185,-0.53403 -7.22866,0.45597 -10.75149,0.00811c-1.82572,-0.23211 -3.58321,-0.90854 -5.41093,-1.12289c-4.56796,-0.53573 -9.73628,0.01502 -14.31104,0.01502c-7.93741,0 -15.87482,0 -23.81223,0c-9.60552,0 -20.06554,-1.32099 -29.39747,1.09977c-12.02513,0.04818 -24.05062,0.02314 -36.07583,0.02314c-7.16924,0 -14.79631,0.71601 -21.93702,-0.01503c-16.44005,-1.68308 -32.88243,-2.23078 -49.48726,-2.23078c-4.13897,0 -7.49361,0.58568 -11.54037,1.09977c-11.38136,1.44588 -23.24287,-1.33566 -34.62996,0c-1.47791,0.17335 -2.85023,0.95519 -4.32875,1.1229c-3.22733,0.36608 -6.5193,-0.42703 -9.73967,0c-10.05735,1.33361 -20.08777,1.86717 -30.01188,4.4395c-3.7544,0.77545 -8.85681,1.5783 -12.43508,3.17992c-1.15971,0.51908 -2.01134,1.61383 -3.14298,2.19577c-1.95799,1.00688 -4.35808,0.93908 -6.236,2.0986c-1.64183,1.01375 -2.51763,3.01058 -4.00651,4.25283c-1.64868,1.37557 -3.67261,2.3487 -4.99614,4.06121c-2.80092,3.62412 -3.86042,8.87563 -4.8088,13.31723c-0.69824,3.27013 -1.71018,6.4828 -2.11415,9.8059c-1.06139,8.73112 0.25018,18.11787 1.31764,26.77825c0.86689,6.34947 0.55087,12.30106 0.86154,18.66443c0.25391,5.20075 1.58861,10.44066 2.15535,15.61471c1.21815,11.12107 0.65416,22.21815 1.14625,33.35222c0.53972,12.21164 2.42921,24.23336 3.19326,36.40065c0.37589,5.98605 0.00576,12.15939 0.00576,18.15835c0,21.27316 -1.37923,43.14312 0.33349,64.35674c0.21663,2.68316 0.55916,5.08 0.94517,7.47968c1.37743,1.24563 0.73297,3.25178 0.73297,3.25178l-0.12905,0.40173c0.08125,0.49192 0.16259,0.98969 0.24336,1.49557c0.82016,5.13669 -0.9602,8.21053 4.49629,9.91663c0,0 2.82379,0.97667 1.88253,3.9067c-0.94126,2.93003 -3.76505,1.95335 -3.76505,1.95335c-1.68612,-0.62113 -3.21628,-0.976 -4.51444,-1.78314z" fill="#6dca51" stroke-width="0.5"/><path d="M49.09031,322.05698c0,0 2.72887,1.05127 3.67013,-1.87876c0.94126,-2.93003 -1.8832,-3.90764 -1.8832,-3.90764c-5.45649,-1.70609 -3.67775,-4.78238 -4.49791,-9.91907c-0.08077,-0.50588 -0.16231,-1.00398 -0.24357,-1.4959l0.12901,-0.40179c0,0 0.64401,-2.00689 -0.73342,-3.25252c-0.38601,-2.39968 -0.7295,-4.79817 -0.94613,-7.48134c-1.71272,-21.21362 -0.33996,-43.10016 -0.33996,-64.37332c0,-5.99895 0.36909,-12.1779 -0.0068,-18.16395c-0.76404,-12.16728 -2.65412,-24.20077 -3.19383,-36.41241c-0.49209,-11.13406 0.07319,-22.24149 -1.14496,-33.36256c-0.56674,-5.17405 -1.90037,-10.41829 -2.15429,-15.61905c-0.31067,-6.36337 0.00696,-12.31987 -0.85993,-18.66934c-1.06746,-8.66037 -2.37634,-18.05331 -1.31495,-26.78443c0.40397,-3.32309 1.41714,-6.5381 2.11539,-9.80823c0.94838,-4.4416 2.00979,-9.69633 4.81071,-13.32045c1.32353,-1.71252 3.34839,-2.68705 4.99707,-4.06262c1.48889,-1.24225 2.36559,-3.24039 4.00742,-4.25414c1.87792,-1.15952 4.27891,-1.09294 6.23691,-2.09982c1.13164,-0.58194 1.9839,-1.67752 3.14361,-2.1966c3.57827,-1.60162 8.6826,-2.40682 12.437,-3.18227c9.92411,-2.57234 19.95979,-3.11128 30.01714,-4.44489c3.22037,-0.42703 6.5142,0.36447 9.74153,-0.00161c1.47852,-0.16772 2.8519,-0.95042 4.32981,-1.12377c11.38708,-1.33566 23.25724,1.44016 34.6386,-0.00571c4.04676,-0.51409 7.40509,-1.1016 11.54405,-1.1016c16.60483,0 33.06554,0.54277 49.50559,2.22585c7.1407,0.73104 14.77701,0.01489 21.94626,0.01489c12.02522,0 24.06506,0.02783 36.09018,-0.02036c9.33193,-2.42075 19.80148,-1.09564 29.407,-1.09564c7.93741,0 15.88106,0.00391 23.81847,0.00391c4.57477,0 9.7462,-0.54838 14.31417,-0.01264c1.82772,0.21435 3.58645,0.89183 5.41217,1.12394c3.52283,0.44787 7.25157,-0.54038 10.75342,-0.00635c5.01748,0.76516 9.97904,2.23177 15.04019,2.23177c6.48634,2.34147 12.82343,5.12714 17.79754,10.30725c0.8688,0.90478 1.22293,2.23674 2.02547,3.20518c1.2156,1.46689 2.91356,2.48793 3.99695,4.06243c0.69222,1.00601 0.58253,2.43752 1.20206,3.49333c0.50615,0.86259 1.65609,1.21288 2.08999,2.11685c0.66308,1.38143 0.40578,3.11856 1.08286,4.49265c1.48581,3.01535 5.14764,5.26836 6.33492,8.64609c0.60942,1.73374 0.45601,3.68516 1.01745,5.43625c0.51666,1.6114 1.60953,2.97382 2.18882,4.56212c3.18723,8.73869 4.11415,19.37082 4.1855,28.62624c1.22607,3.8166 0.48375,6.24094 1.0831,10.10897c0.57653,3.72077 1.6123,7.32499 2.14912,11.11499c0.3202,2.26065 -0.33299,4.60083 0.01657,6.85678c0.18108,1.16863 0.88742,2.20354 1.0824,3.36977c0.43162,2.58154 -0.34769,5.26758 0.00038,7.86267c0.15724,1.17235 0.91639,2.19873 1.08234,3.36978c0.47183,3.3296 -0.0381,7.35151 -0.0381,10.73758c0,9.35752 0.00007,18.72377 0.00007,28.08129c0,16.09492 -0.0025,32.2041 -0.0025,48.29903c0,3.47195 0.44356,7.42657 0.02137,10.85454c-0.467,3.79188 -1.55456,7.40234 -2.14938,11.11469c-0.38714,2.41614 -0.08745,5 -0.93653,7.28536c-1.2316,3.31496 -2.90865,6.44077 -4.17269,9.74255c-3.56081,5.48906 -7.57227,10.12423 -11.57432,15.2052c-0.68187,0.8657 -0.8235,2.18105 -1.66975,2.87314c-0.82232,0.67251 -2.11295,0.38203 -3.00508,0.95073c-1.79753,1.14587 -2.74707,3.4052 -4.50536,4.61487c-3.81946,2.62773 -8.55114,3.25331 -12.55574,5.34848c-1.02266,0.53505 -1.71752,1.68302 -2.80202,2.06509c-0.86791,0.30575 -1.8406,-0.2429 -2.74804,-0.10897c-1.63024,0.2406 -3.21335,0.75994 -4.79811,1.22392c-2.87806,0.84262 -5.47039,2.63162 -8.38994,3.3032c-1.32105,0.30388 -2.71494,-0.19478 -4.05981,-0.04002c-5.73071,0.65947 -11.58405,2.18639 -17.28377,3.17298c-13.34479,1.62348 -26.68981,2.31271 -40.05702,3.57238c-11.88605,1.12009 -23.6506,3.93332 -35.60967,4.48834c-13.14128,0.60987 -26.18796,1.1208 -39.36874,1.1208c-19.29864,0 -38.6193,-0.00521 -57.91795,-0.00521c-9.72896,0 -19.74131,-0.70679 -29.44263,0.00309c-8.98887,0.65775 -17.80155,1.11081 -26.84507,1.1108c-3.60729,0 -7.21651,-0.00174 -10.8238,-0.00174c-11.89877,0 -23.66482,0.24239 -35.42399,-1.11336c-5.25202,-0.60552 -13.70308,-0.35373 -15.94308,-7.09498c-0.3512,-1.05694 -0.38685,-2.24611 -0.53449,-3.35895c1.29816,0.80714 2.82769,1.1611 4.5138,1.78222z" fill="#79e05a" stroke-width="0.5"/><path d="M447.69123,-15.64829c2.5,0 2.5,2.5 2.5,2.5l-0.12829,2.60844c-1.00032,2.87537 -0.33873,4.84097 -0.81293,7.79028c-0.15209,0.94595 -0.74516,1.7828 -0.90893,2.7268c-0.4988,2.87515 0.37672,6.02473 0.02012,8.93522c-0.43846,3.57862 -0.89677,6.19109 -0.89677,9.75192c0,20.60249 0,41.20497 0,61.80745c0,3.65303 0.37637,7.59849 -0.01873,11.21266c-0.13576,1.24181 -0.75058,2.3966 -0.90893,3.63573c-0.60652,4.74613 0.52724,9.72039 0.00657,14.48381c-0.16787,1.53574 -0.73543,3.00955 -0.90894,4.54467c-0.30847,2.72913 0.29191,5.50928 -0.00656,8.23951c-0.13576,1.24187 -0.77198,2.39418 -0.90895,3.63592c-0.34638,3.14009 0.05345,6.31873 -0.00077,9.47739c-0.05793,3.37524 -0.64254,6.72128 -0.89662,10.08745c-0.37603,4.98184 0.4217,10.06207 -0.02929,15.04139c-0.29329,3.23816 -0.89074,6.46155 -0.89632,9.71295c-0.04746,3.38525 -0.52604,6.75179 -0.89357,10.11736c-0.29841,2.73261 0.42188,5.62685 -0.01909,8.34466c-0.43858,2.70314 -1.50847,5.29307 -1.79878,8.01613c-0.35827,3.36052 0.38872,6.83038 -0.02376,10.19252c-0.11667,0.95097 -0.78767,1.77641 -0.90893,2.7268c-0.53848,4.22046 0.05263,8.96931 0.03228,13.23354c-0.01087,2.27603 -0.61011,4.51114 -0.94121,6.76299c-0.6016,4.09148 -0.06109,8.99376 0.92249,12.92808c0.08347,21.6127 0.01873,43.22687 0.01873,64.83971c0,11.21017 0,22.42035 0,33.63053c0,5.75228 0.55207,11.79733 -0.01217,17.51608c-0.41388,4.19479 -1.86355,8.30957 -1.8057,12.47872c0,0 0,2.5 -2.5,2.5c-2.5,0 -2.5,-2.5 -2.5,-2.5c0.04573,-4.42969 1.38026,-8.53617 1.83003,-12.97141c0.56263,-5.54804 -0.01217,-11.43972 -0.01217,-17.02338c0,-11.21017 0,-22.42035 0,-33.63053c0,-21.40906 -0.07587,-42.81993 0.01873,-64.22879c-1.09944,-4.39774 -1.52996,-9.78024 -0.89538,-14.33991c0.13207,-0.94896 0.76955,-1.77889 0.90893,-2.7268c0.82668,-5.62226 -0.69382,-11.61435 0,-17.26973c0.11667,-0.95097 0.78767,-1.7764 0.90893,-2.7268c0.40951,-3.20971 -0.37189,-6.57895 -0.02376,-9.80401c0.30566,-2.8317 1.35409,-5.53774 1.83695,-8.34466c0.4416,-2.56713 -0.29342,-5.41719 -0.01909,-8.01613c0.3424,-3.24369 0.84044,-6.48427 0.8767,-9.74578c0.01875,-3.38974 0.60453,-6.75259 0.91697,-10.12796c0.45773,-4.9449 -0.34486,-10.00565 0.0224,-14.95852c0.24247,-3.27 0.83126,-6.51863 0.88338,-9.7972c0.00119,-0.07478 0.03515,-9.9832 0.03759,-10.00598c0.13288,-1.24206 0.7686,-2.39431 0.90891,-3.63555c0.30408,-2.68997 -0.30071,-5.43022 -0.00656,-8.12128c0.16787,-1.53574 0.73542,-3.00955 0.90893,-4.54466c0.54275,-4.80186 -0.5813,-9.80053 0.00657,-14.60205c0.15181,-1.23995 0.76862,-2.39442 0.90893,-3.63573c0.38499,-3.40573 -0.01873,-7.15861 -0.01873,-10.60174c0,-20.60249 0,-41.20497 0,-61.80745c0,-3.67762 0.45314,-6.57873 0.9211,-10.24461c0.3859,-3.02308 -0.46486,-6.22701 0.02012,-9.24345c0.15209,-0.94595 0.74516,-1.78279 0.90893,-2.72679c0.53253,-3.06955 -0.00172,-5.44827 1.00495,-8.57051l-0.1283,-1.02729c0,0 0,-2.5 2.5,-2.5z" fill="#c9c9c9" stroke-width="0.5"/><path d="M437.44745,367.52951c0,0 -1.56497,-89.74869 -0.06198,-143.91038c1.03461,-37.28332 5.40008,-106.95271 7.45479,-161.97332c1.94247,-52.0149 3.60719,-90.51269 3.60719,-90.51269h32.54354v396.3964z" fill="#c9c9c9" stroke-width="0"/></g></g></svg>