<?xml version="1.0" encoding="UTF-8" standalone="no"?>
<svg
	xmlns="http://www.w3.org/2000/svg"
	width="48"
	height="48"
	viewBox="0 0 48 48">
	<circle
		r="24"
		cx="24"
		cy="24"
		style="fill:#5865F2" />
	<path
		d="M 35.107047,14.009962 A 26.46526,26.18929 0 0 0 28.505204,12 a 18.13682,17.947696 0 0 0 -0.84568,1.701121 24.585132,24.328768 0 0 0 -7.326712,0 A 18.214844,18.024907 0 0 0 19.487132,12 26.651511,26.373599 0 0 0 12.880255,14.014944 c -4.1780625,6.117061 -5.31067,12.082192 -4.7443663,17.96264 v 0 A 26.611241,26.333749 0 0 0 16.232773,36 19.556355,19.352429 0 0 0 17.966921,33.232877 17.220667,17.041096 0 0 1 15.236078,31.942715 c 0.229039,-0.164383 0.453043,-0.333748 0.669497,-0.498132 a 19.020254,18.821918 0 0 0 16.188736,0 c 0.218971,0.176837 0.442975,0.346202 0.669497,0.498132 A 17.286106,17.105853 0 0 1 30.027932,33.235367 19.380172,19.178083 0 0 0 31.76208,36 26.490429,26.214197 0 0 0 39.863998,31.980075 v 0 C 40.528461,25.160648 38.728874,19.250311 35.107047,14.009962 Z M 18.684239,28.361146 c -1.5781,0 -2.881857,-1.417186 -2.881857,-3.160647 0,-1.743463 1.258453,-3.173102 2.876823,-3.173102 1.618371,0 2.91206,1.429639 2.884374,3.173102 -0.02769,1.743461 -1.271037,3.160647 -2.87934,3.160647 z m 10.631409,0 c -1.580617,0 -2.87934,-1.417186 -2.87934,-3.160647 0,-1.743463 1.258453,-3.173102 2.87934,-3.173102 1.620887,0 2.904508,1.429639 2.876822,3.173102 -0.02769,1.743461 -1.26852,3.160647 -2.876822,3.160647 z"
		style="fill:#ffffff" />
</svg>