<?xml version="1.0" encoding="UTF-8" standalone="no"?>
<svg
	xmlns="http://www.w3.org/2000/svg"
	width="48"
	height="48"
	viewBox="0 0 48 48">
	<path
		d="M 48,24.146672 C 48,10.810823 37.254844,0 24,0 10.745156,0 0,10.810823 0,24.146672 0,36.198974 8.7765,46.188528 20.25,48 V 31.126569 H 14.15625 V 24.146672 H 20.25 v -5.319814 c 0,-6.051759 3.583031,-9.3945643 9.065156,-9.3945643 2.625844,0 5.372344,0.4716147 5.372344,0.4716147 v 5.9423446 h -3.026344 c -2.981344,0 -3.911156,1.861275 -3.911156,3.770842 v 4.529577 h 6.65625 l -1.064063,6.979897 H 27.75 V 48 C 39.223594,46.188528 48,36.198974 48,24.146672 Z"
		style="fill:#1877f2" />
	<path
		d="M 33.342187,30.9375 34.40625,24 H 27.75 V 19.497937 C 27.75,17.599969 28.679719,15.75 31.661156,15.75 H 34.6875 V 9.84375 c 0,0 -2.746594,-0.46875 -5.372344,-0.46875 C 23.833031,9.375 20.25,12.6975 20.25,18.7125 V 24 h -6.09375 v 6.9375 H 20.25 V 47.708438 C 21.471844,47.900156 22.72425,48 24,48 c 1.27575,0 2.528062,-0.09984 3.75,-0.291562 V 30.9375 Z"
		style="fill:#ffffff" />
</svg>