<?xml version="1.0" encoding="UTF-8" standalone="no"?>
<svg
	xmlns="http://www.w3.org/2000/svg"
	width="48"
	height="48"
	viewBox="0 0 48 48">
	<circle
		r="24"
		cx="24"
		cy="24"
		style="fill:#ffffff" />
	<path
		d="m 42,24.431706 c 0,-1.215662 -0.120033,-2.470541 -0.320088,-3.646989 H 24.355098 v 6.941045 h 9.922757 c -0.400111,2.235251 -1.720478,4.195999 -3.681023,5.450877 l 5.921646,4.509717 C 39.999444,34.509946 42,29.882583 42,24.431706 Z"
		style="fill:#4280EF" />
	<path
		d="m 24.355098,42 c 4.961379,0 9.122534,-1.607813 12.16338,-4.352859 l -5.921646,-4.470502 c -1.640455,1.098018 -3.761044,1.725457 -6.241734,1.725457 -4.801333,0 -8.842456,-3.17641 -10.322867,-7.411624 L 7.9505419,32.078621 C 11.071409,38.156936 17.393165,42 24.355098,42 Z"
		style="fill:#34A353" />
	<path
		d="m 14.032231,27.451257 c -0.760211,-2.235251 -0.760211,-4.666578 0,-6.90183 L 7.9505419,15.922065 c -2.6007225,5.097942 -2.6007225,11.097828 0,16.156556 z"
		style="fill:#F6B704" />
	<path
		d="m 24.355098,13.137803 c 2.600724,-0.03922 5.161434,0.94116 7.041957,2.705831 l 5.241456,-5.176371 C 33.317589,7.608497 28.916366,5.9614695 24.355098,6.0006844 c -6.961933,0 -13.283689,3.8430637 -16.4045561,9.9213806 l 6.0816891,4.627362 c 1.480411,-4.274428 5.521534,-7.411624 10.322867,-7.411624 z"
		style="fill:#E54335" />
</svg>