<?xml version="1.0" encoding="UTF-8" standalone="no"?>
<svg
	xmlns="http://www.w3.org/2000/svg"
	width="48"
	height="48"
	viewBox="0 0 48 48">
	<defs>
		<linearGradient
			id="bj"
			x1="-1.206969e-06"
			x2="1"
			y1="32"
			y2="32"
			gradientUnits="userSpaceOnUse"
			gradientTransform="matrix(24.00405,-41.5761,41.5761,24.00405,-1318.4393,-723.3402)">
			<stop
				offset="0"
				style="stop-color:#FEC053" />
			<stop
				offset="0.327"
				style="stop-color:#F2203E" />
			<stop
				offset="0.648"
				style="stop-color:#B729A8" />
			<stop
				offset="1"
				style="stop-color:#5342D6" />
		</linearGradient>
	</defs>
	<path
		d="M 24,0 V 0 C 37.2,0 48,10.8 48,24 48,37.2 37.2,48 24,48 10.8,48 0,37.2 0,24 0,10.8 10.8,0 24,0 Z"
		style="fill:url(#bj)" />
	<path
		d="M 16.760179,9 C 12.431741,9 9,12.60059 9,17.100587 V 30.899414 C 9,35.249409 12.434073,38.85 16.911768,39 h 14.17938 C 35.419586,39 39,35.399409 39,30.899414 V 17.100587 C 38.850744,12.60059 35.417254,9 30.93956,9 Z m 0.300263,2.701172 h 13.58177 c 2.98513,0 5.52133,2.548831 5.52133,5.548828 v 13.5 c 0,2.999997 -2.386944,5.548828 -5.52133,5.548828 h -13.58177 c -2.98513,0 -5.521913,-2.548831 -5.372657,-5.548828 v -13.5 c 0,-2.999997 2.387526,-5.548828 5.372657,-5.548828 z m 14.776989,2.399414 c -0.895539,0 -1.644154,0.748829 -1.644154,1.798827 0,1.05 0.748615,1.801758 1.644154,1.801758 0.895539,0 1.64124,-0.751758 1.64124,-1.801758 0,-1.049998 -0.745701,-1.798827 -1.64124,-1.798827 z m -8.302401,2.247071 c -4.00961,0.06996 -7.369547,3.434182 -7.369547,7.50293 -0.14925,4.199995 3.283652,7.798827 7.462833,7.798827 4.17918,0 7.760178,-3.300004 7.760178,-7.5 V 24 c 0.149265,-4.199996 -3.28365,-7.649414 -7.462831,-7.649414 -0.130605,-0.0047 -0.26129,-0.0053 -0.390633,-0.003 z m 0.34399,2.695311 c 2.573998,-0.0018 4.677098,2.191995 4.82169,4.807619 V 24 c 0.149251,2.699997 -2.08843,4.951171 -4.775047,4.951171 -2.686615,0 -4.926052,-2.101759 -5.075308,-4.801757 0,-2.699997 2.091344,-4.950586 4.777961,-5.100585 0.08395,-0.0047 0.167673,-0.0059 0.250704,-0.0059 z"
		style="fill:#FFFFFF" />
</svg>