<?xml version="1.0" encoding="UTF-8" standalone="no"?>
<!-- Created with Inkscape (http://www.inkscape.org/) -->

<!--
⁠$$\      $$\ $$\       $$\   $$\                $$$$$$\            $$\       $$\
⁠$$ | $\  $$ |$$ |      \__|  $$ |              $$  __$$\           \__|      $$ |
⁠$$ |$$$\ $$ |$$$$$$$\  $$\ $$$$$$\    $$$$$$\  $$ /  \__| $$$$$$\  $$\  $$$$$$$ | $$$$$$\   $$$$$$\   $$$$$$\   $$$$$$\
⁠$$ $$ $$\$$ |$$  __$$\ $$ |\_$$  _|  $$  __$$\ \$$$$$$\  $$  __$$\ $$ |$$  __$$ |$$  __$$\ $$  __$$\ $$  __$$\ $$  __$$\
⁠$$$$  _$$$$ |$$ |  $$ |$$ |  $$ |    $$$$$$$$ | \____$$\ $$ /  $$ |$$ |$$ /  $$ |$$$$$$$$ |$$ |  \__|$$ /  $$ |$$ /  $$ |
⁠$$$  / \$$$ |$$ |  $$ |$$ |  $$ |$$\ $$   ____|$$\   $$ |$$ |  $$ |$$ |$$ |  $$ |$$   ____|$$ |      $$ |  $$ |$$ |  $$ |
⁠$$  /   \$$ |$$ |  $$ |$$ |  \$$$$  |\$$$$$$$\ \$$$$$$  |$$$$$$$  |$$ |\$$$$$$$ |\$$$$$$$\ $$ |$$\   \$$$$$$$ |\$$$$$$$ |
⁠\__/     \__|\__|  \__|\__|   \____/  \_______| \______/ $$  ____/ \__| \_______| \_______|\__|\__|   \____$$ | \____$$ |
⁠                                                         $$ |                                        $$\   $$ |      $$ |
⁠                                                         $$ |                                        \$$$$$$  |      $$ |
⁠                                                         \__|                                         \______/       \__|
-->

<svg
   width="400"
   height="300"
   viewBox="0 0 400 300"
   version="1.1"
   id="svg5"
   inkscape:version="1.2.2 (b0a8486541, 2022-12-01)"
   sodipodi:docname="preview.svg"
   inkscape:export-filename="/home/shell/Projects/whitespider/res/logo512.png"
   inkscape:export-xdpi="192"
   inkscape:export-ydpi="192"
   xmlns:inkscape="http://www.inkscape.org/namespaces/inkscape"
   xmlns:sodipodi="http://sodipodi.sourceforge.net/DTD/sodipodi-0.dtd"
   xmlns="http://www.w3.org/2000/svg"
   xmlns:svg="http://www.w3.org/2000/svg">
  <sodipodi:namedview
     id="namedview7"
     pagecolor="#ffffff"
     bordercolor="#111111"
     borderopacity="1"
     inkscape:pageshadow="0"
     inkscape:pageopacity="0"
     inkscape:pagecheckerboard="1"
     inkscape:document-units="px"
     showgrid="false"
     units="px"
     width="256px"
     inkscape:zoom="2.1266376"
     inkscape:cx="184.32854"
     inkscape:cy="141.30287"
     inkscape:window-width="1920"
     inkscape:window-height="1029"
     inkscape:window-x="0"
     inkscape:window-y="27"
     inkscape:window-maximized="1"
     inkscape:current-layer="layer1"
     borderlayer="true"
     scale-x="1"
     inkscape:showpageshadow="2"
     inkscape:deskcolor="#d1d1d1" />
  <defs
     id="defs2" />
  <g
     inkscape:label="Layer 1"
     inkscape:groupmode="layer"
     id="layer1">
    <rect
       style="fill:#f2f2f2;stroke:none;stroke-width:12.6695;paint-order:markers fill stroke"
       id="rect302"
       width="400"
       height="300"
       x="0"
       y="0" />
    <g
       id="g7672"
       transform="matrix(1.0064777,0,0,1.0060592,-0.38590647,-0.79955041)"
       inkscape:export-filename="/home/shell/Pictures/tmp/gs/shark.png"
       inkscape:export-xdpi="96"
       inkscape:export-ydpi="96" />
    <path
       id="path984"
       style="color:#000000;fill:#e6e6e6;stroke:none;stroke-width:2.30297;-inkscape-stroke:none"
       d="m 232.32396,75.017865 c -0.29576,0.03303 -0.61765,0.116437 -0.87281,0.289918 -0.5103,0.346944 -0.85717,0.803871 -1.39771,1.577761 -1.08109,1.547781 -2.83837,4.449885 -6.26835,10.137959 -1.28461,2.130329 -2.50859,4.146853 -3.45156,5.676282 -0.47148,0.764716 -0.87354,1.41062 -1.17188,1.882938 -0.24626,0.389887 -0.38085,0.583064 -0.4303,0.659181 l -0.63782,-0.39978 c -6.55677,-4.135493 -9.24654,-5.364763 -13.40948,-6.088269 -3.40281,-0.591394 -8.25284,-0.464386 -11.28547,0.332642 -2.45356,0.64484 -5.31434,2.032443 -9.22856,4.406748 -0.85038,0.515822 -1.66375,0.984989 -2.27663,1.318362 -0.20123,0.109453 -0.33357,0.174727 -0.48218,0.250245 -0.15552,-0.178626 -0.34696,-0.405777 -0.66529,-0.872806 -0.77363,-1.13505 -2.00427,-3.146362 -3.97951,-6.457532 -3.23501,-5.422952 -5.05413,-8.433348 -6.22257,-10.150167 -0.58421,-0.858411 -0.99605,-1.395777 -1.43128,-1.79749 -0.43523,-0.401713 -1.0573,-0.665284 -1.54115,-0.665284 -0.43647,0 -0.48005,0.05624 -0.7782,0.122078 -0.29814,0.06585 -0.68199,0.157478 -1.15052,0.274659 -0.93705,0.234361 -2.20434,0.566064 -3.69875,0.967409 -2.98881,0.802689 -6.88394,1.878771 -10.80023,2.981573 -3.91628,1.1028 -7.85477,2.234961 -10.93145,3.140267 -1.53835,0.452652 -2.85914,0.845217 -3.8605,1.156617 -1.00137,0.311401 -1.58196,0.487722 -2.01417,0.683596 -0.83307,0.377537 -1.38343,1.217772 -1.58082,2.105716 -0.19739,0.887944 -0.15766,1.887464 0.0336,3.085334 l 0.42115,2.618414 2.32545,-0.09155 c 0.28289,-0.0116 0.43501,-0.05549 0.72327,-0.112922 0.28825,-0.05746 0.65008,-0.13475 1.08643,-0.234984 0.8727,-0.200467 2.03583,-0.48614 3.41494,-0.833131 2.75822,-0.693986 6.37703,-1.640126 10.19598,-2.676398 3.80971,-1.033769 7.4022,-1.990804 10.11968,-2.700812 1.35874,-0.355002 2.5003,-0.648831 3.33559,-0.857544 0.83529,-0.208715 1.5043,-0.35028 1.42212,-0.338747 0.32991,-0.04631 0.4603,-0.03648 0.48524,-0.03052 0.0249,0.006 0.0622,-0.0038 0.2655,0.204468 0.40665,0.416163 1.20703,1.624945 2.63368,3.927621 2.24639,3.625765 3.96884,6.514483 5.12393,8.581561 0.57755,1.033537 1.01289,1.864274 1.29395,2.459722 0.1956,0.414368 0.29058,0.78037 0.3296,0.86975 -0.01,-0.066 -0.0492,0.23991 -0.3418,0.80567 -0.31272,0.60461 -0.83053,1.46596 -1.57472,2.59705 -1.19959,1.82326 -2.8688,4.47695 -3.74147,5.9662 l -0.80263,1.37634 -4.126,-4.01002 c -1.43406,-1.39264 -2.81526,-2.69587 -3.89406,-3.67737 -0.5394,-0.49075 -1.00309,-0.9002 -1.3672,-1.2085 -0.18204,-0.15416 -0.33728,-0.28116 -0.47607,-0.38758 -0.1388,-0.10641 -0.19542,-0.17937 -0.47303,-0.30517 -0.4466,-0.2024 -1.26997,-0.26945 -1.87684,-0.0153 -0.60687,0.25416 -1.18335,0.65445 -2.17896,1.34277 -3.06085,2.11615 -21.87863,16.34662 -25.55251,19.31462 -1.99503,1.61172 -3.04569,2.44644 -3.72012,3.29285 -0.33721,0.42321 -0.58404,0.90603 -0.66528,1.39771 -0.0812,0.49168 -0.0193,0.90722 0.0427,1.30616 0.16833,1.08258 0.36061,1.92194 0.64392,2.59705 0.14166,0.33755 0.30117,0.64053 0.57069,0.92468 0.26951,0.28416 0.72535,0.55542 1.22681,0.55542 0.75434,0 1.113,-0.28209 1.8036,-0.6958 0.69059,-0.41371 1.61681,-1.043 2.93886,-1.98975 2.64408,-1.8935 6.85754,-5.05492 13.63227,-10.2051 5.07353,-3.85691 8.11652,-6.15068 9.94268,-7.46461 0.91308,-0.65697 1.52379,-1.06951 1.89821,-1.29395 0.12745,-0.0764 0.003,-0.0369 0.0733,-0.0641 0.2485,0.19996 0.59792,0.50499 1.01013,0.88196 0.84116,0.76922 1.92477,1.81982 2.99685,2.89612 1.07207,1.0763 2.13625,2.17977 2.9297,3.05177 0.39673,0.43599 0.72719,0.8146 0.9491,1.08948 0.0887,0.10988 0.14513,0.18453 0.19226,0.25024 -0.013,-0.0286 -0.0127,-0.0393 -0.0336,0.15259 -0.0289,0.26645 -0.0824,0.64779 -0.16174,1.09864 -0.1587,0.9017 -0.40923,2.08972 -0.71106,3.34168 -0.60862,2.52442 -1.43729,6.55542 -1.85853,9.04848 -0.35358,2.09259 -0.551,3.11501 -0.6775,3.537 -0.0573,-0.007 0.0101,0.001 -0.058,-0.0153 -0.25441,-0.0617 -0.61791,-0.16613 -1.04676,-0.30518 -0.85768,-0.27812 -1.98583,-0.69271 -3.20436,-1.18408 -1.18803,-0.47908 -2.2951,-0.90098 -3.13417,-1.19629 -0.41953,-0.14766 -0.76848,-0.26321 -1.04981,-0.34485 -0.14067,-0.0408 -0.26022,-0.0717 -0.39368,-0.0976 -0.0667,-0.013 -0.13057,-0.0274 -0.24109,-0.0336 -0.0553,-0.003 -0.12192,-0.003 -0.22583,0.009 -0.052,0.006 -0.11576,0.0141 -0.19532,0.0366 -0.0796,0.0226 -0.29407,0.12698 -0.29602,0.12817 -0.25731,0.15817 -0.24389,0.19168 -0.28992,0.24109 -0.046,0.0494 -0.0808,0.0968 -0.12207,0.14648 -0.0826,0.0994 -0.17534,0.21419 -0.28991,0.36316 -0.22917,0.29793 -0.53643,0.71041 -0.91554,1.22681 -0.75822,1.03281 -1.80614,2.48346 -3.04567,4.21754 -2.47906,3.46816 -5.73222,8.0762 -9.00579,12.73806 -3.27356,4.66186 -6.56148,9.37803 -9.10649,13.0646 -1.2725,1.84328 -2.36425,3.42796 -3.17079,4.62342 -0.80655,1.19547 -1.28205,1.90235 -1.52284,2.34986 -0.37457,0.69615 -0.28075,1.26456 -0.18616,1.85242 0.0946,0.58786 0.27709,1.19146 0.50965,1.75782 0.23256,0.56636 0.50043,1.08841 0.85144,1.53503 0.17551,0.22331 0.36993,0.43505 0.66529,0.61951 0.29536,0.18448 0.79653,0.35146 1.30616,0.18617 0.39756,-0.12894 0.56257,-0.30167 0.76599,-0.48829 0.20343,-0.18662 0.41238,-0.40828 0.66224,-0.69886 0.49972,-0.58115 1.15603,-1.42784 2.07521,-2.66418 1.83836,-2.47269 4.70566,-6.49827 9.20415,-12.88761 5.39847,-7.66758 8.9093,-12.62342 11.0993,-15.65249 1.095,-1.51453 1.85965,-2.54807 2.35597,-3.18604 0.12981,-0.16684 0.18875,-0.2297 0.28077,-0.3418 0.35219,0.12653 0.83231,0.31045 1.3855,0.53406 1.12052,0.45293 2.53239,1.06061 3.82387,1.651 0.82541,0.37733 1.39261,0.67687 1.69679,0.88196 0.13074,0.0881 0.16974,0.13629 0.19226,0.16175 0.0103,0.0782 0.0219,0.15086 0.0488,0.38147 0.038,0.32661 0.0866,0.76761 0.14039,1.28784 0.10749,1.04046 0.23742,2.39685 0.36621,3.81471 0.26264,2.89138 0.85258,7.42569 1.32447,10.18678 0.23113,1.35236 0.44019,2.61965 0.59205,3.56141 0.0596,0.36937 0.10122,0.639 0.14038,0.89417 -0.79705,0.17744 -2.46611,0.44239 -5.57559,0.92468 -1.55325,0.24092 -3.01846,0.47716 -4.13821,0.66529 -0.55987,0.0941 -1.03272,0.17617 -1.38856,0.24109 -0.35583,0.0649 -0.47123,0.0663 -0.7782,0.16174 -0.33731,0.10487 -0.72681,0.35698 -0.99793,0.66529 -0.27112,0.3083 -0.48148,0.66326 -0.72327,1.14136 -0.48357,0.95619 -1.09211,2.44883 -2.12098,5.0293 -3.57017,8.95418 -14.3401,37.40963 -16.21103,42.84981 -0.53262,1.54873 -0.85065,2.57233 -0.80872,3.59803 0.0419,1.02571 0.60285,1.88522 1.2909,2.56959 0.24071,0.23942 0.47882,0.45654 0.70191,0.63172 0.11155,0.0877 0.21398,0.1618 0.33875,0.23804 0.12477,0.0763 0.1306,0.23193 0.74768,0.23193 -0.0211,0 0.29275,0.0586 0.70191,-0.1159 0.40916,-0.17449 0.63584,-0.46791 0.81788,-0.75074 0.36407,-0.56576 0.73066,-1.39846 1.46485,-3.19214 1.46838,-3.58733 4.27985,-10.90544 10.08611,-25.98575 3.61316,-9.3843 5.44576,-14.13522 6.48197,-16.53447 0.51811,-1.19964 0.84887,-1.80895 1.01319,-2.03553 0.16432,-0.22659 0.0119,-0.0936 0.25635,-0.19532 0.44,-0.18286 1.91336,-0.5295 3.63161,-0.7843 1.71826,-0.2548 3.75608,-0.46522 5.63358,-0.56153 l 2.57264,-0.13121 1.73341,3.57362 c 3.00034,6.18885 5.71886,10.14886 9.68328,14.06558 6.07568,6.00258 11.4682,9.07168 17.34019,9.67104 3.73132,0.38086 9.0427,0.0434 11.76459,-0.88807 4.27906,-1.46433 8.35583,-4.19077 12.79608,-8.47779 3.66765,-3.54109 6.32836,-7.37177 9.79315,-14.02897 0.64361,-1.23665 1.25353,-2.37135 1.70899,-3.19825 0.19794,-0.35939 0.34803,-0.62808 0.47607,-0.84839 0.31908,0.009 0.77357,0.0418 1.31532,0.0885 1.10794,0.0955 2.56548,0.25631 4.04055,0.44556 1.47507,0.18925 2.97098,0.4087 4.15346,0.6073 0.59124,0.0992 1.10491,0.19194 1.48927,0.27466 0.38436,0.0827 0.70044,0.19429 0.61035,0.15259 0.11063,0.0512 -0.0227,-0.0981 0.19837,0.2655 0.22111,0.36362 0.60479,1.15552 1.2146,2.61231 1.21964,2.91358 3.38399,8.50134 7.51653,19.23221 4.17555,10.84255 6.55734,17.00419 7.98343,20.57195 1.42612,3.56776 1.83103,4.51771 2.36209,5.188 l 1.3855,1.74867 2.06604,-2.26137 c 0.34632,-0.37925 0.65352,-0.7578 0.89723,-1.10168 0.1218,-0.17194 0.22831,-0.33723 0.32044,-0.50659 0.0919,-0.16935 0.22887,-0.2403 0.22887,-0.78431 0,-0.28482 -0.0291,-0.27203 -0.0427,-0.32654 -0.0135,-0.0545 -0.0275,-0.10254 -0.0428,-0.15265 -0.0305,-0.10043 -0.0701,-0.21557 -0.1191,-0.36009 -0.0979,-0.28912 -0.23358,-0.68241 -0.41199,-1.178 -0.3568,-0.99113 -0.86947,-2.3836 -1.49841,-4.07409 -1.2579,-3.38096 -2.98383,-7.95869 -4.85538,-12.88761 -3.74307,-9.85782 -8.06969,-21.11814 -10.42486,-27.04779 -0.67805,-1.70712 -1.32941,-3.23882 -1.85243,-4.37928 -0.26151,-0.57023 -0.48813,-1.04078 -0.68359,-1.40381 -0.0977,-0.18152 -0.18766,-0.33465 -0.28382,-0.47913 -0.0962,-0.14447 -0.0384,-0.27325 -0.56457,-0.55237 -0.28069,-0.14892 -0.32673,-0.12887 -0.46388,-0.16479 -0.13716,-0.0359 -0.29744,-0.0725 -0.48523,-0.11292 -0.37557,-0.081 -0.86722,-0.18028 -1.4496,-0.28687 -1.16475,-0.21319 -2.69096,-0.4639 -4.31215,-0.71411 -2.98145,-0.46016 -4.66356,-0.7356 -5.52677,-0.91858 -0.0626,-0.0133 -0.0404,-0.0116 -0.0946,-0.0244 0.0279,-0.18265 0.0515,-0.33143 0.0885,-0.56762 0.127,-0.81081 0.30118,-1.90517 0.49439,-3.08534 0.97358,-5.94676 1.27901,-8.36476 1.61438,-12.84792 0.10535,-1.40871 0.20785,-2.38589 0.31434,-2.99989 0.0666,-0.38374 0.15277,-0.59596 0.18006,-0.67749 0.0369,-0.0277 0.0629,-0.0529 0.11296,-0.0824 0.17042,-0.10058 0.42039,-0.23488 0.71718,-0.38452 0.59357,-0.29929 1.37759,-0.65949 2.18811,-1.01318 1.62106,-0.70739 3.52206,-1.40061 3.89102,-1.47401 0.0389,-0.008 0.0329,-0.006 0.0519,-0.009 -0.0294,-0.0116 -0.0634,-0.0424 0.0641,0.0824 0.34002,0.33279 1.09575,1.29568 2.47805,3.14637 1.54707,2.0713 6.59439,9.12029 11.16949,15.59451 5.95258,8.42348 8.95742,12.67652 10.61102,14.81326 0.82679,1.06836 1.25373,1.60334 1.82801,1.99281 0.28714,0.19472 0.74164,0.37128 1.19631,0.29297 0.45463,-0.0783 0.69198,-0.30488 0.79954,-0.39368 0.50401,-0.41604 0.51737,-0.66007 0.67753,-1.01014 0.16012,-0.35007 0.3163,-0.75117 0.45777,-1.17188 0.28291,-0.84151 0.531,-1.61237 0.531,-2.42004 0,-0.59045 -0.12435,-0.59432 -0.21363,-0.78125 -0.0894,-0.18693 -0.19709,-0.39463 -0.33875,-0.64087 -0.28335,-0.49248 -0.69063,-1.14083 -1.21157,-1.95313 -1.04185,-1.6246 -2.55525,-3.89358 -4.47999,-6.71388 -3.84945,-5.64061 -9.33645,-13.48494 -15.89975,-22.71428 -1.31661,-1.85143 -2.52838,-3.56243 -3.42714,-4.82789 -0.89875,-1.26546 -1.55812,-2.19222 -1.51979,-2.13624 -0.001,-0.002 -0.18491,-0.22255 -0.27771,-0.28991 -0.0928,-0.0674 -0.17711,-0.10444 -0.25025,-0.13429 -0.14625,-0.0597 -0.24869,-0.076 -0.32958,-0.0854 -0.16181,-0.0189 -0.2526,-0.008 -0.3357,0 -0.1662,0.0167 -0.29331,0.0435 -0.44251,0.0793 -0.29838,0.0718 -0.65687,0.17686 -1.08642,0.31739 -0.85912,0.28108 -1.98708,0.69519 -3.21047,1.18103 -1.18917,0.47226 -2.34799,0.90408 -3.24405,1.21155 -0.44802,0.15375 -0.83202,0.27713 -1.10779,0.35706 -0.0521,0.015 -0.005,0.008 -0.055,0.0183 -0.004,-0.0107 0.004,0.002 0,-0.009 -0.2013,-0.65139 -0.50078,-2.21967 -1.01013,-5.14222 -0.33986,-1.94992 -1.05662,-5.26673 -1.6144,-7.47072 -0.27061,-1.06933 -0.51602,-2.12347 -0.69275,-2.94801 -0.0884,-0.41226 -0.16069,-0.76456 -0.20752,-1.02844 -0.0254,-0.14341 -0.0248,-0.13456 -0.0335,-0.21057 0.0213,-0.0692 0.0577,-0.19654 0.14343,-0.32959 0.18728,-0.29043 0.48828,-0.70065 0.86365,-1.16272 0.75076,-0.92416 1.79546,-2.07537 2.87173,-3.18605 1.07626,-1.11067 2.19055,-2.18606 3.08533,-2.96021 0.4474,-0.38707 0.84096,-0.69948 1.12001,-0.89111 0.0365,-0.0251 -0.0244,-0.003 0.0121,-0.0214 0.1854,0.12312 0.38967,0.26127 0.71106,0.48828 0.79755,0.56334 2.00837,1.44179 3.67739,2.6764 3.33803,2.46921 8.5269,6.36335 16.04927,12.03615 2.69399,2.0316 4.99121,3.68501 6.67728,4.82179 0.84303,0.56839 1.52814,1.00463 2.06301,1.30616 0.26744,0.15076 0.49032,0.26731 0.72327,0.3601 0.1164,0.0464 0.23195,0.0941 0.40587,0.12513 0.17393,0.031 0.45593,0.11892 0.9125,-0.16175 0.59438,-0.36539 0.5565,-0.596 0.66833,-0.84839 0.1119,-0.25238 0.20548,-0.53374 0.30213,-0.85754 0.19333,-0.64761 0.379,-1.4674 0.54322,-2.38038 0.0909,-0.50488 0.11475,-1.30599 -0.27162,-2.02332 -0.38632,-0.71733 -1.0175,-1.3678 -2.11182,-2.33155 -2.18864,-1.92749 -6.33627,-5.07107 -14.37689,-11.13893 -5.08115,-3.83448 -8.62779,-6.48614 -11.04134,-8.25197 -2.41355,-1.76584 -3.59818,-2.60719 -4.35487,-2.99378 -0.29512,-0.15077 -0.93892,-0.25631 -1.39773,-0.0977 -0.45879,0.15865 -0.78841,0.41001 -1.24206,0.78125 -0.90732,0.74246 -2.27271,2.0562 -4.79129,4.50745 -1.49748,1.45745 -2.89165,2.78667 -3.91848,3.74147 -0.34228,0.31826 -0.56767,0.52207 -0.81787,0.74768 -0.24491,-0.37142 -0.51301,-0.78457 -0.80872,-1.29395 -0.76829,-1.32344 -2.29456,-3.85941 -3.41494,-5.67323 -0.54756,-0.88647 -1.06762,-1.77276 -1.45569,-2.47498 -0.19405,-0.35111 -0.35172,-0.66118 -0.46387,-0.88806 -0.11214,-0.22689 -0.18552,-0.44781 -0.14954,-0.30518 -3.4e-4,-0.001 -0.0194,-0.38425 0.62256,-1.675419 0.64209,-1.291166 1.84493,-3.369623 3.85134,-6.707777 2.48179,-4.129071 3.75206,-6.226194 4.44644,-7.171646 0.34718,-0.472726 0.54145,-0.614583 0.53406,-0.610351 -0.007,0.0042 -0.11603,0.01219 0.14649,0.01219 -0.16614,0 0.005,0.001 0.177,0.03356 0.17176,0.03254 0.41673,0.08467 0.71716,0.152593 0.60088,0.13586 1.42804,0.338483 2.40785,0.585939 1.95963,0.494913 4.54432,1.175396 7.26933,1.928714 6.97805,1.929054 11.96085,3.271915 15.30771,4.110726 1.67343,0.419406 2.9344,0.714953 3.84828,0.897218 0.45695,0.09112 0.82317,0.151954 1.13222,0.18921 0.30906,0.03725 0.48712,0.101531 0.94299,-0.01219 0.49969,-0.12475 0.88809,-0.476629 1.12,-0.83008 0.23192,-0.353449 0.36203,-0.729256 0.46386,-1.147462 0.20375,-0.836415 0.28077,-1.871334 0.28077,-3.198251 0,-0.592161 0.059,-1.080212 -0.31434,-1.687624 -0.37339,-0.607348 -0.9615,-0.785167 -1.43127,-0.933839 -2.45421,-0.776681 -9.96935,-2.964932 -17.22117,-5.041514 -3.6259,-1.038293 -7.18149,-2.0481 -9.98235,-2.832036 -2.80086,-0.783936 -4.78415,-1.328417 -5.5054,-1.492313 -0.15013,-0.03411 -0.41835,-0.05134 -0.71412,-0.01832 z" />
  </g>
</svg>
