<?xml version="1.0" encoding="UTF-8" standalone="no"?>
<svg
	xmlns="http://www.w3.org/2000/svg"
	width="48"
	height="48"
	viewBox="0 0 48 48">
	<path
		d="M 11.7,34.2 Q 14.25,32.25 17.4,31.125 20.55,30 24,30 q 3.45,0 6.6,1.125 3.15,1.125 5.7,3.075 1.75,-2.05 2.725,-4.65 Q 40,26.95 40,24 40,17.35 35.325,12.675 30.65,8 24,8 17.35,8 12.675,12.675 8,17.35 8,24 8,26.95 8.975,29.55 9.95,32.15 11.7,34.2 Z M 24,26 Q 21.05,26 19.025,23.975 17,21.95 17,19 17,16.05 19.025,14.025 21.05,12 24,12 26.95,12 28.975,14.025 31,16.05 31,19 31,21.95 28.975,23.975 26.95,26 24,26 Z m 0,18 Q 19.85,44 16.2,42.425 12.55,40.85 9.85,38.15 7.15,35.45 5.575,31.8 4,28.15 4,24 4,19.85 5.575,16.2 7.15,12.55 9.85,9.85 12.55,7.15 16.2,5.575 19.85,4 24,4 q 4.15,0 7.8,1.575 3.65,1.575 6.35,4.275 2.7,2.7 4.275,6.35 Q 44,19.85 44,24 q 0,4.15 -1.575,7.8 -1.575,3.65 -4.275,6.35 -2.7,2.7 -6.35,4.275 Q 28.15,44 24,44 Z m 0,-4 q 2.65,0 5,-0.775 Q 31.35,38.45 33.3,37 31.35,35.55 29,34.775 26.65,34 24,34 21.35,34 19,34.775 16.65,35.55 14.7,37 16.65,38.45 19,39.225 21.35,40 24,40 Z m 0,-18 q 1.3,0 2.15,-0.85 Q 27,20.3 27,19 27,17.7 26.15,16.85 25.3,16 24,16 22.7,16 21.85,16.85 21,17.7 21,19 21,20.3 21.85,21.15 22.7,22 24,22 Z m 0,-3 z m 0,18 z"
		style="fill:#ffffff" />
</svg>