<?xml version="1.0" encoding="UTF-8" standalone="no"?>
<svg
	xmlns="http://www.w3.org/2000/svg"
	width="48"
	height="48"
	viewBox="0 0 48 48">
	<path
		d="M 17.6,42 H 10 Q 8.35,42 7.175,40.825 6,39.65 6,38 v -7.6 q 2.4,0 4.2,-1.525 Q 12,27.35 12,25 12,22.65 10.2,21.125 8.4,19.6 6,19.6 V 12 Q 6,10.35 7.175,9.175 8.35,8 10,8 H 18 Q 18,5.9 19.45,4.45 20.9,3 23,3 25.1,3 26.55,4.45 28,5.9 28,8 h 8 Q 37.65,8 38.825,9.175 40,10.35 40,12 v 8 q 2.1,0 3.55,1.45 Q 45,22.9 45,25 45,27.1 43.55,28.55 42.1,30 40,30 v 8 q 0,1.65 -1.175,2.825 Q 37.65,42 36,42 h -7.6 q 0,-2.5 -1.575,-4.25 Q 25.25,36 23,36 20.75,36 19.175,37.75 17.6,39.5 17.6,42 Z"
		style="fill:#808080" />
</svg>