<?xml version="1.0" encoding="UTF-8" standalone="no"?>
<svg
	xmlns="http://www.w3.org/2000/svg"
	width="48"
	height="48"
	viewBox="0 0 48 48">
	<circle
		r="24"
		cx="24"
		cy="24"
		style="fill:#008080" />
	<path
		d="M 12,37.5 V 30 Q 12,28.7625 12.88125,27.88125 13.7625,27 15,27 h 18 q 1.2375,0 2.11875,0.88125 Q 36,28.7625 36,30 v 7.5 z m 7.5,-12 q -3.1125,0 -5.30625,-2.19375 Q 12,21.1125 12,18 12,14.8875 14.19375,12.69375 16.3875,10.5 19.5,10.5 h 9 q 3.1125,0 5.30625,2.19375 Q 36,14.8875 36,18 36,21.1125 33.80625,23.30625 31.6125,25.5 28.5,25.5 Z m -4.5,9 H 33 V 30 H 15 Z m 4.5,-12 h 9 q 1.875,0 3.1875,-1.3125 Q 33,19.875 33,18 33,16.125 31.6875,14.8125 30.375,13.5 28.5,13.5 h -9 q -1.875,0 -3.1875,1.3125 Q 15,16.125 15,18 15,19.875 16.3125,21.1875 17.625,22.5 19.5,22.5 Z m 0,-3 q 0.6375,0 1.06875,-0.43125 Q 21,18.6375 21,18 21,17.3625 20.56875,16.93125 20.1375,16.5 19.5,16.5 18.8625,16.5 18.43125,16.93125 18,17.3625 18,18 18,18.6375 18.43125,19.06875 18.8625,19.5 19.5,19.5 Z m 9,0 q 0.6375,0 1.06875,-0.43125 Q 30,18.6375 30,18 30,17.3625 29.56875,16.93125 29.1375,16.5 28.5,16.5 27.8625,16.5 27.43125,16.93125 27,17.3625 27,18 27,18.6375 27.43125,19.06875 27.8625,19.5 28.5,19.5 Z M 24,34.5 Z M 24,18 Z"
		style="fill:#ffffff" />
</svg>