<?xml version="1.0" encoding="UTF-8" standalone="no"?>
<svg
	xmlns="http://www.w3.org/2000/svg"
	width="48"
	height="48"
	viewBox="0 0 48 48">
	<circle
		r="24"
		cx="24"
		cy="24"
		style="fill:#ffffff" />
	<path
		d="M 24 0 A 24 24 0 0 0 0 24 A 24 24 0 0 0 24 48 A 24 24 0 0 0 48 24 A 24 24 0 0 0 24 0 z M 19.5 10 L 28.5 10 C 30.574998 10 32.344142 10.730861 33.806641 12.193359 C 35.269139 13.655858 36 15.425002 36 17.5 C 36 19.574998 35.269139 21.344142 33.806641 22.806641 C 32.344142 24.269139 30.574998 25 28.5 25 L 19.5 25 C 17.425002 25 15.655858 24.269139 14.193359 22.806641 C 12.730861 21.344142 12 19.574998 12 17.5 C 12 15.425002 12.730861 13.655858 14.193359 12.193359 C 15.655858 10.730861 17.425002 10 19.5 10 z M 19.5 13 C 18.250001 13 17.187499 13.437501 16.3125 14.3125 C 15.437501 15.187499 15 16.250001 15 17.5 C 15 18.749999 15.437501 19.812501 16.3125 20.6875 C 17.187499 21.562499 18.250001 22 19.5 22 L 28.5 22 C 29.749999 22 30.812501 21.562499 31.6875 20.6875 C 32.562499 19.812501 33 18.749999 33 17.5 C 33 16.250001 32.562499 15.187499 31.6875 14.3125 C 30.812501 13.437501 29.749999 13 28.5 13 L 19.5 13 z M 19.5 16 C 19.925 16 20.28086 16.144141 20.568359 16.431641 C 20.855859 16.71914 21 17.075 21 17.5 C 21 17.925 20.855859 18.28086 20.568359 18.568359 C 20.28086 18.855859 19.925 19 19.5 19 C 19.075 19 18.71914 18.855859 18.431641 18.568359 C 18.144141 18.28086 18 17.925 18 17.5 C 18 17.075 18.144141 16.71914 18.431641 16.431641 C 18.71914 16.144141 19.075 16 19.5 16 z M 28.5 16 C 28.925 16 29.28086 16.144141 29.568359 16.431641 C 29.855859 16.71914 30 17.075 30 17.5 C 30 17.925 29.855859 18.28086 29.568359 18.568359 C 29.28086 18.855859 28.925 19 28.5 19 C 28.075 19 27.71914 18.855859 27.431641 18.568359 C 27.144141 18.28086 27 17.925 27 17.5 C 27 17.075 27.144141 16.71914 27.431641 16.431641 C 27.71914 16.144141 28.075 16 28.5 16 z M 15 26.5 L 33 26.5 C 33.824999 26.5 34.531641 26.79336 35.119141 27.380859 C 35.70664 27.968359 36 28.675001 36 29.5 L 36 37 L 12 37 L 12 29.5 C 12 28.675001 12.29336 27.968359 12.880859 27.380859 C 13.468359 26.79336 14.175001 26.5 15 26.5 z M 15 29.5 L 15 34 L 33 34 L 33 29.5 L 15 29.5 z "
		style="fill:#008080" />
</svg>