<?xml version="1.0" encoding="UTF-8" standalone="no"?>
<svg
	xmlns="http://www.w3.org/2000/svg"
	width="48"
	height="48"
	viewBox="0 0 48 48">
	<circle
		cx="24"
		cy="24"
		r="24"
		style="fill:#ffffff" />
	<path
		d="M 24 0 A 24 24 0 0 0 0 24 A 24 24 0 0 0 24 48 A 24 24 0 0 0 48 24 A 24 24 0 0 0 24 0 z M 20 12 L 28 12 C 30.22222 12 32.110461 12.778431 33.666016 14.333984 C 35.221569 15.889538 36 17.77778 36 20 L 36 33.333984 C 36 34.067317 35.739018 34.694575 35.216797 35.216797 C 34.694575 35.739018 34.067317 36 33.333984 36 L 30.666016 36 L 30.666016 30.666016 C 30.666016 29.932682 30.405035 29.305425 29.882812 28.783203 C 29.360591 28.260982 28.733333 28 28 28 L 20 28 C 19.266667 28 18.639409 28.260981 18.117188 28.783203 C 17.594965 29.305425 17.333984 29.932683 17.333984 30.666016 L 17.333984 36 L 14.666016 36 C 13.932683 36 13.305425 35.739018 12.783203 35.216797 C 12.260982 34.694575 12 34.067317 12 33.333984 L 12 20 C 12 17.77778 12.778431 15.889538 14.333984 14.333984 C 15.889538 12.778431 17.77778 12 20 12 z M 20 18.666016 C 19.266667 18.666016 18.639409 18.926997 18.117188 19.449219 C 17.594965 19.97144 17.333984 20.600652 17.333984 21.333984 C 17.333984 22.067317 17.594965 22.694575 18.117188 23.216797 C 18.639409 23.739018 19.266667 24 20 24 C 20.733333 24 21.360591 23.739018 21.882812 23.216797 C 22.405034 22.694575 22.666016 22.067317 22.666016 21.333984 C 22.666016 20.600652 22.405034 19.97144 21.882812 19.449219 C 21.360591 18.926997 20.733333 18.666016 20 18.666016 z M 28 18.666016 C 27.266667 18.666016 26.63941 18.926997 26.117188 19.449219 C 25.594967 19.97144 25.333984 20.600652 25.333984 21.333984 C 25.333984 22.067317 25.594967 22.694575 26.117188 23.216797 C 26.63941 23.739018 27.266667 24 28 24 C 28.733333 24 29.360591 23.739018 29.882812 23.216797 C 30.405035 22.694575 30.666016 22.067317 30.666016 21.333984 C 30.666016 20.600652 30.405035 19.97144 29.882812 19.449219 C 29.360591 18.926997 28.733333 18.666016 28 18.666016 z M 20 30.666016 L 22.666016 30.666016 L 22.666016 36 L 20 36 L 20 30.666016 z M 25.333984 30.666016 L 28 30.666016 L 28 36 L 25.333984 36 L 25.333984 30.666016 z "
		style="fill:#008000" />
</svg>