<?xml version="1.0" encoding="UTF-8" standalone="no"?>
<svg
	xmlns="http://www.w3.org/2000/svg"
	width="48"
	height="48"
	viewBox="0 0 48 48">
	<rect
		x="0"
		y="0"
		width="48"
		height="48"
		style="fill:#ffffff" />
	<path
		d="M 0 0 L 0 48 L 48 48 L 48 0 L 0 0 z M 8 8 L 13.205078 8 L 14.726562 11.199219 L 38.347656 11.199219 C 38.961556 11.199219 39.429705 11.472865 39.75 12.019531 C 40.070296 12.566197 40.082666 13.119688 39.789062 13.679688 L 34.103516 23.919922 C 33.809914 24.453255 33.417617 24.866823 32.923828 25.160156 C 32.430039 25.453489 31.88799 25.599609 31.300781 25.599609 L 19.371094 25.599609 L 17.609375 28.800781 L 36.826172 28.800781 L 36.826172 32 L 17.609375 32 C 16.408266 32 15.500617 31.473254 14.886719 30.419922 C 14.272818 29.36659 14.24612 28.319296 14.806641 27.279297 L 16.96875 23.359375 L 11.203125 11.199219 L 8 11.199219 L 8 8 z M 17.609375 33.599609 C 18.490188 33.599609 19.243848 33.912432 19.871094 34.539062 C 20.498338 35.165693 20.8125 35.920746 20.8125 36.800781 C 20.8125 37.68078 20.498338 38.433881 19.871094 39.060547 C 19.243848 39.687248 18.490188 40 17.609375 40 C 16.728562 40 15.974902 39.687178 15.347656 39.060547 C 14.720411 38.433846 14.40625 37.68078 14.40625 36.800781 C 14.40625 35.920782 14.720411 35.165729 15.347656 34.539062 C 15.974902 33.912396 16.728562 33.599609 17.609375 33.599609 z M 33.623047 33.599609 C 34.503859 33.599609 35.259473 33.912432 35.886719 34.539062 C 36.513965 35.165693 36.826172 35.920746 36.826172 36.800781 C 36.826172 37.68078 36.513965 38.433881 35.886719 39.060547 C 35.259473 39.687248 34.503859 40 33.623047 40 C 32.742234 40 31.988573 39.687178 31.361328 39.060547 C 30.734081 38.433917 30.419922 37.680816 30.419922 36.800781 C 30.419922 35.920782 30.734081 35.167682 31.361328 34.541016 C 31.988573 33.914314 32.742234 33.599609 33.623047 33.599609 z "
		style="fill:#004080" />
</svg>