<?xml version="1.0" encoding="UTF-8" standalone="no"?>
<svg
	xmlns="http://www.w3.org/2000/svg"
	width="48"
	height="48"
	viewBox="0 0 48 48">
	<rect
		x="0"
		y="0"
		width="48"
		height="48"
		style="fill:#004080" />
	<path
		d="M 18.014,39 Q 16.7765,39 15.89525,38.11875 15.014,37.2375 15.014,36 q 0,-1.2375 0.88125,-2.11875 Q 16.7765,33 18.014,33 19.2515,33 20.13275,33.88125 21.014,34.7625 21.014,36 q 0,1.2375 -0.88125,2.11875 Q 19.2515,39 18.014,39 Z m 15,0 Q 31.7765,39 30.89525,38.11875 30.014,37.2375 30.014,36 q 0,-1.2375 0.88125,-2.11875 Q 31.7765,33 33.014,33 34.2515,33 35.13275,33.88125 36.014,34.7625 36.014,36 q 0,1.2375 -0.88125,2.11875 Q 34.2515,39 33.014,39 Z m -17.7,-27 h 22.125 q 0.8625,0 1.3125,0.76875 0.45,0.76875 0.0375,1.55625 l -5.325,9.6 q -0.4125,0.75 -1.10625,1.1625 Q 31.664,25.5 30.839,25.5 H 19.664 l -1.65,3 h 18 v 3 h -18 q -1.6875,0 -2.55,-1.48125 Q 14.6015,28.5375 15.389,27.075 L 17.414,23.4 12.014,12 h -3 V 9 h 4.875 z"
		style="fill:#ffffff" />
</svg>