<?xml version="1.0" encoding="UTF-8" standalone="no"?>
<svg
   viewBox="0 0 48 47.999999"
   width="48"
   height="48"
   version="1.1"
   id="svg27"
   sodipodi:docname="discord.svg"
   inkscape:version="1.2.2 (b0a8486541, 2022-12-01)"
   xml:space="preserve"
   xmlns:inkscape="http://www.inkscape.org/namespaces/inkscape"
   xmlns:sodipodi="http://sodipodi.sourceforge.net/DTD/sodipodi-0.dtd"
   xmlns="http://www.w3.org/2000/svg"
   xmlns:svg="http://www.w3.org/2000/svg"><defs
     id="defs31" /><sodipodi:namedview
     id="namedview29"
     pagecolor="#ffffff"
     bordercolor="#666666"
     borderopacity="1.0"
     inkscape:showpageshadow="2"
     inkscape:pageopacity="0.0"
     inkscape:pagecheckerboard="true"
     inkscape:deskcolor="#d1d1d1"
     showgrid="false"
     inkscape:zoom="5.046875"
     inkscape:cx="38.043344"
     inkscape:cy="41.907121"
     inkscape:window-width="1920"
     inkscape:window-height="1029"
     inkscape:window-x="0"
     inkscape:window-y="27"
     inkscape:window-maximized="1"
     inkscape:current-layer="svg27" /><path
     style="fill:#808080;stroke-width:0.0222344"
     d="m 23.332494,39.994194 c -0.678933,-0.04537 -0.873483,-0.06079 -1.123085,-0.08905 -2.170403,-0.245707 -4.28486,-0.938066 -6.171823,-2.020903 C 14.255727,36.861717 12.69004,35.511388 11.423949,33.905205 9.7163387,31.738904 8.5982131,29.169464 8.1784638,26.447128 8.0401175,25.54986 8,25.000175 8,24.001857 8,23.003539 8.0401173,22.453854 8.1784638,21.556586 9.0862815,15.668826 13.19934,10.771663 18.851273,8.8491426 21.901845,7.8114817 25.231308,7.7223664 28.330095,8.5954353 34.605826,10.363593 39.177741,15.739694 39.910135,22.212364 39.979317,22.823782 40,23.235626 40,24.001857 c 0,1.001343 -0.05098,1.657505 -0.200343,2.578649 -0.712158,4.391996 -3.256198,8.322314 -6.970977,10.769552 -2.272529,1.497106 -4.767717,2.360933 -7.516887,2.602331 -0.362702,0.03185 -1.704262,0.06018 -1.979299,0.04181 z M 19.2105,31.543295 c 0.09249,-0.117809 0.532564,-0.784919 0.65623,-0.994781 0.276583,-0.46936 0.37703,-0.67056 0.346732,-0.694518 -0.01531,-0.01211 -0.177946,-0.08511 -0.36142,-0.162229 -0.521833,-0.219349 -1.278761,-0.612135 -1.278761,-0.663575 0,-0.01602 0.280168,-0.241133 0.369478,-0.296874 0.01485,-0.0093 0.152632,0.0379 0.312254,0.106898 2.337732,1.010484 4.935304,1.26002 7.3689,0.707894 0.733614,-0.16644 1.460792,-0.405082 2.188524,-0.71822 l 0.264824,-0.113951 0.18431,0.139247 c 0.10137,0.07659 0.189464,0.15154 0.195764,0.166566 0.02541,0.06059 -0.95654,0.562328 -1.496004,0.764407 -0.07782,0.02915 -0.146403,0.06539 -0.152399,0.08054 -0.01327,0.03351 0.280389,0.565939 0.536749,0.973172 0.285571,0.45364 0.498086,0.744325 0.544161,0.744325 0.06015,0 0.831237,-0.264631 1.247881,-0.428265 0.835725,-0.328219 1.727775,-0.766312 2.468564,-1.212333 0.579583,-0.348961 1.284394,-0.832963 1.312388,-0.901235 0.02869,-0.06996 0.06396,-0.545209 0.08894,-1.198343 0.04611,-1.205774 -0.06055,-2.577073 -0.290054,-3.729015 -0.42877,-2.152128 -1.241042,-4.100452 -2.539367,-6.090948 -0.09171,-0.140603 -0.185696,-0.271648 -0.208861,-0.291212 -0.02316,-0.01957 -0.172214,-0.09137 -0.331225,-0.159575 -1.085797,-0.465713 -2.110173,-0.786565 -3.27621,-1.026163 -0.551809,-0.113387 -0.511152,-0.121483 -0.646051,0.128647 -0.06163,0.114279 -0.173343,0.341855 -0.248245,0.505727 -0.0749,0.163871 -0.14427,0.306289 -0.15415,0.316484 -0.0099,0.01019 -0.137103,0.0031 -0.282719,-0.0158 -0.69784,-0.0905 -1.075062,-0.111809 -1.9977,-0.112854 -0.928795,-0.0011 -1.15494,0.01099 -1.909798,0.101704 -0.206407,0.02481 -0.382483,0.03685 -0.39128,0.02675 -0.0088,-0.01009 -0.08788,-0.173395 -0.175737,-0.362903 -0.08786,-0.189509 -0.197673,-0.414585 -0.244031,-0.50017 -0.07325,-0.135222 -0.09324,-0.156496 -0.152577,-0.162388 -0.183159,-0.01818 -1.382289,0.26599 -2.208261,0.523321 -0.627262,0.195423 -1.789977,0.658907 -1.879443,0.749189 -0.06059,0.06114 -0.471475,0.704018 -0.705288,1.103504 -1.297833,2.217438 -2.047739,4.497362 -2.273369,6.911681 -0.08636,0.924107 -0.09366,1.871199 -0.02201,2.856521 0.03013,0.414397 0.03571,0.447241 0.08217,0.483557 0.104123,0.08139 0.772847,0.528738 1.032615,0.690781 0.85583,0.533864 1.988867,1.096532 2.889585,1.434973 0.36737,0.138038 1.014207,0.355398 1.062323,0.356979 0.02311,7.33e-4 0.05577,-0.01613 0.07257,-0.03752 z m 1.284449,-4.78536 c -0.381318,-0.05167 -0.757086,-0.252501 -1.044272,-0.558133 -0.221113,-0.235315 -0.38727,-0.542084 -0.480102,-0.88639 -0.0431,-0.159862 -0.05095,-0.243714 -0.05095,-0.544629 0,-0.300915 0.0078,-0.384767 0.05095,-0.544629 0.178177,-0.660848 0.630262,-1.170424 1.215056,-1.369574 0.255054,-0.08686 0.656936,-0.101152 0.92092,-0.03275 0.901302,0.233528 1.492476,1.156639 1.383561,2.160411 -0.107777,0.993279 -0.797506,1.719447 -1.692899,1.782337 -0.09174,0.0065 -0.227756,0.0035 -0.302264,-0.0067 z m 6.643308,-6.67e-4 c -0.837062,-0.112448 -1.492499,-0.850414 -1.579628,-1.778522 -0.08039,-0.856297 0.33538,-1.670808 1.031924,-2.021599 0.245517,-0.123646 0.476138,-0.177907 0.756137,-0.177907 0.790024,0 1.465823,0.539458 1.714026,1.368225 0.0802,0.267809 0.100841,0.753255 0.04395,1.033897 -0.07352,0.362666 -0.190619,0.627676 -0.397246,0.898993 -0.37002,0.485866 -0.992479,0.754386 -1.569164,0.676915 z"
     id="path178" /></svg>
