<?xml version="1.0" encoding="UTF-8" standalone="no"?>
<svg
   viewBox="0 0 64 63.999999"
   width="64"
   height="64"
   version="1.1"
   id="svg27"
   sodipodi:docname="discord.svg"
   inkscape:version="1.2.2 (b0a8486541, 2022-12-01)"
   xml:space="preserve"
   xmlns:inkscape="http://www.inkscape.org/namespaces/inkscape"
   xmlns:sodipodi="http://sodipodi.sourceforge.net/DTD/sodipodi-0.dtd"
   xmlns="http://www.w3.org/2000/svg"
   xmlns:svg="http://www.w3.org/2000/svg"><defs
     id="defs31" /><sodipodi:namedview
     id="namedview29"
     pagecolor="#ffffff"
     bordercolor="#666666"
     borderopacity="1.0"
     inkscape:showpageshadow="2"
     inkscape:pageopacity="0.0"
     inkscape:pagecheckerboard="true"
     inkscape:deskcolor="#d1d1d1"
     showgrid="false"
     inkscape:zoom="5.046875"
     inkscape:cx="37.944272"
     inkscape:cy="41.708978"
     inkscape:window-width="1920"
     inkscape:window-height="1029"
     inkscape:window-x="0"
     inkscape:window-y="27"
     inkscape:window-maximized="1"
     inkscape:current-layer="svg27" /><path
     style="fill:#808080;stroke-width:0.0333517"
     d="M 30.998741,55.99129 C 29.980342,55.92324 29.688516,55.900103 29.314113,55.857715 26.058509,55.489154 22.886823,54.450616 20.056379,52.82636 17.38359,51.292575 15.03506,49.267081 13.135923,46.857806 10.574508,43.608355 8.8973196,39.754195 8.2676957,35.670691 8.0601762,34.32479 8,33.500262 8,32.002785 8,30.505308 8.060176,29.680781 8.2676957,28.334879 9.6294222,19.503239 15.79901,12.157495 24.276909,9.2737138 28.852767,7.7172225 33.846962,7.5835496 38.495143,8.8931529 47.908739,11.54539 54.766612,19.609541 55.865203,29.318545 55.968976,30.235672 56,30.853438 56,32.002785 c 0,1.502014 -0.07647,2.486257 -0.300514,3.867974 -1.068238,6.587994 -4.884297,12.48347 -10.456466,16.154327 -3.408793,2.245659 -7.151575,3.5414 -11.275331,3.903496 -0.544053,0.04777 -2.556393,0.09027 -2.968948,0.06271 z M 24.81575,43.314942 c 0.138733,-0.176713 0.798846,-1.177378 0.984345,-1.492171 0.414874,-0.704041 0.565545,-1.00584 0.520098,-1.041777 -0.02296,-0.01816 -0.266919,-0.127661 -0.54213,-0.243344 -0.78275,-0.329024 -1.918141,-0.918202 -1.918141,-0.995363 0,-0.02403 0.420251,-0.361699 0.554216,-0.44531 0.02227,-0.0139 0.228948,0.05685 0.468382,0.160346 3.506597,1.515726 7.402956,1.89003 11.053349,1.061842 1.100421,-0.249661 2.191188,-0.607623 3.282787,-1.07733 l 0.397236,-0.170927 0.276464,0.20887 c 0.152055,0.114879 0.284196,0.227311 0.293646,0.249849 0.03811,0.09088 -1.434809,0.843492 -2.244006,1.146611 -0.116734,0.04373 -0.219604,0.09809 -0.228598,0.120812 -0.0199,0.05027 0.420584,0.848908 0.805123,1.459758 0.428357,0.68046 0.747129,1.116487 0.816242,1.116487 0.09022,0 1.246855,-0.396947 1.871822,-0.642397 1.253587,-0.492329 2.591662,-1.149468 3.702846,-1.8185 0.869374,-0.523441 1.92659,-1.249445 1.968582,-1.351852 0.04304,-0.104945 0.09594,-0.817814 0.13341,-1.797515 0.06917,-1.808661 -0.09083,-3.865609 -0.435081,-5.593523 -0.643155,-3.228191 -1.861564,-6.150678 -3.809051,-9.136421 -0.137566,-0.210905 -0.278544,-0.407473 -0.313291,-0.436819 -0.03474,-0.02935 -0.258322,-0.137058 -0.496838,-0.239362 -1.628695,-0.698569 -3.16526,-1.179847 -4.914315,-1.539245 -0.827713,-0.17008 -0.766728,-0.182224 -0.969077,0.192971 -0.09245,0.171418 -0.260014,0.512783 -0.372367,0.75859 -0.112354,0.245807 -0.216405,0.459434 -0.231225,0.474727 -0.01482,0.01529 -0.205655,0.0046 -0.424078,-0.0237 -1.04676,-0.135748 -1.612594,-0.167714 -2.996551,-0.169281 -1.393192,-0.0016 -1.732409,0.01649 -2.864697,0.152555 -0.30961,0.03721 -0.573724,0.05527 -0.58692,0.04013 -0.01319,-0.01513 -0.131818,-0.260093 -0.263605,-0.544355 -0.131788,-0.284263 -0.296509,-0.621877 -0.366047,-0.750254 -0.109871,-0.202834 -0.139853,-0.234744 -0.228865,-0.243582 -0.274738,-0.02727 -2.073433,0.398985 -3.312391,0.784981 -0.940893,0.293135 -2.684966,0.988361 -2.819165,1.123783 -0.09089,0.09171 -0.707213,1.056028 -1.057932,1.655256 -1.94675,3.326158 -3.071608,6.746044 -3.410053,10.367522 -0.129543,1.38616 -0.140492,2.806799 -0.03302,4.284781 0.0452,0.621596 0.05357,0.670862 0.123261,0.725336 0.156185,0.122081 1.159271,0.793107 1.548923,1.036171 1.283745,0.800797 2.9833,1.644798 4.334377,2.15246 0.551055,0.207057 1.52131,0.533097 1.593485,0.535468 0.03467,0.0011 0.08366,-0.02419 0.108852,-0.05628 z m 1.926673,-7.17804 c -0.571977,-0.0775 -1.135628,-0.378751 -1.566408,-0.8372 -0.331669,-0.352972 -0.580905,-0.813126 -0.720152,-1.329585 -0.06465,-0.239792 -0.07642,-0.36557 -0.07642,-0.816943 0,-0.451373 0.01177,-0.577151 0.07642,-0.816943 0.267265,-0.991272 0.945392,-1.755636 1.822584,-2.054362 0.382581,-0.130287 0.985404,-0.151727 1.381379,-0.04913 1.351953,0.350292 2.238715,1.734958 2.075342,3.240616 -0.161665,1.489918 -1.196259,2.57917 -2.539349,2.673505 -0.137606,0.0097 -0.341634,0.0052 -0.453396,-0.01 z m 9.964963,-10e-4 c -1.255593,-0.168673 -2.238749,-1.275622 -2.369443,-2.667784 -0.120581,-1.284445 0.50307,-2.506212 1.547887,-3.032398 0.368275,-0.185469 0.714206,-0.266861 1.134205,-0.266861 1.185036,0 2.198734,0.809187 2.571039,2.052338 0.120307,0.401714 0.151262,1.129882 0.06593,1.550845 -0.110276,0.544 -0.285929,0.941515 -0.595869,1.34849 -0.55503,0.728799 -1.488719,1.131579 -2.353746,1.015372 z"
     id="path178" /></svg>
