<?xml version="1.0" encoding="UTF-8" standalone="no"?>
<svg
	xmlns="http://www.w3.org/2000/svg"
	width="48"
	height="48"
	viewBox="0 0 48 48">
	<path
		d="M23.332 39.994c-.678-.045-.873-.06-1.123-.089a16.032 16.032 0 0 1-10.785-6 15.983 15.983 0 0 1-3.246-7.458C8.04 25.55 8 25 8 24.002c0-.998.04-1.548.178-2.445A16.006 16.006 0 0 1 28.33 8.595a16.012 16.012 0 0 1 11.58 13.617c.07.612.09 1.024.09 1.79 0 1.001-.051 1.657-.2 2.579a16.006 16.006 0 0 1-6.971 10.77c-2.273 1.496-4.768 2.36-7.517 2.601-.363.032-1.704.06-1.98.042zm-4.122-8.45c.093-.119.533-.786.657-.995.276-.47.377-.671.346-.695a4.841 4.841 0 0 0-.361-.162c-.522-.22-1.279-.612-1.279-.664 0-.016.28-.24.37-.297.015-.009.152.038.312.107 2.338 1.01 4.935 1.26 7.369.708.734-.166 1.46-.405 2.188-.718l.265-.114.185.14c.1.076.189.15.195.166.026.06-.956.562-1.496.764-.077.03-.146.066-.152.08-.013.034.28.567.537.974.285.454.498.744.544.744.06 0 .831-.264 1.248-.428a17.109 17.109 0 0 0 2.468-1.212c.58-.35 1.285-.833 1.313-.902.028-.07.064-.545.089-1.198a16.768 16.768 0 0 0-.29-3.729c-.43-2.152-1.241-4.1-2.54-6.09a2.646 2.646 0 0 0-.209-.292 2.723 2.723 0 0 0-.33-.16 16.431 16.431 0 0 0-3.277-1.026c-.552-.113-.511-.121-.646.129-.062.114-.173.342-.248.505a4.087 4.087 0 0 1-.155.317c-.01.01-.137.003-.282-.016-.698-.09-1.075-.112-1.998-.113-.929 0-1.155.011-1.91.102-.206.025-.382.037-.391.027a6.673 6.673 0 0 1-.176-.363c-.088-.19-.197-.415-.244-.5-.073-.136-.093-.157-.152-.163-.184-.018-1.383.266-2.209.524-.627.195-1.79.659-1.88.749-.06.061-.47.704-.704 1.103-1.298 2.218-2.048 4.498-2.274 6.912a17.19 17.19 0 0 0-.022 2.857c.03.414.036.447.082.483.105.081.773.529 1.033.69a17.828 17.828 0 0 0 2.89 1.436c.367.138 1.014.355 1.062.357a.103.103 0 0 0 .073-.038zm1.285-4.786a1.791 1.791 0 0 1-1.044-.558 2.086 2.086 0 0 1-.48-.887c-.044-.16-.051-.243-.051-.544 0-.301.007-.385.05-.545.179-.66.63-1.17 1.216-1.37a1.85 1.85 0 0 1 .92-.032c.902.233 1.493 1.156 1.384 2.16-.108.994-.797 1.72-1.693 1.783a1.784 1.784 0 0 1-.302-.007zm6.643 0c-.837-.113-1.492-.851-1.58-1.78-.08-.856.336-1.67 1.033-2.02.245-.124.476-.179.756-.179.79 0 1.466.54 1.714 1.368.08.268.1.754.044 1.034-.074.363-.191.628-.398.9-.37.485-.992.754-1.569.676z"
		style="fill:#808080" />
</svg>