<?xml version="1.0" encoding="UTF-8" standalone="no"?>
<svg
	xmlns="http://www.w3.org/2000/svg"
	width="48"
	height="48"
	viewBox="0 0 48 48">
	<path
		d="m 31,22 q 1.25,0 2.125,-0.875 Q 34,20.25 34,19 34,17.75 33.125,16.875 32.25,16 31,16 29.75,16 28.875,16.875 28,17.75 28,19 28,20.25 28.875,21.125 29.75,22 31,22 Z m -14,0 q 1.25,0 2.125,-0.875 Q 20,20.25 20,19 20,17.75 19.125,16.875 18.25,16 17,16 15.75,16 14.875,16.875 14,17.75 14,19 14,20.25 14.875,21.125 15.75,22 17,22 Z m 7,13 q 3.4,0 6.175,-1.925 Q 32.95,31.15 34.2,28 H 13.8 q 1.25,3.15 4.025,5.075 Q 20.6,35 24,35 Z m 0,9 Q 19.85,44 16.2,42.425 12.55,40.85 9.85,38.15 7.15,35.45 5.575,31.8 4,28.15 4,24 4,19.85 5.575,16.2 7.15,12.55 9.85,9.85 12.55,7.15 16.2,5.575 19.85,4 24,4 q 4.15,0 7.8,1.575 3.65,1.575 6.35,4.275 2.7,2.7 4.275,6.35 Q 44,19.85 44,24 q 0,4.15 -1.575,7.8 -1.575,3.65 -4.275,6.35 -2.7,2.7 -6.35,4.275 Q 28.15,44 24,44 Z m 0,-20 z m 0,16 Q 30.7,40 35.35,35.35 40,30.7 40,24 40,17.3 35.35,12.65 30.7,8 24,8 17.3,8 12.65,12.65 8,17.3 8,24 8,30.7 12.65,35.35 17.3,40 24,40 Z"
		style="fill:#ffffff" />
</svg>