<?xml version="1.0" encoding="UTF-8" standalone="no"?>
<svg
	xmlns="http://www.w3.org/2000/svg"
	width="48"
	height="48"
	viewBox="0 0 48 48">
	<path
		d="M 2,40 V 34.4 Q 2,32.7 2.875,31.275 3.75,29.85 5.2,29.1 8.3,27.55 11.5,26.775 14.7,26 18,26 q 3.3,0 6.5,0.775 3.2,0.775 6.3,2.325 1.45,0.75 2.325,2.175 Q 34,32.7 34,34.4 V 40 Z m 36,0 V 34 Q 38,31.8 36.775,29.775 35.55,27.75 33.3,26.3 q 2.55,0.3 4.8,1.025 2.25,0.725 4.2,1.775 1.8,1 2.75,2.225 Q 46,32.55 46,34 v 6 z M 18,24 Q 14.7,24 12.35,21.65 10,19.3 10,16 10,12.7 12.35,10.35 14.7,8 18,8 21.3,8 23.65,10.35 26,12.7 26,16 26,19.3 23.65,21.65 21.3,24 18,24 Z m 20,-8 q 0,3.3 -2.35,5.65 Q 33.3,24 30,24 29.45,24 28.6,23.875 27.75,23.75 27.2,23.6 28.55,22 29.275,20.05 30,18.1 30,16 30,13.9 29.275,11.95 28.55,10 27.2,8.4 27.9,8.15 28.6,8.075 29.3,8 30,8 33.3,8 35.65,10.35 38,12.7 38,16 Z"
		style="fill:#303030" />
</svg>