<?xml version="1.0" encoding="UTF-8" standalone="no"?>
<svg
	xmlns="http://www.w3.org/2000/svg"
	width="48"
	height="48"
	viewBox="0 0 48 48">
	<path
		d="m 9.425,40 q -3,0 -5.125,-2.15 -2.125,-2.15 -2.225,-5.2 0,-0.45 0.05,-0.9 0.05,-0.45 0.15,-0.9 l 4.2,-16.8 q 0.7,-2.7 2.85,-4.375 Q 11.475,8 14.225,8 h 19.5 q 2.75,0 4.9,1.675 2.15,1.675 2.85,4.375 l 4.2,16.8 q 0.1,0.45 0.175,0.925 0.075,0.475 0.075,0.925 0,3.05 -2.175,5.175 Q 41.575,40 38.525,40 q -2.1,0 -3.9,-1.1 -1.8,-1.1 -2.7,-3 L 30.525,33 Q 30.275,32.5 29.775,32.25 29.275,32 28.725,32 h -9.5 q -0.55,0 -1.05,0.25 -0.5,0.25 -0.75,0.75 l -1.4,2.9 q -0.9,1.9 -2.7,3 -1.8,1.1 -3.9,1.1 z M 26.975,22 Q 27.825,22 28.4,21.425 28.975,20.85 28.975,20 28.975,19.15 28.4,18.575 27.825,18 26.975,18 26.125,18 25.55,18.575 24.975,19.15 24.975,20 q 0,0.85 0.575,1.425 Q 26.125,22 26.975,22 Z m 4,-4 Q 31.825,18 32.4,17.425 32.975,16.85 32.975,16 32.975,15.15 32.4,14.575 31.825,14 30.975,14 30.125,14 29.55,14.575 28.975,15.15 28.975,16 q 0,0.85 0.575,1.425 Q 30.125,18 30.975,18 Z m 0,8 Q 31.825,26 32.4,25.425 32.975,24.85 32.975,24 32.975,23.15 32.4,22.575 31.825,22 30.975,22 30.125,22 29.55,22.575 28.975,23.15 28.975,24 q 0,0.85 0.575,1.425 Q 30.125,26 30.975,26 Z m 4,-4 Q 35.825,22 36.4,21.425 36.975,20.85 36.975,20 36.975,19.15 36.4,18.575 35.825,18 34.975,18 34.125,18 33.55,18.575 32.975,19.15 32.975,20 q 0,0.85 0.575,1.425 Q 34.125,22 34.975,22 Z m -18,3 q 0.65,0 1.075,-0.425 0.425,-0.425 0.425,-1.075 v -2 h 2 q 0.65,0 1.075,-0.425 0.425,-0.425 0.425,-1.075 0,-0.65 -0.425,-1.075 Q 21.125,18.5 20.475,18.5 h -2 v -2 q 0,-0.65 -0.425,-1.075 Q 17.625,15 16.975,15 16.325,15 15.9,15.425 15.475,15.85 15.475,16.5 v 2 h -2 q -0.65,0 -1.075,0.425 -0.425,0.425 -0.425,1.075 0,0.65 0.425,1.075 0.425,0.425 1.075,0.425 h 2 v 2 q 0,0.65 0.425,1.075 Q 16.325,25 16.975,25 Z"
		style="fill:#808080" />
</svg>