<?xml version="1.0" encoding="UTF-8" standalone="no"?>
<svg
	xmlns="http://www.w3.org/2000/svg"
	width="48"
	height="48"
	viewBox="0 0 48 48">
	<path
		d="M20.794 8.26c-4.25.973-7.735 3.391-10.132 7.054-4.195 6.452-3.359 15.107 1.993 20.629 1.603 1.66 4.042 3.262 5.882 3.877.683.23.766.23 1.073.014.334-.23.348-.286.348-1.931v-1.688l-1.226.07c-1.436.07-2.55-.189-3.22-.772-.236-.203-.696-.887-1.017-1.517-.53-1.059-.92-1.545-2.007-2.532-.362-.328-.376-.342-.126-.531.6-.461 1.812-.014 2.579.93 1.338 1.673 1.854 2.117 2.62 2.288.683.14 1.31.084 2.258-.202.125-.043.293-.343.376-.685.084-.329.306-.83.488-1.102l.334-.503-1.129-.23c-2.37-.504-3.833-1.374-4.794-2.862-.892-1.373-1.185-2.56-1.199-4.778 0-2.09.223-2.948 1.101-4.12.39-.518.432-.671.32-.973-.208-.517-.153-2.69.07-3.348.182-.49.279-.573.656-.615.627-.07 1.798.342 2.982 1.03l1.018.601.892-.216c1.268-.3 5.073-.287 6.216 0l.864.23.808-.503c1.073-.657 2.44-1.173 3.122-1.173.544 0 .544.014.767.743.236.844.278 2.375.07 3.105-.112.426-.085.559.222.973 1.52 2.06 1.687 5.479.404 8.283-.864 1.846-2.69 3.133-5.143 3.605l-1.17.23.432.787.446.801.042 3.19.056 3.191.348.23c.32.218.39.218 1.06-.028 1.114-.384 3.024-1.444 4.07-2.26 6.215-4.778 8.222-13.348 4.78-20.472-2.021-4.192-5.84-7.41-10.216-8.612-1.91-.517-5.506-.63-7.317-.217Z"
		style="fill:#808080" />
</svg>