<?xml version="1.0" encoding="UTF-8" standalone="no"?>
<svg
	xmlns="http://www.w3.org/2000/svg"
	width="48"
	height="48"
	viewBox="0 0 48 48">
	<path
		d="m 20.794414,8.2606226 c -4.250867,0.972871 -7.735185,3.3903714 -10.132399,7.0529654 -4.1951181,6.452256 -3.3588791,15.107243 1.993056,20.629404 1.602811,1.659192 4.04179,3.261773 5.881518,3.876806 0.683055,0.230638 0.76657,0.230638 1.073157,0.01426 0.334351,-0.230637 0.348702,-0.28655 0.348702,-1.931065 v -1.687846 l -1.226486,0.06989 c -1.435562,0.0699 -2.550549,-0.188703 -3.219541,-0.772286 -0.236773,-0.202681 -0.696687,-0.886906 -1.017406,-1.516616 -0.529512,-1.058836 -0.919829,-1.545271 -2.006976,-2.53212 -0.362335,-0.328484 -0.375967,-0.342462 -0.125562,-0.531165 0.599108,-0.461275 1.811817,-0.01426 2.578388,0.929539 1.337984,1.673869 1.853647,2.117671 2.620218,2.288902 0.683055,0.13978 1.310073,0.08386 2.257812,-0.202682 0.125561,-0.04291 0.292737,-0.342461 0.375967,-0.684922 0.08394,-0.328484 0.30637,-0.829597 0.487896,-1.10147 l 0.334352,-0.503209 -1.128905,-0.230637 c -2.369311,-0.503209 -3.832784,-1.373342 -4.794442,-2.861304 -0.891989,-1.373341 -1.184654,-2.560775 -1.198646,-4.778389 0,-2.089016 0.223141,-2.947268 1.101066,-4.120025 0.390317,-0.517187 0.431933,-0.670944 0.320721,-0.97287 -0.208791,-0.517188 -0.153544,-2.689372 0.06969,-3.347737 0.181526,-0.489231 0.278388,-0.573099 0.655072,-0.615033 0.62709,-0.06989 1.797898,0.342462 2.982553,1.030181 l 1.017406,0.601055 0.891989,-0.21666 c 1.268316,-0.300527 5.073187,-0.286549 6.216013,0 l 0.864078,0.230638 0.80833,-0.503209 c 1.073156,-0.656968 2.43905,-1.173456 3.121961,-1.173456 0.54386,0 0.54386,0.01426 0.766571,0.743631 0.236773,0.844273 0.278388,2.374868 0.06969,3.104519 -0.111213,0.42633 -0.08394,0.559122 0.22314,0.972871 1.519151,2.060362 1.686398,5.479388 0.403949,8.283241 -0.864078,1.845799 -2.689886,3.133176 -5.142856,3.604935 l -1.170736,0.230638 0.431931,0.786962 0.446282,0.800942 0.04181,3.190484 0.05575,3.190485 0.348703,0.230638 c 0.320719,0.21666 0.390316,0.21666 1.059236,-0.02859 1.114987,-0.384395 3.024382,-1.444629 4.0697,-2.260247 6.216013,-4.778389 8.222989,-13.347621 4.78045,-20.472083 C 36.306721,12.887981 32.48793,9.6694002 28.111601,8.4677096 26.202204,7.9505215 22.606411,7.8386974 20.794537,8.2510497 Z"
		style="fill:#808080" />
</svg>