<?xml version="1.0" encoding="UTF-8" standalone="no"?>
<svg
	xmlns="http://www.w3.org/2000/svg"
	width="48"
	height="48"
	viewBox="0 0 48 48">
	<path
		d="M 24,44 Q 19.9,44 16.25,42.425 12.6,40.85 9.875,38.125 7.15,35.4 5.575,31.75 4,28.1 4,24 4,19.85 5.575,16.225 7.15,12.6 9.875,9.875 12.6,7.15 16.25,5.575 19.9,4 24,4 q 4.15,0 7.775,1.575 3.625,1.575 6.35,4.3 2.725,2.725 4.3,6.35 Q 44,19.85 44,24 q 0,4.1 -1.575,7.75 -1.575,3.65 -4.3,6.375 -2.725,2.725 -6.35,4.3 Q 28.15,44 24,44 Z m 0,-4.1 Q 25.3,38.1 26.25,36.15 27.2,34.2 27.8,32 h -7.6 q 0.6,2.2 1.55,4.15 Q 22.7,38.1 24,39.9 Z M 18.8,39.1 Q 17.9,37.45 17.225,35.675 16.55,33.9 16.1,32 h -5.9 q 1.45,2.5 3.625,4.35 Q 16,38.2 18.8,39.1 Z m 10.4,0 Q 32,38.2 34.175,36.35 36.35,34.5 37.8,32 H 31.9 Q 31.45,33.9 30.775,35.675 30.1,37.45 29.2,39.1 Z M 8.5,28 h 6.8 Q 15.15,27 15.075,26.025 15,25.05 15,24 15,22.95 15.075,21.975 15.15,21 15.3,20 H 8.5 Q 8.25,21 8.125,21.975 8,22.95 8,24 8,25.05 8.125,26.025 8.25,27 8.5,28 Z m 10.8,0 h 9.4 Q 28.85,27 28.925,26.025 29,25.05 29,24 29,22.95 28.925,21.975 28.85,21 28.7,20 H 19.3 Q 19.15,21 19.075,21.975 19,22.95 19,24 19,25.05 19.075,26.025 19.15,27 19.3,28 Z m 13.4,0 h 6.8 Q 39.75,27 39.875,26.025 40,25.05 40,24 40,22.95 39.875,21.975 39.75,21 39.5,20 h -6.8 q 0.15,1 0.225,1.975 Q 33,22.95 33,24 33,25.05 32.925,26.025 32.85,27 32.7,28 Z M 31.9,16 h 5.9 Q 36.35,13.5 34.175,11.65 32,9.8 29.2,8.9 30.1,10.55 30.775,12.325 31.45,14.1 31.9,16 Z m -11.7,0 h 7.6 Q 27.2,13.8 26.25,11.85 25.3,9.9 24,8.1 22.7,9.9 21.75,11.85 20.8,13.8 20.2,16 Z m -10,0 h 5.9 Q 16.55,14.1 17.225,12.325 17.9,10.55 18.8,8.9 16,9.8 13.825,11.65 11.65,13.5 10.2,16 Z"
		style="fill:#303030" />
</svg>