<?xml version="1.0" encoding="UTF-8" standalone="no"?>
<svg
   viewBox="0 0 128 128"
   version="1.1"
   id="svg16"
   sodipodi:docname="1534129544.svg"
   inkscape:version="1.1.2 (0a00cf5339, 2022-02-04)"
   width="128"
   height="128"
   xmlns:inkscape="http://www.inkscape.org/namespaces/inkscape"
   xmlns:sodipodi="http://sodipodi.sourceforge.net/DTD/sodipodi-0.dtd"
   xmlns:xlink="http://www.w3.org/1999/xlink"
   xmlns="http://www.w3.org/2000/svg"
   xmlns:svg="http://www.w3.org/2000/svg">
  <sodipodi:namedview
     id="namedview18"
     pagecolor="#ffffff"
     bordercolor="#666666"
     borderopacity="1.0"
     inkscape:pageshadow="2"
     inkscape:pageopacity="0.0"
     inkscape:pagecheckerboard="true"
     showgrid="false"
     borderlayer="true"
     inkscape:zoom="4"
     inkscape:cx="136.625"
     inkscape:cy="63.5"
     inkscape:window-width="1920"
     inkscape:window-height="1029"
     inkscape:window-x="0"
     inkscape:window-y="27"
     inkscape:window-maximized="1"
     inkscape:current-layer="svg16" />
  <defs
     id="defs3">
    <path
       id="a"
       d="M 44.5,20 H 24 v 8.5 H 35.8 C 34.7,33.9 30.1,37 24,37 16.8,37 11,31.2 11,24 c 0,-7.2 5.8,-13 13,-13 3.1,0 5.9,1.1 8.1,2.9 L 38.5,7.5 C 34.6,4.1 29.6,2 24,2 11.8,2 2,11.8 2,24 c 0,12.2 9.8,22 22,22 11,0 21,-8 21,-22 0,-1.3 -0.2,-2.7 -0.5,-4 z" />
  </defs>
  <clipPath
     id="b">
    <use
       xlink:href="#a"
       overflow="visible"
       id="use5"
       x="0"
       y="0"
       width="100%"
       height="100%" />
  </clipPath>
  <g
     id="g44"
     transform="matrix(2.2325581,0,0,2.1818182,11.534884,11.636364)">
    <path
       clip-path="url(#b)"
       fill="#fbbc05"
       d="M 0,37 V 11 l 17,13 z"
       id="path8" />
    <path
       clip-path="url(#b)"
       fill="#ea4335"
       d="M 0,11 17,24 24,17.9 48,14 V 0 H 0 Z"
       id="path10" />
    <path
       clip-path="url(#b)"
       fill="#34a853"
       d="M 0,37 30,14 37.9,15 48,0 V 48 H 0 Z"
       id="path12" />
    <path
       clip-path="url(#b)"
       fill="#4285f4"
       d="M 48,48 17,24 13,21 48,11 Z"
       id="path14" />
  </g>
</svg>
