<?xml version="1.0" encoding="UTF-8" standalone="no"?>
<svg
	xmlns="http://www.w3.org/2000/svg"
	width="48"
	height="48"
	viewBox="0 0 48 48">
	<path
		d="M 0,36 V 32.85 Q 0,30.7 2.2,29.35 4.4,28 8,28 8.65,28 9.25,28.025 9.85,28.05 10.4,28.15 9.7,29.2 9.35,30.35 9,31.5 9,32.75 V 36 Z m 12,0 v -3.25 q 0,-1.6 0.875,-2.925 Q 13.75,28.5 15.35,27.5 16.95,26.5 19.175,26 21.4,25.5 24,25.5 q 2.65,0 4.875,0.5 2.225,0.5 3.825,1.5 1.6,1 2.45,2.325 Q 36,31.15 36,32.75 V 36 Z m 27,0 V 32.75 Q 39,31.45 38.675,30.3 38.35,29.15 37.7,28.15 38.25,28.05 38.825,28.025 39.4,28 40,28 43.6,28 45.8,29.325 48,30.65 48,32.85 V 36 Z M 8,26 Q 6.35,26 5.175,24.825 4,23.65 4,22 4,20.3 5.175,19.15 6.35,18 8,18 9.7,18 10.85,19.15 12,20.3 12,22 12,23.65 10.85,24.825 9.7,26 8,26 Z m 32,0 Q 38.35,26 37.175,24.825 36,23.65 36,22 36,20.3 37.175,19.15 38.35,18 40,18 41.7,18 42.85,19.15 44,20.3 44,22 44,23.65 42.85,24.825 41.7,26 40,26 Z M 24,24 Q 21.5,24 19.75,22.25 18,20.5 18,18 18,15.45 19.75,13.725 21.5,12 24,12 26.55,12 28.275,13.725 30,15.45 30,18 30,20.5 28.275,22.25 26.55,24 24,24 Z"
		style="fill:#808080" />
</svg>