<?xml version="1.0" encoding="UTF-8" standalone="no"?>
<svg
	xmlns="http://www.w3.org/2000/svg"
	width="48"
	height="48"
	viewBox="0 0 48 48">
	<path
		d="m 22,34 h 4 V 22 h -4 z m 2,-16 q 0.85,0 1.425,-0.575 Q 26,16.85 26,16 26,15.15 25.425,14.575 24.85,14 24,14 23.15,14 22.575,14.575 22,15.15 22,16 22,16.85 22.575,17.425 23.15,18 24,18 Z m 0,26 Q 19.85,44 16.2,42.425 12.55,40.85 9.85,38.15 7.15,35.45 5.575,31.8 4,28.15 4,24 4,19.85 5.575,16.2 7.15,12.55 9.85,9.85 12.55,7.15 16.2,5.575 19.85,4 24,4 q 4.15,0 7.8,1.575 3.65,1.575 6.35,4.275 2.7,2.7 4.275,6.35 Q 44,19.85 44,24 q 0,4.15 -1.575,7.8 -1.575,3.65 -4.275,6.35 -2.7,2.7 -6.35,4.275 Q 28.15,44 24,44 Z m 0,-4 Q 30.7,40 35.35,35.35 40,30.7 40,24 40,17.3 35.35,12.65 30.7,8 24,8 17.3,8 12.65,12.65 8,17.3 8,24 8,30.7 12.65,35.35 17.3,40 24,40 Z m 0,-16 z"
		style="fill:#303030" />
</svg>