<?xml version="1.0" encoding="UTF-8" standalone="no"?>
<svg
	xmlns="http://www.w3.org/2000/svg"
	width="48"
	height="48"
	viewBox="0 0 48 48">
	<path
		d="M24 8C15.163 8 8 15.163 8 24s7.163 16 16 16 16-7.163 16-16S32.837 8 24 8Zm-.001 7.466H24c2.315 0 2.606.01 3.516.052.908.042 1.529.185 2.073.396a4.17 4.17 0 0 1 1.51.984c.475.475.767.95.986 1.512.21.543.353 1.163.396 2.072.04.91.052 1.2.052 3.518 0 2.318-.011 2.608-.052 3.518-.043.908-.186 1.528-.396 2.07A4.192 4.192 0 0 1 31.1 31.1c-.474.475-.95.768-1.51.986-.543.21-1.163.354-2.072.396-.91.041-1.2.052-3.518.052-2.317 0-2.608-.01-3.518-.052-.908-.042-1.529-.185-2.072-.396a4.183 4.183 0 0 1-1.512-.986 4.182 4.182 0 0 1-.984-1.511c-.21-.543-.354-1.162-.396-2.07-.041-.911-.052-1.201-.052-3.519s.011-2.608.052-3.518c.041-.908.185-1.529.396-2.072a4.192 4.192 0 0 1 .986-1.512 4.18 4.18 0 0 1 1.511-.984c.543-.21 1.162-.354 2.07-.396.91-.041 1.204-.052 3.518-.052zm-.763 1.537c-1.59.001-1.897.012-2.684.048-.832.038-1.284.177-1.585.294-.398.155-.681.34-.98.638a2.648 2.648 0 0 0-.64.982c-.116.3-.254.752-.292 1.584-.041.9-.05 1.168-.05 3.447s.009 2.548.05 3.448c.038.832.176 1.284.293 1.585.155.398.34.681.639.98.299.299.582.483.98.638.301.117.753.256 1.585.294.9.041 1.17.051 3.45.051 2.278 0 2.548-.01 3.447-.05.832-.039 1.284-.176 1.585-.294.398-.154.682-.34.98-.639.299-.298.484-.582.638-.98.117-.3.257-.752.295-1.584.04-.9.05-1.169.05-3.446 0-2.278-.01-2.549-.05-3.448-.038-.832-.178-1.283-.295-1.584a2.648 2.648 0 0 0-.638-.981 2.638 2.638 0 0 0-.98-.638c-.3-.117-.753-.257-1.585-.295-.9-.04-1.17-.05-3.448-.05h-.765zm5.32 1.419a1.023 1.023 0 1 1 0 2.046 1.023 1.023 0 0 1 0-2.046zm-4.555 1.195A4.382 4.382 0 1 1 24 28.382 4.382 4.382 0 0 1 24 19.617zm0 1.54A2.844 2.844 0 1 0 24 26.844 2.844 2.844 0 0 0 24 21.156z"
		style="fill:#808080" />
</svg>