<?xml version="1.0" encoding="UTF-8" standalone="no"?>
<svg
	xmlns="http://www.w3.org/2000/svg"
	width="48"
	height="48"
	viewBox="0 0 48 48">
	<path
		d="M 24,8 C 15.163475,8 8,15.163475 8,24 8,32.836525 15.163475,40 24,40 32.836525,40 40,32.836525 40,24 40,15.163475 32.836525,8 24,8 Z m -0.0013,7.466146 H 24 24.0013 c 2.314636,1.1e-5 2.605878,0.01071 3.515626,0.05209 0.908465,0.0416 1.52885,0.184833 2.072916,0.395833 0.561733,0.217799 1.03575,0.509709 1.510417,0.984375 0.474666,0.474333 0.767011,0.950452 0.985677,1.511718 0.2098,0.5426 0.353166,1.16315 0.395833,2.071615 0.04087,0.910266 0.05209,1.200698 0.05209,3.518229 0,2.317532 -0.01121,2.607964 -0.05209,3.51823 -0.04267,0.908065 -0.186033,1.527512 -0.395833,2.070312 -0.218666,0.561066 -0.511011,1.037386 -0.985677,1.511719 -0.474133,0.474666 -0.949351,0.767677 -1.510417,0.985677 -0.543,0.211 -1.163216,0.354233 -2.071614,0.395833 -0.910266,0.04147 -1.200498,0.05209 -3.51823,0.05209 -2.317331,0 -2.607963,-0.01062 -3.518229,-0.05209 -0.908265,-0.0416 -1.528681,-0.184833 -2.071615,-0.395833 -0.560932,-0.218 -1.037585,-0.511011 -1.511718,-0.985677 -0.474533,-0.474333 -0.766242,-0.950453 -0.984375,-1.511719 -0.210867,-0.5426 -0.354033,-1.161847 -0.395833,-2.070312 -0.0412,-0.9102 -0.05209,-1.200698 -0.05209,-3.51823 0,-2.317531 0.01135,-2.607963 0.05209,-3.518229 0.04087,-0.908065 0.1843,-1.528815 0.395833,-2.071615 0.218666,-0.561066 0.511011,-1.037385 0.985677,-1.511718 0.474333,-0.474466 0.950452,-0.766442 1.511719,-0.984375 0.542599,-0.211 1.161847,-0.354233 2.070312,-0.395833 0.909681,-0.04137 1.20302,-0.05207 3.516927,-0.05209 z m -0.763021,1.536458 c -1.590399,0.0018 -1.896395,0.01265 -2.683594,0.04818 -0.831999,0.0382 -1.283836,0.176937 -1.584635,0.294271 -0.398267,0.155066 -0.681803,0.339354 -0.980469,0.63802 -0.298667,0.298667 -0.484657,0.583572 -0.639323,0.981772 -0.1168,0.300799 -0.254969,0.752636 -0.292969,1.584635 -0.04093,0.899532 -0.04948,1.167817 -0.04948,3.446615 0,2.278797 0.0085,2.548317 0.04948,3.447916 0.03787,0.831999 0.176169,1.284169 0.292969,1.584636 0.155,0.398399 0.340656,0.681802 0.639323,0.980468 0.298666,0.298666 0.582202,0.483354 0.980469,0.638021 0.300932,0.1168 0.752636,0.255871 1.584635,0.294271 0.899533,0.04087 1.170621,0.05078 3.449219,0.05078 2.278398,0 2.548384,-0.0099 3.447916,-0.05078 0.832,-0.03807 1.28417,-0.175636 1.584636,-0.292969 0.3984,-0.154667 0.681802,-0.340657 0.980468,-0.639323 0.298667,-0.298533 0.483355,-0.582202 0.638022,-0.980468 0.116799,-0.3004 0.256204,-0.751334 0.29427,-1.583334 0.04087,-0.899532 0.04948,-1.169284 0.04948,-3.446614 0,-2.277332 -0.0086,-2.548384 -0.04948,-3.447917 -0.03787,-0.831999 -0.177471,-1.282934 -0.29427,-1.583333 -0.155,-0.398267 -0.339355,-0.683105 -0.638022,-0.981771 -0.298466,-0.298667 -0.582268,-0.483355 -0.980468,-0.638021 -0.3008,-0.1168 -0.752636,-0.256204 -1.584636,-0.294271 -0.899732,-0.04087 -1.169518,-0.04948 -3.447916,-0.04948 -0.2848,0 -0.538426,-3.33e-4 -0.765625,0 z m 5.320312,1.419271 c 0.565333,0 1.023438,0.458105 1.023438,1.023438 0,0.565332 -0.458105,1.023437 -1.023438,1.023437 -0.565333,0 -1.024739,-0.458105 -1.024739,-1.023437 0,-0.565466 0.459406,-1.023438 1.024739,-1.023438 z m -4.554687,1.195312 c 2.42013,0 4.38151,1.962749 4.38151,4.382813 0,2.420131 -1.96138,4.381511 -4.38151,4.381511 -2.420131,0 -4.382813,-1.96138 -4.382813,-4.381511 0,-2.420064 1.962682,-4.382813 4.382813,-4.382813 z m 0,1.539063 c -1.571066,0 -2.845052,1.272751 -2.845052,2.84375 0,1.570865 1.273986,2.845052 2.845052,2.845052 1.570865,0 2.84375,-1.274187 2.84375,-2.845052 0,-1.570999 -1.272885,-2.84375 -2.84375,-2.84375 z"
		style="fill:#808080" />
</svg>