<?xml version="1.0" encoding="UTF-8" standalone="no"?>
<svg
	xmlns="http://www.w3.org/2000/svg"
	width="48"
	height="48"
	viewBox="0 0 48 48">
	<path
		d="M 22,34 H 14 Q 9.85,34 6.925,31.075 4,28.15 4,24 4,19.85 6.925,16.925 9.85,14 14,14 h 8 v 4 H 14 Q 11.5,18 9.75,19.75 8,21.5 8,24 8,26.5 9.75,28.25 11.5,30 14,30 h 8 z m -6,-8 v -4 h 16 v 4 z m 10,8 v -4 h 8 q 2.5,0 4.25,-1.75 Q 40,26.5 40,24 40,21.5 38.25,19.75 36.5,18 34,18 h -8 v -4 h 8 q 4.15,0 7.075,2.925 Q 44,19.85 44,24 44,28.15 41.075,31.075 38.15,34 34,34 Z"
		style="fill:#303030" />
</svg>