<?xml version="1.0" encoding="UTF-8" standalone="no"?>
<svg
	xmlns="http://www.w3.org/2000/svg"
	width="48"
	height="48"
	viewBox="0 0 48 48">
	<path
		d="M 12,16 H 30 V 12 Q 30,9.5 28.25,7.75 26.5,6 24,6 21.5,6 19.75,7.75 18,9.5 18,12 H 14 Q 14,7.85 16.925,4.925 19.85,2 24,2 28.15,2 31.075,4.925 34,7.85 34,12 v 4 h 2 q 1.65,0 2.825,1.175 Q 40,18.35 40,20 v 20 q 0,1.65 -1.175,2.825 Q 37.65,44 36,44 H 12 Q 10.35,44 9.175,42.825 8,41.65 8,40 V 20 Q 8,18.35 9.175,17.175 10.35,16 12,16 Z m 0,24 H 36 V 20 H 12 Z m 12,-6 q 1.65,0 2.825,-1.175 Q 28,31.65 28,30 28,28.35 26.825,27.175 25.65,26 24,26 22.35,26 21.175,27.175 20,28.35 20,30 20,31.65 21.175,32.825 22.35,34 24,34 Z M 12,40 V 20 Z"
		style="fill:#ffffff" />
</svg>