<?xml version="1.0" encoding="UTF-8" standalone="no"?>
<svg
   width="64"
   height="64"
   viewBox="0 0 64 64"
   version="1.1"
   id="svg5"
   inkscape:version="1.2.2 (b0a8486541, 2022-12-01)"
   sodipodi:docname="logo2.svg"
   inkscape:export-filename="logo2.png"
   inkscape:export-xdpi="192"
   inkscape:export-ydpi="192"
   xml:space="preserve"
   xmlns:inkscape="http://www.inkscape.org/namespaces/inkscape"
   xmlns:sodipodi="http://sodipodi.sourceforge.net/DTD/sodipodi-0.dtd"
   xmlns="http://www.w3.org/2000/svg"
   xmlns:svg="http://www.w3.org/2000/svg"
   xmlns:rdf="http://www.w3.org/1999/02/22-rdf-syntax-ns#"
   xmlns:cc="http://creativecommons.org/ns#"
   xmlns:dc="http://purl.org/dc/elements/1.1/"><title
     id="title174">WhiteSpider</title><defs
     id="defs8" /><sodipodi:namedview
     id="namedview6"
     pagecolor="#ffffff"
     bordercolor="#666666"
     borderopacity="1.0"
     inkscape:showpageshadow="2"
     inkscape:pageopacity="0.0"
     inkscape:pagecheckerboard="true"
     inkscape:deskcolor="#d1d1d1"
     showgrid="false"
     inkscape:zoom="13.296875"
     inkscape:cx="32.112808"
     inkscape:cy="32.112808"
     inkscape:window-width="1920"
     inkscape:window-height="1030"
     inkscape:window-x="0"
     inkscape:window-y="27"
     inkscape:window-maximized="1"
     inkscape:current-layer="svg5"
     inkscape:lockguides="false"
     showguides="false" /><g
     id="g2790"><path
       style="fill:#ffffff;stroke:none;stroke-width:0.999841;stroke-dasharray:none;stroke-opacity:1;paint-order:markers fill stroke"
       d="m 45.922456,1 c -0.0049,0.00607 6.64e-4,0.00264 -0.0098,0.013668 -0.08272,0.087544 -0.234374,0.2849522 -0.457017,0.6209153 -0.445265,0.6719248 -1.18266,1.8923984 -2.462815,4.0144713 C 42.443315,6.559973 41.91471,7.4220745 41.510447,8.0780442 41.30832,8.4060289 41.138848,8.6818823 41.008509,8.8883582 40.878168,9.094834 40.8147,9.2008756 40.737033,9.3023017 L 40.350361,9.8060631 39.951936,9.4233606 C 37.535195,7.0930662 34.789505,5.8871142 32.002959,5.8853147 29.249421,5.8970369 26.53768,7.0838059 24.143824,9.3706413 L 23.803992,9.694767 23.464158,9.372594 C 23.026832,8.9588896 22.551044,8.1453099 21.239616,5.9477968 19.860575,3.6370092 19.08076,2.3496547 18.61665,1.6677768 18.384594,1.3268381 18.227618,1.1383395 18.15182,1.0683397 c -0.01602,-0.014834 -0.0071,-0.00992 -0.01172,-0.015621 0.02818,0.00182 -0.0062,0.00368 -0.0957,0.02343 -0.111424,0.024601 -0.269981,0.06258 -0.46483,0.1112962 -0.389695,0.097435 -0.928015,0.2377509 -1.562453,0.4080859 C 14.74824,1.9362011 13.089422,2.395184 11.421557,2.8646978 9.75369,3.3342124 8.078149,3.8138881 6.7713082,4.1982996 6.1178877,4.3905052 5.5554402,4.5581845 5.1365925,4.6883931 4.7177447,4.8186015 4.3993212,4.9343424 4.3905215,4.9383213 4.3418125,4.960382 4.3118425,4.9704271 4.2713845,5.1531034 4.2309955,5.3354128 4.2286695,5.6641262 4.2987275,6.104002 v 0.00195 l 0.041015,0.2518809 0.1171839,-0.00391 c -0.044472,0.00182 0.046963,-0.00595 0.1542921,-0.027336 C 4.7185481,6.3052004 4.8662388,6.2723668 5.046752,6.2309117 5.4077806,6.1480016 5.8999136,6.0283724 6.4842082,5.8814028 7.6527963,5.5874639 9.192012,5.1855305 10.816107,4.7450107 c 1.628042,-0.441591 3.162379,-0.8520986 4.32604,-1.1559179 0.581832,-0.1519094 1.073235,-0.2766341 1.435503,-0.367082 0.36227,-0.090448 0.536472,-0.1400912 0.70701,-0.1640153 0.168699,-0.023661 0.357179,-0.048495 0.576154,0.00391 0.218977,0.052399 0.421736,0.1871965 0.587873,0.3573192 0.33227,0.3402456 0.643085,0.8558332 1.253868,1.8412677 0.92372,1.4903149 1.637807,2.6847109 2.134701,3.5692868 0.248445,0.4422879 0.444117,0.8074393 0.585919,1.0992934 0.141802,0.2918324 0.229601,0.4855114 0.27343,0.7087804 l 0.04492,0.22064 -0.142574,0.179635 c -1.206422,1.503736 -2.266717,3.288661 -3.138576,5.297307 l -0.281241,0.652155 -2.636639,-2.555905 h -0.002 c -0.60497,-0.58725 -1.187331,-1.13578 -1.63667,-1.544478 -0.22467,-0.20435 -0.416287,-0.373247 -0.556624,-0.492047 -0.07018,-0.05939 -0.127451,-0.107128 -0.166009,-0.136679 -0.0076,-0.0058 -0.01223,-0.007 -0.01953,-0.01172 -0.0023,0.0011 -0.0012,8.53e-4 -0.0039,0.002 -0.0885,0.03684 -0.333887,0.184972 -0.749977,0.472521 -1.149843,0.794628 -9.3573686,6.998027 -10.8395129,8.19491 -0.8480913,0.684886 -1.2889469,1.06108 -1.4394092,1.249641 -0.075228,0.09428 -0.077129,0.118713 -0.082029,0.148395 -0.00491,0.02968 -0.00342,0.10033 0.01953,0.247975 0.061938,0.398104 0.1348916,0.671833 0.1972597,0.831792 0.051571,-0.01999 0.00637,-0.0024 0.1328084,-0.07811 0.2493561,-0.149352 0.6354753,-0.407873 1.1894168,-0.804456 1.1078831,-0.793166 2.9022159,-2.143552 5.7908388,-4.338597 2.1659194,-1.645871 3.4648234,-2.623736 4.2635424,-3.1983 0.399332,-0.287254 0.671683,-0.473295 0.878879,-0.597484 0.207196,-0.124195 0.328303,-0.218687 0.599591,-0.218687 0.293495,0 0.289107,0.07755 0.353505,0.119106 0.0644,0.04156 0.123103,0.08594 0.1914,0.140585 0.136602,0.109288 0.301681,0.253377 0.49022,0.425659 0.377074,0.344564 0.848692,0.800028 1.314413,1.267213 0.465721,0.467187 0.923194,0.942787 1.277305,1.331649 0.177056,0.194431 0.329589,0.366403 0.445298,0.509619 0.05786,0.07161 0.105375,0.13578 0.148434,0.199162 0.04306,0.06338 0.08455,0.09748 0.124996,0.257738 0.03972,0.157321 0.01697,0.173957 0.01367,0.222592 -0.0034,0.04865 -0.0076,0.09398 -0.01367,0.142538 -0.01225,0.09712 -0.02816,0.203201 -0.03906,0.287027 l -0.0059,0.04491 -0.01367,0.04101 c -0.732598,2.26629 -1.232246,4.704626 -1.478471,7.218628 l -0.0098,0.09177 -0.04297,0.08396 c -0.116601,0.225478 -0.43847,0.428102 -0.654277,0.452995 -0.215301,0.02483 -0.294325,-0.01335 -0.441392,-0.04882 -0.147069,-0.03547 -0.32097,-0.08622 -0.519515,-0.150348 -0.397094,-0.128246 -0.893821,-0.310421 -1.431598,-0.527193 -0.495361,-0.199674 -0.957215,-0.375022 -1.294882,-0.493998 -0.109029,-0.03841 -0.177354,-0.05876 -0.255851,-0.08396 -0.08732,0.114419 -0.194784,0.256208 -0.337881,0.451043 -0.318861,0.434144 -0.76149,1.050864 -1.289023,1.788549 -1.0550684,1.475366 -2.4442258,3.439732 -3.8397268,5.426174 -1.395501,1.986444 -2.7991851,3.995986 -3.882694,5.564807 -0.5417539,0.784413 -1.0030357,1.457603 -1.3437089,1.962327 -0.3292437,0.48779 -0.5471515,0.831643 -0.5800605,0.888417 0.0062,0.0049 -0.0141033,0.09175 0.00391,0.203067 0.02459,0.152037 0.082168,0.351213 0.1562452,0.531097 0.043527,0.105696 0.089996,0.167429 0.1367145,0.247976 0.00846,-0.0097 0.010631,-0.01118 0.01953,-0.02147 0.1833062,-0.213104 0.4581804,-0.563311 0.8437243,-1.08172 0.7710876,-1.036816 1.9940284,-2.750014 3.9119899,-5.473036 2.3039184,-3.270989 3.7993789,-5.385363 4.7400893,-6.685579 0.470356,-0.650109 0.802602,-1.095205 1.029266,-1.386321 0.113331,-0.145557 0.199462,-0.253835 0.27343,-0.33584 0.03698,-0.041 0.06796,-0.07215 0.113277,-0.111297 0.02266,-0.01957 0.04708,-0.04356 0.0918,-0.07029 0.04472,-0.02673 0.106424,-0.0742 0.269523,-0.0742 0.167222,0 0.181651,0.02517 0.248039,0.04491 0.06639,0.01974 0.138965,0.04357 0.224603,0.0742 0.171273,0.06127 0.389861,0.144419 0.636699,0.24407 0.493676,0.199307 1.105387,0.461658 1.671824,0.720496 0.374946,0.171333 0.649855,0.31158 0.865208,0.456901 0.215354,0.14532 0.419172,0.302243 0.48436,0.613104 0.0011,0.007 0.0086,0.06019 0.0098,0.07225 0.0011,0.0127 6.53e-4,0.02724 0.002,0.04101 0.0012,0.01377 0.003,0.0277 0.0039,0.0371 l 0.0039,0.02929 v 0.05271 0.002 c 0.0056,3.030402 0.37884,6.03303 1.09567,8.845114 l 0.07813,0.306553 -0.248039,0.197208 c -0.259309,0.205518 -0.446144,0.203849 -0.876926,0.285075 -0.430784,0.08123 -1.08939,0.185489 -2.134701,0.347557 -0.659215,0.102206 -1.283519,0.202271 -1.755805,0.281169 -0.236144,0.03944 -0.433917,0.07345 -0.578108,0.09958 -0.130159,0.02359 -0.224476,0.04748 -0.195307,0.0371 -0.02318,0.02667 -0.08404,0.113252 -0.167963,0.279216 -0.169207,0.334606 -0.433838,0.967716 -0.871067,2.06386 -1.5094983,3.784334 -6.1349314,16.014483 -6.8982274,18.233041 -0.2184521,0.634932 -0.2999596,1.003413 -0.2929598,1.175443 0.00698,0.172031 0.03558,0.218397 0.2617107,0.443233 0.0019,0.0018 0.00396,0.002 0.00586,0.0039 0.086284,-0.167272 0.1828259,-0.35227 0.4238153,-0.941136 0.6152795,-1.503452 1.8175218,-4.633708 4.2947907,-11.06518 1.5415795,-4.002236 2.3193875,-6.019343 2.7811655,-7.087807 0.230887,-0.534231 0.377122,-0.831295 0.539046,-1.054384 0.161924,-0.223089 0.40496,-0.362299 0.529281,-0.413944 0.407234,-0.16917 1.016299,-0.285003 1.783148,-0.398322 0.76685,-0.113319 1.658556,-0.205038 2.496018,-0.247976 l 1.55464,-0.08006 0.123043,0.345604 c 2.721756,7.692154 7.857876,12.348942 13.314046,12.359729 5.464383,-0.01294 10.608609,-4.685559 13.325765,-12.396828 l 0.08984,-0.261643 0.271475,-0.05662 c 0.1862,-0.03903 0.284338,-0.02331 0.462877,-0.01563 0.17854,0.0077 0.397204,0.02436 0.646465,0.04686 0.498534,0.04499 1.119358,0.116852 1.740181,0.197209 0.620821,0.08037 1.242188,0.168898 1.744087,0.253833 0.250957,0.04247 0.469902,0.08383 0.650371,0.123012 0.18048,0.03919 0.297303,0.05872 0.453112,0.130821 0.14305,0.06619 0.361913,0.242574 0.513656,0.492047 0.151743,0.249472 0.317281,0.610819 0.583966,1.247688 0.533385,1.273743 1.451493,3.649421 3.214746,8.226151 1.781258,4.623481 2.798615,7.253025 3.40224,8.763108 0.541248,1.354047 0.700439,1.642107 0.775366,1.765117 l 0.0625,-0.06639 c 0.121902,-0.133481 0.23293,-0.274949 0.306668,-0.378878 0.0092,-0.01294 0.01163,-0.01564 0.01953,-0.02733 -0.03805,-0.112288 -0.09685,-0.277924 -0.171869,-0.486188 -0.149981,-0.416525 -0.367106,-1.008798 -0.634746,-1.728019 -0.535295,-1.438437 -1.270461,-3.387932 -2.068297,-5.488657 -1.595689,-4.201451 -3.443537,-9.008108 -4.443223,-11.524032 -0.284191,-0.71521 -0.556819,-1.356509 -0.769508,-1.819789 -0.106349,-0.231641 -0.199459,-0.420055 -0.265617,-0.542813 -0.01152,-0.02128 -0.01364,-0.0259 -0.02344,-0.04296 -0.02767,-0.0064 -0.04824,-0.01183 -0.08398,-0.01952 -0.1431,-0.03088 -0.343736,-0.07082 -0.58592,-0.115201 -0.484367,-0.08876 -1.128913,-0.197196 -1.812445,-0.302648 -1.101882,-0.16999 -1.785404,-0.277488 -2.222588,-0.361224 -0.218586,-0.04187 -0.374334,-0.07673 -0.505844,-0.117154 -0.131513,-0.04042 -0.255533,-0.07082 -0.398426,-0.22845 l -0.177728,-0.193303 0.06641,-0.253833 c 0.694232,-2.738236 1.060928,-5.654645 1.081998,-8.602997 3.9e-5,-0.0052 -3e-5,-0.01052 0,-0.01563 v -0.04101 l 0.0078,-0.03905 v -0.002 -0.002 c 0.05675,-0.326113 0.102087,-0.556661 0.304677,-0.779074 0.118577,-0.130264 0.18618,-0.154078 0.289054,-0.214781 0.102875,-0.06071 0.224276,-0.125197 0.36327,-0.195257 0.277979,-0.140117 0.623679,-0.302371 0.982392,-0.458852 0.717406,-0.312962 1.413501,-0.601783 1.863224,-0.691207 0.104273,-0.02087 0.26908,-0.05204 0.458971,-0.002 0.189879,0.05011 0.340415,0.163706 0.474595,0.294838 0.268371,0.262266 0.56525,0.665722 1.156215,1.456613 0.68551,0.91742 2.826503,3.907078 4.781104,6.671911 2.539498,3.592178 3.832239,5.414477 4.503768,6.281397 0.194931,0.251652 0.225306,0.267797 0.320303,0.369035 0.02708,-0.06983 0.05194,-0.127072 0.07813,-0.20502 0.09531,-0.283845 0.153817,-0.595863 0.164057,-0.665823 -0.02147,-0.04273 -0.04886,-0.09587 -0.09375,-0.173778 C 62.799799,41.535502 62.633659,41.266971 62.416097,40.92783 61.98097,40.24955 61.337836,39.285282 60.51967,38.08685 58.883352,35.689988 56.546033,32.350218 53.748392,28.417754 53.186589,27.628065 52.667439,26.897922 52.283593,26.357799 52.009909,25.97268 51.919342,25.84639 51.812905,25.69588 c -0.0723,0.02089 -0.127529,0.03591 -0.226556,0.06834 -0.337538,0.110515 -0.80614,0.28129 -1.312459,0.482284 -0.520735,0.206713 -1.027802,0.393037 -1.429645,0.531097 -0.200916,0.06903 -0.373139,0.126553 -0.515609,0.167921 -0.14247,0.04138 -0.189422,0.07811 -0.400378,0.07811 -0.12025,0 -0.351861,-0.029 -0.523422,-0.175731 -0.17155,-0.146733 -0.24128,-0.320677 -0.304679,-0.513524 l -0.01562,-0.04882 -0.0059,-0.05467 c -0.252757,-2.561466 -0.768215,-5.042373 -1.525304,-7.34345 l -0.03711,-0.107391 0.01563,-0.111296 c 0.03691,-0.266936 0.13577,-0.376017 0.251946,-0.550622 0.116174,-0.174609 0.264269,-0.368254 0.439439,-0.581865 0.350336,-0.427222 0.805078,-0.928139 1.273399,-1.409751 0.468311,-0.48161 0.947875,-0.94338 1.355428,-1.29455 0.203769,-0.175586 0.389463,-0.323295 0.556623,-0.437374 0.16716,-0.11408 0.245794,-0.23626 0.591779,-0.23626 0.15229,0 0.17531,0.02882 0.208979,0.04296 0.03367,0.01414 0.05773,0.02683 0.08008,0.03905 0.04462,0.02441 0.08758,0.04908 0.138668,0.08201 0.102184,0.06584 0.234124,0.156876 0.410143,0.28117 0.352038,0.248585 0.869209,0.62739 1.583936,1.155917 1.429468,1.05705 3.644987,2.717245 6.85526,5.137196 1.139961,0.859318 2.109247,1.560103 2.804601,2.028713 0.292559,0.197158 0.506441,0.3244 0.687479,0.431517 0.0633,-0.221697 0.131443,-0.506024 0.191401,-0.839603 0.02844,-0.157809 0.04098,-0.1233 -0.01563,-0.228449 -0.05659,-0.105149 -0.250084,-0.342592 -0.683573,-0.724402 -0.866993,-0.763616 -2.648216,-2.11654 -6.07794,-4.703726 -2.166306,-1.634136 -3.675838,-2.763806 -4.697122,-3.51071 -0.964217,-0.705162 -1.459935,-1.028954 -1.628857,-1.124677 -0.03355,0.02046 -0.04695,0.02086 -0.150386,0.105439 -0.315081,0.257612 -0.907675,0.824976 -1.980408,1.868604 -0.619111,0.602312 -1.184495,1.14138 -1.613232,1.540572 -0.214372,0.199597 -0.392732,0.363769 -0.531234,0.486188 -0.06926,0.06121 -0.12733,0.110922 -0.177729,0.152301 -0.05037,0.04138 -0.06875,0.06544 -0.166011,0.119106 l -0.472641,0.259691 -0.214838,-0.493998 C 43.690405,14.30216 42.649094,12.555979 41.467521,11.081095 l -0.128902,-0.158158 0.02539,-0.203066 c 0.08312,-0.710935 0.583247,-1.5094852 2.033142,-3.9207484 1.058988,-1.7611642 1.588846,-2.6409109 1.951111,-3.1338649 0.181128,-0.246477 0.323471,-0.4153455 0.529281,-0.53305 0.205808,-0.1176959 0.431694,-0.124964 0.554671,-0.124964 0.126078,0 0.16751,0.015715 0.259757,0.033193 0.09224,0.017477 0.204836,0.039763 0.339834,0.070292 0.269994,0.061062 0.625877,0.1489643 1.048796,0.2557858 0.845836,0.2136434 1.954077,0.5068377 3.122951,0.8298397 2.973897,0.8217837 5.097929,1.3917315 6.509567,1.7455921 0.705809,0.1769303 1.233091,0.3009795 1.593702,0.3729397 0.165072,0.032945 0.285301,0.052621 0.374988,0.064434 0.01299,-0.031484 0.02215,-0.042457 0.03711,-0.1034858 0.05356,-0.2191629 0.0918,-0.6063239 0.0918,-1.1305346 0,-0.087259 -0.0055,-0.128119 -0.0098,-0.1679204 -0.01834,-0.00673 -0.01338,-0.00636 -0.04883,-0.017573 C 58.75031,4.6429119 55.520752,3.7028103 52.430071,2.817837 50.884723,2.3753503 49.372108,1.9447383 48.1802,1.6111525 47.012496,1.2843427 46.158885,1.055244 45.922456,1 Z"
       id="path2773" /><path
       id="path2764"
       style="fill:#000000;stroke:none;stroke-width:1;stroke-dasharray:none;paint-order:markers fill stroke"
       d="m 45.800744,0.00346856 c -0.22923,0.02105 -0.43997,0.16097496 -0.60156,0.33203096 -0.1616,0.171057 -0.32917,0.40072 -0.56445,0.75585998 -0.47058,0.7102796 -1.20582,1.9275743 -2.48633,4.0507811 -0.54813,0.9088541 -1.07264,1.7674909 -1.47461,2.4199219 -0.20098,0.3262156 -0.37089,0.6012625 -0.49805,0.8027344 -0.009,0.014452 -0.007,0.011427 -0.0156,0.025391 -2.46147,-2.205673 -5.26119,-3.4864088 -8.15625,-3.4882812 h -0.002 C 29.141075,4.9135367 26.373867,6.1720364 23.93551,8.3374531 23.721207,8.0748714 23.262857,7.4156128 22.085901,5.4429219 20.705672,3.1295518 19.93216,1.8475399 19.433557,1.1147965 19.184255,0.74842552 19.007883,0.51675452 18.822229,0.34526552 18.636574,0.17377652 18.370806,0.06206256 18.164025,0.06206256 c -0.186235,0 -0.204829,0.02465 -0.332031,0.05273 -0.127203,0.02809 -0.290342,0.06524 -0.490234,0.11523496 -0.399784,0.09998 -0.942509,0.242843 -1.580078,0.414062 -1.275139,0.342439 -2.934636,0.80101498 -4.605469,1.27148458 -1.6708344,0.4704698 -3.3514334,0.9536302 -4.6640624,1.3398438 -0.656314,0.1931068 -1.221216,0.363248 -1.648438,0.4960937 -0.427221,0.1328458 -0.67694,0.2074651 -0.861328,0.2910157 -0.355824,0.1612224 -0.587969,0.5195309 -0.671875,0.8984374 -0.08391,0.3789065 -0.066,0.8035515 0.01563,1.3144532 l 0.177735,1.1171875 0.992187,-0.041016 c 0.120724,-0.00495 0.185605,-0.022361 0.308594,-0.046875 0.12299,-0.024513 0.278666,-0.058795 0.464844,-0.1015624 0.372355,-0.085534 0.866657,-0.2074232 1.455078,-0.3554688 1.176843,-0.296091 2.7222,-0.698563 4.3515624,-1.140625 1.625415,-0.4409921 3.156931,-0.8495398 4.316406,-1.1523438 0.579738,-0.151402 1.067426,-0.2781811 1.423828,-0.3671874 0.356402,-0.089006 0.642404,-0.1474868 0.607422,-0.1425782 0.140771,-0.019756 0.19657,-0.016175 0.207031,-0.013672 0.01046,0.0025 0.02466,-8.826e-4 0.111329,0.087891 0.173341,0.1775463 0.51433,0.691477 1.123046,1.6738281 0.919307,1.483575 1.62818,2.6693959 2.113282,3.533203 0.24255,0.431904 0.430543,0.7852251 0.558593,1.0488281 0.09042,0.186127 0.110756,0.253376 0.138672,0.330078 -1.059036,1.359601 -1.968566,2.952696 -2.767578,4.671875 l -1.679687,-1.628906 c -0.611844,-0.594078 -1.199939,-1.147705 -1.660157,-1.566407 -0.230109,-0.20935 -0.426703,-0.384101 -0.582031,-0.515625 -0.07767,-0.06576 -0.145868,-0.120616 -0.205078,-0.166015 -0.05921,-0.0454 -0.08272,-0.07524 -0.201172,-0.128907 -0.189975,-0.08608 -0.541327,-0.117776 -0.800781,-0.0098 -0.259454,0.108037 -0.506665,0.280454 -0.931641,0.574219 -1.30612,0.902862 -9.3330374,6.974216 -10.9003904,8.240234 -0.851111,0.687501 -1.30013599,1.043587 -1.58789099,1.404297 -0.143876,0.180355 -0.248503,0.385993 -0.283203,0.595703 -0.0347,0.209711 -0.0089,0.388443 0.01758,0.558594 0.07185,0.461888 0.154382,0.819306 0.275391,1.107422 0.06051,0.144057 0.129169,0.273315 0.244141,0.394531 0.114971,0.121217 0.30731,0.236328 0.52148399,0.236328 0.321873,0 0.474932,-0.120378 0.769531,-0.296875 0.294598,-0.176496 0.689914,-0.443773 1.253906,-0.847656 1.127987,-0.807766 2.925932,-2.158453 5.816407,-4.355469 2.1646534,-1.645333 3.4630694,-2.624951 4.2421874,-3.185547 0.389558,-0.280298 0.650805,-0.455009 0.810547,-0.550781 0.05445,-0.03264 0.0012,-0.01576 0.03125,-0.02734 0.106036,0.08531 0.255932,0.216353 0.43164,0.376953 0.358971,0.328103 0.81982,0.777246 1.277344,1.236328 0.457524,0.459082 0.911386,0.928842 1.25,1.300782 0.169307,0.18597 0.311549,0.3476 0.40625,0.464843 0.02987,0.03698 0.04327,0.05803 0.0625,0.08398 v 0.002 c -0.0091,0.07207 -0.02117,0.165706 -0.0332,0.255859 -0.716083,2.232737 -1.189546,4.628112 -1.449219,7.083985 -0.108341,-0.02633 -0.258907,-0.06863 -0.439453,-0.126953 -0.36588,-0.118197 -0.847519,-0.294382 -1.367187,-0.503907 -0.506782,-0.204332 -0.976014,-0.385557 -1.333985,-0.511719 -0.178987,-0.06308 -0.331154,-0.111576 -0.451172,-0.146484 -0.06,-0.01745 -0.109075,-0.03184 -0.166015,-0.04297 -0.02847,-0.0056 -0.05634,-0.01102 -0.103516,-0.01367 -0.02359,-0.0014 -0.05328,-0.0031 -0.09766,0.002 -0.02219,0.0025 -0.04801,0.0079 -0.08203,0.01758 -0.034,0.0096 -0.126124,0.05613 -0.126953,0.05664 -0.109775,0.06748 -0.10341,0.07853 -0.123047,0.09961 -0.01964,0.02107 -0.03513,0.04131 -0.05274,0.0625 -0.03523,0.04239 -0.07612,0.0927 -0.125,0.15625 -0.09778,0.127092 -0.226919,0.303145 -0.388672,0.523437 -0.323506,0.440583 -0.769961,1.059092 -1.2988274,1.798828 -1.057732,1.479472 -2.447026,3.442946 -3.84375,5.431641 -1.396724,1.988693 -2.802804,4.003527 -3.888672,5.576172 -0.542935,0.786322 -1.005482,1.462684 -1.34960999,1.972656 -0.344127,0.509973 -0.545698,0.809086 -0.648437,1 -0.159889,0.297133 -0.122582,0.542204 -0.08203,0.792969 0.04055,0.250767 0.119305,0.506509 0.21875,0.748047 0.09944,0.241537 0.217257,0.463884 0.367187,0.654297 0.07497,0.09521 0.155234,0.185081 0.28125,0.263672 0.12601599,0.07859 0.34115999,0.150584 0.55859399,0.08008 0.169497,-0.05497 0.239404,-0.127448 0.326172,-0.207032 0.08677,-0.07958 0.174708,-0.174934 0.28125,-0.298828 0.213085,-0.247788 0.494718,-0.609493 0.886718,-1.136718 0.784001,-1.054449 2.006481,-2.77047 3.925782,-5.496094 2.303272,-3.270911 3.8016284,-5.385494 4.7363284,-6.677735 0.467349,-0.646121 0.793986,-1.087188 1.005859,-1.359375 0.05575,-0.07162 0.08167,-0.09851 0.121094,-0.146484 0.14998,0.05386 0.352902,0.133623 0.58789,0.228516 0.477684,0.192899 1.079904,0.451296 1.63086,0.703125 0.352077,0.160925 0.594907,0.289409 0.724609,0.376953 0.05092,0.03437 0.06428,0.04997 0.07422,0.05859 0.0071,2.944534 0.374728,5.852014 1.039062,8.611328 -0.08074,0.02552 -0.01996,0.0068 -0.191406,0.03906 -0.401489,0.07572 -1.059751,0.179929 -2.103516,0.341797 -0.662491,0.102742 -1.287827,0.203366 -1.765625,0.283203 -0.238898,0.03992 -0.439925,0.07402 -0.591796,0.101563 -0.151872,0.02753 -0.202004,0.02929 -0.333985,0.07031 -0.144127,0.04481 -0.310154,0.151616 -0.425781,0.283203 -0.115627,0.131586 -0.203492,0.282301 -0.306641,0.486328 -0.206299,0.408059 -0.469233,1.043743 -0.908203,2.144532 -1.5232754,3.819683 -6.1158314,15.960555 -6.9140624,18.28125 -0.227246,0.660656 -0.361503,1.095583 -0.34375,1.533203 0.01775,0.437619 0.255149,0.805595 0.548828,1.097656 0.102938,0.102372 0.205384,0.192853 0.300781,0.267578 0.0477,0.03736 0.09328,0.07107 0.146485,0.103516 0.05321,0.03244 0.05068,0.09766 0.314453,0.09766 -0.009,0 0.128116,0.02577 0.302734,-0.04883 0.174618,-0.0746 0.270108,-0.199677 0.347656,-0.320313 0.155097,-0.241274 0.311928,-0.59613 0.625,-1.361328 0.626144,-1.530395 1.823517,-4.650873 4.300782,-11.083984 1.5415714,-4.003241 2.3253654,-6.033183 2.7675774,-7.056641 0.221106,-0.511729 0.363455,-0.77053 0.433594,-0.867187 0.07013,-0.09666 0.005,-0.0406 0.109375,-0.08398 0.187425,-0.07788 0.81569,-0.223665 1.548828,-0.332031 0.733138,-0.108365 1.601161,-0.197197 2.402344,-0.238281 l 0.861328,-0.04492 c 2.846446,7.724754 8.160584,12.662136 14.078126,12.673828 h 0.002 c 5.93385,-0.01288 11.26176,-4.974419 14.10156,-12.734375 0.004,1.42e-4 0.002,-1.76e-4 0.006,0 0.15315,0.0067 0.36189,0.02134 0.60157,0.04297 0.47933,0.04326 1.09045,0.112331 1.70117,0.191406 0.61072,0.07908 1.22219,0.16826 1.70508,0.25 0.24144,0.04087 0.45101,0.07931 0.60742,0.113281 0.15641,0.03397 0.28309,0.07963 0.24609,0.0625 0.0472,0.02183 -0.007,-0.04379 0.0879,0.111328 0.0943,0.155125 0.25546,0.495724 0.51563,1.117188 0.52034,1.24293 1.4419,3.625427 3.20507,8.203125 1.78152,4.625316 2.79994,7.255246 3.40821,8.777344 0.60827,1.522097 0.781,1.928632 1.00781,2.214843 l 0.58984,0.742188 0.88086,-0.962891 c 0.1477,-0.161717 0.28075,-0.324065 0.38477,-0.470703 0.052,-0.07332 0.0974,-0.140649 0.13672,-0.21289 0.0394,-0.07225 0.0977,-0.105658 0.0977,-0.337891 0,-0.12148 -0.0137,-0.115415 -0.0195,-0.138672 -0.006,-0.02326 -0.0111,-0.04302 -0.0176,-0.06445 -0.013,-0.04287 -0.028,-0.09262 -0.0488,-0.154297 -0.0417,-0.123338 -0.10164,-0.292488 -0.17774,-0.503906 -0.15222,-0.422836 -0.37231,-1.015145 -0.64062,-1.736328 -0.53661,-1.442365 -1.27191,-3.393363 -2.07032,-5.496094 -1.5968,-4.205463 -3.4424,-9.011454 -4.44726,-11.541016 -0.28931,-0.728298 -0.56781,-1.382814 -0.79102,-1.86914 -0.11161,-0.243163 -0.2076,-0.442874 -0.29101,-0.597657 -0.0417,-0.07739 -0.0781,-0.143487 -0.11914,-0.205078 -0.041,-0.06159 -0.0199,-0.115365 -0.24414,-0.234375 -0.11965,-0.06348 -0.13875,-0.05497 -0.19727,-0.07031 -0.0585,-0.01534 -0.12495,-0.02958 -0.20508,-0.04687 -0.16026,-0.03459 -0.37062,-0.07749 -0.61914,-0.123047 -0.49704,-0.0911 -1.14808,-0.199892 -1.83984,-0.306641 -1.09998,-0.169741 -1.78307,-0.277991 -2.1875,-0.355468 -0.0823,-0.01578 -0.10245,-0.02587 -0.16211,-0.03906 0.63992,-2.671656 0.99678,-5.481426 1.02148,-8.330078 4e-5,-0.0039 0.002,-0.0078 0.002,-0.01172 0.0302,-0.152578 0.0683,-0.243425 0.0762,-0.273437 0.0153,-0.01161 0.0262,-0.02098 0.0469,-0.0332 0.0727,-0.04291 0.18199,-0.100229 0.3086,-0.164063 0.25321,-0.127667 0.58587,-0.28272 0.93164,-0.433594 0.69153,-0.301749 1.50273,-0.597592 1.66015,-0.628906 0.0162,-0.0032 0.0134,-0.0026 0.0215,-0.0039 -0.0159,-0.0064 -0.0277,-0.02054 0.0293,0.03516 0.1451,0.141833 0.46691,0.554309 1.05664,1.34375 0.65999,0.883491 2.81557,3.890462 4.76758,6.652344 2.53971,3.593394 3.81973,5.407138 4.52539,6.318359 0.35284,0.455611 0.53598,0.681645 0.78125,0.847656 0.12264,0.083 0.31792,0.160517 0.51172,0.126954 0.19381,-0.03356 0.29207,-0.132095 0.33789,-0.169922 0.21505,-0.177474 0.22082,-0.280388 0.28906,-0.429688 0.0682,-0.1493 0.13312,-0.320611 0.19336,-0.5 0.12018,-0.358866 0.2284,-0.689132 0.2284,-1.033292 0,-0.251848 -0.0537,-0.252289 -0.0918,-0.332031 -0.0381,-0.07975 -0.086,-0.168395 -0.14649,-0.273438 -0.12087,-0.210085 -0.29143,-0.485513 -0.51367,-0.832031 -0.44448,-0.693032 -1.09096,-1.662127 -1.91211,-2.865234 -1.64228,-2.406212 -3.98295,-5.750343 -6.7832,-9.6875 -0.56176,-0.789823 -1.08115,-1.520496 -1.46484,-2.060547 -0.38371,-0.540053 -0.66481,-0.938896 -0.64649,-0.91211 l -0.002,-0.002 c -6.3e-4,-9.17e-4 -0.0776,-0.09235 -0.11719,-0.121093 -0.0396,-0.02873 -0.0762,-0.04586 -0.10742,-0.05859 -0.0624,-0.02545 -0.10609,-0.03309 -0.14062,-0.03711 -0.0691,-0.008 -0.10712,-0.0036 -0.14258,0 -0.0709,0.0072 -0.12583,0.01984 -0.18945,0.03516 -0.12725,0.03064 -0.27777,0.07477 -0.46094,0.134765 -0.36634,0.119975 -0.8492,0.296679 -1.3711,0.503907 -0.50748,0.201503 -1.00253,0.386218 -1.38476,0.517578 -0.19113,0.06569 -0.35504,0.116236 -0.47266,0.15039 -0.0182,0.0053 -10e-4,0.0019 -0.0195,0.0059 -0.25722,-2.516823 -0.76797,-4.953306 -1.5039,-7.236328 9.8e-4,0.02264 0.006,-0.01068 0.0762,-0.115235 0.0869,-0.130686 0.22075,-0.308187 0.38281,-0.505859 0.32412,-0.395344 0.76406,-0.880002 1.21679,-1.345703 0.45274,-0.465701 0.91943,-0.914378 1.29297,-1.236328 0.18678,-0.160975 0.35283,-0.290011 0.46875,-0.369141 0.007,-0.0046 -0.005,5.5e-5 0.002,-0.0039 0.0789,0.05242 0.16741,0.109495 0.30274,0.205078 0.3402,0.240289 0.85441,0.61594 1.5664,1.142578 1.424,1.053277 3.63818,2.712844 6.84766,5.132813 1.14941,0.866663 2.12808,1.573538 2.84766,2.058593 0.35978,0.242529 0.6526,0.429927 0.88086,0.558594 0.11413,0.06433 0.20921,0.11275 0.30859,0.152344 0.0497,0.0198 0.0996,0.03951 0.17383,0.05273 0.0742,0.01324 0.19375,0.05146 0.38867,-0.06836 0.25357,-0.15585 0.23748,-0.255622 0.28516,-0.363282 0.0477,-0.107658 0.0877,-0.225189 0.1289,-0.363281 0.0824,-0.276183 0.16434,-0.626209 0.23438,-1.015625 0.0387,-0.2153 0.0474,-0.557173 -0.11719,-0.863281 -0.1647,-0.306108 -0.43359,-0.584841 -0.90039,-0.996094 -0.93362,-0.822509 -2.70417,-2.163442 -6.13477,-4.751953 -2.16789,-1.63575 -3.68122,-2.766276 -4.71093,-3.519531 -1.02971,-0.753255 -1.53458,-1.112431 -1.85743,-1.277344 -0.12585,-0.06429 -0.39991,-0.108623 -0.5957,-0.04101 -0.19578,0.06761 -0.33764,0.173695 -0.53125,0.332031 -0.38721,0.316671 -0.97034,0.880082 -2.04492,1.925781 -0.61489,0.598357 -1.1746,1.131262 -1.5957,1.523438 -0.13133,0.122309 -0.22119,0.201231 -0.32227,0.292968 -0.78929,-1.685845 -1.68828,-3.244278 -2.72852,-4.582031 0.0445,-0.227175 0.44526,-1.0974481 1.84961,-3.4335936 1.05887,-1.7614115 1.6021,-2.6571999 1.89844,-3.0605468 0.14817,-0.2016736 0.22965,-0.2634839 0.22656,-0.2617188 -0.003,0.00176 -0.0476,0.00586 0.0645,0.00586 -0.071,0 10e-4,0.00173 0.0742,0.015625 0.0733,0.013887 0.1785,0.035463 0.30665,0.064453 0.2563,0.057981 0.60937,0.1443998 1.02734,0.25 0.83595,0.2112005 1.93695,0.5028512 3.09961,0.8242188 2.97721,0.82291 5.10532,1.3958786 6.5332,1.7539062 0.71395,0.1790137 1.25073,0.3030292 1.64063,0.3808594 0.19493,0.038915 0.35251,0.066111 0.48437,0.082031 0.13186,0.015921 0.2058,0.042719 0.40039,-0.00586 0.21345,-0.053296 0.37955,-0.2027759 0.47852,-0.3535156 0.099,-0.1507398 0.15559,-0.311705 0.19922,-0.4902344 0.0872,-0.3570589 0.11914,-0.7970606 0.11914,-1.3632813 0,-0.2530646 0.0235,-0.4639975 -0.13672,-0.7226562 -0.16021,-0.2586492 -0.40735,-0.3331861 -0.60742,-0.39649 -1.047,-0.3312687 -4.25591,-1.2643275 -7.34961,-2.1503906 -1.54684,-0.4430319 -3.06098,-0.87448288 -4.25586,-1.20898488 -1.19487,-0.334501 -2.04179,-0.56678196 -2.34961,-0.63671796 -0.0751,-0.01707 -0.17667,-0.03448 -0.29687,-0.02344 z m 0.12305,0.99218796 c 0.23643,0.05526 1.09007,0.28442398 2.25781,0.61132798 1.19195,0.3336821 2.7046,0.7644169 4.25,1.2070311 3.09078,0.8852285 6.32043,1.8255991 7.32227,2.1425781 0.0354,0.011216 0.0305,0.010851 0.0488,0.017578 0.004,0.039813 0.01,0.080685 0.01,0.1679687 0,0.5243617 -0.0382,0.9116333 -0.0918,1.1308594 -0.015,0.061047 -0.0241,0.072022 -0.0371,0.1035156 -0.0897,-0.011817 -0.20993,-0.031499 -0.375,-0.064453 -0.36063,-0.071981 -0.88796,-0.1960654 -1.59379,-0.3730468 -1.41168,-0.3539627 -3.53577,-0.9240731 -6.50976,-1.7460937 -1.16891,-0.3230952 -2.27719,-0.6163732 -3.12305,-0.8300782 -0.42293,-0.1068524 -0.77882,-0.1947802 -1.04883,-0.2558593 -0.135,-0.030539 -0.24761,-0.05283 -0.33984,-0.070312 -0.0923,-0.017483 -0.13368,-0.033203 -0.25977,-0.033203 -0.12298,0 -0.34887,0.00727 -0.55468,0.125 -0.20582,0.1177384 -0.34817,0.2866551 -0.5293,0.5332032 -0.36228,0.4930962 -0.89215,1.3730934 -1.95117,3.1347656 -1.44994,2.4119587 -1.95009,3.2107348 -2.03321,3.9218748 l -0.0254,0.203125 0.12891,0.158203 c 1.18161,1.475309 2.22295,3.221989 3.08398,5.183594 l 0.21485,0.49414 0.47265,-0.259765 c 0.0973,-0.05368 0.11565,-0.07775 0.16602,-0.119141 0.0504,-0.04139 0.10848,-0.09111 0.17773,-0.152344 0.13851,-0.122455 0.31687,-0.286674 0.53125,-0.486328 0.42875,-0.399308 0.99416,-0.938529 1.61329,-1.541015 1.07276,-1.043929 1.66537,-1.611455 1.98046,-1.869141 0.10344,-0.0846 0.11684,-0.085 0.15039,-0.105469 0.16893,0.09575 0.66466,0.419635 1.62891,1.125 1.02132,0.747119 2.53089,1.877111 4.69727,3.511719 3.42983,2.587932 5.2111,3.941241 6.07812,4.705078 0.43351,0.38192 0.62701,0.619431 0.6836,0.72461 0.0566,0.105179 0.0441,0.07066 0.0156,0.228515 -0.06,0.333675 -0.12811,0.618083 -0.19141,0.839844 -0.18105,-0.107148 -0.39493,-0.234426 -0.6875,-0.431641 -0.69538,-0.468746 -1.66469,-1.16973 -2.80469,-2.029296 -3.21037,-2.420649 -5.42595,-4.081318 -6.85547,-5.138672 -0.71475,-0.528679 -1.23193,-0.907592 -1.58398,-1.15625 -0.17603,-0.124329 -0.30797,-0.21539 -0.41016,-0.28125 -0.0511,-0.03294 -0.094,-0.05761 -0.13867,-0.08203 -0.0223,-0.01222 -0.0464,-0.02492 -0.0801,-0.03906 -0.0337,-0.01414 -0.0567,-0.04297 -0.20898,-0.04297 -0.346,0 -0.42464,0.122216 -0.5918,0.236328 -0.16717,0.114112 -0.35287,0.261864 -0.55664,0.4375 -0.40757,0.351271 -0.88714,0.813173 -1.35547,1.294922 -0.46834,0.48175 -0.92309,0.98281 -1.27344,1.410156 -0.17518,0.213673 -0.32327,0.407373 -0.43945,0.582032 -0.11618,0.174657 -0.21505,0.283768 -0.25195,0.550781 l -0.0156,0.111328 0.0371,0.107422 c 0.75711,2.30174 1.27258,4.783355 1.52539,7.345703 l 0.006,0.05469 0.0156,0.04883 c 0.0634,0.192903 0.13313,0.366895 0.30468,0.513671 0.17157,0.146776 0.40319,0.175782 0.52344,0.175782 0.21096,0 0.25792,-0.03674 0.40039,-0.07813 0.14248,-0.04138 0.3147,-0.09892 0.51563,-0.167969 0.40185,-0.1381 0.90893,-0.324477 1.42968,-0.53125 0.50634,-0.201051 0.97496,-0.371875 1.3125,-0.482422 0.099,-0.03244 0.15427,-0.04746 0.22657,-0.06836 0.10644,0.150553 0.19701,0.276879 0.4707,0.662109 0.38386,0.540279 0.90302,1.27063 1.46484,2.060547 2.79773,3.933598 5.13512,7.274322 6.77149,9.671875 0.81819,1.198778 1.46134,2.163321 1.89648,2.841797 0.21757,0.339238 0.38372,0.607846 0.49024,0.792969 0.0449,0.07793 0.0723,0.131091 0.0937,0.173828 -0.0102,0.06998 -0.0688,0.382087 -0.16407,0.666015 -0.0262,0.07797 -0.0511,0.135226 -0.0781,0.205079 -0.095,-0.101268 -0.12537,-0.117417 -0.32031,-0.369141 -0.67155,-0.867171 -1.96433,-2.689988 -4.5039,-6.283203 -1.95467,-2.76563 -4.09572,-5.756143 -4.78125,-6.673828 -0.59099,-0.791118 -0.88788,-1.19469 -1.15625,-1.457032 -0.13419,-0.13117 -0.28473,-0.244802 -0.47461,-0.294922 -0.1899,-0.05011 -0.35471,-0.01888 -0.45899,0.002 -0.44974,0.08945 -1.14585,0.378354 -1.86328,0.691406 -0.35872,0.156526 -0.70443,0.318826 -0.98242,0.458984 -0.139,0.07008 -0.2604,0.134587 -0.36328,0.195313 -0.10288,0.06072 -0.17049,0.08454 -0.28907,0.214843 -0.20259,0.222476 -0.24794,0.45309 -0.30468,0.779297 v 0.002 0.002 l -0.008,0.03906 v 0.04102 c -3e-5,0.0051 4e-5,0.01048 0,0.01563 -0.0211,2.949202 -0.38778,5.866445 -1.08203,8.605469 l -0.0664,0.253906 0.17773,0.193359 c 0.1429,0.157681 0.26692,0.188084 0.39844,0.228516 0.13151,0.04044 0.28726,0.07531 0.50586,0.117187 0.4372,0.08376 1.12074,0.191288 2.22265,0.361328 0.68356,0.105482 1.32812,0.21395 1.8125,0.302735 0.2422,0.04439 0.44284,0.08434 0.58594,0.115234 0.0357,0.0077 0.0563,0.01309 0.084,0.01953 0.01,0.01706 0.0119,0.02168 0.0234,0.04297 0.0662,0.122793 0.15927,0.311262 0.26563,0.542969 0.21269,0.463414 0.48533,1.104896 0.76953,1.820312 0.99972,2.516649 2.84762,7.324681 4.44336,11.527344 0.79786,2.101331 1.53305,4.051382 2.06836,5.490234 0.26765,0.719428 0.48478,1.31187 0.63476,1.728516 0.075,0.208324 0.13383,0.374007 0.17188,0.486328 -0.008,0.0117 -0.0104,0.0144 -0.0195,0.02734 -0.0737,0.103959 -0.18478,0.245468 -0.30664,0.378906 l -0.0625,0.06641 c -0.0749,-0.123046 -0.23417,-0.411333 -0.77543,-1.765771 -0.60364,-1.510518 -1.62103,-4.140813 -3.40235,-8.765626 -1.7633,-4.578051 -2.68144,-6.954405 -3.21484,-8.228515 -0.26669,-0.637053 -0.43224,-0.998503 -0.58398,-1.248047 -0.15175,-0.249545 -0.37062,-0.425982 -0.51368,-0.492188 -0.15581,-0.07212 -0.27264,-0.09166 -0.45312,-0.130859 -0.18048,-0.0392 -0.39943,-0.08057 -0.65039,-0.123047 -0.50192,-0.08496 -1.1233,-0.17352 -1.74414,-0.253906 -0.62084,-0.08038 -1.24169,-0.152269 -1.74024,-0.197266 -0.24927,-0.0225 -0.46794,-0.03916 -0.64648,-0.04687 -0.17855,-0.0077 -0.27669,-0.02341 -0.46289,0.01563 l -0.27149,0.05664 -0.0898,0.261719 c -2.71724,7.713493 -7.86162,12.387442 -13.32617,12.400381 C 26.549539,53.916507 21.41327,49.258389 18.691429,41.564016 l -0.123047,-0.345703 -1.554687,0.08008 c -0.837489,0.04295 -1.72922,0.134696 -2.496094,0.248047 -0.766874,0.113352 -1.375956,0.229217 -1.783203,0.398437 -0.124325,0.05166 -0.367368,0.19091 -0.529297,0.414063 -0.161929,0.223153 -0.308167,0.520301 -0.539062,1.054687 -0.461792,1.068772 -1.239622,3.086453 -2.7812504,7.089844 -2.477347,6.433326 -3.679623,9.564474 -4.294922,11.06836 -0.240997,0.589036 -0.337541,0.774086 -0.423828,0.941406 -0.0019,-0.0019 -0.004,-0.0021 -0.0059,-0.0039 -0.226138,-0.224901 -0.254739,-0.27128 -0.261719,-0.44336 -0.007,-0.17208 0.07451,-0.540666 0.292969,-1.175781 0.76332,-2.219198 5.388892,-14.452856 6.8984374,-18.238281 0.437243,-1.09646 0.701881,-1.72975 0.871094,-2.064453 0.08393,-0.166012 0.144786,-0.252621 0.167968,-0.279297 -0.02917,0.01038 0.06515,-0.01351 0.195313,-0.03711 0.144195,-0.02614 0.341974,-0.06016 0.578125,-0.09961 0.472302,-0.07892 1.096623,-0.179014 1.755859,-0.28125 1.045344,-0.162114 1.703969,-0.266407 2.134766,-0.347656 0.430796,-0.08125 0.617636,-0.07958 0.876953,-0.285157 l 0.248047,-0.197265 -0.07813,-0.306641 c -0.716852,-2.812895 -1.090079,-5.81638 -1.095703,-8.847656 v -0.002 -0.05273 l -0.0039,-0.0293 c -8.87e-4,-0.0094 -0.0027,-0.02334 -0.0039,-0.03711 -0.0013,-0.01377 -8.53e-4,-0.02832 -0.002,-0.04102 -0.0012,-0.01206 -0.0087,-0.06526 -0.0098,-0.07227 -0.06519,-0.310951 -0.269014,-0.467919 -0.484375,-0.613281 -0.21536,-0.145362 -0.490277,-0.28565 -0.865234,-0.457032 -0.566455,-0.258913 -1.178184,-0.521339 -1.671875,-0.720703 -0.246846,-0.09968 -0.46544,-0.182849 -0.636719,-0.24414 -0.08564,-0.03064 -0.158214,-0.05448 -0.224609,-0.07422 -0.06639,-0.01974 -0.08082,-0.04492 -0.248047,-0.04492 -0.163104,0 -0.224808,0.04748 -0.269531,0.07422 -0.04472,0.02674 -0.06914,0.05073 -0.0918,0.07031 -0.04532,0.03916 -0.0763,0.07032 -0.113281,0.111329 -0.07397,0.08203 -0.160103,0.190338 -0.273438,0.335937 -0.226671,0.291199 -0.558927,0.736423 -1.029297,1.386719 -0.9407404,1.300592 -2.4362424,3.415568 -4.7402334,6.6875 -1.918022,2.723808 -3.140998,4.437494 -3.91211,5.474609 -0.385556,0.518558 -0.660438,0.868865 -0.84375,1.082031 -0.0089,0.01031 -0.01107,0.01181 -0.01953,0.02148 -0.04672,-0.08057 -0.09319,-0.142321 -0.136718,-0.248047 -0.07408,-0.179936 -0.131659,-0.379169 -0.15625,-0.53125 -0.01801,-0.111346 0.0023,-0.198266 -0.0039,-0.203125 0.03291,-0.05679 0.250824,-0.400742 0.580078,-0.888672 0.340684,-0.50487 0.801979,-1.178253 1.34375,-1.962891 1.083543,-1.569274 2.487267,-3.57939 3.882812,-5.566406 1.395545,-1.987015 2.784743,-3.951942 3.8398444,-5.427734 0.52755,-0.737897 0.970191,-1.354794 1.289062,-1.789063 0.143101,-0.194891 0.250569,-0.336721 0.337891,-0.451172 0.0785,0.02521 0.146827,0.04556 0.255859,0.08398 0.337677,0.11901 0.799546,0.294407 1.294922,0.49414 0.537794,0.216834 1.034535,0.399061 1.431641,0.527344 0.198552,0.06415 0.372458,0.114911 0.519531,0.150391 0.147072,0.03548 0.226098,0.07367 0.441406,0.04883 0.215813,-0.0249 0.537692,-0.227582 0.654297,-0.453125 l 0.04297,-0.08398 0.0098,-0.0918 c 0.246233,-2.514727 0.745895,-4.953759 1.478516,-7.220703 l 0.01367,-0.04102 0.0059,-0.04492 c 0.0109,-0.08385 0.02681,-0.189964 0.03906,-0.287109 0.0061,-0.04857 0.01027,-0.09392 0.01367,-0.142579 0.0033,-0.04865 0.02605,-0.06529 -0.01367,-0.222656 -0.04045,-0.160303 -0.08194,-0.194415 -0.125,-0.257812 -0.04306,-0.0634 -0.09058,-0.127591 -0.148438,-0.199219 -0.115713,-0.143257 -0.26825,-0.315279 -0.445312,-0.509766 -0.354122,-0.388974 -0.811608,-0.86471 -1.277344,-1.332031 -0.465735,-0.467321 -0.937366,-0.922915 -1.314453,-1.267578 -0.188545,-0.172331 -0.353629,-0.316461 -0.490235,-0.425781 -0.0683,-0.05466 -0.127001,-0.09906 -0.191406,-0.140625 -0.0644,-0.04157 -0.06001,-0.119141 -0.353515,-0.119141 -0.271297,0 -0.392407,0.09452 -0.59961,0.21875 -0.207202,0.124225 -0.479561,0.310318 -0.878906,0.597656 -0.798744,0.574729 -2.097685,1.552873 -4.2636724,3.199219 -2.888714,2.195678 -4.683097,3.546449 -5.791015,4.339844 -0.553959,0.396698 -0.940089,0.655291 -1.189453,0.804687 -0.126439,0.07576 -0.08124,0.05813 -0.132813,0.07813 -0.06237,-0.160006 -0.135325,-0.433813 -0.197265,-0.832031 -0.02295,-0.147688 -0.02444,-0.218358 -0.01953,-0.248047 0.0049,-0.02969 0.0068,-0.05413 0.08203,-0.148437 0.150467,-0.188616 0.591335,-0.564917 1.439453,-1.25 1.482191,-1.197228 9.6899644,-7.402408 10.8398434,-8.197266 0.416103,-0.287631 0.661501,-0.435806 0.75,-0.472656 0.0027,-0.0011 0.0016,-8.89e-4 0.0039,-0.002 0.0073,0.0047 0.01196,0.0059 0.01953,0.01172 0.03856,0.02956 0.09584,0.07731 0.166015,0.136719 0.140341,0.118834 0.331964,0.287779 0.556641,0.492188 0.449353,0.408817 1.031731,0.957503 1.636719,1.544922 h 0.002 l 2.636719,2.55664 0.28125,-0.652343 c 0.871886,-2.009225 1.932211,-3.79466 3.138671,-5.298829 l 0.142579,-0.179687 -0.04492,-0.220703 C 22.653403,10.412852 22.565568,10.219214 22.423762,9.9272969 22.281956,9.6353589 22.086279,9.2701039 21.837825,8.8276882 21.340916,7.9428572 20.626808,6.7481204 19.703059,5.2573757 19.092256,4.271657 18.781434,3.7559225 18.449153,3.4155788 18.283011,3.2454071 18.080245,3.1105715 17.861262,3.058157 17.64228,3.005742 17.453794,3.030579 17.28509,3.054247 17.114547,3.078178 16.94034,3.127835 16.578059,3.2183095 16.21578,3.3087835 15.724362,3.4335437 15.142512,3.585497 13.978814,3.8894039 12.444432,4.3000287 10.81634,4.741747 9.1921936,5.1823938 7.6529336,5.5844421 6.4843086,5.8784657 c -0.584313,0.147012 -1.07646,0.2666749 -1.4375,0.3496094 -0.180519,0.041467 -0.328214,0.07431 -0.435547,0.095703 -0.107332,0.021393 -0.198769,0.029166 -0.154296,0.027344 l -0.117188,0.00391 -0.04102,-0.2519532 v -0.00195 c -0.07006,-0.4400026 -0.06773,-0.7688167 -0.02734,-0.9511787 0.04046,-0.1827292 0.07043,-0.1927763 0.11914,-0.2148437 0.0088,-0.00398 0.327233,-0.119754 0.746094,-0.25 0.418861,-0.1302461 0.981325,-0.2979733 1.634766,-0.4902344 1.306882,-0.3845223 2.982471,-0.8643351 4.6503904,-1.3339844 1.667918,-0.4696492 3.326784,-0.928763 4.595703,-1.2695311 0.634458,-0.170384 1.172792,-0.31074 1.5625,-0.408203 0.194855,-0.04873 0.353417,-0.08672 0.464844,-0.111328 0.08949,-0.01976 0.123879,-0.02162 0.0957,-0.02344 0.0046,0.0057 -0.0043,7.92e-4 0.01172,0.01563 0.0758,0.07002 0.232781,0.258572 0.464844,0.599609 0.464125,0.6820746 1.243961,1.9697959 2.623046,4.28125 1.311469,2.1981467 1.787271,3.0119577 2.22461,3.4257813 l 0.339844,0.322266 0.339843,-0.324219 c 2.393931,-2.287495 5.10575,-3.4746029 7.859372,-3.4863283 2.78664,0.0018 5.53241,1.2080962 7.94922,3.5390623 l 0.39844,0.382813 0.38672,-0.503907 c 0.0777,-0.101455 0.14114,-0.2075266 0.27148,-0.414062 0.13035,-0.2065355 0.29982,-0.4824675 0.50196,-0.8105469 0.40427,-0.6561588 0.93289,-1.5185066 1.48242,-2.4296875 1.28019,-2.1226849 2.01761,-3.3435063 2.46289,-4.0156249 0.22265,-0.33606 0.3743,-0.533525 0.45703,-0.621094 0.0104,-0.01103 0.005,-0.0076 0.01,-0.01367 z M 27.999963,22.999563 a 5,10.5 0 0 0 -5,10.5 5,10.5 0 0 0 5,10.5 5,10.5 0 0 0 4.109371,-4.552734 5,9.5 0 0 0 3.89063,3.552734 5,9.5 0 0 0 5,-9.5 5,9.5 0 0 0 -5,-9.5 5,9.5 0 0 0 -3.88477,3.539062 5,10.5 0 0 0 -4.115231,-4.539062 z m 1.599609,7.400391 a 1.1,2.5 0 0 1 0.6875,0.552734 1,1 0 0 0 -0.6875,0.947266 1,1 0 0 0 1,1 1,1 0 0 0 0.09961,-0.0059 1.1,2.5 0 0 1 0,0.002 1.1,2.5 0 0 1 0,0.002 1.1,2.5 0 0 1 0,0.002 1.1,2.5 0 0 1 -1.09961,2.5 1.1,2.5 0 0 1 -1.099609,-2.5 1.1,2.5 0 0 1 1.099609,-2.5 z m 8.099612,0 a 1.1,2.5 0 0 1 0.68945,0.550781 1,1 0 0 0 -0.68945,0.949219 1,1 0 0 0 1,1 1,1 0 0 0 0.10156,-0.0078 1.1,2.5 0 0 1 0,0.002 1.1,2.5 0 0 1 0,0.002 1.1,2.5 0 0 1 0,0.002 1.1,2.5 0 0 1 0,0.002 1.1,2.5 0 0 1 -1.10156,2.5 1.1,2.5 0 0 1 -1.09961,-2.5 1.1,2.5 0 0 1 1.09961,-2.5 z" /></g><metadata
     id="metadata172"><rdf:RDF><cc:Work
         rdf:about=""><dc:title>WhiteSpider</dc:title><dc:language>en-US</dc:language><dc:description>WhiteSpider logo version 0.3</dc:description><dc:publisher><cc:Agent><dc:title>WhiteSpider Dev</dc:title></cc:Agent></dc:publisher><dc:creator><cc:Agent><dc:title>WhiteSpider Dev</dc:title></cc:Agent></dc:creator><dc:identifier>whitespider</dc:identifier></cc:Work></rdf:RDF></metadata></svg>
