<?xml version="1.0" encoding="UTF-8" standalone="no"?>
<svg
	xmlns="http://www.w3.org/2000/svg"
	width="64"
	height="64"
	viewBox="0 0 64 64">
	<title>NettleWeb</title>
	<path
		d="M0 .001v.197C0 .055.138-.008.377.001zm.377 0c.015.001.039.007.055.008A1.14 1.14 0 0 1 .547.001zm.055.008C.217.036.07.127.02.261.127.813 1.955 3.463 3.064 4.657c.635.684 1.087 1.345 1.004 1.467s-.504.291-.934.377c-.521.104-.781.3-.781.59 0 .526 1.844 2.694 2.75 3.232.681.405.842.908.375 1.17-.151.085-.826.225-1.5.312-.855.111-1.251.282-1.311.562-.053.249.773 1.196 2.16 2.478 2.539 2.347 2.535 2.38-.268 2.617-1.067.09-1.781.267-1.863.461-.28.663 1.714 2.821 3.814 4.129l.891.553-.553.404c-.303.223-1.323.538-2.264.699-2.026.347-2.145.646-.916 2.268.735.969 2.772 2.482 3.342 2.482.136 0 .402.167.59.373.495.542-.086.804-1.789.809-1.651.004-1.92.351-1.148 1.482.727 1.066 1.795 1.942 3.125 2.564 1.432.67 1.174 1.002-1.305 1.686-.999.275-1.887.669-1.973.871-.209.494 2.466 2.748 4.607 3.883.9.477 1.529.928 1.396 1.002s-1.194.41-2.359.744-2.184.7-2.262.814c-.325.477 2.982 2.456 5.203 3.113.751.222 1.326.536 1.326.723 0 .181-.854.748-1.896 1.26s-1.895 1.071-1.895 1.244c0 .493 3.009 1.748 4.635 1.934.807.092 1.512.294 1.568.447s-.611.736-1.484 1.295c-1.431.916-1.548 1.052-1.184 1.383.292.265 1.09.39 2.881.449 2.829.094 3.013.269 1.527 1.453-1.328 1.058-.925 1.319 2.01 1.295 1.286-.011 2.34.073 2.34.186s-.179.59-.395 1.059l-.391.941c0 .049.441.088.98.088.591 0 1.594-.296 2.523-.74 1.535-.734 1.54-.733 1.355-.176-.394 1.189-.341 1.276.736 1.217.56-.031 1.421-.27 1.912-.533 1.224-.656 1.459-.614 1.254.232-.155.641-.108.713.473.713.355 0 1.245-.375 1.977-.832l1.467-.83c.075 0 .139.373.139.83 0 .493.128.832.316.832.174 0 .939-.598 1.699-1.328 1.07-1.027 1.418-1.241 1.541-.949.257.607.707.447 1.947-.701l1.166-1.078.459.512c.578.647.927.42 2.025-1.322.434-.688 1.017-1.305 1.295-1.371s.688-.515.91-.998.538-.838.705-.787c.402.122 1.619 3.032 2.562 6.125.598 1.96.73 2.787.617 3.881-.107 1.037-.051 1.447.219 1.602.6.345.87.107 1.125-.975.185-.785.132-1.428-.225-2.709-1.097-3.941-1.794-5.846-2.898-7.933L45.25 49.92c0-.214.987-.056 2.352.371 1.251.392 1.494.405 1.854.109.264-.216.993-.34 2.012-.34 1.574 0 1.595-.009 1.547-.641-.047-.614.028-.653 1.719-.91.971-.148 1.843-.34 1.939-.428s-.093-.418-.42-.734-.523-.683-.434-.814.795-.406 1.566-.609 1.683-.58 2.023-.836l.619-.465-1.113-.402c-.611-.222-1.109-.49-1.109-.594s.762-.519 1.695-.924 1.823-.946 1.975-1.203c.315-.534.133-.637-1.297-.746-1.286-.098-1.259-.513.078-1.225 2.72-1.447 3.521-2.523 1.879-2.523-.495 0-.974-.11-1.064-.242s.373-.796 1.029-1.477c1.284-1.332 2.102-2.662 1.857-3.021-.083-.123-.738-.159-1.453-.082-1.53.164-1.568.066-.645-1.588.654-1.171.878-2.932.408-3.195-.134-.075-.69.138-1.236.475-1.166.718-1.361.493-.66-.764.438-.786 1.096-2.974 1.096-3.65 0-.365-.569-.259-1.963.363-.719.321-1.587.588-1.93.592-.594.007-.616-.047-.455-1.145.122-.835.025-1.577-.357-2.701-.542-1.592-1.282-2.512-1.516-1.883-.2.539-2.527 3.221-2.805 3.232-.144.006-.298-.311-.344-.703-.261-2.26-2.041-6.051-2.84-6.051-.18 0-.656.605-1.057 1.346s-.841 1.335-.98 1.318-.402-.626-.584-1.352c-.463-1.852-1.561-3.689-2.205-3.689-.118 0-.385.295-.592.654-.426.738-1.389 1.723-1.686 1.723-.108 0-.387-.742-.621-1.646-.466-1.804-1.134-2.798-2.305-3.426l-.764-.41-.777 1.553c-.427.854-.938 1.553-1.139 1.553s-.65-.551-.998-1.227c-.692-1.342-2.264-2.57-3.289-2.57-.541 0-.613.111-.613.934 0 1.653-.814 2.815-1.217 1.736-.814-2.18-2.799-4.807-3.633-4.807-.188 0-.64.589-1.002 1.307s-.769 1.305-.906 1.305-.625-.53-1.084-1.18c-.909-1.286-2.431-2.617-2.99-2.617-.199 0-.481.464-.648 1.068-.17.614-.449 1.066-.654 1.066-.197 0-.695-.605-1.107-1.346-1.15-2.065-3.471-3.375-3.711-2.094-.25 1.338-.627 2.254-.93 2.254-.186 0-1.154-.866-2.148-1.924S9.612 2.677 9.369 2.559c-.649-.315-1.262-.258-1.262.115 0 .18-.172.454-.383.613-.313.236-.588.137-1.502-.541C4.378 1.378 1.506.081.432.009zM.02.261C.016.244 0 .211 0 .198V.35C.002.318.009.289.02.261z"
		style="fill:#004080" />
	<path
		d="M16 24v16h2.885V29.565L25.077 40h3.113V24h-2.885v10.683L19.018 24zm13.714 0l3.327 16h3.05l2.766-11.963L41.631 40h2.984L48 24h-2.833L43.03 35.175 40.587 24h-3.345l-2.55 10.99L32.595 24z"
		style="fill:#ffffff" />
</svg>