<?xml version="1.0" encoding="UTF-8" standalone="no"?>
<!-- Created with Inkscape (http://www.inkscape.org/) -->

<!--
⁠$$\      $$\ $$\       $$\   $$\                $$$$$$\            $$\       $$\
⁠$$ | $\  $$ |$$ |      \__|  $$ |              $$  __$$\           \__|      $$ |
⁠$$ |$$$\ $$ |$$$$$$$\  $$\ $$$$$$\    $$$$$$\  $$ /  \__| $$$$$$\  $$\  $$$$$$$ | $$$$$$\   $$$$$$\   $$$$$$\   $$$$$$\
⁠$$ $$ $$\$$ |$$  __$$\ $$ |\_$$  _|  $$  __$$\ \$$$$$$\  $$  __$$\ $$ |$$  __$$ |$$  __$$\ $$  __$$\ $$  __$$\ $$  __$$\
⁠$$$$  _$$$$ |$$ |  $$ |$$ |  $$ |    $$$$$$$$ | \____$$\ $$ /  $$ |$$ |$$ /  $$ |$$$$$$$$ |$$ |  \__|$$ /  $$ |$$ /  $$ |
⁠$$$  / \$$$ |$$ |  $$ |$$ |  $$ |$$\ $$   ____|$$\   $$ |$$ |  $$ |$$ |$$ |  $$ |$$   ____|$$ |      $$ |  $$ |$$ |  $$ |
⁠$$  /   \$$ |$$ |  $$ |$$ |  \$$$$  |\$$$$$$$\ \$$$$$$  |$$$$$$$  |$$ |\$$$$$$$ |\$$$$$$$\ $$ |$$\   \$$$$$$$ |\$$$$$$$ |
⁠\__/     \__|\__|  \__|\__|   \____/  \_______| \______/ $$  ____/ \__| \_______| \_______|\__|\__|   \____$$ | \____$$ |
⁠                                                         $$ |                                        $$\   $$ |      $$ |
⁠                                                         $$ |                                        \$$$$$$  |      $$ |
⁠                                                         \__|                                         \______/       \__|
-->

<svg
   width="64"
   height="64"
   viewBox="0 0 64 64"
   version="1.1"
   id="svg5"
   inkscape:version="1.2.2 (b0a8486541, 2022-12-01)"
   sodipodi:docname="logo2.svg"
   inkscape:export-filename="/home/shell/Projects/whitespider/res/logo512.png"
   inkscape:export-xdpi="192"
   inkscape:export-ydpi="192"
   xmlns:inkscape="http://www.inkscape.org/namespaces/inkscape"
   xmlns:sodipodi="http://sodipodi.sourceforge.net/DTD/sodipodi-0.dtd"
   xmlns="http://www.w3.org/2000/svg"
   xmlns:svg="http://www.w3.org/2000/svg">
  <sodipodi:namedview
     id="namedview7"
     pagecolor="#ffffff"
     bordercolor="#111111"
     borderopacity="1"
     inkscape:pageshadow="0"
     inkscape:pageopacity="0"
     inkscape:pagecheckerboard="1"
     inkscape:document-units="px"
     showgrid="false"
     units="px"
     width="256px"
     inkscape:zoom="8.5065504"
     inkscape:cx="26.802874"
     inkscape:cy="28.624999"
     inkscape:window-width="1920"
     inkscape:window-height="1029"
     inkscape:window-x="0"
     inkscape:window-y="27"
     inkscape:window-maximized="1"
     inkscape:current-layer="layer1"
     borderlayer="true"
     scale-x="1"
     inkscape:showpageshadow="2"
     inkscape:deskcolor="#d1d1d1" />
  <defs
     id="defs2" />
  <g
     inkscape:label="Layer 1"
     inkscape:groupmode="layer"
     id="layer1">
    <g
       id="g7672"
       transform="matrix(1.0064777,0,0,1.0060592,-0.38590647,-0.79955041)"
       inkscape:export-filename="/home/shell/Pictures/tmp/gs/shark.png"
       inkscape:export-xdpi="96"
       inkscape:export-ydpi="96" />
    <g
       id="g202">
      <path
         style="color:#000000;fill:#ffffff;stroke:none;stroke-width:0.999997;-inkscape-stroke:none"
         d="M 3.3631604,63.60544 C 2.8351417,63.078219 2.8221665,62.759643 3.2748915,61.438145 4.0679779,59.123128 8.7507926,46.694353 10.291103,42.816242 c 0.890031,-2.240876 1.066105,-2.59038 1.349552,-2.67885 0.121245,-0.03784 1.318929,-0.239843 2.661521,-0.44889 2.702988,-0.420868 2.879219,-0.460362 2.879219,-0.645239 0,-0.07063 -0.164281,-1.093356 -0.36507,-2.272733 -0.200788,-1.179376 -0.456682,-3.156778 -0.568656,-4.394226 -0.111972,-1.237449 -0.228344,-2.368177 -0.258601,-2.512727 -0.03925,-0.187528 -0.351525,-0.398891 -1.090026,-0.737797 -1.13504,-0.520885 -2.468071,-1.061799 -2.616696,-1.061799 -0.125854,0 -1.53163,1.951891 -6.2115853,8.624644 C 2.1729005,42.246259 1.1048884,43.688337 0.81740802,43.78194 0.45659339,43.899423 -0.18244096,42.337124 0.04945841,41.904469 0.54568404,40.978661 11.509369,25.305031 11.77572,25.140664 c 0.05402,-0.03334 0.931114,0.276552 1.949097,0.688642 1.074139,0.434821 1.990415,0.733094 2.183378,0.710745 0.327636,-0.03794 0.337269,-0.06684 0.658595,-1.975926 0.179353,-1.065581 0.538412,-2.821474 0.797911,-3.901984 0.265883,-1.107088 0.439062,-2.094875 0.39677,-2.263121 -0.09039,-0.359604 -3.662327,-3.959477 -3.928749,-3.959477 -0.248828,0 -1.130485,0.636808 -5.5294477,3.993845 -5.8703483,4.479913 -7.2973345,5.505763 -7.65867221,5.505763 -0.23674857,0 -0.42456123,-0.449272 -0.56392249,-1.348982 -0.10041731,-0.648297 -0.0229357,-0.745917 1.7031551,-2.145754 1.5488277,-1.256078 9.7952443,-7.513564 11.0426183,-8.379277 0.854344,-0.59294 1.00005,-0.654198 1.267088,-0.532709 0.165957,0.0755 1.313024,1.123147 2.549043,2.3281 l 2.247303,2.190831 0.67108,-1.149645 c 0.369094,-0.632303 1.091492,-1.791103 1.605332,-2.575109 0.65466,-0.998869 0.931122,-1.535436 0.923789,-1.792929 C 22.079768,10.171303 21.032363,8.2896818 19.080692,5.1274277 17.841927,3.1202811 17.747504,3.0232724 17.118803,3.1118576 16.8434,3.1506664 13.914108,3.9189697 10.609266,4.8192066 7.3044238,5.7194435 4.3469656,6.4664335 4.0371366,6.4791856 L 3.4738114,6.502373 3.3624839,5.8023196 C 3.2080479,4.8311765 3.3333013,4.2655427 3.7441885,4.078613 4.5290463,3.7215464 17.463752,0.06513773 17.942032,0.06513773 c 0.394876,0 0.751378,0.525841 3.554216,5.24249497 1.714387,2.8849924 2.136805,3.5071447 2.381222,3.5071447 0.08625,0 0.76964,-0.3731621 1.518638,-0.8292482 1.677346,-1.0213804 2.882535,-1.6015812 3.865486,-1.860916 1.188213,-0.3134908 3.30273,-0.3741736 4.677908,-0.1342494 1.749911,0.3053038 2.801246,0.7866503 5.629759,2.5775473 l 0.668544,0.4232934 0.234031,-0.3069546 c 0.128715,-0.1688255 1.146291,-1.8256425 2.261275,-3.681815 2.972695,-4.94879604 3.062979,-5.07855471 3.46914,-4.98590301 1.060225,0.24185556 12.05497,3.40240471 14.136132,4.06357181 0.375525,0.1193019 0.406843,0.1704621 0.406843,0.6645892 0,1.1122374 -0.141278,1.6944521 -0.428636,1.7664676 -0.311991,0.078189 -2.902359,-0.5735403 -8.94743,-2.2511322 -2.368376,-0.6572576 -4.489454,-1.1950135 -4.713505,-1.1950135 -0.47737,0 -0.50064,0.031804 -2.651936,3.6248498 -1.74229,2.9099285 -2.0952,3.6223334 -1.993959,4.0251064 0.04271,0.169921 0.472663,0.950907 0.955446,1.735523 0.482784,0.784616 1.145923,1.890247 1.473644,2.456956 0.327721,0.566711 0.645241,1.030755 0.705599,1.031208 0.06036,5.2e-4 1.175437,-1.040395 2.477951,-2.312996 2.181213,-2.131117 2.390008,-2.302641 2.644294,-2.172228 0.459119,0.235465 2.195197,1.510545 6.597847,4.845838 6.968668,5.279223 7.211507,5.493915 7.075142,6.25505 -0.136989,0.764582 -0.317447,1.371439 -0.428121,1.439739 -0.144171,0.08897 -1.783063,-1.020274 -4.108583,-2.78078 -6.52113,-4.93673 -8.994949,-6.773736 -9.121918,-6.773736 -0.523592,0 -4.057113,3.66062 -4.057113,4.203041 0,0.170221 0.194254,1.080035 0.431673,2.021812 0.23742,0.941776 0.548859,2.387292 0.692088,3.212258 0.441916,2.545362 0.485641,2.687389 0.827338,2.687389 0.164311,0 1.153295,-0.340677 2.197744,-0.757061 1.044454,-0.416383 1.932463,-0.708044 1.973371,-0.648132 0.04086,0.05991 1.008165,1.427107 2.14947,3.038216 C 60.181949,36.224103 64,41.840309 64,42.177642 c 0,0.372818 -0.369047,1.474695 -0.541886,1.617919 -0.29947,0.248166 -0.36754,0.159875 -5.526958,-7.169431 -1.984162,-2.818633 -4.166693,-5.876264 -4.850069,-6.794736 -1.199343,-1.611942 -1.255696,-1.667311 -1.622442,-1.594071 -0.616725,0.123158 -3.060653,1.19375 -3.281627,1.437555 -0.150392,0.165929 -0.236046,0.661697 -0.328361,1.900443 -0.144694,1.941649 -0.272574,2.964077 -0.693726,5.54646 -0.167785,1.028826 -0.305065,1.908707 -0.305065,1.955295 0,0.14966 0.318954,0.217531 2.905487,0.618275 1.396998,0.216445 2.634369,0.443798 2.749711,0.505232 0.119026,0.06339 0.653593,1.23356 1.236155,2.705938 2.036212,5.146404 7.504738,19.604052 7.504738,19.840985 0,0.08685 -0.224027,0.404174 -0.497848,0.70519 L 60.25026,64 60.015858,63.702999 c -0.277143,-0.35116 -0.791821,-1.64373 -4.410859,-11.077525 -3.582114,-9.337542 -3.738662,-9.712953 -4.125104,-9.892522 -0.494896,-0.229965 -5.279081,-0.846127 -5.528112,-0.711975 -0.04641,0.02501 -0.543336,0.93068 -1.104268,2.012614 -1.48973,2.873412 -2.601313,4.473921 -4.149109,5.974083 -1.890766,1.832579 -3.592733,2.967789 -5.359352,3.574677 -1.000541,0.343715 -3.358548,0.518296 -4.886255,0.361757 -2.405287,-0.246458 -4.62384,-1.496636 -7.213173,-4.064702 -1.680513,-1.66671 -2.813519,-3.32022 -4.099055,-5.982164 l -0.895118,-1.853514 -1.446579,0.07449 c -1.66452,0.0857 -3.577534,0.370482 -4.181588,0.622492 -0.464631,0.193842 -0.502438,0.28172 -3.6342772,8.447329 -5.0327789,13.121905 -4.8809229,12.749475 -5.1985711,12.749475 -0.048787,0 -0.2383646,-0.149433 -0.4212753,-0.332065 z M 29.045478,43.796777 c 0.721938,-0.348958 1.405243,-1.234204 2.344234,-3.037034 0.685232,-1.315625 0.938875,-1.671038 0.938875,-1.315586 0,0.2778 1.263082,1.981204 1.879213,2.534325 1.428109,1.282059 2.887584,1.047069 4.25941,-0.685805 1.416726,-1.789593 2.123482,-4.274937 2.123482,-7.467335 0,-2.982382 -0.426041,-5.022417 -1.419217,-6.795705 -1.930486,-3.446831 -4.148123,-3.424191 -6.428813,0.06564 -0.303264,0.464044 -0.596091,0.843716 -0.65073,0.843716 -0.05463,0 -0.254441,-0.394731 -0.444009,-0.877177 -0.632372,-1.609382 -2.021565,-3.423627 -2.863917,-3.740191 -1.369069,-0.514509 -2.807796,0.518106 -3.906471,2.803785 -1.188909,2.473403 -1.510835,4.437918 -1.393031,8.500806 0.08153,2.812107 0.258679,3.750716 1.092604,5.789343 0.587326,1.435787 1.103539,2.254931 1.815193,2.880412 0.892034,0.784016 1.737216,0.943552 2.653177,0.500812 z m -0.07091,-7.921729 c -0.508705,-0.220678 -0.824129,-0.8864 -1.015072,-2.142379 -0.2358,-1.551038 0.31907,-3.222983 1.210474,-3.647425 0.382481,-0.182118 0.446448,-0.180663 0.816631,0.01858 0.537941,0.289527 0.912342,0.866621 1.146712,1.767517 0.237918,0.91454 0.243108,1.558895 0.0193,2.398147 -0.235143,0.881795 -0.554509,1.380231 -1.028162,1.604655 -0.485799,0.230179 -0.621133,0.230286 -1.149892,8.97e-4 z m 1.552347,-3.757887 c 0.08723,-0.347045 -0.09466,-0.633864 -0.315537,-0.497558 -0.149174,0.09206 -0.185718,0.602984 -0.05263,0.735868 0.161847,0.161604 0.288208,0.07981 0.368173,-0.23831 z m 6.461409,3.7376 c -0.5488,-0.220307 -0.972363,-2.178604 -0.773827,-3.577717 0.182865,-1.288673 0.849073,-2.339137 1.482565,-2.337673 0.386377,8.97e-4 0.998099,0.487199 1.335093,1.061369 0.67839,1.15584 0.534015,3.601935 -0.268826,4.554619 -0.286554,0.340038 -0.395927,0.382184 -0.969094,0.373428 -0.355346,-0.0054 -0.718007,-0.03874 -0.805911,-0.07402 z m 1.765251,-3.591396 c 0.09862,-0.256607 -0.04946,-0.717415 -0.213054,-0.663034 -0.0773,0.0257 -0.159388,0.143778 -0.182423,0.262403 -0.08799,0.453156 0.245467,0.790964 0.395477,0.400631 z"
         id="path984" />
      <path
         id="path986"
         style="color:#000000;fill:#000000;stroke:none;stroke-width:0.982589;-inkscape-stroke:none"
         d="m 45.791199,0.0078125 c -0.126191,0.01409301 -0.262226,0.04903188 -0.37109,0.12304688 -0.217726,0.14802998 -0.367021,0.34363544 -0.59765,0.67382812 -0.461258,0.6603853 -1.210367,1.8992651 -2.673799,4.3261719 -0.548092,0.908938 -1.070315,1.7693197 -1.472641,2.421875 -0.201163,0.3262776 -0.372707,0.601213 -0.499995,0.8027344 -0.105073,0.1663511 -0.162496,0.248773 -0.183591,0.28125 L 39.718998,8.4667969 C 36.921488,6.7023239 35.774517,6.1778363 33.998357,5.8691406 32.546515,5.6168127 30.477856,5.6697005 29.183955,6.0097656 28.13712,6.2848964 26.916543,6.8775908 25.246498,7.890625 24.883678,8.1107093 24.537295,8.3108865 24.275805,8.453125 24.189946,8.499827 24.13218,8.528327 24.068775,8.5605469 24.002421,8.4843339 23.921391,8.3867652 23.785575,8.1875 23.455497,7.7032125 22.931086,6.8463572 22.088329,5.4335938 20.708082,3.119806 19.930633,1.8340707 19.432107,1.1015625 19.182845,0.73530843 19.008435,0.50538149 18.822739,0.33398438 18.637042,0.16258724 18.370979,0.05078125 18.164542,0.05078125 c -0.186224,0 -0.204821,0.02464382 -0.332028,0.05273437 -0.127205,0.0280906 -0.290328,0.0671903 -0.490228,0.1171875 C 16.942482,0.32069743 16.399827,0.46157236 15.762225,0.6328125 14.487019,0.97529282 12.825774,1.4357222 11.154852,1.90625 9.4839307,2.3767778 7.8035364,2.8578777 6.4908395,3.2441406 5.8344911,3.4372721 5.2716148,3.6054175 4.8443728,3.7382812 4.4171309,3.8711449 4.1694136,3.945724 3.9850071,4.0292969 3.6295706,4.1903795 3.3954038,4.5488794 3.3111862,4.9277344 3.2269685,5.3065893 3.2432684,5.7350035 3.324858,6.2460938 l 0.1796854,1.1152343 0.992177,-0.039063 C 4.6174208,7.317317 4.6823241,7.2999033 4.8053107,7.2753906 4.9282975,7.2508778 5.0820229,7.2165943 5.2681964,7.1738281 5.6405436,7.088296 6.136801,6.9664093 6.725212,6.8183594 7.902034,6.5222595 9.4453863,6.1198763 11.074775,5.6777344 12.700226,5.2366606 14.235603,4.8263734 15.395041,4.5234375 15.97476,4.3719697 16.460516,4.2472542 16.8169,4.1582031 c 0.356386,-0.089051 0.642475,-0.1494523 0.607416,-0.1445312 0.140759,-0.019757 0.19639,-0.014264 0.207028,-0.011719 0.01064,0.00255 0.02458,-0.00285 0.111328,0.085937 0.173498,0.1775628 0.516293,0.6933079 1.124988,1.6757813 0.958442,1.5469892 1.692694,2.7801582 2.185523,3.6621093 0.246414,0.440976 0.432808,0.7947715 0.552729,1.0488275 0.0829,0.175634 0.12375,0.331563 0.140623,0.371094 -0.0043,-0.02846 -0.02155,0.102197 -0.146483,0.34375 -0.133427,0.257966 -0.354354,0.624825 -0.671868,1.107422 -0.511814,0.777924 -1.223349,1.911463 -1.595686,2.546875 l -0.341793,0.585938 -1.761699,-1.708985 c -0.611859,-0.594192 -1.199858,-1.151537 -1.660139,-1.570311 -0.23014,-0.209386 -0.428627,-0.384083 -0.583978,-0.515625 -0.07767,-0.06577 -0.143908,-0.118658 -0.203123,-0.164063 -0.05922,-0.04541 -0.08273,-0.07718 -0.20117,-0.130859 -0.190548,-0.08635 -0.541845,-0.116293 -0.800772,-0.0078 -0.258928,0.108441 -0.506844,0.280534 -0.931631,0.574219 -1.30594,0.902884 -9.3327741,6.97389 -10.9002734,8.240234 -0.8511982,0.687665 -1.30012465,1.043163 -1.58787356,1.404297 -0.14387445,0.180568 -0.24853588,0.387871 -0.28320009,0.597657 -0.03466417,0.209784 -0.0088889,0.38838 0.01757794,0.558593 0.07182219,0.461901 0.15451007,0.819375 0.27538766,1.107422 0.0604387,0.144023 0.12719404,0.273292 0.2421849,0.394531 0.11499088,0.12124 0.30947809,0.236329 0.52343185,0.236328 0.3218463,0 0.4768273,-0.120358 0.7714761,-0.296874 0.2946487,-0.176517 0.6878772,-0.445664 1.2519396,-0.84961 1.128125,-0.80789 2.9258398,-2.156109 5.8163438,-4.353516 2.1646692,-1.645614 3.4629932,-2.624936 4.2421422,-3.185546 0.389574,-0.280304 0.650788,-0.456974 0.810538,-0.552735 0.05438,-0.0326 0.0012,-0.0138 0.03125,-0.02539 0.106026,0.08532 0.253807,0.214162 0.429682,0.375 0.358888,0.328201 0.821872,0.777106 1.279283,1.236328 0.457414,0.459221 0.911453,0.928729 1.249987,1.300781 0.169267,0.186026 0.311563,0.349517 0.406246,0.466797 0.03785,0.04689 0.06192,0.07744 0.08203,0.105469 -0.0056,-0.0122 -0.0068,-0.01548 -0.01563,0.06641 -0.01234,0.113684 -0.0345,0.276387 -0.06836,0.46875 -0.06771,0.384724 -0.175902,0.891613 -0.304684,1.425781 -0.259671,1.077082 -0.611281,2.79567 -0.791008,3.859375 -0.150856,0.892836 -0.235085,1.32972 -0.289059,1.509766 -0.02445,-0.0029 0.0036,0.0011 -0.02539,-0.0059 -0.108549,-0.02634 -0.264291,-0.07153 -0.447261,-0.130859 -0.365933,-0.118643 -0.845316,-0.296185 -1.365213,-0.505836 -0.506888,-0.204406 -0.97988,-0.383766 -1.337876,-0.509766 -0.178998,-0.063 -0.329182,-0.111649 -0.449214,-0.146484 -0.06002,-0.01742 -0.109069,-0.02994 -0.166014,-0.04102 -0.02847,-0.0056 -0.05832,-0.013 -0.105468,-0.01563 -0.02358,-0.0013 -0.05137,-0.0012 -0.0957,0.0039 -0.02217,0.0026 -0.05005,0.006 -0.08398,0.01563 -0.03395,0.0096 -0.124168,0.05418 -0.124998,0.05469 -0.109784,0.06749 -0.103407,0.08243 -0.123046,0.103515 -0.01964,0.02108 -0.03511,0.03935 -0.05274,0.06055 -0.03524,0.04239 -0.07416,0.09269 -0.123046,0.15625 -0.09778,0.127116 -0.228869,0.303107 -0.390621,0.523438 -0.323501,0.440663 -0.769956,1.058957 -1.2988138,1.798828 -1.0577153,1.479744 -2.4470079,3.446489 -3.8437086,5.435547 -1.3967005,1.989058 -2.8008254,4.001287 -3.886677,5.574219 -0.5429257,0.786465 -1.007426,1.462591 -1.35154793,1.972656 -0.34412188,0.510065 -0.54764794,0.811014 -0.65038363,1.001953 -0.15981421,0.297023 -0.12043736,0.540197 -0.08007727,0.791015 0.04036009,0.250819 0.11952512,0.508354 0.21874765,0.75 0.0992225,0.241648 0.21351437,0.463738 0.36327735,0.654297 0.0748815,0.09528 0.15718193,0.18692 0.28320007,0.265625 0.12601826,0.07871 0.34115166,0.148646 0.55858776,0.07813 0.1696211,-0.05501 0.2393746,-0.127404 0.3261683,-0.207031 0.086794,-0.07963 0.1746426,-0.174847 0.281247,-0.298828 0.2132092,-0.247961 0.4945323,-0.609214 0.8867092,-1.136719 0.7843539,-1.055009 2.0083677,-2.771937 3.9276922,-5.498047 2.3033106,-3.271499 3.8018907,-5.387288 4.7362777,-6.679687 0.467193,-0.646199 0.792133,-1.08522 1.003895,-1.357422 0.05539,-0.07119 0.07988,-0.09866 0.119139,-0.146484 0.150265,0.05399 0.355765,0.131156 0.591791,0.226562 0.47808,0.19325 1.079817,0.453175 1.630842,0.705078 0.352166,0.160992 0.59482,0.287493 0.724601,0.375 0.05562,0.0375 0.07235,0.05937 0.08203,0.07031 0.0044,0.03362 0.0081,0.06407 0.01953,0.162109 0.01624,0.139352 0.03762,0.328818 0.06055,0.550781 0.04586,0.443926 0.101298,1.022003 0.156248,1.626954 0.11206,1.233655 0.363111,3.169592 0.564447,4.347656 0.09861,0.577003 0.189111,1.115761 0.253904,1.517578 0.02541,0.157597 0.04189,0.273941 0.05859,0.382812 -0.340069,0.07571 -1.050239,0.188751 -2.376928,0.394532 -0.662707,0.102789 -1.287856,0.202935 -1.765606,0.283203 -0.238874,0.04013 -0.441922,0.07582 -0.593744,0.103515 -0.15182,0.0277 -0.201058,0.02763 -0.332027,0.06836 -0.143919,0.04475 -0.3101,0.153612 -0.425776,0.285156 -0.115675,0.131544 -0.205431,0.282341 -0.308591,0.486328 -0.206322,0.407975 -0.465309,1.043532 -0.904287,2.144531 -1.5232484,3.820441 -6.1176937,15.962058 -6.9159415,18.283203 -0.2272461,0.660787 -0.3635921,1.097525 -0.3456994,1.535157 0.017893,0.437632 0.2572104,0.803706 0.5507753,1.095703 0.1027027,0.102153 0.2036403,0.194788 0.2988249,0.269531 0.047592,0.03737 0.093249,0.06903 0.1464828,0.101563 0.053233,0.03253 0.053122,0.09961 0.3164029,0.09961 -0.009,0 0.1262065,0.02368 0.300778,-0.05078 0.1745715,-0.07445 0.2719392,-0.199642 0.3496056,-0.320313 0.1553364,-0.241394 0.3117426,-0.594075 0.6249932,-1.359375 0.6265012,-1.530597 1.8253905,-4.653634 4.3026882,-11.08789 1.54159,-4.003952 2.323486,-6.03101 2.765595,-7.054688 0.221056,-0.511838 0.361527,-0.772466 0.431636,-0.86914 0.07011,-0.09667 0.0051,-0.04061 0.109374,-0.08398 0.187732,-0.07802 0.817654,-0.225268 1.550764,-0.333984 0.733112,-0.108715 1.601266,-0.197197 2.402319,-0.238281 l 1.097644,-0.05664 0.740227,1.523437 c 1.280122,2.640571 2.439356,4.330819 4.130814,6.001954 2.592249,2.561095 4.893022,3.871228 7.398359,4.126953 1.592008,0.162501 3.858158,0.0185 5.019477,-0.378907 1.825707,-0.62478 3.566403,-1.788056 5.460878,-3.617187 1.564839,-1.510862 2.699405,-3.145932 4.17769,-5.986328 0.274606,-0.527635 0.534185,-1.012424 0.728507,-1.365235 0.08446,-0.153339 0.14849,-0.26733 0.203123,-0.361328 0.136139,0.0042 0.331352,0.01914 0.562494,0.03906 0.472717,0.04074 1.095236,0.108707 1.724592,0.189453 0.629353,0.08075 1.26695,0.17308 1.771465,0.257812 0.252257,0.04237 0.470769,0.08385 0.634759,0.119141 0.163991,0.03529 0.298199,0.08224 0.259762,0.06445 0.04719,0.02184 -0.0084,-0.04381 0.08594,0.111328 0.09434,0.155143 0.257388,0.493671 0.517573,1.115235 0.52037,1.243125 1.443807,3.62853 3.206996,8.207031 1.781536,4.626141 2.797752,7.255099 3.406213,8.777344 0.608464,1.522244 0.781226,1.926902 1.007803,2.21289 L 59.791048,64 l 0.88085,-0.964844 c 0.147758,-0.161811 0.278828,-0.323981 0.382809,-0.470703 0.05199,-0.07336 0.09741,-0.142582 0.136716,-0.214844 0.0393,-0.07226 0.09766,-0.103822 0.09766,-0.335937 0,-0.12152 -0.01175,-0.115409 -0.01758,-0.138672 -0.0059,-0.02326 -0.01303,-0.04302 -0.01953,-0.06445 -0.013,-0.04288 -0.02989,-0.09263 -0.05078,-0.154297 -0.04179,-0.123355 -0.09966,-0.292462 -0.175779,-0.503906 -0.152238,-0.422889 -0.370319,-1.015057 -0.638665,-1.736328 -0.536693,-1.442544 -1.273735,-3.39505 -2.072244,-5.498047 -1.597019,-4.205996 -3.442362,-9.012994 -4.447217,-11.542969 -0.289298,-0.728371 -0.567859,-1.380591 -0.791008,-1.867188 -0.111573,-0.243297 -0.207619,-0.444716 -0.291012,-0.599609 -0.04169,-0.07745 -0.08006,-0.141481 -0.121093,-0.203125 -0.04103,-0.06164 -0.01576,-0.117237 -0.240232,-0.236328 -0.119753,-0.06354 -0.140698,-0.05499 -0.199216,-0.07031 -0.05852,-0.01533 -0.126908,-0.03157 -0.207029,-0.04883 -0.16024,-0.03455 -0.368705,-0.07561 -0.617181,-0.121093 -0.496952,-0.09096 -1.148126,-0.199883 -1.839824,-0.306641 -1.272063,-0.196331 -1.991054,-0.312554 -2.359349,-0.390625 -0.02672,-0.0057 -0.01593,-0.0043 -0.03906,-0.0098 0.01191,-0.07793 0.02132,-0.143363 0.03711,-0.24414 0.05419,-0.345942 0.128499,-0.810917 0.210934,-1.314453 0.415389,-2.537281 0.546352,-3.569609 0.689446,-5.482422 0.04497,-0.601048 0.08738,-1.017327 0.132812,-1.279297 0.02847,-0.164161 0.0666,-0.254518 0.07813,-0.289063 0.01574,-0.01184 0.02748,-0.02255 0.04883,-0.03516 0.07271,-0.04291 0.178057,-0.100214 0.304684,-0.164062 0.253255,-0.127696 0.587767,-0.282685 0.933584,-0.433594 0.691637,-0.301818 1.502719,-0.595637 1.660138,-0.626953 0.0175,-0.0035 0.01537,-0.0025 0.02344,-0.0039 -0.0092,-0.0036 -0.02635,-0.01744 0.02539,0.0332 0.145072,0.141987 0.468811,0.554124 1.058582,1.34375 0.660079,0.883754 2.813558,3.890012 4.765574,6.652343 2.539721,3.59401 3.821775,5.408641 4.527295,6.320313 0.35276,0.455835 0.534265,0.685389 0.779289,0.851562 0.122511,0.08308 0.315776,0.158418 0.50976,0.125 0.193983,-0.03341 0.295893,-0.132031 0.341793,-0.169921 0.215036,-0.177509 0.220737,-0.280326 0.28906,-0.429688 0.06832,-0.149363 0.134959,-0.320497 0.19531,-0.5 0.120698,-0.359011 0.22656,-0.688593 0.22656,-1.033203 0,-0.251925 -0.05366,-0.252273 -0.0918,-0.332031 -0.03814,-0.07976 -0.08408,-0.168376 -0.144529,-0.273438 -0.120896,-0.210126 -0.293357,-0.487402 -0.51562,-0.833984 -0.444524,-0.693162 -1.090884,-1.661908 -1.912088,-2.865235 -1.642409,-2.406655 -3.982839,-5.75356 -6.783131,-9.691406 -0.561747,-0.789941 -1.079412,-1.518664 -1.462875,-2.058594 -0.383464,-0.53993 -0.664788,-0.935995 -0.648431,-0.912109 -6.29e-4,-9.18e-4 -0.07955,-0.09431 -0.119138,-0.123047 -0.03959,-0.02875 -0.07426,-0.04585 -0.105468,-0.05859 -0.0624,-0.02546 -0.106108,-0.03309 -0.140624,-0.03711 -0.06903,-0.0081 -0.109072,-0.0036 -0.144529,0 -0.07091,0.0071 -0.123843,0.01985 -0.187498,0.03516 -0.12731,0.03062 -0.281565,0.07676 -0.464839,0.136719 -0.366549,0.119927 -0.847153,0.294662 -1.369127,0.501953 -0.507369,0.201496 -1.002445,0.386389 -1.38475,0.517578 -0.191154,0.0656 -0.35499,0.118243 -0.472652,0.152344 -0.02219,0.0064 -0.0018,0.0033 -0.02344,0.0078 -0.0015,-0.0045 0.0015,8.94e-4 0,-0.0039 -0.08589,-0.277923 -0.212359,-0.946407 -0.429684,-2.193359 -0.144999,-0.831963 -0.451467,-2.247132 -0.689445,-3.1875 -0.115462,-0.456247 -0.219517,-0.906011 -0.294919,-1.257813 -0.0377,-0.175899 -0.06986,-0.326863 -0.08984,-0.439453 -0.01082,-0.06092 -0.0099,-0.05733 -0.01367,-0.08984 0.0091,-0.02969 0.0241,-0.08416 0.06055,-0.140626 0.07991,-0.123916 0.208975,-0.29894 0.369136,-0.496093 0.320321,-0.394306 0.765401,-0.885488 1.224597,-1.359375 0.459195,-0.473888 0.934619,-0.93337 1.316392,-1.263672 0.190886,-0.165151 0.359453,-0.297143 0.478511,-0.378906 0.01563,-0.01073 -0.0098,-0.002 0.0059,-0.0098 0.07911,0.05253 0.165607,0.112127 0.302731,0.208984 0.340284,0.240359 0.856237,0.613861 1.568343,1.140625 1.424207,1.053531 3.63808,2.714376 6.847582,5.134766 1.149414,0.866812 2.130196,1.573567 2.849578,2.058594 0.359693,0.242514 0.652643,0.427989 0.880851,0.55664 0.114104,0.06433 0.209208,0.114707 0.30859,0.154297 0.04969,0.01979 0.09766,0.0395 0.171873,0.05273 0.0742,0.01323 0.193869,0.0514 0.388668,-0.06836 0.253598,-0.155902 0.237443,-0.255596 0.285153,-0.363281 0.04771,-0.107684 0.08962,-0.22708 0.130858,-0.365234 0.08248,-0.276311 0.162358,-0.626088 0.23242,-1.015625 0.03874,-0.215418 0.04765,-0.557221 -0.117187,-0.863282 -0.164831,-0.306059 -0.433479,-0.582942 -0.90038,-0.99414 -0.933803,-0.822397 -2.70408,-2.164955 -6.1347,-4.753907 -2.167915,-1.636038 -3.681122,-2.766112 -4.710888,-3.519531 -1.029766,-0.75342 -1.534545,-1.112398 -1.857401,-1.277343 -0.125909,-0.06433 -0.401901,-0.108715 -0.59765,-0.04102 -0.195748,0.06769 -0.335737,0.173639 -0.529291,0.332031 -0.387113,0.316784 -0.970326,0.877961 -2.0449,1.923828 -0.638911,0.621844 -1.233754,1.188325 -1.671857,1.595703 -0.146035,0.135794 -0.240897,0.222102 -0.347653,0.31836 -0.104551,-0.158402 -0.219592,-0.333377 -0.345757,-0.550712 -0.327798,-0.564668 -0.978995,-1.646027 -1.457016,-2.419921 -0.233622,-0.378227 -0.455507,-0.757026 -0.621087,-1.056641 -0.08279,-0.149808 -0.149409,-0.282101 -0.197263,-0.378906 -0.04785,-0.09681 -0.07981,-0.191714 -0.06445,-0.13086 -1.44e-4,-5.71e-4 -0.0083,-0.163946 0.265621,-0.714843 0.273955,-0.5508964 0.788461,-1.4370526 1.644514,-2.8613285 1.05888,-1.7617329 1.600206,-2.6571547 1.896464,-3.0605469 0.148128,-0.201696 0.229714,-0.2615707 0.226561,-0.2597656 -0.0032,0.00181 -0.04758,0.00586 0.06445,0.00586 -0.07088,0 9.29e-4,-2.119e-4 0.07422,0.013672 0.07328,0.013884 0.178453,0.035471 0.306638,0.064453 0.256368,0.057966 0.609285,0.1444191 1.027333,0.25 0.836095,0.211162 1.936921,0.5028032 3.099575,0.8242187 2.977254,0.8230604 5.105163,1.3960137 6.533133,1.7539063 0.713985,0.1789463 1.25265,0.3030928 1.642561,0.3808594 0.194955,0.038883 0.350558,0.066134 0.482416,0.082031 0.131861,0.015897 0.207843,0.042695 0.40234,-0.00586 0.213206,-0.053227 0.37761,-0.2027104 0.476558,-0.3535156 0.09895,-0.1508051 0.155751,-0.3098465 0.199216,-0.4882812 C 60.764691,6.139224 60.7969,5.6970081 60.7969,5.1308592 60.7969,4.8782033 60.8214,4.669318 60.662136,4.410156 60.502806,4.1510423 60.253199,4.0751518 60.052763,4.0117188 59.005648,3.6803347 55.799247,2.7453825 52.705186,1.859375 51.158155,1.4163713 49.640479,0.9868225 48.445466,0.65234375 47.250453,0.317865 46.405566,0.08555429 46.097835,0.015625 46.033781,0.00106919 45.917388,-0.00628051 45.791199,0.0078125 Z m 0.146482,0.98046875 c 0.242931,0.0571933 1.081096,0.28439745 2.242164,0.60937495 1.192091,0.3336608 2.706334,0.7624921 4.251907,1.2050782 3.091144,0.8851722 6.32044,1.8255529 7.322187,2.1425781 0.03537,0.011195 0.03054,0.010883 0.04883,0.017578 0.0044,0.040056 0.0098,0.080502 0.0098,0.1679688 0,0.5246252 -0.03846,0.9138419 -0.0918,1.1328125 -0.01466,0.060189 -0.02234,0.070191 -0.03516,0.1015625 -0.08966,-0.0118 -0.20989,-0.031524 -0.374996,-0.064453 C 58.949987,6.22886 58.418802,6.1046433 57.712946,5.9277344 56.301234,5.5739164 54.179196,5.0037994 51.205203,4.1816406 50.036241,3.8584816 48.92822,3.565234 48.082189,3.3515625 47.659175,3.2447268 47.303433,3.1587175 47.033372,3.0976562 c -0.13503,-0.030531 -0.247599,-0.05479 -0.33984,-0.072266 -0.09224,-0.017475 -0.133737,-0.033203 -0.259762,-0.033203 -0.122957,0 -0.34887,0.00723 -0.554682,0.125 -0.205812,0.1177699 -0.350161,0.2866373 -0.531244,0.5332031 -0.362164,0.4931319 -0.888218,1.374743 -1.947245,3.1367188 -0.859193,1.4295002 -1.376012,2.3190609 -1.679669,2.9296875 -0.303657,0.6106264 -0.437413,0.9942414 -0.337888,1.3886724 0.03638,0.144175 0.07267,0.208454 0.130859,0.326172 0.05819,0.117717 0.134956,0.257329 0.222653,0.416015 0.175394,0.317372 0.402859,0.704455 0.644524,1.095703 0.472562,0.765059 1.125873,1.851558 1.443345,2.398438 0.166657,0.287089 0.330748,0.548035 0.466792,0.746094 0.06802,0.09903 0.12799,0.182263 0.187498,0.253906 0.02975,0.03582 0.05799,0.06763 0.101561,0.107422 0.04358,0.03979 0.04019,0.147982 0.361324,0.15039 4.65e-4,5e-6 0.07715,-0.0064 0.103515,-0.01172 0.02636,-0.0054 0.04608,-0.01003 0.0625,-0.01563 0.03283,-0.01118 0.05409,-0.02108 0.07031,-0.0293 0.03244,-0.01643 0.04867,-0.02852 0.06445,-0.03906 0.03158,-0.02108 0.05311,-0.03875 0.07812,-0.05859 0.05003,-0.03968 0.108778,-0.08798 0.177733,-0.148437 0.137909,-0.12092 0.321809,-0.288633 0.544916,-0.496094 0.446212,-0.414917 1.042142,-0.983173 1.685529,-1.609375 1.072785,-1.044126 1.66731,-1.611293 1.982401,-1.86914 0.103811,-0.08496 0.117004,-0.08705 0.150388,-0.107422 0.169701,0.09634 0.663832,0.422306 1.626936,1.126953 1.021377,0.747281 2.530813,1.876823 4.697215,3.511719 3.429887,2.588398 5.210763,3.941251 6.07806,4.705078 0.433648,0.381912 0.626959,0.619461 0.683586,0.724609 0.05663,0.105148 0.04596,0.06876 0.01758,0.226563 -0.06016,0.334478 -0.129857,0.621749 -0.193358,0.84375 -0.180981,-0.107122 -0.392967,-0.236336 -0.68553,-0.433591 -0.695187,-0.468713 -1.6666,-1.169576 -2.806611,-2.029297 -3.210415,-2.421078 -5.42371,-4.083009 -6.853443,-5.140625 -0.714865,-0.528807 -1.233784,-0.905567 -1.58592,-1.154297 -0.176068,-0.124365 -0.3099,-0.215372 -0.412105,-0.28125 -0.05111,-0.03294 -0.09402,-0.05955 -0.138671,-0.08398 -0.02233,-0.01222 -0.04445,-0.02297 -0.07812,-0.03711 -0.03367,-0.01414 -0.05475,-0.04687 -0.20703,-0.04687 -0.351218,0 -0.429755,0.127499 -0.599602,0.244141 -0.169845,0.116642 -0.358674,0.265591 -0.5664,0.445313 -0.415456,0.359443 -0.905938,0.834117 -1.380845,1.324218 -0.474906,0.490103 -0.933195,0.995401 -1.281236,1.423828 -0.17402,0.214215 -0.319287,0.407803 -0.431636,0.582032 -0.112348,0.174228 -0.228513,0.261061 -0.228513,0.59375 0,0.134997 0.01784,0.205414 0.04102,0.335937 0.02317,0.130522 0.05637,0.291129 0.0957,0.474609 0.07865,0.366963 0.184458,0.825613 0.302731,1.292969 0.229494,0.906838 0.536808,2.327153 0.673821,3.113281 0.217732,1.249294 0.330485,1.898672 0.45898,2.314454 0.06425,0.207889 0.129584,0.384218 0.304684,0.541015 0.1751,0.156799 0.41695,0.1875 0.53515,0.1875 0.21054,0 0.257866,-0.03683 0.400386,-0.07813 0.142522,-0.0413 0.316568,-0.09704 0.517573,-0.166015 0.402012,-0.13795 0.908805,-0.326349 1.429673,-0.533203 0.50627,-0.201056 0.97479,-0.371934 1.312485,-0.482422 0.09982,-0.03266 0.155872,-0.04547 0.228513,-0.06641 0.106139,0.150152 0.195027,0.274753 0.468745,0.660157 0.383635,0.540172 0.902986,1.270469 1.464828,2.060546 2.797768,3.934296 5.136863,7.277781 6.773365,9.675782 0.818253,1.199001 1.461275,2.161238 1.896464,2.839844 0.217595,0.339301 0.381746,0.609765 0.488276,0.794921 0.04482,0.07789 0.07224,0.131085 0.09375,0.173829 -0.01038,0.0703 -0.06667,0.382178 -0.162108,0.666015 -0.02635,0.07839 -0.05288,0.134905 -0.08008,0.205078 -0.09502,-0.101454 -0.125575,-0.119458 -0.320309,-0.371093 -0.671527,-0.867747 -1.962286,-2.689338 -4.501905,-6.283204 -1.954717,-2.766152 -4.097689,-5.756085 -4.783151,-6.673828 -0.590958,-0.791211 -0.888124,-1.19657 -1.156238,-1.458984 -0.134057,-0.131208 -0.284683,-0.244673 -0.474604,-0.294922 -0.189921,-0.05025 -0.35271,-0.01889 -0.457027,0.002 -0.449733,0.08947 -1.14768,0.38024 -1.865214,0.693359 -0.358769,0.15656 -0.70243,0.314892 -0.980458,0.455079 -0.139014,0.07009 -0.262343,0.134575 -0.36523,0.195312 -0.102888,0.06074 -0.170458,0.08644 -0.28906,0.216797 -0.206626,0.227097 -0.246271,0.459633 -0.302731,0.785156 -0.05646,0.325524 -0.102518,0.7573 -0.148436,1.371094 -0.141803,1.895551 -0.263887,2.868664 -0.677727,5.396484 -0.08274,0.505436 -0.156248,0.976998 -0.210936,1.326172 -0.02735,0.174589 -0.05081,0.316343 -0.06641,0.421875 -0.0078,0.05276 -0.01304,0.09702 -0.01758,0.13086 -0.0046,0.03384 -0.01172,-0.007 -0.01172,0.11914 0,0.105433 0.04796,0.262017 0.128906,0.361328 0.08096,0.09931 0.166656,0.146546 0.240231,0.181641 0.14715,0.07019 0.285389,0.101406 0.498042,0.146484 0.425303,0.09015 1.135806,0.203711 2.41013,0.400391 0.683618,0.10551 1.330087,0.214081 1.814433,0.302734 0.242175,0.04432 0.444805,0.08439 0.587885,0.115235 0.03493,0.0075 0.05289,0.01126 0.08008,0.01758 0.0099,0.01738 0.01363,0.02504 0.02539,0.04687 0.06617,0.122891 0.159291,0.311103 0.265622,0.542969 0.212661,0.463731 0.485299,1.104717 0.769523,1.820312 0.99975,2.517119 2.847354,7.326097 4.443311,11.529297 0.797978,2.1016 1.532952,4.051205 2.068338,5.490234 0.267692,0.719515 0.486702,1.311818 0.636711,1.728516 0.075,0.20835 0.131867,0.372042 0.16992,0.484375 -0.0078,0.01167 -0.0084,0.01639 -0.01758,0.0293 -0.07369,0.103976 -0.186778,0.245509 -0.30859,0.378906 l -0.0625,0.06641 C 59.805619,62.319882 59.646511,62.033217 59.105508,60.67974 58.501697,59.169135 57.484532,56.537773 55.7032,51.912161 53.939873,47.333304 53.02182,44.956015 52.488391,43.681693 52.221677,43.044531 52.056178,42.683231 51.904413,42.433646 51.752649,42.18406 51.531829,42.007668 51.388794,41.941458 c -0.160241,-0.07418 -0.278995,-0.09436 -0.466792,-0.134765 -0.187797,-0.04041 -0.418037,-0.08301 -0.67968,-0.126953 -0.523287,-0.08788 -1.1689,-0.181602 -1.808575,-0.263672 -0.639677,-0.08207 -1.271032,-0.152698 -1.765606,-0.195313 -0.247287,-0.0213 -0.458917,-0.0342 -0.6289,-0.03906 -0.08499,-0.0024 -0.158677,-0.0041 -0.230465,0 -0.07179,0.0041 -0.107942,-0.03031 -0.302732,0.07422 -7.13e-4,3.84e-4 -0.07117,0.04637 -0.08984,0.0625 -0.01867,0.01612 -0.0313,0.0287 -0.04102,0.03906 -0.01943,0.02071 -0.0296,0.03455 -0.03906,0.04687 -0.01891,0.02463 -0.03162,0.04222 -0.04492,0.0625 -0.0266,0.04055 -0.05328,0.0872 -0.08594,0.142578 -0.06532,0.11076 -0.150116,0.260066 -0.249997,0.441406 -0.199761,0.362683 -0.460654,0.851343 -0.738273,1.384766 -1.454936,2.795532 -2.507487,4.300859 -3.990192,5.732422 -1.828368,1.765302 -3.441002,2.828958 -5.093696,3.394531 -0.808702,0.276748 -3.185527,0.474612 -4.601512,0.330078 -2.230562,-0.227684 -4.296618,-1.369775 -6.802661,-3.845703 -1.617399,-1.597962 -2.688368,-3.151838 -3.939412,-5.732422 l -1.025379,-2.111328 -1.749981,0.08984 c -0.837633,0.04296 -1.731128,0.134322 -2.49802,0.248047 -0.766891,0.113726 -1.374284,0.231264 -1.781231,0.40039 -0.124364,0.05169 -0.367422,0.188908 -0.529291,0.41211 -0.161869,0.223201 -0.308226,0.522166 -0.539056,1.05664 -0.461663,1.068949 -1.237627,3.087711 -2.7792678,7.091797 -2.4773683,6.434439 -3.681234,9.564406 -4.2968288,11.068359 -0.2412381,0.589367 -0.3394706,0.774255 -0.4257768,0.941407 -0.00139,-0.0014 -0.00252,-0.0025 -0.00391,-0.0039 -0.226259,-0.225049 -0.254691,-0.271517 -0.2617168,-0.443359 -0.00702,-0.171844 0.074515,-0.54057 0.2929655,-1.175781 0.7633061,-2.219543 5.3888032,-14.454122 6.8983637,-18.240234 0.437238,-1.096636 0.699966,-1.731902 0.869131,-2.066407 0.08354,-0.165189 0.14461,-0.250333 0.167967,-0.277343 -0.03046,0.01071 0.06643,-0.01324 0.197264,-0.03711 0.144135,-0.02629 0.342081,-0.06191 0.578119,-0.101562 0.472077,-0.07931 1.096792,-0.179028 1.75584,-0.28125 1.331223,-0.206484 2.032385,-0.317979 2.445286,-0.410157 0.20645,-0.04609 0.341693,-0.07211 0.503901,-0.171875 0.08111,-0.04988 0.176028,-0.135265 0.234372,-0.248046 0.05834,-0.11278 0.06641,-0.225494 0.06641,-0.28711 0,-0.103703 -0.0063,-0.09168 -0.01172,-0.132812 -0.0055,-0.04113 -0.01408,-0.09179 -0.02344,-0.154297 -0.01873,-0.125016 -0.04538,-0.294972 -0.07813,-0.498047 -0.06549,-0.40615 -0.154844,-0.947728 -0.253903,-1.527344 -0.194007,-1.135173 -0.446271,-3.077999 -0.554682,-4.271484 -0.05528,-0.608619 -0.111776,-1.189312 -0.158202,-1.638672 -0.02321,-0.22468 -0.04349,-0.416138 -0.06055,-0.5625 -0.01706,-0.146363 -0.02212,-0.217179 -0.04297,-0.316406 -0.06535,-0.311024 -0.269019,-0.468079 -0.48437,-0.613282 -0.215335,-0.145255 -0.492289,-0.28571 -0.867161,-0.457082 -0.5664,-0.258932 -1.175878,-0.521006 -1.669904,-0.720703 -0.247014,-0.09985 -0.465308,-0.184677 -0.636712,-0.246094 -0.0857,-0.03071 -0.158174,-0.0564 -0.224607,-0.07617 -0.06644,-0.01978 -0.08242,-0.04297 -0.249997,-0.04297 -0.16292,0 -0.222822,0.04942 -0.267575,0.07617 -0.04475,0.02675 -0.06913,0.04681 -0.0918,0.06641 -0.04534,0.03919 -0.07825,0.07421 -0.115232,0.115234 -0.07395,0.08205 -0.160158,0.188377 -0.273435,0.333984 -0.226555,0.291216 -0.557135,0.736364 -1.027333,1.386719 -0.940397,1.300712 -2.4381293,3.416963 -4.7421366,6.689453 -1.9180381,2.724281 -3.1386552,4.438898 -3.9101143,5.476563 -0.3857296,0.518831 -0.6602896,0.868677 -0.8437409,1.082031 -0.00997,0.0116 -0.012041,0.01265 -0.021484,0.02344 -0.0465,-0.08073 -0.091308,-0.142221 -0.1347609,-0.248047 -0.073921,-0.180027 -0.1317581,-0.381008 -0.1562483,-0.533203 -0.0183677,-0.114147 0.00342,-0.201864 -0.00391,-0.203125 0.032335,-0.05596 0.2503324,-0.399925 0.580072,-0.888672 0.3406794,-0.504962 0.801973,-1.180064 1.3437355,-1.964844 1.083525,-1.569561 2.4872491,-3.58098 3.8827708,-5.568359 1.3955219,-1.987379 2.7847185,-3.951672 3.8398027,-5.427735 0.527543,-0.738031 0.970181,-1.354714 1.289048,-1.789062 0.143031,-0.194832 0.252532,-0.336714 0.339841,-0.451172 0.07822,0.02509 0.145559,0.0439 0.253903,0.08203 0.337586,0.118817 0.799613,0.29441 1.294908,0.494141 0.537571,0.21678 1.036631,0.400576 1.433579,0.529297 0.198472,0.06436 0.370512,0.114714 0.517572,0.15039 0.147061,0.03568 0.223428,0.0757 0.439448,0.05078 0.08746,-0.01009 0.255671,-0.01968 0.42773,-0.144532 0.172061,-0.124845 0.254754,-0.300059 0.310543,-0.466797 0.111579,-0.333476 0.181605,-0.795906 0.339841,-1.732421 0.173412,-1.026332 0.528017,-2.750731 0.779288,-3.792969 0.132975,-0.551557 0.241884,-1.072058 0.31445,-1.484375 0.03628,-0.20616 0.06202,-0.384918 0.07813,-0.533203 0.01609,-0.148286 0.05367,-0.207545 -0.0039,-0.435547 -0.04044,-0.160272 -0.08391,-0.194406 -0.126951,-0.257813 -0.04305,-0.06341 -0.0906,-0.127573 -0.148437,-0.199219 C 18.074254,17.802022 17.9236,17.630092 17.746583,17.435548 17.392549,17.046461 16.932921,16.569027 16.4673,16.101563 16.001678,15.6341 15.531819,15.18071 15.154814,14.835939 c -0.188503,-0.172386 -0.35169,-0.318376 -0.488276,-0.427735 -0.0683,-0.05468 -0.128954,-0.09905 -0.193358,-0.140625 -0.06441,-0.04158 -0.05999,-0.121094 -0.353511,-0.121094 -0.271201,0 -0.390425,0.09648 -0.597651,0.220704 -0.207225,0.12422 -0.481473,0.310298 -0.880849,0.597656 -0.798752,0.574715 -2.097608,1.55453 -4.2636264,3.201172 -2.8887308,2.196057 -4.6848711,3.544387 -5.7929064,4.33789 -0.5540177,0.396752 -0.9380788,0.655273 -1.1874872,0.804688 -0.1247043,0.07471 -0.078591,0.05787 -0.130858,0.07813 -0.062143,-0.160187 -0.1374587,-0.432903 -0.1992167,-0.830078 -0.022963,-0.14768 -0.024468,-0.218165 -0.019531,-0.248047 0.00494,-0.02988 0.00678,-0.05204 0.08203,-0.146485 0.1505023,-0.188885 0.5893845,-0.568746 1.4374845,-1.253906 1.4820767,-1.197334 9.6935472,-7.400179 10.8436342,-8.195312 0.416297,-0.287814 0.661202,-0.437424 0.749991,-0.47461 0.0026,-0.0011 0.0017,-9.18e-4 0.0039,-0.002 0.0063,0.0041 0.0092,0.0048 0.01563,0.0098 0.03857,0.02957 0.09779,0.07729 0.167966,0.136718 0.140362,0.118852 0.32998,0.287749 0.554682,0.492188 0.449405,0.408879 1.033677,0.959365 1.638655,1.546875 l 2.664033,2.585937 0.978506,-1.669921 c 0.354394,-0.604793 1.066475,-1.742123 1.566389,-2.501953 0.326986,-0.496998 0.564575,-0.884096 0.726554,-1.197266 0.161978,-0.31317 0.272566,-0.534477 0.263669,-0.845703 -0.0089,-0.31271 -0.105862,-0.447526 -0.242184,-0.736328 C 22.362178,9.76782 22.167318,9.3996949 21.914501,8.9472656 21.408873,8.0424071 20.668479,6.8022911 19.705541,5.2480469 19.0947,4.2621056 18.780342,3.7446871 18.447743,3.4042969 18.281441,3.2341016 18.08079,3.0992476 17.861811,3.046875 17.642831,2.994502 17.454357,3.019288 17.285645,3.042965 17.115021,3.066914 16.93893,3.116508 16.576669,3.2070274 16.214407,3.2975474 15.724914,3.4241505 15.14309,3.5761681 13.979446,3.8802033 12.44506,4.2886741 10.816965,4.730465 9.1928047,5.1711919 7.6535787,5.5751099 6.4849802,5.8691406 5.900681,6.0161561 5.4085256,6.1358174 5.0474956,6.21875 4.8669807,6.2602163 4.7192846,6.2930607 4.6119534,6.3144531 4.5046224,6.3358454 4.4112596,6.3436191 4.4557051,6.3417969 L 4.3385189,6.3476562 4.2994568,6.0917969 C 4.2290068,5.6504836 4.2315586,5.3211078 4.2721134,5.1386719 4.3126679,4.956236 4.3421797,4.9460678 4.3912527,4.9238281 4.4000153,4.9198569 4.7184583,4.8060446 5.1373385,4.6757812 5.5562186,4.5455178 6.1186125,4.3758795 6.7720865,4.1835938 8.0790345,3.7990224 9.7563725,3.3193165 11.42438,2.8496094 13.092386,2.3799021 14.751048,1.920888 16.020034,1.5800781 16.654527,1.4096732 17.192789,1.2693498 17.582517,1.171875 c 0.194865,-0.048737 0.351452,-0.08672 0.462886,-0.1113281 0.09121,-0.020143 0.131476,-0.021717 0.09766,-0.023437 0.0046,0.00579 -0.0043,8.281e-4 0.01172,0.015625 0.07567,0.069847 0.232849,0.2587353 0.464839,0.5996094 0.46398,0.6817482 1.241974,1.9674474 2.621065,4.2792968 0.845021,1.416558 1.372451,2.2804775 1.732403,2.8085938 0.179976,0.264058 0.314912,0.4426926 0.45312,0.5839844 0.138208,0.1412917 0.313042,0.2871093 0.582025,0.2871093 0.18809,0 0.19141,-0.030592 0.238279,-0.048828 0.04687,-0.018237 0.09067,-0.038658 0.140624,-0.0625 0.09992,-0.047685 0.219135,-0.1112184 0.359371,-0.1875 0.280472,-0.1525633 0.639108,-0.3587369 1.013661,-0.5859375 1.63258,-0.9903082 2.785234,-1.5340473 3.673789,-1.7675781 1.045636,-0.2748162 3.140609,-0.3413081 4.396436,-0.1230469 1.669338,0.2901298 2.591507,0.7107803 5.363224,2.4589844 l 1.039052,0.65625 0.5039,-0.6601563 C 40.814004,9.1898297 40.879513,9.0835422 41.01,8.8769531 41.140488,8.6703641 41.311568,8.3945803 41.513901,8.0664062 41.918564,7.410058 42.444768,6.5461823 42.994354,5.6347656 44.457478,3.2083725 45.214304,1.9571323 45.62909,1.3632812 45.814352,1.0980407 45.910964,1.0137649 45.937681,0.98828125 Z M 28.381229,22.746094 c -0.212424,-0.0191 -0.427356,-0.009 -0.638664,0.02734 -0.422618,0.07259 -0.834706,0.253052 -1.212878,0.523437 -0.756348,0.540769 -1.41583,1.41972 -1.980448,2.589844 -1.199515,2.485896 -1.534816,4.549519 -1.417954,8.564453 0.08077,2.775249 0.279537,3.822076 1.111317,5.847656 0.591638,1.440781 1.143977,2.33188 1.915995,3.007813 0.484562,0.424251 0.991137,0.70899 1.531233,0.810547 0.540098,0.101557 1.095939,0.0067 1.621077,-0.246094 0.894837,-0.430873 1.590155,-1.399158 2.52927,-3.195313 0.187544,-0.358697 0.260181,-0.462511 0.380855,-0.671875 0.121958,0.186569 0.25262,0.380162 0.410151,0.591797 0.398952,0.535967 0.852962,1.086953 1.218737,1.414063 0.776126,0.694079 1.654611,1.03224 2.525364,0.892578 0.870752,-0.139662 1.661512,-0.717388 2.382786,-1.625 1.48295,-1.866063 2.197243,-4.423787 2.197243,-7.626953 0,-2.97153 -0.43384,-5.0775 -1.460922,-6.904297 -0.989754,-1.760401 -2.143544,-2.783028 -3.470665,-2.769532 -1.327122,0.0135 -2.538785,1.032929 -3.701132,2.804688 -0.05246,0.07997 -0.0903,0.130447 -0.140624,0.203125 -0.02301,-0.05488 -0.0434,-0.08813 -0.06641,-0.146484 -0.333122,-0.844544 -0.847866,-1.711482 -1.398422,-2.427735 -0.550557,-0.716251 -1.083969,-1.287014 -1.70506,-1.519531 -0.09615,-0.03599 -0.195314,-0.04318 -0.292966,-0.06641 v -0.02734 l -0.123045,-0.002 c -0.07195,-0.01316 -0.142528,-0.04233 -0.214842,-0.04883 z m 9.23037,7.583984 c -0.01572,-3.7e-5 0.181038,0.05067 0.37109,0.201172 0.07703,0.061 0.152738,0.138542 0.224606,0.220703 0.05445,0.08511 0.103468,0.175565 0.160156,0.257813 -0.0061,0.0012 -0.01154,0.0028 -0.01758,0.0039 -0.01864,-0.01004 -0.0373,-0.02007 -0.0625,-0.01172 -0.202759,0.06713 -0.285413,0.178071 -0.357417,0.28125 -0.07201,0.103178 -0.122066,0.214333 -0.148436,0.349609 -0.06986,0.358371 -0.01876,0.681999 0.240231,0.94336 0.0201,0.02028 0.05993,0.03166 0.08594,0.05078 0.02322,0.01649 0.04726,0.03028 0.07422,0.04492 0.13845,0.07746 0.305888,0.13503 0.486322,0.07813 0.01371,-0.0043 0.01524,-0.01752 0.02344,-0.02539 0.03253,-0.01686 0.05656,-0.03809 0.07422,-0.0625 0.01404,0.186637 0.09737,0.305157 0.08594,0.498047 -0.04673,0.788839 -0.295617,1.551006 -0.5664,1.871094 -0.127624,0.150864 -0.150738,0.160605 -0.16992,0.167969 -0.01918,0.0073 -0.128835,0.02754 -0.398432,0.02344 -0.162057,-0.0024 -0.328328,-0.01166 -0.457027,-0.02344 -0.05287,-0.0048 -0.103894,-0.01479 -0.14453,-0.02344 -0.02042,-0.0252 -0.07712,-0.08407 -0.130858,-0.195312 -0.08197,-0.169675 -0.164414,-0.4248 -0.230466,-0.712891 -0.0078,-0.03783 -0.01418,-0.07803 -0.02148,-0.117187 -0.05004,-0.244083 -0.08238,-0.511919 -0.103515,-0.78125 -0.01495,-0.181409 -0.02295,-0.361522 -0.02539,-0.539063 -6.7e-4,-0.04883 -0.0023,-0.09856 -0.002,-0.146484 0.0054,-0.168577 0.01942,-0.330791 0.04102,-0.482422 0.07607,-0.53397 0.253872,-1.010975 0.455073,-1.351563 0.01865,-0.03383 0.03693,-0.07312 0.05469,-0.103515 0.210814,-0.316483 0.420859,-0.416104 0.458979,-0.416016 z m -8.021398,0.02148 c 0.01787,5.21e-4 0.03926,0.005 0.06445,0.01172 0.002,0.0032 0.0029,-0.0024 0.134764,0.06836 0.153802,0.08247 0.241201,0.402488 0.365231,0.585937 -0.04398,0.0078 -0.08648,0.01737 -0.121093,0.03516 -0.0079,0.0041 -0.01208,0.0095 -0.01953,0.01367 -0.0089,0.0026 -0.02149,-8.94e-4 -0.0293,0.0039 -0.02614,0.01607 -0.03142,0.03416 -0.05273,0.05078 -0.04275,0.03285 -0.08022,0.06661 -0.107421,0.101562 -0.06379,0.08081 -0.10732,0.160853 -0.132811,0.232422 -0.01149,0.03225 -0.01123,0.06226 -0.01953,0.09375 -0.01383,0.05182 -0.0239,0.104382 -0.03125,0.15625 -3.64e-4,0.0026 3.58e-4,0.0052 0,0.0078 -0.0035,0.02779 -0.01557,0.05604 -0.01758,0.08398 -0.0013,0.01784 0.0026,0.03682 0.002,0.05469 -0.0049,0.07437 -1.6e-5,0.151464 0.01172,0.230469 0.0029,0.02127 -2.44e-4,0.0408 0.0039,0.0625 0.0154,0.08052 0.05016,0.170593 0.105468,0.265625 0.03009,0.05808 0.05947,0.101861 0.0918,0.134766 0.0035,0.0036 0.0042,0.0062 0.0078,0.0098 0.07719,0.07677 0.173062,0.156311 0.326169,0.199218 0.107251,0.03005 0.235314,0.01262 0.353512,-0.02344 0.01259,-0.0036 0.02486,-0.0072 0.03711,-0.01172 0.03647,-0.01361 0.07909,-0.01953 0.109374,-0.03906 0.0083,-0.0054 0.002,-0.01217 0.0098,-0.01758 0.03423,0.412114 0.13935,0.827396 0.01367,1.296875 -0.214802,0.802427 -0.459221,1.121493 -0.748038,1.257813 -0.223173,0.105338 -0.299032,0.123015 -0.33984,0.123047 -0.04081,3.2e-5 -0.138578,-0.02252 -0.384762,-0.128906 -0.118693,-0.05129 -0.236483,-0.156846 -0.367183,-0.431641 -0.130702,-0.274795 -0.251913,-0.704035 -0.341794,-1.292969 -0.103496,-0.678167 -0.03082,-1.401385 0.160155,-1.974609 0.190969,-0.573223 0.509736,-0.968273 0.757805,-1.085938 0.155603,-0.0738 0.170617,-0.07292 0.158201,-0.07422 z" />
    </g>
  </g>
</svg>
