<?xml version="1.0" encoding="UTF-8" standalone="no"?>
<svg
   width="1024"
   height="256"
   viewBox="0 0 1024 256"
   version="1.1"
   id="svg5"
   inkscape:version="1.2.2 (b0a8486541, 2022-12-01)"
   sodipodi:docname="logo.svg"
   inkscape:export-filename="logo2.png"
   inkscape:export-xdpi="192"
   inkscape:export-ydpi="192"
   xml:space="preserve"
   xmlns:inkscape="http://www.inkscape.org/namespaces/inkscape"
   xmlns:sodipodi="http://sodipodi.sourceforge.net/DTD/sodipodi-0.dtd"
   xmlns="http://www.w3.org/2000/svg"
   xmlns:svg="http://www.w3.org/2000/svg"
   xmlns:rdf="http://www.w3.org/1999/02/22-rdf-syntax-ns#"
   xmlns:cc="http://creativecommons.org/ns#"
   xmlns:dc="http://purl.org/dc/elements/1.1/"><title
     id="title126">WhiteSpider</title><defs
     id="defs10" /><sodipodi:namedview
     id="namedview8"
     pagecolor="#ffffff"
     bordercolor="#666666"
     borderopacity="1.0"
     inkscape:showpageshadow="2"
     inkscape:pageopacity="0.0"
     inkscape:pagecheckerboard="true"
     inkscape:deskcolor="#d1d1d1"
     showgrid="false"
     showguides="false"
     inkscape:zoom="1.2617188"
     inkscape:cx="512"
     inkscape:cy="127.60372"
     inkscape:window-width="1920"
     inkscape:window-height="1030"
     inkscape:window-x="0"
     inkscape:window-y="27"
     inkscape:window-maximized="1"
     inkscape:current-layer="svg5" /><g
     id="g193"><path
       id="path2773"
       style="fill:#ffffff;stroke:none;stroke-width:2.99998;stroke-dasharray:none;stroke-opacity:1;paint-order:markers fill stroke"
       d="m 185.76758,36.000131 c -0.0147,0.0182 0.002,0.008 -0.0293,0.04102 -0.24815,0.262627 -0.70316,0.855369 -1.37109,1.863256 -1.33579,2.015744 -3.54823,5.676646 -7.38867,12.042814 -1.64852,2.732724 -3.23449,5.31912 -4.44727,7.287015 -0.60638,0.983937 -1.11484,1.812186 -1.50586,2.431608 -0.39102,0.619422 -0.58145,0.935938 -0.81445,1.240214 l -1.16016,1.5117 -1.19531,-1.148425 c -7.25018,-6.990829 -15.48806,-10.607752 -23.84766,-10.613142 -8.26057,0.0352 -16.39464,3.594484 -23.57617,10.454944 l -1.01953,0.972638 -1.01953,-0.966778 c -1.31198,-1.241104 -2.73957,-3.680822 -6.67383,-10.273306 -4.13711,-6.9323 -6.47682,-10.79407 -7.86914,-12.839673 -0.69617,-1.022807 -1.16713,-1.588809 -1.39453,-1.798807 -0.0481,-0.0445 -0.0213,-0.02978 -0.0352,-0.04688 0.0845,0.005 -0.0186,0.01102 -0.28711,0.07032 -0.33427,0.0738 -0.80999,0.187828 -1.39453,0.333976 -1.169079,0.292296 -2.784194,0.71359 -4.687499,1.224594 -3.806612,1.022006 -8.783538,2.398059 -13.787109,3.80659 -5.003577,1.408532 -10.028715,2.848673 -13.949219,4.001898 -1.960252,0.576613 -3.64776,1.078116 -4.904297,1.468731 -1.256537,0.390625 -2.211882,0.73806 -2.238281,0.74999 -0.146126,0.0662 -0.236049,0.09648 -0.357422,0.644522 -0.121167,0.546923 -0.128143,1.53386 0.08203,2.853483 v 0.0059 l 0.123047,0.75585 0.351563,-0.01172 c -0.133415,0.005 0.140905,-0.01793 0.46289,-0.08203 0.321988,-0.0642 0.765105,-0.162738 1.306641,-0.287106 1.083081,-0.248727 2.559625,-0.607912 4.3125,-1.048816 3.505747,-0.881809 8.121878,-2.088573 12.994141,-3.410106 4.884102,-1.324773 9.48755,-2.555307 12.978515,-3.466755 1.745489,-0.455724 3.219842,-0.830209 4.306641,-1.101546 1.086805,-0.271346 1.609482,-0.420414 2.121094,-0.492183 0.506095,-0.071 1.071595,-0.145468 1.728515,0.01172 0.65693,0.157197 1.26526,0.561882 1.76367,1.072246 0.99681,1.020736 1.92938,2.567086 3.76172,5.523368 2.77115,4.470912 4.91362,8.055145 6.4043,10.70884 0.74533,1.326853 1.3324,2.421289 1.75781,3.296838 0.4254,0.875498 0.68882,1.457121 0.82031,2.126922 l 0.13477,0.662101 -0.42773,0.539053 c -3.61926,4.511172 -6.80045,9.864542 -9.41602,15.890424 l -0.84375,1.957004 -7.910158,-7.66787 h -0.0059 c -1.814901,-1.761737 -3.562146,-3.406666 -4.910156,-4.63275 -0.674007,-0.613052 -1.248913,-1.120145 -1.669922,-1.476541 -0.210539,-0.178167 -0.382373,-0.321506 -0.498047,-0.410154 -0.0228,-0.0174 -0.03669,-0.02096 -0.05859,-0.03516 -0.0069,0.003 -0.0036,0.0029 -0.01172,0.0059 -0.265498,0.110519 -1.001736,0.555313 -2.25,1.417952 -3.449512,2.383869 -28.071166,20.993047 -32.517578,24.58367 -2.544261,2.054633 -3.866975,3.184268 -4.318359,3.749951 -0.225683,0.282836 -0.231394,0.356255 -0.246094,0.445304 -0.01473,0.089 -0.01026,0.301191 0.05859,0.744131 0.185813,1.1943 0.404694,2.01423 0.591797,2.49411 0.154712,-0.06 0.01912,-0.007 0.398437,-0.23437 0.748065,-0.44806 1.906543,-1.22233 3.568359,-2.41208 3.323634,-2.379478 8.707221,-6.430385 17.373047,-13.015459 6.497728,-4.937566 10.392917,-7.871898 12.789063,-9.595575 1.19799,-0.861759 2.015133,-1.420382 2.636719,-1.792947 0.621585,-0.372585 0.984968,-0.656241 1.798828,-0.656241 0.880481,0 0.867354,0.232746 1.060547,0.357415 0.193198,0.124678 0.369329,0.257937 0.574218,0.421874 0.409804,0.327866 0.905089,0.76048 1.470704,1.277324 1.131216,1.033676 2.546203,2.401139 3.943359,3.80268 1.397156,1.401552 2.769706,2.827514 3.832036,3.994088 0.53116,0.583283 0.98881,1.099636 1.33594,1.52928 0.17357,0.214828 0.31613,0.407515 0.44531,0.597653 0.12918,0.190137 0.25366,0.292656 0.375,0.77343 0.11916,0.471963 0.0509,0.520103 0.041,0.666001 -0.0102,0.145948 -0.0228,0.282056 -0.041,0.427734 -0.0367,0.291357 -0.0845,0.609832 -0.11719,0.861309 l -0.0176,0.134768 -0.041,0.123049 c -2.19778,6.798811 -3.696882,14.114017 -4.435553,21.655967 l -0.0293,0.27539 -0.128906,0.25194 c -0.349802,0.67643 -1.315472,1.28469 -1.962891,1.35937 -0.645899,0.0745 -0.88302,-0.04 -1.324218,-0.14649 -0.441205,-0.10641 -0.962962,-0.25879 -1.558594,-0.45117 -1.191276,-0.38473 -2.681599,-0.93169 -4.294922,-1.58201 -1.486076,-0.59902 -2.87177,-1.12547 -3.884766,-1.4824 -0.327085,-0.11524 -0.532088,-0.17635 -0.767578,-0.25195 -0.261959,0.34325 -0.584383,0.769 -1.013672,1.3535 -0.956578,1.30242 -2.284596,3.15212 -3.867187,5.36516 -3.165191,4.42606 -7.333049,10.31981 -11.519531,16.27909 -4.186483,5.95927 -8.395973,11.98867 -11.646485,16.69509 -1.625253,2.35322 -3.009235,4.37248 -4.03125,5.88664 -0.987727,1.46336 -1.641507,2.49371 -1.740234,2.66403 0.0186,0.0147 -0.04232,0.27543 0.01172,0.60937 0.07377,0.45612 0.246519,1.05409 0.46875,1.59373 0.130579,0.31709 0.270001,0.50248 0.410156,0.74413 0.02538,-0.0291 0.03189,-0.0335 0.05859,-0.0644 0.549916,-0.63931 1.374623,-1.6889 2.53125,-3.24411 2.313251,-3.11042 5.98247,-8.2507 11.736328,-16.4197 6.911722,-9.81289 11.396631,-16.15576 14.21875,-20.05638 1.41106,-1.95032 2.407902,-3.28676 3.08789,-4.1601 0.339992,-0.43666 0.59841,-0.75983 0.820313,-1.00584 0.110939,-0.123 0.203893,-0.21655 0.339843,-0.33399 0.06798,-0.0587 0.141231,-0.13075 0.275391,-0.21094 0.134159,-0.0802 0.319299,-0.22264 0.808594,-0.22264 0.501664,0 0.544977,0.0755 0.744141,0.13475 0.199168,0.0592 0.416915,0.13077 0.673828,0.22266 0.513816,0.18381 1.169646,0.43152 1.910156,0.73046 1.48102,0.59792 3.316322,1.38557 5.015625,2.16208 1.124832,0.514 1.949647,0.93511 2.595703,1.37108 0.646058,0.43595 1.257562,0.90724 1.453125,1.83982 0.0033,0.021 0.0257,0.18061 0.0293,0.21679 0.0033,0.0381 0.0019,0.0817 0.0059,0.12305 0.0036,0.0413 0.009,0.0831 0.01172,0.11133 l 0.01172,0.0879 v 0.1582 0.006 c 0.0168,9.09113 1.136627,18.09864 3.287114,26.53482 l 0.23437,0.9199 -0.74414,0.5918 c -0.77792,0.61655 -1.33852,0.61178 -2.63086,0.85546 -1.292347,0.24368 -3.268379,0.55479 -6.404297,1.04099 -1.977636,0.30662 -3.850726,0.60705 -5.267578,0.84374 -0.708428,0.11832 -1.301804,0.22044 -1.734375,0.29883 -0.390475,0.0708 -0.673444,0.14247 -0.585937,0.11133 -0.06954,0.08 -0.252139,0.33998 -0.503907,0.83788 -0.507618,1.0038 -1.3016,2.90292 -2.613281,6.19131 -4.528473,11.35292 -18.403483,48.0429 -20.693359,54.69851 -0.655354,1.90479 -0.899905,3.01122 -0.878907,3.52731 0.02094,0.51609 0.106768,0.65556 0.785157,1.33005 0.0057,0.005 0.01188,0.006 0.01758,0.0117 0.258851,-0.50181 0.54852,-1.0576 1.271484,-2.82418 1.84583,-4.51031 5.452995,-13.90062 12.884766,-33.19488 4.624716,-12.00662 6.956469,-18.05803 8.341797,-21.26339 0.692657,-1.60268 1.131418,-2.49476 1.617187,-3.16402 0.48577,-0.66926 1.214929,-1.08529 1.587891,-1.24023 1.221696,-0.5075 3.049073,-0.85534 5.349609,-1.19529 2.300539,-0.33996 4.975908,-0.61531 7.488281,-0.74413 l 4.664059,-0.24023 0.36915,1.0371 c 8.16523,23.07627 23.57297,37.04528 39.9414,37.07763 16.39307,-0.0388 31.82709,-14.05534 39.97852,-37.18896 l 0.26953,-0.78515 0.81445,-0.16992 c 0.5586,-0.11709 0.85305,-0.0699 1.38867,-0.0469 0.53561,0.0231 1.19168,0.0731 1.93946,0.14063 1.4956,0.13497 3.35629,0.35073 5.21875,0.59179 1.86245,0.24111 3.72673,0.50691 5.23242,0.7617 0.75287,0.12741 1.40977,0.25161 1.95117,0.36915 0.54144,0.11756 0.89195,0.17431 1.35938,0.39061 0.42914,0.19857 1.08578,0.72812 1.54101,1.47654 0.45522,0.74841 0.95191,1.83351 1.75195,3.74409 1.60015,3.8212 4.3548,10.94734 9.64454,24.67742 5.34374,13.87033 8.39616,21.75851 10.20703,26.28872 1.62374,4.06212 2.10139,4.92779 2.32617,5.29681 l 0.1875,-0.19921 c 0.3657,-0.40044 0.69871,-0.82492 0.91992,-1.13671 0.0276,-0.0388 0.0349,-0.0469 0.0586,-0.082 -0.11415,-0.33686 -0.29056,-0.83419 -0.51562,-1.45897 -0.44994,-1.24956 -1.10138,-3.02587 -1.9043,-5.18352 -1.60587,-4.31529 -3.81158,-10.16447 -6.20508,-16.46659 -4.78704,-12.60425 -10.33104,-27.0241 -13.33007,-34.57181 -0.85257,-2.14561 -1.67053,-4.06909 -2.3086,-5.45892 -0.31904,-0.69491 -0.5984,-1.26061 -0.79687,-1.62888 -0.0346,-0.0638 -0.0409,-0.0777 -0.0703,-0.1289 -0.083,-0.0192 -0.14474,-0.0355 -0.25196,-0.0586 -0.4293,-0.0926 -1.03126,-0.21257 -1.75781,-0.34571 -1.45309,-0.26628 -3.38691,-0.59183 -5.4375,-0.90819 -3.30563,-0.50996 -5.35447,-0.83277 -6.66602,-1.08397 -0.65576,-0.12561 -1.12304,-0.23029 -1.51757,-0.35156 -0.39453,-0.12126 -0.76664,-0.21069 -1.19532,-0.68358 l -0.5332,-0.58007 0.19922,-0.76171 c 2.08269,-8.21465 3.18288,-16.96522 3.24609,-25.81022 1.2e-4,-0.0156 -9e-5,-0.0316 0,-0.0469 v -0.12304 l 0.0234,-0.11718 v -0.006 -0.006 c 0.17025,-0.97833 0.30629,-1.66868 0.91406,-2.33591 0.35573,-0.3908 0.55856,-0.46242 0.86719,-0.64452 0.30862,-0.18213 0.67286,-0.37575 1.08984,-0.58594 0.83394,-0.42034 1.86918,-0.90748 2.94532,-1.37693 2.1522,-0.93888 4.24067,-1.80593 5.58984,-2.07419 0.31281,-0.0626 0.80728,-0.15598 1.37695,-0.006 0.56964,0.15033 1.0213,0.49135 1.42383,0.88475 0.80511,0.78679 1.69586,1.99838 3.46875,4.37104 2.05652,2.75224 8.47998,11.72093 14.34375,20.01536 7.61846,10.77645 11.49714,16.24278 13.51172,18.8435 0.58479,0.75495 0.67595,0.8037 0.96094,1.10742 0.0812,-0.2095 0.1558,-0.38138 0.23437,-0.61523 0.28593,-0.85153 0.46147,-1.78815 0.49219,-1.99803 -0.0644,-0.12818 -0.14658,-0.28774 -0.28125,-0.52147 -0.31955,-0.5552 -0.81802,-1.3595 -1.4707,-2.37692 -1.30538,-2.03482 -3.23497,-4.92805 -5.68946,-8.52333 -4.90893,-7.19051 -11.92157,-17.21013 -20.31445,-29.00743 -1.6854,-2.36905 -3.24299,-4.55925 -4.39453,-6.17961 -0.82105,-1.15534 -1.0928,-1.53477 -1.41211,-1.9863 -0.21689,0.0627 -0.38261,0.10778 -0.67969,0.20507 -1.01261,0.33154 -2.41855,0.84426 -3.9375,1.44724 -1.5622,0.62014 -3.08354,1.17955 -4.28906,1.59373 -0.60275,0.20709 -1.11751,0.37981 -1.54492,0.50391 -0.42741,0.12414 -0.56831,0.23437 -1.20117,0.23437 -0.36075,0 -1.05564,-0.0872 -1.57032,-0.52734 -0.51465,-0.44019 -0.72386,-0.96246 -0.91406,-1.54099 l -0.0469,-0.14649 -0.0195,-0.16405 c -0.75826,-7.68434 -2.30297,-15.127787 -4.57422,-22.030967 l -0.11133,-0.322266 0.0469,-0.333975 c 0.11073,-0.8008 0.40733,-1.126556 0.75586,-1.650369 0.34852,-0.523823 0.79285,-1.105256 1.31836,-1.746067 1.051,-1.281664 2.41536,-2.785604 3.82031,-4.230415 1.40493,-1.444821 2.8418,-2.829273 4.06446,-3.88277 0.6113,-0.526753 1.16844,-0.970247 1.66992,-1.312483 0.50148,-0.342235 0.73744,-0.70897 1.77539,-0.70897 0.45687,0 0.52594,0.08653 0.62695,0.128908 0.10101,0.0424 0.17319,0.08052 0.24024,0.117178 0.13386,0.0732 0.26274,0.147308 0.41601,0.246097 0.30655,0.197518 0.70242,0.470864 1.23047,0.843739 1.05611,0.74575 2.60779,1.883136 4.75195,3.468705 4.28839,3.171119 10.93564,8.150164 20.56641,15.40995 3.41987,2.577936 6.32802,4.681995 8.41406,6.087805 0.87768,0.59148 1.51939,0.9716 2.0625,1.29296 0.1899,-0.66509 0.39435,-1.51681 0.57422,-2.51755 0.0853,-0.47342 0.12297,-0.37008 -0.0469,-0.68553 -0.16976,-0.315446 -0.75032,-1.028376 -2.05078,-2.173802 -2.60097,-2.29083 -7.94525,-6.349657 -18.23438,-14.111146 -6.49888,-4.902366 -11.02796,-8.290422 -14.0918,-10.531113 -2.89263,-2.115472 -4.37995,-3.08779 -4.88671,-3.374956 -0.10065,0.0614 -0.14087,0.06269 -0.45118,0.316406 -0.94524,0.77283 -2.72126,2.474538 -5.93945,5.605397 -1.85733,1.806916 -3.55363,3.425405 -4.83984,4.62298 -0.64311,0.598782 -1.17825,1.089756 -1.59375,1.457011 -0.20778,0.183627 -0.38201,0.332895 -0.53321,0.457034 -0.15111,0.124138 -0.20626,0.196417 -0.49804,0.357415 l -1.41797,0.77928 -0.64453,-1.482401 c -2.58301,-5.883063 -5.70725,-11.120095 -9.25196,-15.544717 l -0.38672,-0.474604 0.0762,-0.609362 c 0.24935,-2.132793 1.74994,-4.527841 6.09961,-11.761567 3.17694,-5.283462 4.76672,-7.923377 5.85351,-9.402228 0.54338,-0.73943 0.97046,-1.246484 1.58789,-1.599589 0.61742,-0.353086 1.29514,-0.374995 1.66407,-0.374995 0.37823,0 0.50255,0.04721 0.77929,0.09961 0.27672,0.0524 0.61454,0.119349 1.01953,0.210938 0.80998,0.183187 1.87774,0.447114 3.14649,0.76757 2.53749,0.640931 5.86058,1.52119 9.36719,2.490197 8.92165,2.465328 15.2944,4.174696 19.52929,5.236262 2.11742,0.530793 3.69942,0.903248 4.78125,1.119126 0.49521,0.0988 0.85594,0.157918 1.125,0.193357 0.039,-0.0945 0.0665,-0.127458 0.11133,-0.310546 0.16068,-0.657471 0.27539,-1.819906 0.27539,-3.392526 0,-0.261776 -0.0164,-0.384505 -0.0293,-0.503903 -0.055,-0.0202 -0.0401,-0.01913 -0.14648,-0.05273 -3.00533,-0.950677 -12.69481,-3.7708 -21.9668,-6.425706 -4.63602,-1.327443 -9.17234,-2.618346 -12.74804,-3.619093 -3.5031,-0.980417 -6.06415,-1.668228 -6.77344,-1.833956 z M 445.30664,67.999715 V 166.2875 h 13.03516 v -34.37651 c 0,-6.77024 0.95443,-12.16072 3.02148,-16.20096 2.06368,-4.07757 5.29698,-6.47062 9.21094,-6.47062 1.68742,0 3.29191,0.57118 4.60351,1.62498 1.30492,1.00592 2.30003,2.40545 3,4.09955 0.59204,1.40155 0.90691,3.2506 1.0918,5.70501 0.2182,2.49737 0.31836,6.86991 0.31836,13.25569 v 26.60707 5.75579 h 13.12695 v -42.89984 c 0,-9.69728 -1.51248,-16.96717 -4.32226,-21.779 l -0.002,-0.002 -0.002,-0.004 c -2.77904,-4.8069 -6.52316,-6.997961 -11.85937,-6.997961 -2.9671,0 -5.60534,0.890658 -8.08985,2.755824 l -0.006,0.0039 -0.006,0.0059 c -2.47809,1.820766 -4.93991,4.775057 -7.28906,8.906137 l -2.79687,4.9179 V 67.999715 Z m 65.25,0 v 16.064241 h 13.03711 V 67.999715 Z m 269.01172,0 v 16.064241 h 13.03516 V 67.999715 Z m 65.51953,0 v 37.563965 l -2.82031,0.66406 c -2.13937,-4.11817 -4.47646,-7.053721 -6.91211,-8.863177 l -0.01,-0.0058 -0.0117,-0.0078 c -2.40767,-1.848106 -5.09149,-2.748004 -8.2539,-2.748004 -5.58868,0 -10.09366,3.095509 -13.90625,9.970571 v 0.002 l -0.002,0.002 c -3.80917,6.82715 -5.76954,15.74787 -5.76954,26.8102 -10e-6,11.06042 1.95952,20.00438 5.76954,26.8766 v 0.002 l 0.002,0.002 c 3.81084,6.82822 8.31485,9.90417 13.90625,9.90417 3.20155,0 5.90796,-0.88494 8.3125,-2.69137 2.40376,-1.80584 4.72799,-4.76405 6.86914,-8.92762 l 2.82617,0.6621 v 9.07215 h 13.12695 V 67.999715 Z m -174.7793,2.343719 c -7.72819,0 -13.35618,2.405599 -17.36523,7.261626 -4.01163,4.859107 -6.11328,11.930815 -6.11328,21.388392 0,7.524928 1.50324,13.362288 4.35937,17.597428 l 0.002,0.002 0.002,0.004 c 2.88624,4.23235 7.44195,7.35581 13.88672,9.36316 l 0.006,0.002 6.67383,2.15036 h 0.002 c 4.18445,1.34181 7.11554,2.83535 8.79687,4.89643 1.6516,1.98827 2.39063,4.6953 2.39063,7.94324 0,3.66633 -1.1422,6.75199 -3.47852,8.88075 -2.34078,2.13279 -5.64757,3.12301 -9.65234,3.12301 -3.9251,0 -7.97343,-0.87351 -12.12305,-2.58395 l -0.01,-0.004 -0.01,-0.004 c -3.34079,-1.42391 -6.77269,-3.52232 -10.26367,-6.00577 v 17.40211 c 3.91538,2.04507 7.81909,3.64332 11.70898,4.71088 4.14303,1.13699 8.25481,1.70115 12.35157,1.70115 8.68684,0 14.81706,-2.44725 18.85351,-7.26943 4.06989,-4.86934 6.23633,-12.49428 6.23633,-23.00948 0,-7.9687 -1.5423,-13.95024 -4.42969,-18.0271 -2.8823,-4.06983 -7.82487,-7.21346 -15.04297,-9.32019 v -0.002 l -7.34375,-2.14645 -0.004,-0.002 c -3.62197,-1.07992 -6.25694,-2.35079 -7.91407,-4.11713 l -0.0137,-0.0137 -0.0137,-0.0137 c -1.5987,-1.79557 -2.33789,-4.23406 -2.33789,-7.078025 0,-3.741251 1.11564,-6.813481 3.47852,-8.790905 2.36028,-1.975235 5.7797,-2.822224 10.09961,-2.822224 3.30075,0 6.76649,0.644282 10.38867,1.904266 2.87393,0.999687 5.79616,2.482307 8.75,4.224555 v -16.95864 c -3.73496,-1.394012 -7.36153,-2.479988 -10.84766,-3.181598 l -0.008,-0.0019 -0.008,-0.002 c -3.78268,-0.80375 -7.451,-1.201165 -11.00709,-1.201165 z M 339.5,72.099271 354.9082,166.2875 h 17.32422 l 11.79492,-72.598669 2.94727,-0.0019 11.92383,72.600619 h 17.32617 l 15.27734,-94.188229 h -13.35742 l -11.3457,69.344799 -2.94727,-0.002 -11.25781,-69.342849 h -14.05469 l -11.25781,69.342849 -2.94531,0.002 -11.34571,-69.344799 z m 203.95117,3.576124 v 20.685281 h -7.96679 v 13.724434 h 7.96679 v 32.36481 c 0,9.05513 1.3629,15.34842 3.6836,18.76147 l 0.002,0.002 c 2.3449,3.36049 6.21867,5.07416 12.23047,5.07416 h 12.24804 v -13.72444 h -6.74414 c -2.9614,0 -5.31903,-0.59721 -6.68164,-2.32223 l -0.008,-0.01 -0.01,-0.0117 c -1.3225,-1.73618 -1.68555,-4.25566 -1.68555,-7.76942 V 110.08511 H 573 V 96.360676 H 556.48828 V 75.675395 Z m 426.52735,18.927494 v 0.0019 c -3.42864,0 -6.23916,0.977267 -8.66407,2.974571 l -0.002,0.002 -0.002,0.0019 c -2.38742,1.949525 -4.64998,5.21807 -6.65039,9.85339 l -2.86719,-0.5703 V 96.360676 H 938.75381 V 166.2875 h 13.03906 v -32.10115 c 0,-7.30339 1.10021,-13.02319 3.50586,-17.18141 h 0.002 v -0.002 c 2.43245,-4.19552 6.23819,-6.52921 10.83008,-6.52922 1.5656,1e-5 3.11996,0.2724 4.63672,0.79686 0.75888,0.23635 1.48789,0.73537 2.23242,1.10156 l -0.0371,-17.447046 c -0.45916,-0.0666 -1.07179,-0.174537 -1.34375,-0.193357 l -0.0508,-0.0039 -0.0527,-0.0078 c -0.5698,-0.0789 -1.08438,-0.117178 -1.5371,-0.117178 z m -361.65235,0.0019 c -8.25181,0 -14.47597,3.117859 -19.18945,9.595571 l -0.002,0.006 c -4.68411,6.48024 -7.10743,15.49962 -7.10743,27.18129 0,11.89592 2.46803,20.97776 7.22461,27.36097 10e-4,0.002 0.003,0.002 0.004,0.004 l 0.002,0.004 c 4.78655,6.33517 11.27146,9.4159 19.96485,9.4159 3.64418,0 7.28841,-0.52088 10.94922,-1.56834 l 0.008,-0.002 0.008,-0.002 c 3.41176,-0.93714 6.83821,-2.35944 10.27734,-4.18353 v -14.19904 c -2.97816,2.12528 -5.93205,3.9325 -8.8457,5.14251 l -0.004,0.002 -0.006,0.002 c -3.676,1.49427 -7.32334,2.25779 -10.91016,2.25779 -4.5086,0 -8.29162,-1.56223 -10.90039,-4.62494 -2.61486,-3.06979 -4.01692,-7.48058 -4.41797,-13.13069 l -0.10938,-1.56833 h 37.56641 v -5.16791 c 0,-11.33815 -2.33354,-20.24463 -6.86133,-26.82582 l -0.002,-0.002 -0.002,-0.002 c -4.49985,-6.581932 -10.21169,-9.695181 -17.64454,-9.695181 z m 136.76563,0 c -3.19474,0 -5.91383,0.901518 -8.35157,2.751914 l -0.006,0.0039 -0.006,0.0039 c -2.43539,1.809256 -4.7706,4.746627 -6.91016,8.865127 l -2.82031,-0.66601 v -9.202944 h -13.03878 v 97.637394 h 13.03907 v -36.78272 l 2.82031,-0.66796 c 2.13819,4.11583 4.47226,7.07553 6.91406,8.93153 2.43597,1.80858 5.15945,2.69332 8.35938,2.69332 5.59141,0 10.09541,-3.07595 13.90625,-9.90417 3.81133,-6.87268 5.77148,-15.81619 5.77148,-26.87856 0,-11.06229 -1.96038,-19.985 -5.76953,-26.81215 l -0.002,-0.002 v -0.002 c -3.81262,-6.875072 -8.31755,-9.968621 -13.90625,-9.968621 z m 154.04101,0 c -8.25181,0 -14.47587,3.117699 -19.18945,9.595571 l -0.002,0.006 c -4.68419,6.4804 -7.10938,15.49978 -7.10938,27.18129 0,11.89592 2.46996,20.97777 7.22656,27.36097 10e-4,0.002 0.003,0.002 0.004,0.004 l 0.002,0.004 c 4.78654,6.33517 11.26955,9.4159 19.96289,9.4159 3.64423,0 7.29051,-0.52092 10.95118,-1.56834 l 0.008,-0.002 0.008,-0.002 c 3.41174,-0.93714 6.83823,-2.35944 10.27734,-4.18353 v -14.19904 c -2.97877,2.12533 -5.93223,3.93255 -8.8457,5.14251 l -0.006,0.002 -0.006,0.002 c -3.67603,1.49427 -7.32141,2.25779 -10.9082,2.25779 -4.5086,0 -8.29356,-1.56223 -10.90234,-4.62494 -2.61484,-3.06979 -4.01495,-7.48059 -4.41602,-13.13069 l -0.11133,-1.56833 h 37.56836 v -5.16791 c 0,-11.33815 -2.33354,-20.24463 -6.86133,-26.82582 l -0.002,-0.002 v -0.002 c -4.4997,-6.581722 -10.21561,-9.695181 -17.64844,-9.695181 z m -388.57617,1.755837 v 69.926824 h 13.03711 V 96.360676 Z m 269.01172,0 v 69.926824 h 13.03516 V 96.360676 Z M 608.23828,107.1574 c 3.34396,0 6.23388,1.74077 8.18945,4.76947 1.99129,2.99533 2.92579,6.84757 2.92579,11.46079 v 1.46483 h -23.95118 l 0.16211,-1.60935 c 0.49361,-4.93255 1.74021,-8.8361 3.91407,-11.66001 l 0.002,-0.002 c 2.16672,-2.8574 5.23792,-4.42378 8.75781,-4.42378 z m 290.80469,0 c 3.34392,0 6.23579,1.74079 8.19141,4.76947 1.99123,2.99532 2.92382,6.84756 2.92382,11.46079 v 1.46483 h -23.94726 l 0.1582,-1.60935 c 0.49397,-4.93627 1.74302,-8.84339 3.91992,-11.66782 l 0.002,-0.002 c 2.16641,-2.85244 5.23526,-4.41597 8.75195,-4.41597 z m -159.90235,1.42968 c 3.96609,0 7.2173,2.32006 9.16993,6.28702 1.98482,3.9727 2.88281,9.45101 2.88281,16.51541 0,7.06354 -0.89842,12.54264 -2.88281,16.51541 v 0.002 c -1.95272,3.96603 -5.20434,6.28508 -9.16993,6.28508 -3.96901,0 -7.24351,-2.3106 -9.25781,-6.27726 l -0.004,-0.008 -0.004,-0.008 c -1.97918,-4.00874 -2.87891,-9.48795 -2.87891,-16.50955 0,-7.02154 0.89693,-12.48383 2.88086,-16.45486 h 0.002 v -0.002 c 2.0116,-4.00851 5.28641,-6.34561 9.26171,-6.34561 z m 93.89063,0 c 3.9677,0 7.22131,2.32053 9.17383,6.29093 l 0.004,0.004 c 1.98232,3.97211 2.87891,9.44749 2.87891,16.5076 0,7.05926 -0.89703,12.53737 -2.87891,16.50955 -1.95232,3.97284 -5.20869,6.29289 -9.17773,6.29289 -3.94397,0 -7.19014,-2.31856 -9.17187,-6.28508 l -0.002,-0.006 -0.002,-0.004 c -1.9512,-3.97059 -2.83203,-9.44524 -2.83203,-16.5076 0,-7.06232 0.88092,-12.53721 2.83203,-16.5076 l 0.002,-0.004 0.002,-0.004 c 1.98173,-3.9665 5.2279,-6.28702 9.17187,-6.28702 z" /><path
       id="path2764"
       style="fill:#000000;stroke:none;stroke-width:2.99999;stroke-dasharray:none;paint-order:markers fill stroke"
       d="m 185.40234,32.010519 c -0.68769,0.06315 -1.31992,0.482921 -1.80468,0.996089 -0.4848,0.513172 -0.98752,1.202148 -1.69336,2.267568 -1.41173,2.130839 -3.61747,5.782667 -7.45899,12.152289 -1.64438,2.726564 -3.21793,5.302441 -4.42383,7.259734 -0.60294,0.978648 -1.11266,1.803776 -1.49414,2.408192 -0.027,0.04336 -0.0211,0.03428 -0.0469,0.07617 C 161.0961,50.55354 152.69685,46.711383 144.01172,46.705766 h -0.006 c -8.58242,0.03489 -16.88419,3.810341 -24.19922,10.306595 -0.64291,-0.787746 -2.01797,-2.76548 -5.54883,-8.683556 -4.14066,-6.940113 -6.46123,-10.786086 -7.95703,-12.984317 -0.7479,-1.099113 -1.27702,-1.794116 -1.83398,-2.308584 -0.55696,-0.514466 -1.35427,-0.849605 -1.97461,-0.849605 -0.5587,0 -0.6145,0.07396 -0.9961,0.158202 -0.38161,0.08427 -0.87102,0.195717 -1.4707,0.345702 -1.199343,0.29994 -2.827536,0.728525 -4.740234,1.242182 -3.825398,1.027318 -8.803931,2.403027 -13.816406,3.814436 -5.012479,1.41141 -10.054319,2.860873 -13.992188,4.019514 -1.968933,0.57932 -3.663652,1.089738 -4.945312,1.488274 -1.281658,0.398538 -2.030823,0.622391 -2.583984,0.873043 -1.067467,0.483669 -1.763909,1.55858 -2.015625,2.695301 -0.251729,1.136719 -0.198014,2.410636 0.04687,3.943341 l 0.533203,3.351549 2.976562,-0.123047 c 0.36217,-0.01485 0.556816,-0.06708 0.925781,-0.140624 0.368969,-0.07354 0.836,-0.176385 1.394532,-0.304687 1.117059,-0.256602 2.59998,-0.622264 4.365234,-1.066401 3.530513,-0.888273 8.166624,-2.095673 13.054688,-3.42186 4.876221,-1.322977 9.47081,-2.548603 12.949218,-3.457016 1.739206,-0.454206 3.202284,-0.834539 4.271485,-1.101558 1.069201,-0.267018 1.927206,-0.442458 1.822266,-0.427732 0.42231,-0.05927 0.58972,-0.04853 0.6211,-0.04102 0.0314,0.0075 0.074,-0.0026 0.33398,0.263671 0.52002,0.532639 1.543,2.074407 3.36914,5.021462 2.75791,4.450727 4.88455,8.00814 6.33985,10.599563 0.72765,1.295712 1.29163,2.355661 1.67578,3.14647 0.27125,0.558382 0.33226,0.760124 0.41601,0.99023 -3.17709,4.078804 -5.90571,8.858023 -8.30273,14.015562 l -5.038923,-4.886692 c -1.835523,-1.782235 -3.599822,-3.443091 -4.980469,-4.699198 -0.690324,-0.62805 -1.280112,-1.152296 -1.746094,-1.546869 -0.233008,-0.19728 -0.437604,-0.361847 -0.615234,-0.498044 -0.177629,-0.136201 -0.248162,-0.225716 -0.603516,-0.386718 -0.569922,-0.258239 -1.623985,-0.353224 -2.402343,-0.0293 -0.778359,0.32411 -1.520001,0.841353 -2.794922,1.722648 -3.918342,2.708587 -27.999136,20.922537 -32.701172,24.720593 -2.553322,2.062504 -3.900412,3.130741 -4.763672,4.212872 -0.431627,0.541065 -0.745509,1.157971 -0.849609,1.787101 -0.1041,0.629133 -0.02671,1.165328 0.05273,1.675771 0.215549,1.38568 0.463146,2.4579 0.826172,3.32225 0.181529,0.43217 0.387507,0.81994 0.732422,1.18359 0.344911,0.36365 0.921934,0.70898 1.564453,0.70898 0.965614,0 1.424801,-0.36113 2.308594,-0.89062 0.88379,-0.52948 2.06975,-1.3313 3.761718,-2.54296 3.383945,-2.423287 8.777836,-6.475292 17.449219,-13.066343 6.49393,-4.936001 10.38922,-7.874809 12.726563,-9.556599 1.168668,-0.840894 1.952417,-1.36502 2.43164,-1.652335 0.163349,-0.09792 0.0036,-0.04729 0.09375,-0.08203 0.318107,0.25593 0.767801,0.649054 1.294922,1.130855 1.076908,0.984309 2.459466,2.331721 3.832031,3.708968 1.372566,1.377247 2.734163,2.786506 3.75,3.902326 0.507919,0.557911 0.934644,1.042796 1.21875,1.394525 0.0896,0.11094 0.12981,0.174102 0.1875,0.251952 v 0.0078 c -0.0273,0.216209 -0.0635,0.497115 -0.0996,0.767574 -2.148253,6.698214 -3.56865,13.884237 -4.347665,21.251857 -0.325022,-0.079 -0.776724,-0.20589 -1.31836,-0.38086 -1.097635,-0.35459 -2.542566,-0.88314 -4.101562,-1.51171 -1.520339,-0.613 -2.928045,-1.15666 -4.001953,-1.53515 -0.536959,-0.18924 -0.993464,-0.33474 -1.353516,-0.43945 -0.18,-0.0524 -0.327227,-0.0955 -0.498047,-0.1289 -0.08541,-0.0168 -0.16902,-0.0331 -0.310547,-0.041 -0.07077,-0.004 -0.15983,-0.009 -0.292968,0.006 -0.06657,0.007 -0.144035,0.0237 -0.246094,0.0527 -0.102,0.0288 -0.378373,0.16838 -0.38086,0.16991 -0.329323,0.20244 -0.310229,0.23559 -0.36914,0.29883 -0.05892,0.0632 -0.105373,0.12393 -0.158203,0.1875 -0.10569,0.12717 -0.22836,0.2781 -0.375,0.46875 -0.293338,0.38128 -0.680759,0.90943 -1.166016,1.5703 -0.970513,1.32176 -2.309893,3.17726 -3.896484,5.39646 -3.173181,4.43842 -7.341098,10.32876 -11.53125,16.29485 -4.190152,5.96608 -8.408428,12.01051 -11.666016,16.72844 -1.628797,2.35897 -3.016449,4.38802 -4.048828,5.91795 -1.032376,1.52992 -1.637097,2.42725 -1.945313,2.99998 -0.479664,0.89141 -0.367748,1.62661 -0.246093,2.3789 0.12165,0.75229 0.357916,1.51952 0.65625,2.24413 0.298318,0.72462 0.651774,1.39165 1.101562,1.96288 0.224909,0.28563 0.465704,0.55524 0.84375,0.79101 0.378046,0.23577 1.023483,0.45176 1.675781,0.24024 0.508489,-0.16491 0.718213,-0.38235 0.978516,-0.6211 0.260309,-0.23875 0.524125,-0.5248 0.84375,-0.89647 0.639252,-0.74337 1.484163,-1.82847 2.660156,-3.41015 2.351992,-3.16334 6.019469,-8.31133 11.777344,-16.48821 6.909783,-9.81273 11.404897,-16.15638 14.208984,-20.03311 1.40204,-1.93837 2.381963,-3.26154 3.017579,-4.07811 0.167248,-0.21486 0.245009,-0.29553 0.363281,-0.43945 0.449937,0.16158 1.058711,0.40087 1.763672,0.68555 1.433045,0.5787 3.239719,1.35386 4.892578,2.10936 1.056226,0.48277 1.784724,0.86823 2.173828,1.13086 0.15276,0.10311 0.192836,0.14992 0.222656,0.17578 0.0213,8.83361 1.124196,17.55593 3.117188,25.83387 -0.242219,0.0766 -0.05988,0.0204 -0.574219,0.11718 -1.204462,0.22716 -3.179267,0.53979 -6.310547,1.02539 -1.987464,0.30821 -3.863488,0.61009 -5.296875,0.8496 -0.716691,0.11976 -1.31978,0.22206 -1.775391,0.30469 -0.455614,0.0826 -0.606011,0.0879 -1.001953,0.21094 -0.432378,0.13443 -0.930464,0.45484 -1.277343,0.84961 -0.34688,0.39475 -0.610478,0.84688 -0.919922,1.45897 -0.618895,1.22417 -1.407706,3.1312 -2.72461,6.43357 -4.569804,11.45906 -18.347506,47.88141 -20.742187,54.84351 -0.681735,1.98196 -1.084509,3.28672 -1.03125,4.59959 0.05325,1.31285 0.765452,2.41676 1.646484,3.29295 0.308813,0.30711 0.616154,0.57855 0.902344,0.80273 0.143099,0.11208 0.279839,0.21321 0.439453,0.31055 0.15963,0.0973 0.152044,0.29296 0.94336,0.29295 -0.027,0 0.384351,0.0773 0.908203,-0.14647 0.523851,-0.2238 0.810326,-0.59903 1.042968,-0.96094 0.465289,-0.72382 0.935789,-1.78837 1.875,-4.08396 1.878423,-4.5912 5.470585,-13.95246 12.902344,-33.2518 4.624693,-12.00974 6.976105,-18.09946 8.302735,-21.16984 0.663314,-1.53518 1.090365,-2.31157 1.300781,-2.60155 0.210389,-0.28998 0.015,-0.12181 0.328125,-0.25195 0.562271,-0.23364 2.44708,-0.67099 4.646484,-0.99609 2.199403,-0.32509 4.803495,-0.59159 7.207031,-0.71484 l 2.583985,-0.13477 c 8.53931,23.17427 24.48184,37.98625 42.23438,38.02132 h 0.006 c 17.80146,-0.0386 33.78532,-14.92307 42.30469,-38.20296 0.012,4.3e-4 0.006,-5.2e-4 0.0176,0 0.45944,0.0201 1.08565,0.064 1.80469,0.12891 1.43798,0.12978 3.27137,0.33699 5.10352,0.57422 1.83215,0.23724 3.66657,0.50478 5.11523,0.75 0.72432,0.1226 1.35305,0.23791 1.82227,0.33983 0.46923,0.10191 0.84928,0.23889 0.73828,0.1875 0.1416,0.0655 -0.021,-0.13136 0.26367,0.33399 0.2829,0.46538 0.76638,1.48714 1.54688,3.35155 1.56101,3.72879 4.32574,10.87616 9.61523,24.60927 5.34453,13.87595 8.39981,21.76561 10.22461,26.33191 1.8248,4.56629 2.34301,5.78586 3.02344,6.6445 l 1.76953,2.22655 2.64258,-2.88866 c 0.4431,-0.48515 0.84223,-0.97218 1.15429,-1.4121 0.156,-0.21996 0.2922,-0.42195 0.41016,-0.63867 0.1182,-0.21675 0.29297,-0.31698 0.29297,-1.01366 0,-0.36444 -0.0412,-0.34625 -0.0586,-0.41602 -0.018,-0.0698 -0.0332,-0.12907 -0.0527,-0.19336 -0.039,-0.12861 -0.0841,-0.27786 -0.14648,-0.46289 -0.1251,-0.37002 -0.30491,-0.87745 -0.53321,-1.51171 -0.45666,-1.26852 -1.11694,-3.04541 -1.92187,-5.20896 -1.60982,-4.3271 -3.81572,-10.18001 -6.21094,-16.48822 -4.79038,-12.61638 -10.32723,-27.03419 -13.3418,-34.62288 -0.86793,-2.18489 -1.70343,-4.14842 -2.37304,-5.6074 -0.33483,-0.72948 -0.62282,-1.32861 -0.87305,-1.79296 -0.1251,-0.23217 -0.2343,-0.43047 -0.35742,-0.61524 -0.123,-0.18476 -0.0597,-0.34608 -0.73243,-0.70311 -0.35893,-0.19044 -0.41623,-0.16492 -0.59179,-0.21094 -0.1755,-0.046 -0.37485,-0.0887 -0.61524,-0.14062 -0.48078,-0.10377 -1.11187,-0.23248 -1.85742,-0.36915 -1.49112,-0.2733 -3.44426,-0.59967 -5.51953,-0.91991 -3.29993,-0.50923 -5.34921,-0.83397 -6.5625,-1.0664 -0.2469,-0.0473 -0.30735,-0.0776 -0.48633,-0.11719 1.91976,-8.01497 2.99036,-16.44416 3.06446,-24.99012 1.2e-4,-0.0117 0.006,-0.0234 0.006,-0.0352 0.0906,-0.45773 0.20482,-0.73026 0.22852,-0.8203 0.0459,-0.0348 0.0785,-0.0629 0.14063,-0.0996 0.2181,-0.12873 0.54595,-0.30069 0.92578,-0.49219 0.75962,-0.38301 1.75761,-0.84816 2.79492,-1.30078 2.07458,-0.90525 4.50821,-1.79277 4.98047,-1.88671 0.0486,-0.01 0.0402,-0.008 0.0644,-0.0117 -0.0477,-0.0192 -0.0831,-0.0616 0.0879,0.10547 0.4353,0.4255 1.40073,1.6629 3.16992,4.03123 1.97996,2.65048 8.44673,11.6713 14.30274,19.95695 7.61909,10.78019 11.4592,16.22132 13.57617,18.95499 1.05852,1.36683 1.60794,2.04493 2.34375,2.54296 0.36792,0.249 0.95377,0.48155 1.53516,0.38086 0.58143,-0.10068 0.87621,-0.39629 1.01367,-0.50977 0.64515,-0.53243 0.66247,-0.84116 0.86719,-1.28905 0.20459,-0.44791 0.39935,-0.96183 0.58007,-1.5 0.36053,-1.0766 0.68555,-2.06711 0.68555,-3.09959 0,-0.75554 -0.16109,-0.75686 -0.27539,-0.99609 -0.1143,-0.23925 -0.25799,-0.50519 -0.43945,-0.82032 -0.36261,-0.63025 -0.8743,-1.45652 -1.54102,-2.49607 -1.33343,-2.07911 -3.27289,-4.98635 -5.73633,-8.59567 -4.92681,-7.21864 -11.9489,-17.2509 -20.34961,-29.06237 -1.68527,-2.36947 -3.24347,-4.56147 -4.39453,-6.18161 -1.15113,-1.62016 -1.99441,-2.81668 -1.93945,-2.73632 l -0.006,-0.008 c -0.002,-0.003 -0.23279,-0.27705 -0.35156,-0.36328 -0.1188,-0.0862 -0.22861,-0.13759 -0.32227,-0.17577 -0.1872,-0.0764 -0.31828,-0.0993 -0.42187,-0.11133 -0.2073,-0.024 -0.32136,-0.0108 -0.42774,0 -0.2127,0.0216 -0.3775,0.0595 -0.56836,0.10547 -0.38175,0.0919 -0.8333,0.2243 -1.38281,0.40429 -1.09902,0.35992 -2.54758,0.89003 -4.11328,1.51172 -1.52243,0.6045 -3.00762,1.15864 -4.1543,1.55272 -0.57339,0.19707 -1.06511,0.34872 -1.41797,0.45117 -0.0546,0.0159 -0.003,0.008 -0.0586,0.0195 -0.77165,-7.55048 -2.30394,-14.861775 -4.51172,-21.710845 0.003,0.06792 0.0179,-0.03204 0.22852,-0.345701 0.2607,-0.392058 0.66225,-0.924555 1.14843,-1.517571 0.97235,-1.186033 2.29222,-2.639989 3.65039,-4.037092 1.35822,-1.397104 2.75829,-2.743118 3.87891,-3.708968 0.56034,-0.482926 1.05849,-0.870027 1.40625,-1.107417 0.021,-0.0138 -0.0151,1.46e-4 0.006,-0.01172 0.2367,0.15726 0.50221,0.328483 0.9082,0.615232 1.0206,0.720867 2.56326,1.847804 4.69922,3.427719 4.27198,3.159833 10.91458,8.138459 20.54297,15.398368 3.44822,2.599991 6.38424,4.722535 8.54297,6.177705 1.07934,0.72758 1.9578,1.28977 2.64258,1.67577 0.34239,0.19299 0.62764,0.33826 0.92578,0.45704 0.1491,0.0594 0.2988,0.11854 0.52148,0.1582 0.2226,0.0397 0.58126,0.15438 1.16602,-0.20508 0.76071,-0.46755 0.71243,-0.76882 0.85547,-1.0918 0.1431,-0.32298 0.26312,-0.67555 0.38672,-1.08983 0.24719,-0.82855 0.493,-1.87862 0.70312,-3.04686 0.1161,-0.645901 0.14221,-1.671509 -0.35156,-2.589834 -0.49409,-0.918323 -1.30077,-1.754509 -2.70117,-2.988267 -2.80084,-2.467529 -8.11254,-6.490261 -18.4043,-14.255797 -6.50363,-4.907252 -11.0437,-8.29878 -14.13281,-10.558546 -3.08912,-2.259766 -4.60372,-3.337275 -5.57227,-3.832015 -0.37755,-0.19287 -1.19975,-0.325884 -1.78711,-0.123046 -0.58734,0.20283 -1.01292,0.521082 -1.59375,0.996089 -1.16162,0.950013 -2.91105,2.64022 -6.13476,5.777319 -1.84467,1.795072 -3.52381,3.393764 -4.78711,4.570291 -0.39398,0.366928 -0.66356,0.603692 -0.9668,0.878903 -2.36786,-5.057537 -5.06484,-9.732771 -8.18555,-13.746032 0.1335,-0.681525 1.3358,-3.292296 5.54883,-10.300736 3.1766,-5.284236 4.8063,-7.971558 5.69531,-9.1816 0.4445,-0.605021 0.68896,-0.790448 0.67969,-0.785152 -0.009,0.0053 -0.14294,0.01758 0.19336,0.01758 -0.213,0 0.003,0.0052 0.22266,0.04687 0.2199,0.04166 0.53547,0.106388 0.91992,0.193358 0.7689,0.173943 1.82812,0.433196 3.08203,0.749996 2.50784,0.633603 5.81086,1.508542 9.29883,2.472645 8.93159,2.468731 15.31598,4.187613 19.59961,5.261696 2.14184,0.537043 3.75217,0.909083 4.92187,1.142573 0.58479,0.116745 1.05755,0.198333 1.45313,0.246093 0.39558,0.04776 0.6174,0.128159 1.20117,-0.01758 0.64035,-0.159888 1.13864,-0.608323 1.43555,-1.060542 0.297,-0.452219 0.46676,-0.935109 0.59765,-1.470697 0.2616,-1.071177 0.35742,-2.391162 0.35742,-4.089826 0,-0.759194 0.0705,-1.391981 -0.41015,-2.167959 -0.48063,-0.775948 -1.22206,-0.999536 -1.82227,-1.189448 -3.14098,-0.993806 -12.76776,-3.792952 -22.04882,-6.451142 -4.6405,-1.329096 -9.18296,-2.623431 -12.76758,-3.626938 -3.5846,-1.003503 -6.12538,-1.700339 -7.04883,-1.910147 -0.2253,-0.05121 -0.53003,-0.103432 -0.89063,-0.07031 z m 0.36914,2.976549 c 0.70929,0.16578 3.27025,0.853263 6.77344,1.833976 3.57584,1.001046 8.11383,2.293234 12.75,3.621077 9.2723,2.655688 18.96129,5.476769 21.9668,6.427707 0.1062,0.03365 0.0916,0.03255 0.14648,0.05273 0.012,0.119439 0.0293,0.242053 0.0293,0.503903 0,1.573087 -0.11459,2.734885 -0.27539,3.392563 -0.045,0.183142 -0.0723,0.216065 -0.11133,0.310546 -0.2691,-0.03545 -0.6298,-0.0945 -1.125,-0.193358 -1.08189,-0.215943 -2.66376,-0.588192 -4.78125,-1.119136 -4.23501,-1.061889 -10.60737,-2.772195 -19.5293,-5.238258 -3.50671,-0.969286 -6.83157,-1.849109 -9.36914,-2.490223 -1.26877,-0.320557 -2.33646,-0.584337 -3.14648,-0.767575 -0.405,-0.09162 -0.74284,-0.158491 -1.01953,-0.210937 -0.2769,-0.05245 -0.40103,-0.09961 -0.7793,-0.09961 -0.36894,0 -1.04663,0.02181 -1.66406,0.374998 -0.61746,0.353215 -1.04451,0.859957 -1.58789,1.599602 -1.08684,1.47929 -2.67647,4.119236 -5.85352,9.404255 -4.3498,7.23588 -5.85025,9.632151 -6.09961,11.765573 l -0.0762,0.609372 0.38672,0.474607 c 3.54482,4.425929 6.66888,9.665894 9.25195,15.550712 l 0.64453,1.482415 1.41797,-0.779292 c 0.2919,-0.161041 0.34694,-0.233247 0.49805,-0.357421 0.1512,-0.12417 0.32545,-0.273328 0.5332,-0.45703 0.41553,-0.367364 0.95061,-0.860016 1.59375,-1.458977 1.28624,-1.197925 2.98246,-2.815568 4.83985,-4.623027 3.21826,-3.131788 4.99613,-4.834338 5.9414,-5.607397 0.31031,-0.253799 0.35053,-0.254997 0.45117,-0.316404 0.50679,0.28725 1.99399,1.258889 4.88672,3.374985 3.06394,2.241359 7.5927,5.631284 14.0918,10.535109 10.28944,7.763799 15.63333,11.825612 18.23438,14.117125 1.30052,1.14576 1.88102,1.858281 2.05078,2.173818 0.1698,0.315537 0.13237,0.211978 0.0469,0.685544 -0.18,1.00103 -0.38432,1.85424 -0.57422,2.51951 -0.54315,-0.32144 -1.18479,-0.70326 -2.0625,-1.29491 -2.08612,-1.406241 -4.99408,-3.509161 -8.41406,-6.08786 -9.63107,-7.26195 -16.27786,-12.245836 -20.56641,-15.417899 -2.14423,-1.586038 -3.6958,-2.72276 -4.75195,-3.468735 -0.52809,-0.372987 -0.9239,-0.646165 -1.23047,-0.843746 -0.1533,-0.09882 -0.282,-0.172834 -0.41601,-0.246093 -0.0669,-0.03666 -0.13914,-0.07477 -0.24024,-0.117188 -0.1011,-0.04242 -0.17011,-0.128905 -0.62695,-0.128905 -1.03799,0 -1.27391,0.366645 -1.77539,0.708982 -0.50151,0.342335 -1.05862,0.785584 -1.66992,1.312494 -1.22271,1.053813 -2.66142,2.439501 -4.06641,3.884748 -1.40501,1.445251 -2.76927,2.948411 -3.82031,4.23045 -0.52554,0.641019 -0.96982,1.222108 -1.31836,1.746086 -0.34854,0.523971 -0.64516,0.85325 -0.75586,1.65429 l -0.0469,0.333982 0.11133,0.322265 c 2.27132,6.905223 3.81775,14.349959 4.57617,22.036999 l 0.0176,0.16407 0.0469,0.14648 c 0.19019,0.57871 0.39941,1.10069 0.91406,1.54102 0.51471,0.44032 1.20956,0.52733 1.57031,0.52733 0.63287,0 0.77376,-0.1102 1.20117,-0.23436 0.42744,-0.12414 0.94409,-0.29676 1.54688,-0.50391 1.20554,-0.4143 2.72681,-0.97343 4.28906,-1.59375 1.51901,-0.60315 2.92489,-1.11562 3.9375,-1.44726 0.297,-0.0973 0.46279,-0.14237 0.67969,-0.20507 0.31932,0.45167 0.59104,0.83064 1.41211,1.98631 1.15157,1.62085 2.70908,3.81188 4.39453,6.18162 8.39315,11.80079 15.40537,21.82283 20.31445,29.0155 2.45456,3.59633 4.38405,6.48992 5.68946,8.52535 0.65271,1.01771 1.15115,1.82353 1.4707,2.3789 0.1347,0.23379 0.21705,0.39326 0.28125,0.52148 -0.0306,0.20993 -0.20639,1.14625 -0.49219,1.99804 -0.0786,0.23391 -0.15337,0.40566 -0.23437,0.61522 -0.285,-0.30379 -0.37612,-0.35223 -0.96094,-1.10741 -2.01464,-2.60151 -5.89305,-8.06988 -13.51172,-18.84953 -5.86398,-8.29689 -12.28717,-17.26834 -14.34375,-20.02139 -1.77297,-2.37336 -2.66364,-3.58405 -3.46875,-4.37108 -0.40257,-0.39351 -0.85419,-0.7344 -1.42383,-0.88475 -0.56969,-0.15033 -1.06411,-0.0567 -1.37695,0.006 -1.34922,0.26834 -3.43757,1.13505 -5.58984,2.07421 -1.07615,0.46957 -2.1133,0.95646 -2.94727,1.37694 -0.417,0.21024 -0.7812,0.40376 -1.08984,0.58594 -0.30864,0.18216 -0.51145,0.25362 -0.86719,0.64452 -0.60777,0.66744 -0.74384,1.35926 -0.91406,2.33788 v 0.006 0.006 l -0.0234,0.11718 v 0.12305 c -9e-5,0.0153 1.2e-4,0.0314 0,0.0469 -0.0633,8.84761 -1.16336,17.59921 -3.2461,25.81629 l -0.19921,0.76171 0.5332,0.58008 c 0.4287,0.47305 0.80075,0.56426 1.19531,0.68555 0.39453,0.12133 0.86179,0.22593 1.51758,0.35156 1.3116,0.25128 3.36225,0.57385 6.66797,1.08397 2.05067,0.31645 3.98436,0.64185 5.4375,0.90821 0.7266,0.13317 1.32851,0.25302 1.75781,0.3457 0.1071,0.0231 0.16885,0.0393 0.25195,0.0586 0.03,0.0512 0.0358,0.065 0.0703,0.12891 0.1986,0.36837 0.47779,0.93378 0.79687,1.6289 0.63806,1.39023 1.456,3.31466 2.3086,5.4609 2.99914,7.54996 8.54288,21.9739 13.33007,34.58188 2.39357,6.304 4.59916,12.15408 6.20508,16.47064 0.80295,2.15829 1.45436,3.93559 1.9043,5.18551 0.225,0.62498 0.40148,1.12203 0.51562,1.45899 -0.024,0.0351 -0.0313,0.0432 -0.0586,0.082 -0.2211,0.31187 -0.55434,0.73639 -0.91992,1.13671 l -0.1875,0.19922 c -0.2247,-0.36914 -0.70241,-1.23354 -2.32617,-5.29686 -1.81091,-4.53155 -4.8631,-12.42231 -10.20703,-26.29675 -5.28988,-13.73416 -8.04434,-20.8631 -9.64454,-24.68544 -0.80006,-1.91116 -1.29673,-2.99549 -1.75195,-3.74412 -0.45525,-0.74864 -1.11185,-1.27794 -1.54101,-1.47656 -0.46743,-0.21635 -0.81794,-0.27497 -1.35938,-0.39257 -0.54144,-0.1176 -1.19829,-0.2417 -1.95117,-0.36914 -1.50576,-0.25488 -3.36992,-0.52056 -5.23242,-0.76172 -1.86251,-0.24114 -3.72507,-0.45681 -5.22071,-0.5918 -0.74781,-0.0675 -1.40384,-0.11749 -1.93945,-0.14062 -0.53565,-0.0231 -0.83007,-0.0702 -1.38867,0.0469 l -0.81446,0.16993 -0.26953,0.78515 c -8.15168,23.1405 -23.58495,37.16218 -39.97851,37.201 -16.36897,-0.0324 -31.77787,-14.00653 -39.94336,-37.08967 l -0.36914,-1.03711 -4.664064,0.24023 c -2.512455,0.12885 -5.18767,0.40409 -7.488282,0.74414 -2.30061,0.34005 -4.127874,0.68766 -5.349609,1.19531 -0.372974,0.15498 -1.102106,0.57273 -1.587891,1.24218 -0.485784,0.66946 -0.924506,1.56089 -1.617187,3.16406 -1.38537,3.2063 -3.718888,9.25924 -8.34375,21.26943 -7.432006,19.29998 -11.038878,28.69327 -12.884766,33.20493 -0.722987,1.76711 -1.012624,2.32224 -1.271484,2.82421 -0.0057,-0.006 -0.01188,-0.006 -0.01758,-0.0117 -0.678411,-0.67471 -0.764217,-0.81384 -0.785157,-1.33007 -0.021,-0.51624 0.223533,-1.622 0.878907,-3.52733 2.289948,-6.65761 16.166698,-43.35833 20.695312,-54.7146 1.311723,-3.28939 2.105645,-5.18922 2.613281,-6.19334 0.251789,-0.49802 0.434361,-0.75785 0.503907,-0.83788 -0.08751,0.0311 0.19545,-0.0405 0.585937,-0.11133 0.432583,-0.0784 1.025926,-0.18048 1.734375,-0.29883 1.4169,-0.23676 3.289879,-0.53704 5.267578,-0.84374 3.136017,-0.48634 5.111912,-0.79921 6.404297,-1.04296 1.292382,-0.24375 1.852916,-0.23873 2.630866,-0.85547 l 0.74414,-0.5918 -0.23438,-0.91991 c -2.150547,-8.43869 -3.270238,-17.44902 -3.28711,-26.54285 v -0.006 -0.1582 l -0.01172,-0.0879 c -0.0027,-0.0282 -0.0081,-0.07 -0.01172,-0.11133 -0.0039,-0.0413 -0.0025,-0.085 -0.0059,-0.12305 -0.0036,-0.0362 -0.026,-0.19577 -0.0293,-0.2168 -0.195569,-0.93285 -0.807046,-1.40375 -1.453125,-1.83983 -0.646077,-0.43609 -1.470838,-0.85694 -2.595703,-1.37109 -1.699357,-0.77674 -3.534559,-1.56401 -5.015625,-2.1621 -0.740534,-0.29905 -1.396322,-0.54853 -1.910156,-0.73241 -0.256919,-0.0919 -0.474645,-0.16344 -0.673828,-0.22266 -0.19917,-0.0592 -0.242462,-0.13477 -0.744141,-0.13477 -0.48931,0 -0.674426,0.14244 -0.808594,0.22266 -0.13416,0.0802 -0.207411,0.1522 -0.27539,0.21094 -0.13596,0.11748 -0.228902,0.21094 -0.339844,0.33397 -0.221909,0.24609 -0.480309,0.57102 -0.820313,1.00781 -0.680009,0.8736 -1.676788,2.20925 -3.08789,4.16014 -2.822208,3.90178 -7.308764,10.24661 -14.220703,20.06241 -5.75404,8.17143 -9.423004,13.31241 -11.736328,16.42376 -1.156662,1.55567 -1.981317,2.60658 -2.53125,3.24607 -0.0267,0.0309 -0.03321,0.0355 -0.05859,0.0645 -0.140159,-0.24171 -0.279574,-0.42695 -0.410156,-0.74413 -0.22224,-0.53981 -0.394978,-1.13751 -0.46875,-1.59375 -0.05403,-0.33403 0.0069,-0.59479 -0.01172,-0.60937 0.09873,-0.17037 0.752476,-1.20222 1.740234,-2.666 1.022047,-1.51461 2.405946,-3.53474 4.03125,-5.88865 3.250614,-4.70782 7.461823,-10.73809 11.648438,-16.69915 4.186614,-5.96104 8.354241,-11.85771 11.519531,-16.28508 1.582642,-2.2137 2.910579,-4.06436 3.867187,-5.36716 0.429301,-0.58468 0.751708,-1.01016 1.013672,-1.35352 0.235499,0.0756 0.440484,0.1367 0.767578,0.25196 1.013026,0.35704 2.398645,0.88322 3.884766,1.48241 1.613374,0.65051 3.10361,1.19718 4.294922,1.58203 0.595653,0.19245 1.117377,0.34473 1.558594,0.45117 0.441213,0.10643 0.678298,0.221 1.324218,0.14648 0.647437,-0.0747 1.613077,-0.68274 1.962891,-1.35937 l 0.128906,-0.25195 0.0293,-0.27539 c 0.738695,-7.54417 2.237699,-14.861174 4.435549,-21.66201 l 0.041,-0.123046 0.0176,-0.134765 c 0.0327,-0.251549 0.0804,-0.569889 0.11719,-0.861324 0.0183,-0.14571 0.0308,-0.281756 0.041,-0.427733 0.01,-0.145949 0.0782,-0.195867 -0.041,-0.667965 -0.12135,-0.48091 -0.24582,-0.583243 -0.375,-0.773434 -0.12918,-0.190201 -0.27174,-0.38277 -0.44531,-0.597654 -0.34714,-0.429772 -0.80476,-0.94583 -1.33594,-1.52929 -1.06236,-1.166923 -2.43483,-2.594112 -3.832032,-3.996076 -1.397198,-1.401963 -2.812104,-2.768728 -3.943359,-3.802717 -0.565633,-0.516994 -1.060888,-0.949378 -1.470703,-1.277339 -0.204899,-0.16398 -0.381005,-0.297178 -0.574219,-0.421873 -0.193199,-0.12471 -0.180036,-0.35742 -1.060547,-0.35742 -0.813887,0 -1.177222,0.283558 -1.798828,0.656247 -0.621604,0.372676 -1.43869,0.930947 -2.636719,1.792961 -2.396221,1.724187 -6.293084,4.658573 -12.791016,9.597613 -8.6661,6.587038 -14.049308,10.639288 -17.373047,13.019473 -1.661868,1.190092 -2.820271,1.965872 -3.568359,2.414042 -0.379315,0.22728 -0.243719,0.17438 -0.398437,0.23438 -0.187109,-0.48002 -0.405978,-1.30142 -0.591797,-2.496078 -0.06885,-0.443063 -0.07332,-0.655069 -0.05859,-0.744137 0.0147,-0.08907 0.0204,-0.162389 0.246094,-0.445311 0.451398,-0.565848 1.774017,-1.694734 4.318359,-3.749983 4.446552,-3.591685 29.069911,-22.207113 32.519531,-24.591688 1.248303,-0.862893 1.984505,-1.307413 2.25,-1.417962 0.0081,-0.0033 0.0048,-0.0026 0.01172,-0.0059 0.0219,0.0141 0.03588,0.0177 0.05859,0.03516 0.11568,0.08868 0.287523,0.231928 0.498047,0.410155 0.421021,0.356502 0.995894,0.863329 1.669922,1.476556 1.348052,1.226451 3.095201,2.872488 4.910156,4.634745 h 0.0059 l 7.910154,7.669888 0.84375,-1.957023 c 2.61565,-6.027677 5.79666,-11.383904 9.41602,-15.896413 l 0.42773,-0.539061 -0.13476,-0.662106 c -0.13167,-0.669999 -0.3949,-1.251191 -0.82032,-2.126944 -0.42542,-0.875814 -1.01245,-1.971565 -1.75781,-3.298813 -1.49073,-2.654494 -3.63306,-6.238653 -6.40429,-10.71089 -1.8324,-2.957157 -2.76488,-4.504334 -3.76172,-5.525366 -0.49843,-0.510515 -1.10673,-0.915017 -1.76368,-1.072261 -0.65693,-0.157245 -1.22241,-0.08272 -1.728511,-0.01172 -0.511627,0.07179 -1.034256,0.220762 -2.121094,0.492186 -1.086832,0.271423 -2.561098,0.645698 -4.306641,1.101557 -3.491076,0.911722 -8.094263,2.14358 -12.978515,3.468735 -4.872416,1.321941 -9.490236,2.52807 -12.996094,3.410141 -1.75293,0.441037 -3.229385,0.80002 -4.3125,1.048824 -0.541554,0.1244 -0.984643,0.222929 -1.306641,0.287108 -0.321994,0.06418 -0.596309,0.0875 -0.46289,0.08203 l -0.351563,0.01172 -0.123047,-0.755856 v -0.0059 c -0.210178,-1.320009 -0.2032,-2.306417 -0.08203,-2.853503 0.12138,-0.548188 0.211292,-0.578327 0.357422,-0.644528 0.0264,-0.01194 0.981705,-0.359258 2.238281,-0.749997 1.256577,-0.390738 2.943983,-0.893914 4.904297,-1.470697 3.920627,-1.153567 8.947438,-2.592986 13.951172,-4.001935 5.00373,-1.408948 9.980371,-2.786273 13.787109,-3.808576 1.903365,-0.511153 3.518386,-0.932216 4.687495,-1.224605 0.58457,-0.14619 1.06026,-0.260159 1.39454,-0.333982 0.26847,-0.05928 0.37163,-0.06485 0.28711,-0.07031 0.0138,0.0171 -0.013,0.0024 0.0352,0.04687 0.2274,0.21006 0.69835,0.775708 1.39453,1.79882 1.39237,2.046225 3.73191,5.909327 7.86914,12.843693 3.93439,6.594443 5.36182,9.035825 6.67383,10.277298 l 1.01953,0.966793 1.01953,-0.972652 c 7.18177,-6.862489 15.3173,-10.423763 23.57813,-10.458939 8.35988,0.0054 16.59725,3.62424 23.84766,10.617141 l 1.19531,1.148432 1.16015,-1.511711 c 0.2331,-0.304365 0.42345,-0.622575 0.81446,-1.242183 0.39105,-0.619606 0.89944,-1.44739 1.50586,-2.43163 1.2128,-1.968477 2.79868,-4.555486 4.44726,-7.289029 3.84056,-6.368058 6.05285,-10.030466 7.38867,-12.046822 0.66795,-1.00818 1.12291,-1.600567 1.3711,-1.863272 0.0312,-0.03309 0.0143,-0.02281 0.0293,-0.04102 z m 256.55274,29.013543 v 1.46679 102.792509 h 19.00586 v -37.34749 c 0,-6.50379 0.95693,-11.48244 2.70703,-14.90423 l 0.002,-0.004 v -0.002 c 1.75523,-3.47178 3.76795,-4.85349 6.53711,-4.85349 1.05125,0 1.88875,0.29659 2.72266,0.97069 l 0.0137,0.0117 0.0156,0.0117 c 0.83473,0.64103 1.53757,1.57554 2.0879,2.91014 l 0.002,0.006 0.002,0.006 c 0.36001,0.85135 0.70378,2.51146 0.87696,4.8203 v 0.008 l 0.002,0.01 c 0.19904,2.27625 0.30664,6.66129 0.30664,13.02729 v 26.63464 8.69528 h 19.0957 v -45.8787 c 0,-9.99814 -1.50008,-17.73904 -4.71484,-23.253803 l -0.004,-0.0039 c -3.18816,-5.516997 -8.21307,-8.488243 -14.45117,-8.488243 -3.59524,0 -6.95374,1.147499 -9.89844,3.35936 -9.9e-4,8.98e-4 -0.003,0.0029 -0.004,0.0039 -1.88348,1.387498 -3.61968,3.393401 -5.29883,5.683569 V 64.000611 Z m 65.25,0 v 1.46679 20.482331 h 19.00586 V 64.000611 Z m 269.01367,0 v 1.46679 20.482331 H 795.5918 V 64.000611 Z m 65.51953,0 v 1.46679 33.93149 c -1.53352,-2.165915 -3.14656,-4.0613 -4.93945,-5.396461 -2.90125,-2.22644 -6.32817,-3.369125 -10.08399,-3.369126 -6.76198,0 -12.40201,4.066645 -16.52539,11.507756 -4.12707,7.40478 -6.13672,16.83453 -6.13671,28.24792 -10e-6,11.41342 2.00985,20.86638 6.13476,28.31238 l 0.002,0.002 v 0.002 c 4.12487,7.40085 9.76602,11.44134 16.52539,11.44134 3.77996,0 7.22079,-1.11126 10.12696,-3.29685 1.77389,-1.33404 3.37286,-3.2381 4.89648,-5.41404 V 168.26 h 19.0957 V 64.000611 Z M 670.3125,66.346303 c -8.38293,0 -15.10398,2.797706 -19.6875,8.355432 -4.58101,5.554653 -6.77734,13.365463 -6.77734,23.259662 0,7.918513 1.57181,14.363703 4.85937,19.240143 l 0.002,0.002 0.002,0.004 c 3.31973,4.87686 8.5482,8.3857 15.46679,10.54292 l 6.65625,2.14647 c 3.92716,1.26049 6.39432,2.71545 7.39844,3.94921 l 0.006,0.006 0.004,0.01 c 1.0883,1.30816 1.72461,3.28182 1.72461,6.10348 0,3.1021 -0.86378,5.22266 -2.52539,6.73825 -1.65717,1.51154 -4.10733,2.34375 -7.6211,2.34375 -3.4692,0 -7.11279,-0.77096 -10.95312,-2.35351 -3.82169,-1.6308 -7.83452,-4.05899 -12.02149,-7.29685 l -2.41601,-1.86717 v 25.05262 l 0.77343,0.41797 c 4.35688,2.34961 8.73131,4.13097 13.11719,5.33591 4.38998,1.20607 8.77982,1.81053 13.15625,1.81053 9.27415,0 16.48273,-2.75797 21.15821,-8.34956 v -0.002 c 4.70175,-5.63123 6.91601,-13.97323 6.91601,-24.89247 0,-8.34579 -1.58673,-14.94378 -4.96484,-19.71866 -3.38306,-4.78191 -9.00064,-8.2384 -16.64063,-10.47065 l -7.33203,-2.14452 -0.008,-0.002 c -3.34196,-0.99845 -5.53049,-2.19439 -6.5625,-3.2871 -1.01969,-1.15383 -1.5918,-2.786884 -1.5918,-5.140601 0,-3.200719 0.85427,-5.248518 2.42969,-6.56833 1.578,-1.321979 4.24942,-2.121084 8.16406,-2.121084 2.90503,0 6.03136,0.566562 9.39063,1.73632 3.35591,1.168586 6.83064,2.911351 10.41601,5.244118 l 2.31641,1.507805 V 71.633389 l -0.94727,-0.367186 c -4.21164,-1.631239 -8.30134,-2.849773 -12.26953,-3.650375 l -0.006,-0.002 c -3.97168,-0.844221 -7.85125,-1.267572 -11.63281,-1.267572 z m -225.00391,0.587888 h 13.03516 v 43.240039 l 2.79687,-4.92186 c 2.34915,-4.13548 4.81096,-7.09326 7.28907,-8.915965 l 0.006,-0.0059 0.006,-0.0039 c 2.48451,-1.867147 5.12273,-2.759754 8.08984,-2.759754 5.33625,0 9.08031,2.193828 11.85937,7.005829 l 0.002,0.004 0.002,0.002 c 2.80977,4.81696 4.32227,12.09503 4.32227,21.80264 v 42.94512 h -13.12696 v -5.76169 -26.63464 c 0,-6.39258 -0.10016,-10.77142 -0.31836,-13.27143 -0.18489,-2.45703 -0.49975,-4.30787 -1.09179,-5.71091 -0.69998,-1.69591 -1.69506,-3.09651 -3,-4.1035 -1.31159,-1.05494 -2.91612,-1.62694 -4.60352,-1.62694 -3.91399,0 -7.14724,2.39657 -9.21094,6.47848 -2.06705,4.04454 -3.02148,9.43927 -3.02148,16.21673 v 34.4139 h -13.03516 z m 65.25,0 h 13.03711 v 16.08196 h -13.03711 z m 269.01368,0 h 13.03515 v 16.08196 h -13.03515 z m 65.51953,0 h 13.12695 V 165.32633 H 845.0918 v -9.08199 l -2.82618,-0.66211 c -2.14115,4.168 -4.46538,7.12971 -6.86914,8.93746 -2.40456,1.80835 -5.11093,2.69335 -8.3125,2.69335 -5.59141,0 -10.09539,-3.07853 -13.90625,-9.91402 l -0.002,-0.002 v -0.002 c -3.81004,-6.87954 -5.76954,-15.83394 -5.76953,-26.90613 0,-11.0741 1.96034,-20.00335 5.76953,-26.83777 l 0.002,-0.002 v -0.002 c 3.81263,-6.882367 8.31756,-9.980425 13.90625,-9.980425 3.16243,0 5.84623,0.899921 8.25391,2.749988 l 0.0117,0.0078 0.01,0.0059 c 2.43566,1.811383 4.77269,4.750447 6.9121,8.872997 l 2.82032,-0.666 z M 336,68.104108 l 0.27734,1.697258 16.08789,98.458544 h 22.41797 l 10.72852,-66.11885 10.8457,66.11885 h 22.41797 L 435.00195,68.104108 h -19.39843 l -10.26954,62.841512 -10.1914,-62.841512 h -19.14649 l -10.1914,62.835652 -10.26953,-62.835652 z m 334.3125,1.175776 c 3.55612,0 7.22436,0.398521 11.00781,1.20312 l 0.008,0.002 0.008,0.002 c 3.48615,0.702352 7.11267,1.790035 10.84765,3.185532 V 90.64893 c -2.95388,-1.7441 -5.87605,-3.227742 -8.75,-4.228497 -3.62222,-1.261332 -7.0879,-1.906242 -10.38867,-1.906242 -4.31996,0 -7.73932,0.846873 -10.09961,2.824207 -2.36287,1.979521 -3.47851,5.055509 -3.47851,8.800741 0,2.846979 0.73921,5.288421 2.33789,7.085901 l 0.0137,0.0137 0.0137,0.0137 c 1.65714,1.76822 4.29206,3.04001 7.91406,4.12108 l 0.004,0.002 7.34375,2.14843 v 0.002 c 7.21813,2.10899 12.16063,5.25589 15.04297,9.33004 2.88738,4.08122 4.42969,10.0696 4.42969,18.04679 0,10.52639 -2.1664,18.1586 -6.23633,23.03311 -4.03645,4.82734 -10.16663,7.27731 -18.85352,7.27731 -4.0968,0 -8.20853,-0.56491 -12.35156,-1.70311 -3.88994,-1.0687 -7.79356,-2.6676 -11.70898,-4.71483 v -17.4218 c 3.491,2.48611 6.92286,4.58626 10.26367,6.0117 l 0.008,0.004 0.01,0.004 c 4.14966,1.71225 8.19791,2.58788 12.12304,2.58788 4.00478,0 7.31155,-0.99187 9.65235,-3.12694 2.33635,-2.13103 3.47851,-5.22037 3.47851,-8.89059 0,-3.25141 -0.73902,-5.96074 -2.39062,-7.95114 -1.68133,-2.06326 -4.61241,-3.55907 -8.79688,-4.90231 h -0.002 l -6.67383,-2.15234 -0.006,-0.002 c -6.44482,-2.00949 -11.00049,-5.13616 -13.88672,-9.37301 l -0.002,-0.004 -0.002,-0.002 c -2.85615,-4.23965 -4.35938,-10.08222 -4.35938,-17.615153 0,-9.467652 2.10164,-16.54773 6.11328,-21.412014 4.00909,-4.861192 9.63895,-7.269499 17.36719,-7.269499 z m -330.81055,1.757804 h 13.49024 l 11.3457,69.419612 2.94531,-0.002 11.25782,-69.417662 h 14.05468 l 11.25782,69.417662 2.94726,0.002 11.3457,-69.419612 h 13.35743 l -15.27735,94.288642 h -17.32617 l -11.92383,-72.677409 -2.94726,0.002 -11.79492,72.675449 h -17.32422 z m 200.9668,0.648435 v 1.466791 19.240148 h -7.9668 v 19.603418 h 7.9668 v 29.46667 c 0,9.3403 1.25793,16.10286 4.1875,20.41397 l 0.006,0.006 0.004,0.006 c 2.9667,4.26822 8.07409,6.37107 14.70507,6.37107 h 15.23047 v -19.60538 h -9.72851 c -2.5183,0 -3.82074,-0.56902 -4.3125,-1.18359 -0.52587,-0.6996 -1.08594,-2.76336 -1.08594,-6.00779 v -29.46471 h 16.51367 V 92.393062 h -16.5139 V 71.686123 Z m 2.98437,2.931628 h 13.03711 V 95.32469 h 16.51368 v 13.74017 h -16.51368 v 32.39829 c 0,3.5175 0.36307,6.03927 1.68555,7.77731 l 0.008,0.0117 0.008,0.01 c 1.3626,1.72685 3.72022,2.32616 6.68164,2.32616 h 6.74414 v 13.73822 h -12.24805 c -6.01183,0 -9.88557,-1.71601 -12.23047,-5.08006 l -0.002,-0.002 c -2.32069,-3.41669 -3.6836,-9.71639 -3.6836,-18.78117 v -32.39829 h -7.96679 V 95.32469 h 7.96679 z m 64.87696,16.015553 c -9.05122,0 -16.43151,3.695373 -21.62305,10.839796 l -0.002,0.002 -0.002,0.002 c -5.16003,7.14407 -7.6582,16.82021 -7.6582,28.91393 0,12.31085 2.54212,22.06138 7.80664,29.12878 l 0.004,0.004 0.002,0.004 c 5.29725,7.02363 12.92422,10.61909 22.36719,10.61909 3.92879,0 7.8554,-0.56255 11.76758,-1.68163 l 0.006,-0.002 c 3.91205,-1.07606 7.80916,-2.68444 11.68945,-4.81834 l 0.76367,-0.41991 v -21.89835 l -2.42969,1.92187 c -3.644,2.88441 -7.16828,5.02249 -10.5625,6.43357 -3.36153,1.36657 -6.60493,2.03515 -9.75781,2.03515 -3.8453,0 -6.56385,-1.17413 -8.60937,-3.57812 -1.80493,-2.12121 -2.92478,-5.52781 -3.44532,-9.90034 h 37.17774 v -8.10739 c 0,-11.74318 -2.41089,-21.27754 -7.36914,-28.49401 l -0.002,-0.004 C 623.52494,94.419128 616.649,90.633305 608.33008,90.633304 Z m 136.76562,0 c -3.78367,0 -7.23684,1.138396 -10.16797,3.363267 -1.79452,1.335369 -3.4074,3.23327 -4.9414,5.400366 V 92.393062 H 710.97656 V 196.00002 h 19.00977 v -34.60141 c 1.53297,2.17579 3.14386,4.08731 4.93359,5.44724 l 0.006,0.004 0.006,0.006 c 2.93352,2.18165 6.38412,3.29099 10.16406,3.29099 6.75938,0 12.40054,-4.04049 16.52539,-11.44134 v -0.002 l 0.002,-0.002 c 4.12489,-7.44601 6.13476,-16.89701 6.13476,-28.31043 0,-11.41149 -2.00906,-20.84174 -6.13476,-28.24596 -4.12358,-7.443644 -9.76414,-11.511665 -16.52735,-11.511666 z m 154.04102,0 c -9.05123,0 -16.42966,3.695524 -21.6211,10.839796 l -0.002,0.002 v 0.002 c -5.15991,7.14392 -7.66211,16.82006 -7.66211,28.91393 0,12.31085 2.54404,22.06138 7.8086,29.12878 l 0.002,0.004 0.002,0.004 c 5.29723,7.02364 12.92422,10.61909 22.36719,10.61909 3.9288,0 7.85918,-0.56252 11.77148,-1.68163 l 0.004,-0.002 c 3.91206,-1.07606 7.80919,-2.68443 11.68945,-4.81834 l 0.76368,-0.41991 v -21.89835 l -2.42774,1.92187 c -3.64329,2.88383 -7.17054,5.0224 -10.56445,6.43357 h -0.002 c -3.36093,1.36608 -6.60355,2.03515 -9.75585,2.03515 -3.84527,0 -6.56582,-1.17413 -8.61133,-3.57812 -1.80493,-2.12121 -2.92477,-5.5278 -3.44532,-9.90034 h 37.17969 v -8.10739 c 0,-11.74318 -2.41285,-21.27755 -7.37109,-28.49401 l -0.002,-0.004 c -4.92827,-7.214401 -11.80421,-11.000096 -20.1231,-11.000096 z m 70.8457,0 c -4.02771,0 -7.6317,1.234475 -10.57617,3.660141 -1.70597,1.394534 -3.21323,3.359015 -4.625,5.619115 v -7.519498 h -19.00781 v 75.866848 h 19.00781 v -35.0682 c 0,-7.01485 1.10723,-12.27396 3.11719,-15.75189 2.04291,-3.52738 4.59364,-5.05271 8.23633,-5.05271 1.23107,0 2.44127,0.20803 3.66211,0.63281 l 0.0254,0.008 0.0254,0.008 c 1.23817,0.3833 2.50617,1.00815 3.80468,1.89256 L 976,116.52576 975.9473,91.402833 974.72855,91.180178 c -1.1979,-0.217874 -2.10984,-0.349105 -2.8379,-0.402343 -0.66534,-0.0904 -1.3017,-0.14453 -1.9082,-0.144531 z m -462.4082,1.759758 v 1.466791 74.400057 h 19.00586 V 92.393062 Z m 269.01367,0 v 1.466791 74.400057 H 795.5918 V 92.393062 Z m -168.25977,1.173823 h 0.002 c 7.43288,0 13.14481,3.116301 17.64453,9.705025 l 0.002,0.002 0.002,0.002 c 4.5278,6.5882 6.86132,15.50513 6.86132,26.85535 v 5.17381 h -37.5664 l 0.10937,1.5703 c 0.40105,5.65614 1.80311,10.07143 4.41797,13.14447 2.6088,3.06598 6.39174,4.62889 10.90039,4.62889 3.58681,0 7.23415,-0.7639 10.91016,-2.25976 l 0.006,-0.002 0.004,-0.002 c 2.91366,-1.21129 5.86753,-3.02087 8.84571,-5.14841 v 14.21477 c -3.43917,1.82604 -6.86558,3.24935 -10.27735,4.18749 l -0.008,0.002 -0.008,0.002 c -3.66084,1.04857 -7.305,1.5703 -10.94922,1.5703 -8.6934,0 -15.17826,-3.08383 -19.96484,-9.42574 l -0.002,-0.004 c -9.9e-4,-0.002 -0.003,-0.002 -0.004,-0.004 -4.7566,-6.39001 -7.22461,-15.48192 -7.22461,-27.39051 0,-11.6941 2.4233,-20.72369 7.10742,-27.21082 l 0.002,-0.004 c 4.71353,-6.484607 10.9376,-9.607375 19.18945,-9.607375 z m 136.76758,0 c 5.58871,0 10.09361,3.098054 13.90625,9.980425 v 0.002 l 0.002,0.002 c 3.80918,6.83442 5.76953,15.76564 5.76953,26.83972 0,11.07414 -1.96013,20.02808 -5.77149,26.90809 -3.81086,6.83549 -8.31483,9.91402 -13.90625,9.91402 -3.19997,0 -5.92341,-0.8848 -8.35937,-2.6953 -2.44183,-1.85797 -4.77588,-4.82116 -6.91406,-8.94137 l -2.82032,0.66797 v 36.8221 h -13.0391 V 95.32469 h 13.03906 v 9.21285 l 2.82032,0.66796 c 2.13955,-4.12287 4.47473,-7.063777 6.91015,-8.874955 l 0.006,-0.0039 0.006,-0.0039 c 2.43775,-1.852363 5.15678,-2.755848 8.35156,-2.755848 z m 154.04102,0 c 7.43286,0 13.14873,3.116302 17.64844,9.705025 v 0.002 l 0.002,0.002 c 4.52781,6.5882 6.86133,15.50513 6.86133,26.85535 v 5.17381 h -37.56836 l 0.11133,1.5703 c 0.40107,5.65613 1.80116,10.07143 4.41601,13.14447 2.6088,3.06598 6.39372,4.62889 10.90235,4.62889 3.5868,0 7.23215,-0.7639 10.9082,-2.25976 l 0.006,-0.002 0.006,-0.002 c 2.91349,-1.21124 5.86692,-3.02082 8.8457,-5.14841 v 14.21477 c -3.43915,1.82604 -6.86558,3.24935 -10.27734,4.18749 l -0.008,0.002 -0.008,0.002 c -3.66069,1.04853 -7.30693,1.5703 -10.95117,1.5703 -8.69339,0 -15.17633,-3.08383 -19.96289,-9.42574 l -0.002,-0.004 c -9.9e-4,-0.002 -0.003,-0.002 -0.004,-0.004 -4.75662,-6.39 -7.22656,-15.48192 -7.22656,-27.39051 0,-11.69394 2.42516,-20.72353 7.10937,-27.21082 l 0.002,-0.004 c 4.71363,-6.484758 10.93759,-9.607375 19.18945,-9.607375 z m 70.8457,0 c 0.45272,0 0.96729,0.03821 1.53711,0.117187 l 0.0527,0.0059 0.0508,0.0039 c 0.27196,0.01884 0.88459,0.128599 1.34375,0.195312 l 0.0371,17.464766 c -0.74453,-0.36657 -1.47354,-0.86691 -2.23243,-1.10351 -1.51677,-0.52502 -3.0711,-0.79687 -4.63671,-0.79688 -4.5919,0 -8.39763,2.33514 -10.83008,6.53513 v 0.002 h -0.002 c -2.40567,4.16264 -3.50585,9.88994 -3.50585,17.2011 v 32.13462 h -13.039 V 95.32469 h 13.03907 v 10.51753 l 2.86718,0.57031 c 2.00041,-4.64024 4.26296,-7.911638 6.65039,-9.863236 l 0.002,-0.002 0.002,-0.002 c 2.42492,-1.999422 5.2354,-2.978503 8.66406,-2.978503 z M 510.55859,95.32469 h 13.03711 v 70.00164 h -13.03711 z m 269.01368,0 h 13.03515 v 70.00164 H 779.57227 Z M 132,101.00044 a 14.999943,31.500046 0 0 0 -15,31.49986 14.999943,31.500046 0 0 0 15,31.49986 14.999943,31.500046 0 0 0 12.32812,-13.65814 A 14.999943,28.500041 0 0 0 156,161.00018 14.999943,28.500041 0 0 0 171,132.5003 14.999943,28.500041 0 0 0 156,104.00043 14.999943,28.500041 0 0 0 144.3457,114.61757 14.999943,31.500046 0 0 0 132,101.00044 Z m 476.24023,5.13279 c -3.51993,0 -6.59106,1.56924 -8.75781,4.42967 l -0.002,0.002 c -2.17386,2.82692 -3.42047,6.73404 -3.91406,11.67183 l -0.16211,1.61132 h 23.95117 v -1.46679 c 0,-4.61814 -0.9345,-8.4741 -2.92578,-11.47261 -1.9556,-3.03195 -4.84551,-4.77537 -8.18946,-4.77537 z m 290.80665,0 c -3.5167,0 -6.58555,1.5664 -8.75196,4.42186 l -0.002,0.002 c -2.17693,2.82743 -3.42595,6.73812 -3.91992,11.67964 l -0.15821,1.61132 h 23.94727 v -1.46679 c 0,-4.61815 -0.93258,-8.47411 -2.92383,-11.47261 -1.95562,-3.03193 -4.84746,-4.77537 -8.1914,-4.77537 z m -159.90235,1.43163 c -3.97535,0 -7.25013,2.34071 -9.26172,6.3535 v 0.002 h -0.002 C 727.89689,117.89556 727,123.36191 727,130.39093 c 0,7.02906 0.89951,12.51395 2.87891,16.52728 l 0.004,0.008 0.004,0.008 c 2.0143,3.97088 5.28875,6.28318 9.25781,6.28318 3.96559,0 7.21719,-2.32075 9.16992,-6.29099 v -0.002 c 1.98439,-3.977 2.88282,-9.46209 2.88282,-16.53314 0,-7.07193 -0.898,-12.5562 -2.88282,-16.53312 -1.95264,-3.9712 -5.20383,-6.29295 -9.16992,-6.29295 z m 93.89063,0 c -3.94396,0 -7.19013,2.32221 -9.17188,6.29295 l -0.002,0.004 -0.002,0.004 c -1.95112,3.97461 -2.83204,9.45547 -2.83204,16.52531 0,7.06987 0.88083,12.55052 2.83204,16.52533 l 0.002,0.004 0.002,0.006 c 1.98175,3.97073 5.22792,6.29099 9.17188,6.29099 3.96906,0 7.22537,-2.32174 9.17773,-6.2988 1.98186,-3.97641 2.87891,-9.46052 2.87891,-16.52728 0,-7.06763 -0.89661,-12.54898 -2.87891,-16.52531 l -0.004,-0.004 c -1.95256,-3.97464 -5.2061,-6.29686 -9.17382,-6.29686 z m -224.79493,1.50196 c 2.3805,0 4.11091,0.98855 5.67579,3.4199 l 0.006,0.01 0.006,0.01 c 1.3788,2.07311 2.08701,4.94504 2.2793,8.40816 h -17.34765 c 0.56049,-3.70476 1.53546,-6.67622 3.00781,-8.58785 l 0.004,-0.004 0.004,-0.006 c 1.71178,-2.26081 3.68027,-3.24998 6.36523,-3.24998 z m 290.80665,0 c 2.3805,0 4.11088,0.98853 5.67578,3.4199 l 0.006,0.01 0.006,0.01 c 1.37878,2.0731 2.08699,4.94507 2.27929,8.40816 h -17.3457 c 0.5605,-3.70476 1.53349,-6.67622 3.00586,-8.58785 l 0.004,-0.004 0.004,-0.006 c 1.71174,-2.2608 3.68028,-3.24998 6.36524,-3.24998 z m -159.90235,1.43163 c 2.89314,0 4.85824,1.32406 6.48633,4.6406 l 0.002,0.006 0.002,0.004 c 1.65512,3.31631 2.57812,8.42215 2.57812,15.24211 0,6.81999 -0.92309,11.92599 -2.57812,15.24212 l -0.002,0.006 -0.002,0.004 c -1.62809,3.31652 -3.5932,4.6406 -6.48633,4.6406 -2.88863,0 -4.89636,-1.33338 -6.58008,-4.64451 v -0.002 c -1.66006,-3.36678 -2.57812,-8.47092 -2.57812,-15.24603 0,-6.77601 0.92022,-11.85966 2.57617,-15.17766 1.68774,-3.36539 3.696,-4.71482 6.58203,-4.71482 z m 93.89063,0 c 2.89309,0 4.86233,1.32444 6.49023,4.6406 l 0.002,0.006 0.002,0.004 c 1.65513,3.31631 2.57812,8.42215 2.57812,15.24211 0,6.81999 -0.92308,11.92599 -2.57812,15.24212 l -0.002,0.006 -0.002,0.004 c -1.6279,3.31614 -3.59715,4.6406 -6.49023,4.6406 -2.85733,0 -4.83051,-1.32514 -6.48828,-4.64451 -7.2e-4,-9.8e-4 -9.6e-4,-0.004 -0.002,-0.006 -1.62662,-3.31864 -2.5332,-8.42537 -2.5332,-15.24212 0,-6.81674 0.90649,-11.9233 2.5332,-15.24211 l 0.002,-0.004 c 1.65777,-3.31939 3.63094,-4.64646 6.48828,-4.64646 z m -696.23633,12.70306 a 3.2999875,7.5000108 0 0 1 2.0625,1.65821 2.9999886,3.0000043 0 0 0 -2.0625,2.84177 2.9999886,3.0000043 0 0 0 3,2.99999 2.9999886,3.0000043 0 0 0 0.29883,-0.0176 3.2999875,7.5000108 0 0 1 0,0.002 3.2999875,7.5000108 0 0 1 0,0.002 3.2999875,7.5000108 0 0 1 0,0.002 3.2999875,7.5000108 0 0 1 0,0.002 3.2999875,7.5000108 0 0 1 0,0.002 3.2999875,7.5000108 0 0 1 0,0.002 3.2999875,7.5000108 0 0 1 0,0.002 3.2999875,7.5000108 0 0 1 0,0.002 3.2999875,7.5000108 0 0 1 0,0.002 3.2999875,7.5000108 0 0 1 -3.29883,7.49997 3.2999875,7.5000108 0 0 1 -3.29883,-7.49997 3.2999875,7.5000108 0 0 1 3.29883,-7.49997 z m 24.29883,0 a 3.2999875,7.5000108 0 0 1 2.06836,1.65235 2.9999886,3.0000043 0 0 0 -2.06836,2.84763 2.9999886,3.0000043 0 0 0 3,2.99999 2.9999886,3.0000043 0 0 0 0.30468,-0.0234 3.2999875,7.5000108 0 0 1 0,0.002 3.2999875,7.5000108 0 0 1 0,0.002 3.2999875,7.5000108 0 0 1 0,0.002 3.2999875,7.5000108 0 0 1 0,0.002 3.2999875,7.5000108 0 0 1 0,0.002 3.2999875,7.5000108 0 0 1 0,0.002 3.2999875,7.5000108 0 0 1 0,0.002 3.2999875,7.5000108 0 0 1 0,0.002 3.2999875,7.5000108 0 0 1 0,0.002 3.2999875,7.5000108 0 0 1 0,0.002 3.2999875,7.5000108 0 0 1 0,0.002 3.2999875,7.5000108 0 0 1 0,0.002 3.2999875,7.5000108 0 0 1 -3.30468,7.49997 3.2999875,7.5000108 0 0 1 -3.29883,-7.49997 3.2999875,7.5000108 0 0 1 3.29883,-7.49997 z" /></g><text
     xml:space="preserve"
     style="font-size:20px;line-height:1;font-family:Ubuntu;-inkscape-font-specification:Ubuntu;letter-spacing:0px;font-weight:normal;font-style:normal;font-stretch:normal;font-variant:normal"
     x="405.99911"
     y="-8.833354"
     id="text1125"><tspan
       sodipodi:role="line"
       id="tspan1123"
       x="405.99911"
       y="-8.833354" /></text><metadata
     id="metadata124"><rdf:RDF><cc:Work
         rdf:about=""><dc:title>WhiteSpider</dc:title><dc:creator><cc:Agent><dc:title>WhiteSpider Dev</dc:title></cc:Agent></dc:creator><dc:publisher><cc:Agent><dc:title>WhiteSpider Dev</dc:title></cc:Agent></dc:publisher><dc:identifier>whitespider</dc:identifier><dc:language>en-US</dc:language><dc:description>WhiteSpider full logo version 0.2</dc:description></cc:Work></rdf:RDF></metadata></svg>
