<?xml version="1.0" encoding="UTF-8" standalone="no"?>
<svg
   width="64"
   height="64"
   viewBox="0 0 64 64"
   version="1.1"
   id="svg5"
   inkscape:version="1.2.2 (b0a8486541, 2022-12-01)"
   sodipodi:docname="logo2.svg"
   inkscape:export-filename="/home/shell/Projects/whitespider/res/logo512.png"
   inkscape:export-xdpi="192"
   inkscape:export-ydpi="192"
   xmlns:inkscape="http://www.inkscape.org/namespaces/inkscape"
   xmlns:sodipodi="http://sodipodi.sourceforge.net/DTD/sodipodi-0.dtd"
   xmlns="http://www.w3.org/2000/svg"
   xmlns:svg="http://www.w3.org/2000/svg">
  <sodipodi:namedview
     id="namedview7"
     pagecolor="#ffffff"
     bordercolor="#111111"
     borderopacity="1"
     inkscape:pageshadow="0"
     inkscape:pageopacity="0"
     inkscape:pagecheckerboard="1"
     inkscape:document-units="px"
     showgrid="false"
     units="px"
     width="256px"
     inkscape:zoom="7.2407734"
     inkscape:cx="49.304125"
     inkscape:cy="31.350242"
     inkscape:window-width="1920"
     inkscape:window-height="1030"
     inkscape:window-x="0"
     inkscape:window-y="27"
     inkscape:window-maximized="1"
     inkscape:current-layer="layer1"
     borderlayer="true"
     scale-x="1"
     inkscape:showpageshadow="2"
     inkscape:deskcolor="#d1d1d1" />
  <defs
     id="defs2" />
  <g
     inkscape:label="Layer 1"
     inkscape:groupmode="layer"
     id="layer1">
    <g
       id="g7672"
       transform="matrix(1.0064777,0,0,1.0060592,-0.38590647,-0.79955041)"
       inkscape:export-filename="/home/shell/Pictures/tmp/gs/shark.png"
       inkscape:export-xdpi="96"
       inkscape:export-ydpi="96" />
    <path
       id="path485"
       style="color:#000000;fill:#000000;stroke:none;stroke-width:0.982589;-inkscape-stroke:none"
       class="UnoptimicedTransforms"
       d="m 45.791199,0.00755848 c -0.12619,0.014093 -0.26222,0.0490319 -0.37109,0.12304685 -0.21772,0.14802998 -0.36702,0.34363544 -0.59765,0.67382812 -0.46126,0.66038525 -1.21037,1.89926515 -2.6738,4.32617195 -0.54809,0.908938 -1.07031,1.7693197 -1.47264,2.421875 -0.20116,0.3262776 -0.37271,0.601213 -0.49999,0.8027344 -0.10508,0.1663511 -0.1625,0.248773 -0.18359,0.28125 l -0.27344,-0.1699219 c -2.79751,-1.764473 -3.94448,-2.2889606 -5.72064,-2.5976563 -1.45184,-0.2523279 -3.5205,-0.1994401 -4.8144,0.140625 -1.04684,0.2751308 -2.26741,0.8678252 -3.93746,1.8808594 -0.36282,0.2200843 -0.7092,0.4202615 -0.970693,0.5625 -0.08586,0.046702 -0.143625,0.075202 -0.20703,0.1074219 C 24.002426,8.4840799 23.921392,8.3865112 23.785576,8.187246 23.455498,7.7029585 22.931087,6.8461032 22.08833,5.4333398 20.708083,3.119552 19.930634,1.8338166 19.432108,1.1013084 19.182846,0.73505438 19.008436,0.50512744 18.82274,0.33373033 18.637043,0.16233319 18.37098,0.0505272 18.164543,0.0505272 c -0.186224,0 -0.204821,0.0246438 -0.332028,0.0527344 C 17.70531,0.1313522 17.542187,0.1704519 17.342287,0.2204491 16.942483,0.3204434 16.399828,0.46131834 15.762226,0.63255848 14.48702,0.9750388 12.825775,1.4354682 11.154853,1.905996 9.4839323,2.3765238 7.8035383,2.8576237 6.4908413,3.2438866 5.8344923,3.4370181 5.2716163,3.6051635 4.8443743,3.7380272 4.4171323,3.8708909 4.1694153,3.94547 3.9850083,4.0290429 c -0.355436,0.1610826 -0.589603,0.5195825 -0.67382,0.8984375 -0.08422,0.3788549 -0.06792,0.8072691 0.01367,1.3183594 l 0.179686,1.1152343 0.992177,-0.039063 c 0.1207,-0.00495 0.185603,-0.022362 0.30859,-0.046874 0.122987,-0.024513 0.276712,-0.058796 0.462886,-0.1015625 0.372347,-0.085532 0.868604,-0.2074188 1.457015,-0.3554687 1.176822,-0.2960999 2.720175,-0.6984831 4.3495627,-1.140625 1.625451,-0.4410738 3.160828,-0.851361 4.320266,-1.1542969 0.579719,-0.1514678 1.065475,-0.2761833 1.421859,-0.3652344 0.356386,-0.089051 0.642475,-0.1494523 0.607416,-0.1445312 0.140759,-0.019757 0.19639,-0.014264 0.207028,-0.011719 0.01064,0.00255 0.02458,-0.00285 0.111328,0.085937 0.173498,0.1775628 0.516293,0.6933079 1.124988,1.6757813 0.958442,1.5469892 1.692694,2.7801582 2.185523,3.6621093 0.246414,0.440976 0.432808,0.794771 0.552729,1.048827 0.0829,0.175634 0.12375,0.331563 0.140623,0.371094 -0.0043,-0.02846 -0.02155,0.102197 -0.146483,0.34375 -0.133427,0.257965 -0.354354,0.624824 -0.671868,1.107421 -0.511814,0.777925 -1.223349,1.911463 -1.595686,2.546875 l -0.341793,0.585939 -1.761699,-1.708985 c -0.611859,-0.594192 -1.199858,-1.151537 -1.660139,-1.570312 -0.23014,-0.209386 -0.428627,-0.384083 -0.583978,-0.515625 -0.07767,-0.06577 -0.143908,-0.118657 -0.203123,-0.164063 -0.05922,-0.04541 -0.08273,-0.07718 -0.20117,-0.130858 -0.190548,-0.08635 -0.541845,-0.116294 -0.800772,-0.0078 -0.258928,0.10844 -0.506844,0.280534 -0.931631,0.574219 -1.30594,0.902884 -9.3327737,6.973889 -10.9002727,8.240233 -0.851198,0.687665 -1.30012501,1.043163 -1.58787401,1.404297 -0.143874,0.180568 -0.248535,0.387871 -0.2832,0.597658 -0.03466,0.209783 -0.0089,0.38838 0.01758,0.558592 0.07182,0.461901 0.15451,0.819375 0.275388,1.107422 0.06044,0.144023 0.127194,0.273293 0.242185,0.394531 0.114991,0.12124 0.309478,0.23633 0.52343201,0.236328 0.321846,0 0.476827,-0.120357 0.771476,-0.296873 0.294648,-0.176517 0.687877,-0.445665 1.251939,-0.84961 1.128125,-0.80789 2.92584,-2.156109 5.816344,-4.353516 2.1646687,-1.645614 3.4629927,-2.624936 4.2421417,-3.185546 0.389574,-0.280304 0.650788,-0.456974 0.810538,-0.552735 0.05438,-0.0326 0.0012,-0.0138 0.03125,-0.02539 0.106026,0.08532 0.253807,0.214162 0.429682,0.375 0.358888,0.328201 0.821872,0.777106 1.279283,1.236328 0.457414,0.459221 0.911453,0.928729 1.249987,1.300781 0.169267,0.186026 0.311563,0.349517 0.406246,0.466797 0.03785,0.04689 0.06192,0.07744 0.08203,0.105469 -0.0056,-0.0122 -0.0068,-0.01548 -0.01563,0.06641 -0.01234,0.113684 -0.0345,0.276387 -0.06836,0.46875 -0.06771,0.384724 -0.175902,0.891613 -0.304684,1.425781 -0.259671,1.077082 -0.611281,2.79567 -0.791008,3.859375 -0.150856,0.892836 -0.235085,1.32972 -0.289059,1.509766 -0.02445,-0.0029 0.0036,0.0011 -0.02539,-0.0059 -0.108549,-0.02634 -0.264291,-0.07153 -0.447261,-0.130859 -0.365934,-0.118644 -0.845317,-0.296186 -1.365214,-0.505837 -0.506888,-0.204406 -0.97988,-0.383766 -1.337876,-0.509766 -0.178998,-0.063 -0.329182,-0.111649 -0.449214,-0.146484 -0.06002,-0.01742 -0.109069,-0.02994 -0.166014,-0.04102 -0.02847,-0.0056 -0.05832,-0.013 -0.105468,-0.01563 -0.02358,-0.0013 -0.05137,-0.0012 -0.0957,0.0039 -0.02217,0.0026 -0.05005,0.006 -0.08398,0.01563 -0.03395,0.0096 -0.124168,0.05418 -0.124998,0.05469 -0.109784,0.06749 -0.103407,0.08243 -0.123046,0.103515 -0.01964,0.02108 -0.03511,0.03935 -0.05274,0.06055 -0.03524,0.04239 -0.07416,0.09269 -0.123046,0.15625 -0.09778,0.127116 -0.228869,0.303107 -0.390621,0.523438 -0.323501,0.440663 -0.769956,1.058957 -1.2988127,1.798828 -1.057716,1.479744 -2.447008,3.446489 -3.843709,5.435547 -1.396701,1.989058 -2.800825,4.001287 -3.886677,5.574219 -0.542926,0.786465 -1.007426,1.462591 -1.35154801,1.972656 -0.344122,0.510065 -0.547648,0.811014 -0.650384,1.001953 -0.159814,0.297023 -0.120437,0.540197 -0.08008,0.791015 0.04036,0.250819 0.119525,0.508354 0.218748,0.75 0.09922,0.241648 0.213514,0.463738 0.363277,0.654297 0.07488,0.09528 0.157182,0.18692 0.2832,0.265625 0.12601801,0.07871 0.34115201,0.148646 0.55858801,0.07813 0.169621,-0.05501 0.239375,-0.127404 0.326168,-0.207031 0.08679,-0.07963 0.174643,-0.174847 0.281247,-0.298828 0.213209,-0.247961 0.494533,-0.609214 0.886709,-1.136719 0.784354,-1.055009 2.008368,-2.771937 3.927693,-5.498047 2.30331,-3.271499 3.8018897,-5.387288 4.7362767,-6.679687 0.467193,-0.646199 0.792133,-1.08522 1.003895,-1.357422 0.05539,-0.07119 0.07988,-0.09866 0.119139,-0.146484 0.150265,0.05399 0.355765,0.131156 0.591791,0.226562 0.47808,0.19325 1.079817,0.453175 1.630842,0.705078 0.352166,0.160992 0.59482,0.287493 0.724601,0.375 0.05562,0.0375 0.07235,0.05937 0.08203,0.07031 0.0044,0.03362 0.0081,0.06407 0.01953,0.162109 0.01624,0.139352 0.03762,0.328818 0.06055,0.550781 0.04586,0.443926 0.101298,1.022003 0.156248,1.626954 0.11206,1.233655 0.363111,3.169592 0.564447,4.347656 0.09861,0.577003 0.189111,1.115761 0.253904,1.517578 0.02541,0.157597 0.04189,0.273941 0.05859,0.382812 -0.340069,0.07571 -1.050239,0.188751 -2.376928,0.394532 -0.662707,0.102789 -1.287856,0.202935 -1.765606,0.283203 -0.238874,0.04013 -0.441922,0.07582 -0.593744,0.103515 -0.15182,0.0277 -0.201058,0.02763 -0.332027,0.06836 -0.143919,0.04475 -0.3101,0.153612 -0.425776,0.285156 -0.115675,0.131544 -0.205431,0.282341 -0.308591,0.486328 -0.206322,0.407975 -0.465309,1.043532 -0.904287,2.144531 -1.5232477,3.820441 -6.1176927,15.962058 -6.9159407,18.283203 -0.227246,0.660787 -0.363592,1.097525 -0.3457,1.535157 0.01789,0.437632 0.257211,0.803706 0.550776,1.095703 0.102702,0.102153 0.20364,0.194788 0.298825,0.269531 0.04759,0.03737 0.09325,0.06903 0.146482,0.101563 0.05323,0.03253 0.05312,0.09961 0.316403,0.09961 -0.009,0 0.126207,0.02368 0.300778,-0.05078 0.174572,-0.07445 0.27194,-0.199642 0.349606,-0.320313 0.155336,-0.241394 0.311743,-0.594075 0.624993,-1.359375 0.626501,-1.530597 1.825391,-4.653634 4.302688,-11.08789 1.5415897,-4.003952 2.3234857,-6.03101 2.7655947,-7.054688 0.221056,-0.511838 0.361527,-0.772466 0.431636,-0.86914 0.07011,-0.09667 0.0051,-0.04061 0.109374,-0.08398 0.187732,-0.07802 0.817654,-0.225268 1.550764,-0.333984 0.733112,-0.108715 1.601266,-0.197197 2.402319,-0.238281 l 1.097644,-0.05664 0.740227,1.523437 c 1.280122,2.640571 2.439356,4.330819 4.130814,6.001954 2.59225,2.561095 4.89302,3.871228 7.39836,4.126953 1.59201,0.162501 3.85816,0.0185 5.01948,-0.378907 1.8257,-0.62478 3.5664,-1.788056 5.46087,-3.617187 1.56484,-1.510862 2.69941,-3.145932 4.17769,-5.986328 0.27461,-0.527635 0.53419,-1.012424 0.72851,-1.365235 0.0845,-0.153339 0.14849,-0.26733 0.20312,-0.361328 0.13614,0.0042 0.33136,0.01914 0.5625,0.03906 0.47272,0.04074 1.09523,0.108707 1.72459,0.189453 0.62935,0.08075 1.26695,0.17308 1.77147,0.257812 0.25225,0.04237 0.47076,0.08385 0.63475,0.119141 0.164,0.03529 0.2982,0.08224 0.25977,0.06445 0.0472,0.02184 -0.008,-0.04381 0.0859,0.111328 0.0943,0.155143 0.25738,0.493671 0.51757,1.115235 0.52037,1.243125 1.44381,3.62853 3.207,8.207031 1.78153,4.626141 2.79775,7.255099 3.40621,8.777344 0.60846,1.522244 0.78122,1.926902 1.0078,2.21289 l 0.59179,0.746095 0.88085,-0.964844 c 0.14776,-0.161811 0.27883,-0.323981 0.38281,-0.470703 0.052,-0.07336 0.0974,-0.142582 0.13672,-0.214844 0.0393,-0.07226 0.0977,-0.103822 0.0977,-0.335937 0,-0.12152 -0.0117,-0.115409 -0.0176,-0.138672 -0.006,-0.02326 -0.013,-0.04302 -0.0195,-0.06445 -0.013,-0.04288 -0.0299,-0.09263 -0.0508,-0.154297 -0.0418,-0.123355 -0.0997,-0.292462 -0.17578,-0.503906 -0.15224,-0.422889 -0.37032,-1.015057 -0.63867,-1.736328 -0.53669,-1.442544 -1.27373,-3.39505 -2.07224,-5.498047 -1.59702,-4.205996 -3.44236,-9.012994 -4.44722,-11.542969 -0.2893,-0.728371 -0.56786,-1.380591 -0.79101,-1.867188 -0.11157,-0.243297 -0.20762,-0.444716 -0.29101,-0.599609 -0.0417,-0.07745 -0.0801,-0.141481 -0.12109,-0.203125 -0.041,-0.06164 -0.0158,-0.117237 -0.24023,-0.236328 -0.11976,-0.06354 -0.1407,-0.05499 -0.19922,-0.07031 -0.0585,-0.01533 -0.12691,-0.03157 -0.20703,-0.04883 -0.16024,-0.03455 -0.3687,-0.07561 -0.61718,-0.121093 -0.49695,-0.09096 -1.14813,-0.199883 -1.83982,-0.306641 -1.27207,-0.196331 -1.99106,-0.312554 -2.35935,-0.390625 -0.0267,-0.0057 -0.0159,-0.0043 -0.0391,-0.0098 0.0119,-0.07793 0.0213,-0.143363 0.0371,-0.24414 0.0542,-0.345942 0.1285,-0.810917 0.21093,-1.314453 0.41539,-2.537281 0.54635,-3.569609 0.68945,-5.482422 0.045,-0.601048 0.0874,-1.017327 0.13281,-1.279297 0.0285,-0.164161 0.0666,-0.254518 0.0781,-0.289063 0.0157,-0.01184 0.0275,-0.02255 0.0488,-0.03516 0.0727,-0.04291 0.17806,-0.100214 0.30468,-0.164062 0.25326,-0.127696 0.58777,-0.282685 0.93359,-0.433594 0.69163,-0.301818 1.50272,-0.595637 1.66013,-0.626953 0.0175,-0.0035 0.0154,-0.0025 0.0234,-0.0039 -0.009,-0.0036 -0.0264,-0.01744 0.0254,0.0332 0.14508,0.141987 0.46882,0.554124 1.05859,1.34375 0.66008,0.883754 2.81355,3.890012 4.76557,6.652343 2.53972,3.59401 3.82178,5.408641 4.5273,6.320313 0.35276,0.455835 0.53426,0.685389 0.77928,0.851562 0.12252,0.08308 0.31578,0.158418 0.50976,0.125 0.19399,-0.03341 0.2959,-0.132031 0.3418,-0.169921 0.21503,-0.177509 0.22073,-0.280326 0.28906,-0.429688 0.0683,-0.149363 0.13496,-0.320497 0.19531,-0.5 0.1207,-0.359011 0.22656,-0.688593 0.22656,-1.033203 0,-0.251925 -0.0537,-0.252273 -0.0918,-0.332031 -0.0381,-0.07976 -0.0841,-0.168376 -0.14453,-0.273438 -0.1209,-0.210126 -0.29336,-0.487402 -0.51562,-0.833984 -0.44453,-0.693162 -1.09089,-1.661908 -1.91209,-2.865235 -1.64241,-2.406655 -3.98284,-5.75356 -6.78313,-9.691406 -0.56175,-0.789941 -1.07941,-1.518664 -1.46288,-2.058594 -0.38346,-0.53993 -0.66478,-0.935995 -0.64843,-0.912109 -6.3e-4,-9.18e-4 -0.0795,-0.09431 -0.11913,-0.123047 -0.0396,-0.02875 -0.0743,-0.04585 -0.10547,-0.05859 -0.0624,-0.02546 -0.10611,-0.03309 -0.14063,-0.03711 -0.069,-0.0081 -0.10907,-0.0036 -0.14453,0 -0.0709,0.0071 -0.12384,0.01985 -0.18749,0.03516 -0.12731,0.03062 -0.28157,0.07676 -0.46484,0.136719 -0.36655,0.119927 -0.84716,0.294662 -1.36913,0.501953 -0.50737,0.201496 -1.00244,0.386389 -1.38475,0.517578 -0.19115,0.0656 -0.35499,0.118243 -0.47265,0.152344 -0.0222,0.0064 -0.002,0.0033 -0.0234,0.0078 -0.002,-0.0045 10e-4,8.94e-4 0,-0.0039 -0.0859,-0.277923 -0.21236,-0.946407 -0.42969,-2.193359 -0.14499,-0.831963 -0.45146,-2.247132 -0.68944,-3.1875 -0.11546,-0.456247 -0.21952,-0.906011 -0.29492,-1.257813 -0.0377,-0.175899 -0.0699,-0.326863 -0.0898,-0.439453 -0.0108,-0.06092 -0.01,-0.05733 -0.0137,-0.08984 0.009,-0.02969 0.0241,-0.08416 0.0605,-0.140626 0.0799,-0.123916 0.20898,-0.29894 0.36914,-0.496093 0.32032,-0.394306 0.7654,-0.885488 1.22459,-1.359375 0.4592,-0.473888 0.93462,-0.93337 1.3164,-1.263672 0.19088,-0.165151 0.35945,-0.297143 0.47851,-0.378906 0.0156,-0.01073 -0.01,-0.002 0.006,-0.0098 0.0791,0.05253 0.1656,0.112127 0.30273,0.208984 0.34028,0.240359 0.85623,0.613861 1.56834,1.140625 1.42421,1.053531 3.63808,2.714376 6.84758,5.134766 1.14942,0.866812 2.1302,1.573567 2.84958,2.058594 0.35969,0.242514 0.65264,0.427989 0.88085,0.55664 0.11411,0.06433 0.20921,0.114707 0.30859,0.154297 0.0497,0.01979 0.0977,0.0395 0.17187,0.05273 0.0742,0.01323 0.19387,0.0514 0.38867,-0.06836 0.2536,-0.155902 0.23745,-0.255596 0.28516,-0.363281 0.0477,-0.107684 0.0896,-0.22708 0.13085,-0.365234 0.0825,-0.276311 0.16236,-0.626088 0.23242,-1.015625 0.0387,-0.215418 0.0477,-0.557221 -0.11718,-0.863282 -0.16483,-0.306059 -0.43348,-0.582942 -0.90038,-0.99414 -0.93381,-0.822397 -2.70408,-2.164955 -6.1347,-4.753907 -2.16792,-1.636038 -3.68113,-2.766112 -4.71089,-3.519531 -1.02977,-0.75342 -1.53455,-1.112398 -1.8574,-1.277343 -0.12591,-0.06433 -0.4019,-0.108715 -0.59765,-0.04102 -0.19575,0.06769 -0.33574,0.173639 -0.52929,0.332031 -0.38712,0.316784 -0.97033,0.877961 -2.0449,1.923828 -0.63891,0.621844 -1.23376,1.188325 -1.67186,1.595703 -0.14604,0.135794 -0.2409,0.222102 -0.34765,0.31836 -0.10455,-0.158402 -0.2196,-0.333377 -0.34576,-0.550712 -0.3278,-0.564668 -0.979,-1.646027 -1.45702,-2.419921 -0.23362,-0.378227 -0.4555,-0.757026 -0.62108,-1.056641 -0.0828,-0.149808 -0.14941,-0.282101 -0.19727,-0.378905 -0.0478,-0.09681 -0.0798,-0.191714 -0.0645,-0.13086 -1.4e-4,-5.71e-4 -0.008,-0.163946 0.26562,-0.714843 0.27396,-0.5508964 0.78847,-1.4370526 1.64452,-2.8613285 1.05888,-1.7617329 1.6002,-2.6571547 1.89646,-3.0605469 0.14813,-0.201696 0.22972,-0.2615707 0.22656,-0.2597656 -0.003,0.00181 -0.0476,0.00586 0.0644,0.00586 -0.0709,0 9.3e-4,-2.119e-4 0.0742,0.013672 0.0733,0.013884 0.17846,0.035471 0.30664,0.064453 0.25637,0.057966 0.60929,0.1444191 1.02733,0.25 0.8361,0.211162 1.93693,0.5028032 3.09958,0.8242187 2.97725,0.8230604 5.10516,1.3960137 6.53313,1.7539063 0.71399,0.1789463 1.25265,0.3030928 1.64256,0.3808594 0.19496,0.038883 0.35056,0.066134 0.48242,0.082031 0.13186,0.015897 0.20784,0.042695 0.40234,-0.00586 0.21321,-0.053227 0.37761,-0.2027104 0.47656,-0.3535156 0.099,-0.1508051 0.15575,-0.3098465 0.19921,-0.4882812 0.0869,-0.3568696 0.11914,-0.7990855 0.11914,-1.3652344 0,-0.2526559 0.0245,-0.4615412 -0.13476,-0.7207032 -0.15933,-0.2591137 -0.40894,-0.3350042 -0.60937,-0.3984372 -1.04712,-0.3313841 -4.25352,-1.2663363 -7.34758,-2.1523439 -1.54703,-0.4430037 -3.06471,-0.87255245 -4.25972,-1.2070312 -1.19501,-0.33447875 -2.0399,-0.56678946 -2.34763,-0.63671872 -0.0641,-0.014556004 -0.18045,-0.021905 -0.30664,-0.00781 z m 0.14648,0.98046872 c 0.24293,0.0571933 1.0811,0.2843974 2.24217,0.6093749 1.19209,0.3336608 2.70633,0.7624922 4.2519,1.2050783 3.09115,0.8851722 6.32044,1.8255529 7.32219,2.1425781 0.0354,0.011195 0.0305,0.010883 0.0488,0.017578 0.004,0.040056 0.01,0.080502 0.01,0.1679688 0,0.5246252 -0.0385,0.9138419 -0.0918,1.1328125 -0.0147,0.060189 -0.0223,0.070191 -0.0352,0.1015625 -0.0897,-0.0118 -0.20989,-0.031524 -0.37499,-0.064453 -0.36063,-0.071921 -0.89182,-0.196138 -1.59767,-0.3730469 -1.41171,-0.353818 -3.53375,-0.923935 -6.50774,-1.7460938 -1.16897,-0.323159 -2.27699,-0.6164066 -3.12302,-0.8300781 -0.42301,-0.1068357 -0.77875,-0.192845 -1.04882,-0.2539063 -0.13503,-0.030531 -0.24759,-0.05479 -0.33984,-0.072266 -0.0922,-0.017475 -0.13373,-0.033203 -0.25976,-0.033203 -0.12295,0 -0.34887,0.00723 -0.55468,0.125 -0.20581,0.1177699 -0.35016,0.2866373 -0.53124,0.5332031 -0.36217,0.4931319 -0.88822,1.374743 -1.94725,3.1367188 -0.85919,1.4295002 -1.37601,2.3190609 -1.67967,2.9296875 -0.30365,0.6106264 -0.43741,0.9942414 -0.33789,1.3886714 0.0364,0.144175 0.0727,0.208454 0.13086,0.326172 0.0582,0.117717 0.13496,0.257329 0.22266,0.416015 0.17539,0.317372 0.40286,0.704455 0.64452,1.095703 0.47256,0.765059 1.12587,1.851558 1.44335,2.398438 0.16665,0.287089 0.33074,0.548035 0.46679,0.746094 0.068,0.09903 0.12799,0.182263 0.1875,0.253906 0.0298,0.03582 0.058,0.06763 0.10156,0.107422 0.0436,0.03979 0.0402,0.147982 0.36132,0.15039 4.7e-4,5e-6 0.0772,-0.0064 0.10352,-0.01172 0.0264,-0.0054 0.0461,-0.01003 0.0625,-0.01563 0.0328,-0.01118 0.0541,-0.02108 0.0703,-0.0293 0.0324,-0.01643 0.0487,-0.02852 0.0644,-0.03906 0.0316,-0.02108 0.0531,-0.03875 0.0781,-0.05859 0.05,-0.03968 0.10877,-0.08798 0.17773,-0.148437 0.13791,-0.12092 0.32181,-0.288633 0.54491,-0.496094 0.44622,-0.414917 1.04215,-0.983173 1.68553,-1.609375 1.07279,-1.044126 1.66731,-1.611293 1.9824,-1.86914 0.10382,-0.08496 0.11701,-0.08705 0.15039,-0.107422 0.1697,0.09634 0.66383,0.422306 1.62694,1.126953 1.02138,0.747281 2.53081,1.876823 4.69721,3.511719 3.42989,2.588398 5.21077,3.941251 6.07806,4.705078 0.43365,0.381912 0.62696,0.619461 0.68359,0.724609 0.0566,0.105148 0.046,0.06876 0.0176,0.226563 -0.0602,0.334478 -0.12986,0.621749 -0.19336,0.84375 -0.18098,-0.107122 -0.39297,-0.236336 -0.68553,-0.433591 -0.69519,-0.468713 -1.6666,-1.169576 -2.80661,-2.029297 -3.21041,-2.421078 -5.42371,-4.083009 -6.85344,-5.140625 -0.71487,-0.528807 -1.23379,-0.905567 -1.58592,-1.154297 -0.17607,-0.124365 -0.3099,-0.215372 -0.41211,-0.28125 -0.0511,-0.03294 -0.094,-0.05955 -0.13867,-0.08398 -0.0223,-0.01222 -0.0444,-0.02297 -0.0781,-0.03711 -0.0337,-0.01414 -0.0547,-0.04687 -0.20703,-0.04687 -0.35122,0 -0.42975,0.127499 -0.5996,0.244141 -0.16985,0.116642 -0.35867,0.265591 -0.5664,0.445313 -0.41546,0.359443 -0.90594,0.834117 -1.38085,1.324218 -0.4749,0.490103 -0.93319,0.995401 -1.28123,1.423828 -0.17402,0.214215 -0.31929,0.407803 -0.43164,0.582032 -0.11235,0.174228 -0.22851,0.261061 -0.22851,0.59375 0,0.134997 0.0178,0.205414 0.041,0.335937 0.0232,0.130522 0.0564,0.291129 0.0957,0.474609 0.0786,0.366963 0.18446,0.825613 0.30273,1.292969 0.22949,0.906838 0.53681,2.327153 0.67382,3.113281 0.21773,1.249294 0.33049,1.898672 0.45898,2.314454 0.0643,0.207889 0.12959,0.384218 0.30469,0.541015 0.1751,0.156799 0.41695,0.1875 0.53515,0.1875 0.21054,0 0.25786,-0.03683 0.40038,-0.07813 0.14252,-0.0413 0.31657,-0.09704 0.51757,-0.166015 0.40202,-0.13795 0.90881,-0.326349 1.42968,-0.533203 0.50627,-0.201056 0.97479,-0.371934 1.31248,-0.482422 0.0998,-0.03266 0.15587,-0.04547 0.22852,-0.06641 0.10613,0.150152 0.19502,0.274753 0.46874,0.660157 0.38364,0.540172 0.90299,1.270469 1.46483,2.060546 2.79777,3.934296 5.13686,7.277781 6.77336,9.675782 0.81826,1.199001 1.46128,2.161238 1.89647,2.839844 0.21759,0.339301 0.38174,0.609765 0.48827,0.794921 0.0448,0.07789 0.0722,0.131085 0.0937,0.173829 -0.0104,0.0703 -0.0667,0.382178 -0.1621,0.666015 -0.0263,0.07839 -0.0529,0.134905 -0.0801,0.205078 -0.095,-0.101454 -0.12558,-0.119458 -0.32031,-0.371093 -0.67153,-0.867747 -1.96229,-2.689338 -4.50191,-6.283204 -1.95472,-2.766152 -4.09769,-5.756085 -4.78315,-6.673828 -0.59096,-0.791211 -0.88812,-1.19657 -1.15624,-1.458984 -0.13405,-0.131208 -0.28468,-0.244673 -0.4746,-0.294922 -0.18992,-0.05025 -0.35271,-0.01889 -0.45703,0.002 -0.44973,0.08947 -1.14768,0.38024 -1.86521,0.693359 -0.35877,0.15656 -0.70243,0.314892 -0.98046,0.455079 -0.13901,0.07009 -0.26234,0.134575 -0.36523,0.195312 -0.10289,0.06074 -0.17046,0.08644 -0.28906,0.216797 -0.20663,0.227097 -0.24627,0.459633 -0.30273,0.785156 -0.0565,0.325524 -0.10252,0.7573 -0.14844,1.371094 -0.1418,1.895551 -0.26388,2.868664 -0.67772,5.396484 -0.0827,0.505436 -0.15625,0.976998 -0.21094,1.326172 -0.0273,0.174589 -0.0508,0.316343 -0.0664,0.421875 -0.008,0.05276 -0.013,0.09702 -0.0176,0.13086 -0.005,0.03384 -0.0117,-0.007 -0.0117,0.11914 0,0.105433 0.048,0.262017 0.12891,0.361328 0.081,0.09931 0.16665,0.146546 0.24023,0.181641 0.14715,0.07019 0.28539,0.101406 0.49804,0.146484 0.4253,0.09015 1.1358,0.203711 2.41013,0.400391 0.68362,0.10551 1.33009,0.214081 1.81443,0.302734 0.24218,0.04432 0.44481,0.08439 0.58789,0.115235 0.0349,0.0075 0.0529,0.01126 0.0801,0.01758 0.01,0.01738 0.0136,0.02504 0.0254,0.04687 0.0662,0.122891 0.15929,0.311103 0.26562,0.542969 0.21266,0.463731 0.4853,1.104717 0.76952,1.820312 0.99975,2.517119 2.84736,7.326097 4.44331,11.529297 0.79798,2.1016 1.53295,4.051205 2.06834,5.490234 0.26769,0.719515 0.4867,1.311818 0.63671,1.728516 0.075,0.20835 0.13187,0.372042 0.16992,0.484375 -0.008,0.01167 -0.008,0.01639 -0.0176,0.0293 -0.0737,0.103976 -0.18678,0.245509 -0.30859,0.378906 l -0.0625,0.06641 c -0.0753,-0.123529 -0.23438,-0.410194 -0.77538,-1.763671 -0.60381,-1.510605 -1.62098,-4.141967 -3.40231,-8.767579 -1.76332,-4.578857 -2.68138,-6.956146 -3.21481,-8.230468 -0.26671,-0.637162 -0.43221,-0.998462 -0.58397,-1.248047 -0.15177,-0.249586 -0.37259,-0.425978 -0.51562,-0.492188 -0.16024,-0.07418 -0.279,-0.09436 -0.4668,-0.134765 -0.18779,-0.04041 -0.41803,-0.08301 -0.67968,-0.126953 -0.52328,-0.08788 -1.1689,-0.181602 -1.80857,-0.263672 -0.63968,-0.08207 -1.27103,-0.152698 -1.76561,-0.195313 -0.24728,-0.0213 -0.45891,-0.0342 -0.6289,-0.03906 -0.085,-0.0024 -0.15867,-0.0041 -0.23046,0 -0.0718,0.0041 -0.10794,-0.03031 -0.30273,0.07422 -7.2e-4,3.84e-4 -0.0712,0.04637 -0.0898,0.0625 -0.0187,0.01612 -0.0313,0.0287 -0.041,0.03906 -0.0194,0.02071 -0.0296,0.03455 -0.0391,0.04687 -0.0189,0.02463 -0.0316,0.04222 -0.0449,0.0625 -0.0266,0.04055 -0.0533,0.0872 -0.0859,0.142578 -0.0653,0.11076 -0.15012,0.260066 -0.25,0.441406 -0.19976,0.362683 -0.46065,0.851343 -0.73827,1.384766 -1.45494,2.795532 -2.50749,4.300859 -3.9902,5.732422 -1.82836,1.765302 -3.441,2.828958 -5.09369,3.394531 -0.8087,0.276748 -3.18553,0.474612 -4.60151,0.330078 -2.23057,-0.227684 -4.29662,-1.369775 -6.802665,-3.845703 -1.617399,-1.597962 -2.688368,-3.151838 -3.939412,-5.732422 l -1.025379,-2.111328 -1.749981,0.08984 c -0.837633,0.04296 -1.731128,0.134322 -2.49802,0.248047 -0.766891,0.113726 -1.374284,0.231264 -1.781231,0.40039 -0.124364,0.05169 -0.367422,0.188908 -0.529291,0.41211 -0.161869,0.223201 -0.308226,0.522166 -0.539056,1.05664 -0.461663,1.068949 -1.237627,3.087711 -2.7792667,7.091797 -2.477369,6.434439 -3.681234,9.564406 -4.296829,11.068359 -0.241238,0.589367 -0.339471,0.774255 -0.425777,0.941407 -0.0014,-0.0014 -0.0025,-0.0025 -0.0039,-0.0039 -0.226259,-0.225049 -0.254691,-0.271517 -0.261717,-0.443359 -0.007,-0.171844 0.07452,-0.54057 0.292966,-1.175781 0.763306,-2.219543 5.388803,-14.454122 6.8983627,-18.240234 0.437238,-1.096636 0.699966,-1.731902 0.869131,-2.066407 0.08354,-0.165189 0.14461,-0.250333 0.167967,-0.277343 -0.03046,0.01071 0.06643,-0.01324 0.197264,-0.03711 0.144135,-0.02629 0.342081,-0.06191 0.578119,-0.101562 0.472077,-0.07931 1.096792,-0.179028 1.75584,-0.28125 1.331223,-0.206484 2.032385,-0.317979 2.445286,-0.410157 0.20645,-0.04609 0.341693,-0.07211 0.503901,-0.171875 0.08111,-0.04988 0.176028,-0.135265 0.234372,-0.248046 0.05834,-0.11278 0.06641,-0.225494 0.06641,-0.28711 0,-0.103703 -0.0063,-0.09168 -0.01172,-0.132812 -0.0055,-0.04113 -0.01408,-0.09179 -0.02344,-0.154297 -0.01873,-0.125016 -0.04538,-0.294972 -0.07813,-0.498047 -0.06549,-0.40615 -0.154844,-0.947728 -0.253903,-1.527344 -0.194007,-1.135173 -0.446271,-3.077999 -0.554682,-4.271484 -0.05528,-0.608619 -0.111776,-1.189312 -0.158202,-1.638672 -0.02321,-0.22468 -0.04349,-0.416138 -0.06055,-0.5625 -0.01706,-0.146363 -0.02212,-0.217179 -0.04297,-0.316406 -0.06535,-0.311024 -0.269019,-0.468079 -0.48437,-0.613282 -0.215335,-0.145255 -0.492289,-0.28571 -0.867161,-0.457082 -0.5664,-0.258932 -1.175878,-0.521006 -1.669904,-0.720703 -0.247014,-0.09985 -0.465308,-0.184677 -0.636712,-0.246094 -0.0857,-0.03071 -0.158174,-0.0564 -0.224607,-0.07617 -0.06644,-0.01978 -0.08242,-0.04297 -0.249997,-0.04297 -0.16292,0 -0.222822,0.04942 -0.267575,0.07617 -0.04475,0.02675 -0.06913,0.04681 -0.0918,0.06641 -0.04534,0.03919 -0.07825,0.07421 -0.115232,0.115234 -0.07395,0.08205 -0.160158,0.188377 -0.273435,0.333984 -0.226555,0.291216 -0.557135,0.736364 -1.027333,1.386719 -0.9403967,1.300712 -2.4381287,3.416963 -4.7421357,6.689453 -1.918038,2.724281 -3.138655,4.438898 -3.910115,5.476563 -0.385729,0.518831 -0.660289,0.868677 -0.84374,1.082031 -0.01,0.0116 -0.01204,0.01265 -0.02148,0.02344 -0.0465,-0.08073 -0.09131,-0.142221 -0.134761,-0.248047 -0.07392,-0.180027 -0.131758,-0.381008 -0.156249,-0.533203 -0.01837,-0.114147 0.0034,-0.201864 -0.0039,-0.203125 0.03234,-0.05596 0.250333,-0.399925 0.580072,-0.888672 0.34068,-0.504962 0.801973,-1.180064 1.343736,-1.964844 1.083525,-1.569561 2.487249,-3.58098 3.882771,-5.568359 1.395522,-1.987379 2.784718,-3.951672 3.8398017,-5.427735 0.527543,-0.738031 0.970181,-1.354714 1.289048,-1.789062 0.143031,-0.194832 0.252532,-0.336714 0.339841,-0.451172 0.07822,0.02509 0.145559,0.0439 0.253903,0.08203 0.337586,0.118817 0.799613,0.29441 1.294908,0.494141 0.537571,0.21678 1.036631,0.400576 1.433579,0.529297 0.198472,0.06436 0.370512,0.114714 0.517572,0.15039 0.147061,0.03568 0.223428,0.0757 0.439448,0.05078 0.08746,-0.01009 0.255671,-0.01968 0.42773,-0.144532 0.172061,-0.124845 0.254754,-0.300059 0.310543,-0.466797 0.111579,-0.333476 0.181605,-0.795906 0.339841,-1.732421 0.173412,-1.026332 0.528017,-2.750731 0.779288,-3.792969 0.132975,-0.551557 0.241884,-1.072058 0.31445,-1.484375 0.03628,-0.20616 0.06202,-0.384918 0.07813,-0.533203 0.01609,-0.148286 0.05367,-0.207545 -0.0039,-0.435547 -0.04044,-0.160272 -0.08391,-0.194406 -0.126951,-0.257813 -0.04305,-0.06341 -0.0906,-0.127573 -0.148437,-0.199219 -0.115684,-0.143291 -0.266338,-0.315221 -0.443355,-0.509765 -0.354034,-0.389087 -0.813662,-0.866521 -1.279283,-1.333985 -0.465622,-0.467463 -0.935481,-0.920853 -1.312486,-1.265624 -0.188503,-0.172386 -0.35169,-0.318376 -0.488276,-0.427735 -0.0683,-0.05468 -0.128954,-0.09905 -0.193358,-0.140625 -0.06441,-0.04158 -0.05999,-0.121094 -0.353511,-0.121094 -0.271201,0 -0.390425,0.09648 -0.597651,0.220704 -0.207225,0.12422 -0.481473,0.310298 -0.880849,0.597656 -0.798752,0.574715 -2.097608,1.55453 -4.2636257,3.201172 -2.888731,2.196057 -4.684871,3.544387 -5.792906,4.33789 -0.554018,0.396752 -0.938079,0.655273 -1.187488,0.804688 -0.124704,0.07471 -0.07859,0.05787 -0.130858,0.07813 -0.06214,-0.160187 -0.137458,-0.432903 -0.199216,-0.830078 -0.02296,-0.14768 -0.02447,-0.218165 -0.01953,-0.248047 0.0049,-0.02988 0.0068,-0.05204 0.08203,-0.146485 0.150502,-0.188885 0.589384,-0.568746 1.437484,-1.253906 1.482077,-1.197334 9.6935467,-7.400179 10.8436337,-8.195312 0.416297,-0.287814 0.661202,-0.437424 0.749991,-0.47461 0.0026,-0.0011 0.0017,-9.18e-4 0.0039,-0.002 0.0063,0.0041 0.0092,0.0048 0.01563,0.0098 0.03857,0.02957 0.09779,0.07729 0.167966,0.136718 0.140362,0.118852 0.32998,0.287749 0.554682,0.492188 0.449405,0.408879 1.033677,0.959365 1.638655,1.546875 l 2.664033,2.585937 0.978506,-1.669921 c 0.354394,-0.604793 1.066475,-1.742123 1.566389,-2.501953 0.326986,-0.496998 0.564575,-0.884096 0.726554,-1.197266 0.161978,-0.31317 0.272566,-0.534477 0.263669,-0.845702 -0.0089,-0.31271 -0.105862,-0.447526 -0.242184,-0.736328 C 22.362179,9.767566 22.167319,9.3994409 21.914502,8.9470116 21.408874,8.0421531 20.66848,6.8020371 19.705542,5.2477929 19.094701,4.2618516 18.780343,3.7444331 18.447744,3.4040429 18.281442,3.2338476 18.080791,3.0989936 17.861812,3.046621 17.642832,2.994248 17.454358,3.019034 17.285646,3.042711 17.115022,3.06666 16.938931,3.116254 16.57667,3.2067734 16.214408,3.2972934 15.724915,3.4238965 15.143091,3.5759141 13.979447,3.8799493 12.445061,4.2884201 10.816966,4.730211 9.1928063,5.1709379 7.6535803,5.5748559 6.4849823,5.8688866 5.9006823,6.0159021 5.4085273,6.1355634 5.0474973,6.218496 4.8669823,6.259962 4.7192863,6.292807 4.6119553,6.314199 4.5046243,6.335591 4.4112613,6.343365 4.4557063,6.341543 l -0.117186,0.00586 -0.03906,-0.2558593 c -0.07045,-0.4413133 -0.0679,-0.7706891 -0.02734,-0.953125 0.04055,-0.1824359 0.07007,-0.1926041 0.119139,-0.2148438 0.0088,-0.00397 0.327206,-0.1177835 0.746086,-0.2480469 0.41888,-0.1302634 0.981274,-0.2999017 1.634748,-0.4921874 1.306948,-0.3845714 2.984286,-0.8642773 4.6522927,-1.3339844 1.668006,-0.4697073 3.326668,-0.9287215 4.595654,-1.2695314 0.634493,-0.1704049 1.172755,-0.3107283 1.562483,-0.4082031 0.194865,-0.048737 0.351452,-0.08672 0.462886,-0.1113281 0.09121,-0.020143 0.131476,-0.021717 0.09766,-0.023437 0.0046,0.00579 -0.0043,8.281e-4 0.01172,0.015625 0.07567,0.069847 0.232849,0.2587353 0.464839,0.5996094 0.46398,0.6817483 1.241974,1.9674475 2.621065,4.2792969 0.845021,1.416558 1.372451,2.2804775 1.732403,2.8085938 0.179976,0.264058 0.314912,0.4426926 0.45312,0.5839844 0.138208,0.1412917 0.313042,0.2871093 0.582025,0.2871093 0.18809,0 0.19141,-0.030592 0.238279,-0.048828 0.04687,-0.018237 0.09067,-0.038658 0.140624,-0.0625 0.09992,-0.047685 0.21914,-0.1112184 0.35937,-0.1875 0.28047,-0.1525633 0.63911,-0.3587369 1.01366,-0.5859375 1.63258,-0.9903082 2.78524,-1.5340473 3.67379,-1.7675781 1.04564,-0.2748162 3.14061,-0.3413081 4.39644,-0.1230469 1.66934,0.2901298 2.5915,0.7107803 5.36322,2.4589844 l 1.03905,0.65625 0.5039,-0.6601563 c 0.0774,-0.1011865 0.14295,-0.207474 0.27343,-0.4140631 0.13049,-0.206589 0.30157,-0.4823728 0.5039,-0.8105469 0.40467,-0.6563482 0.93087,-1.5202239 1.48046,-2.4316406 1.46312,-2.4263931 2.21995,-3.6776334 2.63473,-4.2714845 0.18526,-0.2652405 0.28188,-0.3495163 0.30859,-0.3749999 z M 28.381229,22.745839 c -0.21242,-0.0191 -0.42735,-0.009 -0.63866,0.02734 -0.42262,0.07259 -0.83471,0.253052 -1.21288,0.523437 -0.75635,0.540769 -1.41583,1.41972 -1.98045,2.589844 -1.199514,2.485896 -1.534815,4.549519 -1.417953,8.564453 0.08077,2.775249 0.279537,3.822076 1.111317,5.847656 0.591636,1.440781 1.143976,2.33188 1.915996,3.007813 0.48456,0.424251 0.99114,0.70899 1.53123,0.810547 0.5401,0.101557 1.09594,0.0067 1.62108,-0.246094 0.89484,-0.430873 1.59015,-1.399158 2.52927,-3.195313 0.18754,-0.358697 0.26018,-0.462511 0.38085,-0.671875 0.12196,0.186569 0.25262,0.380162 0.41016,0.591797 0.39895,0.535967 0.85296,1.086953 1.21873,1.414063 0.77613,0.694079 1.65461,1.03224 2.52537,0.892578 0.87075,-0.139662 1.66151,-0.717388 2.38278,-1.625 1.48295,-1.866063 2.19725,-4.423787 2.19725,-7.626953 0,-2.97153 -0.43384,-5.0775 -1.46093,-6.904297 -0.98975,-1.760401 -2.14354,-2.783028 -3.47066,-2.769532 -1.32712,0.0135 -2.53879,1.032929 -3.70113,2.804688 -0.0525,0.07997 -0.0903,0.130447 -0.14063,0.203125 -0.023,-0.05488 -0.0434,-0.08813 -0.0664,-0.146484 -0.33312,-0.844544 -0.84786,-1.711482 -1.39842,-2.427735 -0.55056,-0.716251 -1.08397,-1.287014 -1.70506,-1.519531 -0.0961,-0.03599 -0.19531,-0.04318 -0.29297,-0.06641 v -0.02734 l -0.12304,-0.002 c -0.072,-0.01316 -0.14253,-0.04233 -0.21484,-0.04883 z m 9.23037,7.583984 c -0.0157,-3.7e-5 0.18104,0.05067 0.37109,0.201172 0.077,0.061 0.15274,0.138542 0.22461,0.220703 0.0544,0.08511 0.10347,0.175565 0.16015,0.257813 -0.006,0.0012 -0.0115,0.0028 -0.0176,0.0039 -0.0186,-0.01004 -0.0373,-0.02007 -0.0625,-0.01172 -0.20276,0.06713 -0.28541,0.178071 -0.35741,0.28125 -0.072,0.103178 -0.12207,0.214333 -0.14844,0.349609 -0.0699,0.358371 -0.0188,0.681999 0.24023,0.94336 0.0201,0.02028 0.0599,0.03166 0.0859,0.05078 0.0232,0.01649 0.0473,0.03028 0.0742,0.04492 0.13845,0.07746 0.30589,0.13503 0.48632,0.07813 0.0137,-0.0043 0.0152,-0.01752 0.0234,-0.02539 0.0325,-0.01686 0.0566,-0.03809 0.0742,-0.0625 0.014,0.186637 0.0974,0.305157 0.0859,0.498047 -0.0467,0.788839 -0.29561,1.551006 -0.5664,1.871094 -0.12762,0.150864 -0.15073,0.160605 -0.16992,0.167969 -0.0192,0.0073 -0.12883,0.02754 -0.39843,0.02344 -0.16206,-0.0024 -0.32833,-0.01166 -0.45703,-0.02344 -0.0529,-0.0048 -0.10389,-0.01479 -0.14453,-0.02344 -0.0204,-0.0252 -0.0771,-0.08407 -0.13085,-0.195312 -0.082,-0.169675 -0.16442,-0.4248 -0.23047,-0.712891 -0.008,-0.03783 -0.0142,-0.07803 -0.0215,-0.117187 -0.05,-0.244083 -0.0824,-0.511919 -0.10351,-0.78125 -0.0149,-0.181409 -0.023,-0.361522 -0.0254,-0.539063 -6.7e-4,-0.04883 -0.002,-0.09856 -0.002,-0.146484 0.005,-0.168577 0.0194,-0.330791 0.041,-0.482422 0.0761,-0.53397 0.25387,-1.010975 0.45507,-1.351563 0.0186,-0.03383 0.0369,-0.07312 0.0547,-0.103515 0.21081,-0.316483 0.42086,-0.416104 0.45898,-0.416016 z m -8.0214,0.02148 c 0.0179,5.21e-4 0.0393,0.005 0.0645,0.01172 0.002,0.0032 0.003,-0.0024 0.13477,0.06836 0.1538,0.08247 0.2412,0.402488 0.36523,0.585937 -0.044,0.0078 -0.0865,0.01737 -0.12109,0.03516 -0.008,0.0041 -0.0121,0.0095 -0.0195,0.01367 -0.009,0.0026 -0.0215,-8.94e-4 -0.0293,0.0039 -0.0261,0.01607 -0.0314,0.03416 -0.0527,0.05078 -0.0427,0.03285 -0.0802,0.06661 -0.10743,0.101562 -0.0638,0.08081 -0.10732,0.160853 -0.13281,0.232422 -0.0115,0.03225 -0.0112,0.06226 -0.0195,0.09375 -0.0138,0.05182 -0.0239,0.104382 -0.0312,0.15625 -3.6e-4,0.0026 3.6e-4,0.0052 0,0.0078 -0.004,0.02779 -0.0156,0.05604 -0.0176,0.08398 -0.001,0.01784 0.003,0.03682 0.002,0.05469 -0.005,0.07437 -10e-6,0.151464 0.0117,0.230469 0.003,0.02127 -2.4e-4,0.0408 0.004,0.0625 0.0154,0.08052 0.0502,0.170593 0.10547,0.265625 0.0301,0.05808 0.0595,0.101861 0.0918,0.134766 0.004,0.0036 0.004,0.0062 0.008,0.0098 0.0772,0.07677 0.17306,0.156311 0.32617,0.199218 0.10725,0.03005 0.23531,0.01262 0.35351,-0.02344 0.0126,-0.0036 0.0249,-0.0072 0.0371,-0.01172 0.0365,-0.01361 0.0791,-0.01953 0.10938,-0.03906 0.008,-0.0054 0.002,-0.01217 0.01,-0.01758 0.0342,0.412114 0.13935,0.827396 0.0137,1.296875 -0.21481,0.802427 -0.45922,1.121493 -0.74804,1.257813 -0.22317,0.105338 -0.29903,0.123015 -0.33984,0.123047 -0.0408,3.2e-5 -0.13858,-0.02252 -0.38476,-0.128906 -0.1187,-0.05129 -0.23649,-0.156846 -0.36719,-0.431641 -0.1307,-0.274795 -0.25191,-0.704035 -0.34179,-1.292969 -0.1035,-0.678167 -0.0308,-1.401385 0.16015,-1.974609 0.19097,-0.573223 0.50974,-0.968273 0.75781,-1.085938 0.1556,-0.0738 0.17062,-0.07292 0.1582,-0.07422 z" />
  </g>
</svg>
