<?xml version="1.0" encoding="UTF-8" standalone="no"?>
<svg
	xmlns="http://www.w3.org/2000/svg"
	width="256"
	height="64"
	viewBox="0 0 256 64">
	<title>WhiteSpider</title>
	<path
		d="m 42.441711,8.7500044 c -0.0037,0.00455 4.98e-4,0.00198 -0.0073,0.010251 -0.06204,0.065658 -0.17578,0.2137154 -0.342762,0.4656892 -0.333947,0.5039466 -0.886991,1.4193074 -1.847104,3.0108714 -0.41213,0.683193 -0.808582,1.329773 -1.111778,1.821753 -0.151595,0.24599 -0.278699,0.452881 -0.376453,0.607739 -0.09775,0.154858 -0.145356,0.234389 -0.203606,0.310459 l -0.290003,0.377824 -0.298817,-0.287029 c -1.812549,-1.747731 -3.871809,-2.6522 -5.96171,-2.65355 -2.065146,0.0088 -4.098944,0.898874 -5.894329,2.61401 l -0.254873,0.243096 -0.254875,-0.241631 c -0.327993,-0.31028 -0.684832,-0.920468 -1.6684,-2.568613 C 22.895374,10.727773 22.310515,9.7622514 21.962434,9.25084 21.788393,8.9951345 21.670661,8.8537597 21.613813,8.8012595 c -0.01202,-0.011126 -0.0053,-0.00744 -0.0088,-0.011716 0.02114,0.00136 -0.0046,0.00276 -0.07177,0.017573 -0.08357,0.018451 -0.202485,0.046935 -0.348621,0.083473 -0.29227,0.073077 -0.696008,0.1783143 -1.171835,0.3060663 -0.951654,0.2555042 -2.195763,0.5997434 -3.446657,0.9518812 -1.250895,0.352138 -2.507546,0.711897 -3.487673,1.000207 -0.490064,0.144155 -0.911898,0.269916 -1.226032,0.367573 -0.314135,0.09766 -0.552952,0.184463 -0.559551,0.187447 -0.03653,0.01654 -0.05901,0.02408 -0.08935,0.161087 -0.03029,0.136733 -0.03204,0.38327 0.02051,0.713179 v 0.0015 l 0.03076,0.188912 0.08789,-0.0029 c -0.03335,0.0014 0.03522,-0.0045 0.115719,-0.0205 0.0805,-0.01604 0.191264,-0.04067 0.326649,-0.07176 0.27077,-0.06218 0.639868,-0.151905 1.078088,-0.262133 0.876437,-0.220455 2.030845,-0.521907 3.248911,-0.852299 1.221027,-0.331195 2.371776,-0.639078 3.244518,-0.866944 0.436372,-0.113932 0.804923,-0.207476 1.076623,-0.275313 0.271702,-0.06784 0.402353,-0.105069 0.530256,-0.123012 0.126523,-0.01775 0.267883,-0.03637 0.432113,0.0029 0.164233,0.0393 0.316301,0.140398 0.440903,0.267991 0.249202,0.255185 0.482312,0.641878 0.940398,1.380959 0.692787,1.117742 1.22835,2.013545 1.60102,2.676981 0.186333,0.331717 0.333086,0.605583 0.439437,0.824474 0.106351,0.218876 0.1722,0.364136 0.205072,0.531589 l 0.03369,0.165481 -0.10693,0.134727 c -0.904813,1.127809 -1.700032,2.46651 -2.353923,3.973004 l -0.21093,0.489119 -1.977472,-1.91694 h -0.0015 c -0.453726,-0.44044 -0.890495,-0.85184 -1.227498,-1.158366 -0.168502,-0.153263 -0.312214,-0.279937 -0.417466,-0.369037 -0.05263,-0.04454 -0.09559,-0.08035 -0.124507,-0.10251 -0.0057,-0.0043 -0.0092,-0.0053 -0.01465,-0.0088 -0.0017,8.25e-4 -9e-4,6.4e-4 -0.0029,0.0015 -0.06638,0.02763 -0.250414,0.13873 -0.562481,0.354393 -0.862379,0.595974 -7.017999,5.248551 -8.1296033,6.146219 -0.636066,0.513667 -0.9667065,0.795814 -1.0795528,0.937236 -0.056421,0.07071 -0.057847,0.08904 -0.061521,0.111297 -0.00368,0.02226 -0.00257,0.07525 0.014647,0.185982 0.046453,0.29858 0.1011683,0.503878 0.1479442,0.623848 0.038678,-0.01499 0.00478,-0.0018 0.099606,-0.05858 0.1870164,-0.112015 0.4766047,-0.305907 0.8920592,-0.603346 0.8309087,-0.594878 2.1766537,-1.607673 4.3431127,-3.253966 1.624433,-1.234411 2.598607,-1.967814 3.197644,-2.39874 0.299498,-0.215441 0.503761,-0.354973 0.659157,-0.448115 0.155396,-0.09315 0.246226,-0.164017 0.449692,-0.164017 0.22012,0 0.216829,0.05816 0.265127,0.08933 0.0483,0.03117 0.09233,0.06446 0.14355,0.10544 0.102451,0.08197 0.22626,0.190034 0.367663,0.319246 0.282805,0.258425 0.636517,0.600025 0.985806,0.950415 0.34929,0.350393 0.692393,0.707095 0.957975,0.998743 0.132792,0.145824 0.247191,0.274804 0.333973,0.382217 0.0434,0.05371 0.07903,0.101835 0.111325,0.149372 0.03229,0.04753 0.06341,0.07311 0.09375,0.193305 0.02979,0.117991 0.01273,0.130468 0.01025,0.166945 -0.0025,0.03649 -0.0057,0.07048 -0.01025,0.106904 -0.0092,0.07284 -0.02112,0.152401 -0.02929,0.215271 l -0.0044,0.03368 -0.01025,0.03076 c -0.549446,1.699727 -0.924181,3.52849 -1.108849,5.414003 l -0.0074,0.06883 -0.03223,0.06297 c -0.08745,0.169109 -0.328852,0.321078 -0.490706,0.339748 -0.161475,0.01862 -0.220743,-0.01001 -0.331043,-0.03661 -0.110301,-0.0266 -0.240726,-0.06467 -0.389635,-0.112762 -0.297819,-0.09619 -0.670363,-0.232817 -1.073694,-0.395397 -0.371519,-0.149756 -0.717909,-0.281268 -0.971158,-0.370501 -0.08177,-0.02881 -0.133015,-0.04407 -0.191887,-0.06297 -0.06549,0.08581 -0.146088,0.192157 -0.25341,0.338284 -0.239145,0.32561 -0.571115,0.788153 -0.966764,1.34142 -0.791298,1.106531 -1.833162,2.579814 -2.879784,4.069655 -1.046622,1.489841 -2.099381,2.997007 -2.912009,4.173629 -0.406314,0.588314 -0.752274,1.093209 -1.007778,1.471754 -0.2469318,0.365845 -0.410362,0.623736 -0.4350437,0.666317 0.00465,0.0037 -0.010577,0.06881 0.00293,0.152301 0.018442,0.114029 0.061626,0.263412 0.1171835,0.398325 0.032645,0.07927 0.067497,0.125573 0.1025355,0.185983 0.00634,-0.0073 0.00797,-0.0084 0.014647,-0.0161 0.1374791,-0.159829 0.343634,-0.422486 0.6327908,-0.811295 0.5783129,-0.777617 1.4955159,-2.062523 2.9339809,-4.104801 1.727932,-2.453256 2.849523,-4.039046 3.555054,-5.014214 0.352765,-0.487585 0.601949,-0.821409 0.771946,-1.039747 0.085,-0.109168 0.149596,-0.190377 0.205072,-0.251881 0.02773,-0.03075 0.05097,-0.05411 0.08496,-0.08347 0.01699,-0.01468 0.03531,-0.03267 0.06885,-0.05272 0.03354,-0.02005 0.07982,-0.05565 0.202141,-0.05565 0.125417,0 0.136238,0.01888 0.186029,0.03368 0.04979,0.0148 0.104223,0.03268 0.168452,0.05565 0.128454,0.04595 0.292394,0.108315 0.477522,0.183054 0.370256,0.149481 0.829037,0.346245 1.253863,0.540375 0.281209,0.1285 0.48739,0.233686 0.648904,0.342678 0.161515,0.10899 0.314378,0.226683 0.363268,0.45983 8.25e-4,0.0053 0.0065,0.04514 0.0073,0.05419 8.25e-4,0.0095 4.9e-4,0.02043 0.0015,0.03076 9e-4,0.01033 0.0023,0.02077 0.0029,0.02782 l 0.0029,0.02197 v 0.03953 0.0015 c 0.0042,2.272815 0.284129,4.5248 0.82175,6.633875 l 0.0586,0.229916 -0.186029,0.147907 c -0.194481,0.15414 -0.334606,0.152888 -0.657692,0.213808 -0.323086,0.06092 -0.817039,0.139117 -1.601019,0.260669 -0.49441,0.07666 -0.962636,0.151704 -1.316849,0.210878 -0.177107,0.02958 -0.325436,0.05509 -0.433579,0.07469 -0.09762,0.01769 -0.168357,0.03561 -0.14648,0.02783 -0.01738,0.02 -0.06303,0.08494 -0.125972,0.209413 -0.126904,0.250956 -0.325377,0.725791 -0.653297,1.547904 -1.13212,2.838267 -4.601181,12.010933 -5.173651,13.674861 -0.163839,0.476202 -0.224969,0.752565 -0.219719,0.881588 0.0052,0.129024 0.02669,0.163799 0.196282,0.332427 0.0014,0.0014 0.003,0.0015 0.0044,0.0029 0.06471,-0.125455 0.137119,-0.264204 0.31786,-0.705857 0.461458,-1.127595 1.363136,-3.475301 3.221081,-8.298934 1.15618,-3.001694 1.739534,-4.514533 2.085866,-5.315886 0.173165,-0.400676 0.282841,-0.623475 0.404283,-0.790793 0.121443,-0.167318 0.303719,-0.271726 0.396959,-0.31046 0.305425,-0.126878 0.762222,-0.213753 1.337356,-0.298743 0.575136,-0.08499 1.243912,-0.153779 1.872007,-0.185983 l 1.165975,-0.06004 0.09228,0.259204 c 2.041309,5.76915 5.893385,9.261761 9.985496,9.269852 4.098272,-0.0097 7.956427,-3.51419 9.994286,-9.297676 l 0.06738,-0.196234 0.203605,-0.04246 c 0.13965,-0.02927 0.213253,-0.01748 0.347157,-0.01172 0.133904,0.0058 0.297902,0.01827 0.484847,0.03515 0.373899,0.03374 0.839515,0.08764 1.30513,0.147907 0.465614,0.06028 0.931638,0.126675 1.308061,0.190376 0.188217,0.03185 0.352425,0.06287 0.487776,0.09226 0.13536,0.02939 0.222976,0.04404 0.339833,0.09812 0.107287,0.04964 0.271433,0.181932 0.38524,0.369037 0.113807,0.187106 0.23796,0.458117 0.437973,0.935772 0.400037,0.955313 1.088616,2.737082 2.41105,6.16965 1.335939,3.467631 2.098954,5.439801 2.551671,6.57237 0.405934,1.015541 0.525327,1.231587 0.581522,1.323845 l 0.04687,-0.04979 c 0.09143,-0.100111 0.174697,-0.206213 0.23,-0.28416 0.0069,-0.0097 0.0087,-0.01173 0.01465,-0.0205 -0.02854,-0.08422 -0.07264,-0.208444 -0.128901,-0.364643 -0.112485,-0.312395 -0.275328,-0.756603 -0.476058,-1.296022 -0.401469,-1.078834 -0.952842,-2.540964 -1.551216,-4.116517 -1.196763,-3.151107 -2.582643,-6.756121 -3.332405,-8.643075 -0.213142,-0.53641 -0.417613,-1.017387 -0.577129,-1.36485 -0.07976,-0.173731 -0.149593,-0.315043 -0.199212,-0.407112 -0.0086,-0.01596 -0.01023,-0.01942 -0.01758,-0.03222 -0.02075,-0.0048 -0.03618,-0.0089 -0.06298,-0.01464 -0.107325,-0.02316 -0.257801,-0.05311 -0.439439,-0.0864 -0.363274,-0.06657 -0.846681,-0.147898 -1.359328,-0.226988 -0.826409,-0.127493 -1.339048,-0.208117 -1.666935,-0.270919 -0.163939,-0.0314 -0.280749,-0.05755 -0.379382,-0.08787 -0.09863,-0.03032 -0.191649,-0.05311 -0.298818,-0.171339 l -0.133295,-0.144978 0.04981,-0.190376 c 0.520672,-2.053689 0.795693,-4.241008 0.811495,-6.452286 3e-5,-0.0039 -2.2e-5,-0.0079 0,-0.01172 v -0.03076 l 0.0058,-0.02929 v -0.0015 -0.0015 c 0.04256,-0.244587 0.07657,-0.417499 0.228507,-0.584309 0.08893,-0.0977 0.139635,-0.11556 0.21679,-0.161087 0.07716,-0.04553 0.168206,-0.0939 0.272451,-0.146444 0.208484,-0.105088 0.467758,-0.226779 0.736792,-0.344141 0.538052,-0.234723 1.060121,-0.45134 1.397412,-0.518408 0.0782,-0.01565 0.201809,-0.03903 0.344227,-0.0015 0.142409,0.03758 0.25531,0.12278 0.355945,0.22113 0.201278,0.1967 0.423936,0.499294 0.867158,1.092466 0.514131,0.688069 2.119869,2.930326 3.585814,5.003963 1.904617,2.694149 2.874169,4.060881 3.377813,4.711075 0.146198,0.18874 0.168979,0.200849 0.240227,0.276778 0.02031,-0.05237 0.03896,-0.0953 0.0586,-0.153766 0.07148,-0.212885 0.115362,-0.4469 0.123042,-0.49937 -0.0161,-0.03205 -0.03665,-0.0719 -0.07031,-0.130334 -0.07989,-0.138803 -0.204492,-0.340203 -0.367663,-0.59456 -0.326344,-0.508713 -0.808692,-1.231918 -1.422315,-2.130748 -1.227233,-1.797657 -2.980216,-4.302499 -5.078439,-7.251865 -0.42135,-0.59227 -0.810711,-1.13988 -1.098595,-1.544975 -0.205262,-0.288841 -0.273187,-0.383559 -0.353014,-0.496442 -0.05422,0.01567 -0.09565,0.02693 -0.169917,0.05126 -0.253152,0.08289 -0.604602,0.210969 -0.98434,0.361715 -0.39055,0.155036 -0.770849,0.29478 -1.07223,0.398325 -0.150686,0.05177 -0.279853,0.09492 -0.386705,0.125942 -0.106852,0.03103 -0.142066,0.05858 -0.300283,0.05858 -0.09019,0 -0.263894,-0.02175 -0.392565,-0.131799 -0.128662,-0.110051 -0.180959,-0.240509 -0.228508,-0.385146 l -0.01172,-0.03662 -0.0044,-0.041 c -0.189567,-1.92111 -0.576159,-3.781802 -1.143974,-5.50762 l -0.02783,-0.08054 0.01172,-0.08347 c 0.02768,-0.200203 0.101827,-0.282014 0.188958,-0.412969 0.08713,-0.130957 0.198201,-0.276192 0.329578,-0.436401 0.262751,-0.320418 0.603806,-0.696108 0.955046,-1.05732 0.351232,-0.361209 0.710903,-0.707539 1.016567,-0.970918 0.152826,-0.13169 0.292096,-0.242472 0.417466,-0.328032 0.125369,-0.08556 0.184344,-0.177196 0.443832,-0.177196 0.114217,0 0.131482,0.02162 0.156734,0.03222 0.02525,0.0106 0.0433,0.02012 0.06006,0.02929 0.03346,0.01831 0.06568,0.03681 0.104,0.06151 0.07664,0.04938 0.175593,0.117658 0.307606,0.210879 0.264028,0.18644 0.651905,0.470545 1.187948,0.866943 1.072097,0.792792 2.73373,2.037946 5.141425,3.85292 0.854968,0.644492 1.581929,1.170084 2.103443,1.521544 0.219418,0.147869 0.379829,0.243301 0.515607,0.323639 0.04747,-0.166274 0.09858,-0.37952 0.14355,-0.629706 0.02133,-0.118357 0.03073,-0.09248 -0.01172,-0.171338 -0.04244,-0.07886 -0.187562,-0.256945 -0.512678,-0.543304 -0.650242,-0.572716 -1.986154,-1.587415 -4.558437,-3.527816 -1.624724,-1.225609 -2.756868,-2.072866 -3.522829,-2.633048 -0.723159,-0.528874 -1.094947,-0.77172 -1.221638,-0.843512 -0.02516,0.01534 -0.03521,0.01564 -0.112789,0.07908 -0.23631,0.193211 -0.680753,0.618736 -1.4853,1.401462 -0.464331,0.451736 -0.888368,0.85604 -1.209919,1.155435 -0.160779,0.149699 -0.294548,0.272829 -0.398424,0.364644 -0.05195,0.04591 -0.0955,0.08319 -0.133297,0.114226 -0.03778,0.03103 -0.05156,0.04908 -0.124507,0.08933 l -0.35448,0.194769 -0.161128,-0.3705 c -0.645753,-1.470787 -1.426733,-2.78043 -2.31291,-3.8866 L 39.003736,16.1923 39.022776,16.04 c 0.06234,-0.533205 0.437434,-1.132121 1.524851,-2.940579 0.794238,-1.320881 1.19163,-1.980695 1.463328,-2.350412 0.135845,-0.184859 0.242602,-0.311511 0.396959,-0.39979 0.154355,-0.08827 0.323769,-0.09372 0.416002,-0.09372 0.09456,0 0.125632,0.01179 0.194817,0.0249 0.06918,0.01311 0.153626,0.02982 0.254874,0.05272 0.202495,0.0458 0.469406,0.111724 0.786594,0.191841 0.634375,0.160233 1.465552,0.38013 2.342205,0.622383 2.230414,0.616342 3.823432,1.043805 4.882156,1.309202 0.529355,0.132699 0.924815,0.225736 1.195272,0.279706 0.123804,0.02471 0.213975,0.03947 0.28124,0.04833 0.0097,-0.02361 0.01661,-0.03184 0.02783,-0.07761 0.04017,-0.164373 0.06885,-0.454745 0.06885,-0.847906 0,-0.06544 -0.0041,-0.09609 -0.0074,-0.125941 -0.01376,-0.005 -0.01004,-0.0048 -0.03662,-0.01318 -0.75117,-0.23774 -3.173329,-0.94282 -5.491331,-1.606554 C 46.163397,9.7815232 45.02894,9.4585623 44.135012,9.2083715 43.259238,8.9632627 42.619032,8.7914377 42.441711,8.7500044 Z"
		style="fill:#ffffff" />
	<path
		d="m 42.350427,8.0026014 c -0.171922,0.015788 -0.329976,0.120732 -0.451168,0.2490247 -0.1212,0.1282935 -0.246877,0.3005418 -0.423336,0.5668984 -0.352934,0.5327128 -0.904362,1.4456895 -1.864741,3.0381035 -0.411095,0.681645 -0.804476,1.325626 -1.105953,1.814952 -0.150734,0.244664 -0.278166,0.45095 -0.373536,0.602055 -0.0067,0.01084 -0.0052,0.0086 -0.0117,0.01904 -1.846095,-1.654264 -3.945877,-2.614822 -6.117164,-2.616226 h -0.0015 c -2.145606,0.0087 -4.221004,0.952603 -6.049765,2.576675 C 25.790837,14.056189 25.447076,13.561742 24.564363,12.082216 23.529195,10.347178 22.949063,9.3856631 22.575112,8.8361023 22.388136,8.5613225 22.255858,8.3875682 22.116618,8.2589507 21.977377,8.1303332 21.778052,8.0465472 21.622967,8.0465472 c -0.139676,0 -0.153621,0.018488 -0.249022,0.039548 -0.0954,0.021068 -0.217756,0.04893 -0.367675,0.086427 -0.299836,0.074985 -0.706879,0.1821333 -1.185054,0.3105483 -0.95635,0.2568308 -2.200968,0.6007648 -3.454088,0.9536191 -1.253121,0.3528544 -2.513566,0.7152274 -3.498034,1.0048894 -0.492233,0.144831 -0.915908,0.272437 -1.236323,0.372072 -0.320415,0.09963 -0.507703,0.1556 -0.645994,0.218263 -0.266867,0.120918 -0.440975,0.389651 -0.503904,0.673832 -0.06293,0.284182 -0.0495,0.602668 0.01172,0.985846 l 0.133301,0.837896 0.744137,-0.03076 c 0.09054,-0.0037 0.139204,-0.01677 0.231445,-0.03516 0.09224,-0.01839 0.208999,-0.0441 0.348632,-0.07617 0.279265,-0.06415 0.64999,-0.155568 1.091304,-0.266603 0.882629,-0.22207 2.041642,-0.523926 3.263659,-0.855474 1.219057,-0.330746 2.36769,-0.637159 3.237292,-0.864263 0.434802,-0.113552 0.800567,-0.208637 1.067867,-0.275392 0.267301,-0.06676 0.481802,-0.110616 0.455565,-0.106935 0.105578,-0.01482 0.147427,-0.01213 0.155273,-0.01025 0.0078,0.0019 0.0185,-6.62e-4 0.0835,0.06592 0.130006,0.133161 0.385746,0.518611 0.842282,1.255378 0.689477,1.112688 1.22113,2.002059 1.584955,2.649918 0.181912,0.32393 0.322906,0.588923 0.418943,0.786626 0.06781,0.139596 0.08307,0.190033 0.104004,0.24756 -0.794274,1.019707 -1.476419,2.214535 -2.075676,3.503927 l -1.25976,-1.221687 c -0.458882,-0.445561 -0.899951,-0.860784 -1.245113,-1.174812 -0.172581,-0.157013 -0.320026,-0.288077 -0.436522,-0.386721 -0.05825,-0.04932 -0.1094,-0.09046 -0.153808,-0.124512 -0.04441,-0.03405 -0.06204,-0.05643 -0.150878,-0.09668 -0.142481,-0.06456 -0.405994,-0.08833 -0.600584,-0.0074 -0.194589,0.08103 -0.379997,0.210342 -0.698728,0.430667 -0.979586,0.677151 -6.999751,5.230693 -8.1752614,6.180212 -0.6383308,0.515629 -0.9750982,0.782695 -1.1909137,1.053229 -0.1079066,0.135267 -0.1863765,0.289496 -0.2124014,0.44678 -0.026025,0.157284 -0.00667,0.291334 0.013185,0.418948 0.053887,0.346418 0.1157861,0.614483 0.2065425,0.830571 0.045382,0.108044 0.096876,0.204988 0.1831051,0.2959 0.086228,0.09091 0.2304816,0.177247 0.3911115,0.177247 0.2414038,0 0.3561976,-0.09028 0.577146,-0.222657 0.2209477,-0.132373 0.5174335,-0.332832 0.9404254,-0.635746 0.845987,-0.605828 2.194441,-1.618849 4.362289,-3.266621 1.623484,-1.234007 2.597292,-1.968725 3.181628,-2.389174 0.292168,-0.210225 0.488102,-0.341259 0.607908,-0.413089 0.04084,-0.02448 9e-4,-0.01182 0.02344,-0.0205 0.07953,0.06398 0.191948,0.162266 0.323729,0.282717 0.269227,0.246078 0.614862,0.582938 0.958004,0.927251 0.343142,0.344314 0.683537,0.696636 0.937496,0.975592 0.12698,0.139479 0.233661,0.260702 0.304687,0.348635 0.0224,0.02773 0.03245,0.04352 0.04687,0.06299 v 0.0015 c -0.0068,0.05405 -0.01588,0.12428 -0.0249,0.191896 -0.537061,1.674562 -0.892157,3.471104 -1.086911,5.31302 -0.08126,-0.01975 -0.194179,-0.05147 -0.329588,-0.09522 -0.274409,-0.08865 -0.635637,-0.220787 -1.025386,-0.377932 -0.380085,-0.15325 -0.732008,-0.28917 -1.000485,-0.383792 -0.13424,-0.04731 -0.248365,-0.08368 -0.338378,-0.109863 -0.045,-0.01309 -0.08181,-0.02388 -0.124511,-0.03223 -0.02135,-0.0042 -0.04226,-0.0083 -0.07764,-0.01025 -0.01769,-0.001 -0.03996,-0.0023 -0.07325,0.0015 -0.01664,0.0019 -0.03601,0.0059 -0.06152,0.01319 -0.0255,0.0072 -0.09459,0.0421 -0.09521,0.04248 -0.08233,0.05061 -0.07756,0.0589 -0.09229,0.07471 -0.01473,0.0158 -0.02635,0.03098 -0.03956,0.04687 -0.02642,0.03179 -0.05709,0.06952 -0.09375,0.117188 -0.07334,0.09532 -0.170189,0.22736 -0.291503,0.39258 -0.242629,0.330439 -0.577469,0.794324 -0.974117,1.349129 -0.793296,1.109611 -1.835262,2.582225 -2.882801,4.073755 -1.047539,1.491529 -2.102095,3.002663 -2.9164932,4.182154 -0.4071997,0.589745 -0.7541087,1.097019 -1.0122037,1.4795 -0.2580942,0.382482 -0.4092719,0.606819 -0.4863259,0.750005 -0.1199163,0.222851 -0.091936,0.406655 -0.061522,0.59473 0.030412,0.188077 0.089478,0.379884 0.1640618,0.561039 0.07458,0.181154 0.1629422,0.347915 0.2753892,0.490725 0.056227,0.07141 0.1164251,0.138812 0.2109367,0.197756 0.094512,0.05894 0.255869,0.112938 0.4189439,0.06006 0.1271223,-0.04123 0.1795523,-0.09559 0.2446281,-0.155275 0.065077,-0.05969 0.1310305,-0.131201 0.2109367,-0.224122 0.1598131,-0.185843 0.3710371,-0.457124 0.6650354,-0.852545 0.587999,-0.790841 1.504855,-2.077865 2.944326,-4.122095 1.727447,-2.453197 2.85121,-4.039144 3.552232,-5.008331 0.350511,-0.484593 0.595488,-0.815395 0.754392,-1.019537 0.04181,-0.05372 0.06125,-0.07388 0.09082,-0.109863 0.112484,0.0404 0.264675,0.100217 0.440916,0.171388 0.358261,0.144675 0.809925,0.338474 1.22314,0.527346 0.264057,0.120696 0.446179,0.217059 0.543455,0.282718 0.03819,0.02578 0.04821,0.03748 0.05566,0.04394 0.0053,2.208413 0.281045,4.389035 0.779294,6.458534 -0.06056,0.01914 -0.01497,0.0051 -0.143554,0.02929 -0.301116,0.05679 -0.79481,0.134947 -1.577631,0.256349 -0.496866,0.07706 -0.965867,0.152526 -1.324214,0.212404 -0.179173,0.02994 -0.329942,0.05551 -0.443845,0.07617 -0.113904,0.02065 -0.151502,0.02197 -0.250488,0.05273 -0.108095,0.03361 -0.232614,0.113713 -0.319334,0.212404 -0.08672,0.09869 -0.152619,0.211728 -0.22998,0.364748 -0.154724,0.306046 -0.351924,0.782812 -0.68115,1.608408 -1.142452,2.86478 -4.586856,11.970487 -5.185527,13.711019 -0.170434,0.495495 -0.271126,0.821692 -0.257811,1.149909 0.01331,0.328216 0.191361,0.6042 0.411619,0.823247 0.0772,0.07678 0.154037,0.14464 0.225585,0.200684 0.03578,0.02802 0.06996,0.0533 0.109863,0.07764 0.03991,0.02433 0.03801,0.07325 0.235839,0.07325 -0.0068,0 0.09609,0.01933 0.22705,-0.03662 0.130963,-0.05595 0.20258,-0.149759 0.260741,-0.240237 0.116322,-0.180956 0.233945,-0.4471 0.468748,-1.021002 0.469606,-1.147804 1.367632,-3.488175 3.225574,-8.313038 1.156174,-3.002448 1.744018,-4.524914 2.075675,-5.292512 0.165829,-0.383799 0.272591,-0.577901 0.325195,-0.650394 0.0526,-0.0725 0.0038,-0.03045 0.08203,-0.06299 0.140569,-0.05841 0.611766,-0.167749 1.161617,-0.249025 0.549851,-0.08127 1.200866,-0.147899 1.801751,-0.178712 l 0.645994,-0.03369 c 2.134826,5.7936 6.120414,9.496658 10.558554,9.505427 h 0.0015 c 4.45037,-0.0097 8.446288,-3.730836 10.57613,-9.550837 0.003,1.06e-4 0.0015,-1.32e-4 0.0045,0 0.114862,0.005 0.271416,0.016 0.451175,0.03223 0.359497,0.03245 0.817835,0.08425 1.275873,0.143556 0.458038,0.05931 0.916639,0.126195 1.278805,0.187501 0.181079,0.03065 0.338256,0.05948 0.455563,0.08496 0.117307,0.02548 0.212317,0.05972 0.184567,0.04687 0.0354,0.01637 -0.0053,-0.03284 0.06593,0.0835 0.07072,0.116344 0.191594,0.371795 0.386721,0.837896 0.390253,0.932203 1.081421,2.719086 2.403793,6.15238 1.336135,3.469007 2.099947,5.441466 2.556148,6.583047 0.456201,1.141579 0.585748,1.446482 0.755855,1.661142 L 52.841747,56 53.502389,55.277828 c 0.110775,-0.121289 0.210562,-0.243051 0.288577,-0.35303 0.039,-0.05499 0.07305,-0.105487 0.102539,-0.159668 0.02955,-0.05419 0.07328,-0.07924 0.07328,-0.25342 0,-0.09111 -0.01028,-0.08656 -0.01463,-0.104005 -0.0045,-0.01745 -0.0083,-0.03227 -0.0132,-0.04834 -0.0097,-0.03215 -0.021,-0.06947 -0.0366,-0.115724 -0.03127,-0.0925 -0.07623,-0.219367 -0.133304,-0.377932 -0.114165,-0.317128 -0.279231,-0.761363 -0.480463,-1.302253 -0.402456,-1.08178 -0.953929,-2.545038 -1.552734,-4.122095 -1.197596,-3.154116 -2.58179,-6.758631 -3.335433,-8.655813 -0.216981,-0.546227 -0.425855,-1.037117 -0.593262,-1.401864 -0.08371,-0.182373 -0.1557,-0.332157 -0.218257,-0.448245 -0.03128,-0.05804 -0.05857,-0.107616 -0.08935,-0.153809 -0.03075,-0.04619 -0.01492,-0.08653 -0.183104,-0.175783 -0.08974,-0.04761 -0.104062,-0.04123 -0.147952,-0.05273 -0.04387,-0.01151 -0.09371,-0.02219 -0.153809,-0.03515 -0.120195,-0.02594 -0.277964,-0.05812 -0.464354,-0.09229 -0.372778,-0.06833 -0.861056,-0.14992 -1.379874,-0.229982 -0.824982,-0.127307 -1.337298,-0.208495 -1.640619,-0.266603 -0.06172,-0.01183 -0.07684,-0.0194 -0.121582,-0.02929 0.479938,-2.003754 0.747582,-4.111094 0.766107,-6.247595 3e-5,-0.0029 0.0015,-0.0059 0.0015,-0.0088 0.02265,-0.114434 0.05123,-0.18257 0.05715,-0.205079 0.01147,-0.0087 0.01965,-0.01573 0.03518,-0.0249 0.05452,-0.03218 0.136492,-0.07517 0.231449,-0.123048 0.189907,-0.09575 0.439401,-0.212042 0.698727,-0.325198 0.518646,-0.226313 1.127043,-0.448196 1.245108,-0.471682 0.01215,-0.0024 0.01005,-0.002 0.01613,-0.0029 -0.01193,-0.0048 -0.02078,-0.01541 0.02197,0.02637 0.108824,0.106375 0.350181,0.415734 0.792477,1.007819 0.49499,0.662622 2.111669,2.917863 3.575671,4.989287 1.904775,2.695061 2.864787,4.055377 3.39403,4.738797 0.264629,0.341711 0.401983,0.511237 0.585935,0.635746 0.09198,0.06225 0.238439,0.120388 0.383788,0.09522 0.145357,-0.02517 0.219052,-0.09907 0.253417,-0.127442 0.161287,-0.133106 0.165614,-0.210292 0.216794,-0.322268 0.05115,-0.111976 0.09984,-0.24046 0.14502,-0.375002 C 55.918835,39.889954 56,39.642253 56,39.384131 56,39.195244 55.95972,39.194913 55.93115,39.135106 55.90257,39.075296 55.86665,39.008809 55.821283,38.930027 55.730633,38.772462 55.602711,38.56589 55.436032,38.306 55.102673,37.786223 54.617815,37.059397 54.001955,36.157062 52.77025,34.352392 51.014754,31.844279 48.914574,28.891394 48.493256,28.299023 48.103715,27.751015 47.815949,27.345974 47.528167,26.940932 47.317343,26.641798 47.331083,26.661888 l -0.0015,-0.0015 c -4.72e-4,-6.88e-4 -0.0582,-0.06926 -0.08789,-0.09082 -0.0297,-0.02155 -0.05715,-0.03439 -0.08057,-0.04394 -0.0468,-0.01909 -0.07957,-0.02482 -0.105464,-0.02783 -0.05183,-0.006 -0.08034,-0.0027 -0.106935,0 -0.05317,0.0054 -0.09437,0.01488 -0.142087,0.02637 -0.09544,0.02298 -0.208327,0.05608 -0.345704,0.101075 -0.274754,0.08998 -0.636897,0.22251 -1.028321,0.377932 -0.380608,0.151128 -0.751894,0.289665 -1.038566,0.388186 -0.143347,0.04927 -0.266279,0.08718 -0.354493,0.112793 -0.01365,0.004 -7.5e-4,0.0014 -0.01462,0.0044 -0.192915,-1.887628 -0.575976,-3.715001 -1.127921,-5.427278 7.35e-4,0.01698 0.0045,-0.008 0.05715,-0.08643 0.06517,-0.09802 0.165562,-0.231141 0.287106,-0.379396 0.243089,-0.29651 0.573043,-0.660006 0.912589,-1.009284 0.339554,-0.349277 0.68957,-0.685787 0.969724,-0.927251 0.140084,-0.120732 0.264621,-0.21751 0.351561,-0.276857 0.0052,-0.0035 -0.0038,4.1e-5 0.0015,-0.0029 0.05917,0.03931 0.125557,0.08212 0.227054,0.153809 0.255149,0.180218 0.640805,0.461958 1.174796,0.856939 1.067996,0.789962 2.728624,2.034645 5.135725,3.849632 0.862054,0.650001 1.596054,1.180161 2.135737,1.543954 0.269834,0.181898 0.489448,0.322447 0.660642,0.418948 0.0856,0.04825 0.156907,0.08456 0.231442,0.114259 0.03727,0.01485 0.0747,0.02963 0.130372,0.03955 0.05565,0.0099 0.145312,0.0386 0.291502,-0.05127 0.190176,-0.116888 0.178109,-0.191718 0.213869,-0.272463 0.03578,-0.08074 0.06577,-0.168893 0.09667,-0.272462 0.0618,-0.207139 0.123255,-0.46966 0.175785,-0.761724 0.02903,-0.161476 0.03555,-0.417882 -0.08789,-0.647464 -0.123524,-0.229583 -0.325191,-0.438634 -0.675289,-0.747075 -0.700213,-0.616886 -2.02812,-1.622591 -4.60106,-3.563986 -1.625912,-1.22682 -2.760905,-2.074719 -3.533184,-2.639664 -0.77228,-0.564944 -1.150931,-0.834328 -1.393068,-0.958014 -0.09439,-0.04822 -0.299931,-0.08147 -0.446773,-0.03076 -0.146834,0.05071 -0.253229,0.130272 -0.398436,0.249025 -0.290406,0.237504 -0.727752,0.660065 -1.533684,1.444344 -0.461166,0.44877 -0.880947,0.848451 -1.19677,1.142585 -0.0985,0.09173 -0.165892,0.150924 -0.241702,0.219727 -0.591965,-1.264391 -1.266205,-2.433223 -2.046382,-3.436543 0.03337,-0.170382 0.333943,-0.823091 1.387202,-2.575211 0.794149,-1.321066 1.20157,-1.992911 1.423825,-2.295423 0.111127,-0.151256 0.172236,-0.197614 0.169919,-0.196291 -0.0023,0.0013 -0.0357,0.0044 0.04838,0.0044 -0.05325,0 7.5e-4,0.0013 0.05565,0.01172 0.05497,0.01042 0.133875,0.0266 0.229987,0.04834 0.192224,0.04349 0.457026,0.108301 0.770502,0.187501 0.62696,0.158402 1.452707,0.377141 2.324699,0.618168 2.232899,0.617186 3.828975,1.046915 4.899881,1.315438 0.535461,0.134261 0.938044,0.227273 1.230468,0.285646 0.146197,0.02919 0.264381,0.04958 0.363276,0.06152 0.0989,0.01194 0.154349,0.03204 0.300291,-0.0044 0.160087,-0.03997 0.284662,-0.152082 0.358889,-0.265138 0.07425,-0.113055 0.116692,-0.23378 0.149414,-0.367678 0.0654,-0.267796 0.08935,-0.597799 0.08935,-1.022467 0,-0.189799 0.01763,-0.348 -0.102539,-0.541995 -0.12016,-0.193989 -0.305514,-0.249892 -0.455566,-0.29737 C 52.254379,10.768812 49.847706,10.069013 47.52744,9.4044621 46.367314,9.0721862 45.231714,8.7485961 44.335557,8.4977181 43.439408,8.2468409 42.80422,8.0726291 42.573356,8.0201768 c -0.05632,-0.012803 -0.132502,-0.02586 -0.222651,-0.01758 z m 0.09229,0.7441454 c 0.177322,0.041445 0.81755,0.2133192 1.693351,0.4584987 0.893959,0.250263 2.028442,0.5733161 3.187488,0.9052785 2.318076,0.663925 4.740304,1.369208 5.491682,1.606943 0.02655,0.0084 0.02287,0.0081 0.0366,0.01318 0.003,0.02986 0.0075,0.06051 0.0075,0.125977 0,0.393274 -0.02865,0.683729 -0.06885,0.84815 -0.01125,0.04579 -0.01807,0.05402 -0.02782,0.07764 -0.06727,-0.0089 -0.157447,-0.02363 -0.281249,-0.04834 -0.270472,-0.05399 -0.665968,-0.14705 -1.195338,-0.279787 -1.058756,-0.265474 -2.651817,-0.693059 -4.882301,-1.309578 -0.87668,-0.242323 -1.707886,-0.462283 -2.342279,-0.622562 -0.317196,-0.08014 -0.584113,-0.146086 -0.78662,-0.191896 -0.101249,-0.0229 -0.185706,-0.03962 -0.254879,-0.05273 -0.06922,-0.01311 -0.100259,-0.0249 -0.194826,-0.0249 -0.09223,0 -0.261652,0.0055 -0.416009,0.09375 -0.154364,0.0883 -0.261126,0.214993 -0.396973,0.399905 -0.271709,0.369824 -0.66911,1.029826 -1.463372,2.351088 -1.087451,1.808979 -1.462562,2.408065 -1.524902,2.941423 l -0.01905,0.152345 0.09668,0.118653 c 0.886205,1.106488 1.667207,2.416506 2.312977,3.887718 l 0.161136,0.370607 0.354487,-0.194824 c 0.07297,-0.04026 0.08674,-0.05831 0.124514,-0.08936 0.0378,-0.03104 0.08136,-0.06833 0.133297,-0.114258 0.103882,-0.09184 0.237652,-0.215007 0.398436,-0.364749 0.321561,-0.299482 0.745617,-0.7039 1.209963,-1.155768 0.804567,-0.782951 1.249023,-1.208598 1.485339,-1.401864 0.07758,-0.06345 0.08763,-0.06375 0.112792,-0.0791 0.126697,0.07181 0.498494,0.314728 1.221678,0.843755 0.765987,0.560343 1.898161,1.407842 3.522939,2.633805 2.572363,1.94096 3.90831,2.955948 4.558573,3.528829 0.325131,0.286442 0.470256,0.464576 0.512698,0.543461 0.04245,0.07889 0.03308,0.053 0.0117,0.171387 -0.045,0.250258 -0.09608,0.463565 -0.143557,0.629887 -0.135787,-0.08036 -0.296196,-0.175821 -0.515623,-0.323733 -0.521533,-0.351561 -1.248513,-0.877302 -2.10351,-1.521981 -2.407768,-1.815497 -4.069447,-3.061006 -5.141582,-3.854026 -0.536061,-0.396512 -0.923944,-0.680698 -1.187981,-0.867193 -0.132022,-0.09325 -0.230977,-0.161544 -0.307619,-0.210939 -0.03833,-0.02471 -0.0705,-0.04321 -0.104002,-0.06152 -0.01673,-0.0092 -0.0348,-0.01869 -0.06007,-0.0293 -0.02528,-0.01061 -0.04252,-0.03223 -0.156734,-0.03223 -0.259499,0 -0.318479,0.09166 -0.443848,0.177248 -0.125377,0.08558 -0.264652,0.196399 -0.417479,0.328126 -0.305676,0.263455 -0.665352,0.609884 -1.016598,0.971198 -0.351254,0.361314 -0.692315,0.737112 -0.955077,1.057623 -0.131384,0.160256 -0.242451,0.305531 -0.329586,0.436527 -0.08714,0.130993 -0.161287,0.212827 -0.188962,0.413088 l -0.0117,0.0835 0.02782,0.08057 c 0.567831,1.726315 0.954432,3.587538 1.144038,5.50931 l 0.0045,0.04102 0.0117,0.03662 c 0.04755,0.144679 0.09985,0.275173 0.228509,0.385256 0.128677,0.110083 0.302392,0.131837 0.392579,0.131837 0.158219,0 0.193439,-0.02755 0.300291,-0.0586 0.10686,-0.03103 0.236024,-0.07419 0.386721,-0.125977 0.301387,-0.103576 0.681695,-0.243359 1.072256,-0.39844 0.379754,-0.150789 0.731217,-0.278908 0.984371,-0.361819 0.07425,-0.02433 0.115703,-0.0356 0.169927,-0.05127 0.07983,0.112916 0.147757,0.207661 0.353024,0.496585 0.287894,0.405211 0.677262,0.952978 1.098626,1.545419 2.098289,2.950216 3.851325,5.455774 5.078598,7.253949 0.61364,0.899089 1.096001,1.622501 1.422354,2.131361 0.163177,0.25443 0.287789,0.455887 0.367679,0.59473 0.03368,0.05845 0.05423,0.09832 0.07028,0.130372 -0.0076,0.05248 -0.0516,0.286567 -0.123052,0.499514 -0.01965,0.05848 -0.03833,0.10142 -0.05857,0.15381 -0.07125,-0.07595 -0.09403,-0.08806 -0.240232,-0.276857 -0.50366,-0.650382 -1.473241,-2.017503 -3.377912,-4.71243 -1.465997,-2.074235 -3.071778,-4.317133 -3.585924,-5.005401 -0.44324,-0.593342 -0.665907,-0.896023 -0.867184,-1.092781 -0.100642,-0.09838 -0.213546,-0.183602 -0.355956,-0.221192 -0.142424,-0.03758 -0.266031,-0.01416 -0.344241,0.0015 -0.337304,0.06709 -0.859384,0.283767 -1.397455,0.518557 -0.269039,0.117395 -0.52832,0.239121 -0.736812,0.34424 -0.10425,0.05256 -0.195299,0.100941 -0.272459,0.146486 -0.07716,0.04554 -0.127867,0.0634 -0.216802,0.161133 -0.151941,0.166858 -0.185954,0.33982 -0.228509,0.584476 v 0.0015 0.0015 l -0.006,0.0293 v 0.03076 c -2.2e-5,0.0038 3e-5,0.0079 0,0.01172 -0.01582,2.211915 -0.290834,4.39986 -0.811519,6.45414 l -0.0498,0.190431 0.133297,0.14502 c 0.107175,0.118261 0.200189,0.141064 0.298829,0.171388 0.09863,0.03033 0.215444,0.05648 0.379394,0.08789 0.327898,0.06282 0.840551,0.143466 1.666981,0.270997 0.512668,0.07911 0.996086,0.160464 1.35937,0.227053 0.181649,0.03329 0.332128,0.06325 0.439453,0.08643 0.02678,0.0058 0.04223,0.0098 0.063,0.01465 0.0075,0.0128 0.0089,0.01626 0.01755,0.03223 0.04965,0.0921 0.119452,0.233448 0.199221,0.407229 0.159517,0.347563 0.363996,0.828677 0.577146,1.365242 0.749787,1.887498 2.135706,5.493544 3.332507,8.645559 0.598393,1.576008 1.149783,3.038555 1.551264,4.1177 0.200737,0.539574 0.363584,0.983909 0.476068,1.296395 0.05625,0.156244 0.100372,0.280507 0.12891,0.364748 -0.006,0.0088 -0.0078,0.0108 -0.01463,0.0205 -0.05527,0.07797 -0.138585,0.184102 -0.229979,0.284181 l -0.04687,0.04981 c -0.05617,-0.09229 -0.175627,-0.308501 -0.581571,-1.324336 -0.452728,-1.132895 -1.215767,-3.105628 -2.551752,-6.574258 -1.32247,-3.433559 -2.011073,-5.215835 -2.411121,-6.171423 -0.200017,-0.477793 -0.324179,-0.748882 -0.437983,-0.936041 -0.113813,-0.18716 -0.277964,-0.319488 -0.385259,-0.369143 -0.116857,-0.05409 -0.204479,-0.06874 -0.339839,-0.09814 -0.135359,-0.0294 -0.299571,-0.06043 -0.48779,-0.09229 -0.376439,-0.06372 -0.842472,-0.13014 -1.3081,-0.19043 -0.465629,-0.06029 -0.931264,-0.114203 -1.305175,-0.147951 -0.186952,-0.01687 -0.350954,-0.02937 -0.484859,-0.03515 -0.133911,-0.0058 -0.207516,-0.01756 -0.347166,0.01172 l -0.203616,0.04248 -0.06735,0.19629 c -2.037922,5.785154 -5.896193,9.290636 -9.99459,9.300341 -4.092243,-0.0081 -7.94443,-3.501702 -9.985803,-9.272516 l -0.09229,-0.259279 -1.16601,0.06006 c -0.628115,0.03221 -1.29691,0.101022 -1.872064,0.186036 -0.575153,0.08502 -1.031963,0.171914 -1.337397,0.29883 -0.09324,0.03874 -0.275525,0.143183 -0.396971,0.310549 -0.121446,0.167365 -0.231125,0.390228 -0.404295,0.79102 -0.346343,0.801583 -0.929713,2.314853 -2.08593,5.317414 -1.858003,4.825023 -2.759707,7.173398 -3.221179,8.301319 -0.180747,0.44178 -0.253155,0.580568 -0.31787,0.706059 -0.0014,-0.0014 -0.003,-0.0016 -0.0044,-0.0029 -0.169603,-0.168677 -0.191053,-0.203462 -0.196288,-0.332522 -0.0053,-0.129061 0.05588,-0.405502 0.219725,-0.881841 0.572488,-1.664409 4.041654,-10.839706 5.173809,-13.678792 0.327931,-0.82235 0.526409,-1.29732 0.653318,-1.548349 0.06295,-0.124509 0.108589,-0.189467 0.125975,-0.209474 -0.02188,0.0078 0.04886,-0.01013 0.146485,-0.02783 0.108145,-0.01961 0.256479,-0.04512 0.433592,-0.07471 0.354225,-0.05919 0.822464,-0.134262 1.316889,-0.210939 0.784005,-0.121586 1.277972,-0.199806 1.601068,-0.260744 0.323096,-0.06094 0.463225,-0.05969 0.657712,-0.213869 l 0.186035,-0.147949 -0.0586,-0.229982 c -0.537637,-2.109684 -0.817556,-4.362311 -0.821774,-6.635782 v -0.0015 -0.03955 l -0.0029,-0.02197 c -6.66e-4,-0.007 -0.002,-0.0175 -0.0029,-0.02783 -9.75e-4,-0.01033 -6.4e-4,-0.02124 -0.0015,-0.03076 -9e-4,-0.009 -0.0065,-0.04895 -0.0073,-0.0542 -0.04889,-0.233215 -0.20176,-0.350941 -0.36328,-0.459964 -0.16152,-0.109022 -0.367707,-0.214238 -0.648923,-0.342776 -0.42484,-0.194185 -0.883635,-0.391006 -1.253902,-0.54053 -0.185133,-0.07476 -0.349078,-0.137138 -0.477537,-0.183106 -0.06423,-0.02298 -0.11866,-0.04086 -0.168456,-0.05567 -0.04979,-0.0148 -0.06062,-0.03369 -0.186035,-0.03369 -0.122327,0 -0.168605,0.03561 -0.202147,0.05567 -0.03354,0.02005 -0.05185,0.03805 -0.06885,0.05273 -0.03399,0.02937 -0.05722,0.05274 -0.08496,0.0835 -0.05548,0.06152 -0.120077,0.142754 -0.205078,0.251954 -0.170003,0.218401 -0.419194,0.552321 -0.77197,1.040045 -0.705553,0.97545 -1.827175,2.561692 -3.555161,5.015655 -1.438511,2.042868 -2.35574,3.32814 -2.9340717,4.105981 -0.2891659,0.388921 -0.4953267,0.651653 -0.6328101,0.811528 -0.00667,0.0077 -0.0083,0.0089 -0.014648,0.01611 -0.03504,-0.06043 -0.069892,-0.106741 -0.1025381,-0.186036 -0.05556,-0.134953 -0.098744,-0.284379 -0.117187,-0.39844 -0.013507,-0.08351 0.00173,-0.1487 -0.00292,-0.152345 0.024682,-0.04259 0.1881173,-0.300558 0.4350568,-0.666508 0.255512,-0.378654 0.601482,-0.883695 1.0078091,-1.472177 0.812654,-1.176962 1.865443,-2.684558 2.912098,-4.174829 1.046655,-1.49027 2.088549,-2.963974 2.879872,-4.070824 0.395661,-0.553426 0.727641,-1.016102 0.966793,-1.341805 0.107325,-0.14617 0.187926,-0.252543 0.253417,-0.338381 0.05888,0.01891 0.11012,0.03417 0.191894,0.06298 0.253257,0.08926 0.599657,0.220806 0.971188,0.370607 0.403344,0.162627 0.775898,0.299298 1.073726,0.39551 0.148914,0.04811 0.279343,0.08618 0.389647,0.112794 0.110304,0.02661 0.169573,0.05525 0.331053,0.03662 0.161859,-0.01867 0.403268,-0.170687 0.490721,-0.339846 l 0.03223,-0.06299 0.0073,-0.06885 c 0.184674,-1.886057 0.559419,-3.715342 1.108882,-5.41556 l 0.01025,-0.03076 0.0044,-0.03369 c 0.0082,-0.06289 0.02011,-0.142474 0.02929,-0.215333 0.0046,-0.03643 0.0077,-0.07044 0.01025,-0.106935 0.0025,-0.03649 0.01954,-0.04897 -0.01025,-0.166993 -0.03034,-0.120228 -0.06145,-0.145812 -0.09375,-0.19336 -0.03229,-0.04755 -0.06793,-0.09569 -0.111328,-0.149415 -0.08678,-0.107444 -0.201187,-0.236461 -0.333983,-0.382327 -0.26559,-0.291732 -0.608703,-0.648536 -0.958004,-0.999029 -0.3493,-0.350493 -0.703022,-0.69219 -0.985836,-0.950689 -0.141408,-0.129249 -0.265221,-0.237347 -0.367675,-0.319338 -0.05122,-0.04099 -0.09525,-0.07429 -0.143554,-0.105469 -0.0483,-0.03118 -0.04501,-0.08936 -0.265135,-0.08936 -0.203472,0 -0.294304,0.07089 -0.449706,0.164064 -0.155401,0.09317 -0.359669,0.23274 -0.659177,0.448245 -0.599056,0.431049 -1.573258,1.164661 -3.197742,2.399428 -2.166527,1.646768 -3.512309,2.659852 -4.3432452,3.254902 -0.4154677,0.297525 -0.7050641,0.491471 -0.8920863,0.603519 -0.094829,0.05682 -0.06093,0.0436 -0.099609,0.0586 -0.046777,-0.120005 -0.1014934,-0.325362 -0.1479482,-0.624027 -0.017212,-0.110767 -0.01833,-0.16377 -0.014647,-0.186036 0.00367,-0.02227 0.0051,-0.0406 0.061522,-0.111329 0.1128498,-0.141463 0.4434996,-0.42369 1.0795857,-0.937505 1.111639,-0.897927 7.267445,-5.551839 8.129851,-6.147986 0.312076,-0.215725 0.496124,-0.326857 0.562498,-0.354494 0.002,-8.25e-4 0.0012,-6.67e-4 0.0029,-0.0015 0.0055,0.0035 0.009,0.0044 0.01465,0.0088 0.02892,0.02217 0.07188,0.05798 0.12451,0.10254 0.105256,0.08913 0.248973,0.215835 0.41748,0.369143 0.337013,0.306614 0.773795,0.718131 1.227534,1.158698 h 0.0015 l 1.977532,1.917492 0.210937,-0.489261 c 0.653912,-1.506927 1.449152,-2.846011 2.353994,-3.974145 l 0.106934,-0.134766 -0.03369,-0.165528 c -0.03292,-0.167501 -0.09879,-0.31273 -0.205148,-0.531669 -0.106354,-0.218955 -0.253111,-0.492898 -0.439451,-0.824712 -0.37268,-0.663627 -0.908259,-1.559685 -1.601068,-2.67775 -0.458101,-0.739293 -0.691216,-1.126096 -0.940426,-1.381356 -0.124606,-0.127629 -0.27668,-0.228757 -0.440917,-0.268068 -0.164235,-0.03931 -0.305599,-0.02068 -0.432127,-0.0029 -0.127907,0.01795 -0.258561,0.05519 -0.530271,0.123047 -0.271708,0.06786 -0.64027,0.161427 -1.076656,0.275393 -0.87277,0.227931 -2.023553,0.535902 -3.244617,0.867192 -1.218105,0.330487 -2.372546,0.632025 -3.249011,0.852544 -0.438233,0.11026 -0.807342,0.200008 -1.078121,0.262209 -0.135389,0.0311 -0.24616,0.05573 -0.326659,0.07178 -0.0805,0.01604 -0.149076,0.02187 -0.115722,0.02051 l -0.08789,0.0029 -0.03077,-0.188966 v -0.0015 c -0.05254,-0.330004 -0.0508,-0.576616 -0.0205,-0.713389 0.03035,-0.137047 0.05282,-0.144583 0.08936,-0.161133 0.0066,-0.003 0.245423,-0.08982 0.559568,-0.187501 0.314145,-0.09769 0.735991,-0.223482 1.22607,-0.367678 0.980158,-0.288394 2.236845,-0.648255 3.487779,-1.000495 1.250934,-0.3522385 2.495079,-0.6965759 3.446764,-0.9521535 0.475842,-0.1277888 0.879591,-0.2330564 1.171871,-0.3061541 0.146141,-0.036548 0.265062,-0.06504 0.348632,-0.083497 0.06712,-0.01482 0.09291,-0.016215 0.07177,-0.01758 0.0034,0.00428 -0.0032,5.94e-4 0.0088,0.011723 0.05685,0.052515 0.174585,0.1939302 0.348632,0.4497094 0.348092,0.511559 0.932967,1.4773552 1.967277,3.2109562 0.983598,1.64862 1.340448,2.258982 1.668451,2.569351 l 0.254882,0.241701 0.254881,-0.243165 c 1.795442,-1.715632 3.829298,-2.605968 5.894507,-2.614762 2.089972,0.0014 4.149292,0.906078 5.961892,2.654312 l 0.298829,0.287112 0.290039,-0.377933 c 0.05827,-0.07609 0.105855,-0.155645 0.203609,-0.310548 0.09776,-0.154902 0.224864,-0.361853 0.376469,-0.607914 0.303201,-0.492122 0.699665,-1.138886 1.111811,-1.822276 0.960138,-1.592023 1.513201,-2.5076446 1.84716,-3.0117366 0.166987,-0.2520465 0.280724,-0.4001461 0.342771,-0.4658232 0.0078,-0.00827 0.0037,-0.0057 0.0075,-0.010253 z M 28.999892,25.249774 a 3.7499857,7.8750465 0 0 0 -3.749986,7.875047 3.7499857,7.8750465 0 0 0 3.749986,7.875046 3.7499857,7.8750465 0 0 0 3.082017,-3.414571 3.7499857,7.1250421 0 0 0 2.917961,2.664567 3.7499857,7.1250421 0 0 0 3.749986,-7.125042 3.7499857,7.1250421 0 0 0 -3.749986,-7.125042 3.7499857,7.1250421 0 0 0 -2.913566,2.654312 3.7499857,7.8750465 0 0 0 -3.086412,-3.404317 z m 1.199702,5.550326 a 0.82499685,1.8750111 0 0 1 0.515623,0.414553 0.74999714,0.75000443 0 0 0 -0.515623,0.710454 0.74999714,0.75000443 0 0 0 0.749997,0.750004 0.74999714,0.75000443 0 0 0 0.07471,-0.0044 0.82499685,1.8750111 0 0 1 0,0.0015 0.82499685,1.8750111 0 0 1 0,0.0015 0.82499685,1.8750111 0 0 1 0,0.0015 0.82499685,1.8750111 0 0 1 -0.824705,1.875011 0.82499685,1.8750111 0 0 1 -0.824703,-1.875011 0.82499685,1.8750111 0 0 1 0.824703,-1.875011 z m 6.074686,0 a 0.82499685,1.8750111 0 0 1 0.517086,0.413088 0.74999714,0.75000443 0 0 0 -0.517086,0.711919 0.74999714,0.75000443 0 0 0 0.749997,0.750004 0.74999714,0.75000443 0 0 0 0.07617,-0.0059 0.82499685,1.8750111 0 0 1 0,0.0015 0.82499685,1.8750111 0 0 1 0,0.0015 0.82499685,1.8750111 0 0 1 0,0.0015 0.82499685,1.8750111 0 0 1 0,0.0015 0.82499685,1.8750111 0 0 1 -0.826167,1.875011 0.82499685,1.8750111 0 0 1 -0.824704,-1.875011 0.82499685,1.8750111 0 0 1 0.824704,-1.875011 z"
		style="fill:#000000" />
	<path
		d="m 160.98643,42 c -0.47448,0 -0.90983,0.123483 -1.30604,0.370447 -0.39378,0.24419 -0.69827,0.603538 -0.9135,1.078043 -0.21277,0.47173 -0.31916,1.025321 -0.31916,1.660769 0,0.582724 0.0942,1.127991 0.28248,1.635794 0.19077,0.507803 0.46714,0.896288 0.82911,1.165452 0.36442,0.266389 0.83646,0.399583 1.4161,0.399583 0.56008,0 1.03333,-0.173431 1.41977,-0.52029 0.38887,-0.349637 0.65791,-0.856053 0.8071,-1.519251 l -0.71172,-0.203953 c -0.0978,0.513352 -0.28493,0.900449 -0.5613,1.161289 -0.27637,0.260838 -0.61389,0.39126 -1.01255,0.39126 -0.32773,0 -0.63223,-0.09573 -0.91349,-0.287203 -0.28126,-0.191466 -0.48915,-0.480054 -0.62367,-0.865763 -0.13206,-0.388483 -0.1981,-0.842178 -0.1981,-1.361081 0,-0.402357 0.0563,-0.79223 0.16876,-1.169614 0.1125,-0.380158 0.30694,-0.682622 0.58331,-0.907387 0.27881,-0.224766 0.62489,-0.337149 1.03823,-0.337149 0.35951,0 0.65791,0.101281 0.89514,0.303851 0.23725,0.202566 0.41822,0.525841 0.54297,0.969821 l 0.7007,-0.187304 c -0.1443,-0.563302 -0.39988,-1.000347 -0.76674,-1.311134 C 161.97697,42.155394 161.5245,42 160.98643,42 Z M 96,42.104062 v 6.101972 h 3.36048 v -0.720082 h -2.64876 v -5.38189 z m 4.12723,0 v 0.861603 h 0.66035 v -0.861603 z m 1.6619,0 v 6.101972 h 0.61266 v -0.553588 c 0.2617,0.435656 0.62245,0.653484 1.08225,0.653484 0.46225,0 0.85847,-0.206729 1.18864,-0.620186 0.33018,-0.413459 0.49527,-0.99896 0.49527,-1.756503 0,-0.319112 -0.0391,-0.6188 -0.11739,-0.899062 -0.0783,-0.280263 -0.18711,-0.518903 -0.32652,-0.715921 -0.13696,-0.199792 -0.31305,-0.353798 -0.52828,-0.462019 -0.21278,-0.110994 -0.43901,-0.166493 -0.6787,-0.166493 -0.4329,0 -0.78876,0.198405 -1.06758,0.595213 v -2.176897 z m 25.5558,0 v 6.101972 h 0.71171 v -2.480747 h 1.37941 c 0.76064,0 1.28647,-0.17898 1.57752,-0.53694 0.29105,-0.360734 0.43657,-0.800555 0.43657,-1.319458 0,-0.302461 -0.055,-0.579951 -0.16509,-0.832465 -0.10761,-0.252515 -0.25068,-0.448145 -0.42923,-0.586889 -0.17854,-0.14152 -0.39988,-0.237254 -0.66402,-0.2872 -0.18833,-0.03885 -0.46102,-0.05828 -0.81811,-0.05828 z m 7.43268,0 v 0.861603 h 0.66036 v -0.861603 z m 54.27398,0 v 0.861603 h 0.66035 v -0.861603 z m -75.62185,0.137357 -0.65669,0.449532 v 1.094691 h -0.48425 v 0.582726 h 0.48425 v 2.543182 c 0,0.44953 0.0269,0.745058 0.0807,0.886576 0.0538,0.138745 0.14674,0.251128 0.27882,0.337148 0.13206,0.08602 0.31794,0.129032 0.55763,0.129032 0.14674,0 0.31306,-0.0222 0.49894,-0.0666 l -0.0954,-0.661811 c -0.11984,0.01943 -0.21646,0.02913 -0.28983,0.02913 -0.0979,0 -0.17368,-0.01804 -0.22746,-0.05411 -0.0513,-0.03607 -0.0892,-0.08464 -0.11373,-0.145682 -0.022,-0.06105 -0.033,-0.198403 -0.033,-0.412069 v -2.584807 h 0.66404 v -0.582725 h -0.66404 z m 78.06517,0 -0.65669,0.449532 v 1.094691 h -0.48427 v 0.582726 h 0.48427 v 2.543182 c 0,0.44953 0.0269,0.745058 0.0807,0.886576 0.0538,0.138745 0.14674,0.251128 0.27881,0.337148 0.13208,0.08602 0.31795,0.129032 0.55764,0.129032 0.14674,0 0.31305,-0.0222 0.49893,-0.0666 l -0.0954,-0.661811 c -0.11985,0.01943 -0.21645,0.02913 -0.28982,0.02913 -0.0978,0 -0.17368,-0.01804 -0.22746,-0.05411 -0.0513,-0.03607 -0.0892,-0.08464 -0.11373,-0.145682 -0.022,-0.06105 -0.033,-0.198403 -0.033,-0.412069 v -2.584807 h 0.66402 v -0.582725 h -0.66402 z m -63.43827,0.582727 h 1.37575 c 0.32284,0 0.54418,0.01804 0.66403,0.05411 0.18587,0.05828 0.33506,0.17898 0.44757,0.362121 0.11494,0.180369 0.17242,0.398197 0.17242,0.653486 0,0.352409 -0.0966,0.625737 -0.28982,0.819979 -0.19322,0.194241 -0.51973,0.291362 -0.97953,0.291362 h -1.39042 z m -20.48573,0.8616 c -0.53806,0 -0.97586,0.205342 -1.31338,0.616024 -0.33751,0.410685 -0.50627,0.987861 -0.50627,1.731529 0,0.718695 0.16632,1.277834 0.49894,1.677419 0.33508,0.396808 0.78754,0.595212 1.3574,0.595212 0.45247,0 0.82423,-0.12487 1.11527,-0.37461 0.29105,-0.249738 0.49038,-0.600763 0.59799,-1.053068 l -0.68237,-0.09573 c -0.10028,0.316337 -0.23602,0.546652 -0.40722,0.690947 -0.17121,0.144294 -0.37787,0.216441 -0.62,0.216441 -0.32528,0 -0.59676,-0.129033 -0.81444,-0.387098 -0.21765,-0.258063 -0.33872,-0.629898 -0.3632,-1.115501 h 2.90558 c 0.003,-0.08879 0.004,-0.155395 0.004,-0.199793 0,-0.729793 -0.16509,-1.295871 -0.49526,-1.698229 -0.33019,-0.402358 -0.75575,-0.603538 -1.2767,-0.603538 z m 4.00983,0 c -0.15408,0 -0.29593,0.04994 -0.42555,0.149844 -0.12719,0.0999 -0.26659,0.306625 -0.41823,0.620188 v -0.670136 h -0.59433 v 4.420392 H 110.803 V 45.89178 c 0,-0.316337 0.0367,-0.6077 0.11006,-0.874089 0.0489,-0.174817 0.13084,-0.310787 0.2458,-0.407907 0.11494,-0.0999 0.24457,-0.149844 0.38887,-0.149844 0.16142,0 0.32284,0.05411 0.48426,0.162331 l 0.22746,-0.695109 c -0.2299,-0.160944 -0.45614,-0.241416 -0.67871,-0.241416 z m 22.12195,0 c -0.15408,0 -0.29593,0.04994 -0.42556,0.149844 -0.12718,0.0999 -0.26659,0.306625 -0.41823,0.620188 v -0.670136 h -0.59432 v 4.420392 h 0.66036 V 45.89178 c 0,-0.316337 0.0367,-0.6077 0.11006,-0.874089 0.0489,-0.174817 0.13085,-0.310787 0.2458,-0.407907 0.11495,-0.0999 0.24458,-0.149844 0.38887,-0.149844 0.16143,0 0.32285,0.05411 0.48427,0.162331 l 0.22746,-0.695109 c -0.22991,-0.160944 -0.45614,-0.241416 -0.67871,-0.241416 z m 8.14441,0 c -0.33507,0 -0.6298,0.05272 -0.88415,0.158169 -0.25436,0.102667 -0.4488,0.251127 -0.58331,0.445369 -0.13455,0.191468 -0.23116,0.443983 -0.28983,0.757544 l 0.64568,0.0999 c 0.0709,-0.313561 0.17977,-0.531391 0.32651,-0.653485 0.14919,-0.124871 0.3791,-0.187306 0.6897,-0.187306 0.33263,0 0.58332,0.08464 0.75208,0.253903 0.12474,0.124869 0.1871,0.339924 0.1871,0.64516 0,0.02775 -0.001,0.09296 -0.004,0.195629 -0.25192,0.0999 -0.64446,0.185917 -1.17763,0.258065 -0.26171,0.03607 -0.45736,0.07353 -0.58699,0.112382 -0.17609,0.05549 -0.33507,0.137357 -0.47692,0.245578 -0.13941,0.108221 -0.25315,0.252515 -0.34118,0.432882 -0.0856,0.177593 -0.12841,0.37461 -0.12841,0.591051 0,0.369058 0.11496,0.67291 0.34486,0.91155 0.2299,0.235865 0.55884,0.353797 0.98686,0.353797 0.25925,0 0.50139,-0.04856 0.7264,-0.145681 0.22745,-0.09713 0.46346,-0.263614 0.70804,-0.499479 0.0196,0.208115 0.0636,0.389871 0.13208,0.545264 h 0.6897 c -0.0831,-0.169268 -0.13939,-0.345474 -0.16876,-0.528615 -0.0269,-0.185918 -0.0404,-0.627125 -0.0404,-1.32362 v -0.998959 c 0,-0.332986 -0.011,-0.563302 -0.033,-0.690946 -0.0391,-0.205341 -0.10761,-0.374611 -0.20544,-0.507804 -0.0978,-0.135969 -0.2507,-0.248352 -0.45858,-0.337149 -0.2079,-0.08879 -0.47816,-0.133195 -0.81077,-0.133195 z m 4.10521,0 c -0.33507,0 -0.64568,0.09019 -0.93184,0.270552 -0.28371,0.177592 -0.49526,0.445369 -0.63468,0.80333 -0.13941,0.357959 -0.20911,0.77558 -0.20911,1.25286 0,0.738118 0.16142,1.305583 0.48426,1.702392 0.32529,0.394033 0.75453,0.59105 1.2877,0.59105 0.42556,0 0.78387,-0.142907 1.07492,-0.42872 0.29348,-0.288588 0.4757,-0.686785 0.54663,-1.194588 l -0.64936,-0.09573 c -0.0465,0.374608 -0.15653,0.652097 -0.33017,0.832465 -0.17366,0.180367 -0.39011,0.270551 -0.64936,0.270551 -0.32284,0 -0.58454,-0.134582 -0.78509,-0.403746 -0.20055,-0.269163 -0.30083,-0.700659 -0.30083,-1.294484 0,-0.5855 0.10395,-1.012834 0.31184,-1.281996 0.20789,-0.271939 0.47815,-0.407909 0.81077,-0.407909 0.22012,0 0.40721,0.07492 0.5613,0.224767 0.15656,0.149842 0.2654,0.373221 0.32652,0.670134 l 0.64201,-0.112383 c -0.0758,-0.446756 -0.24826,-0.790842 -0.51728,-1.032258 -0.26904,-0.244189 -0.61511,-0.366284 -1.03823,-0.366284 z m 19.62359,0 c -0.48181,0 -0.89025,0.163719 -1.22533,0.491155 -0.4011,0.394034 -0.60165,1.000346 -0.60165,1.818937 0,0.746443 0.16754,1.31807 0.5026,1.71488 0.33752,0.396808 0.77899,0.595212 1.32438,0.595212 0.33997,0 0.65302,-0.09018 0.93918,-0.270552 0.2886,-0.180366 0.5075,-0.432881 0.65669,-0.757543 0.15164,-0.327437 0.22746,-0.77558 0.22746,-1.344432 0,-0.702044 -0.16998,-1.251472 -0.50995,-1.648282 -0.33996,-0.399582 -0.77775,-0.599375 -1.31338,-0.599375 z m 4.36936,0 c -0.25924,0 -0.49037,0.0666 -0.69337,0.199792 -0.203,0.13042 -0.36564,0.30385 -0.48793,0.520291 v -0.620187 h -0.59065 v 4.420392 h 0.66035 v -2.293443 c 0,-0.402358 0.0355,-0.710369 0.10639,-0.924035 0.0709,-0.213666 0.18466,-0.375997 0.34119,-0.486993 0.15898,-0.110996 0.3314,-0.166494 0.51728,-0.166494 0.24457,0 0.42068,0.08325 0.52829,0.249741 0.10761,0.166493 0.16142,0.416233 0.16142,0.749218 v 2.872006 h 0.66036 v -2.568157 c 0,-0.455079 0.0905,-0.785291 0.27147,-0.990632 0.18098,-0.208116 0.40844,-0.312176 0.68237,-0.312176 0.15164,0 0.28372,0.04024 0.39622,0.120709 0.1125,0.08047 0.18954,0.187305 0.23112,0.320499 0.044,0.130419 0.066,0.345473 0.066,0.645161 v 2.784596 h 0.65669 v -3.034337 c 0,-0.505027 -0.10394,-0.878251 -0.31183,-1.119666 -0.20789,-0.244189 -0.50505,-0.366285 -0.89148,-0.366285 -0.49405,0 -0.89515,0.258065 -1.20332,0.774194 -0.0758,-0.244191 -0.20667,-0.43427 -0.39255,-0.570239 -0.18343,-0.135969 -0.41944,-0.203955 -0.70805,-0.203955 z m 6.25872,0 c -0.25926,0 -0.49038,0.0666 -0.69337,0.199792 -0.203,0.13042 -0.36564,0.30385 -0.48793,0.520291 v -0.620187 h -0.59066 v 4.420392 h 0.66035 v -2.293443 c 0,-0.402358 0.0355,-0.710369 0.1064,-0.924035 0.0709,-0.213666 0.18465,-0.375997 0.34119,-0.486993 0.15897,-0.110996 0.33139,-0.166494 0.51728,-0.166494 0.24457,0 0.42066,0.08325 0.52828,0.249741 0.10761,0.166493 0.16142,0.416233 0.16142,0.749218 v 2.872006 h 0.66036 v -2.568157 c 0,-0.455079 0.0905,-0.785291 0.27148,-0.990632 0.18098,-0.208116 0.40844,-0.312176 0.68236,-0.312176 0.15164,0 0.28371,0.04024 0.39622,0.120709 0.1125,0.08047 0.18954,0.187305 0.23112,0.320499 0.044,0.130419 0.066,0.345473 0.066,0.645161 v 2.784596 h 0.65669 v -3.034337 c 0,-0.505027 -0.10394,-0.878251 -0.31183,-1.119666 -0.20789,-0.244189 -0.50505,-0.366285 -0.89148,-0.366285 -0.49405,0 -0.89515,0.258065 -1.20332,0.774194 -0.0758,-0.244191 -0.20666,-0.43427 -0.39255,-0.570239 -0.18343,-0.135969 -0.41945,-0.203955 -0.70804,-0.203955 z m 10.49967,0 c -0.54051,0 -0.95385,0.242803 -1.24001,0.728408 v -0.628512 h -0.59432 v 4.420392 h 0.66037 v -2.41415 c 0,-0.566076 0.10149,-0.950397 0.30449,-1.152965 0.20545,-0.202565 0.4488,-0.30385 0.73006,-0.30385 0.1761,0 0.32896,0.04579 0.45858,0.137358 0.1321,0.08879 0.22381,0.209504 0.27515,0.362122 0.0513,0.149844 0.077,0.377386 0.077,0.682621 v 2.688864 h 0.66035 v -2.717999 c 0,-0.346861 -0.0122,-0.589664 -0.0367,-0.728407 -0.0391,-0.213666 -0.10761,-0.398197 -0.20544,-0.553591 -0.0978,-0.155393 -0.2458,-0.280264 -0.4439,-0.374609 -0.19567,-0.09712 -0.4109,-0.145682 -0.64569,-0.145682 z m -86.57642,0.0999 v 4.420392 h 0.66035 v -4.420392 z m 14.23802,0 1.47847,4.428717 c -0.0269,0.08047 -0.0465,0.141521 -0.0587,0.183142 -0.0929,0.296912 -0.1602,0.482829 -0.20178,0.557752 -0.0563,0.0999 -0.12839,0.177588 -0.21645,0.23309 -0.088,0.05551 -0.20544,0.08325 -0.35219,0.08325 -0.10761,0 -0.23357,-0.0222 -0.37787,-0.0666 l 0.0734,0.703432 C 114.86666,49.96948 115.00851,50 115.1357,50 c 0.21033,0 0.39132,-0.05828 0.54296,-0.174817 0.15163,-0.11377 0.28615,-0.294137 0.40355,-0.541102 0.0881,-0.183143 0.21156,-0.517517 0.37053,-1.003122 l 1.48214,-4.495313 h -0.66036 l -0.83278,2.576481 c -0.10517,0.327435 -0.19567,0.663197 -0.27149,1.007282 -0.0832,-0.357958 -0.17731,-0.699271 -0.28248,-1.023931 L 115.077,43.785646 Z m 20.41236,0 v 4.420392 h 0.66036 v -4.420392 z m 1.26568,0 1.48213,4.420392 h 0.61633 l 1.47481,-4.420392 h -0.67871 l -0.8658,2.697189 c -0.1052,0.327436 -0.18713,0.607699 -0.24579,0.84079 -0.0758,-0.308013 -0.15899,-0.604926 -0.24948,-0.890738 l -0.83644,-2.647241 z m 11.71766,0 1.47847,4.428717 c -0.0269,0.08047 -0.0465,0.141521 -0.0587,0.183142 -0.093,0.296912 -0.16021,0.482829 -0.20177,0.557752 -0.0563,0.0999 -0.12842,0.177588 -0.21645,0.23309 -0.0881,0.05551 -0.20546,0.08325 -0.35219,0.08325 -0.10762,0 -0.23358,-0.0222 -0.37788,-0.0666 l 0.0734,0.703432 C 148.26236,49.96948 148.40421,50 148.53138,50 c 0.21034,0 0.39133,-0.05828 0.54297,-0.174817 0.15163,-0.11377 0.28616,-0.294137 0.40355,-0.541102 0.0881,-0.183143 0.21155,-0.517517 0.37054,-1.003122 l 1.48212,-4.495313 h -0.66035 l -0.83278,2.576481 c -0.10517,0.327435 -0.19566,0.663197 -0.27148,1.007282 -0.0832,-0.357958 -0.17733,-0.699271 -0.28249,-1.023931 l -0.81077,-2.559832 z m 32.91511,0 v 2.738812 c 0,0.319111 0.0134,0.552202 0.0404,0.699271 0.0391,0.219214 0.10638,0.405133 0.20177,0.557752 0.0978,0.149843 0.2458,0.274714 0.44391,0.37461 0.20055,0.09989 0.41578,0.149843 0.64568,0.149843 0.52095,0 0.93305,-0.24974 1.23633,-0.749219 v 0.649323 h 0.59066 v -4.420392 h -0.66036 v 2.368366 c 0,0.377383 -0.0367,0.665972 -0.11006,0.865763 -0.0709,0.197016 -0.19322,0.353797 -0.36686,0.470343 -0.17366,0.11377 -0.35954,0.170656 -0.55764,0.170656 -0.19811,0 -0.36442,-0.05549 -0.49894,-0.166494 -0.13451,-0.113771 -0.22256,-0.269164 -0.26414,-0.466181 -0.0269,-0.135969 -0.0403,-0.399583 -0.0403,-0.790842 v -2.451611 z m 8.37553,0 v 4.420392 h 0.66035 v -4.420392 z m 3.37882,0 1.47846,4.428717 c -0.0269,0.08047 -0.0465,0.141521 -0.0587,0.183142 -0.093,0.296912 -0.1602,0.482829 -0.20177,0.557752 -0.0563,0.0999 -0.12841,0.177588 -0.21645,0.23309 -0.0881,0.05551 -0.20545,0.08325 -0.35219,0.08325 -0.10762,0 -0.23357,-0.0222 -0.37788,-0.0666 l 0.0734,0.703432 C 192.93181,49.96948 193.07367,50 193.20084,50 c 0.21034,0 0.39133,-0.05828 0.54297,-0.174817 0.15162,-0.11377 0.28615,-0.294137 0.40355,-0.541102 0.088,-0.183143 0.21155,-0.517517 0.37053,-1.003122 l 1.48213,-4.495313 h -0.66035 l -0.83279,2.576481 c -0.10516,0.327435 -0.19565,0.663197 -0.27147,1.007282 -0.0832,-0.357958 -0.17733,-0.699271 -0.2825,-1.023931 l -0.81077,-2.559832 z m -88.97205,0.516128 c 0.28616,0 0.52951,0.137359 0.73006,0.412072 0.203,0.274713 0.3045,0.700659 0.3045,1.277834 0,0.563301 -0.10517,0.987859 -0.31551,1.273672 -0.21033,0.283038 -0.4598,0.424558 -0.74839,0.424558 -0.35464,0 -0.63591,-0.192856 -0.8438,-0.578564 -0.12718,-0.235865 -0.19077,-0.618799 -0.19077,-1.148803 0,-0.538327 0.10517,-0.949011 0.31551,-1.232048 0.21033,-0.285813 0.45981,-0.428721 0.7484,-0.428721 z m 4.1199,0 c 0.33507,0 0.60776,0.144296 0.8181,0.432883 0.13694,0.185917 0.22011,0.464794 0.24947,0.836627 h -2.17551 c 0.022,-0.385707 0.13574,-0.69372 0.34119,-0.924035 0.20788,-0.230316 0.46347,-0.345475 0.76675,-0.345475 z m 57.99764,0.0042 c 0.32529,0 0.59677,0.141521 0.81445,0.424559 0.22011,0.280262 0.33017,0.693721 0.33017,1.240372 0,0.579952 -0.10883,1.011447 -0.3265,1.294484 -0.21767,0.283038 -0.49038,0.424559 -0.81812,0.424559 -0.33017,0 -0.6041,-0.140132 -0.82177,-0.420397 -0.21767,-0.283037 -0.32652,-0.707596 -0.32652,-1.273672 0,-0.566075 0.10885,-0.989246 0.32652,-1.269508 0.21767,-0.280264 0.4916,-0.420397 0.82177,-0.420397 z m -43.16164,1.315297 v 0.753381 h 2.02877 v -0.753381 z m 31.30825,0 v 0.753381 h 2.02875 v -0.753381 z m -11.0353,0.366284 v 0.274716 c 0,0.330212 -0.0355,0.579951 -0.10639,0.749219 -0.0929,0.219215 -0.23846,0.392646 -0.43657,0.52029 -0.19811,0.12487 -0.42434,0.187306 -0.67869,0.187306 -0.25681,0 -0.45247,-0.0666 -0.58699,-0.199792 -0.13206,-0.133195 -0.19811,-0.299689 -0.19811,-0.499479 0,-0.13042 0.0306,-0.248352 0.0917,-0.353798 0.0611,-0.108217 0.14798,-0.190076 0.26048,-0.245577 0.11251,-0.05549 0.30449,-0.105447 0.57598,-0.149845 0.47936,-0.0777 0.83889,-0.172042 1.07858,-0.283038 z" 
		style="fill:#808080" />
	<path
		d="m 157.70049,8 c -1.6948,0 -3.1439,0.2870717 -4.34733,0.8612138 -1.19338,0.5741419 -2.11097,1.4128422 -2.7528,2.5160952 -0.63178,1.091996 -0.94768,2.268427 -0.94768,3.529288 0,1.958835 0.67692,3.619349 2.03076,4.98153 0.96273,0.96816 2.63747,1.784345 5.02424,2.448549 1.85524,0.517852 3.04362,0.8781 3.56509,1.080739 0.76216,0.303956 1.29366,0.664203 1.59453,1.080739 0.31087,0.405275 0.46631,0.900615 0.46631,1.486016 0,0.91187 -0.36604,1.711169 -1.09811,2.397888 -0.72205,0.675462 -1.8001,1.013193 -3.23416,1.013193 -1.35385,0 -2.4319,-0.382761 -3.23417,-1.148286 -0.79224,-0.765521 -1.31874,-1.964468 -1.57947,-3.596833 l -4.33228,0.472824 c 0.29082,2.769389 1.18336,4.880212 2.67759,6.332453 1.49423,1.440985 3.6353,2.161478 6.42319,2.161478 1.91545,0 3.51498,-0.298329 4.79861,-0.894987 1.28363,-0.607914 2.27646,-1.531047 2.97843,-2.769394 0.70199,-1.238343 1.05299,-2.566754 1.05299,-3.985223 0,-1.564818 -0.29584,-2.876343 -0.88752,-3.934566 -0.58165,-1.069478 -1.39394,-1.908178 -2.43691,-2.516095 -1.03292,-0.619171 -2.63246,-1.215831 -4.79859,-1.789973 -2.16613,-0.574142 -3.53,-1.12577 -4.09159,-1.654881 -0.44125,-0.416534 -0.66188,-0.917502 -0.66188,-1.502903 0,-0.641687 0.23566,-1.153912 0.707,-1.536675 0.73207,-0.596656 1.74495,-0.894987 3.03861,-0.894987 1.25355,0 2.19122,0.281443 2.81297,0.844327 0.6318,0.551628 1.04297,1.463502 1.23349,2.735621 l 4.45263,-0.219525 c -0.0702,-2.274054 -0.80729,-4.092175 -2.21127,-5.454354 C 162.54923,8.681092 160.46832,8 157.70049,8 Z M 64,8.4221636 69.264918,33.177837 h 4.82868 l 4.377403,-18.507652 4.392446,18.507652 h 4.723382 L 92.942001,8.4221636 h -4.4827 L 85.074712,25.713985 81.208758,8.4221636 H 75.913756 L 71.882334,25.426913 68.557913,8.4221636 Z m 31.16831,0 V 33.177837 h 4.226977 v -8.983642 c 0,-1.508528 0.125355,-2.645559 0.376064,-3.411082 0.260739,-0.776779 0.666889,-1.356551 1.218449,-1.739313 0.55157,-0.382761 1.17834,-0.574142 1.88033,-0.574142 0.61173,0 1.11817,0.151978 1.51931,0.455935 0.41116,0.292702 0.69697,0.692349 0.85743,1.198946 0.16045,0.506595 0.24068,1.699914 0.24068,3.579946 v 9.473352 h 4.22697 V 22.657519 c 0,-1.609848 -0.0752,-2.797538 -0.22564,-3.563059 -0.14039,-0.765524 -0.41116,-1.463502 -0.8123,-2.093932 -0.3911,-0.630431 -0.97777,-1.148286 -1.75998,-1.553562 -0.78222,-0.405277 -1.65971,-0.607916 -2.63246,-0.607916 -1.89537,0 -3.52499,0.894988 -4.888853,2.68496 V 8.4221636 Z m 18.83336,0 v 4.3905014 h 4.22698 V 8.4221636 Z m 75.3184,0 v 4.3905014 h 4.22697 V 8.4221636 Z m 18.98379,0 v 8.9160954 c -1.30369,-1.666137 -2.84807,-2.499209 -4.63312,-2.499209 -1.94552,0 -3.55507,0.79367 -4.82869,2.381003 -1.27361,1.576076 -1.91041,3.883909 -1.91041,6.923484 0,2.972028 0.65185,5.291117 1.95554,6.957255 1.31373,1.654879 2.88818,2.482322 4.72339,2.482322 0.90254,0 1.79508,-0.247669 2.67758,-0.743009 0.89252,-0.506595 1.66472,-1.272119 2.31656,-2.29657 v 2.634302 h 3.92612 V 8.4221636 Z M 126.9985,9 h -4.24203 v 6.244327 h -1.94049 v 3.782586 h 1.94049 v 7.818471 c 0,1.677395 0.0451,2.79191 0.13539,3.343534 0.11032,0.77678 0.30587,1.395955 0.58666,1.85752 0.29082,0.450307 0.7421,0.821813 1.35384,1.114512 0.61173,0.281443 1.29868,0.422164 2.06084,0.422164 1.24352,0 2.35668,-0.236412 3.33946,-0.709234 l -0.36103,-3.681268 c -0.74208,0.303959 -1.30871,0.455937 -1.6998,0.455937 -0.28081,0 -0.5215,-0.0788 -0.72205,-0.236412 -0.19054,-0.157615 -0.3159,-0.354617 -0.37607,-0.591028 -0.0501,-0.247671 -0.0752,-1.103256 -0.0752,-2.566754 v -7.227442 h 2.88818 v -3.782586 h -2.88818 z m 11.91375,5.83905 c -2.11599,0 -3.86595,0.844329 -5.24987,2.532982 -1.38393,1.677395 -2.07589,4.002114 -2.07589,6.974142 0,2.487949 0.5265,4.548111 1.57947,6.180476 1.33379,2.03764 3.38962,3.056464 6.16748,3.056464 1.75497,0 3.2141,-0.450308 4.37741,-1.350923 1.17333,-0.911874 2.03076,-2.234655 2.57229,-3.968338 l -4.21194,-0.793667 c -0.23066,0.900613 -0.57162,1.553563 -1.0229,1.958838 -0.45128,0.405277 -1.00786,0.607916 -1.66972,0.607916 -0.97277,0 -1.78507,-0.388391 -2.43691,-1.165173 -0.65185,-0.788036 -0.99281,-1.885664 -1.02291,-3.292874 h 10.59001 c 0.0602,-3.636233 -0.59669,-6.332455 -1.97057,-8.088656 -1.3739,-1.767456 -3.24922,-2.651187 -5.62595,-2.651187 z m 40.38944,0 c -1.06302,0 -2.03075,0.281443 -2.90323,0.844327 -0.87248,0.562885 -1.56442,1.294637 -2.07589,2.195252 v -2.634302 h -3.94116 V 40 h 4.22698 v -9.0343 c 0.79224,0.956903 1.54437,1.632367 2.25639,2.026385 0.72206,0.394018 1.52432,0.591029 2.40681,0.591029 1.85527,0 3.43474,-0.827443 4.73844,-2.482322 1.30369,-1.666138 1.95554,-3.996486 1.95554,-6.99103 0,-2.91574 -0.64683,-5.189799 -1.9405,-6.822162 -1.29366,-1.632366 -2.86813,-2.44855 -4.72338,-2.44855 z m 43.48822,0 c -2.116,0 -3.86596,0.844329 -5.24989,2.532982 -1.38391,1.677395 -2.07587,4.002114 -2.07587,6.974142 0,2.487949 0.5265,4.548111 1.57947,6.180476 1.33377,2.03764 3.38962,3.056464 6.16748,3.056464 1.75497,0 3.21411,-0.450308 4.3774,-1.350923 1.17332,-0.911874 2.03075,-2.234655 2.57228,-3.968338 l -4.21192,-0.793667 c -0.23066,0.900613 -0.57163,1.553563 -1.0229,1.958838 -0.4513,0.405277 -1.00786,0.607916 -1.66974,0.607916 -0.97274,0 -1.78505,-0.388391 -2.4369,-1.165173 -0.65184,-0.788036 -0.99281,-1.885664 -1.0229,-3.292874 h 10.59001 c 0.0602,-3.636233 -0.59669,-6.332455 -1.97059,-8.088656 -1.37388,-1.767456 -3.24921,-2.651187 -5.62593,-2.651187 z m 18.42721,0 c -0.68194,0 -1.29366,0.191382 -1.83521,0.574142 -0.5315,0.382763 -1.13321,1.176432 -1.80511,2.381003 v -2.549868 h -3.92612 v 17.93351 h 4.22697 v -5.538786 c 0,-3.050834 0.11533,-5.054707 0.34598,-6.011611 0.24069,-0.956901 0.56661,-1.615479 0.97777,-1.975725 0.41116,-0.371503 0.91258,-0.557255 1.50427,-0.557255 0.61172,0 1.2736,0.258928 1.98562,0.77678 L 244,15.734037 c -0.89253,-0.596656 -1.82016,-0.894987 -2.78288,-0.894987 z m -127.21545,0.405277 v 17.93351 h 4.22698 v -17.93351 z m 75.3184,0 v 17.93351 h 4.22697 v -17.93351 z m -50.15209,3.225331 c 0.86243,0 1.59451,0.360246 2.19622,1.080739 0.6017,0.709233 0.91759,1.750572 0.94768,3.124009 h -6.3179 c -0.01,-1.294633 0.28581,-2.319085 0.88751,-3.073351 0.60171,-0.754264 1.36387,-1.131399 2.28649,-1.131397 z m 65.6159,0 c 1.03294,0 1.88034,0.455937 2.54222,1.367809 0.66188,0.900615 0.99281,2.381006 0.99281,4.44116 0,1.846262 -0.34096,3.23659 -1.02291,4.170978 -0.68192,0.923129 -1.50928,1.384696 -2.48202,1.384696 -1.22348,0 -2.17618,-0.619173 -2.8581,-1.85752 -0.47135,-0.855582 -0.70701,-2.240284 -0.70701,-4.154089 0,-1.778714 0.33595,-3.112754 1.00786,-4.00211 0.68193,-0.900616 1.52433,-1.350924 2.52715,-1.350924 z m 18.26174,0 c 0.86245,0 1.59453,0.360246 2.19622,1.080739 0.60172,0.709233 0.91761,1.750572 0.9477,3.124009 h -6.3179 c -0.01,-1.294633 0.2858,-2.319085 0.88751,-3.073351 0.6017,-0.754264 1.36387,-1.131399 2.28647,-1.131397 z m -44.88717,0.118207 c 0.9928,0 1.82516,0.455937 2.49707,1.367809 0.67191,0.911872 1.00786,2.30783 1.00786,4.187865 0,2.015124 -0.32593,3.467369 -0.97778,4.356727 -0.65183,0.878098 -1.46915,1.317151 -2.45193,1.317151 -1.02291,0 -1.89037,-0.478454 -2.60239,-1.435357 -0.71202,-0.968159 -1.06802,-2.459809 -1.06802,-4.474934 0,-1.7562 0.34096,-3.078981 1.02291,-3.968338 0.68191,-0.900615 1.53936,-1.350923 2.57228,-1.350923 z"
		style="fill:#ffffff" />
	<path
		d="m 157.69007,8 c -1.73959,0 -3.25491,0.2877454 -4.5321,0.8825758 h -0.002 c -1.26607,0.5946222 -2.26296,1.4814602 -2.94896,2.6325762 v 0.0019 c -0.66907,1.128917 -1.00887,2.361137 -1.00887,3.664773 0,2.011175 0.73256,3.769028 2.16129,5.172348 1.06097,1.041564 2.79685,1.844126 5.21115,2.5 1.83646,0.50041 3.02349,0.855323 3.49027,1.032197 0.70546,0.274647 1.14995,0.588914 1.36584,0.880682 l 0.004,0.0057 0.004,0.0057 c 0.23852,0.303544 0.36086,0.664 0.36086,1.145834 0,0.754486 -0.28794,1.378944 -0.93513,1.97159 -0.59749,0.544941 -1.5257,0.850379 -2.87137,0.850379 -1.25006,0 -2.17174,-0.33017 -2.86749,-0.977272 l -0.002,-0.0019 c -0.67879,-0.641288 -1.17377,-1.69629 -1.4221,-3.214016 l -0.0757,-0.454545 -5.26354,0.560606 0.0505,0.481061 c 0.29716,2.76249 1.22146,4.932869 2.80734,6.4375 h 0.002 c 1.59537,1.501908 3.87148,2.232955 6.72637,2.232954 1.95426,0 3.61375,-0.295446 4.97445,-0.912878 l 0.002,-0.0019 h 0.002 c 1.36133,-0.629365 2.43376,-1.602957 3.17791,-2.884469 0.73744,-1.269908 1.11169,-2.648699 1.11169,-4.104167 0,-1.576827 -0.30565,-2.933009 -0.9429,-4.047348 l -0.002,-0.0019 c -0.61722,-1.106878 -1.49267,-1.989859 -2.59975,-2.621212 -3.8e-4,-2.24e-4 -0.002,2.23e-4 -0.002,0 -1.09928,-0.643008 -2.71819,-1.225163 -4.89297,-1.787879 -2.12545,-0.549952 -3.45999,-1.130791 -3.85113,-1.490531 -0.35275,-0.325634 -0.50054,-0.658966 -0.50054,-1.104166 0,-0.503534 0.15525,-0.826057 0.518,-1.113636 h 0.002 c 0.61614,-0.490213 1.49584,-0.75947 2.70452,-0.75947 1.17086,0 1.96558,0.256164 2.46007,0.693182 l 0.004,0.0038 0.002,0.0019 c 0.50374,0.42935 0.88235,1.19377 1.06124,2.359849 l 0.066,0.433712 5.36053,-0.257576 -0.0155,-0.475378 c -0.0728,-2.300782 -0.85609,-4.209414 -2.3456,-5.621213 C 162.73579,8.6863025 160.52094,8 157.69007,8 Z M 64,8.4090909 64.128048,8.9943182 69.440082,33.384469 h 5.59141 L 78.987386,17.054925 82.9588,33.384469 h 5.484704 L 93.978651,8.4090909 H 88.499768 L 85.513932,23.299243 82.10515,8.4090909 H 76.053932 L 72.489941,23.090909 69.548728,8.4090909 Z m 31.076756,0 V 8.8939394 33.384469 H 100.2685 V 24.1875 c 0,-1.435101 0.13046,-2.5005 0.34922,-3.153409 v -0.0019 c 0.2332,-0.677251 0.57413,-1.135685 1.02245,-1.439394 0.46681,-0.316235 0.97803,-0.47159 1.58507,-0.47159 0.52539,0 0.90708,0.121601 1.20869,0.344697 l 0.006,0.0038 0.006,0.0038 c 0.323,0.224473 0.53462,0.511549 0.66546,0.914774 0.10598,0.326659 0.21729,1.516491 0.21729,3.325757 v 9.670454 h 5.19174 V 22.698864 c 0,-1.57365 -0.0712,-2.738263 -0.2328,-3.543561 -0.15024,-0.799689 -0.44368,-1.53795 -0.87693,-2.202651 -0.44155,-0.692798 -1.09958,-1.251984 -1.93819,-1.676137 -0.85166,-0.430762 -1.80896,-0.643939 -2.8442,-0.643939 -1.66003,0 -3.09369,0.798145 -4.35944,2.020833 V 8.4090909 Z m 18.708524,0 v 0.4848485 4.7424246 h 5.19175 V 8.4090909 Z m 74.81664,0 v 0.4848485 4.7424246 h 5.19174 V 8.4090909 Z m 18.85792,0 v 0.4848485 7.5928026 c -1.20125,-1.119322 -2.55361,-1.854166 -4.10723,-1.854166 -2.06712,0 -3.83978,0.856214 -5.18205,2.488636 -1.36323,1.646829 -2.00801,4.001864 -2.00801,7.017045 0,2.952859 0.66544,5.319617 2.04876,7.045455 v 0.0019 l 0.002,0.0019 c 1.37499,1.690835 3.10889,2.590909 5.08116,2.590909 0.98739,0 1.96277,-0.26923 2.90241,-0.78409 h 0.002 c 0.60911,-0.337502 1.06307,-0.960709 1.55985,-1.505683 v 1.895833 h 4.89297 V 8.4090909 Z M 122.48088,8.969697 v 6.054925 h -1.92653 v 4.638257 h 1.92653 v 7.096591 c 0,1.633391 0.0392,2.70369 0.14163,3.316288 1.2e-4,6.98e-4 -1.2e-4,0.0031 0,0.0038 0.1162,0.791793 0.32129,1.451135 0.64799,1.97538 l 0.004,0.0057 0.004,0.0057 c 0.34838,0.526593 0.87874,0.941088 1.54822,1.253788 l 0.002,0.0019 0.004,0.0019 c 0.6788,0.304871 1.43619,0.454546 2.25441,0.454546 1.29818,0 2.48297,-0.243613 3.53295,-0.736742 l 0.31235,-0.145834 -0.45787,-4.556818 -0.61695,0.248106 c -0.70881,0.283421 -1.2399,0.405303 -1.49971,0.405303 -0.18337,0 -0.29631,-0.04066 -0.40548,-0.123106 -0.10851,-0.08912 -0.1649,-0.17854 -0.19983,-0.306818 -0.007,-0.04021 -0.0327,-0.307441 -0.0446,-0.704545 -0.0122,-0.406743 -0.0194,-0.965547 -0.0194,-1.672349 v -6.522727 h 2.86943 v -4.638258 h -2.86943 V 8.969697 h -0.49666 z m 35.20919,0 c 2.66791,0 4.58621,0.6340176 5.85333,1.842803 v 0.0019 h 0.002 c 1.189,1.126134 1.79392,2.627327 1.94981,4.482954 l -3.46116,0.166667 c -0.22783,-1.070679 -0.6109,-1.951281 -1.26689,-2.511364 -0.74052,-0.651497 -1.80511,-0.941288 -3.12165,-0.941288 -1.3614,0 -2.49486,0.310335 -3.33311,0.977273 -0.57364,0.454749 -0.88469,1.124582 -0.88469,1.86553 0,0.689484 0.29013,1.328867 0.81291,1.810606 0.72456,0.666415 2.09999,1.156162 4.27795,1.719697 2.12785,0.550574 3.68602,1.126171 4.63881,1.683712 l 0.002,0.0019 0.004,0.0019 c 0.96124,0.546948 1.69595,1.2878 2.23307,2.251893 l 0.002,0.0019 0.002,0.0038 c 0.53685,0.937302 0.81873,2.121363 0.81873,3.577652 0,1.295499 -0.32451,2.493275 -0.9817,3.624999 -0.6497,1.118855 -1.54874,1.93525 -2.73556,2.484849 -5.2e-4,2.36e-4 -0.001,-2.35e-4 -0.002,0 -8.4e-4,3.92e-4 -9.9e-4,0.0016 -0.002,0.0019 -1.18891,0.538663 -2.70419,0.82197 -4.55345,0.82197 -2.68374,0 -4.66252,-0.6675 -6.0357,-1.960227 -1.28603,-1.22071 -2.05982,-3.030856 -2.3941,-5.369318 l 3.32924,-0.356061 c 0.29421,1.407334 0.78475,2.555748 1.58701,3.3125 l 0.002,0.0019 c 0.89788,0.83636 2.11779,1.246212 3.55623,1.246212 1.50248,0 2.71338,-0.347353 3.55041,-1.111743 l 0.002,-0.0019 c 0.80719,-0.73917 1.24749,-1.664043 1.24749,-2.67803 0,-0.651341 -0.18799,-1.249433 -0.56457,-1.731061 -0.38218,-0.512611 -0.99141,-0.894883 -1.79655,-1.208333 h -0.002 l -0.002,-0.0019 c -0.5702,-0.216305 -1.73983,-0.559101 -3.58726,-1.0625 -2.32744,-0.632277 -3.92103,-1.413923 -4.77269,-2.25 -1.26091,-1.238483 -1.87221,-2.700862 -1.87221,-4.488636 0,-1.141034 0.28958,-2.189622 0.87499,-3.178031 v -0.0019 c 0.58854,-0.987537 1.41451,-1.725849 2.51803,-2.2444472 1.11364,-0.5186562 2.47786,-0.7878788 4.10528,-0.7878788 z M 65.226152,9.3787879 h 3.505788 l 3.22447,16.0984841 0.970058,0.01894 3.913211,-16.1174241 h 4.470024 l 3.752181,16.3882581 0.971998,-0.01136 3.284614,-16.376894 h 3.428183 l -5.104442,23.03598 H 83.742606 L 79.470474,14.84091 h -0.966177 l -4.258551,17.573862 h -4.000517 z m 30.843943,0 h 3.205069 v 9.7784091 l 0.892456,-1.143939 c 1.28756,-1.649607 2.73393,-2.410985 4.46032,-2.410985 0.89729,0 1.68594,0.178862 2.38828,0.534091 0.71363,0.360938 1.2186,0.803612 1.55403,1.331439 l 0.002,0.0019 v 0.0038 c 0.36367,0.557949 0.6105,1.172993 0.73918,1.857955 v 0.0019 0.0038 c 0.13673,0.679214 0.21535,1.815779 0.21535,3.361743 v 9.715909 h -3.20508 v -8.700757 c 0,-1.836854 -0.0511,-2.963491 -0.26385,-3.619319 -0.18693,-0.576105 -0.54056,-1.060511 -1.0302,-1.403408 -0.49455,-0.363965 -1.1147,-0.539773 -1.80237,-0.539773 -0.78758,0 -1.52261,0.217852 -2.15159,0.643939 -0.64706,0.438347 -1.114035,1.101685 -1.398823,1.929924 v 0.0019 0.0019 c -0.279071,0.831845 -0.399664,1.968661 -0.399664,3.458333 v 8.227273 h -3.205068 z m 18.708525,0 h 3.20508 v 3.2878791 h -3.20508 z m 74.81664,0 h 3.20507 v 3.2878791 h -3.20507 z m 18.85792,0 h 3.20506 V 32.414772 h -2.90629 v -3.734848 l -0.91574,1.405304 c -0.61228,0.939381 -1.32157,1.617394 -2.12829,2.064393 -0.81297,0.445118 -1.60845,0.659091 -2.41351,0.659091 -1.67369,0 -3.06822,-0.706754 -4.30317,-2.225379 -1.20505,-1.50528 -1.83535,-3.63596 -1.83535,-6.445076 0,-2.879745 0.61982,-4.997396 1.78684,-6.407197 l 0.002,-0.0019 c 1.18788,-1.445242 2.61046,-2.126894 4.40794,-2.126894 1.61864,0 2.98479,0.705679 4.212,2.236742 l 0.88857,1.107955 z m -84.97896,0.560606 h 3.22059 v 6.0549251 h 2.86943 v 2.698863 h -2.86943 v 7.492424 c 0,0.712346 0.007,1.277842 0.0194,1.700757 0.0127,0.422916 0.0222,0.673467 0.066,0.88447 l 0.002,0.01137 0.004,0.01326 c 0.0841,0.322851 0.27396,0.61302 0.53741,0.825758 l 0.006,0.0038 0.004,0.0038 c 0.28777,0.220778 0.65252,0.333333 1.02437,0.333333 0.34444,0 0.80883,-0.176726 1.24944,-0.318182 l 0.25997,2.590909 c -0.83219,0.3411 -1.72959,0.573864 -2.78018,0.573864 -0.69298,0 -1.29666,-0.124696 -1.83147,-0.363636 -0.54327,-0.253751 -0.90732,-0.556823 -1.13691,-0.901515 -0.22814,-0.368354 -0.41134,-0.903333 -0.51413,-1.609848 v -0.0057 l -0.002,-0.0057 c -0.0767,-0.457569 -0.12806,-1.545006 -0.12806,-3.162879 V 18.69318 h -1.92653 v -2.698864 h 1.92653 z m 15.55195,4.6931821 c -2.23349,0 -4.14399,0.902192 -5.59723,2.632575 -1.46635,1.734993 -2.1768,4.112856 -2.1768,7.070076 0,2.480957 0.54083,4.578495 1.64909,6.255682 v 0.0019 l 0.002,0.0019 c 1.41143,2.104942 3.66126,3.183712 6.54205,3.183712 1.82824,0 3.40125,-0.467309 4.6524,-1.412879 1.25671,-0.95342 2.16295,-2.333944 2.72393,-4.087121 l 0.16684,-0.518939 -5.18981,-0.954546 -0.1164,0.439394 c -0.21425,0.816636 -0.5218,1.357958 -0.86529,1.659092 -0.35846,0.31426 -0.77096,0.465908 -1.32704,0.465908 -0.83409,0 -1.47171,-0.294171 -2.041,-0.956439 -0.47473,-0.561176 -0.73118,-1.38217 -0.82649,-2.397727 h 10.43778 l 0.008,-0.475379 c 0.0609,-3.587176 -0.59204,-6.316046 -2.06041,-8.149621 l -0.002,-0.0019 c -1.44981,-1.819393 -3.49644,-2.755682 -5.97944,-2.755682 z m 40.11963,0 c -1.1436,0 -2.20881,0.301379 -3.15269,0.895833 -0.54243,0.341628 -0.8816,0.873214 -1.29598,1.337121 v -1.840908 h -4.9085 V 40 h 5.19175 v -8.16856 c 0.50214,0.4822 1.00805,1.043757 1.50553,1.312499 l 0.002,0.0019 c 0.79193,0.42186 1.67832,0.632575 2.62885,0.632575 1.99059,0 3.7308,-0.900252 5.09668,-2.592803 l 0.002,-0.0019 c 1.38398,-1.726672 2.04681,-4.103493 2.04681,-7.077651 0,-2.899088 -0.66072,-5.223639 -2.03517,-6.916668 -1.35683,-1.671322 -3.09261,-2.556817 -5.08117,-2.556817 z m 43.19859,0 c -2.23349,0 -4.14398,0.902192 -5.59722,2.632575 -1.46634,1.734993 -2.17488,4.112856 -2.17488,7.070076 0,2.480957 0.53891,4.578495 1.64717,6.255682 l 0.002,0.0019 v 0.0019 c 1.41142,2.104947 3.66128,3.183712 6.54207,3.183712 1.82824,0 3.40125,-0.467305 4.65239,-1.412879 1.2567,-0.95342 2.1649,-2.333944 2.72586,-4.087121 l 0.16492,-0.518939 -5.18981,-0.954546 -0.11447,0.439394 c -0.21425,0.816633 -0.52374,1.357955 -0.86723,1.659092 -0.35849,0.314273 -0.77094,0.465908 -1.32704,0.465908 -0.83405,0 -1.46975,-0.29417 -2.03906,-0.956439 -0.47472,-0.561162 -0.73117,-1.382214 -0.82649,-2.397727 h 10.43782 l 0.008,-0.475379 c 0.0609,-3.587554 -0.59364,-6.316041 -2.06234,-8.149621 -1.4499,-1.820856 -3.49738,-2.757576 -5.98138,-2.757576 z m 18.30499,0 c -0.77032,0 -1.49073,0.217419 -2.10891,0.643939 l -0.002,0.0019 -0.002,0.0019 c -0.33691,0.236854 -0.67612,0.848061 -1.00692,1.282196 v -1.537878 h -4.89297 V 33.38456 h 5.19175 v -5.856061 c 0,-2.943243 0.12922,-4.894977 0.32982,-5.710227 0.22637,-0.878526 0.53618,-1.430449 0.81679,-1.670454 l 0.002,-0.0019 0.004,-0.0019 c 0.32049,-0.282683 0.67638,-0.416666 1.16019,-0.416666 0.46748,0 1.02758,0.197675 1.68013,0.660985 l 0.55875,0.395833 1.62,-5 -0.31042,-0.202652 c -0.95517,-0.623337 -1.98124,-0.948863 -3.04015,-0.948863 z m -126.8641,0.392046 v 0.484848 17.874999 h 5.19175 V 15.024622 Z m 74.81664,0 v 0.484848 17.874999 h 5.19174 V 15.024622 Z m -49.57575,0.577651 c 2.23778,0 3.91605,0.775638 5.19563,2.382575 h 0.002 v 0.0019 c 1.19289,1.488558 1.79052,3.876735 1.80625,7.058712 h -10.48443 l 0.01,0.496212 c 0.0315,1.43744 0.39342,2.621871 1.13108,3.492424 l 0.002,0.0019 c 0.7257,0.844217 1.70304,1.30303 2.80153,1.30303 0.75882,0 1.45247,-0.242285 1.99055,-0.714015 0.44476,-0.389912 0.6979,-1.039329 0.93514,-1.72159 l 3.22253,0.594696 c -0.51229,1.325275 -1.20547,2.383713 -2.14964,3.100379 -1.05997,0.801076 -2.38489,1.210227 -4.04321,1.210227 -2.63791,0 -4.47332,-0.899372 -5.71169,-2.746212 -0.98217,-1.488096 -1.48807,-3.384911 -1.48807,-5.727273 0,-2.806707 0.66674,-4.936412 1.94982,-6.454545 1.29604,-1.54378 2.86111,-2.278409 4.83088,-2.278409 z m 40.11963,0 c 1.69723,0 3.08992,0.694919 4.30318,2.189393 1.19564,1.472765 1.81982,3.558719 1.81982,6.314395 0,2.832645 -0.62998,4.974608 -1.83534,6.479167 -1.22414,1.516908 -2.62152,2.223484 -4.31676,2.223484 -0.80116,0 -1.50806,-0.172265 -2.14965,-0.513258 l -0.004,-0.0019 C 176.3372,31.954751 175.6283,31.34183 174.86772,30.44503 l -0.88081,-1.035985 v 9.621258 h -3.20507 V 15.994319 h 2.92182 v 3.905302 l 0.9294,-1.596591 c 0.47013,-0.808105 1.09697,-1.454866 1.89938,-1.960227 0.78945,-0.497199 1.64506,-0.74053 2.61333,-0.74053 z m 43.19859,0 c 2.23778,0 3.91802,0.775641 5.19757,2.382575 v 0.0019 c 1.19292,1.488558 1.79053,3.876735 1.80624,7.058712 h -10.48437 l 0.0116,0.496212 c 0.0315,1.437445 0.3915,2.621874 1.12914,3.492424 h 0.002 v 0.0019 c 0.7257,0.844216 1.70306,1.30303 2.80152,1.30303 0.75884,0 1.45247,-0.242297 1.99056,-0.714015 0.4444,-0.38961 0.69988,-1.038169 0.93707,-1.719697 l 3.22059,0.592803 c -0.51249,1.325793 -1.20494,2.385551 -2.14964,3.102273 -1.0596,0.800046 -2.38595,1.208333 -4.0432,1.208333 -2.63791,0 -4.47141,-0.899376 -5.70976,-2.746212 v 0.0038 c -0.98365,-1.488609 -1.48807,-3.386908 -1.48807,-5.731061 0,-2.806707 0.66483,-4.936411 1.94788,-6.454545 1.29605,-1.543781 2.8611,-2.278409 4.83088,-2.278409 z m 18.30499,0 c 0.73657,0 1.44163,0.28363 2.14771,0.67803 L 241.79404,19.375 c -0.55297,-0.29778 -1.10751,-0.617424 -1.65297,-0.617424 -0.69017,0 -1.32783,0.228862 -1.82371,0.664773 -0.53461,0.458786 -0.87195,1.183516 -1.12333,2.15909 v 0.0019 0.0019 c -0.25728,1.042016 -0.35892,2.972581 -0.35892,5.943181 v 4.886364 h -3.20507 V 15.994319 h 2.90629 v 3.852272 l 0.93126,-1.628788 c 0.65018,-1.13788 1.23922,-1.859981 1.64715,-2.147727 0.45727,-0.315061 0.95083,-0.467803 1.53464,-0.467803 z m -125.87076,0.392046 h 3.20508 v 16.420453 h -3.20508 z m 74.81664,0 h 3.20507 v 16.420453 h -3.20507 z m -50.31493,2.157196 c -1.05183,-2e-6 -1.98503,0.454459 -2.6599,1.280303 -0.68492,0.838156 -0.99999,1.95476 -0.98946,3.285985 l 0.004,0.481061 h 7.27543 l -0.01,-0.494319 c -0.0314,-1.39892 -0.36185,-2.527305 -1.05736,-3.329545 -0.67254,-0.786136 -1.5679,-1.223485 -2.56289,-1.223485 z m 65.17815,0 c -1.14483,0 -2.15817,0.539271 -2.90629,1.503788 -0.76344,0.98645 -1.10199,2.386487 -1.10199,4.172349 0,1.89561 0.22068,3.299774 0.76441,4.263257 0.73792,1.308146 1.89201,2.051136 3.27491,2.051136 1.12337,0 2.11917,-0.555991 2.86361,-1.539772 h 0.002 v -0.0019 c 0.76924,-1.028907 1.11169,-2.47954 1.11169,-4.329546 0,-2.048418 -0.31715,-3.577318 -1.08065,-4.592803 l -0.002,-0.0019 c -0.72952,-0.979813 -1.75441,-1.524622 -2.9257,-1.524622 z m 18.14007,0 c -1.05181,-2e-6 -1.98309,0.454454 -2.65796,1.280303 -0.68493,0.838159 -1.00193,1.954763 -0.9914,3.285985 l 0.004,0.481061 h 7.27737 l -0.0116,-0.494319 c -0.0314,-1.398921 -0.36182,-2.527304 -1.05736,-3.329545 -0.67252,-0.786142 -1.56789,-1.223485 -2.56289,-1.223485 z m -44.58772,0.115531 c -1.17038,0 -2.20068,0.534635 -2.95091,1.501894 -0.77242,0.984591 -1.1175,2.375549 -1.1175,4.140151 0,2.011162 0.35353,3.55873 1.15825,4.626893 v 0.0019 h 0.002 c 0.77527,1.017115 1.81292,1.589015 2.98389,1.589015 1.12416,0 2.11582,-0.528354 2.83451,-1.473484 v -0.0019 l 0.002,-0.0019 c 0.75325,-1.003232 1.06707,-2.505026 1.06707,-4.511364 0,-1.880821 -0.33397,-3.336139 -1.09811,-4.348485 C 180.1553,18.813679 179.14921,18.267 178.01096,18.267 Z m -38.7305,0.854166 c 0.71837,0 1.27756,0.263818 1.80043,0.875 l 0.002,0.0019 c 0.42181,0.485364 0.66042,1.256867 0.75277,2.23106 h -5.151 c 0.0652,-0.915889 0.28101,-1.665749 0.71201,-2.193182 0.52053,-0.636969 1.10274,-0.914774 1.88386,-0.914772 z m 65.17815,0 c 0.8799,0 1.5391,0.339689 2.12442,1.126894 v 0.0019 h 0.002 c 0.55044,0.731167 0.88857,2.075032 0.88857,4.020834 0,1.730619 -0.33404,2.974337 -0.91962,3.757576 -0.60975,0.804711 -1.25598,1.143939 -2.06428,1.143939 -1.04776,0 -1.78697,-0.455748 -2.4038,-1.549242 -0.39269,-0.695826 -0.64218,-1.979448 -0.64218,-3.795455 0,-1.662856 0.33129,-2.848676 0.90215,-3.587121 0.60666,-0.78213 1.26533,-1.119318 2.11279,-1.119318 z m 18.14007,0 c 0.7184,0 1.27758,0.263824 1.80042,0.875 l 0.002,0.0019 h 0.002 c 0.42181,0.48535 0.65847,1.256912 0.75082,2.23106 h -5.151 c 0.0652,-0.91589 0.28295,-1.665752 0.71396,-2.193182 0.52052,-0.636964 1.10081,-0.914774 1.88191,-0.914772 z m -44.58772,0.115531 c 0.83413,0 1.48361,0.336359 2.08175,1.128787 0.57074,0.756132 0.90409,2.007424 0.90409,3.772727 0,1.900767 -0.33372,3.215673 -0.87499,3.937501 -0.57628,0.757845 -1.20687,1.081439 -2.03518,1.081439 -0.86122,0 -1.54723,-0.358274 -2.18651,-1.19697 -0.60928,-0.809605 -0.96424,-2.15512 -0.96424,-4.051136 0,-1.640226 0.33246,-2.812919 0.9138,-3.553031 h 0.002 v -0.0019 c 0.60452,-0.779387 1.27767,-1.117424 2.15935,-1.117424 z"
		style="fill:#000000" />
</svg>