<?xml version="1.0" encoding="UTF-8" standalone="no"?>
<svg
	xmlns="http://www.w3.org/2000/svg"
	width="192"
	height="64"
	viewBox="0 0 192 64">
	<title>NettleWeb</title>
	<path
		d="M8 8.001v.148c0-.107.104-.154.283-.148zm.283 0c.011 0 .029.005.041.006.027-.004.056-.005.086-.006zm.041.006c-.161.021-.271.089-.309.189.08.414 1.451 2.402 2.284 3.297.477.513.815 1.008.753 1.1s-.378.218-.7.283c-.391.078-.586.225-.586.442 0 .394 1.383 2.02 2.062 2.424.511.304.631.681.281.877-.113.064-.619.169-1.125.234-.641.083-.938.211-.983.422-.04.187.579.897 1.62 1.859 1.905 1.76 1.901 1.785-.201 1.963-.8.068-1.336.201-1.397.346-.21.497 1.285 2.116 2.861 3.097l.668.415-.415.303c-.227.167-.992.404-1.698.524-1.519.26-1.609.485-.687 1.701.551.727 2.079 1.862 2.506 1.862.102 0 .301.125.442.28.371.406-.064.603-1.342.606-1.238.003-1.44.263-.861 1.112.545.799 1.346 1.457 2.344 1.923 1.074.503.881.752-.979 1.264-.749.207-1.415.501-1.479.653-.157.37 1.849 2.061 3.456 2.912.675.358 1.147.696 1.047.751s-.895.307-1.77.558-1.638.525-1.696.611c-.244.358 2.236 1.842 3.902 2.335.563.167.995.402.995.542s-.64.561-1.422.945-1.421.803-1.421.933c0 .369 2.257 1.311 3.476 1.45.605.069 1.134.22 1.176.335s-.459.552-1.113.971c-1.074.687-1.161.789-.888 1.037.219.199.818.292 2.161.337 2.121.07 2.26.202 1.146 1.09-.996.794-.694.99 1.507.971.965-.008 1.755.054 1.755.139s-.134.442-.296.794l-.293.706c0 .037.331.066.735.066.443 0 1.195-.222 1.893-.555 1.151-.551 1.155-.55 1.017-.132-.295.892-.256.957.552.913.42-.023 1.066-.203 1.434-.4.918-.492 1.094-.46.94.174-.116.481-.081.535.354.535.266 0 .933-.281 1.482-.624l1.1-.623c.057 0 .104.28.104.623 0 .37.096.624.237.624.131 0 .704-.449 1.274-.996.803-.77 1.063-.931 1.156-.712.193.456.53.335 1.46-.526l.875-.809.344.384c.434.485.695.315 1.519-.992.325-.516.763-.979.971-1.028s.516-.386.683-.749.404-.628.529-.59c.301.091 1.214 2.274 1.922 4.594.449 1.47.548 2.09.463 2.911-.081.778-.038 1.085.164 1.201.45.258.653.08.844-.731.139-.589.099-1.071-.168-2.032-.823-2.956-1.345-4.385-2.174-5.95l-.879-1.737c0-.16.74-.042 1.764.278.939.294 1.12.304 1.39.082.198-.162.745-.255 1.509-.255 1.181 0 1.197-.007 1.16-.48-.035-.461.021-.489 1.289-.683.728-.111 1.382-.255 1.455-.321s-.069-.314-.315-.551-.392-.512-.325-.611.596-.304 1.175-.457 1.262-.435 1.518-.627l.464-.349-.835-.302c-.459-.166-.832-.367-.832-.445s.571-.39 1.271-.693 1.367-.71 1.481-.902c.236-.4.1-.478-.973-.56-.965-.074-.944-.385.059-.918 2.04-1.085 2.641-1.893 1.409-1.893-.371 0-.731-.083-.798-.182s.28-.597.772-1.107c.963-.999 1.576-1.997 1.393-2.266-.063-.092-.553-.119-1.09-.062-1.147.123-1.176.05-.483-1.191.49-.878.658-2.199.306-2.396-.1-.056-.517.104-.927.356-.874.538-1.021.37-.495-.573.329-.59.822-2.23.822-2.738 0-.274-.427-.194-1.472.272-.539.241-1.191.441-1.447.444-.445.005-.462-.035-.341-.858.091-.626.019-1.182-.268-2.026-.406-1.194-.962-1.884-1.137-1.412-.15.404-1.895 2.416-2.104 2.424-.108.005-.224-.234-.258-.527-.196-1.695-1.531-4.538-2.13-4.538-.135 0-.492.454-.792 1.009s-.631 1.001-.735.989-.302-.469-.438-1.014c-.348-1.389-1.171-2.767-1.654-2.767-.088 0-.288.221-.444.491-.32.554-1.042 1.292-1.264 1.292-.081 0-.29-.556-.466-1.235-.35-1.353-.851-2.099-1.729-2.569l-.573-.308-.583 1.165c-.32.64-.704 1.165-.854 1.165s-.487-.413-.749-.92c-.519-1.007-1.698-1.928-2.467-1.928-.406 0-.46.084-.46.7 0 1.24-.611 2.111-.913 1.302-.61-1.635-2.099-3.605-2.725-3.605-.141 0-.48.441-.751.98s-.577.979-.68.979-.469-.398-.813-.885c-.682-.964-1.823-1.963-2.243-1.963-.149 0-.361.348-.486.801-.128.46-.337.8-.491.8-.147 0-.521-.454-.831-1.009-.863-1.549-2.604-2.531-2.783-1.57-.188 1.003-.47 1.69-.697 1.69-.14 0-.865-.65-1.611-1.443s-1.504-1.514-1.686-1.603c-.487-.236-.946-.194-.946.086 0 .135-.129.341-.287.46-.235.177-.441.103-1.126-.406-1.384-1.026-3.538-2-4.343-2.054zm-.309.189C8.012 8.183 8 8.158 8 8.149v.114c.002-.024.007-.046.015-.067z"
		style="fill:#004080" />
	<path
		d="M20 26v12h2.164v-7.827L26.808 38h2.335V26h-2.164v8.013L22.263 26zm10.286 0l2.496 12h2.287l2.074-8.972L39.223 38h2.238L44 26h-2.125l-1.603 8.381L38.44 26h-2.509l-1.912 8.242L32.446 26z"
		style="fill:#ffffff" />
	<path
		d="M117.797 20.055c-5.138-.59-2.774 5.098-3.294 8.194.107 4.409-.334 8.917.382 13.261 1.439 3.991 7.873 1.403 3.604-1.756-1.481-3.401-.343-7.282-.692-10.91v-8.788zm56.519 0c-3.282-.454-3.613 1.982-3.296 4.481v18.418c4.898 2.212 12.523.585 12.713-5.774 1.378-4.985-2.768-11.63-8.427-9.386-2.153-.576-.506-3.813-.99-5.637v-2.102zM64 22.556v20.881c3.321 1.072 3.722-1.343 3.379-3.88V28.492c3.51 4.727 6.507 9.802 9.348 14.945 3.516 1.127 2.979-2.124 2.916-4.365V22.556c-3.321-1.07-3.759 1.329-3.406 3.88v9.981c-2.849-4.806-5.89-9.519-9.427-13.86H64zm68.897 0c1.192 7.038 2.612 14.056 4.74 20.881 5.358 1.123 4.496-5.984 6.205-9.176.637-2.15 1.294-6.001 2.005-1.581 1.376 3.223 1.369 12.414 6.528 10.279 1.704-4.069 2.332-8.567 3.368-12.864-.083-2.734 3.607-8.845-1.424-7.526-2.473 3.92-1.809 10.289-3.508 15.066-.753 1.533-1.642-4.036-2.121-5.414.235-3.411-4.202-11.217-5.962-4.679a34.33 34.33 0 0 1-3.18 10.381c-1.313-5.014-2.116-10.23-2.971-15.368h-3.68zm-34.095.362c-6.117-.296-2.196 7.666-3.321 11.35-.988 4.683 1.247 11.329 7.247 9.309 3.71-.879.505-4.545-2.156-3.143-3.204-1.581-1.168-6.393-1.813-9.304 2.148-.135 7.711-.597 4.112-3.532-4.441.6-4.265.265-4.071-4.68zm9.443 0c-6.113-.293-2.191 7.667-3.316 11.35-.991 4.683 1.242 11.33 7.244 9.309 3.71-.88.504-4.545-2.156-3.143-3.204-1.581-1.168-6.393-1.813-9.304 2.148-.135 7.711-.597 4.112-3.532-4.441.6-4.265.265-4.071-4.68zm-20.36 4.368c-6.12.192-7.97 8.009-5.87 12.705 1.176 4.281 12.335 6.186 10.708.314-2.056-.689-5.062 2.149-6.968-1.032-2.776-2.804 1.644-2.745 3.562-2.587h4.756c.575-3.989-1.151-9.753-6.189-9.4zm38.649 0c-6.123.19-7.975 8.007-5.872 12.705 1.175 4.282 12.334 6.185 10.707.314-2.055-.689-5.062 2.149-6.968-1.033-2.776-2.804 1.643-2.745 3.562-2.587h4.755c.574-3.987-1.149-9.752-6.185-9.4zm36.706 0c-6.388.249-8.166 8.674-5.503 13.378 1.44 4.254 13.514 4.657 9.744-.797-2.102 2.872-9.397-.759-6.279-3.189l8.223.008c.583-3.988-1.153-9.75-6.185-9.4zm-75.325 3.044c3.634.007 3.179 5.509-.583 3.73-4.633.859-2.123-3.694.583-3.73zm38.645 0c3.637.005 3.18 5.509-.583 3.731-4.634.857-2.119-3.689.583-3.731zm36.706 0c3.637.005 3.18 5.509-.583 3.731-4.634.857-2.119-3.689.583-3.731zm13.75.151c5.606.865 4.265 11.121-1.507 10.336-2.34-1.504-.801-4.811-1.192-7.183-.274-2.057.112-3.222 2.699-3.153z"
		style="fill:#303030" />
</svg>