<?xml version="1.0" encoding="UTF-8" standalone="no"?>
<svg
	xmlns="http://www.w3.org/2000/svg"
	width="192"
	height="64"
	viewBox="0 0 192 64">
	<title>NettleWeb</title>
	<path
		d="M 8,8.0005566 V 8.1485037 C 8,8.0410197 8.1035185,7.994274 8.2827142,8.0005566 Z m 0.2827142,0 c 0.011258,3.948e-4 0.029167,0.00506 0.041017,0.00586 0.0273,-0.0035 0.056287,-0.0051 0.086425,-0.00586 z m 0.041017,0.00586 C 8.162738,8.0270547 8.052864,8.0951896 8.0146493,8.1953787 c 0.080479,0.4143662 1.4514165,2.4015963 2.2836867,3.2973123 0.476553,0.51288 0.815309,1.008474 0.752928,1.10008 -0.06238,0.09161 -0.377758,0.218435 -0.700192,0.28271 -0.3905142,0.07785 -0.5859372,0.22525 -0.5859372,0.442378 0,0.394349 1.3831782,2.020294 2.0624952,2.424279 0.51105,0.303919 0.631434,0.680995 0.28125,0.877427 -0.113316,0.06356 -0.619197,0.168702 -1.124997,0.234371 -0.641073,0.08323 -0.938226,0.211288 -0.982908,0.421869 -0.039608,0.186669 0.579406,0.897128 1.620113,1.858857 1.904605,1.76006 1.90126,1.78471 -0.200684,1.96286 -0.800331,0.06783 -1.336109,0.200594 -1.397457,0.345698 -0.2100777,0.496876 1.285452,2.116067 2.860833,3.096632 l 0.667968,0.414545 -0.41455,0.303218 c -0.227483,0.167187 -0.992375,0.403608 -1.69775,0.524405 -1.5194532,0.260216 -1.6087189,0.484758 -0.687011,1.700657 0.550991,0.726858 2.0788,1.861788 2.506343,1.861788 0.102214,0 0.301245,0.125431 0.442382,0.27978 0.371363,0.406128 -0.06443,0.603096 -1.341794,0.606436 -1.238196,0.0033 -1.439916,0.263319 -0.861327,1.1118 0.545043,0.799284 1.346393,1.456702 2.343746,1.92331 1.074317,0.502616 0.880576,0.751626 -0.978515,1.264141 -0.749413,0.206599 -1.415253,0.501378 -1.479489,0.65331 -0.156621,0.370447 1.849385,2.060994 3.45556,2.912065 0.674995,0.35766 1.146727,0.695713 1.047361,0.751452 -0.09937,0.05574 -0.895459,0.307486 -1.769527,0.558098 -0.87407,0.250609 -1.637744,0.524857 -1.696286,0.610829 -0.243797,0.358032 2.236138,1.841929 3.902335,2.334925 0.563363,0.166692 0.994627,0.401904 0.994627,0.541985 0,0.136122 -0.640152,0.561348 -1.42236,0.944809 -0.782207,0.383463 -1.420895,0.803116 -1.420895,0.933091 0,0.369437 2.256566,1.310712 3.476066,1.450173 0.605344,0.06923 1.134119,0.220429 1.176269,0.335443 0.04215,0.115014 -0.458557,0.55211 -1.113281,0.971177 -1.07355,0.68715 -1.160892,0.788868 -0.887693,1.037094 0.21909,0.199057 0.817721,0.292287 2.160641,0.336908 2.12146,0.07049 2.259841,0.201809 1.145505,1.089827 -0.995958,0.793675 -0.69372,0.989595 1.507321,0.971177 0.964789,-0.0081 1.754879,0.05449 1.754879,0.139158 0,0.08467 -0.134062,0.442386 -0.295898,0.793933 -0.161836,0.351545 -0.292968,0.669041 -0.292968,0.706044 0,0.03701 0.330759,0.06611 0.735351,0.06592 0.443452,-2.33e-4 1.195429,-0.221646 1.892574,-0.555168 1.151137,-0.55072 1.155101,-0.550015 1.016599,-0.131833 -0.295393,0.891875 -0.255935,0.957194 0.552245,0.912583 0.420263,-0.0232 1.065968,-0.202769 1.43408,-0.399896 0.918267,-0.491743 1.093975,-0.460208 0.940428,0.174314 -0.116363,0.480847 -0.08122,0.534658 0.35449,0.534658 0.266195,0 0.93346,-0.28128 1.482419,-0.624012 0.548961,-0.342733 1.043549,-0.62255 1.100096,-0.62255 0.05655,0 0.104002,0.279817 0.104002,0.62255 0,0.369669 0.09616,0.624012 0.237306,0.624012 0.130865,0 0.704258,-0.448851 1.274415,-0.996077 0.802698,-0.770433 1.063172,-0.930879 1.155752,-0.711903 0.192607,0.455563 0.530363,0.334929 1.46045,-0.52587 l 0.874506,-0.808582 0.344241,0.383782 c 0.43377,0.485233 0.695451,0.314814 1.51904,-0.991683 0.325199,-0.515883 0.762613,-0.9788 0.971188,-1.028305 0.208574,-0.04951 0.515954,-0.38649 0.682618,-0.748524 0.166665,-0.362036 0.403844,-0.62813 0.528802,-0.590322 0.301237,0.09114 1.214082,2.274133 1.921871,4.593679 0.448663,1.470347 0.547837,2.090162 0.462891,2.910599 -0.08054,0.777865 -0.03825,1.084999 0.164062,1.201153 0.450098,0.258449 0.652695,0.07999 0.843749,-0.730945 0.13872,-0.588784 0.09911,-1.070901 -0.168458,-2.031708 -0.823078,-2.955662 -1.345302,-4.384515 -2.173825,-5.950101 -0.483967,-0.914521 -0.878901,-1.697046 -0.878901,-1.737278 0,-0.16039 0.740166,-0.04231 1.763667,0.278317 0.938623,0.294037 1.120318,0.303655 1.390137,0.08203 0.19767,-0.162365 0.744689,-0.25488 1.508787,-0.25488 1.180625,0 1.196532,-0.0065 1.16015,-0.480461 -0.0354,-0.460782 0.02063,-0.489498 1.28906,-0.682606 0.728407,-0.110894 1.382383,-0.25526 1.454584,-0.320796 0.07223,-0.06554 -0.06945,-0.313598 -0.314939,-0.550772 -0.24549,-0.237174 -0.392437,-0.512079 -0.325192,-0.61083 0.06728,-0.09875 0.596235,-0.304371 1.174806,-0.457026 0.578562,-0.152657 1.261977,-0.435021 1.517568,-0.626943 l 0.464355,-0.348627 -0.834958,-0.301753 c -0.458534,-0.16632 -0.832026,-0.367238 -0.832026,-0.445305 0,-0.07807 0.571333,-0.38958 1.271479,-0.692862 0.700154,-0.303285 1.367278,-0.709539 1.480955,-0.902329 0.236122,-0.400445 0.09962,-0.477527 -0.972658,-0.559562 -0.96485,-0.07381 -0.944128,-0.385093 0.05857,-0.918442 2.040318,-1.085243 2.640707,-1.89255 1.409179,-1.89255 -0.371249,0 -0.730828,-0.0825 -0.798335,-0.181638 -0.0675,-0.09914 0.280078,-0.597049 0.771965,-1.107405 0.962878,-0.999024 1.576392,-1.996856 1.39307,-2.266077 -0.06255,-0.09191 -0.553394,-0.119193 -1.089845,-0.06152 -1.147438,0.123343 -1.175983,0.04958 -0.483397,-1.190899 0.490222,-0.878034 0.658236,-2.198953 0.30615,-2.396448 -0.10047,-0.05635 -0.517432,0.103538 -0.927246,0.355952 -0.874138,0.538408 -1.020606,0.36987 -0.495111,-0.572745 0.328814,-0.589821 0.821772,-2.230354 0.821772,-2.73775 0,-0.27356 -0.426733,-0.194303 -1.472163,0.272455 -0.539453,0.240851 -1.190609,0.440804 -1.447266,0.443841 -0.445131,0.0053 -0.461654,-0.03496 -0.341301,-0.858385 0.09149,-0.626004 0.0189,-1.18246 -0.268071,-2.025847 -0.406418,-1.194285 -0.961874,-1.883887 -1.136714,-1.412088 -0.149752,0.404092 -1.895013,2.415659 -2.103513,2.424279 -0.107888,0.0045 -0.223853,-0.233565 -0.257811,-0.527336 C 46.87723,22.217941 45.542616,19.3749 44.943262,19.3749 c -0.135113,0 -0.491796,0.453612 -0.792479,1.009261 -0.300689,0.555653 -0.631071,1.001006 -0.735351,0.988755 -0.104287,-0.01226 -0.301799,-0.469417 -0.437991,-1.013656 -0.347527,-1.388832 -1.170883,-2.767047 -1.653799,-2.767047 -0.0884,0 -0.288397,0.221426 -0.443849,0.490713 -0.319643,0.553727 -1.041809,1.291974 -1.26416,1.291974 -0.08118,0 -0.290377,-0.556335 -0.465817,-1.234845 -0.349872,-1.35308 -0.850683,-2.098653 -1.728512,-2.569296 l -0.572758,-0.307606 -0.583005,1.164532 c -0.319934,0.640413 -0.703843,1.164532 -0.854,1.164532 -0.150165,0 -0.48734,-0.413298 -0.748534,-0.919908 -0.518984,-1.006601 -1.698008,-1.927705 -2.466791,-1.927705 -0.405764,0 -0.45996,0.08352 -0.45996,0.700187 0,1.239935 -0.610578,2.111456 -0.912596,1.302224 -0.610224,-1.635041 -2.099376,-3.604925 -2.724604,-3.604925 -0.141373,0 -0.479797,0.441386 -0.751463,0.979966 -0.271667,0.538578 -0.577073,0.978501 -0.679686,0.978501 -0.102611,0 -0.468734,-0.397842 -0.812987,-0.884753 -0.681662,-0.964145 -1.822928,-1.96286 -2.242672,-1.96286 -0.14934,0 -0.360652,0.348263 -0.486327,0.801257 -0.127682,0.460222 -0.336757,0.799793 -0.490721,0.799793 -0.14742,0 -0.521002,-0.453655 -0.830565,-1.009262 -0.862862,-1.548681 -2.60361,-2.530974 -2.783197,-1.570288 -0.187577,1.003435 -0.470165,1.690403 -0.697265,1.690403 -0.139857,0 -0.865365,-0.649864 -1.611324,-1.442848 -0.745958,-0.792984 -1.504191,-1.514186 -1.686032,-1.6025147 -0.486863,-0.2364907 -0.946287,-0.193692 -0.946287,0.086426 0,0.134893 -0.128904,0.340783 -0.287109,0.459953 -0.234605,0.176733 -0.44103,0.102573 -1.126441,-0.405754 C 11.283151,9.033792 9.1293035,8.0605809 8.32373,8.0064159 Z M 8.0146497,8.1953787 c -0.0024,-0.012543 -0.014647,-0.037315 -0.014647,-0.046874 v 0.1142561 c 0.0015,-0.02396 0.0066,-0.046236 0.014647,-0.067382 z"
		style="fill:#004080" />
	<path
		d="m 20.000001,26.000001 v 12 h 2.16369 v -7.826563 l 4.644346,7.826563 h 2.33482 v -12 h -2.16369 v 8.012501 l -4.715774,-8.012501 z m 10.285715,0 2.495535,12 h 2.287204 l 2.074404,-8.971876 2.080357,8.971876 h 2.238095 l 2.538691,-12 h -2.125001 l -1.602678,8.381249 -1.831846,-8.381249 h -2.508928 l -1.912203,8.242187 -1.572916,-8.242187 z"
		style="fill:#ffffff" />
	<path
		d="m 117.79746,20.054955 c -5.13756,-0.590474 -2.77444,5.097542 -3.29382,8.193932 0.1073,4.408833 -0.33449,8.916556 0.38241,13.26051 1.43851,3.990873 7.87262,1.402655 3.60355,-1.756402 -1.48115,-3.400576 -0.34272,-7.281781 -0.69212,-10.910023 -10e-6,-2.929339 -10e-6,-5.858677 -2e-5,-8.788017 z m 56.51925,0 c -3.28159,-0.454038 -3.61307,1.98193 -3.2958,4.480926 0,6.139329 0,12.278658 0,18.417987 4.8982,2.211894 12.52261,0.585369 12.71295,-5.77402 1.37795,-4.985276 -2.76848,-11.629684 -8.42733,-9.386207 -2.15307,-0.57567 -0.50574,-3.812644 -0.98982,-5.63654 0,-0.700716 0,-1.401431 0,-2.102146 z M 64,22.556304 c 0,6.96034 0,13.92068 0,20.88102 3.320597,1.071811 3.722338,-1.343386 3.379446,-3.879761 0,-3.688428 0,-7.376855 0,-11.065282 3.510352,4.726505 6.507169,9.802229 9.347654,14.945043 3.515555,1.12724 2.978632,-2.12353 2.915678,-4.364644 0,-5.505458 0,-11.010917 0,-16.516376 -3.321235,-1.070182 -3.759285,1.328643 -3.406062,3.879761 0,3.326888 0,6.653775 0,9.980662 -2.848861,-4.806325 -5.890416,-9.518801 -9.427478,-13.860423 -0.936413,0 -1.872825,0 -2.809238,0 z m 68.89662,0 c 1.19235,7.038017 2.61225,14.056047 4.74038,20.88102 5.35801,1.122636 4.49629,-5.983736 6.20472,-9.17557 0.63674,-2.149671 1.2937,-6.000931 2.00524,-1.581366 1.37641,3.223244 1.36924,12.413964 6.52824,10.27912 1.70374,-4.069403 2.33195,-8.567177 3.36772,-12.864203 -0.0829,-2.734105 3.60714,-8.845082 -1.42404,-7.52594 -2.47276,3.919811 -1.8085,10.289337 -3.50754,15.066499 -0.75261,1.533156 -1.64204,-4.036079 -2.12143,-5.414429 0.235,-3.411131 -4.20236,-11.217438 -5.96221,-4.678952 -0.47621,3.558069 -1.64573,7.301417 -3.18008,10.381327 -1.31288,-5.013614 -2.11606,-10.229622 -2.9712,-15.367506 -1.22661,0 -2.4532,0 -3.6798,0 z m -34.094768,0.361541 c -6.11681,-0.295684 -2.195632,7.665714 -3.320515,11.35026 -0.98779,4.682627 1.247264,11.329261 7.247483,9.308737 3.71043,-0.879267 0.50453,-4.544678 -2.1561,-3.142815 -3.203763,-1.58082 -1.167698,-6.393013 -1.812616,-9.304425 2.148356,-0.134666 7.710686,-0.596763 4.112416,-3.532133 -4.441348,0.600147 -4.265468,0.26512 -4.070668,-4.679624 z m 9.442688,0 c -6.1134,-0.292923 -2.19102,7.666742 -3.31644,11.350023 -0.99135,4.682868 1.24245,11.329653 7.24363,9.309341 3.71009,-0.879886 0.5043,-4.544965 -2.15633,-3.143183 -3.20376,-1.580815 -1.16768,-6.393012 -1.81261,-9.304422 2.14836,-0.134661 7.71068,-0.596766 4.11242,-3.532133 -4.44136,0.60015 -4.26546,0.265113 -4.07067,-4.679626 z m -20.360322,4.367904 c -6.120497,0.192219 -7.969505,8.008671 -5.869595,12.705087 1.176263,4.281112 12.33543,6.185939 10.708422,0.314342 -2.05574,-0.689101 -5.06209,2.14919 -6.968052,-1.032468 -2.776012,-2.804066 1.643671,-2.745478 3.562409,-2.586926 1.585168,0 3.170335,0 4.755502,0 0.575394,-3.988756 -1.151461,-9.753234 -6.188686,-9.400035 z m 38.648862,0 c -6.12278,0.190484 -7.97466,8.007306 -5.87158,12.705286 1.17539,4.281648 12.33355,6.185263 10.7068,0.314327 -2.0555,-0.689106 -5.062,2.148556 -6.96802,-1.032712 -2.7764,-2.803843 1.64348,-2.74547 3.5622,-2.586866 1.58516,0 3.17034,0 4.7555,0 0.57429,-3.986918 -1.14917,-9.751531 -6.1849,-9.400035 z m 36.70639,0 c -6.38838,0.248605 -8.16644,8.674105 -5.50312,13.377631 1.44017,4.253771 13.51404,4.6574 9.7439,-0.797291 -2.1019,2.87194 -9.39738,-0.758993 -6.27867,-3.188796 2.74083,0.0185 5.48184,0.0038 8.22275,0.0085 0.58271,-3.987564 -1.15291,-9.750421 -6.18486,-9.400025 z m -75.32484,3.043659 c 3.634238,0.0072 3.17945,5.508672 -0.583039,3.730463 -4.632751,0.859196 -2.123461,-3.693818 0.583039,-3.730463 z m 38.64506,0 c 3.63655,0.0046 3.17993,5.509372 -0.58324,3.730688 -4.63392,0.857113 -2.1192,-3.689285 0.58324,-3.730688 z m 36.70638,0 c 3.63658,0.0047 3.17977,5.509378 -0.58334,3.730682 -4.63396,0.857144 -2.11911,-3.689393 0.58334,-3.730682 z m 13.74966,0.151336 c 5.60621,0.864723 4.26471,11.120676 -1.50742,10.335842 -2.34039,-1.504421 -0.80074,-4.810613 -1.1916,-7.182686 -0.27446,-2.057207 0.11239,-3.221988 2.69902,-3.153156 z"
		style="fill:#ffffff" />
</svg>