<?xml version="1.0" encoding="UTF-8" standalone="no"?>
<svg
	xmlns="http://www.w3.org/2000/svg"
	width="256"
	height="64"
	viewBox="0 0 256 64">
	<title>WhiteSpider</title>
	<path
		d="m 42.441725,8.750262 c -0.0037,0.005 4.98e-4,0.002 -0.0073,0.0103 -0.06204,0.0656 -0.17578,0.21371 -0.342762,0.46568 -0.333947,0.50395 -0.886991,1.41931 -1.847104,3.01088 -0.41213,0.68319 -0.808582,1.32977 -1.111778,1.82175 -0.151595,0.24599 -0.278699,0.45288 -0.376453,0.60774 -0.09775,0.15486 -0.145356,0.23439 -0.203606,0.31046 l -0.290003,0.37782 -0.298817,-0.28703 c -1.812549,-1.74773 -3.871809,-2.6522 -5.96171,-2.65355 -2.065146,0.009 -4.098944,0.89888 -5.894329,2.61401 l -0.254873,0.2431 -0.254875,-0.24163 c -0.327993,-0.31028 -0.684832,-0.92047 -1.6684,-2.56862 -1.034327,-1.7331 -1.619186,-2.69862 -1.967267,-3.21003 -0.174041,-0.25571 -0.291773,-0.39708 -0.348621,-0.44958 -0.01202,-0.0111 -0.0053,-0.007 -0.0088,-0.0117 0.02114,0.001 -0.0046,0.003 -0.07177,0.0176 -0.08357,0.0185 -0.202485,0.0469 -0.348621,0.0835 -0.29227,0.0731 -0.696008,0.17831 -1.171835,0.30607 -0.951654,0.2555 -2.195763,0.59974 -3.446657,0.95188 -1.250895,0.35214 -2.507546,0.71189 -3.487673,1.0002 -0.490064,0.14416 -0.911898,0.26992 -1.226032,0.36758 -0.314135,0.0977 -0.552952,0.18446 -0.559551,0.18744 -0.03653,0.0165 -0.05901,0.0241 -0.08935,0.16109 -0.03029,0.13673 -0.03204,0.38327 0.02051,0.71318 v 0.002 l 0.03076,0.18891 0.08789,-0.003 c -0.03335,0.001 0.03522,-0.005 0.115719,-0.0205 0.0805,-0.016 0.191264,-0.0407 0.326649,-0.0718 0.27077,-0.0622 0.639868,-0.1519 1.078088,-0.26213 0.876437,-0.22046 2.030845,-0.52191 3.248911,-0.8523 1.221027,-0.33119 2.371776,-0.63908 3.244518,-0.86694 0.436372,-0.11394 0.804923,-0.20748 1.076623,-0.27532 0.271702,-0.0678 0.402353,-0.10507 0.530256,-0.12301 0.126523,-0.0178 0.267883,-0.0364 0.432113,0.003 0.164233,0.0393 0.316301,0.1404 0.440903,0.26799 0.249202,0.25519 0.482312,0.64188 0.940398,1.38096 0.692787,1.11774 1.22835,2.01355 1.60102,2.67698 0.186333,0.33172 0.333086,0.60559 0.439437,0.82448 0.106351,0.21887 0.1722,0.36413 0.205072,0.53159 l 0.03369,0.16548 -0.10693,0.13472 c -0.904813,1.12781 -1.700032,2.46651 -2.353923,3.97301 l -0.21093,0.48912 -1.977472,-1.91694 h -0.0015 c -0.453726,-0.44044 -0.890495,-0.85184 -1.227498,-1.15837 -0.168502,-0.15326 -0.312214,-0.27994 -0.417466,-0.36904 -0.05263,-0.0445 -0.09559,-0.0803 -0.124507,-0.10251 -0.0057,-0.004 -0.0092,-0.005 -0.01465,-0.009 -0.0017,8.3e-4 -9e-4,6.4e-4 -0.0029,0.002 -0.06638,0.0276 -0.250414,0.13873 -0.562481,0.3544 -0.862379,0.59597 -7.017999,5.24855 -8.1296035,6.14621 -0.636066,0.51367 -0.9667065,0.79582 -1.0795528,0.93724 -0.056421,0.0707 -0.057847,0.089 -0.061521,0.1113 -0.00368,0.0223 -0.00257,0.0752 0.014647,0.18598 0.046453,0.29858 0.1011683,0.50388 0.1479442,0.62385 0.038678,-0.015 0.00478,-0.002 0.099606,-0.0586 0.1870164,-0.11202 0.4766047,-0.30591 0.8920592,-0.60335 0.8309089,-0.59488 2.1766539,-1.60767 4.3431129,-3.25396 1.624433,-1.23441 2.598607,-1.96782 3.197644,-2.39874 0.299498,-0.21544 0.503761,-0.35498 0.659157,-0.44812 0.155396,-0.0932 0.246226,-0.16402 0.449692,-0.16402 0.22012,0 0.216829,0.0582 0.265127,0.0893 0.0483,0.0312 0.09233,0.0645 0.14355,0.10544 0.102451,0.082 0.22626,0.19004 0.367663,0.31925 0.282805,0.25843 0.636517,0.60003 0.985806,0.95041 0.34929,0.3504 0.692393,0.7071 0.957975,0.99875 0.132792,0.14582 0.247191,0.2748 0.333973,0.38222 0.0434,0.0537 0.07903,0.10183 0.111325,0.14937 0.03229,0.0475 0.06341,0.0731 0.09375,0.1933 0.02979,0.11799 0.01273,0.13047 0.01025,0.16695 -0.0025,0.0365 -0.0057,0.0705 -0.01025,0.1069 -0.0092,0.0728 -0.02112,0.1524 -0.02929,0.21527 l -0.0044,0.0337 -0.01025,0.0308 c -0.549446,1.69973 -0.924181,3.52849 -1.108849,5.41401 l -0.0074,0.0688 -0.03223,0.063 c -0.08745,0.1691 -0.328852,0.32107 -0.490706,0.33974 -0.161475,0.0186 -0.220743,-0.01 -0.331043,-0.0366 -0.110301,-0.0266 -0.240726,-0.0647 -0.389635,-0.11276 -0.297819,-0.0962 -0.670363,-0.23282 -1.073694,-0.3954 -0.371519,-0.14975 -0.717909,-0.28126 -0.971158,-0.3705 -0.08177,-0.0288 -0.133015,-0.0441 -0.191887,-0.063 -0.06549,0.0858 -0.146088,0.19216 -0.25341,0.33829 -0.239145,0.32561 -0.571115,0.78815 -0.966764,1.34142 -0.791298,1.10653 -1.833162,2.57981 -2.879784,4.06965 -1.046622,1.48984 -2.099381,2.99701 -2.912009,4.17363 -0.4063142,0.58831 -0.7522742,1.09321 -1.0077782,1.47175 -0.2469318,0.36585 -0.410362,0.62374 -0.4350437,0.66632 0.00465,0.004 -0.010577,0.0688 0.00293,0.1523 0.018442,0.11403 0.061626,0.26341 0.1171835,0.39833 0.032645,0.0793 0.067497,0.12557 0.1025355,0.18598 0.00634,-0.007 0.00797,-0.008 0.014647,-0.0161 0.1374791,-0.15983 0.343634,-0.42249 0.6327908,-0.81129 0.5783131,-0.77762 1.4955161,-2.06253 2.9339811,-4.10481 1.727932,-2.45325 2.849523,-4.03904 3.555054,-5.01421 0.352765,-0.48758 0.601949,-0.82141 0.771946,-1.03975 0.085,-0.10916 0.149596,-0.19037 0.205072,-0.25188 0.02773,-0.0307 0.05097,-0.0541 0.08496,-0.0835 0.01699,-0.0147 0.03531,-0.0327 0.06885,-0.0527 0.03354,-0.02 0.07982,-0.0556 0.202141,-0.0556 0.125417,0 0.136238,0.0189 0.186029,0.0337 0.04979,0.0148 0.104223,0.0327 0.168452,0.0556 0.128454,0.046 0.292394,0.10832 0.477522,0.18306 0.370256,0.14948 0.829037,0.34624 1.253863,0.54037 0.281209,0.1285 0.48739,0.23369 0.648904,0.34268 0.161515,0.10899 0.314378,0.22668 0.363268,0.45983 8.25e-4,0.005 0.0065,0.0451 0.0073,0.0542 8.25e-4,0.01 4.9e-4,0.0204 0.0015,0.0308 9e-4,0.0103 0.0023,0.0208 0.0029,0.0278 l 0.0029,0.022 v 0.0395 0.001 c 0.0042,2.27281 0.284129,4.5248 0.82175,6.63387 l 0.0586,0.22992 -0.186029,0.14791 c -0.194481,0.15414 -0.334606,0.15289 -0.657692,0.21381 -0.323086,0.0609 -0.817039,0.13911 -1.601019,0.26066 -0.49441,0.0767 -0.962636,0.15171 -1.316849,0.21088 -0.177107,0.0296 -0.325436,0.0551 -0.433579,0.0747 -0.09762,0.0177 -0.168357,0.0356 -0.14648,0.0278 -0.01738,0.02 -0.06303,0.0849 -0.125972,0.20942 -0.126904,0.25095 -0.325377,0.72579 -0.653297,1.5479 -1.13212,2.83827 -4.601181,12.01093 -5.173651,13.67486 -0.163839,0.4762 -0.224969,0.75257 -0.219719,0.88159 0.0052,0.12902 0.02669,0.1638 0.196282,0.33243 0.0014,0.001 0.003,0.001 0.0044,0.003 0.06471,-0.12546 0.137119,-0.26421 0.31786,-0.70586 0.461458,-1.1276 1.363136,-3.4753 3.221081,-8.29894 1.15618,-3.00169 1.739534,-4.51453 2.085866,-5.31588 0.173165,-0.40068 0.282841,-0.62348 0.404283,-0.79079 0.121443,-0.16732 0.303719,-0.27173 0.396959,-0.31046 0.305425,-0.12688 0.762222,-0.21376 1.337356,-0.29875 0.575136,-0.085 1.243912,-0.15378 1.872007,-0.18598 l 1.165975,-0.06 0.09228,0.2592 c 2.041309,5.76915 5.893385,9.26176 9.985496,9.26986 4.098272,-0.01 7.956427,-3.51419 9.994286,-9.29768 l 0.06738,-0.19623 0.203605,-0.0425 c 0.13965,-0.0293 0.213253,-0.0175 0.347157,-0.0117 0.133904,0.006 0.297902,0.0183 0.484847,0.0352 0.373899,0.0337 0.839515,0.0876 1.30513,0.1479 0.465614,0.0603 0.931638,0.12668 1.308061,0.19038 0.188217,0.0318 0.352425,0.0629 0.487776,0.0923 0.13536,0.0294 0.222976,0.044 0.339833,0.0981 0.107287,0.0496 0.271433,0.18193 0.38524,0.36904 0.113807,0.1871 0.23796,0.45811 0.437973,0.93577 0.400037,0.95531 1.088616,2.73708 2.41105,6.16965 1.335939,3.46763 2.098954,5.4398 2.551671,6.57237 0.405934,1.01554 0.525327,1.23158 0.581522,1.32384 l 0.04687,-0.0498 c 0.09143,-0.10011 0.174697,-0.20621 0.23,-0.28416 0.0069,-0.01 0.0087,-0.0117 0.01465,-0.0205 -0.02854,-0.0842 -0.07264,-0.20844 -0.128901,-0.36464 -0.112485,-0.3124 -0.275328,-0.7566 -0.476058,-1.29602 -0.401469,-1.07884 -0.952842,-2.54097 -1.551216,-4.11652 -1.196763,-3.15111 -2.582643,-6.75612 -3.332405,-8.64307 -0.213142,-0.53641 -0.417613,-1.01739 -0.577129,-1.36485 -0.07976,-0.17374 -0.149593,-0.31505 -0.199212,-0.40712 -0.0086,-0.016 -0.01023,-0.0194 -0.01758,-0.0322 -0.02075,-0.005 -0.03618,-0.009 -0.06298,-0.0146 -0.107325,-0.0232 -0.257801,-0.0531 -0.439439,-0.0864 -0.363274,-0.0666 -0.846681,-0.14789 -1.359328,-0.22698 -0.826409,-0.1275 -1.339048,-0.20812 -1.666935,-0.27092 -0.163939,-0.0314 -0.280749,-0.0575 -0.379382,-0.0879 -0.09863,-0.0303 -0.191649,-0.0531 -0.298818,-0.17134 l -0.133295,-0.14498 0.04981,-0.19038 c 0.520672,-2.05369 0.795693,-4.241 0.811495,-6.45228 3e-5,-0.004 -2.2e-5,-0.008 0,-0.0117 v -0.0308 l 0.0058,-0.0293 v -10e-4 -0.002 c 0.04256,-0.24459 0.07657,-0.4175 0.228507,-0.58431 0.08893,-0.0977 0.139635,-0.11556 0.21679,-0.16109 0.07716,-0.0455 0.168206,-0.0939 0.272451,-0.14644 0.208484,-0.10509 0.467758,-0.22678 0.736792,-0.34414 0.538052,-0.23473 1.060121,-0.45134 1.397412,-0.51841 0.0782,-0.0156 0.201809,-0.039 0.344227,-0.001 0.142409,0.0376 0.25531,0.12278 0.355945,0.22113 0.201278,0.1967 0.423936,0.49929 0.867158,1.09246 0.514131,0.68807 2.119869,2.93033 3.585814,5.00397 1.904617,2.69415 2.874169,4.06088 3.377813,4.71107 0.146198,0.18874 0.168979,0.20085 0.240227,0.27678 0.02031,-0.0524 0.03896,-0.0953 0.0586,-0.15377 0.07148,-0.21288 0.115362,-0.4469 0.123042,-0.49937 -0.0161,-0.032 -0.03665,-0.0719 -0.07031,-0.13033 -0.07989,-0.1388 -0.204492,-0.3402 -0.367663,-0.59456 -0.326344,-0.50871 -0.808692,-1.23192 -1.422315,-2.13075 -1.227233,-1.79765 -2.980216,-4.3025 -5.078439,-7.25186 -0.42135,-0.59227 -0.810711,-1.13988 -1.098595,-1.54498 -0.205262,-0.28884 -0.273187,-0.38356 -0.353014,-0.49644 -0.05422,0.0157 -0.09565,0.0269 -0.169917,0.0513 -0.253152,0.0829 -0.604602,0.21097 -0.98434,0.36172 -0.39055,0.15503 -0.770849,0.29478 -1.07223,0.39832 -0.150686,0.0518 -0.279853,0.0949 -0.386705,0.12594 -0.106852,0.031 -0.142066,0.0586 -0.300283,0.0586 -0.09019,0 -0.263894,-0.0217 -0.392565,-0.1318 -0.128662,-0.11005 -0.180959,-0.2405 -0.228508,-0.38514 l -0.01172,-0.0366 -0.0044,-0.041 c -0.189567,-1.92111 -0.576159,-3.7818 -1.143974,-5.50762 l -0.02783,-0.0805 0.01172,-0.0835 c 0.02768,-0.2002 0.101827,-0.28202 0.188958,-0.41297 0.08713,-0.13096 0.198201,-0.27619 0.329578,-0.4364 0.262751,-0.32042 0.603806,-0.69611 0.955046,-1.05732 0.351232,-0.36121 0.710903,-0.70754 1.016567,-0.97092 0.152826,-0.13169 0.292096,-0.24247 0.417466,-0.32803 0.125369,-0.0856 0.184344,-0.1772 0.443832,-0.1772 0.114217,0 0.131482,0.0216 0.156734,0.0322 0.02525,0.0106 0.0433,0.0201 0.06006,0.0293 0.03346,0.0183 0.06568,0.0368 0.104,0.0615 0.07664,0.0494 0.175593,0.11766 0.307606,0.21088 0.264028,0.18644 0.651905,0.47055 1.187948,0.86694 1.072097,0.7928 2.73373,2.03795 5.141425,3.85292 0.854968,0.6445 1.581929,1.17009 2.103443,1.52155 0.219418,0.14787 0.379829,0.2433 0.515607,0.32364 0.04747,-0.16628 0.09858,-0.37952 0.14355,-0.62971 0.02133,-0.11836 0.03073,-0.0925 -0.01172,-0.17134 -0.04244,-0.0789 -0.187562,-0.25694 -0.512678,-0.5433 -0.650242,-0.57272 -1.986154,-1.58742 -4.558437,-3.52782 -1.624724,-1.22561 -2.756868,-2.07286 -3.522829,-2.63304 -0.723159,-0.52888 -1.094947,-0.77172 -1.221638,-0.84352 -0.02516,0.0153 -0.03521,0.0156 -0.112789,0.0791 -0.23631,0.19321 -0.680753,0.61874 -1.4853,1.40147 -0.464331,0.45173 -0.888368,0.85604 -1.209919,1.15543 -0.160779,0.1497 -0.294548,0.27283 -0.398424,0.36464 -0.05195,0.0459 -0.0955,0.0832 -0.133297,0.11423 -0.03778,0.031 -0.05156,0.0491 -0.124507,0.0893 l -0.35448,0.19477 -0.161128,-0.3705 c -0.645753,-1.47079 -1.426733,-2.78043 -2.31291,-3.8866 l -0.09668,-0.11862 0.01904,-0.1523 c 0.06234,-0.53321 0.437434,-1.13212 1.524851,-2.94058 0.794238,-1.32088 1.19163,-1.98069 1.463328,-2.35041 0.135845,-0.18486 0.242602,-0.31151 0.396959,-0.39979 0.154355,-0.0883 0.323769,-0.0937 0.416002,-0.0937 0.09456,0 0.125632,0.0118 0.194817,0.0249 0.06918,0.0131 0.153626,0.0298 0.254874,0.0527 0.202495,0.0458 0.469406,0.11172 0.786594,0.19184 0.634375,0.16023 1.465552,0.38013 2.342205,0.62238 2.230414,0.61634 3.823432,1.04381 4.882156,1.30921 0.529355,0.13269 0.924815,0.22573 1.195272,0.2797 0.123804,0.0247 0.213975,0.0395 0.28124,0.0483 0.0097,-0.0236 0.01661,-0.0318 0.02783,-0.0776 0.04017,-0.16437 0.06885,-0.45474 0.06885,-0.8479 0,-0.0654 -0.0041,-0.0961 -0.0074,-0.12595 -0.01376,-0.005 -0.01004,-0.005 -0.03662,-0.0132 -0.75117,-0.23774 -3.173329,-0.94282 -5.491331,-1.60655 -1.159006,-0.33187 -2.293463,-0.65483 -3.187391,-0.90502 -0.875774,-0.24511 -1.51598,-0.41693 -1.693301,-0.45837 z"
		style="fill:#ffffff" />
	<path
		d="m 42.350441,8.002862 c -0.171922,0.0158 -0.329976,0.12073 -0.451168,0.24903 -0.1212,0.12829 -0.246877,0.30054 -0.423336,0.56689 -0.352934,0.53272 -0.904362,1.44569 -1.864741,3.03811 -0.411095,0.68164 -0.804476,1.32562 -1.105953,1.81495 -0.150734,0.24466 -0.278166,0.45095 -0.373536,0.60206 -0.0067,0.0108 -0.0052,0.009 -0.0117,0.019 -1.846095,-1.65427 -3.945877,-2.61483 -6.117164,-2.61623 h -0.0015 c -2.145606,0.009 -4.221004,0.9526 -6.049765,2.57667 -0.160727,-0.19693 -0.504488,-0.69138 -1.387201,-2.1709 -1.035168,-1.73504 -1.6153,-2.69656 -1.989251,-3.24612 -0.186976,-0.27478 -0.319254,-0.44853 -0.458494,-0.57715 -0.139241,-0.12862 -0.338566,-0.2124 -0.493651,-0.2124 -0.139676,0 -0.153621,0.0185 -0.249022,0.0396 -0.0954,0.0211 -0.217756,0.0489 -0.367675,0.0864 -0.299836,0.075 -0.706879,0.18214 -1.185054,0.31055 -0.95635,0.25683 -2.200968,0.60077 -3.454088,0.95362 -1.253121,0.35285 -2.513566,0.71523 -3.498034,1.00489 -0.492233,0.14483 -0.915908,0.27244 -1.236323,0.37207 -0.320415,0.0996 -0.507703,0.1556 -0.645994,0.21826 -0.266867,0.12092 -0.440975,0.38966 -0.503904,0.67384 -0.06293,0.28418 -0.0495,0.60266 0.01172,0.98584 l 0.133301,0.8379 0.744137,-0.0308 c 0.09054,-0.004 0.139204,-0.0168 0.231445,-0.0352 0.09224,-0.0184 0.208999,-0.0441 0.348632,-0.0762 0.279265,-0.0641 0.64999,-0.15557 1.091304,-0.2666 0.882629,-0.22207 2.041642,-0.52393 3.263659,-0.85548 1.219057,-0.33074 2.36769,-0.63716 3.237292,-0.86426 0.434802,-0.11355 0.800567,-0.20864 1.067867,-0.27539 0.267301,-0.0668 0.481802,-0.11062 0.455565,-0.10694 0.105578,-0.0148 0.147427,-0.0121 0.155273,-0.0102 0.0078,0.002 0.0185,-6.6e-4 0.0835,0.0659 0.130006,0.13316 0.385746,0.51861 0.842282,1.25538 0.689477,1.11269 1.22113,2.00206 1.584955,2.64992 0.181912,0.32393 0.322906,0.58892 0.418943,0.78662 0.06781,0.1396 0.08307,0.19004 0.104004,0.24756 -0.794274,1.01971 -1.476419,2.21454 -2.075676,3.50393 l -1.25976,-1.22169 c -0.458882,-0.44556 -0.899951,-0.86078 -1.245113,-1.17481 -0.172581,-0.15701 -0.320026,-0.28808 -0.436522,-0.38672 -0.05825,-0.0493 -0.1094,-0.0905 -0.153808,-0.12451 -0.04441,-0.034 -0.06204,-0.0564 -0.150878,-0.0967 -0.142481,-0.0646 -0.405994,-0.0883 -0.600584,-0.007 -0.194589,0.081 -0.379997,0.21034 -0.698728,0.43067 -0.979586,0.67715 -6.999751,5.23069 -8.1752616,6.18021 -0.6383308,0.51563 -0.9750982,0.78269 -1.1909137,1.05323 -0.1079066,0.13526 -0.1863765,0.28949 -0.2124014,0.44678 -0.026025,0.15728 -0.00667,0.29133 0.013185,0.41894 0.053887,0.34642 0.1157861,0.61449 0.2065425,0.83058 0.045382,0.10804 0.096876,0.20498 0.1831051,0.2959 0.086228,0.0909 0.2304816,0.17724 0.3911115,0.17724 0.2414038,0 0.3561976,-0.0903 0.577146,-0.22265 0.2209477,-0.13238 0.5174335,-0.33284 0.9404256,-0.63575 0.845987,-0.60583 2.194441,-1.61885 4.362289,-3.26662 1.623484,-1.23401 2.597292,-1.96873 3.181628,-2.38918 0.292168,-0.21022 0.488102,-0.34125 0.607908,-0.41308 0.04084,-0.0245 9e-4,-0.0118 0.02344,-0.0205 0.07953,0.064 0.191948,0.16226 0.323729,0.28271 0.269227,0.24608 0.614862,0.58294 0.958004,0.92725 0.343142,0.34432 0.683537,0.69664 0.937496,0.9756 0.12698,0.13947 0.233661,0.2607 0.304687,0.34863 0.0224,0.0277 0.03245,0.0435 0.04687,0.063 v 10e-4 c -0.0068,0.0541 -0.01588,0.12428 -0.0249,0.1919 -0.537061,1.67456 -0.892157,3.4711 -1.086911,5.31302 -0.08126,-0.0197 -0.194179,-0.0515 -0.329588,-0.0952 -0.274409,-0.0887 -0.635637,-0.22079 -1.025386,-0.37794 -0.380085,-0.15325 -0.732008,-0.28917 -1.000485,-0.38379 -0.13424,-0.0473 -0.248365,-0.0837 -0.338378,-0.10986 -0.045,-0.0131 -0.08181,-0.0239 -0.124511,-0.0322 -0.02135,-0.004 -0.04226,-0.008 -0.07764,-0.0102 -0.01769,-0.001 -0.03996,-0.002 -0.07325,10e-4 -0.01664,0.002 -0.03601,0.006 -0.06152,0.0132 -0.0255,0.007 -0.09459,0.0421 -0.09521,0.0425 -0.08233,0.0506 -0.07756,0.0589 -0.09229,0.0747 -0.01473,0.0158 -0.02635,0.031 -0.03956,0.0469 -0.02642,0.0318 -0.05709,0.0695 -0.09375,0.11719 -0.07334,0.0953 -0.170189,0.22736 -0.291503,0.39258 -0.242629,0.33044 -0.577469,0.79432 -0.974117,1.34913 -0.793296,1.10961 -1.835262,2.58222 -2.882801,4.07375 -1.047539,1.49153 -2.102095,3.00266 -2.9164934,4.18216 -0.4071997,0.58974 -0.7541087,1.09701 -1.0122037,1.4795 -0.2580942,0.38248 -0.4092719,0.60681 -0.4863259,0.75 -0.1199163,0.22285 -0.091936,0.40665 -0.061522,0.59473 0.030412,0.18808 0.089478,0.37988 0.1640618,0.56104 0.07458,0.18115 0.1629422,0.34791 0.2753892,0.49072 0.056227,0.0714 0.1164251,0.13882 0.2109367,0.19776 0.094512,0.0589 0.255869,0.11294 0.4189439,0.0601 0.1271223,-0.0412 0.1795523,-0.0956 0.2446281,-0.15528 0.065077,-0.0597 0.1310305,-0.1312 0.2109367,-0.22412 0.1598131,-0.18584 0.3710371,-0.45712 0.6650356,-0.85254 0.587999,-0.79084 1.504855,-2.07787 2.944326,-4.1221 1.727447,-2.45319 2.85121,-4.03914 3.552232,-5.00833 0.350511,-0.48459 0.595488,-0.81539 0.754392,-1.01954 0.04181,-0.0537 0.06125,-0.0739 0.09082,-0.10986 0.112484,0.0404 0.264675,0.10022 0.440916,0.17139 0.358261,0.14467 0.809925,0.33847 1.22314,0.52735 0.264057,0.12069 0.446179,0.21705 0.543455,0.28271 0.03819,0.0258 0.04821,0.0375 0.05566,0.0439 0.0053,2.20842 0.281045,4.38904 0.779294,6.45854 -0.06056,0.0191 -0.01497,0.005 -0.143554,0.0293 -0.301116,0.0568 -0.79481,0.13494 -1.577631,0.25635 -0.496866,0.0771 -0.965867,0.15252 -1.324214,0.2124 -0.179173,0.0299 -0.329942,0.0555 -0.443845,0.0762 -0.113904,0.0207 -0.151502,0.022 -0.250488,0.0527 -0.108095,0.0336 -0.232614,0.11371 -0.319334,0.2124 -0.08672,0.0987 -0.152619,0.21173 -0.22998,0.36475 -0.154724,0.30605 -0.351924,0.78281 -0.68115,1.60841 -1.142452,2.86478 -4.586856,11.97049 -5.185527,13.71102 -0.170434,0.49549 -0.271126,0.82169 -0.257811,1.14991 0.01331,0.32821 0.191361,0.6042 0.411619,0.82325 0.0772,0.0768 0.154037,0.14464 0.225585,0.20068 0.03578,0.028 0.06996,0.0533 0.109863,0.0776 0.03991,0.0243 0.03801,0.0733 0.235839,0.0733 -0.0068,0 0.09609,0.0193 0.22705,-0.0366 0.130963,-0.0559 0.20258,-0.14976 0.260741,-0.24024 0.116322,-0.18095 0.233945,-0.4471 0.468748,-1.021 0.469606,-1.1478 1.367632,-3.48817 3.225574,-8.31304 1.156174,-3.00245 1.744018,-4.52491 2.075675,-5.29251 0.165829,-0.3838 0.272591,-0.5779 0.325195,-0.65039 0.0526,-0.0725 0.0038,-0.0305 0.08203,-0.063 0.140569,-0.0584 0.611766,-0.16775 1.161617,-0.24903 0.549851,-0.0813 1.200866,-0.1479 1.801751,-0.17871 l 0.645994,-0.0337 c 2.134826,5.7936 6.120414,9.49666 10.558554,9.50543 h 0.0015 c 4.45037,-0.01 8.446288,-3.73084 10.57613,-9.55084 0.003,1.1e-4 0.0015,-1.3e-4 0.0045,0 0.114862,0.005 0.271416,0.016 0.451175,0.0322 0.359497,0.0324 0.817835,0.0842 1.275873,0.14356 0.458038,0.0593 0.916639,0.12619 1.278805,0.1875 0.181079,0.0307 0.338256,0.0595 0.455563,0.085 0.117307,0.0255 0.212317,0.0597 0.184567,0.0469 0.0354,0.0164 -0.0053,-0.0328 0.06593,0.0835 0.07072,0.11634 0.191594,0.37179 0.386721,0.83789 0.390253,0.93221 1.081421,2.71909 2.403793,6.15238 1.336135,3.46901 2.099947,5.44147 2.556148,6.58305 0.456201,1.14158 0.585748,1.44648 0.755855,1.66114 l 0.442391,0.55718 0.660642,-0.72217 c 0.110775,-0.12129 0.210562,-0.24305 0.288577,-0.35303 0.039,-0.055 0.07305,-0.10549 0.102539,-0.15967 0.02955,-0.0542 0.07328,-0.0792 0.07328,-0.25342 0,-0.0911 -0.01028,-0.0866 -0.01463,-0.10401 -0.0045,-0.0174 -0.0083,-0.0323 -0.0132,-0.0483 -0.0097,-0.0322 -0.021,-0.0695 -0.0366,-0.11572 -0.03127,-0.0925 -0.07623,-0.21937 -0.133304,-0.37793 -0.114165,-0.31713 -0.279231,-0.76136 -0.480463,-1.30225 -0.402456,-1.08178 -0.953929,-2.54504 -1.552734,-4.1221 -1.197596,-3.15412 -2.58179,-6.75863 -3.335433,-8.65581 -0.216981,-0.54623 -0.425855,-1.03712 -0.593262,-1.40187 -0.08371,-0.18237 -0.1557,-0.33215 -0.218257,-0.44824 -0.03128,-0.058 -0.05857,-0.10762 -0.08935,-0.15381 -0.03075,-0.0462 -0.01492,-0.0865 -0.183104,-0.17578 -0.08974,-0.0476 -0.104062,-0.0412 -0.147952,-0.0527 -0.04387,-0.0115 -0.09371,-0.0222 -0.153809,-0.0352 -0.120195,-0.0259 -0.277964,-0.0581 -0.464354,-0.0923 -0.372778,-0.0683 -0.861056,-0.14992 -1.379874,-0.22999 -0.824982,-0.1273 -1.337298,-0.20849 -1.640619,-0.2666 -0.06172,-0.0118 -0.07684,-0.0194 -0.121582,-0.0293 0.479938,-2.00375 0.747582,-4.11109 0.766107,-6.24759 3e-5,-0.003 0.0015,-0.006 0.0015,-0.009 0.02265,-0.11444 0.05123,-0.18257 0.05715,-0.20508 0.01147,-0.009 0.01965,-0.0157 0.03518,-0.0249 0.05452,-0.0322 0.136492,-0.0752 0.231449,-0.12305 0.189907,-0.0958 0.439401,-0.21204 0.698727,-0.3252 0.518646,-0.22631 1.127043,-0.44819 1.245108,-0.47168 0.01215,-0.002 0.01005,-0.002 0.01613,-0.003 -0.01193,-0.005 -0.02078,-0.0154 0.02197,0.0264 0.108824,0.10637 0.350181,0.41573 0.792477,1.00782 0.49499,0.66262 2.111669,2.91786 3.575671,4.98929 1.904775,2.69506 2.864787,4.05537 3.39403,4.73879 0.264629,0.34171 0.401983,0.51124 0.585935,0.63575 0.09198,0.0623 0.238439,0.12039 0.383788,0.0952 0.145357,-0.0252 0.219052,-0.0991 0.253417,-0.12744 0.161287,-0.13311 0.165614,-0.2103 0.216794,-0.32227 0.05115,-0.11198 0.09984,-0.24046 0.14502,-0.375 0.09012,-0.26918 0.171289,-0.51688 0.171289,-0.775 0,-0.18889 -0.04028,-0.18922 -0.06885,-0.24902 -0.02858,-0.0598 -0.0645,-0.1263 -0.109867,-0.20508 -0.09065,-0.15757 -0.218572,-0.36414 -0.385251,-0.62403 -0.333359,-0.51978 -0.818217,-1.2466 -1.434077,-2.14894 -1.231705,-1.80467 -2.987201,-4.31278 -5.087381,-7.26567 -0.421318,-0.59237 -0.810859,-1.14038 -1.098625,-1.54542 -0.287782,-0.40504 -0.498606,-0.70417 -0.484866,-0.68408 l -0.0015,-10e-4 c -4.72e-4,-6.9e-4 -0.0582,-0.0693 -0.08789,-0.0908 -0.0297,-0.0216 -0.05715,-0.0344 -0.08057,-0.0439 -0.0468,-0.0191 -0.07957,-0.0248 -0.105464,-0.0278 -0.05183,-0.006 -0.08034,-0.003 -0.106935,0 -0.05317,0.005 -0.09437,0.0149 -0.142087,0.0264 -0.09544,0.023 -0.208327,0.0561 -0.345704,0.10107 -0.274754,0.09 -0.636897,0.22251 -1.028321,0.37794 -0.380608,0.15112 -0.751894,0.28966 -1.038566,0.38818 -0.143347,0.0493 -0.266279,0.0872 -0.354493,0.11279 -0.01365,0.004 -7.5e-4,0.001 -0.01462,0.004 -0.192915,-1.88762 -0.575976,-3.715 -1.127921,-5.42727 7.35e-4,0.017 0.0045,-0.008 0.05715,-0.0864 0.06517,-0.098 0.165562,-0.23114 0.287106,-0.3794 0.243089,-0.29651 0.573043,-0.66001 0.912589,-1.00928 0.339554,-0.34928 0.68957,-0.68579 0.969724,-0.92725 0.140084,-0.12074 0.264621,-0.21751 0.351561,-0.27686 0.0052,-0.004 -0.0038,4e-5 0.0015,-0.003 0.05917,0.0393 0.125557,0.0821 0.227054,0.15381 0.255149,0.18022 0.640805,0.46196 1.174796,0.85694 1.067996,0.78996 2.728624,2.03464 5.135725,3.84963 0.862054,0.65 1.596054,1.18016 2.135737,1.54395 0.269834,0.1819 0.489448,0.32245 0.660642,0.41895 0.0856,0.0482 0.156907,0.0846 0.231442,0.11426 0.03727,0.0149 0.0747,0.0296 0.130372,0.0396 0.05565,0.01 0.145312,0.0386 0.291502,-0.0513 0.190176,-0.11689 0.178109,-0.19172 0.213869,-0.27246 0.03578,-0.0807 0.06577,-0.1689 0.09667,-0.27247 0.0618,-0.20714 0.123255,-0.46966 0.175785,-0.76172 0.02903,-0.16148 0.03555,-0.41788 -0.08789,-0.64746 -0.123524,-0.22959 -0.325191,-0.43864 -0.675289,-0.74708 -0.700213,-0.61688 -2.02812,-1.62259 -4.60106,-3.56398 -1.625912,-1.22682 -2.760905,-2.07472 -3.533184,-2.63967 -0.77228,-0.56494 -1.150931,-0.83433 -1.393068,-0.95801 -0.09439,-0.0482 -0.299931,-0.0815 -0.446773,-0.0308 -0.146834,0.0507 -0.253229,0.13027 -0.398436,0.24902 -0.290406,0.23751 -0.727752,0.66007 -1.533684,1.44435 -0.461166,0.44877 -0.880947,0.84845 -1.19677,1.14258 -0.0985,0.0917 -0.165892,0.15093 -0.241702,0.21973 -0.591965,-1.26439 -1.266205,-2.43322 -2.046382,-3.43654 0.03337,-0.17039 0.333943,-0.8231 1.387202,-2.57522 0.794149,-1.32106 1.20157,-1.99291 1.423825,-2.29542 0.111127,-0.15125 0.172236,-0.19761 0.169919,-0.19629 -0.0023,10e-4 -0.0357,0.004 0.04838,0.004 -0.05325,0 7.5e-4,0.001 0.05565,0.0117 0.05497,0.0104 0.133875,0.0266 0.229987,0.0483 0.192224,0.0435 0.457026,0.1083 0.770502,0.1875 0.62696,0.1584 1.452707,0.37714 2.324699,0.61817 2.232899,0.61719 3.828975,1.04691 4.899881,1.31544 0.535461,0.13426 0.938044,0.22727 1.230468,0.28564 0.146197,0.0292 0.264381,0.0496 0.363276,0.0615 0.0989,0.0119 0.154349,0.032 0.300291,-0.004 0.160087,-0.04 0.284662,-0.15208 0.358889,-0.26513 0.07425,-0.11306 0.116692,-0.23378 0.149414,-0.36768 0.0654,-0.2678 0.08935,-0.5978 0.08935,-1.02247 0,-0.1898 0.01763,-0.348 -0.102539,-0.54199 -0.12016,-0.19399 -0.305514,-0.2499 -0.455566,-0.29737 -0.785247,-0.24846 -3.19192,-0.94826 -5.512186,-1.61281 -1.160126,-0.33227 -2.295726,-0.65586 -3.191883,-0.90674 -0.896149,-0.25088 -1.531337,-0.42509 -1.762201,-0.47754 -0.05632,-0.0128 -0.132502,-0.0259 -0.222651,-0.0176 z m 0.09229,0.74415 c 0.177322,0.0414 0.81755,0.21332 1.693351,0.4585 0.893959,0.25026 2.028442,0.57331 3.187488,0.90527 2.318076,0.66393 4.740304,1.36921 5.491682,1.60695 0.02655,0.008 0.02287,0.008 0.0366,0.0132 0.003,0.0299 0.0075,0.0605 0.0075,0.12597 0,0.39328 -0.02865,0.68373 -0.06885,0.84815 -0.01125,0.0458 -0.01807,0.054 -0.02782,0.0776 -0.06727,-0.009 -0.157447,-0.0236 -0.281249,-0.0483 -0.270472,-0.054 -0.665968,-0.14705 -1.195338,-0.27978 -1.058756,-0.26548 -2.651817,-0.69306 -4.882301,-1.30958 -0.87668,-0.24232 -1.707886,-0.46228 -2.342279,-0.62256 -0.317196,-0.0801 -0.584113,-0.14609 -0.78662,-0.1919 -0.101249,-0.0229 -0.185706,-0.0396 -0.254879,-0.0527 -0.06922,-0.0131 -0.100259,-0.0249 -0.194826,-0.0249 -0.09223,0 -0.261652,0.006 -0.416009,0.0937 -0.154364,0.0883 -0.261126,0.21499 -0.396973,0.39991 -0.271709,0.36982 -0.66911,1.02982 -1.463372,2.35108 -1.087451,1.80898 -1.462562,2.40807 -1.524902,2.94143 l -0.01905,0.15234 0.09668,0.11866 c 0.886205,1.10648 1.667207,2.4165 2.312977,3.88771 l 0.161136,0.37061 0.354487,-0.19482 c 0.07297,-0.0403 0.08674,-0.0583 0.124514,-0.0894 0.0378,-0.031 0.08136,-0.0683 0.133297,-0.11426 0.103882,-0.0918 0.237652,-0.21501 0.398436,-0.36475 0.321561,-0.29948 0.745617,-0.7039 1.209963,-1.15577 0.804567,-0.78295 1.249023,-1.2086 1.485339,-1.40186 0.07758,-0.0635 0.08763,-0.0638 0.112792,-0.0791 0.126697,0.0718 0.498494,0.31472 1.221678,0.84375 0.765987,0.56034 1.898161,1.40784 3.522939,2.63381 2.572363,1.94096 3.90831,2.95595 4.558573,3.52883 0.325131,0.28644 0.470256,0.46457 0.512698,0.54346 0.04245,0.0789 0.03308,0.053 0.0117,0.17138 -0.045,0.25026 -0.09608,0.46357 -0.143557,0.62989 -0.135787,-0.0804 -0.296196,-0.17582 -0.515623,-0.32373 -0.521533,-0.35156 -1.248513,-0.8773 -2.10351,-1.52198 -2.407768,-1.8155 -4.069447,-3.06101 -5.141582,-3.85403 -0.536061,-0.39651 -0.923944,-0.6807 -1.187981,-0.86719 -0.132022,-0.0933 -0.230977,-0.16155 -0.307619,-0.21094 -0.03833,-0.0247 -0.0705,-0.0432 -0.104002,-0.0615 -0.01673,-0.009 -0.0348,-0.0187 -0.06007,-0.0293 -0.02528,-0.0106 -0.04252,-0.0322 -0.156734,-0.0322 -0.259499,0 -0.318479,0.0917 -0.443848,0.17725 -0.125377,0.0856 -0.264652,0.1964 -0.417479,0.32812 -0.305676,0.26346 -0.665352,0.60989 -1.016598,0.9712 -0.351254,0.36132 -0.692315,0.73711 -0.955077,1.05762 -0.131384,0.16026 -0.242451,0.30553 -0.329586,0.43653 -0.08714,0.13099 -0.161287,0.21283 -0.188962,0.41309 l -0.0117,0.0835 0.02782,0.0806 c 0.567831,1.72631 0.954432,3.58754 1.144038,5.50931 l 0.0045,0.041 0.0117,0.0366 c 0.04755,0.14468 0.09985,0.27517 0.228509,0.38525 0.128677,0.11009 0.302392,0.13184 0.392579,0.13184 0.158219,0 0.193439,-0.0275 0.300291,-0.0586 0.10686,-0.031 0.236024,-0.0742 0.386721,-0.12598 0.301387,-0.10357 0.681695,-0.24335 1.072256,-0.39843 0.379754,-0.15079 0.731217,-0.27891 0.984371,-0.36182 0.07425,-0.0243 0.115703,-0.0356 0.169927,-0.0513 0.07983,0.11291 0.147757,0.20766 0.353024,0.49658 0.287894,0.40521 0.677262,0.95298 1.098626,1.54542 2.098289,2.95022 3.851325,5.45577 5.078598,7.25395 0.61364,0.89909 1.096001,1.6225 1.422354,2.13136 0.163177,0.25443 0.287789,0.45589 0.367679,0.59473 0.03368,0.0585 0.05423,0.0983 0.07028,0.13037 -0.0076,0.0525 -0.0516,0.28657 -0.123052,0.49952 -0.01965,0.0585 -0.03833,0.10142 -0.05857,0.15381 -0.07125,-0.076 -0.09403,-0.0881 -0.240232,-0.27686 -0.50366,-0.65038 -1.473241,-2.0175 -3.377912,-4.71243 -1.465997,-2.07424 -3.071778,-4.31713 -3.585924,-5.0054 -0.44324,-0.59334 -0.665907,-0.89603 -0.867184,-1.09278 -0.100642,-0.0984 -0.213546,-0.18361 -0.355956,-0.2212 -0.142424,-0.0376 -0.266031,-0.0142 -0.344241,0.002 -0.337304,0.0671 -0.859384,0.28377 -1.397455,0.51856 -0.269039,0.1174 -0.52832,0.23912 -0.736812,0.34424 -0.10425,0.0526 -0.195299,0.10094 -0.272459,0.14649 -0.07716,0.0455 -0.127867,0.0634 -0.216802,0.16113 -0.151941,0.16686 -0.185954,0.33982 -0.228509,0.58448 v 0.001 10e-4 l -0.006,0.0293 v 0.0308 c -2.2e-5,0.004 3e-5,0.008 0,0.0117 -0.01582,2.21191 -0.290834,4.39986 -0.811519,6.45414 l -0.0498,0.19043 0.133297,0.14502 c 0.107175,0.11826 0.200189,0.14106 0.298829,0.17139 0.09863,0.0303 0.215444,0.0565 0.379394,0.0879 0.327898,0.0628 0.840551,0.14346 1.666981,0.27099 0.512668,0.0791 0.996086,0.16047 1.35937,0.22706 0.181649,0.0333 0.332128,0.0632 0.439453,0.0864 0.02678,0.006 0.04223,0.01 0.063,0.0147 0.0075,0.0128 0.0089,0.0163 0.01755,0.0322 0.04965,0.0921 0.119452,0.23344 0.199221,0.40723 0.159517,0.34756 0.363996,0.82867 0.577146,1.36524 0.749787,1.88749 2.135706,5.49354 3.332507,8.64556 0.598393,1.576 1.149783,3.03855 1.551264,4.1177 0.200737,0.53957 0.363584,0.9839 0.476068,1.29639 0.05625,0.15624 0.100372,0.28051 0.12891,0.36475 -0.006,0.009 -0.0078,0.0108 -0.01463,0.0205 -0.05527,0.078 -0.138585,0.1841 -0.229979,0.28418 l -0.04687,0.0498 c -0.05617,-0.0923 -0.175627,-0.3085 -0.581571,-1.32434 -0.452728,-1.13289 -1.215767,-3.10562 -2.551752,-6.57425 -1.32247,-3.43356 -2.011073,-5.21584 -2.411121,-6.17143 -0.200017,-0.47779 -0.324179,-0.74888 -0.437983,-0.93604 -0.113813,-0.18716 -0.277964,-0.31949 -0.385259,-0.36914 -0.116857,-0.0541 -0.204479,-0.0687 -0.339839,-0.0981 -0.135359,-0.0294 -0.299571,-0.0604 -0.48779,-0.0923 -0.376439,-0.0637 -0.842472,-0.13014 -1.3081,-0.19043 -0.465629,-0.0603 -0.931264,-0.1142 -1.305175,-0.14795 -0.186952,-0.0169 -0.350954,-0.0294 -0.484859,-0.0351 -0.133911,-0.006 -0.207516,-0.0176 -0.347166,0.0117 l -0.203616,0.0425 -0.06735,0.19629 c -2.037922,5.78515 -5.896193,9.29063 -9.99459,9.30034 -4.092243,-0.008 -7.94443,-3.5017 -9.985803,-9.27252 l -0.09229,-0.25928 -1.16601,0.0601 c -0.628115,0.0322 -1.29691,0.10103 -1.872064,0.18604 -0.575153,0.085 -1.031963,0.17191 -1.337397,0.29883 -0.09324,0.0387 -0.275525,0.14318 -0.396971,0.31055 -0.121446,0.16736 -0.231125,0.39023 -0.404295,0.79102 -0.346343,0.80158 -0.929713,2.31485 -2.08593,5.31741 -1.858003,4.82503 -2.759707,7.1734 -3.221179,8.30132 -0.180747,0.44178 -0.253155,0.58057 -0.31787,0.70606 -0.0014,-10e-4 -0.003,-0.002 -0.0044,-0.003 -0.169603,-0.16868 -0.191053,-0.20346 -0.196288,-0.33252 -0.0053,-0.12906 0.05588,-0.4055 0.219725,-0.88184 0.572488,-1.66441 4.041654,-10.83971 5.173809,-13.67879 0.327931,-0.82235 0.526409,-1.29732 0.653318,-1.54835 0.06295,-0.12451 0.108589,-0.18947 0.125975,-0.20948 -0.02188,0.008 0.04886,-0.0101 0.146485,-0.0278 0.108145,-0.0196 0.256479,-0.0451 0.433592,-0.0747 0.354225,-0.0592 0.822464,-0.13426 1.316889,-0.21094 0.784005,-0.12158 1.277972,-0.1998 1.601068,-0.26074 0.323096,-0.0609 0.463225,-0.0597 0.657712,-0.21387 l 0.186035,-0.14795 -0.0586,-0.22998 c -0.537637,-2.10968 -0.817556,-4.36231 -0.821774,-6.63578 v -10e-4 -0.0396 l -0.0029,-0.022 c -6.66e-4,-0.007 -0.002,-0.0175 -0.0029,-0.0278 -9.75e-4,-0.0103 -6.4e-4,-0.0212 -0.0015,-0.0308 -9e-4,-0.009 -0.0065,-0.0489 -0.0073,-0.0542 -0.04889,-0.23322 -0.20176,-0.35094 -0.36328,-0.45997 -0.16152,-0.10902 -0.367707,-0.21423 -0.648923,-0.34277 -0.42484,-0.19419 -0.883635,-0.39101 -1.253902,-0.54053 -0.185133,-0.0748 -0.349078,-0.13714 -0.477537,-0.18311 -0.06423,-0.023 -0.11866,-0.0409 -0.168456,-0.0557 -0.04979,-0.0148 -0.06062,-0.0337 -0.186035,-0.0337 -0.122327,0 -0.168605,0.0356 -0.202147,0.0557 -0.03354,0.02 -0.05185,0.038 -0.06885,0.0527 -0.03399,0.0294 -0.05722,0.0527 -0.08496,0.0835 -0.05548,0.0615 -0.120077,0.14276 -0.205078,0.25196 -0.170003,0.2184 -0.419194,0.55232 -0.77197,1.04004 -0.705553,0.97545 -1.827175,2.56169 -3.555161,5.01566 -1.438511,2.04286 -2.35574,3.32814 -2.9340719,4.10598 -0.2891659,0.38892 -0.4953267,0.65165 -0.6328101,0.81152 -0.00667,0.008 -0.0083,0.009 -0.014648,0.0161 -0.03504,-0.0604 -0.069892,-0.10674 -0.1025381,-0.18603 -0.05556,-0.13495 -0.098744,-0.28438 -0.117187,-0.39844 -0.013507,-0.0835 0.00173,-0.1487 -0.00292,-0.15235 0.024682,-0.0426 0.1881173,-0.30055 0.4350568,-0.6665 0.255512,-0.37866 0.601482,-0.8837 1.0078093,-1.47218 0.812654,-1.17696 1.865443,-2.68456 2.912098,-4.17483 1.046655,-1.49027 2.088549,-2.96397 2.879872,-4.07082 0.395661,-0.55343 0.727641,-1.01611 0.966793,-1.34181 0.107325,-0.14617 0.187926,-0.25254 0.253417,-0.33838 0.05888,0.0189 0.11012,0.0342 0.191894,0.063 0.253257,0.0893 0.599657,0.22081 0.971188,0.37061 0.403344,0.16262 0.775898,0.29929 1.073726,0.39551 0.148914,0.0481 0.279343,0.0862 0.389647,0.11279 0.110304,0.0266 0.169573,0.0553 0.331053,0.0366 0.161859,-0.0187 0.403268,-0.17069 0.490721,-0.33985 l 0.03223,-0.063 0.0073,-0.0688 c 0.184674,-1.88605 0.559419,-3.71534 1.108882,-5.41556 l 0.01025,-0.0308 0.0044,-0.0337 c 0.0082,-0.0629 0.02011,-0.14247 0.02929,-0.21533 0.0046,-0.0364 0.0077,-0.0704 0.01025,-0.10693 0.0025,-0.0365 0.01954,-0.049 -0.01025,-0.167 -0.03034,-0.12022 -0.06145,-0.14581 -0.09375,-0.19336 -0.03229,-0.0476 -0.06793,-0.0957 -0.111328,-0.14941 -0.08678,-0.10745 -0.201187,-0.23646 -0.333983,-0.38233 -0.26559,-0.29173 -0.608703,-0.64853 -0.958004,-0.99903 -0.3493,-0.35049 -0.703022,-0.69219 -0.985836,-0.95069 -0.141408,-0.12925 -0.265221,-0.23734 -0.367675,-0.31933 -0.05122,-0.041 -0.09525,-0.0743 -0.143554,-0.10547 -0.0483,-0.0312 -0.04501,-0.0894 -0.265135,-0.0894 -0.203472,0 -0.294304,0.0709 -0.449706,0.16406 -0.155401,0.0932 -0.359669,0.23274 -0.659177,0.44825 -0.599056,0.43104 -1.573258,1.16466 -3.197742,2.39942 -2.166527,1.64677 -3.512309,2.65986 -4.3432454,3.25491 -0.4154677,0.29752 -0.7050641,0.49147 -0.8920863,0.60351 -0.094829,0.0568 -0.06093,0.0436 -0.099609,0.0586 -0.046777,-0.12 -0.1014934,-0.32536 -0.1479482,-0.62402 -0.017212,-0.11077 -0.01833,-0.16377 -0.014647,-0.18604 0.00367,-0.0223 0.0051,-0.0406 0.061522,-0.11133 0.1128498,-0.14146 0.4434996,-0.42369 1.0795857,-0.9375 1.1116392,-0.89793 7.2674452,-5.55184 8.1298512,-6.14799 0.312076,-0.21572 0.496124,-0.32686 0.562498,-0.35449 0.002,-8.3e-4 0.0012,-6.7e-4 0.0029,-0.002 0.0055,0.004 0.009,0.004 0.01465,0.009 0.02892,0.0222 0.07188,0.058 0.12451,0.10254 0.105256,0.0891 0.248973,0.21583 0.41748,0.36914 0.337013,0.30661 0.773795,0.71813 1.227534,1.1587 h 0.0015 l 1.977532,1.91749 0.210937,-0.48926 c 0.653912,-1.50693 1.449152,-2.84601 2.353994,-3.97415 l 0.106934,-0.13476 -0.03369,-0.16553 c -0.03292,-0.1675 -0.09879,-0.31273 -0.205148,-0.53167 -0.106354,-0.21895 -0.253111,-0.4929 -0.439451,-0.82471 -0.37268,-0.66363 -0.908259,-1.55969 -1.601068,-2.67775 -0.458101,-0.73929 -0.691216,-1.1261 -0.940426,-1.38136 -0.124606,-0.12763 -0.27668,-0.22875 -0.440917,-0.26806 -0.164235,-0.0393 -0.305599,-0.0207 -0.432127,-0.003 -0.127907,0.0179 -0.258561,0.0552 -0.530271,0.12304 -0.271708,0.0679 -0.64027,0.16143 -1.076656,0.2754 -0.87277,0.22793 -2.023553,0.5359 -3.244617,0.86719 -1.218105,0.33048 -2.372546,0.63202 -3.249011,0.85254 -0.438233,0.11026 -0.807342,0.20001 -1.078121,0.26221 -0.135389,0.0311 -0.24616,0.0557 -0.326659,0.0718 -0.0805,0.016 -0.149076,0.0219 -0.115722,0.0205 l -0.08789,0.003 -0.03077,-0.18897 v -0.002 c -0.05254,-0.33 -0.0508,-0.57661 -0.0205,-0.71338 0.03035,-0.13705 0.05282,-0.14459 0.08936,-0.16114 0.0066,-0.003 0.245423,-0.0898 0.559568,-0.1875 0.314145,-0.0977 0.735991,-0.22348 1.22607,-0.36768 0.980158,-0.28839 2.236845,-0.64825 3.487779,-1.00049 1.250934,-0.35224 2.495079,-0.69658 3.446764,-0.95215 0.475842,-0.12779 0.879591,-0.23306 1.171871,-0.30616 0.146141,-0.0365 0.265062,-0.065 0.348632,-0.0835 0.06712,-0.0148 0.09291,-0.0162 0.07177,-0.0176 0.0034,0.004 -0.0032,6e-4 0.0088,0.0117 0.05685,0.0525 0.174585,0.19393 0.348632,0.44971 0.348092,0.51156 0.932967,1.47735 1.967277,3.21095 0.983598,1.64862 1.340448,2.25898 1.668451,2.56935 l 0.254882,0.2417 0.254881,-0.24316 c 1.795442,-1.71563 3.829298,-2.60597 5.894507,-2.61476 2.089972,10e-4 4.149292,0.90608 5.961892,2.65431 l 0.298829,0.28711 0.290039,-0.37793 c 0.05827,-0.0761 0.105855,-0.15565 0.203609,-0.31055 0.09776,-0.1549 0.224864,-0.36185 0.376469,-0.60791 0.303201,-0.49213 0.699665,-1.13889 1.111811,-1.82228 0.960138,-1.59202 1.513201,-2.50764 1.84716,-3.01174 0.166987,-0.25204 0.280724,-0.40014 0.342771,-0.46582 0.0078,-0.008 0.0037,-0.006 0.0075,-0.0102 z m -13.442825,16.50302 a 3.7499857,7.8750465 0 0 0 -3.749986,7.87505 3.7499857,7.8750465 0 0 0 3.749986,7.87505 3.7499857,7.8750465 0 0 0 3.082017,-3.41457 3.7499857,7.1250421 0 0 0 2.917961,2.66456 3.7499857,7.1250421 0 0 0 3.749986,-7.12504 3.7499857,7.1250421 0 0 0 -3.749986,-7.12504 3.7499857,7.1250421 0 0 0 -2.913566,2.65431 3.7499857,7.8750465 0 0 0 -3.086412,-3.40432 z m 1.199702,5.55033 a 0.82499685,1.8750111 0 0 1 0.515623,0.41455 0.74999714,0.75000443 0 0 0 -0.515623,0.71046 0.74999714,0.75000443 0 0 0 0.749997,0.75 0.74999714,0.75000443 0 0 0 0.07471,-0.004 0.82499685,1.8750111 0 0 1 0,0.001 0.82499685,1.8750111 0 0 1 0,10e-4 0.82499685,1.8750111 0 0 1 0,10e-4 0.82499685,1.8750111 0 0 1 -0.824705,1.87501 0.82499685,1.8750111 0 0 1 -0.824703,-1.87501 0.82499685,1.8750111 0 0 1 0.824703,-1.87501 z m 6.074686,0 a 0.82499685,1.8750111 0 0 1 0.517086,0.41309 0.74999714,0.75000443 0 0 0 -0.517086,0.71192 0.74999714,0.75000443 0 0 0 0.749997,0.75 0.74999714,0.75000443 0 0 0 0.07617,-0.006 0.82499685,1.8750111 0 0 1 0,0.002 0.82499685,1.8750111 0 0 1 0,0.001 0.82499685,1.8750111 0 0 1 0,10e-4 0.82499685,1.8750111 0 0 1 0,10e-4 0.82499685,1.8750111 0 0 1 -0.826167,1.87501 0.82499685,1.8750111 0 0 1 -0.824704,-1.87501 0.82499685,1.8750111 0 0 1 0.824704,-1.87501 z"
		style="fill:#000000" />
	<path
		d="m 92.608114,16.000912 c -0.565759,0.01157 -1.255835,0.132506 -2.089839,0.384813 L 86.847268,32.767778 83.923946,21.333325 c -0.11406,-4.151452 -2.87093,-6.098254 -7.008008,-4.9476 L 72.546276,32.495966 70.214358,22.081573 C 69.833254,18.358956 68.649838,14.840222 64,16.385725 l 5.708753,23.45529 h 5.233789 l 4.746569,-17.536494 3.232815,11.904782 c 0.514354,3.793239 2.047136,7.137923 6.649486,5.631712 l 4.403371,-17.789984 c 1.116476,-2.975278 1.688427,-6.112365 -1.366669,-6.050119 z m 119.767376,0.08552 c -1.92831,-0.07528 -2.61354,2.495026 -2.01017,5.020898 1.61502,5.958011 -4.02779,2.709708 -7.80166,3.851187 -7.13728,2.879251 -3.6141,16.108786 4.28692,14.818368 3.12202,-3.276677 4.32925,0.59097 7.76489,-0.274866 0.0532,-7.440808 -0.11406,-14.965094 0.10103,-22.358877 -0.91706,-0.712549 -1.69834,-1.03162 -2.34111,-1.05671 z m -51.02333,0.12522 c -3.27954,-0.08177 -6.54402,1.673589 -7.00188,5.427091 -2.27511,8.493895 9.16461,5.529973 10.65451,11.654346 -2.86703,7.376301 -7.61035,-3.150603 -11.57686,-1.230791 -0.22429,7.006764 8.4808,10.174672 13.538,5.970714 6.91629,-7.191171 -2.78165,-12.867835 -8.97221,-14.885558 0.74606,-7.904337 8.72386,3.907324 10.44306,-1.334629 -0.51004,-3.600046 -3.80508,-5.519411 -7.08462,-5.601173 z M 96.947133,16.385727 V 30.72155 c 0.537613,2.993461 -1.297771,7.34071 1.115399,9.284387 7.685298,1.002634 -0.02259,-10.430827 6.211298,-12.649975 8.42713,-0.790114 -1.37045,14.681461 7.53506,12.448405 1.82221,-0.517063 0.35568,-4.456923 0.82735,-6.379961 2.81266,-6.518869 -6.41304,-12.841936 -10.98237,-6.932748 V 16.385725 Z m 31.632557,1.921012 c -0.58406,-0.0248 -1.42363,0.193276 -2.62609,0.754356 -0.21481,2.765795 -0.17738,5.474076 -2.61382,6.224204 4.97189,3.257141 -1.18696,16.505044 7.97325,14.476312 4.93407,-3.683179 -3.7822,-2.953521 -1.45554,-7.528293 -2.16779,-4.563224 3.93295,-4.35241 2.82834,-8.029161 -5.24412,1.452872 -0.95227,-5.76352 -4.10614,-5.897418 z m -11.0743,0.390921 c -1.43554,-0.01794 -2.62328,0.970766 -1.73132,3.942811 h 2.50964 c 4.69593,-1.088293 1.61423,-3.912921 -0.77832,-3.942811 z m 75.30774,0.879574 c -1.43554,-0.01794 -2.62329,0.970766 -1.73133,3.94281 h 2.50965 c 4.69592,-1.088292 1.61423,-3.91292 -0.77832,-3.94281 z m -74.98906,4.248217 c -0.56663,-0.0028 -1.24276,0.114775 -2.05,0.378706 v 15.63686 h 4.70673 v -9.437091 c 0.24549,-3.031167 0.40307,-6.563248 -2.65673,-6.578475 z m 55.81892,0.06414 c -0.41326,0.01126 -0.87424,0.147847 -1.38812,0.470327 v 16.733273 c -0.0527,3.309829 -0.97922,8.250657 4.25628,6.56626 V 41.06265 c 1.02315,-0.685571 9.09084,1.691102 10.74643,-3.454157 4.07099,-6.22519 -3.35942,-17.60255 -10.25001,-11.626862 -0.29119,1.501136 -1.13302,-2.152571 -3.36458,-2.09204 z m -31.16373,0.0794 c -7.01639,-0.136541 -11.60205,10.62651 -4.36046,14.66261 3.68231,4.98353 17.46734,-3.304129 7.50441,-3.89089 -0.24481,1.437228 -1.75926,2.262718 -3.12863,2.140907 -4.77658,-0.540851 -3.25376,-5.685328 1.31152,-3.689322 7.88406,2.958999 8.19913,-6.428268 1.8018,-8.444515 -1.07415,-0.515801 -2.1263,-0.759283 -3.12864,-0.77879 z m 81.58337,0 c -7.01639,-0.136541 -11.60203,10.626505 -4.36046,14.66261 3.68232,4.983534 17.46735,-3.304137 7.50442,-3.89089 -0.24481,1.437231 -1.75925,2.262718 -3.12863,2.140907 -4.77658,-0.540842 -3.25375,-5.685333 1.31152,-3.689322 7.88404,2.958999 8.19913,-6.428271 1.80178,-8.444515 -1.07414,-0.515801 -2.12628,-0.759283 -3.12863,-0.77879 z m 17.65639,0.201569 c -3.39549,2.695138 -4.57838,-0.111929 -8.27662,0.378701 v 9.091979 c -0.20272,3.469972 -0.65322,7.881863 4.48611,6.199771 0.32354,-3.778152 -1.19752,-8.571913 1.73437,-11.544401 3.35609,1.318149 6.69629,-2.930146 2.05614,-4.126055 z m -48.58722,0.534463 c -0.56663,-0.0028 -1.24275,0.114775 -2.05,0.378706 v 15.63686 h 4.70673 v -9.437095 c 0.24549,-3.031168 0.40307,-6.563248 -2.65673,-6.578476 z m 13.62378,2.418827 c 0.14638,-0.0025 0.29596,0.0052 0.44739,0.02444 9.82614,2.567599 -4.0829,15.651235 -3.93453,4.504759 -0.29693,-2.084242 1.29101,-4.490456 3.48714,-4.529191 z m -62.89433,0.387867 c 1.27937,0.0091 2.30093,0.820926 2.01324,3.228157 h -2.97848 c -5.9086,0.625119 -1.84936,-3.248156 0.96524,-3.228157 z m 81.58337,0 c 1.27937,0.0091 2.30094,0.820926 2.01325,3.228157 h -2.97849 c -5.90859,0.625121 -1.84935,-3.248156 0.96524,-3.228157 z m -44.98055,0.38176 c 1.3561,0.05362 2.61111,0.872295 2.98154,2.742558 4.14905,6.76113 -8.66674,10.259868 -6.98043,2.021798 -0.80179,-2.820227 1.73873,-4.853727 3.99889,-4.764356 z"
		style="fill:#808080" />
</svg>