<?xml version="1.0" encoding="UTF-8" standalone="no"?>
<svg
	xmlns="http://www.w3.org/2000/svg"
	width="64"
	height="64"
	viewBox="0 0 64 64">
	<title>NettleWeb</title>
	<path
		d="M 0,7.4221773e-4 V 0.19800486 C 0,0.05469287 0.13802468,-0.00763459 0.37695217,7.4221773e-4 Z m 0.37695217,0 c 0.0150107,5.2640227e-4 0.0388893,0.006746662 0.0546893,0.007813332 0.0364,-0.00466667 0.0750493,-0.0068 0.11523335,-0.007813332 z M 0.43164147,0.00855555 C 0.21698398,0.03607288 0.0704853,0.12691953 0.01953236,0.26050485 0.12683771,0.81299319 1.9547543,3.4626331 3.0644483,4.6569209 3.6998524,5.3407609 4.1515258,6.0015528 4.0683524,6.1236954 3.9851794,6.2458421 3.564675,6.4149407 3.1347617,6.5006407 2.6140769,6.6044407 2.3535125,6.8009754 2.3535125,7.090478 c 0,0.5257986 1.8442373,2.693725 2.7499947,3.232372 0.6814001,0.405226 0.8419107,0.907994 0.3749987,1.169903 -0.1510867,0.08475 -0.8255961,0.224936 -1.4999962,0.312495 -0.8547627,0.110973 -1.2509681,0.281717 -1.3105441,0.562491 -0.052811,0.248893 0.7725428,1.196171 2.1601509,2.478477 2.5394736,2.346746 2.5350136,2.379613 -0.2675774,2.617146 -1.0671094,0.09044 -1.7814788,0.267459 -1.8632762,0.460931 -0.2801034,0.662501 1.7139362,2.821422 3.8144444,4.128842 l 0.8906228,0.552726 -0.5527334,0.404291 c -0.3033094,0.222916 -1.3231668,0.538144 -2.2636669,0.699207 -2.0259367,0.346954 -2.1449574,0.646344 -0.9160134,2.267542 0.7346547,0.969144 2.7717323,2.482385 3.3417897,2.482385 0.1362853,0 0.40166,0.167241 0.5898427,0.37304 0.4951507,0.541504 -0.085907,0.804127 -1.7890589,0.808581 -1.6509281,0.0044 -1.9198882,0.351091 -1.1484348,1.4824 0.7267241,1.065711 1.7951896,1.942269 3.1249937,2.564413 1.4324228,0.670155 1.1741015,1.002168 -1.3046855,1.685521 -0.9992187,0.275466 -1.8870042,0.668504 -1.9726522,0.87108 -0.2088293,0.493929 2.4658456,2.747992 4.6074125,3.882753 0.8999934,0.47688 1.5289694,0.927617 1.3964814,1.001936 -0.132493,0.07432 -1.1939454,0.409981 -2.3593695,0.744131 -1.1654268,0.334145 -2.1836589,0.699809 -2.2617149,0.814439 -0.3250627,0.477375 2.9815177,2.455904 5.2031134,3.113233 0.751151,0.222255 1.32617,0.535871 1.32617,0.722646 0,0.181496 -0.853537,0.748464 -1.89648,1.259745 -1.042943,0.511284 -1.8945271,1.070822 -1.8945271,1.244122 0,0.492583 3.0087541,1.747616 4.6347551,1.933564 0.807125,0.09231 1.512158,0.293905 1.568358,0.447257 0.0562,0.153352 -0.611409,0.736146 -1.484374,1.294903 -1.431401,0.9162 -1.547857,1.051824 -1.183591,1.382792 0.29212,0.265409 1.090294,0.389716 2.880854,0.44921 2.828614,0.09399 3.013122,0.269079 1.52734,1.453103 -1.327944,1.058233 -0.92496,1.31946 2.009762,1.294902 1.286385,-0.0108 2.339838,0.07265 2.339838,0.185544 0,0.112894 -0.178749,0.589848 -0.39453,1.058578 -0.215782,0.468726 -0.390624,0.892054 -0.390624,0.941392 0,0.04935 0.441012,0.08815 0.980467,0.08789 0.59127,-3.1e-4 1.593906,-0.295528 2.523432,-0.740224 1.534849,-0.734293 1.540135,-0.733353 1.355465,-0.175777 -0.393857,1.189166 -0.341246,1.276259 0.736327,1.216777 0.560351,-0.03093 1.421291,-0.270359 1.912106,-0.533195 1.224356,-0.655657 1.458634,-0.61361 1.253904,0.232419 -0.15515,0.64113 -0.108294,0.712878 0.472654,0.712878 0.354927,0 1.244613,-0.37504 1.976558,-0.832017 0.731949,-0.456976 1.391399,-0.830066 1.466795,-0.830066 0.0754,0 0.13867,0.37309 0.13867,0.830066 0,0.492893 0.128214,0.832017 0.316407,0.832017 0.174487,0 0.939011,-0.598468 1.69922,-1.328103 1.070264,-1.027244 1.417563,-1.241172 1.541003,-0.949204 0.256809,0.607417 0.70715,0.446572 1.947267,-0.70116 l 1.166007,-1.078109 0.458989,0.511709 c 0.578359,0.646978 0.927268,0.419752 2.025386,-1.322244 0.433598,-0.687844 1.016817,-1.305067 1.294917,-1.371073 0.278099,-0.06601 0.687939,-0.51532 0.910158,-0.998032 0.22222,-0.482715 0.538458,-0.837507 0.705069,-0.787096 0.401649,0.12152 1.618776,3.032177 2.562494,6.124905 0.598218,1.960463 0.730449,2.786883 0.617189,3.880799 -0.107387,1.037153 -0.051,1.446665 0.218749,1.601537 0.60013,0.344598 0.870259,0.106654 1.124998,-0.974594 0.18496,-0.785045 0.132146,-1.427867 -0.22461,-2.708943 -1.097437,-3.940883 -1.793736,-5.84602 -2.898433,-7.933468 -0.64529,-1.219361 -1.171868,-2.262728 -1.171868,-2.31637 0,-0.213854 0.986888,-0.05641 2.351555,0.371089 1.251497,0.392049 1.493757,0.404873 1.853516,0.109373 0.26356,-0.216486 0.992919,-0.33984 2.011716,-0.33984 1.574167,0 1.595376,-0.0087 1.546867,-0.640614 -0.0472,-0.614376 0.02751,-0.652664 1.718747,-0.910142 0.971208,-0.147858 1.843176,-0.340346 1.939445,-0.427728 0.09631,-0.08739 -0.0926,-0.418131 -0.419919,-0.734363 -0.32732,-0.316231 -0.523249,-0.682772 -0.433589,-0.81444 0.08971,-0.131667 0.794979,-0.405828 1.566407,-0.609367 0.771417,-0.203543 1.682636,-0.580029 2.023425,-0.835924 L 60.027214,44.6231 58.913937,44.220763 c -0.611379,-0.221759 -1.109368,-0.48965 -1.109368,-0.59374 0,-0.104094 0.761778,-0.51944 1.695306,-0.923815 0.933538,-0.40438 1.823037,-0.946053 1.974606,-1.203106 0.314829,-0.533927 0.132827,-0.636703 -1.296877,-0.746083 -1.286467,-0.09841 -1.258838,-0.513457 0.07809,-1.224589 2.720424,-1.446991 3.520943,-2.523399 1.878905,-2.523399 -0.494998,0 -0.974437,-0.11 -1.064446,-0.242184 -0.09,-0.132186 0.373438,-0.796066 1.029286,-1.476541 1.283838,-1.332032 2.101857,-2.662474 1.857427,-3.021435 -0.0834,-0.122547 -0.737858,-0.158924 -1.453127,-0.08203 -1.529917,0.164457 -1.567977,0.06611 -0.644529,-1.587865 0.653629,-1.170712 0.877648,-2.931937 0.4082,-3.195264 -0.13396,-0.07513 -0.689909,0.138051 -1.236328,0.474603 -1.165517,0.717877 -1.360807,0.49316 -0.660148,-0.76366 0.438419,-0.786428 1.095697,-2.973806 1.095697,-3.650334 0,-0.364746 -0.568978,-0.25907 -1.962885,0.363274 -0.71927,0.321134 -1.587478,0.587738 -1.929687,0.591788 -0.593508,0.0071 -0.615539,-0.04661 -0.455068,-1.144513 0.121987,-0.834672 0.0252,-1.576613 -0.357429,-2.70113 -0.54189,-1.592379 -1.282498,-2.511849 -1.515618,-1.882783 -0.199669,0.538789 -2.526684,3.220878 -2.804684,3.232372 -0.14385,0.006 -0.29847,-0.311421 -0.343748,-0.703115 -0.261211,-2.259966 -2.040696,-6.050687 -2.839835,-6.050687 -0.18015,0 -0.655728,0.604816 -1.056638,1.345682 -0.400918,0.74087 -0.841428,1.334674 -0.980468,1.318339 -0.139049,-0.01635 -0.402398,-0.625889 -0.583988,-1.351541 -0.463369,-1.851776 -1.561177,-3.689396 -2.205065,-3.689396 -0.117867,0 -0.38453,0.295235 -0.591799,0.654285 -0.42619,0.738302 -1.389078,1.722631 -1.685547,1.722631 -0.10824,0 -0.387169,-0.741779 -0.621089,-1.64646 -0.466496,-1.804106 -1.134244,-2.798203 -2.304682,-3.425727 L 38.464723,9.6841977 37.687384,11.236907 c -0.426579,0.853885 -0.938458,1.55271 -1.138667,1.55271 -0.20022,0 -0.649787,-0.551064 -0.998045,-1.226544 -0.691979,-1.342135 -2.264011,-2.5702726 -3.289055,-2.5702726 -0.541019,0 -0.61328,0.11136 -0.61328,0.9335813 0,1.6532473 -0.814104,2.8152753 -1.216794,1.7362993 -0.813632,-2.1800553 -2.799169,-4.8065657 -3.632806,-4.8065657 -0.188497,0 -0.639729,0.5885133 -1.00195,1.3066199 -0.362223,0.7181052 -0.769431,1.3046678 -0.906248,1.3046678 -0.136815,0 -0.624979,-0.5304546 -1.083983,-1.1796705 -0.908883,-1.2855252 -2.43057,-2.6171464 -2.990229,-2.6171464 -0.19912,0 -0.480869,0.4643507 -0.648436,1.0683426 -0.170242,0.6136293 -0.449009,1.0663905 -0.654294,1.0663905 -0.19656,0 -0.69467,-0.6048719 -1.10742,-1.3456825 C 17.255694,4.394729 14.934696,3.0850051 14.695247,4.3659196 14.445145,5.7038328 14.06836,6.61979 13.765561,6.61979 c -0.186476,0 -1.15382,-0.8664852 -2.148432,-1.9237971 C 10.622518,3.638681 9.611541,2.6770785 9.3690863,2.5593073 8.7199356,2.2439863 8.1073702,2.3010513 8.1073702,2.6745412 c 0,0.1798573 -0.171872,0.4543772 -0.3828121,0.6132706 C 7.4117514,3.5234557 7.1365181,3.4245757 6.2226366,2.7468065 4.3775351,1.3783893 1.5057379,0.08077447 0.43164004,0.00855461 Z M 0.0195329,0.26050485 C 0.0163329,0.24378085 3.56e-6,0.21075152 3.56e-6,0.19800619 v 0.15234145 c 0.002,-0.0319467 0.0088,-0.061648 0.01952934,-0.0898428 z"
		style="fill:#004080" />
	<path
		d="m 16,24 v 16 h 2.88492 V 29.564583 L 25.077382,40 h 3.113093 V 24 h -2.88492 V 34.683334 L 19.017857,24 Z m 13.714286,0 3.327381,16 h 3.049604 L 38.857143,28.037499 41.630952,40 h 2.984127 L 48,24 H 45.166666 L 43.029762,35.174999 40.587301,24 H 37.242064 L 34.69246,34.989582 32.595239,24 Z"
		style="fill:#ffffff" />
</svg>