<?xml version="1.0" encoding="UTF-8" standalone="no"?>
<svg
   height="48"
   viewBox="0 0 48 48"
   width="48"
   version="1.1"
   id="svg4"
   sodipodi:docname="menu.svg"
   inkscape:version="1.2.2 (b0a8486541, 2022-12-01)"
   xmlns:inkscape="http://www.inkscape.org/namespaces/inkscape"
   xmlns:sodipodi="http://sodipodi.sourceforge.net/DTD/sodipodi-0.dtd"
   xmlns="http://www.w3.org/2000/svg"
   xmlns:svg="http://www.w3.org/2000/svg">
  <defs
     id="defs8" />
  <sodipodi:namedview
     id="namedview6"
     pagecolor="#ffffff"
     bordercolor="#666666"
     borderopacity="1.0"
     inkscape:showpageshadow="2"
     inkscape:pageopacity="0.0"
     inkscape:pagecheckerboard="true"
     inkscape:deskcolor="#d1d1d1"
     showgrid="false"
     inkscape:zoom="12.536414"
     inkscape:cx="33.422636"
     inkscape:cy="24.289243"
     inkscape:window-width="1920"
     inkscape:window-height="1029"
     inkscape:window-x="0"
     inkscape:window-y="27"
     inkscape:window-maximized="1"
     inkscape:current-layer="svg4" />
  <path
     d="M 23.9929,40 Q 23,40 22.3,39.2929 q -0.7,-0.70705 -0.7,-1.7 0,-0.9929 0.7071,-1.6929 0.70705,-0.7 1.7,-0.7 0.9929,0 1.6929,0.7071 0.7,0.70705 0.7,1.7 0,0.9929 -0.7071,1.6929 -0.70705,0.7 -1.7,0.7 z m 0,-13.6 Q 23,26.4 22.3,25.6929 21.6,24.98585 21.6,23.9929 21.6,23 22.3071,22.3 q 0.70705,-0.7 1.7,-0.7 0.9929,0 1.6929,0.7071 0.7,0.70705 0.7,1.7 0,0.9929 -0.7071,1.6929 -0.70705,0.7 -1.7,0.7 z m 0,-13.6 Q 23,12.8 22.3,12.0929 21.6,11.38585 21.6,10.3929 21.6,9.4 22.3071,8.7 23.01415,8 24.0071,8 25,8 25.7,8.7071 q 0.7,0.70705 0.7,1.7 0,0.9929 -0.7071,1.6929 -0.70705,0.7 -1.7,0.7 z"
     id="path2"
     style="stroke-width:0.05;fill:#333333" />
</svg>
