<?xml version="1.0" encoding="UTF-8" standalone="no"?>
<svg
	xmlns="http://www.w3.org/2000/svg"
	width="48"
	height="48"
	viewBox="0 0 48 48">
	<path
		d="M 2,46 5.9,32.6 Q 4.95,30.55 4.475,28.4 4,26.25 4,24 4,19.85 5.575,16.2 7.15,12.55 9.85,9.85 12.55,7.15 16.2,5.575 19.85,4 24,4 q 4.15,0 7.8,1.575 3.65,1.575 6.35,4.275 2.7,2.7 4.275,6.35 Q 44,19.85 44,24 q 0,4.15 -1.575,7.8 -1.575,3.65 -4.275,6.35 -2.7,2.7 -6.35,4.275 Q 28.15,44 24,44 21.75,44 19.6,43.525 17.45,43.05 15.4,42.1 Z m 5.9,-5.9 6.4,-1.9 Q 15,38 15.725,38.05 16.45,38.1 17.1,38.4 18.7,39.2 20.45,39.6 22.2,40 24,40 30.7,40 35.35,35.35 40,30.7 40,24 40,17.3 35.35,12.65 30.7,8 24,8 17.3,8 12.65,12.65 8,17.3 8,24 8,25.8 8.4,27.55 8.8,29.3 9.6,30.9 9.95,31.55 9.975,32.275 10,33 9.8,33.7 Z M 22,32 h 4 v -6 h 6 v -4 h -6 v -6 h -4 v 6 h -6 v 4 h 6 z m 1.95,-7.95 z"
		style="fill:#303030" />
</svg>