<?xml version="1.0" encoding="UTF-8" standalone="no"?>
<svg
   height="48"
   viewBox="0 0 48 48"
   width="48"
   version="1.1"
   id="svg3963"
   sodipodi:docname="new-topic.svg"
   inkscape:version="1.2.2 (b0a8486541, 2022-12-01)"
   xmlns:inkscape="http://www.inkscape.org/namespaces/inkscape"
   xmlns:sodipodi="http://sodipodi.sourceforge.net/DTD/sodipodi-0.dtd"
   xmlns="http://www.w3.org/2000/svg"
   xmlns:svg="http://www.w3.org/2000/svg">
  <defs
     id="defs3967" />
  <sodipodi:namedview
     id="namedview3965"
     pagecolor="#ffffff"
     bordercolor="#666666"
     borderopacity="1.0"
     inkscape:showpageshadow="2"
     inkscape:pageopacity="0.0"
     inkscape:pagecheckerboard="true"
     inkscape:deskcolor="#d1d1d1"
     showgrid="false"
     inkscape:zoom="12.536414"
     inkscape:cx="23.451682"
     inkscape:cy="21.936098"
     inkscape:window-width="1920"
     inkscape:window-height="1030"
     inkscape:window-x="0"
     inkscape:window-y="27"
     inkscape:window-maximized="1"
     inkscape:current-layer="svg3963" />
  <rect
     style="fill:#ffffff;stroke-width:3;paint-order:markers fill stroke"
     id="rect162"
     width="48"
     height="48"
     x="0"
     y="0" />
  <path
     id="rect3981"
     style="fill:#005a5a;stroke-width:3;paint-order:markers fill stroke"
     d="M 0 0 L 0 48 L 48 48 L 48 0 L 0 0 z M 24.572266 12 C 26.153216 12 27.638822 12.300391 29.029297 12.900391 C 30.419771 13.50039 31.627679 14.31518 32.65625 15.34375 C 33.68482 16.37232 34.49961 17.580228 35.099609 18.970703 C 35.699609 20.361177 36 21.846783 36 23.427734 C 36 25.008685 35.699609 26.494291 35.099609 27.884766 C 34.49961 29.27524 33.68482 30.485101 32.65625 31.513672 C 31.627679 32.542242 30.419771 33.357031 29.029297 33.957031 C 27.638822 34.557031 26.153216 34.857422 24.572266 34.857422 C 23.715123 34.857422 22.875687 34.766889 22.056641 34.585938 C 21.237594 34.404985 20.437202 34.133388 19.65625 33.771484 L 12 36 L 14.228516 28.34375 C 13.866611 27.562799 13.595014 26.762407 13.414062 25.943359 C 13.233111 25.124312 13.142578 24.284877 13.142578 23.427734 C 13.142578 21.846783 13.442969 20.361178 14.042969 18.970703 C 14.642967 17.580229 15.457758 16.37232 16.486328 15.34375 C 17.514898 14.31518 18.724759 13.50039 20.115234 12.900391 C 21.505709 12.300391 22.991315 12 24.572266 12 z M 23.427734 18.857422 L 23.427734 22.285156 L 20 22.285156 L 20 24.572266 L 23.427734 24.572266 L 23.427734 28 L 25.714844 28 L 25.714844 24.572266 L 29.142578 24.572266 L 29.142578 22.285156 L 25.714844 22.285156 L 25.714844 18.857422 L 23.427734 18.857422 z " />
</svg>
