<?xml version="1.0" encoding="UTF-8" standalone="no"?>
<svg
	xmlns="http://www.w3.org/2000/svg"
	width="400"
	height="300"
	viewBox="0 0 400 300">
	<rect
		x="0"
		y="0"
		width="400"
		height="300"
		style="fill:#f0f8ff" />
	<path
		d="m 100,50.002319 v 0.616447 c 0,-0.44785 0.43131,-0.642625 1.17797,-0.616447 z m 1.17797,0 c 0.0469,0.0016 0.12156,0.02094 0.17094,0.02437 0.11375,-0.01469 0.23468,-0.02125 0.36009,-0.02437 z m 0.17094,0.02437 c -0.67082,0.086 -1.1286,0.369888 -1.28785,0.787341 0.33535,1.726525 6.04756,10.00665 9.51537,13.7388 1.98563,2.137 3.39713,4.201975 3.13719,4.583669 -0.26,0.381709 -1.574,0.910144 -2.91747,1.177956 -1.62712,0.324375 -2.4414,0.938544 -2.4414,1.843241 0,1.643122 5.76325,8.41789 8.59374,10.101162 2.12938,1.266332 2.63097,2.837482 1.17188,3.655947 -0.47216,0.264844 -2.58,0.702925 -4.6875,0.976547 -2.67112,0.346791 -3.90928,0.880366 -4.09544,1.757785 -0.165,0.77779 2.41419,3.738034 6.75047,7.74524 7.93584,7.333573 7.9219,7.436283 -0.83619,8.178573 -3.33471,0.28263 -5.56712,0.83581 -5.82274,1.44041 -0.87532,2.07032 5.35606,8.81696 11.92015,12.90263 l 2.78318,1.72728 -1.72728,1.2634 c -0.94784,0.69662 -4.1349,1.68171 -7.07396,2.18502 -6.33106,1.08424 -6.703,2.01983 -2.86253,7.08607 2.29578,3.02858 8.66165,7.75746 10.44309,7.75746 0.42587,0 1.25518,0.52262 1.84325,1.16575 1.54734,1.69221 -0.26844,2.51289 -5.59081,2.52682 -5.15916,0.0137 -5.99966,1.09716 -3.58885,4.63249 2.271,3.33036 5.60994,6.0696 9.76559,8.01379 4.47632,2.09425 3.66907,3.13178 -4.07715,5.26726 -3.12256,0.86083 -5.89687,2.08907 -6.16453,2.72212 -0.65259,1.54353 7.70578,8.58748 14.39815,12.1336 2.8125,1.49025 4.77803,2.89881 4.36403,3.13105 -0.41406,0.23225 -3.73109,1.28119 -7.37303,2.32541 -3.64196,1.04421 -6.82393,2.18691 -7.06787,2.54513 -1.01581,1.49179 9.31725,7.6747 16.25971,9.72885 2.34738,0.69455 4.14428,1.6746 4.14428,2.25827 0,0.56717 -2.66728,2.33895 -5.92649,3.9367 -3.25919,1.59776 -5.92038,3.34632 -5.92038,3.88788 0,1.53932 9.40234,5.46131 14.48359,6.0424 2.52228,0.28844 4.7255,0.91847 4.90112,1.39769 0.17563,0.47922 -1.91065,2.30044 -4.63865,4.04656 -4.47312,2.86313 -4.83706,3.28694 -3.69872,4.32122 0.91288,0.82941 3.40716,1.21788 9.00266,1.40378 8.8394,0.29375 9.41599,0.84088 4.77293,4.54097 -4.14981,3.30697 -2.8905,4.12331 6.2805,4.04656 4.01997,-0.0338 7.312,0.22688 7.312,0.57982 0,0.35282 -0.5586,1.84328 -1.23291,3.30807 -0.67431,1.46477 -1.22069,2.78765 -1.22069,2.94184 0,0.15438 1.37816,0.27531 3.06394,0.27469 1.84772,-9.7e-4 4.98097,-0.92353 7.88572,-2.31319 4.7964,-2.29469 4.81293,-2.29175 4.23584,-0.54931 -1.23081,3.71616 -1.06641,3.98831 2.30103,3.80244 1.75109,-0.0966 4.44153,-0.84488 5.97531,-1.66625 3.82612,-2.04891 4.55825,-1.91753 3.91847,0.72631 -0.48485,2.00353 -0.33844,2.22775 1.47703,2.22775 1.10915,0 3.8894,-1.172 6.17675,-2.60006 2.28734,-1.42803 4.34812,-2.59394 4.58371,-2.59394 0.23563,0 0.43335,1.16591 0.43335,2.59394 0,1.54031 0.40069,2.60006 0.98878,2.60006 0.54528,0 2.9344,-1.87022 5.31006,-4.15031 3.34456,-3.21016 4.42987,-3.87869 4.81562,-2.96628 0.80253,1.89818 2.20985,1.39553 6.08522,-2.19113 l 3.64378,-3.36909 1.43434,1.59909 c 1.80735,2.02181 2.89769,1.31172 6.32931,-4.132 1.355,-2.14953 3.17756,-4.07834 4.04663,-4.28459 0.86906,-0.20625 2.14981,-1.61038 2.84425,-3.11888 0.69443,-1.50847 1.68265,-2.61719 2.20334,-2.45965 1.25512,0.37975 5.05865,9.47553 8.00778,19.14031 1.86943,6.12647 2.28265,8.70903 1.92872,12.1275 -0.3356,3.24109 -0.15938,4.52084 0.68359,5.00481 1.87541,1.07687 2.71956,0.33328 3.51562,-3.04563 0.578,-2.45325 0.41294,-4.46207 -0.7019,-8.46544 -3.4295,-12.31525 -5.60544,-18.26881 -9.05762,-24.7921 -2.01654,-3.8105 -3.6621,-7.07102 -3.6621,-7.23865 0,-0.6683 3.08403,-0.17629 7.34863,1.15965 3.91093,1.22516 4.66799,1.26525 5.79224,0.34182 0.82363,-0.67653 3.10288,-1.062 6.2866,-1.062 4.91927,0 4.98556,-0.0281 4.83396,-2.00195 -0.1475,-1.91992 0.0859,-2.03957 5.37109,-2.84419 3.035,-0.46206 5.75991,-1.06358 6.06075,-1.33665 0.30094,-0.2731 -0.28937,-1.30665 -1.31225,-2.29489 -1.02287,-0.98822 -1.63515,-2.13366 -1.35497,-2.54512 0.28032,-0.41146 2.48432,-1.26822 4.89503,-1.90428 2.41069,-0.63607 5.25825,-1.81259 6.32319,-2.61226 l 1.93481,-1.4526 -3.47897,-1.25731 c -1.91056,-0.69299 -3.46678,-1.53015 -3.46678,-1.85543 0,-0.3253 2.38057,-1.62326 5.29785,-2.88694 2.91728,-1.26367 5.69696,-2.95641 6.17062,-3.7597 0.98384,-1.66852 0.41509,-1.9897 -4.05275,-2.33151 -4.02019,-0.30753 -3.93384,-1.60455 0.24406,-3.82684 8.50134,-4.52185 11.00297,-7.88562 5.87159,-7.88562 -1.54687,0 -3.04512,-0.34375 -3.3264,-0.75683 -0.28125,-0.41308 1.167,-2.48771 3.21653,-4.61419 4.012,-4.1626 6.56831,-8.32023 5.80447,-9.44198 -0.26063,-0.38296 -2.30582,-0.49664 -4.54103,-0.25635 -4.781,0.51393 -4.89994,0.2066 -2.01416,-4.96208 2.04259,-3.65847 2.74266,-9.1623 1.27563,-9.9852 -0.41863,-0.23478 -2.15597,0.43141 -3.86353,1.48314 -3.64222,2.24336 -4.2525,1.54112 -2.06297,-2.38644 1.37006,-2.45759 3.42406,-9.29314 3.42406,-11.40729 0,-1.13983 -1.77806,-0.8096 -6.134,1.13523 -2.24772,1.00354 -4.96087,1.83668 -6.03028,1.84934 -1.85472,0.0222 -1.92356,-0.14566 -1.42209,-3.57661 0.38122,-2.60835 0.0788,-4.92691 -1.11697,-8.44103 -1.69341,-4.97618 -4.00781,-7.84953 -4.73631,-5.8837 -0.62394,1.68372 -7.89587,10.06525 -8.76462,10.10117 -0.44953,0.0187 -0.93272,-0.97319 -1.07422,-2.19724 -0.81628,-7.06239 -6.37716,-18.90839 -8.87447,-18.90839 -0.56297,0 -2.04915,1.89005 -3.302,4.20525 -1.25287,2.31522 -2.62946,4.17086 -3.06396,4.11981 -0.43454,-0.0511 -1.2575,-1.9559 -1.82497,-4.22356 -1.44803,-5.7868 -4.87866,-11.529362 -6.89081,-11.529362 -0.36835,0 -1.20166,0.922609 -1.84938,2.04464 -1.33184,2.307194 -4.34087,5.383222 -5.26734,5.383222 -0.33825,0 -1.20991,-2.318059 -1.9409,-5.145187 -1.45779,-5.637832 -3.5445,-8.744385 -7.20213,-10.705397 l -2.3865,-1.281694 -2.42918,4.852216 c -1.33307,2.66839 -2.93266,4.852219 -3.55831,4.852219 -0.62569,0 -2.0306,-1.722075 -3.11891,-3.832951 -2.16244,-4.194171 -7.07503,-8.032103 -10.27828,-8.032103 -1.69068,0 -1.9165,0.348 -1.9165,2.917444 0,5.166397 -2.54409,8.797735 -3.8025,5.425934 -2.54259,-6.812671 -8.7474,-15.020518 -11.35249,-15.020518 -0.58906,0 -1.99916,1.839106 -3.1311,4.083187 -1.13196,2.244078 -2.40446,4.077088 -2.83203,4.077088 -0.42756,0 -1.95306,-1.657672 -3.38743,-3.686469 -2.84028,-4.017269 -7.59553,-8.178585 -9.34447,-8.178585 -0.62225,0 -1.50272,1.451097 -2.02637,3.338572 -0.532,1.917591 -1.40316,3.332469 -2.04466,3.332469 -0.61425,0 -2.17084,-1.890225 -3.46068,-4.205256 -3.59528,-6.452838 -10.84838,-10.545725 -11.59666,-6.542866 -0.78159,4.180978 -1.95903,7.043344 -2.90528,7.043344 -0.58272,0 -3.60568,-2.707766 -6.71384,-6.011866 -3.10815,-3.3041 -6.26746,-6.309106 -7.02512,-6.677144 -2.02859,-0.985378 -3.94287,-0.80705 -3.94287,0.360107 0,0.562056 -0.5371,1.419928 -1.19629,1.916472 -0.97753,0.736387 -1.83762,0.427387 -4.69349,-1.690641 -5.76594,-4.276306 -14.74031,-8.331353 -18.09687,-8.557038 z m -1.28785,0.787341 C 100.05103,50.761816 100,50.658601 100,50.618769 v 0.476069 c 0.006,-0.09984 0.0281,-0.192656 0.0609,-0.28075 z" 
		style="fill:#d0e0f0" />
	<path
		d="m 191.42969,105 c -0.86329,0 -1.60381,0.22563 -2.2168,0.67383 -0.60788,0.44822 -1.07347,1.10161 -1.40039,1.96289 -0.32181,0.85247 -0.48437,1.7735 -0.48438,2.75781 0,1.52918 0.34555,2.82332 1.03516,3.88672 0.49039,0.75581 1.34481,1.3936 2.56055,1.91211 0.94502,0.40427 1.54882,0.68556 1.81445,0.84375 0.38822,0.2373 0.65926,0.51858 0.8125,0.84375 0.15835,0.31638 0.23828,0.70315 0.23828,1.16016 0,0.71184 -0.18763,1.33696 -0.56054,1.87304 -0.3678,0.52732 -0.91602,0.79102 -1.64649,0.79102 -0.68961,0 -1.23978,-0.29887 -1.64844,-0.89649 -0.40354,-0.5976 -0.66991,-1.53622 -0.80273,-2.81054 l -2.20703,0.36914 c 0.14814,2.16195 0.60215,3.81159 1.36328,4.94531 0.76112,1.12491 1.85141,1.6875 3.27148,1.6875 0.97568,0 1.79146,-0.23537 2.44532,-0.70117 0.65385,-0.47459 1.15999,-1.19538 1.51757,-2.16211 0.35757,-0.96673 0.53516,-2.00399 0.53516,-3.11133 0,-1.22159 -0.15174,-2.24225 -0.45312,-3.06836 -0.29629,-0.8349 -0.70899,-1.49222 -1.24024,-1.9668 -0.52615,-0.48336 -1.33998,-0.94827 -2.44336,-1.39648 -1.10337,-0.44821 -1.79792,-0.87992 -2.08398,-1.29297 -0.22475,-0.32519 -0.33789,-0.71292 -0.33789,-1.16992 0,-0.50094 0.11929,-0.90433 0.35937,-1.20313 0.3729,-0.4658 0.88793,-0.69531 1.54688,-0.69531 0.63853,0 1.11885,0.21878 1.43554,0.6582 0.32184,0.43062 0.52991,1.14363 0.62696,2.13672 l 2.26758,-0.17382 c -0.0358,-1.77527 -0.41181,-3.19246 -1.12696,-4.25586 C 193.89737,105.53426 192.83955,105 191.42969,105 Z M 136.375,105.33203 132,124.6582 h 2.40625 l 0.92578,-4.39258 h 4.49024 l 0.98046,4.39258 h 2.4668 l -4.49609,-19.32617 z m 15.73047,0 2.68164,19.32617 h 2.45898 l 2.23047,-14.44922 2.23828,14.44922 h 2.40625 l 2.72657,-19.32617 h -2.28321 l -1.72461,13.49805 -1.96875,-13.49805 h -2.69726 l -2.05274,13.27344 -1.69531,-13.27344 z m 18.26758,0 -4.37696,19.32617 h 2.40625 l 0.92774,-4.39258 h 4.49023 l 0.98242,4.39258 h 2.4668 l -4.5,-19.32617 z m 5.49218,0 4.11719,11.18945 v 8.13672 h 2.25781 v -8.10937 l 4.13086,-11.2168 h -2.61328 l -2.58984,7.64453 -2.64258,-7.64453 z m 25.6543,0 v 3.26953 h 3.33399 v 16.05664 h 2.26757 v -16.05664 h 3.32618 v -3.26953 z m 10.39844,0 v 19.32617 h 2.26758 v -8.06836 h 0.46093 c 0.52103,0 0.90055,0.0732 1.14063,0.22266 0.24009,0.14062 0.4671,0.4092 0.68164,0.80469 0.21455,0.38668 0.61297,1.32921 1.19531,2.83203 l 1.64063,4.20898 h 2.71289 l -1.37305,-3.77148 c -0.54147,-1.50282 -0.97117,-2.54789 -1.29297,-3.13672 -0.31672,-0.58882 -0.72055,-1.13091 -1.21094,-1.62305 0.98589,-0.24608 1.72522,-0.83892 2.22071,-1.77929 0.4955,-0.94914 0.74219,-2.14952 0.74219,-3.59961 0,-1.14249 -0.16331,-2.15534 -0.49024,-3.04297 -0.32693,-0.88763 -0.76201,-1.50296 -1.30859,-1.8457 -0.54145,-0.35153 -1.41286,-0.52735 -2.61328,-0.52735 z m 9.57812,0 4.11329,11.18945 v 8.13672 h 2.26171 v -8.10937 L 232,105.33203 h -2.61133 l -2.58984,7.64453 -2.64453,-7.64453 z m -76.96093,0.1582 v 19.16797 h 7.9082 v -3.25976 h -5.64063 v -15.90821 z m 69.65039,3.11133 h 1.76953 c 0.91947,0 1.47041,0.0185 1.6543,0.0625 0.36779,0.1054 0.65234,0.36136 0.85156,0.76563 0.20433,0.39549 0.30664,0.91996 0.30664,1.57031 0,0.58003 -0.0753,1.06253 -0.22852,1.44922 -0.15326,0.38669 -0.36795,0.66016 -0.63867,0.81836 -0.27074,0.15819 -0.94907,0.23633 -2.03711,0.23633 h -1.67773 z m -76.63867,1.23828 1.54882,7.17188 h -3.06445 z m 33.99804,0 1.54688,7.17188 h -3.06446 z M 151.59766,130 c -0.88095,0 -1.6362,0.22562 -2.26172,0.67383 -0.62033,0.44821 -1.09608,1.10161 -1.42969,1.96289 -0.32841,0.85246 -0.49219,1.7735 -0.49219,2.75781 0,1.52917 0.35291,2.82332 1.05664,3.88672 0.50041,0.75581 1.3707,1.39359 2.61133,1.91211 0.96436,0.40425 1.5805,0.68556 1.85156,0.84375 0.39617,0.2373 0.67175,0.51857 0.82813,0.84375 0.16159,0.31639 0.24414,0.70316 0.24414,1.16016 0,0.71186 -0.19174,1.33694 -0.57227,1.87304 -0.37533,0.52732 -0.93426,0.79102 -1.67968,0.79102 -0.70371,0 -1.26463,-0.29889 -1.68164,-0.89649 -0.41182,-0.59762 -0.68479,-1.53624 -0.82032,-2.81054 L 147,143.36719 c 0.15117,2.16196 0.61587,3.81159 1.39258,4.94531 0.77669,1.12493 1.8868,1.6875 3.33594,1.6875 0.99564,0 1.82886,-0.23537 2.49609,-0.70117 0.66724,-0.47459 1.18394,-1.19538 1.54883,-2.16211 0.3649,-0.96672 0.54687,-2.004 0.54687,-3.11133 0,-1.22161 -0.15534,-2.24224 -0.46289,-3.06836 -0.30235,-0.8349 -0.7235,-1.49221 -1.26562,-1.9668 -0.53692,-0.48336 -1.36819,-0.94827 -2.49414,-1.39648 -1.12595,-0.4482 -1.83505,-0.8799 -2.12696,-1.29297 -0.22936,-0.32516 -0.34375,-0.71292 -0.34375,-1.16992 0,-0.50095 0.1222,-0.90432 0.36719,-1.20313 0.38053,-0.4658 0.90568,-0.69531 1.57813,-0.69531 0.65158,0 1.14166,0.21878 1.46484,0.6582 0.32841,0.43064 0.54157,1.14168 0.64062,2.13477 l 2.31446,-0.17187 c -0.0365,-1.77527 -0.4206,-3.19246 -1.15039,-4.25586 C 154.11722,130.53427 153.03637,130 151.59766,130 Z m 12.3164,0 c -0.93308,0 -1.75655,0.25396 -2.4707,0.76367 -0.53691,0.3779 -1.03282,0.95807 -1.48633,1.74024 -0.4483,0.78215 -0.80187,1.66803 -1.0625,2.65234 -0.34926,1.33584 -0.52539,2.98843 -0.52539,4.95703 0,3.07597 0.50372,5.49231 1.50977,7.25 1.00607,1.7489 2.36184,2.62109 4.0664,2.6211 1.68373,0 3.0291,-0.87904 4.03516,-2.63672 1.00606,-1.76649 1.50781,-4.20824 1.50781,-7.32813 -1e-5,-3.14627 -0.50696,-5.6007 -1.52344,-7.36719 C 166.95355,130.88589 165.60299,130 163.91406,130 Z m 78.05664,0 c -1.09468,0 -2.00718,0.32329 -2.74218,0.96484 -0.96436,0.83493 -1.6988,2.03136 -2.19922,3.59571 -0.50043,1.56435 -0.75,3.35464 -0.75,5.36718 0,1.85436 0.22358,3.57041 0.67187,5.15235 0.4483,1.57311 1.12033,2.78618 2.01172,3.63867 0.89137,0.84368 1.93387,1.26563 3.13281,1.26563 0.94351,0 1.87552,-0.29888 2.79297,-0.89649 0.92265,-0.60639 1.62654,-1.30278 2.11133,-2.09375 v -7.69922 h -4.98828 v 3.25586 h 2.64844 v 2.45117 c -0.34925,0.45699 -0.76783,0.85062 -1.25782,1.17578 -0.48479,0.31639 -0.96834,0.47461 -1.45312,0.47461 -0.98,0 -1.77226,-0.57235 -2.37695,-1.71484 -0.60468,-1.15129 -0.90821,-2.8742 -0.90821,-5.16797 0,-2.12681 0.29831,-3.73154 0.89258,-4.8125 0.59946,-1.08099 1.40278,-1.61914 2.41406,-1.61914 0.66722,0 1.22487,0.27447 1.66797,0.82813 0.44829,0.54489 0.75051,1.29106 0.91211,2.24023 l 2.29883,-0.72266 c -0.22936,-1.77525 -0.74411,-3.16411 -1.54688,-4.16601 C 244.50519,130.50693 243.39377,130 241.9707,130 Z m -70.13476,0.33203 v 19.32617 h 2.14844 v -15.21289 l 2.26757,15.21289 h 2.23047 l 2.27344,-15.21289 v 15.21289 h 2.15234 v -19.32617 h -3.47265 l -2.05664,13.18164 -2.08008,-13.18164 z m 13.94336,0 v 19.32617 h 8.71679 v -3.25976 h -6.40234 v -5.25782 h 5.75391 v -3.25781 h -5.75391 v -4.28125 h 6.18359 v -3.26953 z m 10.42968,0 v 3.26953 h 3.40235 v 16.05664 h 2.31445 v -16.05664 h 3.39453 v -3.26953 z m 11.1836,0 v 19.32617 h 2.31445 v -8.45312 h 4.53516 v 8.45312 h 2.31445 v -19.32617 h -2.31445 v 7.60352 h -4.53516 v -7.60352 z m 12.05664,0 v 19.32617 h 2.31445 v -19.32617 z m 5.11719,0 v 19.32617 h 2.14843 v -12.60351 l 4.62305,12.60351 h 2.32031 v -19.32617 h -2.14843 v 12.9043 l -4.69141,-12.9043 z m -60.63086,3.00195 c 0.95393,0 1.71956,0.545 2.29297,1.63477 0.57861,1.08974 0.86718,2.7404 0.86718,4.95508 0,2.24104 -0.29833,3.92587 -0.89258,5.05078 -0.58903,1.11615 -1.34491,1.67383 -2.26757,1.67383 -0.92266,0 -1.68374,-0.56259 -2.28321,-1.6875 -0.59947,-1.13374 -0.89648,-2.79606 -0.89648,-4.98438 0,-2.22346 0.29116,-3.88387 0.875,-4.98242 0.58383,-1.10735 1.35075,-1.66016 2.30469,-1.66016 z M 162,155 v 30 h 4.45508 V 165.4375 L 176.03516,185 h 4.8125 v -30 h -4.45508 v 20.03125 L 166.66797,155 Z m 26.29297,0 v 30 h 18.07031 v -5.05664 H 193.0918 v -8.16211 h 11.92773 v -5.05859 H 193.0918 v -6.64844 h 12.81836 V 155 Z m 22.21094,0 5.67187,30 h 5.20117 L 226.0957,162.57227 230.82812,185 h 5.08985 l 5.76953,-30 h -4.83008 L 233.20898,175.95508 229.04492,155 h -5.70508 L 218.99609,175.60352 215.41211,155 Z m 36.56836,0 v 7.03906 l 1.18164,15.22656 h 2.58007 L 252,162.03906 V 155 Z m 0.19531,24.24609 V 185 h 4.55078 v -5.75391 z"
		style="fill:#ffffff" />
</svg>