<?xml version="1.0" encoding="UTF-8" standalone="no"?>
<svg
	xmlns="http://www.w3.org/2000/svg"
	width="400"
	height="300"
	viewBox="0 0 400 300">
	<rect
		x="0"
		y="0"
		width="400"
		height="300"
		style="fill:#f0f0f0" />
	<path
		d="m 243.11685,50.01377 c -0.71636,0.06578 -1.3749,0.50711 -1.87984,1.041642 -0.50498,0.534579 -1.02255,1.250237 -1.75779,2.360004 -1.47051,2.219599 -3.77012,6.027621 -7.77161,12.662556 -1.71282,2.840164 -3.34987,5.521289 -4.60601,7.560125 -0.62806,1.019414 -1.16509,1.876851 -1.56246,2.506461 -0.0292,0.045 -0.0208,0.0375 -0.0488,0.08125 -7.69186,-6.892641 -16.44085,-10.898946 -25.48767,-10.904789 -8.93983,0.0375 -17.5913,3.975195 -25.21098,10.742039 -0.66965,-0.820563 -2.09995,-2.884743 -5.77785,-9.049352 -4.31307,-7.229216 -6.72622,-11.235363 -8.28431,-13.525164 -0.77901,-1.144893 -1.33223,-1.864801 -1.91237,-2.400661 -0.58015,-0.535907 -1.41272,-0.887033 -2.05886,-0.887033 -0.582,0 -0.636,0.075 -1.03353,0.162922 -0.39748,0.08797 -0.91339,0.201657 -1.53804,0.357907 -1.24931,0.312485 -2.93922,0.758861 -4.93154,1.293893 -3.98467,1.070112 -9.17458,2.509208 -14.39579,3.979429 -5.22121,1.470191 -10.47299,2.975959 -14.57486,4.182899 -2.0509,0.603453 -3.81619,1.139191 -5.15124,1.554316 -1.335,0.414984 -2.11742,0.642234 -2.6936,0.903312 -1.11193,0.503829 -1.83737,1.623516 -2.09957,2.807586 -0.26208,1.184063 -0.20625,2.513078 0.0487,4.109633 l 0.56151,3.491164 3.10052,-0.13 c 0.37708,-0.01672 0.5759,-0.07 0.96026,-0.146719 0.38417,-0.07672 0.87486,-0.18375 1.45664,-0.317484 1.16355,-0.2675 2.70219,-0.644125 4.54093,-1.106789 3.67754,-0.925266 8.50667,-2.182953 13.5983,-3.564398 5.07929,-1.378063 9.86926,-2.658829 13.4925,-3.605071 1.81163,-0.473109 3.33767,-0.869312 4.45139,-1.147437 1.11373,-0.278328 2.00547,-0.454781 1.89612,-0.439453 0.43991,-0.06172 0.61021,-0.05672 0.64291,-0.04875 0.0333,0.0078 0.0792,-7.5e-4 0.34998,0.276672 0.54166,0.554812 1.60522,2.162835 3.50743,5.232664 2.87276,4.636093 5.09196,8.343742 6.60787,11.043125 0.75794,1.349671 1.34135,2.447656 1.74151,3.27139 0.28248,0.581664 0.35248,0.793836 0.43944,1.033539 -3.30938,4.248711 -6.15369,9.227016 -8.6505,14.599383 l -5.24891,-5.086211 c -1.91199,-1.856476 -3.75378,-3.59057 -5.19191,-4.899008 -0.71907,-0.654187 -1.32935,-1.200273 -1.81476,-1.611304 -0.24291,-0.205422 -0.45781,-0.37875 -0.64286,-0.520828 -0.18498,-0.141719 -0.25623,-0.230829 -0.6266,-0.398735 -0.59371,-0.269172 -1.69571,-0.369578 -2.50649,-0.03328 -0.81077,0.3375 -1.57717,0.880484 -2.90518,1.798523 -4.08148,2.821407 -29.16709,21.791982 -34.06492,25.748242 -2.65965,2.14843 -4.06491,3.25912 -4.96408,4.38635 -0.44963,0.56357 -0.77862,1.20823 -0.88703,1.86356 -0.10828,0.65536 -0.0292,1.20981 0.057,1.7415 0.22458,1.4434 0.48449,2.56643 0.86261,3.46674 0.18917,0.4502 0.40582,0.85003 0.76498,1.22881 0.35916,0.37875 0.95827,0.74059 1.62754,0.74059 1.00582,0 1.48005,-0.37626 2.40065,-0.92774 0.92057,-0.55153 2.16004,-1.39082 3.92245,-2.65296 3.52488,-2.52421 9.13928,-6.74093 18.17177,-13.60654 6.76437,-5.14162 10.82182,-8.20078 13.25651,-9.95263 1.21735,-0.875937 2.03979,-1.425969 2.53899,-1.725265 0.17,-0.102032 0.005,-0.045 0.0975,-0.08125 0.33123,0.266671 0.79368,0.67 1.34275,1.171859 1.12172,1.025312 2.56593,2.430926 3.99566,3.865526 1.4297,1.43459 2.84801,2.90666 3.90616,4.06893 0.52906,0.58115 0.97359,1.08215 1.2695,1.44856 0.0933,0.11547 0.13547,0.17916 0.19541,0.26041 v 0.008 c -0.0292,0.2254 -0.0683,0.51579 -0.10578,0.79749 -2.2377,6.97721 -3.71312,14.46868 -4.5246,22.14323 -0.33874,-0.0825 -0.8111,-0.21667 -1.37531,-0.39875 -1.14334,-0.36958 -2.64843,-0.92399 -4.27234,-1.57877 -1.58368,-0.63853 -3.04794,-1.20077 -4.16657,-1.59502 -0.55933,-0.19708 -1.04094,-0.34665 -1.416,-0.45574 -0.1875,-0.0545 -0.33458,-0.10328 -0.51267,-0.13828 -0.0892,-0.0167 -0.17832,-0.0333 -0.3254,-0.0417 -0.0738,-0.005 -0.17042,-0.008 -0.30916,0.008 -0.0692,0.008 -0.14578,0.0167 -0.25208,0.0487 -0.10625,0.0292 -0.39623,0.1775 -0.39873,0.17917 -0.34291,0.21083 -0.32125,0.24333 -0.38251,0.30916 -0.0613,0.0658 -0.1075,0.12922 -0.1629,0.19542 -0.11,0.1325 -0.23833,0.28958 -0.39041,0.48828 -0.30541,0.39708 -0.71523,0.94731 -1.22068,1.63572 -1.01094,1.37682 -2.39995,3.31163 -4.05261,5.62328 -3.3053,4.62331 -7.64681,10.761 -12.01143,16.97561 -4.36464,6.2146 -8.76466,12.50875 -12.15791,17.42322 -1.69661,2.45725 -3.14004,4.57489 -4.21539,6.16852 -1.07539,1.59364 -1.70529,2.52835 -2.02632,3.12496 -0.49966,0.92853 -0.378754,1.69026 -0.2525,2.47392 0.12671,0.78361 0.3729,1.5808 0.68361,2.33558 0.31083,0.75481 0.67889,1.45572 1.14742,2.05075 0.23416,0.29751 0.48504,0.57628 0.87887,0.8219 0.39374,0.24542 1.062,0.47242 1.74149,0.2521 0.52966,-0.17167 0.74607,-0.40249 1.01722,-0.65104 0.27125,-0.24875 0.54599,-0.5487 0.8789,-0.93586 0.66591,-0.77436 1.55005,-1.90055 2.77502,-3.5481 2.44994,-3.29511 6.26602,-8.66161 12.2637,-17.17911 7.19745,-10.2215 11.88184,-16.82734 14.80269,-20.86553 1.46041,-2.01914 2.47915,-3.3974 3.14122,-4.24796 0.17415,-0.22375 0.25957,-0.30583 0.38248,-0.45571 0.46866,0.16833 1.10481,0.41958 1.83916,0.71611 1.49272,0.60283 3.3726,1.41027 5.09429,2.19721 1.1002,0.5029 1.85696,0.89828 2.26229,1.17186 0.15917,0.1075 0.20459,0.16042 0.23584,0.18707 0.0208,9.20156 1.17105,18.28925 3.24699,26.91203 -0.25208,0.0795 -0.0667,0.0208 -0.60219,0.12203 -1.25464,0.23666 -3.31372,0.56024 -6.57534,1.06607 -2.07024,0.32125 -4.02441,0.63753 -5.51746,0.88703 -0.74656,0.12453 -1.3727,0.23123 -1.84729,0.31748 -0.47456,0.0862 -0.62919,0.0917 -1.04163,0.21958 -0.45036,0.14 -0.97332,0.4677 -1.3346,0.87891 -0.36123,0.41124 -0.62981,0.88419 -0.95215,1.52177 -0.64468,1.27514 -1.46837,3.26569 -2.84008,6.70563 -4.7601,11.93635 -19.11154,49.87591 -21.60594,57.12796 -0.71012,2.06454 -1.12965,3.41758 -1.07419,4.7851 0.0555,1.36754 0.79936,2.52148 1.71708,3.43418 0.32166,0.32 0.63778,0.60467 0.93587,0.8382 0.14922,0.11672 0.29791,0.21625 0.46386,0.3175 0.16623,0.10125 0.15203,0.30916 0.97651,0.30916 -0.0292,0 0.39832,0.0783 0.94398,-0.15454 0.54566,-0.23292 0.84814,-0.62395 1.09048,-1.00093 0.48465,-0.75399 0.97472,-1.86495 1.95307,-4.2561 1.95662,-4.78247 5.69432,-14.53164 13.43555,-34.63486 4.81726,-12.51001 7.26866,-18.85545 8.65049,-22.05369 0.69094,-1.59914 1.1399,-2.40788 1.35906,-2.70992 0.21916,-0.30208 0.0167,-0.125 0.34166,-0.26041 0.5857,-0.24333 2.54285,-0.69491 4.83385,-1.03351 2.29097,-0.33876 5.00758,-0.62029 7.51123,-0.74872 l 2.6936,-0.13828 c 8.8949,24.13958 25.50131,39.5706 43.9931,39.6071 h 0.008 c 18.54272,-0.0417 35.19215,-15.54469 44.06632,-39.79425 0.0125,4e-4 0.003,-6e-4 0.0167,0 0.47857,0.0208 1.13084,0.063 1.87983,0.13 1.49788,0.135 3.4137,0.355 5.32212,0.6022 1.90846,0.24709 3.81315,0.52584 5.32216,0.78124 0.75449,0.1275 1.40731,0.24375 1.89609,0.35 0.48878,0.10625 0.88872,0.24874 0.77309,0.19541 0.1475,0.0683 -0.0167,-0.13453 0.27667,0.35 0.29457,0.48478 0.79828,1.54909 1.61129,3.49119 1.62601,3.88406 4.49978,11.32914 10.00952,25.63433 5.56712,14.4539 8.75162,22.66818 10.65241,27.42469 1.90078,4.75651 2.44057,6.03093 3.14934,6.92534 l 1.84729,2.3193 2.7506,-3.01104 c 0.46152,-0.50536 0.8793,-1.01473 1.20438,-1.47297 0.1625,-0.22917 0.29999,-0.43342 0.42316,-0.65912 0.12328,-0.22583 0.30915,-0.33208 0.30915,-1.05794 0,-0.37958 -0.047,-0.35833 -0.065,-0.43133 -0.0208,-0.0725 -0.0292,-0.13673 -0.0488,-0.20333 -0.0417,-0.13422 -0.0895,-0.28749 -0.15453,-0.48011 -0.13047,-0.38541 -0.3154,-0.91807 -0.5534,-1.57877 -0.47564,-1.32131 -1.16346,-3.17429 -2.00187,-5.42794 -1.67687,-4.50736 -3.97462,-10.60001 -6.46959,-17.17099 -4.98984,-13.14191 -10.75932,-28.16229 -13.89941,-36.06713 -0.90406,-2.27588 -1.77638,-4.32321 -2.4739,-5.84298 -0.34875,-0.75986 -0.65078,-1.37989 -0.91144,-1.86359 -0.13047,-0.24166 -0.23833,-0.45038 -0.36624,-0.64286 -0.12828,-0.1925 -0.0642,-0.36043 -0.76494,-0.73242 -0.37373,-0.19832 -0.4356,-0.17167 -0.61849,-0.21957 -0.1829,-0.048 -0.39248,-0.093 -0.6429,-0.14672 -0.50082,-0.10797 -1.15206,-0.23999 -1.92865,-0.38249 -1.55321,-0.28458 -3.59175,-0.6267 -5.75345,-0.96028 -3.43729,-0.53045 -5.57194,-0.86469 -6.83575,-1.10676 -0.25708,-0.0492 -0.3179,-0.0808 -0.50453,-0.12204 1.9997,-8.34887 3.11284,-17.13118 3.18999,-26.03312 1.8e-4,-0.0125 0.008,-0.0292 0.008,-0.0417 0.0942,-0.47678 0.21124,-0.76069 0.23583,-0.85448 0.048,-0.0375 0.082,-0.0592 0.14672,-0.0975 0.22708,-0.13422 0.57278,-0.31333 0.96839,-0.51269 0.79127,-0.39875 1.83284,-0.88758 2.91334,-1.35903 2.161,-0.94294 4.69185,-1.86333 5.18379,-1.9612 0.0505,-0.008 0.0417,-0.0125 0.065,-0.0167 -0.0495,-0.0208 -0.0808,-0.06 0.0975,0.11375 0.45341,0.44323 1.45298,1.73217 3.29585,4.19913 2.0624,2.76092 8.80044,12.15339 14.90034,20.78417 7.93635,11.22923 11.93838,16.89497 14.14353,19.74251 1.1026,1.42377 1.67492,2.13417 2.44135,2.65296 0.38334,0.25917 0.9894,0.5037 1.59501,0.39875 0.60567,-0.105 0.91473,-0.419 1.05795,-0.53708 0.67197,-0.55458 0.69006,-0.87619 0.90329,-1.34277 0.21333,-0.46653 0.41375,-1.00191 0.6022,-1.56247 0.37541,-1.12153 0.71611,-2.14715 0.71611,-3.22262 0,-0.78703 -0.16625,-0.79245 -0.28499,-1.04165 -0.11921,-0.24916 -0.26665,-0.52624 -0.4557,-0.85449 -0.37791,-0.65648 -0.9168,-1.5131 -1.61129,-2.59596 -1.38897,-2.1657 -3.40712,-5.20016 -5.97315,-8.95981 -5.13201,-7.51934 -12.44854,-17.9695 -21.19904,-30.27293 -1.7554,-2.46816 -3.37449,-4.74941 -4.57346,-6.43705 -1.19906,-1.68765 -2.07545,-2.932 -2.0182,-2.84829 l -0.008,-0.008 c -0.002,-0.003 -0.24249,-0.2925 -0.36624,-0.3825 -0.12375,-0.09 -0.23583,-0.13921 -0.33374,-0.17915 -0.195,-0.0795 -0.33165,-0.10125 -0.43945,-0.11375 -0.21583,-0.025 -0.33666,-0.0125 -0.44756,0 -0.22168,0.0208 -0.39541,0.058 -0.59408,0.10578 -0.39749,0.0958 -0.86798,0.23583 -1.44038,0.4232 -1.14476,0.37499 -2.64957,0.92302 -4.28048,1.5706 -1.58584,0.6297 -3.13492,1.20893 -4.32936,1.61943 -0.59727,0.20542 -1.10535,0.36542 -1.47291,0.472 -0.057,0.0167 -0.008,0.003 -0.065,0.0167 -0.80377,-7.86496 -2.39578,-15.48084 -4.69553,-22.61518 0.003,0.0708 0.0167,-0.0292 0.23584,-0.35791 0.27167,-0.40833 0.68981,-0.96103 1.19626,-1.57876 1.01285,-1.23544 2.38561,-2.75201 3.80036,-4.20728 1.41476,-1.45529 2.87724,-2.859412 4.04449,-3.865521 0.58366,-0.503032 1.1026,-0.900141 1.46485,-1.147438 0.0208,-0.01672 -0.0167,-0.0047 0.008,-0.01672 0.24667,0.16375 0.52107,0.344157 0.94398,0.642907 1.06305,0.75089 2.66593,1.926792 4.89085,3.572522 4.44987,3.29145 11.37312,8.47744 21.40247,16.03978 3.59179,2.70828 6.64601,4.91317 8.89463,6.42893 1.1243,0.75791 2.0454,1.34757 2.75871,1.74964 0.35666,0.20126 0.6497,0.34834 0.96027,0.47201 0.15547,0.062 0.31333,0.12125 0.54524,0.16291 0.23208,0.0417 0.60344,0.1629 1.21255,-0.21166 0.79239,-0.48705 0.74616,-0.79476 0.89514,-1.13116 0.14922,-0.33624 0.27,-0.70778 0.39876,-1.13931 0.25749,-0.86307 0.51352,-1.95688 0.73239,-3.17378 0.12078,-0.67283 0.14828,-1.73706 -0.36623,-2.69362 -0.51471,-0.95662 -1.35698,-1.83168 -2.81569,-3.11682 -2.91751,-2.57036 -8.44426,-6.76266 -19.16458,-14.85164 -6.7745,-5.111685 -11.50355,-8.640404 -14.72132,-10.994334 -3.21775,-2.353882 -4.80155,-3.48032 -5.8104,-3.995679 -0.39332,-0.200828 -1.2436,-0.333328 -1.85541,-0.122032 -0.61177,0.211235 -1.05515,0.538688 -1.66012,1.033516 -1.21002,0.98957 -3.03839,2.754258 -6.39636,6.022031 -1.92144,1.869844 -3.6644,3.53511 -4.98032,4.76068 -0.41042,0.382078 -0.69325,0.624734 -1.00911,0.911437 -2.46644,-5.26821 -5.27775,-10.134125 -8.52843,-14.314554 0.13922,-0.709906 1.38939,-3.433492 5.77787,-10.733883 3.30888,-5.504375 5.00638,-8.301563 5.93244,-9.562008 0.46298,-0.63025 0.71769,-0.827453 0.70803,-0.821953 -0.008,0.0047 -0.14703,0.025 0.20333,0.025 -0.22167,0 0.008,0.0047 0.23583,0.04875 0.22916,0.04328 0.55169,0.104531 0.95213,0.195422 0.80094,0.18125 1.90838,0.451234 3.21444,0.781234 2.61225,0.659985 6.0508,1.57543 9.684,2.579711 9.30353,2.571578 15.95587,4.357977 20.4178,5.476789 2.23104,0.559414 3.90845,0.953071 5.12683,1.196274 0.60916,0.121718 1.10157,0.2025 1.51363,0.2525 0.41209,0.04953 0.6452,0.135468 1.25328,-0.01672 0.66701,-0.166672 1.17993,-0.635703 1.48921,-1.106734 0.30915,-0.471086 0.49028,-0.972024 0.62661,-1.52993 0.27248,-1.115813 0.37415,-2.494852 0.37415,-4.264274 0,-0.790812 0.0692,-1.44589 -0.43128,-2.254179 -0.50065,-0.808266 -1.27093,-1.039141 -1.89612,-1.236969 -3.27179,-1.035187 -13.29738,-3.952976 -22.96494,-6.721887 -4.83377,-1.38444 -9.57148,-2.730676 -13.30535,-3.775991 -3.73386,-1.045314 -6.37844,-1.775222 -7.34032,-1.993753 -0.23457,-0.05328 -0.55216,-0.107969 -0.92769,-0.07328 z m 0.39873,3.100568 c 0.74215,0.17375 3.4022,0.891908 7.04738,1.912394 3.72473,1.042737 8.45166,2.392833 13.28092,3.775976 9.6584,2.766287 19.74474,5.698795 22.87541,6.689357 0.11078,0.03328 0.0975,0.0375 0.15453,0.05703 2.1e-4,0.0016 -2e-4,0.0047 0,0.0078 -0.0575,-0.02078 -0.0437,-0.02078 -0.15453,-0.05703 -3.1298,-0.990563 -13.21731,-3.923852 -22.87541,-6.689342 -4.82904,-1.382784 -9.55632,-2.733552 -13.28092,-3.775992 -3.64896,-1.021267 -6.31668,-1.731628 -7.0555,-1.904253 6.2e-4,-0.0031 0.003,-0.0078 0.008,-0.01672 z m -86.82244,0.162922 c 0.0125,0.01672 -0.0167,0.0031 0.0333,0.04875 0.23666,0.218751 0.73149,0.805986 1.45668,1.871676 1.45033,2.131472 3.88527,6.163653 8.1948,13.386817 4.09822,6.869148 5.58307,9.408195 6.9497,10.701344 l 1.06606,1.009109 -0.008,0.0078 -1.06606,-1.00911 c -1.3666,-1.29282 -2.85161,-3.834148 -6.94972,-10.701328 -4.30959,-7.221086 -6.74445,-11.247813 -8.19479,-13.378661 -0.72515,-1.06544 -1.21981,-1.652972 -1.45667,-1.871722 -0.05,-0.04625 -0.0167,-0.02922 -0.0333,-0.04875 0.088,0.0047 -0.0208,0.0125 -0.30123,0.07328 -0.34834,0.07703 -0.83962,0.197501 -1.44851,0.350001 -1.21777,0.304578 -2.90019,0.74536 -4.88273,1.277643 -3.96514,1.064564 -9.15135,2.495926 -14.36323,3.963147 -5.21196,1.467222 -10.45046,2.965335 -14.53419,4.1666 -2.04191,0.600656 -3.80165,1.123016 -5.11054,1.52993 0.005,-0.0016 0.003,-0.0047 0.008,-0.0078 1.30889,-0.407086 3.0686,-0.929117 5.11054,-1.529929 4.08391,-1.20161 9.32207,-2.707082 14.53416,-4.174725 5.21212,-1.467643 10.398,-2.898286 14.36323,-3.963148 1.98262,-0.532454 3.66491,-0.973111 4.88271,-1.277643 0.60891,-0.1525 1.10035,-0.272922 1.44856,-0.350001 0.27958,-0.06172 0.38916,-0.0675 0.30125,-0.07328 z M 200.0108,68.3893 c 8.70796,0.0047 17.29245,3.775203 24.84478,11.059422 l 1.23693,1.188093 v 0.0078 l -1.2451,-1.188109 c -7.55211,-7.282094 -16.13707,-11.053782 -24.84478,-11.059407 -4.29889,0.01672 -8.56074,0.944696 -12.68685,2.766868 4.12926,-1.825516 8.39258,-2.756711 12.69502,-2.774993 z m 86.78174,0.025 c -0.0483,0.473086 -0.0995,0.905289 -0.17083,1.196273 -0.002,0.0047 -0.008,0.0031 -0.008,0.0078 -0.0442,0.17625 -0.0667,0.222078 -0.10579,0.317484 -0.002,-2.5e-4 -0.005,2.5e-4 -0.008,0 0.0417,-0.09828 0.067,-0.126719 0.11376,-0.317484 0.0717,-0.292922 0.13078,-0.727078 0.17915,-1.204414 z m -55.9557,10.953625 c -0.98955,1.843969 -1.44884,3.022859 -1.57871,4.134023 l -0.0733,0.634782 0.39874,0.496406 -0.40667,-0.496406 0.0812,-0.634782 c 0.12954,-1.11082 0.5892,-2.290601 1.57871,-4.134023 z m 24.96686,8.837734 c 0.52749,0.29875 2.07757,1.314891 5.08613,3.515571 -3.01309,-2.203633 -4.55827,-3.216446 -5.08613,-3.515571 z m -23.5346,0.04172 c 2.59911,3.76743 4.93172,7.983703 6.94971,12.581161 -2.01796,-4.59613 -4.35068,-8.814809 -6.94971,-12.581161 z m -88.01054,0.025 c 0.025,0.01672 0.0333,0.02078 0.057,0.04172 0.12047,0.0925 0.30165,0.2375 0.52081,0.423156 0.43853,0.37125 1.0394,0.899281 1.74149,1.538062 1.40418,1.277571 3.22002,2.990118 5.11056,4.825758 h 0.008 l 8.23548,7.983285 v 0.008 l -8.2436,-7.983254 c -1.8905,-1.835141 -3.71458,-3.548609 -5.11872,-4.825805 -0.70206,-0.638562 -1.2948,-1.166812 -1.73333,-1.538047 -0.21916,-0.185421 -0.40041,-0.339156 -0.52081,-0.431281 -0.025,-0.01672 -0.0417,-0.01672 -0.065,-0.03328 0.002,-7.81e-4 0.003,-0.0047 0.008,-0.0078 z m -0.0167,0.0078 c -0.27667,0.115 -1.04345,0.582485 -2.3437,1.481094 -1.79659,1.241563 -9.10415,6.70461 -16.54418,12.328887 7.44023,-5.625856 14.74756,-11.095074 16.54418,-12.337043 1.3003,-0.898828 2.06712,-1.357766 2.3437,-1.472938 z m 108.42021,8.072782 c -1.27359,1.097687 -2.77631,2.547203 -4.23977,4.052649 0.002,-0.002 -0.002,-0.008 0,-0.008 1.46346,-1.504994 2.96621,-2.947134 4.23977,-4.044525 z m 8.29247,0.813781 c 0.89797,0.653781 1.57366,1.128734 2.86451,2.083297 4.46693,3.303241 11.38697,8.493781 21.41874,16.056081 3.56228,2.68533 6.59149,4.87501 8.76444,6.3394 0.91419,0.61611 1.58264,1.01615 2.14837,1.3509 0.19792,-0.69279 0.40666,-1.58611 0.59406,-2.62856 0.0433,-0.24208 0.0813,-0.33166 0.0813,-0.40706 0.002,0.0758 -0.0292,0.16833 -0.0733,0.41498 -0.18708,1.03966 -0.40498,1.92831 -0.60223,2.62042 -5.8e-4,0.002 5.9e-4,0.005 0,0.008 -0.56577,-0.335 -1.2341,-0.73461 -2.14837,-1.3509 -2.17298,-1.46481 -5.20204,-3.65331 -8.76445,-6.33945 -10.03209,-7.56442 -16.95164,-12.75183 -21.41873,-16.056029 -1.29301,-0.956438 -1.96566,-1.436891 -2.86452,-2.091469 z m -16.51165,7.641498 c -0.54744,0.66771 -1.0041,1.27706 -1.36718,1.82289 -0.18123,0.27291 -0.35123,0.49091 -0.48823,0.74866 0.13703,-0.2575 0.29875,-0.484 0.4801,-0.75683 0.36291,-0.54561 0.82792,-1.14722 1.37531,-1.81472 z m -86.74107,2.72617 c 0.12422,0.49161 0.0508,0.54786 0.0417,0.69986 0.008,-0.15203 0.0833,-0.20792 -0.0417,-0.69986 z m 84.64967,1.49739 c 1.66784,5.07068 2.93854,10.42942 3.83291,15.95024 -0.89432,-5.52199 -2.16429,-10.87853 -3.83291,-15.95024 z m -133.15927,10.49788 c -0.22833,0.165 -0.89493,0.67836 -1.10673,0.83007 -1.73108,1.23965 -2.93976,2.04772 -3.71899,2.5146 -0.395,0.23665 -0.25375,0.18165 -0.415,0.24415 -7e-4,-0.002 7.2e-4,-0.008 0,-0.008 0.16125,-0.0625 0.0208,-0.008 0.415,-0.24417 0.77923,-0.4667 1.97983,-1.27527 3.71083,-2.51458 0.27707,-0.19833 0.80973,-0.60083 1.11489,-0.82194 z m 42.54456,14.41219 c -0.32833,0.20708 -0.67207,0.34875 -0.9684,0.39875 0.29501,-0.048 0.63969,-0.19292 0.9684,-0.39875 z m -12.37767,2.04265 c 0.52258,0 0.56566,0.085 0.77311,0.14671 0.20749,0.0617 0.43224,0.13204 0.69987,0.22791 0.53519,0.19125 1.22243,0.45355 1.99377,0.76495 1.54271,0.62282 3.45442,1.43719 5.22446,2.24606 1.17168,0.5354 2.02879,0.97814 2.70176,1.43226 0.33626,0.22708 0.65891,0.46419 0.92774,0.76499 -0.2675,-0.29667 -0.59443,-0.53188 -0.92774,-0.75683 -0.67297,-0.45428 -1.53003,-0.88856 -2.70176,-1.42414 -1.77011,-0.80912 -3.6817,-1.63118 -5.22446,-2.25421 -0.77134,-0.31166 -1.45854,-0.57341 -1.99377,-0.76495 -0.2675,-0.0958 -0.49241,-0.16624 -0.69987,-0.22791 -0.2075,-0.0617 -0.2504,-0.14672 -0.77311,-0.14672 -0.50965,0 -0.70651,0.1525 -0.84631,0.23584 -0.13954,0.0833 -0.21459,0.15833 -0.28499,0.21958 -0.14172,0.1225 -0.23416,0.22166 -0.34999,0.34999 -0.23125,0.25625 -0.50033,0.59478 -0.85448,1.04978 -0.70752,0.90889 -1.75559,2.29308 -3.2226,4.32121 1.46981,-2.03158 2.5062,-3.4196 3.21444,-4.32934 0.35416,-0.45487 0.62331,-0.79353 0.85447,-1.04978 0.11547,-0.12828 0.21625,-0.22748 0.35791,-0.34998 0.0708,-0.0613 0.14547,-0.13625 0.28499,-0.21958 0.13953,-0.0833 0.33666,-0.23583 0.84631,-0.23583 z m 120.8223,0.4801 c 0.24375,-0.0125 0.52523,-0.005 0.82194,0.0733 0.59336,0.15667 1.06177,0.51795 1.48108,0.92773 -0.41723,-0.40666 -0.89164,-0.75586 -1.48108,-0.91144 -0.59341,-0.15667 -1.10639,-0.057 -1.43226,0.008 -1.40538,0.27957 -3.57667,1.17826 -5.81857,2.15654 -1.12098,0.48912 -2.2074,0.99429 -3.0761,1.43228 -0.43436,0.21915 -0.80964,0.42057 -1.13112,0.61032 -0.32167,0.18958 -0.53274,0.26833 -0.90332,0.67544 -0.31666,0.3475 -0.51433,0.70411 -0.65103,1.09861 -0.13672,0.39458 -0.21249,0.82494 -0.30124,1.3346 v 0.008 0.008 l -0.025,0.12203 v 0.12203 c -1.2e-4,0.0167 1.3e-4,0.0333 0,0.0487 -0.0658,9.21623 -1.21588,18.33637 -3.38534,26.89573 l -0.20331,0.78124 -0.008,-0.008 0.21166,-0.79744 c 2.16941,-8.55695 3.31134,-17.66602 3.37717,-26.87949 1.3e-4,-0.0167 -8e-5,-0.0333 0,-0.0487 v -0.13 l 0.025,-0.12203 v -0.008 -0.008 c 0.088,-0.50362 0.17542,-0.92757 0.30916,-1.31832 0.13703,-0.39999 0.3229,-0.76336 0.6429,-1.11489 0.37041,-0.40708 0.58178,-0.47763 0.90328,-0.66728 0.32165,-0.18958 0.70498,-0.39125 1.1393,-0.61036 0.86864,-0.43783 1.94703,-0.94328 3.06796,-1.43228 2.24182,-0.97798 4.4132,-1.88522 5.81853,-2.16467 0.16292,-0.0333 0.37501,-0.0683 0.61849,-0.0812 z m -108.14356,5.61512 c 0.0975,0.18791 0.17749,0.39458 0.22791,0.63478 2.5e-4,0.002 -4.2e-4,0.0125 0,0.0167 -0.0508,-0.2429 -0.12922,-0.46128 -0.22791,-0.65101 z m -18.23686,0.0975 c -2.93976,4.06431 -7.61106,10.67345 -14.81084,20.89812 -5.99365,8.51178 -9.81331,13.8649 -12.22299,17.10581 -1.2048,1.62047 -2.06379,2.71921 -2.63666,3.38535 -0.0292,0.0333 -0.0292,0.0375 -0.057,0.065 -0.005,-0.008 -0.005,-0.0167 -0.008,-0.025 -0.14171,-0.24123 -0.29125,-0.42768 -0.42315,-0.74868 -0.23167,-0.56229 -0.41125,-1.1849 -0.48828,-1.66015 -0.002,-0.0125 0.002,-0.0125 0,-0.025 0.0767,0.47512 0.25665,1.09798 0.48828,1.6601 0.13625,0.33042 0.27708,0.52145 0.42315,0.77311 0.025,-0.0292 0.0375,-0.0333 0.065,-0.065 0.57284,-0.66591 1.4319,-1.7572 2.63666,-3.37721 2.4096,-3.24003 6.22951,-8.59649 12.22299,-17.10585 7.19767,-10.21907 11.87109,-16.81848 14.81086,-20.88183 z m 147.24579,20.70279 c 7.92685,11.21287 11.96492,16.90474 14.06215,19.6123 0.60917,0.78641 0.70412,0.83924 1.00099,1.15562 0.0845,-0.21833 0.16249,-0.39916 0.24416,-0.64291 0.29666,-0.88374 0.47969,-1.85181 0.51269,-2.07518 0.002,0.005 0.005,0.0125 0.008,0.0167 -0.0333,0.21875 -0.215,1.19601 -0.51266,2.0833 -0.082,0.24374 -0.15957,0.42461 -0.24415,0.64291 -0.29667,-0.31625 -0.39166,-0.36917 -1.00095,-1.15562 -2.09852,-2.70987 -6.13438,-8.40802 -14.07033,-19.63672 z m -125.29807,8.22741 0.24418,0.93586 -0.008,0.008 z m 87.76643,7.56825 c 0.21917,4e-5 0.4372,0.0208 0.71615,0.0333 0.55795,0.025 1.23922,0.0762 2.01817,0.14672 1.55788,0.14047 3.49604,0.36708 5.43607,0.6185 1.93999,0.25123 3.88395,0.52398 5.45233,0.78939 0.78422,0.1325 1.47046,0.26792 2.03445,0.39042 0.56398,0.1225 0.9291,0.18123 1.416,0.40706 0.44704,0.20667 1.12893,0.75849 1.60314,1.53807 0.003,0.005 0.005,0.0167 0.008,0.025 -0.47419,-0.77983 -1.16423,-1.33115 -1.61129,-1.53807 -0.48691,-0.2254 -0.85202,-0.28458 -1.41601,-0.40708 -0.56398,-0.1225 -1.24205,-0.25748 -2.02629,-0.3904 -1.56846,-0.26541 -3.51229,-0.53819 -5.45236,-0.78941 -1.94007,-0.25123 -3.87816,-0.47786 -5.43604,-0.61848 -0.77895,-0.0705 -1.46842,-0.12203 -2.02632,-0.14672 -0.55795,-0.025 -0.85857,-0.0733 -1.44043,0.0487 l -0.85445,0.17915 -0.27665,0.81379 c -8.49116,24.10439 -24.56507,38.71221 -41.64125,38.75261 -15.98494,-0.0292 -31.09003,-12.82449 -39.92415,-34.23611 8.83521,21.39087 23.93763,34.17199 39.91603,34.20361 17.07572,-0.0417 33.15037,-14.64709 41.64124,-38.74454 l 0.285,-0.81378 0.84632,-0.17915 c 0.29081,-0.0608 0.51327,-0.0812 0.73239,-0.0812 z m -85.49598,0.11375 0.008,0.025 -4.85826,0.2525 c -2.61707,0.13422 -5.40778,0.41887 -7.80418,0.77306 -2.3964,0.35417 -4.30179,0.71633 -5.57442,1.24511 -0.38833,0.16125 -1.14592,0.59661 -1.65196,1.29394 -0.50598,0.69736 -0.96301,1.6259 -1.68454,3.29582 -1.44309,3.33991 -3.87378,9.64089 -8.6912,22.15135 -1.18363,3.07379 -1.04568,2.67963 -2.05075,5.28962 0.79015,-2.05158 1.15793,-3.00416 2.05075,-5.32217 4.8173,-12.50683 7.2482,-18.80426 8.6912,-22.14322 0.72149,-1.66943 1.17856,-2.59866 1.68454,-3.29583 0.50599,-0.69715 1.26348,-1.13256 1.65196,-1.29393 1.27256,-0.52866 3.17805,-0.89099 5.57442,-1.2451 2.39631,-0.35415 5.17907,-0.63886 7.79602,-0.77307 z m 116.04537,33.44671 c 5.55457,14.41776 8.74391,22.63784 10.628,27.35147 1.69136,4.23136 2.19095,5.13309 2.4251,5.5175 l 0.19541,-0.21166 c 0.38083,-0.41712 0.72169,-0.8552 0.95214,-1.17998 0.025,-0.0375 0.0375,-0.0533 0.057,-0.0813 0.003,0.008 0.0125,0.025 0.0167,0.0333 -0.025,0.0375 -0.0375,0.0492 -0.065,0.0895 -0.2304,0.32498 -0.57136,0.76298 -0.95214,1.17997 l -0.19541,0.21167 c -0.23415,-0.38458 -0.73369,-1.28494 -2.42507,-5.51749 -1.88632,-4.72035 -5.06966,-12.93976 -10.63615,-27.39215 z m -158.31322,26.56206 c -0.24416,0.60966 -1.20651,3.12929 -1.40784,3.62137 -0.75311,1.84072 -1.05685,2.41488 -1.32647,2.93779 -0.005,-0.005 -0.0125,-0.005 -0.0167,-0.008 -0.70669,-0.70281 -0.79194,-0.85385 -0.81379,-1.39159 0.025,0.49738 0.12954,0.66245 0.81379,1.34277 0.005,0.005 0.0125,0.008 0.0167,0.0167 0.26958,-0.52271 0.57341,-1.10569 1.32647,-2.94592 0.29874,-0.72958 1.01278,-2.57828 1.40784,-3.57257 z"
		style="fill:#e0e0e0" />
</svg>