<?xml version="1.0" encoding="UTF-8" standalone="no"?>
<svg
	xmlns="http://www.w3.org/2000/svg"
	width="400"
	height="300"
	viewBox="0 0 400 300">
	<rect
		x="0"
		y="0"
		width="400"
		height="300"
		style="fill:#f0f8ff" />
	<path
		d="m 100,50.002319 v 0.616447 c 0,-0.44785 0.43131,-0.642625 1.17797,-0.616447 z m 1.17797,0 c 0.0469,0.0016 0.12156,0.02094 0.17094,0.02437 0.11375,-0.01469 0.23468,-0.02125 0.36009,-0.02437 z m 0.17094,0.02437 c -0.67082,0.086 -1.1286,0.369888 -1.28785,0.787341 0.33535,1.726525 6.04756,10.00665 9.51537,13.7388 1.98563,2.137 3.39713,4.201975 3.13719,4.583669 -0.26,0.381709 -1.574,0.910144 -2.91747,1.177956 -1.62712,0.324375 -2.4414,0.938544 -2.4414,1.843241 0,1.643122 5.76325,8.41789 8.59374,10.101162 2.12938,1.266332 2.63097,2.837482 1.17188,3.655947 -0.47216,0.264844 -2.58,0.702925 -4.6875,0.976547 -2.67112,0.346791 -3.90928,0.880366 -4.09544,1.757785 -0.165,0.77779 2.41419,3.738034 6.75047,7.74524 7.93584,7.333573 7.9219,7.436283 -0.83619,8.178573 -3.33471,0.28263 -5.56712,0.83581 -5.82274,1.44041 -0.87532,2.07032 5.35606,8.81696 11.92015,12.90263 l 2.78318,1.72728 -1.72728,1.2634 c -0.94784,0.69662 -4.1349,1.68171 -7.07396,2.18502 -6.33106,1.08424 -6.703,2.01983 -2.86253,7.08607 2.29578,3.02858 8.66165,7.75746 10.44309,7.75746 0.42587,0 1.25518,0.52262 1.84325,1.16575 1.54734,1.69221 -0.26844,2.51289 -5.59081,2.52682 -5.15916,0.0137 -5.99966,1.09716 -3.58885,4.63249 2.271,3.33036 5.60994,6.0696 9.76559,8.01379 4.47632,2.09425 3.66907,3.13178 -4.07715,5.26726 -3.12256,0.86083 -5.89687,2.08907 -6.16453,2.72212 -0.65259,1.54353 7.70578,8.58748 14.39815,12.1336 2.8125,1.49025 4.77803,2.89881 4.36403,3.13105 -0.41406,0.23225 -3.73109,1.28119 -7.37303,2.32541 -3.64196,1.04421 -6.82393,2.18691 -7.06787,2.54513 -1.01581,1.49179 9.31725,7.6747 16.25971,9.72885 2.34738,0.69455 4.14428,1.6746 4.14428,2.25827 0,0.56717 -2.66728,2.33895 -5.92649,3.9367 -3.25919,1.59776 -5.92038,3.34632 -5.92038,3.88788 0,1.53932 9.40234,5.46131 14.48359,6.0424 2.52228,0.28844 4.7255,0.91847 4.90112,1.39769 0.17563,0.47922 -1.91065,2.30044 -4.63865,4.04656 -4.47312,2.86313 -4.83706,3.28694 -3.69872,4.32122 0.91288,0.82941 3.40716,1.21788 9.00266,1.40378 8.8394,0.29375 9.41599,0.84088 4.77293,4.54097 -4.14981,3.30697 -2.8905,4.12331 6.2805,4.04656 4.01997,-0.0338 7.312,0.22688 7.312,0.57982 0,0.35282 -0.5586,1.84328 -1.23291,3.30807 -0.67431,1.46477 -1.22069,2.78765 -1.22069,2.94184 0,0.15438 1.37816,0.27531 3.06394,0.27469 1.84772,-9.7e-4 4.98097,-0.92353 7.88572,-2.31319 4.7964,-2.29469 4.81293,-2.29175 4.23584,-0.54931 -1.23081,3.71616 -1.06641,3.98831 2.30103,3.80244 1.75109,-0.0966 4.44153,-0.84488 5.97531,-1.66625 3.82612,-2.04891 4.55825,-1.91753 3.91847,0.72631 -0.48485,2.00353 -0.33844,2.22775 1.47703,2.22775 1.10915,0 3.8894,-1.172 6.17675,-2.60006 2.28734,-1.42803 4.34812,-2.59394 4.58371,-2.59394 0.23563,0 0.43335,1.16591 0.43335,2.59394 0,1.54031 0.40069,2.60006 0.98878,2.60006 0.54528,0 2.9344,-1.87022 5.31006,-4.15031 3.34456,-3.21016 4.42987,-3.87869 4.81562,-2.96628 0.80253,1.89818 2.20985,1.39553 6.08522,-2.19113 l 3.64378,-3.36909 1.43434,1.59909 c 1.80735,2.02181 2.89769,1.31172 6.32931,-4.132 1.355,-2.14953 3.17756,-4.07834 4.04663,-4.28459 0.86906,-0.20625 2.14981,-1.61038 2.84425,-3.11888 0.69443,-1.50847 1.68265,-2.61719 2.20334,-2.45965 1.25512,0.37975 5.05865,9.47553 8.00778,19.14031 1.86943,6.12647 2.28265,8.70903 1.92872,12.1275 -0.3356,3.24109 -0.15938,4.52084 0.68359,5.00481 1.87541,1.07687 2.71956,0.33328 3.51562,-3.04563 0.578,-2.45325 0.41294,-4.46207 -0.7019,-8.46544 -3.4295,-12.31525 -5.60544,-18.26881 -9.05762,-24.7921 -2.01654,-3.8105 -3.6621,-7.07102 -3.6621,-7.23865 0,-0.6683 3.08403,-0.17629 7.34863,1.15965 3.91093,1.22516 4.66799,1.26525 5.79224,0.34182 0.82363,-0.67653 3.10288,-1.062 6.2866,-1.062 4.91927,0 4.98556,-0.0281 4.83396,-2.00195 -0.1475,-1.91992 0.0859,-2.03957 5.37109,-2.84419 3.035,-0.46206 5.75991,-1.06358 6.06075,-1.33665 0.30094,-0.2731 -0.28937,-1.30665 -1.31225,-2.29489 -1.02287,-0.98822 -1.63515,-2.13366 -1.35497,-2.54512 0.28032,-0.41146 2.48432,-1.26822 4.89503,-1.90428 2.41069,-0.63607 5.25825,-1.81259 6.32319,-2.61226 l 1.93481,-1.4526 -3.47897,-1.25731 c -1.91056,-0.69299 -3.46678,-1.53015 -3.46678,-1.85543 0,-0.3253 2.38057,-1.62326 5.29785,-2.88694 2.91728,-1.26367 5.69696,-2.95641 6.17062,-3.7597 0.98384,-1.66852 0.41509,-1.9897 -4.05275,-2.33151 -4.02019,-0.30753 -3.93384,-1.60455 0.24406,-3.82684 8.50134,-4.52185 11.00297,-7.88562 5.87159,-7.88562 -1.54687,0 -3.04512,-0.34375 -3.3264,-0.75683 -0.28125,-0.41308 1.167,-2.48771 3.21653,-4.61419 4.012,-4.1626 6.56831,-8.32023 5.80447,-9.44198 -0.26063,-0.38296 -2.30582,-0.49664 -4.54103,-0.25635 -4.781,0.51393 -4.89994,0.2066 -2.01416,-4.96208 2.04259,-3.65847 2.74266,-9.1623 1.27563,-9.9852 -0.41863,-0.23478 -2.15597,0.43141 -3.86353,1.48314 -3.64222,2.24336 -4.2525,1.54112 -2.06297,-2.38644 1.37006,-2.45759 3.42406,-9.29314 3.42406,-11.40729 0,-1.13983 -1.77806,-0.8096 -6.134,1.13523 -2.24772,1.00354 -4.96087,1.83668 -6.03028,1.84934 -1.85472,0.0222 -1.92356,-0.14566 -1.42209,-3.57661 0.38122,-2.60835 0.0788,-4.92691 -1.11697,-8.44103 -1.69341,-4.97618 -4.00781,-7.84953 -4.73631,-5.8837 -0.62394,1.68372 -7.89587,10.06525 -8.76462,10.10117 -0.44953,0.0187 -0.93272,-0.97319 -1.07422,-2.19724 -0.81628,-7.06239 -6.37716,-18.90839 -8.87447,-18.90839 -0.56297,0 -2.04915,1.89005 -3.302,4.20525 -1.25287,2.31522 -2.62946,4.17086 -3.06396,4.11981 -0.43454,-0.0511 -1.2575,-1.9559 -1.82497,-4.22356 -1.44803,-5.7868 -4.87866,-11.529362 -6.89081,-11.529362 -0.36835,0 -1.20166,0.922609 -1.84938,2.04464 -1.33184,2.307194 -4.34087,5.383222 -5.26734,5.383222 -0.33825,0 -1.20991,-2.318059 -1.9409,-5.145187 -1.45779,-5.637832 -3.5445,-8.744385 -7.20213,-10.705397 l -2.3865,-1.281694 -2.42918,4.852216 c -1.33307,2.66839 -2.93266,4.852219 -3.55831,4.852219 -0.62569,0 -2.0306,-1.722075 -3.11891,-3.832951 -2.16244,-4.194171 -7.07503,-8.032103 -10.27828,-8.032103 -1.69068,0 -1.9165,0.348 -1.9165,2.917444 0,5.166397 -2.54409,8.797735 -3.8025,5.425934 -2.54259,-6.812671 -8.7474,-15.020518 -11.35249,-15.020518 -0.58906,0 -1.99916,1.839106 -3.1311,4.083187 -1.13196,2.244078 -2.40446,4.077088 -2.83203,4.077088 -0.42756,0 -1.95306,-1.657672 -3.38743,-3.686469 -2.84028,-4.017269 -7.59553,-8.178585 -9.34447,-8.178585 -0.62225,0 -1.50272,1.451097 -2.02637,3.338572 -0.532,1.917591 -1.40316,3.332469 -2.04466,3.332469 -0.61425,0 -2.17084,-1.890225 -3.46068,-4.205256 -3.59528,-6.452838 -10.84838,-10.545725 -11.59666,-6.542866 -0.78159,4.180978 -1.95903,7.043344 -2.90528,7.043344 -0.58272,0 -3.60568,-2.707766 -6.71384,-6.011866 -3.10815,-3.3041 -6.26746,-6.309106 -7.02512,-6.677144 -2.02859,-0.985378 -3.94287,-0.80705 -3.94287,0.360107 0,0.562056 -0.5371,1.419928 -1.19629,1.916472 -0.97753,0.736387 -1.83762,0.427387 -4.69349,-1.690641 -5.76594,-4.276306 -14.74031,-8.331353 -18.09687,-8.557038 z m -1.28785,0.787341 C 100.05103,50.761816 100,50.658601 100,50.618769 v 0.476069 c 0.006,-0.09984 0.0281,-0.192656 0.0609,-0.28075 z" 
		style="fill:#d0e0f0" />
</svg>