<?xml version="1.0" encoding="UTF-8" standalone="no"?>
<svg
	xmlns="http://www.w3.org/2000/svg"
	width="48"
	height="48"
	viewBox="0 0 48 48">
	<path
		d="M 24,8 A 16,16 0 0 0 8,24 16,16 0 0 0 24,40 16,16 0 0 0 40,24 16,16 0 0 0 24,8 Z m 6.638672,6.357422 a 1.6610978,1.6610978 0 0 1 1.666016,2.003906 1.6610978,1.6610978 0 0 1 -3.283204,-0.285156 l -3.474609,-0.744141 -1.070313,5.001953 c 0.152745,0.006 0.304357,0.01441 0.455079,0.02539 0.15072,0.01098 0.300689,0.02515 0.449218,0.04102 0.148531,0.01587 0.297188,0.03405 0.44336,0.05469 0.146172,0.02064 0.289949,0.04308 0.433593,0.06836 0.143646,0.02528 0.286784,0.05222 0.427735,0.08203 0.140951,0.02981 0.27988,0.06344 0.417969,0.09766 0.138088,0.03421 0.275097,0.06892 0.410156,0.107422 0.135059,0.0385 0.26853,0.08039 0.40039,0.123047 0.131862,0.04266 0.26213,0.08611 0.390626,0.132812 0.128494,0.0467 0.255896,0.09586 0.380859,0.146485 0.124962,0.05062 0.247879,0.103781 0.369141,0.158203 0.12126,0.05442 0.240029,0.10987 0.357421,0.167968 0.117393,0.0581 0.232349,0.118032 0.345703,0.179688 0.113356,0.06166 0.224834,0.126315 0.333985,0.191406 0.109151,0.06509 0.217488,0.130813 0.322265,0.199219 0.104779,0.06841 0.206403,0.13934 0.306641,0.210937 a 2.3293555,2.3293555 0 0 1 0.326172,-0.263671 2.3293555,2.3293555 0 0 1 0.369141,-0.203125 2.3293555,2.3293555 0 0 1 0.398437,-0.13086 2.3293555,2.3293555 0 0 1 0.414063,-0.05859 2.3293555,2.3293555 0 0 1 0.419922,0.01758 2.3293555,2.3293555 0 0 1 0.410156,0.0918 2.3293555,2.3293555 0 0 1 0.386718,0.164062 2.3293555,2.3293555 0 0 1 0.34961,0.230469 2.3293555,2.3293555 0 0 1 0.302734,0.291015 2.3293555,2.3293555 0 0 1 0.248047,0.339844 2.3293555,2.3293555 0 0 1 0.179688,0.378906 2.3293555,2.3293555 0 0 1 0.111328,0.404297 A 2.3293555,2.3293555 0 0 1 34.673828,24 c 0,0.119332 -0.01011,0.237042 -0.02734,0.351562 -0.01723,0.114522 -0.04306,0.225542 -0.07617,0.333985 -0.03311,0.108442 -0.07344,0.213357 -0.121093,0.314453 -0.04766,0.101096 -0.10125,0.198534 -0.16211,0.291016 -0.06086,0.09248 -0.128455,0.181072 -0.201171,0.263672 -0.07272,0.0826 -0.151142,0.159018 -0.234376,0.230468 -0.08323,0.07145 -0.171264,0.138234 -0.263671,0.197266 -0.09241,0.05903 -0.188824,0.110904 -0.289063,0.15625 a 4.3914079,4.3914079 0 0 1 0.05664,0.707031 c 0,0.112768 -0.0037,0.224616 -0.01172,0.335938 -0.0081,0.111321 -0.02117,0.220337 -0.03711,0.330078 -0.01594,0.109741 -0.03498,0.220099 -0.05859,0.328125 -0.02362,0.108026 -0.05093,0.214135 -0.08203,0.320312 -0.0311,0.106177 -0.06513,0.212213 -0.103516,0.316406 -0.03839,0.104195 -0.08148,0.206517 -0.126953,0.308594 -0.04548,0.102078 -0.09411,0.202908 -0.146485,0.302735 -0.05237,0.09983 -0.108899,0.199433 -0.167968,0.296875 -0.05907,0.09744 -0.119975,0.194139 -0.185547,0.289062 -0.06557,0.09492 -0.135153,0.187027 -0.207031,0.279297 -0.07188,0.09227 -0.14662,0.183956 -0.22461,0.273437 -0.07799,0.08948 -0.160235,0.17711 -0.24414,0.263672 -0.08391,0.08656 -0.170141,0.172353 -0.259766,0.25586 -0.08963,0.08351 -0.182195,0.165775 -0.277344,0.246094 -0.09515,0.08032 -0.192493,0.159333 -0.292968,0.236328 -0.100477,0.077 -0.202986,0.151071 -0.308594,0.224609 -0.105609,0.07354 -0.213674,0.144897 -0.324219,0.214844 -0.110545,0.06995 -0.224558,0.138856 -0.339844,0.205078 -0.115285,0.06622 -0.231732,0.130996 -0.351562,0.193359 -0.119831,0.06236 -0.243008,0.121318 -0.367188,0.179688 -0.124179,0.05837 -0.250573,0.115679 -0.378906,0.169922 -0.128333,0.05424 -0.258335,0.106268 -0.390625,0.15625 -0.13229,0.04998 -0.266292,0.09699 -0.402344,0.142578 -0.136052,0.04559 -0.274444,0.0898 -0.414062,0.130859 -0.139618,0.04106 -0.280841,0.08079 -0.423828,0.117188 -0.142989,0.03639 -0.287432,0.06997 -0.433594,0.101562 -0.146163,0.0316 -0.294218,0.06123 -0.44336,0.08789 -0.14914,0.02667 -0.299248,0.05066 -0.451171,0.07227 -0.151924,0.0216 -0.304474,0.04024 -0.458985,0.05664 -0.154511,0.0164 -0.311847,0.02995 -0.46875,0.04102 -0.156902,0.01107 -0.313558,0.01979 -0.472656,0.02539 -0.159098,0.0056 -0.319371,0.0078 -0.480469,0.0078 -0.161097,0 -0.321371,-0.0022 -0.480469,-0.0078 -0.159096,-0.0056 -0.317706,-0.01425 -0.474609,-0.02539 -0.156902,-0.01114 -0.312286,-0.02452 -0.466797,-0.04102 -0.154511,-0.0165 -0.30706,-0.03687 -0.458984,-0.05859 -0.151924,-0.02172 -0.303984,-0.04546 -0.453125,-0.07227 -0.149141,-0.02681 -0.295245,-0.05613 -0.441406,-0.08789 -0.146163,-0.03176 -0.292559,-0.06695 -0.435547,-0.103516 -0.142988,-0.03657 -0.284211,-0.07399 -0.423828,-0.115234 -0.139618,-0.04124 -0.276058,-0.08508 -0.41211,-0.130859 -0.136052,-0.04578 -0.272006,-0.09435 -0.404297,-0.144532 -0.132289,-0.05018 -0.262292,-0.101808 -0.390625,-0.15625 -0.128331,-0.05444 -0.254726,-0.111357 -0.378906,-0.169921 -0.124179,-0.05857 -0.245404,-0.119089 -0.365234,-0.181641 -0.119831,-0.06255 -0.23823,-0.126959 -0.353516,-0.193359 -0.115285,-0.0664 -0.227347,-0.134965 -0.33789,-0.205079 -0.110545,-0.07011 -0.218611,-0.141156 -0.324219,-0.214843 -0.105609,-0.07369 -0.208118,-0.149439 -0.308594,-0.226563 -0.100476,-0.07712 -0.199774,-0.155905 -0.294922,-0.236328 -0.09515,-0.08042 -0.187719,-0.162509 -0.277344,-0.246094 -0.08962,-0.08358 -0.17586,-0.16925 -0.259765,-0.255859 -0.08391,-0.08661 -0.164198,-0.174177 -0.242188,-0.263672 -0.07799,-0.08949 -0.15273,-0.181193 -0.224609,-0.273438 -0.07188,-0.09224 -0.14146,-0.186394 -0.207031,-0.28125 -0.06557,-0.09485 -0.128431,-0.189779 -0.1875,-0.287109 -0.05907,-0.09733 -0.113645,-0.197209 -0.166016,-0.296875 -0.05237,-0.09967 -0.102961,-0.198916 -0.148438,-0.300781 -0.04547,-0.101865 -0.08661,-0.204667 -0.125,-0.308594 -0.03838,-0.103927 -0.07241,-0.210555 -0.103515,-0.316406 -0.0311,-0.105851 -0.05841,-0.212675 -0.08203,-0.320313 -0.02362,-0.107637 -0.04461,-0.214932 -0.06055,-0.324218 -0.01594,-0.109287 -0.02709,-0.219282 -0.03516,-0.330078 -0.0081,-0.110798 -0.01367,-0.221813 -0.01367,-0.333985 0,-0.124105 0.0061,-0.244383 0.01563,-0.361328 0.0095,-0.116945 0.02387,-0.231145 0.04297,-0.345703 a 2.3293555,2.3293555 0 0 1 -0.566406,-0.363281 2.3293555,2.3293555 0 0 1 -0.439453,-0.511719 2.3293555,2.3293555 0 0 1 -0.275391,-0.615234 2.3293555,2.3293555 0 0 1 -0.08594,-0.667969 2.3293555,2.3293555 0 0 1 0.107422,-0.664063 2.3293555,2.3293555 0 0 1 0.292969,-0.607422 2.3293555,2.3293555 0 0 1 0.455078,-0.496093 2.3293555,2.3293555 0 0 1 0.578125,-0.345703 2.3293555,2.3293555 0 0 1 0.652343,-0.166016 2.3293555,2.3293555 0 0 1 0.673828,0.02734 2.3293555,2.3293555 0 0 1 0.636719,0.21875 2.3293555,2.3293555 0 0 1 0.548828,0.392578 c 0.101432,-0.07279 0.204431,-0.145394 0.310547,-0.214844 0.106117,-0.06945 0.213595,-0.137138 0.324219,-0.203125 0.110624,-0.06599 0.224889,-0.129004 0.339844,-0.191406 0.114954,-0.0624 0.230501,-0.122945 0.349609,-0.181641 0.119108,-0.0587 0.240197,-0.117006 0.363281,-0.171875 0.123084,-0.05487 0.248118,-0.107282 0.375,-0.158203 0.126883,-0.05092 0.256214,-0.09963 0.386719,-0.146484 0.130505,-0.04685 0.262536,-0.09211 0.396484,-0.134766 0.13395,-0.04266 0.270986,-0.08274 0.408204,-0.121094 0.137216,-0.03835 0.275707,-0.07546 0.416015,-0.109375 0.140308,-0.03392 0.282561,-0.06439 0.425781,-0.09375 0.143222,-0.02936 0.287637,-0.05734 0.433594,-0.08203 0.145958,-0.02469 0.292891,-0.04652 0.441406,-0.06641 0.148517,-0.01989 0.298321,-0.03776 0.449219,-0.05273 0.150899,-0.01497 0.301976,-0.02718 0.455078,-0.03711 0.153104,-0.0099 0.30776,-0.01671 0.462891,-0.02148 l 1.183594,-5.576172 a 0.38186156,0.38186156 0 0 1 0.05664,-0.152344 0.38186156,0.38186156 0 0 1 0.115235,-0.115234 c 0.01909,-0.01432 0.04118,-0.02561 0.06445,-0.03516 0.02327,-0.0095 0.04797,-0.01671 0.07422,-0.02148 0.02625,-0.0048 0.05399,-0.0059 0.08203,-0.0059 0.02804,-10e-7 0.0573,0.0011 0.08594,0.0059 l 3.875,0.822266 a 1.6610978,1.6610978 0 0 1 1.445313,-0.917969 z m -10.402344,9.644531 a 1.661098,1.661098 0 0 0 -0.191406,0.02344 1.661098,1.661098 0 0 0 -0.541016,0.197265 1.661098,1.661098 0 0 0 -0.441406,0.371094 1.661098,1.661098 0 0 0 -0.289062,0.5 1.661098,1.661098 0 0 0 -0.09961,0.566406 1.661098,1.661098 0 0 0 0.09961,0.56836 1.661098,1.661098 0 0 0 0.289062,0.5 1.661098,1.661098 0 0 0 0.441406,0.371093 1.661098,1.661098 0 0 0 0.541016,0.197266 1.661098,1.661098 0 0 0 0.578125,0 1.661098,1.661098 0 0 0 0.541015,-0.197266 1.661098,1.661098 0 0 0 0.44336,-0.371093 1.661098,1.661098 0 0 0 0.287109,-0.5 1.661098,1.661098 0 0 0 0.101563,-0.56836 1.661098,1.661098 0 0 0 -0.101563,-0.566406 1.661098,1.661098 0 0 0 -0.287109,-0.5 1.661098,1.661098 0 0 0 -0.44336,-0.371094 1.661098,1.661098 0 0 0 -0.541015,-0.197265 1.661098,1.661098 0 0 0 -0.386719,-0.02344 z m 7.429688,0.01758 a 1.661098,1.661098 0 0 0 -0.56836,0.09961 1.661098,1.661098 0 0 0 -0.5,0.289062 1.661098,1.661098 0 0 0 -0.371094,0.441406 1.661098,1.661098 0 0 0 -0.197265,0.542969 1.661098,1.661098 0 0 0 0,0.576172 1.661098,1.661098 0 0 0 0.197265,0.541016 1.661098,1.661098 0 0 0 0.371094,0.443359 1.661098,1.661098 0 0 0 0.5,0.287109 1.661098,1.661098 0 0 0 0.56836,0.101563 1.661098,1.661098 0 0 0 0.568359,-0.101563 1.661098,1.661098 0 0 0 0.5,-0.287109 1.661098,1.661098 0 0 0 0.369141,-0.443359 1.661098,1.661098 0 0 0 0.197265,-0.541016 1.661098,1.661098 0 0 0 0,-0.576172 1.661098,1.661098 0 0 0 -0.197265,-0.542969 1.661098,1.661098 0 0 0 -0.369141,-0.441406 1.661098,1.661098 0 0 0 -0.5,-0.289062 1.661098,1.661098 0 0 0 -0.568359,-0.09961 z m -7.292969,5.3125 c -0.02745,0 -0.05496,0.0024 -0.08203,0.0078 -0.02707,0.0054 -0.05412,0.0127 -0.08008,0.02344 -0.02595,0.01074 -0.05208,0.02491 -0.07617,0.04102 -0.02409,0.01611 -0.04688,0.03516 -0.06836,0.05664 -0.02148,0.02148 -0.04053,0.04427 -0.05664,0.06836 -0.01611,0.02409 -0.02832,0.04826 -0.03906,0.07422 -0.01074,0.02595 -0.02002,0.053 -0.02539,0.08008 -0.0054,0.02707 -0.0078,0.05458 -0.0078,0.08203 0,0.02745 0.0024,0.05496 0.0078,0.08203 0.0054,0.02707 0.01465,0.05412 0.02539,0.08008 0.01074,0.02595 0.02295,0.05208 0.03906,0.07617 0.01611,0.02409 0.03516,0.04688 0.05664,0.06836 0.07041,0.07041 0.144677,0.136639 0.222656,0.199218 0.07798,0.06258 0.159845,0.120572 0.244141,0.175782 0.0843,0.05521 0.172365,0.107953 0.261719,0.15625 0.08935,0.0483 0.180284,0.09293 0.273437,0.134765 0.09315,0.04184 0.187511,0.07939 0.283203,0.115235 0.09569,0.03584 0.192087,0.06931 0.289063,0.09961 0.09698,0.0303 0.194017,0.05877 0.291016,0.08398 0.097,0.02521 0.195252,0.04777 0.291015,0.06836 0.191527,0.04117 0.379559,0.07226 0.558594,0.09766 0.179035,0.02539 0.347433,0.04532 0.503906,0.05859 0.156474,0.01328 0.299985,0.02058 0.423828,0.02539 0.123844,0.0048 0.229402,0.0059 0.310547,0.0059 0.07876,0 0.180681,-0.0015 0.302735,-0.0059 0.122054,-0.0043 0.264641,-0.01091 0.419922,-0.02344 0.155279,-0.01253 0.323515,-0.03008 0.501953,-0.05469 0.178437,-0.02461 0.367067,-0.05708 0.558593,-0.09766 0.09576,-0.02029 0.191915,-0.0414 0.289063,-0.06641 0.09715,-0.025 0.193743,-0.05378 0.291015,-0.08398 0.09727,-0.03021 0.194875,-0.06176 0.291016,-0.09766 0.09614,-0.03589 0.191406,-0.07512 0.285156,-0.117187 0.09375,-0.04207 0.185291,-0.088 0.275391,-0.136719 0.0901,-0.04872 0.17848,-0.100388 0.263672,-0.15625 0.08519,-0.05586 0.167069,-0.1162 0.246094,-0.179687 0.07902,-0.06349 0.154963,-0.129573 0.226562,-0.201172 0.01909,-0.02148 0.03646,-0.04427 0.05078,-0.06836 0.01432,-0.02409 0.02561,-0.05022 0.03516,-0.07617 0.0095,-0.02595 0.01671,-0.053 0.02148,-0.08008 0.0048,-0.02707 0.0078,-0.05458 0.0078,-0.08203 0,-0.02745 -0.003,-0.05496 -0.0078,-0.08203 -0.0048,-0.02707 -0.01194,-0.05412 -0.02148,-0.08008 -0.0095,-0.02595 -0.02084,-0.05013 -0.03516,-0.07422 -0.01432,-0.02409 -0.03169,-0.04688 -0.05078,-0.06836 -0.02148,-0.02148 -0.04427,-0.04053 -0.06836,-0.05664 -0.02409,-0.01611 -0.04826,-0.03028 -0.07422,-0.04102 -0.02595,-0.01074 -0.05301,-0.01807 -0.08008,-0.02344 -0.02707,-0.0054 -0.05458,-0.0078 -0.08203,-0.0078 -0.02745,0 -0.05496,0.0024 -0.08203,0.0078 -0.02707,0.0054 -0.05412,0.0127 -0.08008,0.02344 -0.02595,0.01074 -0.05013,0.02491 -0.07422,0.04102 -0.02409,0.01611 -0.04688,0.03516 -0.06836,0.05664 -0.04415,0.04535 -0.09218,0.08919 -0.142578,0.130859 -0.0504,0.04167 -0.104145,0.08103 -0.160156,0.119141 -0.05601,0.03811 -0.114792,0.07471 -0.175782,0.109374 -0.06099,0.03466 -0.124119,0.06633 -0.189453,0.09766 -0.130667,0.06265 -0.26982,0.119952 -0.414062,0.169922 -0.144242,0.04997 -0.294521,0.09267 -0.447266,0.130859 -0.152744,0.03819 -0.306716,0.07231 -0.46289,0.09961 -0.156176,0.0273 -0.314217,0.0491 -0.46875,0.06641 -0.154535,0.0173 -0.307256,0.02891 -0.455079,0.03711 -0.147821,0.0082 -0.289743,0.01172 -0.425781,0.01172 -0.136038,0 -0.278444,-0.0035 -0.425781,-0.01172 -0.147337,-0.0082 -0.299336,-0.01981 -0.453125,-0.03711 -0.153789,-0.0173 -0.309452,-0.03911 -0.464844,-0.06641 -0.155392,-0.0273 -0.310744,-0.06142 -0.46289,-0.09961 -0.152148,-0.03819 -0.301257,-0.08089 -0.445313,-0.130859 -0.144055,-0.04997 -0.282948,-0.107273 -0.414062,-0.169922 -0.06556,-0.03132 -0.129993,-0.06299 -0.191407,-0.09766 -0.06141,-0.03466 -0.12107,-0.07126 -0.177734,-0.109374 -0.05666,-0.03811 -0.110801,-0.07747 -0.162109,-0.119141 -0.05131,-0.04167 -0.09919,-0.08551 -0.144532,-0.130859 -0.02148,-0.02148 -0.04427,-0.04053 -0.06836,-0.05664 -0.02409,-0.01611 -0.05022,-0.03028 -0.07617,-0.04102 -0.02596,-0.01074 -0.05105,-0.01807 -0.07813,-0.02344 -0.02707,-0.0054 -0.05459,-0.0078 -0.08203,-0.0078 z"
		style="fill:#808080" />
</svg>