<?xml version="1.0" encoding="UTF-8" standalone="no"?>
<svg
   viewBox="0 0 48 48"
   version="1.1"
   id="svg12"
   sodipodi:docname="reddit.svg"
   inkscape:version="1.2.2 (b0a8486541, 2022-12-01)"
   width="48"
   height="48"
   xmlns:inkscape="http://www.inkscape.org/namespaces/inkscape"
   xmlns:sodipodi="http://sodipodi.sourceforge.net/DTD/sodipodi-0.dtd"
   xmlns="http://www.w3.org/2000/svg"
   xmlns:svg="http://www.w3.org/2000/svg"
   xmlns:rdf="http://www.w3.org/1999/02/22-rdf-syntax-ns#"
   xmlns:cc="http://creativecommons.org/ns#"
   xmlns:dc="http://purl.org/dc/elements/1.1/">
  <path
     id="circle8"
     style="stroke-width:0.190931;fill:#808080"
     class="st0"
     d="M 24 8 A 16 16 0 0 0 8 24 A 16 16 0 0 0 24 40 A 16 16 0 0 0 40 24 A 16 16 0 0 0 24 8 z M 30.638672 14.357422 A 1.6610978 1.6610978 0 0 1 32.304688 16.361328 A 1.6610978 1.6610978 0 0 1 29.021484 16.076172 L 25.546875 15.332031 L 24.476562 20.333984 C 24.629307 20.339951 24.780919 20.348397 24.931641 20.359375 C 25.082361 20.370353 25.23233 20.384523 25.380859 20.400391 C 25.52939 20.416258 25.678047 20.434442 25.824219 20.455078 C 25.970391 20.475714 26.114168 20.498154 26.257812 20.523438 C 26.401458 20.54872 26.544596 20.575659 26.685547 20.605469 C 26.826498 20.635278 26.965427 20.66891 27.103516 20.703125 C 27.241604 20.73734 27.378613 20.772048 27.513672 20.810547 C 27.648731 20.849045 27.782202 20.890933 27.914062 20.933594 C 28.045924 20.976255 28.176192 21.019704 28.304688 21.066406 C 28.433182 21.113109 28.560584 21.162268 28.685547 21.212891 C 28.810509 21.263513 28.933426 21.316672 29.054688 21.371094 C 29.175948 21.425515 29.294717 21.480964 29.412109 21.539062 C 29.529502 21.597162 29.644458 21.657094 29.757812 21.71875 C 29.871168 21.780406 29.982646 21.845065 30.091797 21.910156 C 30.200948 21.975248 30.309285 22.040969 30.414062 22.109375 C 30.518841 22.177781 30.620465 22.248715 30.720703 22.320312 A 2.3293555 2.3293555 0 0 1 31.046875 22.056641 A 2.3293555 2.3293555 0 0 1 31.416016 21.853516 A 2.3293555 2.3293555 0 0 1 31.814453 21.722656 A 2.3293555 2.3293555 0 0 1 32.228516 21.664062 A 2.3293555 2.3293555 0 0 1 32.648438 21.681641 A 2.3293555 2.3293555 0 0 1 33.058594 21.773438 A 2.3293555 2.3293555 0 0 1 33.445312 21.9375 A 2.3293555 2.3293555 0 0 1 33.794922 22.167969 A 2.3293555 2.3293555 0 0 1 34.097656 22.458984 A 2.3293555 2.3293555 0 0 1 34.345703 22.798828 A 2.3293555 2.3293555 0 0 1 34.525391 23.177734 A 2.3293555 2.3293555 0 0 1 34.636719 23.582031 A 2.3293555 2.3293555 0 0 1 34.673828 24 C 34.673828 24.119332 34.663713 24.237042 34.646484 24.351562 C 34.629256 24.466084 34.603427 24.577104 34.570312 24.685547 C 34.537199 24.793989 34.496877 24.898904 34.449219 25 C 34.401561 25.101096 34.347969 25.198534 34.287109 25.291016 C 34.22625 25.383498 34.158654 25.472088 34.085938 25.554688 C 34.01322 25.637286 33.934796 25.713706 33.851562 25.785156 C 33.76833 25.856606 33.680298 25.92339 33.587891 25.982422 C 33.495483 26.041454 33.399067 26.093326 33.298828 26.138672 A 4.3914079 4.3914079 0 0 1 33.355469 26.845703 C 33.355469 26.958471 33.351819 27.070319 33.34375 27.181641 C 33.335681 27.292962 33.322583 27.401978 33.306641 27.511719 C 33.290699 27.62146 33.271666 27.731818 33.248047 27.839844 C 33.224428 27.94787 33.197116 28.053979 33.166016 28.160156 C 33.134915 28.266333 33.100887 28.372369 33.0625 28.476562 C 33.024113 28.580757 32.981023 28.683079 32.935547 28.785156 C 32.89007 28.887234 32.841433 28.988064 32.789062 29.087891 C 32.736693 29.187717 32.680163 29.287324 32.621094 29.384766 C 32.562025 29.482207 32.501119 29.578905 32.435547 29.673828 C 32.369975 29.768751 32.300394 29.860855 32.228516 29.953125 C 32.156637 30.045395 32.081896 30.137081 32.003906 30.226562 C 31.925917 30.316045 31.843671 30.403672 31.759766 30.490234 C 31.675861 30.576796 31.589625 30.662587 31.5 30.746094 C 31.410375 30.829601 31.317805 30.911869 31.222656 30.992188 C 31.127508 31.072505 31.030163 31.151521 30.929688 31.228516 C 30.829211 31.305511 30.726702 31.379587 30.621094 31.453125 C 30.515485 31.526663 30.40742 31.598022 30.296875 31.667969 C 30.18633 31.737916 30.072317 31.806825 29.957031 31.873047 C 29.841746 31.939269 29.725299 32.004043 29.605469 32.066406 C 29.485638 32.128769 29.362461 32.187724 29.238281 32.246094 C 29.114102 32.304464 28.987708 32.361773 28.859375 32.416016 C 28.731042 32.470258 28.60104 32.522284 28.46875 32.572266 C 28.33646 32.622247 28.202458 32.669257 28.066406 32.714844 C 27.930354 32.76043 27.791962 32.804646 27.652344 32.845703 C 27.512726 32.886761 27.371503 32.926496 27.228516 32.962891 C 27.085527 32.999285 26.941084 33.032856 26.794922 33.064453 C 26.648759 33.09605 26.500704 33.125678 26.351562 33.152344 C 26.202422 33.17901 26.052314 33.203008 25.900391 33.224609 C 25.748467 33.24621 25.595917 33.264848 25.441406 33.28125 C 25.286895 33.297652 25.129559 33.311197 24.972656 33.322266 C 24.815754 33.333334 24.659098 33.342055 24.5 33.347656 C 24.340902 33.353257 24.180629 33.355469 24.019531 33.355469 C 23.858434 33.355469 23.69816 33.353293 23.539062 33.347656 C 23.379966 33.342019 23.221356 33.333402 23.064453 33.322266 C 22.907551 33.31113 22.752167 33.297748 22.597656 33.28125 C 22.443145 33.264752 22.290596 33.244378 22.138672 33.222656 C 21.986748 33.200934 21.834688 33.177199 21.685547 33.150391 C 21.536406 33.123582 21.390302 33.094258 21.244141 33.0625 C 21.097978 33.030742 20.951582 32.995554 20.808594 32.958984 C 20.665606 32.922415 20.524383 32.884994 20.384766 32.84375 C 20.245148 32.802506 20.108708 32.758671 19.972656 32.712891 C 19.836604 32.66711 19.70065 32.618539 19.568359 32.568359 C 19.43607 32.518179 19.306067 32.466551 19.177734 32.412109 C 19.049403 32.357668 18.923008 32.300752 18.798828 32.242188 C 18.674649 32.183622 18.553424 32.123099 18.433594 32.060547 C 18.313763 31.997995 18.195364 31.933588 18.080078 31.867188 C 17.964793 31.800786 17.852731 31.732223 17.742188 31.662109 C 17.631643 31.591996 17.523577 31.520953 17.417969 31.447266 C 17.31236 31.373578 17.209851 31.297827 17.109375 31.220703 C 17.008899 31.143579 16.909601 31.064798 16.814453 30.984375 C 16.719305 30.903952 16.626734 30.821866 16.537109 30.738281 C 16.447485 30.654697 16.361249 30.569031 16.277344 30.482422 C 16.193439 30.395813 16.113146 30.308245 16.035156 30.21875 C 15.957167 30.129255 15.882426 30.037557 15.810547 29.945312 C 15.738668 29.853069 15.669087 29.758918 15.603516 29.664062 C 15.537944 29.569208 15.475085 29.474283 15.416016 29.376953 C 15.356946 29.279623 15.302371 29.179744 15.25 29.080078 C 15.197629 28.980412 15.147039 28.881162 15.101562 28.779297 C 15.056087 28.677432 15.014949 28.57463 14.976562 28.470703 C 14.938177 28.366776 14.904148 28.260148 14.873047 28.154297 C 14.841946 28.048446 14.814635 27.941622 14.791016 27.833984 C 14.767396 27.726347 14.746411 27.619052 14.730469 27.509766 C 14.714527 27.400479 14.703381 27.290484 14.695312 27.179688 C 14.687245 27.06889 14.681641 26.957875 14.681641 26.845703 C 14.681641 26.721598 14.687719 26.60132 14.697266 26.484375 C 14.706812 26.36743 14.721139 26.25323 14.740234 26.138672 A 2.3293555 2.3293555 0 0 1 14.173828 25.775391 A 2.3293555 2.3293555 0 0 1 13.734375 25.263672 A 2.3293555 2.3293555 0 0 1 13.458984 24.648438 A 2.3293555 2.3293555 0 0 1 13.373047 23.980469 A 2.3293555 2.3293555 0 0 1 13.480469 23.316406 A 2.3293555 2.3293555 0 0 1 13.773438 22.708984 A 2.3293555 2.3293555 0 0 1 14.228516 22.212891 A 2.3293555 2.3293555 0 0 1 14.806641 21.867188 A 2.3293555 2.3293555 0 0 1 15.458984 21.701172 A 2.3293555 2.3293555 0 0 1 16.132812 21.728516 A 2.3293555 2.3293555 0 0 1 16.769531 21.947266 A 2.3293555 2.3293555 0 0 1 17.318359 22.339844 C 17.419791 22.267051 17.52279 22.19445 17.628906 22.125 C 17.735023 22.05555 17.842501 21.987862 17.953125 21.921875 C 18.063749 21.855888 18.178014 21.792871 18.292969 21.730469 C 18.407923 21.668067 18.52347 21.607524 18.642578 21.548828 C 18.761686 21.490132 18.882775 21.431822 19.005859 21.376953 C 19.128943 21.322084 19.253977 21.269671 19.380859 21.21875 C 19.507742 21.167829 19.637073 21.119117 19.767578 21.072266 C 19.898083 21.025414 20.030114 20.980161 20.164062 20.9375 C 20.298012 20.894839 20.435048 20.854756 20.572266 20.816406 C 20.709482 20.778057 20.847973 20.740948 20.988281 20.707031 C 21.128589 20.673115 21.270842 20.642643 21.414062 20.613281 C 21.557284 20.583919 21.701699 20.555937 21.847656 20.53125 C 21.993614 20.506563 22.140547 20.484734 22.289062 20.464844 C 22.437579 20.444954 22.587383 20.427082 22.738281 20.412109 C 22.88918 20.397137 23.040257 20.384933 23.193359 20.375 C 23.346463 20.365067 23.501119 20.358289 23.65625 20.353516 L 24.839844 14.777344 A 0.38186156 0.38186156 0 0 1 24.896484 14.625 A 0.38186156 0.38186156 0 0 1 25.011719 14.509766 C 25.030812 14.495446 25.052902 14.484156 25.076172 14.474609 C 25.099442 14.465063 25.124138 14.457898 25.150391 14.453125 C 25.176644 14.448352 25.204379 14.447266 25.232422 14.447266 C 25.260465 14.447265 25.28972 14.448353 25.318359 14.453125 L 29.193359 15.275391 A 1.6610978 1.6610978 0 0 1 30.638672 14.357422 z M 20.236328 24.001953 A 1.661098 1.661098 0 0 0 20.044922 24.025391 A 1.661098 1.661098 0 0 0 19.503906 24.222656 A 1.661098 1.661098 0 0 0 19.0625 24.59375 A 1.661098 1.661098 0 0 0 18.773438 25.09375 A 1.661098 1.661098 0 0 0 18.673828 25.660156 A 1.661098 1.661098 0 0 0 18.773438 26.228516 A 1.661098 1.661098 0 0 0 19.0625 26.728516 A 1.661098 1.661098 0 0 0 19.503906 27.099609 A 1.661098 1.661098 0 0 0 20.044922 27.296875 A 1.661098 1.661098 0 0 0 20.623047 27.296875 A 1.661098 1.661098 0 0 0 21.164062 27.099609 A 1.661098 1.661098 0 0 0 21.607422 26.728516 A 1.661098 1.661098 0 0 0 21.894531 26.228516 A 1.661098 1.661098 0 0 0 21.996094 25.660156 A 1.661098 1.661098 0 0 0 21.894531 25.09375 A 1.661098 1.661098 0 0 0 21.607422 24.59375 A 1.661098 1.661098 0 0 0 21.164062 24.222656 A 1.661098 1.661098 0 0 0 20.623047 24.025391 A 1.661098 1.661098 0 0 0 20.236328 24.001953 z M 27.666016 24.019531 A 1.661098 1.661098 0 0 0 27.097656 24.119141 A 1.661098 1.661098 0 0 0 26.597656 24.408203 A 1.661098 1.661098 0 0 0 26.226562 24.849609 A 1.661098 1.661098 0 0 0 26.029297 25.392578 A 1.661098 1.661098 0 0 0 26.029297 25.96875 A 1.661098 1.661098 0 0 0 26.226562 26.509766 A 1.661098 1.661098 0 0 0 26.597656 26.953125 A 1.661098 1.661098 0 0 0 27.097656 27.240234 A 1.661098 1.661098 0 0 0 27.666016 27.341797 A 1.661098 1.661098 0 0 0 28.234375 27.240234 A 1.661098 1.661098 0 0 0 28.734375 26.953125 A 1.661098 1.661098 0 0 0 29.103516 26.509766 A 1.661098 1.661098 0 0 0 29.300781 25.96875 A 1.661098 1.661098 0 0 0 29.300781 25.392578 A 1.661098 1.661098 0 0 0 29.103516 24.849609 A 1.661098 1.661098 0 0 0 28.734375 24.408203 A 1.661098 1.661098 0 0 0 28.234375 24.119141 A 1.661098 1.661098 0 0 0 27.666016 24.019531 z M 20.373047 29.332031 C 20.345601 29.332031 20.318089 29.334474 20.291016 29.339844 C 20.263942 29.345214 20.236891 29.352541 20.210938 29.363281 C 20.184983 29.374021 20.158856 29.388187 20.134766 29.404297 C 20.110676 29.420407 20.087886 29.439458 20.066406 29.460938 C 20.044927 29.482416 20.025875 29.505207 20.009766 29.529297 C 19.993656 29.553387 19.981443 29.577561 19.970703 29.603516 C 19.959963 29.62947 19.950682 29.65652 19.945312 29.683594 C 19.939944 29.710667 19.9375 29.738179 19.9375 29.765625 C 19.9375 29.793071 19.939944 29.820583 19.945312 29.847656 C 19.950682 29.87473 19.959963 29.90178 19.970703 29.927734 C 19.981443 29.953689 19.993656 29.979816 20.009766 30.003906 C 20.025875 30.027996 20.044927 30.050786 20.066406 30.072266 C 20.136812 30.142671 20.211083 30.208905 20.289062 30.271484 C 20.367043 30.334063 20.448907 30.392056 20.533203 30.447266 C 20.6175 30.502475 20.705568 30.555219 20.794922 30.603516 C 20.884276 30.651812 20.975206 30.696441 21.068359 30.738281 C 21.161513 30.780122 21.25587 30.817674 21.351562 30.853516 C 21.447256 30.889357 21.543649 30.922826 21.640625 30.953125 C 21.737601 30.983424 21.834642 31.011896 21.931641 31.037109 C 22.02864 31.062323 22.126893 31.084884 22.222656 31.105469 C 22.414183 31.146638 22.602215 31.17773 22.78125 31.203125 C 22.960285 31.22852 23.128683 31.248443 23.285156 31.261719 C 23.44163 31.274995 23.585141 31.282299 23.708984 31.287109 C 23.832828 31.29192 23.938386 31.292969 24.019531 31.292969 C 24.09829 31.292969 24.200212 31.291435 24.322266 31.287109 C 24.44432 31.282784 24.586907 31.276202 24.742188 31.263672 C 24.897467 31.251142 25.065703 31.233597 25.244141 31.208984 C 25.422578 31.184372 25.611208 31.151901 25.802734 31.111328 C 25.898498 31.091042 25.994649 31.069926 26.091797 31.044922 C 26.188945 31.019918 26.28554 30.991142 26.382812 30.960938 C 26.480086 30.930732 26.577687 30.899174 26.673828 30.863281 C 26.769969 30.827389 26.865234 30.788158 26.958984 30.746094 C 27.052734 30.704029 27.144275 30.658096 27.234375 30.609375 C 27.324475 30.560654 27.412855 30.508987 27.498047 30.453125 C 27.583238 30.397263 27.665116 30.336925 27.744141 30.273438 C 27.823165 30.209949 27.899104 30.143865 27.970703 30.072266 C 27.989796 30.050786 28.007165 30.027996 28.021484 30.003906 C 28.035804 29.979816 28.047094 29.953689 28.056641 29.927734 C 28.066187 29.90178 28.073352 29.87473 28.078125 29.847656 C 28.082898 29.820583 28.085938 29.793071 28.085938 29.765625 C 28.085938 29.738179 28.082898 29.710667 28.078125 29.683594 C 28.073352 29.65652 28.066187 29.62947 28.056641 29.603516 C 28.047094 29.577561 28.035804 29.553387 28.021484 29.529297 C 28.007165 29.505207 27.989796 29.482416 27.970703 29.460938 C 27.949224 29.439458 27.926434 29.420407 27.902344 29.404297 C 27.878254 29.388187 27.85408 29.374021 27.828125 29.363281 C 27.80217 29.352541 27.77512 29.345214 27.748047 29.339844 C 27.720974 29.334474 27.693462 29.332031 27.666016 29.332031 C 27.638569 29.332031 27.611058 29.334474 27.583984 29.339844 C 27.556911 29.345214 27.529861 29.352541 27.503906 29.363281 C 27.477952 29.374021 27.453777 29.388187 27.429688 29.404297 C 27.405597 29.420407 27.382808 29.439458 27.361328 29.460938 C 27.317175 29.506283 27.269149 29.550124 27.21875 29.591797 C 27.168351 29.63347 27.114605 29.672826 27.058594 29.710938 C 27.002582 29.749048 26.943802 29.785651 26.882812 29.820312 C 26.821824 29.854975 26.758693 29.886644 26.693359 29.917969 C 26.562692 29.980618 26.423539 30.037921 26.279297 30.087891 C 26.135055 30.137861 25.984776 30.180564 25.832031 30.21875 C 25.679287 30.256936 25.525315 30.291062 25.369141 30.318359 C 25.212965 30.345656 25.054924 30.367463 24.900391 30.384766 C 24.745856 30.402069 24.593135 30.413671 24.445312 30.421875 C 24.297491 30.430079 24.155569 30.433594 24.019531 30.433594 C 23.883493 30.433594 23.741087 30.430079 23.59375 30.421875 C 23.446413 30.413671 23.294414 30.402069 23.140625 30.384766 C 22.986836 30.367463 22.831173 30.345656 22.675781 30.318359 C 22.520389 30.291062 22.365037 30.256936 22.212891 30.21875 C 22.060743 30.180564 21.911634 30.137861 21.767578 30.087891 C 21.623523 30.037921 21.48463 29.980618 21.353516 29.917969 C 21.287958 29.886644 21.223523 29.854975 21.162109 29.820312 C 21.100696 29.785651 21.041039 29.749048 20.984375 29.710938 C 20.927711 29.672826 20.873574 29.63347 20.822266 29.591797 C 20.770958 29.550124 20.72308 29.506283 20.677734 29.460938 C 20.656255 29.439458 20.633465 29.420407 20.609375 29.404297 C 20.585285 29.388187 20.559158 29.374021 20.533203 29.363281 C 20.507248 29.352541 20.482152 29.345214 20.455078 29.339844 C 20.428005 29.334474 20.400493 29.332031 20.373047 29.332031 z " />
  <metadata
     id="metadata18">
    <rdf:RDF>
      <cc:Work
         rdf:about="">
        <dc:format>image/svg+xml</dc:format>
        <dc:type
           rdf:resource="http://purl.org/dc/dcmitype/StillImage" />
      </cc:Work>
    </rdf:RDF>
  </metadata>
  <defs
     id="defs16">
    <clipPath
       id="clipPath20">
      <path
         inkscape:connector-curvature="0"
         d="M 0,792 H 612 V 0 H 0 Z"
         id="path22" />
    </clipPath>
  </defs>
  <sodipodi:namedview
     pagecolor="#ffffff"
     bordercolor="#666666"
     borderopacity="1"
     objecttolerance="10"
     gridtolerance="10"
     guidetolerance="10"
     inkscape:pageopacity="0"
     inkscape:pageshadow="2"
     inkscape:window-width="1920"
     inkscape:window-height="1029"
     id="namedview14"
     showgrid="false"
     inkscape:zoom="10.848762"
     inkscape:cx="43.046387"
     inkscape:cy="28.528601"
     inkscape:window-x="0"
     inkscape:window-y="27"
     inkscape:window-maximized="1"
     inkscape:current-layer="svg12"
     inkscape:showpageshadow="2"
     inkscape:pagecheckerboard="true"
     inkscape:deskcolor="#d1d1d1" />
  <style
     id="style2">.st0{fill:#ff4500}</style>
  <g
     transform="matrix(4.8047042,0,0,-4.8047042,-1149.5506,2320.9742)"
     id="g12"
     inkscape:export-filename="C:\Users\suitedoalex\sites\reddit-logo-15.png"
     inkscape:export-xdpi="9.0086861"
     inkscape:export-ydpi="9.0086861">
    <g
       id="g16">
      <g
         clip-path="url(#clipPath20)"
         id="g18" />
    </g>
  </g>
</svg>
