<?xml version="1.0" encoding="UTF-8" standalone="no"?>
<svg
   height="48"
   viewBox="0 0 48 48"
   width="48"
   version="1.1"
   id="svg4"
   sodipodi:docname="refresh-w.svg"
   inkscape:version="1.2.2 (b0a8486541, 2022-12-01)"
   xmlns:inkscape="http://www.inkscape.org/namespaces/inkscape"
   xmlns:sodipodi="http://sodipodi.sourceforge.net/DTD/sodipodi-0.dtd"
   xmlns="http://www.w3.org/2000/svg"
   xmlns:svg="http://www.w3.org/2000/svg">
  <defs
     id="defs8" />
  <sodipodi:namedview
     id="namedview6"
     pagecolor="#ffffff"
     bordercolor="#666666"
     borderopacity="1.0"
     inkscape:showpageshadow="2"
     inkscape:pageopacity="0.0"
     inkscape:pagecheckerboard="true"
     inkscape:deskcolor="#d1d1d1"
     showgrid="false"
     inkscape:zoom="12.536414"
     inkscape:cx="33.981009"
     inkscape:cy="24.329126"
     inkscape:window-width="1920"
     inkscape:window-height="1030"
     inkscape:window-x="0"
     inkscape:window-y="27"
     inkscape:window-maximized="1"
     inkscape:current-layer="svg4" />
  <path
     d="M 24,40 Q 17.3,40 12.65,35.35 8,30.7 8,24 8,17.3 12.65,12.65 17.3,8 24,8 27.45,8 30.6,9.425 33.75,10.85 36,13.5 V 8 h 4 V 22 H 26 v -4 h 8.4 Q 32.8,15.2 30.025,13.6 27.25,12 24,12 19,12 15.5,15.5 12,19 12,24 q 0,5 3.5,8.5 3.5,3.5 8.5,3.5 3.85,0 6.95,-2.2 3.1,-2.2 4.35,-5.8 h 4.2 Q 38.1,33.3 33.8,36.65 29.5,40 24,40 Z"
     id="path2"
     style="stroke-width:0.05;fill:#ffffff" />
</svg>
