<?xml version="1.0" encoding="UTF-8" standalone="no"?>
<svg
	xmlns="http://www.w3.org/2000/svg"
	width="48"
	height="48"
	viewBox="0 0 48 48">
	<path
		d="M 24,40 Q 17.3,40 12.65,35.35 8,30.7 8,24 8,17.3 12.65,12.65 17.3,8 24,8 27.45,8 30.6,9.425 33.75,10.85 36,13.5 V 8 h 4 V 22 H 26 v -4 h 8.4 Q 32.8,15.2 30.025,13.6 27.25,12 24,12 19,12 15.5,15.5 12,19 12,24 q 0,5 3.5,8.5 3.5,3.5 8.5,3.5 3.85,0 6.95,-2.2 3.1,-2.2 4.35,-5.8 h 4.2 Q 38.1,33.3 33.8,36.65 29.5,40 24,40 Z"
		style="fill:#ffffff" />
</svg>