<?xml version="1.0" encoding="UTF-8" standalone="no"?>
<svg
	xmlns="http://www.w3.org/2000/svg"
	width="48"
	height="48"
	viewBox="0 0 48 48">
	<path
		d="M 39.2,42 26.6,29.4 Q 25.1,30.6 23.15,31.3 21.2,32 19,32 13.55,32 9.775,28.225 6,24.45 6,19 6,13.55 9.775,9.775 13.55,6 19,6 24.45,6 28.225,9.775 32,13.55 32,19 q 0,2.2 -0.7,4.15 -0.7,1.95 -1.9,3.45 L 42,39.2 Z M 19,28 q 3.75,0 6.375,-2.625 Q 28,22.75 28,19 28,15.25 25.375,12.625 22.75,10 19,10 15.25,10 12.625,12.625 10,15.25 10,19 10,22.75 12.625,25.375 15.25,28 19,28 Z"
		style="fill:#303030" />
</svg>