<?xml version="1.0" encoding="UTF-8" standalone="no"?>
<svg
   height="48"
   viewBox="0 0 48 48"
   width="48"
   version="1.1"
   id="svg4"
   sodipodi:docname="search-w.svg"
   inkscape:version="1.2.2 (b0a8486541, 2022-12-01)"
   xmlns:inkscape="http://www.inkscape.org/namespaces/inkscape"
   xmlns:sodipodi="http://sodipodi.sourceforge.net/DTD/sodipodi-0.dtd"
   xmlns="http://www.w3.org/2000/svg"
   xmlns:svg="http://www.w3.org/2000/svg">
  <defs
     id="defs8" />
  <sodipodi:namedview
     id="namedview6"
     pagecolor="#ffffff"
     bordercolor="#666666"
     borderopacity="1.0"
     inkscape:showpageshadow="2"
     inkscape:pageopacity="0.0"
     inkscape:pagecheckerboard="true"
     inkscape:deskcolor="#d1d1d1"
     showgrid="false"
     inkscape:zoom="12.536414"
     inkscape:cx="36.772876"
     inkscape:cy="22.414703"
     inkscape:window-width="1920"
     inkscape:window-height="1030"
     inkscape:window-x="0"
     inkscape:window-y="27"
     inkscape:window-maximized="1"
     inkscape:current-layer="svg4" />
  <path
     d="m 37.511111,40 -11.2,-11.2 q -1.333333,1.066667 -3.066667,1.688889 -1.733333,0.622222 -3.688888,0.622222 -4.844445,0 -8.2,-3.355555 Q 8,24.4 8,19.555556 q 0,-4.844445 3.355556,-8.2 Q 14.711111,8 19.555556,8 q 4.844444,0 8.2,3.355556 3.355555,3.355555 3.355555,8.2 0,1.955555 -0.622222,3.688888 Q 29.866667,24.977778 28.8,26.311111 l 11.2,11.2 z M 19.555556,27.555556 q 3.333333,0 5.666666,-2.333334 2.333334,-2.333333 2.333334,-5.666666 0,-3.333334 -2.333334,-5.666667 -2.333333,-2.333333 -5.666666,-2.333333 -3.333334,0 -5.666667,2.333333 -2.333333,2.333333 -2.333333,5.666667 0,3.333333 2.333333,5.666666 2.333333,2.333334 5.666667,2.333334 z"
     id="path2"
     style="stroke-width:0.0444445;fill:#ffffff" />
</svg>
