<?xml version="1.0" encoding="UTF-8" standalone="no"?>
<svg
	xmlns="http://www.w3.org/2000/svg"
	width="48"
	height="48"
	viewBox="0 0 48 48">
	<rect
		x="0"
		y="0"
		width="48"
		height="48"
		style="fill:#ffffff" />
	<path
		d="M 0,0 V 48 H 48.000003 V 0 Z m 19.621094,8 h 8.757812 l 0.636719,5.119141 c 0.344942,0.133333 0.669468,0.293802 0.974609,0.480468 0.305141,0.186667 0.602658,0.386277 0.894532,0.59961 l 4.736328,-2 L 40,19.800781 35.900391,22.919922 c 0.02653,0.186666 0.03906,0.367682 0.03906,0.541016 v 1.078124 c 0,0.173334 -0.02506,0.35435 -0.07813,0.541016 l 4.09961,3.119141 -4.378907,7.601562 -4.697265,-2 c -0.291874,0.213333 -0.595655,0.412943 -0.914063,0.59961 -0.318408,0.186666 -0.63667,0.347135 -0.955078,0.480468 L 28.378899,40 H 19.621087 L 18.984368,34.880859 C 18.639426,34.747526 18.3149,34.587057 18.009759,34.400391 17.704618,34.213724 17.407101,34.014114 17.115227,33.800781 l -4.736328,2 -4.378906,-7.601562 4.099609,-3.119141 c -0.02653,-0.186666 -0.03906,-0.367682 -0.03906,-0.541016 v -1.078124 c 0,-0.173334 0.01253,-0.35435 0.03906,-0.541016 l -4.099609,-3.119141 4.378906,-7.601562 4.736328,2 c 0.291874,-0.213333 0.595655,-0.412943 0.914063,-0.59961 0.318408,-0.186666 0.63667,-0.347135 0.955078,-0.480468 z m 4.458984,10.400391 c -1.565504,0 -2.886312,0.545339 -3.960937,1.638671 -1.074626,1.093333 -1.611329,2.414273 -1.611329,3.960938 0,1.546665 0.536703,2.867605 1.611329,3.960938 1.074625,1.093332 2.395433,1.638671 3.960937,1.638671 1.538971,0 2.851561,-0.545339 3.939453,-1.638671 1.087893,-1.093333 1.632813,-2.414273 1.632813,-3.960938 0,-1.546665 -0.54492,-2.867605 -1.632813,-3.960938 -1.087892,-1.093332 -2.400482,-1.638671 -3.939453,-1.638671 z"
		style="fill:#004080" />
</svg>