<?xml version="1.0" encoding="UTF-8" standalone="no"?>
<svg
   height="48"
   viewBox="0 0 48 48"
   width="48"
   version="1.1"
   id="svg3403"
   sodipodi:docname="settings.svg"
   inkscape:version="1.2.2 (b0a8486541, 2022-12-01)"
   xmlns:inkscape="http://www.inkscape.org/namespaces/inkscape"
   xmlns:sodipodi="http://sodipodi.sourceforge.net/DTD/sodipodi-0.dtd"
   xmlns="http://www.w3.org/2000/svg"
   xmlns:svg="http://www.w3.org/2000/svg">
  <defs
     id="defs3407" />
  <sodipodi:namedview
     id="namedview3405"
     pagecolor="#ffffff"
     bordercolor="#666666"
     borderopacity="1.0"
     inkscape:showpageshadow="2"
     inkscape:pageopacity="0.0"
     inkscape:pagecheckerboard="true"
     inkscape:deskcolor="#d1d1d1"
     showgrid="false"
     inkscape:zoom="8.8645833"
     inkscape:cx="28.878966"
     inkscape:cy="18.726204"
     inkscape:window-width="1920"
     inkscape:window-height="1030"
     inkscape:window-x="0"
     inkscape:window-y="27"
     inkscape:window-maximized="1"
     inkscape:current-layer="svg3403" />
  <path
     id="rect3469"
     style="fill:#005a5a;stroke-width:3;paint-order:markers fill stroke"
     d="M 0 0 L 0 48 L 48 48 L 48 0 L 0 0 z M 19.621094 8 L 28.378906 8 L 29.015625 13.119141 C 29.360567 13.252474 29.685093 13.412943 29.990234 13.599609 C 30.295375 13.786276 30.592892 13.985886 30.884766 14.199219 L 35.621094 12.199219 L 40 19.800781 L 35.900391 22.919922 C 35.926924 23.106588 35.939453 23.287604 35.939453 23.460938 L 35.939453 24.539062 C 35.939453 24.712396 35.914395 24.893412 35.861328 25.080078 L 39.960938 28.199219 L 35.582031 35.800781 L 30.884766 33.800781 C 30.592892 34.014114 30.289111 34.213724 29.970703 34.400391 C 29.652295 34.587057 29.334033 34.747526 29.015625 34.880859 L 28.378906 40 L 19.621094 40 L 18.984375 34.880859 C 18.639433 34.747526 18.314907 34.587057 18.009766 34.400391 C 17.704625 34.213724 17.407108 34.014114 17.115234 33.800781 L 12.378906 35.800781 L 8 28.199219 L 12.099609 25.080078 C 12.073076 24.893412 12.060547 24.712396 12.060547 24.539062 L 12.060547 23.460938 C 12.060547 23.287604 12.073076 23.106588 12.099609 22.919922 L 8 19.800781 L 12.378906 12.199219 L 17.115234 14.199219 C 17.407108 13.985886 17.710889 13.786276 18.029297 13.599609 C 18.347705 13.412943 18.665967 13.252474 18.984375 13.119141 L 19.621094 8 z M 24.080078 18.400391 C 22.514574 18.400391 21.193766 18.94573 20.119141 20.039062 C 19.044515 21.132395 18.507812 22.453335 18.507812 24 C 18.507812 25.546665 19.044515 26.867605 20.119141 27.960938 C 21.193766 29.05427 22.514574 29.599609 24.080078 29.599609 C 25.619049 29.599609 26.931639 29.05427 28.019531 27.960938 C 29.107424 26.867605 29.652344 25.546665 29.652344 24 C 29.652344 22.453335 29.107424 21.132395 28.019531 20.039062 C 26.931639 18.94573 25.619049 18.400391 24.080078 18.400391 z " />
</svg>
