<?xml version="1.0" encoding="UTF-8" standalone="no"?>
<svg
	xmlns="http://www.w3.org/2000/svg"
	width="48"
	height="48"
	viewBox="0 0 48 48">
	<rect
		x="0"
		y="0"
		width="48"
		height="48"
		style="fill:#004080" />
	<path
		d="m 19.875,39 -0.6,-4.8 Q 18.7875,34.0125 18.35625,33.75 17.925,33.4875 17.5125,33.1875 l -4.4625,1.875 -4.125,-7.125 3.8625,-2.925 Q 12.75,24.75 12.75,24.50625 v -1.0125 q 0,-0.24375 0.0375,-0.50625 l -3.8625,-2.925 4.125,-7.125 4.4625,1.875 q 0.4125,-0.3 0.8625,-0.5625 0.45,-0.2625 0.9,-0.45 l 0.6,-4.8 h 8.25 l 0.6,4.8 q 0.4875,0.1875 0.91875,0.45 0.43125,0.2625 0.84375,0.5625 l 4.4625,-1.875 4.125,7.125 -3.8625,2.925 Q 35.25,23.25 35.25,23.49375 v 1.0125 q 0,0.24375 -0.075,0.50625 l 3.8625,2.925 -4.125,7.125 -4.425,-1.875 q -0.4125,0.3 -0.8625,0.5625 -0.45,0.2625 -0.9,0.45 l -0.6,4.8 z m 4.2,-9.75 q 2.175,0 3.7125,-1.5375 Q 29.325,26.175 29.325,24 q 0,-2.175 -1.5375,-3.7125 Q 26.25,18.75 24.075,18.75 q -2.2125,0 -3.73125,1.5375 Q 18.825,21.825 18.825,24 q 0,2.175 1.51875,3.7125 Q 21.8625,29.25 24.075,29.25 Z"
		style="fill:#ffffff" />
</svg>