<?xml version="1.0" encoding="UTF-8" standalone="no"?>
<svg
	xmlns="http://www.w3.org/2000/svg"
	width="48"
	height="48"
	viewBox="0 0 48 48">
	<path
		d="M 20 4 C 18.900001 4 17.959113 4.3924487 17.175781 5.1757812 C 16.392449 5.9591138 16 6.9000011 16 8 L 16 12 L 4 12 L 4 38 C 4 39.099999 4.3924487 40.040887 5.1757812 40.824219 C 5.9591138 41.607551 6.9000011 42 8 42 L 40 42 C 41.099999 42 42.040887 41.607551 42.824219 40.824219 C 43.607551 40.040887 44 39.099999 44 38 L 44 12 L 32 12 L 32 8 C 32 6.9000011 31.607551 5.9591138 30.824219 5.1757812 C 30.040887 4.3924487 29.099999 4 28 4 L 20 4 z M 20 8 L 28 8 L 28 12 L 20 12 L 20 8 z M 16.080078 19.001953 C 16.09431 19.018816 15.967388 19.104267 16.007812 19.017578 C 16.055572 18.999396 16.075334 18.996332 16.080078 19.001953 z M 16.115234 19.019531 C 16.798737 19.085642 17.348193 19.700328 17.943359 19.839844 C 18.445487 19.117376 18.987228 20.651432 19.515625 20.632812 C 19.615531 19.473318 20.571124 20.33417 20.845703 20.945312 C 21.085461 20.351789 21.611965 20.421925 21.970703 21.091797 C 22.36061 21.939089 22.461436 20.404523 22.921875 20.845703 C 23.367903 20.997543 23.479661 22.238606 23.865234 21.892578 C 23.708517 20.930769 24.684449 21.326306 24.912109 21.912109 C 25.20649 22.657165 25.46511 21.638131 25.673828 21.458984 C 26.409551 21.499651 26.254964 22.946586 26.765625 22.667969 C 27.096909 21.795424 27.615063 22.602413 27.689453 23.142578 C 27.86308 24.076719 28.172346 22.408732 28.533203 22.972656 C 29.024704 23.300532 28.852909 25.043092 29.501953 24.150391 C 29.826813 23.276396 30.278529 23.93152 30.318359 24.533203 C 30.056352 25.284347 30.685314 25.172754 31.136719 24.890625 C 31.976975 24.660682 30.445351 26.551783 31.396484 25.939453 C 32.209392 25.765955 30.987696 27.078191 31.537109 27.087891 C 32.746172 26.887163 31.176629 27.978166 31.400391 28.265625 C 32.613716 28.340248 30.287102 29.070704 31.082031 29.222656 C 32.228784 29.368379 29.891406 29.880579 30.765625 30.089844 C 31.4723 30.270815 30.197592 30.533791 29.990234 30.669922 C 30.688841 31.377994 29.222889 30.900718 29.287109 31.484375 C 28.65123 31.686885 27.989162 31.654957 27.341797 31.517578 C 27.853641 32.486897 28.320356 33.522288 28.441406 34.619141 C 28.486428 35.25778 27.845875 35.00651 28.089844 34.503906 C 28.031094 33.67748 27.702596 32.876597 27.332031 32.142578 C 26.967997 32.312506 26.579952 32.90901 26.253906 33.279297 C 25.932183 33.001141 25.738821 33.24609 25.443359 33.533203 C 25.021396 33.449087 24.734962 33.83329 24.341797 34.109375 C 24.318823 33.293849 23.750672 34.167246 23.28125 34.103516 C 23.374626 33.411975 22.695061 34.13248 22.298828 34.005859 C 22.476237 33.122456 21.363135 34.288081 21.082031 33.830078 C 21.76472 32.931469 19.887192 33.71438 20.056641 33.126953 C 20.875439 32.631583 19.752252 32.659247 19.371094 32.648438 C 18.383123 32.551321 19.984463 32.065033 19.597656 31.828125 C 19.14352 31.788174 17.521138 31.38792 18.644531 30.982422 C 19.751544 30.567586 18.250146 30.39568 17.896484 30.078125 C 17.187526 29.809805 17.683252 29.523843 18.158203 29.470703 C 19.224523 29.329127 17.860881 28.925214 17.583984 28.591797 C 16.60085 28.032854 17.762357 27.904827 18.177734 27.615234 C 17.840165 27.449326 16.488138 26.524673 17.464844 26.439453 C 18.55922 26.423141 17.24286 25.948597 17.009766 25.617188 C 16.395578 25.160532 17.004858 24.872047 17.5 24.873047 C 18.317727 24.671204 17.173021 24.374658 17.009766 24.037109 C 16.429878 23.640393 16.818822 23.277311 17.380859 23.369141 C 18.378449 23.178599 15.924783 22.177977 17.003906 21.972656 C 18.313892 21.908435 15.779963 20.838427 16.943359 20.601562 C 17.07356 20.139672 15.877762 19.51386 16.115234 19.019531 z "
		style="fill:#808080" />
</svg>