<?xml version="1.0" encoding="UTF-8" standalone="no"?>
<svg
	xmlns="http://www.w3.org/2000/svg"
	width="48"
	height="48"
	viewBox="0 0 48 48">
	<circle
		r="24"
		cx="24"
		cy="24"
		style="fill:#004080" />
	<path
		d="M 24,24 Q 21.525,24 19.7625,22.2375 18,20.475 18,18 18,15.525 19.7625,13.7625 21.525,12 24,12 26.475,12 28.2375,13.7625 30,15.525 30,18 30,20.475 28.2375,22.2375 26.475,24 24,24 Z M 12,36 V 31.8 Q 12,30.525 12.65625,29.45625 13.3125,28.3875 14.4,27.825 16.725,26.6625 19.125,26.08125 21.525,25.5 24,25.5 q 2.475,0 4.875,0.58125 2.4,0.58125 4.725,1.74375 1.0875,0.5625 1.74375,1.63125 Q 36,30.525 36,31.8 V 36 Z"
		style="fill:#ffffff" />
</svg>