<?xml version="1.0" encoding="UTF-8" standalone="no"?>
<svg
	xmlns="http://www.w3.org/2000/svg"
	width="48"
	height="48"
	viewBox="0 0 48 48">
	<circle
		r="24"
		cx="24"
		cy="24"
		style="fill:#ffffff" />
	<path
		d="M 24 0 A 24 24 0 0 0 0 24 A 24 24 0 0 0 24 48 A 24 24 0 0 0 48 24 A 24 24 0 0 0 24 0 z M 24 12 C 25.649998 12 27.063282 12.58672 28.238281 13.761719 C 29.41328 14.936718 30 16.350002 30 18 C 30 19.649998 29.41328 21.063282 28.238281 22.238281 C 27.063282 23.41328 25.649998 24 24 24 C 22.350002 24 20.936718 23.41328 19.761719 22.238281 C 18.58672 21.063282 18 19.649998 18 18 C 18 16.350002 18.58672 14.936718 19.761719 13.761719 C 20.936718 12.58672 22.350002 12 24 12 z M 24 25.5 C 25.649998 25.5 27.275002 25.694532 28.875 26.082031 C 30.474998 26.469531 32.049611 27.04922 33.599609 27.824219 C 34.324609 28.199218 34.90625 28.744532 35.34375 29.457031 C 35.78125 30.169531 36 30.950782 36 31.800781 L 36 36 L 12 36 L 12 31.800781 C 12 30.950782 12.21875 30.169531 12.65625 29.457031 C 13.09375 28.744532 13.675391 28.199218 14.400391 27.824219 C 15.950389 27.04922 17.525002 26.469531 19.125 26.082031 C 20.724998 25.694532 22.350002 25.5 24 25.5 z "
		style="fill:#004080" />
</svg>