<?xml version="1.0" encoding="UTF-8" standalone="no"?>
<svg
   height="48"
   viewBox="0 0 48 48"
   width="48"
   version="1.1"
   id="svg4"
   sodipodi:docname="user.svg"
   inkscape:version="1.2.2 (b0a8486541, 2022-12-01)"
   xmlns:inkscape="http://www.inkscape.org/namespaces/inkscape"
   xmlns:sodipodi="http://sodipodi.sourceforge.net/DTD/sodipodi-0.dtd"
   xmlns="http://www.w3.org/2000/svg"
   xmlns:svg="http://www.w3.org/2000/svg">
  <defs
     id="defs8" />
  <sodipodi:namedview
     id="namedview6"
     pagecolor="#ffffff"
     bordercolor="#666666"
     borderopacity="1.0"
     inkscape:showpageshadow="2"
     inkscape:pageopacity="0.0"
     inkscape:pagecheckerboard="true"
     inkscape:deskcolor="#d1d1d1"
     showgrid="false"
     inkscape:zoom="12.536414"
     inkscape:cx="10.609094"
     inkscape:cy="25.20657"
     inkscape:window-width="1920"
     inkscape:window-height="1030"
     inkscape:window-x="0"
     inkscape:window-y="27"
     inkscape:window-maximized="1"
     inkscape:current-layer="svg4" />
  <circle
     style="fill:#ffffff;stroke-width:3;paint-order:markers fill stroke"
     id="path217"
     cx="24"
     cy="24"
     r="24" />
  <path
     id="path216"
     style="fill:#008080;stroke-width:3;paint-order:markers fill stroke;fill-opacity:1"
     d="M 24 0 A 24 24 0 0 0 0 24 A 24 24 0 0 0 24 48 A 24 24 0 0 0 48 24 A 24 24 0 0 0 24 0 z M 24 12 C 25.649998 12 27.063282 12.58672 28.238281 13.761719 C 29.41328 14.936718 30 16.350002 30 18 C 30 19.649998 29.41328 21.063282 28.238281 22.238281 C 27.063282 23.41328 25.649998 24 24 24 C 22.350002 24 20.936718 23.41328 19.761719 22.238281 C 18.58672 21.063282 18 19.649998 18 18 C 18 16.350002 18.58672 14.936718 19.761719 13.761719 C 20.936718 12.58672 22.350002 12 24 12 z M 24 25.5 C 25.649998 25.5 27.275002 25.694532 28.875 26.082031 C 30.474998 26.469531 32.049611 27.04922 33.599609 27.824219 C 34.324609 28.199218 34.90625 28.744532 35.34375 29.457031 C 35.78125 30.169531 36 30.950782 36 31.800781 L 36 36 L 12 36 L 12 31.800781 C 12 30.950782 12.21875 30.169531 12.65625 29.457031 C 13.09375 28.744532 13.675391 28.199218 14.400391 27.824219 C 15.950389 27.04922 17.525002 26.469531 19.125 26.082031 C 20.724998 25.694532 22.350002 25.5 24 25.5 z " />
</svg>
