<?xml version="1.0" encoding="UTF-8" standalone="no"?>
<svg
	xmlns="http://www.w3.org/2000/svg"
	width="48"
	height="48"
	viewBox="0 0 48 48">
	<path
		d="m 24,32 q 3.75,0 6.375,-2.625 Q 33,26.75 33,23 33,19.25 30.375,16.625 27.75,14 24,14 20.25,14 17.625,16.625 15,19.25 15,23 15,26.75 17.625,29.375 20.25,32 24,32 Z m 0,-3.6 q -2.25,0 -3.825,-1.575 Q 18.6,25.25 18.6,23 18.6,20.75 20.175,19.175 21.75,17.6 24,17.6 q 2.25,0 3.825,1.575 Q 29.4,20.75 29.4,23 q 0,2.25 -1.575,3.825 Q 26.25,28.4 24,28.4 Z M 24,38 Q 16.7,38 10.7,33.925 4.7,29.85 2,23 4.7,16.15 10.7,12.075 16.7,8 24,8 31.3,8 37.3,12.075 43.3,16.15 46,23 43.3,29.85 37.3,33.925 31.3,38 24,38 Z"
		style="fill:#303030" />
</svg>