<?xml version="1.0" encoding="UTF-8" standalone="no"?>
<svg
	xmlns="http://www.w3.org/2000/svg"
	width="48"
	height="48"
	viewBox="0 0 48 48">
	<path
		d="M24 8C15.163 8 8 15.163 8 24s7.163 16 16 16 16-7.163 16-16S32.837 8 24 8Zm0 10s5.004.001 6.251.36c.689.197 1.23.776 1.414 1.514C32 21.21 32 24 32 24s0 2.79-.335 4.126c-.184.738-.725 1.319-1.414 1.516C29.004 30 24 30 24 30s-5.004 0-6.251-.358c-.689-.197-1.23-.778-1.414-1.516C16 26.79 16 24 16 24s0-2.79.335-4.126c.184-.738.725-1.317 1.414-1.515C18.996 18.001 24 18 24 18Zm-1.5 3.654v5.216l4-2.608z"
		style="fill:#808080" />
</svg>