<?xml version="1.0" encoding="UTF-8" standalone="no"?>
<svg
   viewBox="0 0 64 63.999999"
   width="64"
   height="64"
   version="1.1"
   id="svg27"
   sodipodi:docname="youtube.svg"
   inkscape:version="1.2.2 (b0a8486541, 2022-12-01)"
   xml:space="preserve"
   xmlns:inkscape="http://www.inkscape.org/namespaces/inkscape"
   xmlns:sodipodi="http://sodipodi.sourceforge.net/DTD/sodipodi-0.dtd"
   xmlns="http://www.w3.org/2000/svg"
   xmlns:svg="http://www.w3.org/2000/svg"><defs
     id="defs31" /><sodipodi:namedview
     id="namedview29"
     pagecolor="#ffffff"
     bordercolor="#666666"
     borderopacity="1.0"
     inkscape:showpageshadow="2"
     inkscape:pageopacity="0.0"
     inkscape:pagecheckerboard="true"
     inkscape:deskcolor="#d1d1d1"
     showgrid="false"
     inkscape:zoom="7.1373591"
     inkscape:cx="35.867608"
     inkscape:cy="34.11626"
     inkscape:window-width="1920"
     inkscape:window-height="1029"
     inkscape:window-x="0"
     inkscape:window-y="27"
     inkscape:window-maximized="1"
     inkscape:current-layer="svg27" /><path
     style="fill:#808080;stroke-width:0.0156066"
     d="m 33.400042,47.991488 c -0.157357,-0.0069 -0.371934,-0.01653 -0.476839,-0.02136 -0.370413,-0.01705 -9.76407,-0.177235 -11.253396,-0.191901 -2.688931,-0.02647 -3.78031,-0.05877 -4.927335,-0.14579 C 15.226067,47.517386 13.73603,47.28328 12.933617,47.034013 11.777956,46.675007 10.845228,46.029595 10.146809,45.105649 9.7575761,44.590728 9.3790376,43.854764 9.1284525,43.12573 8.7585321,42.049515 8.5344767,40.841969 8.3426333,38.89055 8.175042,37.185819 8.0936408,36.013553 8.0207544,34.255097 c -0.027655,-0.667163 -0.02769,-3.726672 0,-4.405596 0.1218625,-2.993537 0.3705801,-5.481566 0.8068891,-8.071684 0.1383453,-0.821277 0.2813333,-1.326306 0.5430797,-1.918137 0.7158308,-1.618562 2.0794668,-2.710282 3.9147158,-3.134103 0.510978,-0.118003 0.844565,-0.157616 1.875566,-0.222727 8.995804,-0.568106 18.567045,-0.651026 30.946838,-0.268107 1.32792,0.04107 1.945262,0.101837 3.353766,0.330101 0.96879,0.157003 1.433606,0.278224 2.056287,0.536261 0.448257,0.185757 0.913504,0.453993 1.289531,0.743473 0.235079,0.180974 0.66471,0.597915 0.862443,0.836967 0.913274,1.104129 1.478473,2.619976 1.798638,4.823899 0.100591,0.692433 0.170683,1.381373 0.279067,2.742962 0.173906,2.184718 0.221058,3.081755 0.245609,4.672522 0.05009,3.245961 -0.175984,6.48334 -0.675868,9.678227 -0.342072,2.18628 -0.800745,3.553916 -1.544872,4.60639 -0.263231,0.372308 -0.649365,0.77846 -0.988859,1.040124 -0.786709,0.606356 -1.824052,0.990442 -3.019978,1.118175 -0.380185,0.04061 -3.476937,0.245828 -5.20549,0.344966 -2.291688,0.131437 -4.087636,0.206627 -6.445271,0.269844 -0.736524,0.01974 -4.332843,0.02954 -4.712757,0.01283 z M 31.61837,36.343607 c 5.641446,-3.124256 5.670137,-3.140134 6.855333,-3.793683 0.635937,-0.350674 1.020557,-0.571413 1.020598,-0.585737 0,-0.01443 -0.515766,-0.30777 -1.386108,-0.788276 -0.762397,-0.420909 -2.9812,-1.648914 -4.930676,-2.728899 -5.056062,-2.800992 -5.845736,-3.23755 -5.877039,-3.249028 -0.02646,-0.0097 -0.02781,0.318817 -0.02781,6.766203 0,6.303026 0.0018,6.775724 0.02634,6.766658 0.01449,-0.0054 1.958203,-1.079617 4.319365,-2.387238 z"
     id="path1583" /></svg>
