<?xml version="1.0" encoding="UTF-8" standalone="no"?>
<svg
	xmlns="http://www.w3.org/2000/svg"
	width="48"
	height="48"
	viewBox="0 0 48 48">
	<path
		d="M 24,8 C 15.163475,8 8,15.163475 8,24 8,32.836525 15.163475,40 24,40 32.836525,40 40,32.836525 40,24 40,15.163475 32.836525,8 24,8 Z m 0,10 c 0,0 5.003756,0.0011 6.251302,0.359375 0.688395,0.197148 1.230074,0.776731 1.414063,1.514323 C 31.999718,21.210558 32,24 32,24 c 0,0 -2.82e-4,2.789377 -0.334635,4.126302 -0.183989,0.737592 -0.725668,1.318413 -1.414063,1.515625 C 29.003756,30.000093 24,30 24,30 c 0,0 -5.003693,9.3e-5 -6.251302,-0.358073 C 17.060241,29.444715 16.518624,28.863894 16.334635,28.126302 16.000407,26.789377 16,24 16,24 c 0,0 4.07e-4,-2.789442 0.334635,-4.126302 0.183989,-0.737592 0.725606,-1.317175 1.414063,-1.514323 C 18.996307,18.001178 24,18 24,18 Z m -1.5,3.653646 v 5.216146 l 4,-2.608073 z"
		style="fill:#808080" />
</svg>