<?xml version="1.0" encoding="UTF-8" standalone="no"?>
<svg
   height="128"
   width="128"
   viewBox="-35.20005 -41.33325 128 128"
   version="1.1"
   id="svg6"
   sodipodi:docname="ytprev.svg"
   inkscape:version="1.1.2 (0a00cf5339, 2022-02-04)"
   xmlns:inkscape="http://www.inkscape.org/namespaces/inkscape"
   xmlns:sodipodi="http://sodipodi.sourceforge.net/DTD/sodipodi-0.dtd"
   xmlns="http://www.w3.org/2000/svg"
   xmlns:svg="http://www.w3.org/2000/svg">
  <defs
     id="defs10" />
  <sodipodi:namedview
     id="namedview8"
     pagecolor="#ffffff"
     bordercolor="#666666"
     borderopacity="1.0"
     inkscape:pageshadow="2"
     inkscape:pageopacity="0.0"
     inkscape:pagecheckerboard="true"
     showgrid="false"
     width="128px"
     borderlayer="true"
     inkscape:zoom="2.11"
     inkscape:cx="176.06635"
     inkscape:cy="75.35545"
     inkscape:window-width="1920"
     inkscape:window-height="1029"
     inkscape:window-x="0"
     inkscape:window-y="27"
     inkscape:window-maximized="1"
     inkscape:current-layer="svg6" />
  <g
     id="g14"
     transform="matrix(0.40909207,0,0,0.40826448,-19.20005,-11.08325)">
    <path
       d="M 229.763,25.817 C 227.064,15.655 219.113,7.652 209.015,4.936 190.716,0 117.333,0 117.333,0 117.333,0 43.951,0 25.651,4.936 15.553,7.652 7.6,15.655 4.903,25.817 0,44.236 0,82.667 0,82.667 c 0,0 0,38.429 4.903,56.85 2.697,10.163 10.65,18.164 20.747,20.883 18.3,4.934 91.682,4.934 91.682,4.934 0,0 73.383,0 91.682,-4.934 10.098,-2.718 18.049,-10.72 20.748,-20.882 4.904,-18.421 4.904,-56.85 4.904,-56.85 0,0 0,-38.431 -4.904,-56.85"
       fill="#ff0000"
       id="path2" />
    <path
       d="M 93.333,117.559 154.666,82.669 93.333,47.775 Z"
       fill="#ffffff"
       id="path4" />
  </g>
</svg>
