<svg xmlns="http://www.w3.org/2000/svg" width="160" height="216" fill="none">
  <path fill="#fff" d="M64.79 215.85c-12.32-3-19.48-12.1-25.98-21.89-7.63-11.55-13.28-24.16-19.18-36.64a948.36 948.36 0 00-13.75-27.87c-1.81-3.54-4.34-6.66-5.23-10.71-1.77-8.1 1.52-15.77 8.65-19.7 7.12-3.96 15.43-2.78 21.25 3.08 3.54 3.59 7.04 7.26 10.58 10.88.47.47.97.93 1.82 1.7v-2.67V19.1c0-9.95 4.93-16.32 14.63-18.8.2-.05.33-.22.55-.3h5.9c.25.13.46.34.72.38C74.02 2.74 78.9 9.07 78.9 18.64v37.4c10.38-4.3 18.56-1.86 24.88 6.96 10.88-7.6 25.85-2.5 29.1 11.09.33-.13.63-.22.97-.34 13.2-6.24 26.35 4.3 26.14 16.78-.42 23.82-.09 47.65-.17 71.47 0 3-.25 6.03-.76 8.98-2.36 13.54-9.66 24.2-19.94 32.98-5.74 4.89-12.19 8.68-19.02 11.89H64.79zM51.84 72.02v51.65c0 2.57.17 5.23-2.78 6.41-3 1.18-4.85-.8-6.7-2.74-6.03-6.28-12.1-12.52-18.22-18.72-3.08-3.12-6.87-3.63-10.54-1.56-3.59 1.98-5.15 5.44-4.05 9.61.46 1.73 1.3 3.38 2.15 4.98 2.36 4.3 5.02 8.43 7.17 12.82 6.53 13.4 12.78 26.98 19.4 40.35 4.17 8.43 8.98 16.53 15.3 23.61 4.26 4.77 9.07 8.52 15.98 8.48 15.52-.09 31.08 0 46.6-.04 1.05 0 2.23-.3 3.2-.8 5.7-2.7 10.84-6.2 15.47-10.42 9.96-9.07 15.9-20.11 15.94-33.78.13-23.9.05-47.77.05-71.68 0-5.23-3.84-9.19-8.9-9.27-5.1-.09-8.9 3.7-8.94 9.06-.09 5.7-.25 11.39-.13 17.08.09 3.84-2.53 5.4-4.6 5.4-2.65.04-4.38-2.15-4.42-5.32v-29.1c0-5.6-3.71-9.44-9.07-9.44-5.4 0-8.77 3.59-8.8 9.32-.05 6.75-.05 13.5-.22 20.24a7.43 7.43 0 01-.97 3.54c-.97 1.65-3.29 2.24-5.06 1.48-1.94-.8-2.9-2.28-2.9-4.43.03-8.85.03-17.7 0-26.56 0-5.23-3.93-9.24-8.99-9.2-5.19.09-9.23 4.14-8.9 8.7.13 2.02-.08 4.04-.12 6.1-.05 4.1.04 8.14-.05 12.23A4.46 4.46 0 0175 94.45c-2.1.3-4.13-.84-4.85-2.87-.3-.84-.3-1.77-.3-2.7V18.27c0-5.86-4.5-9.83-10.37-9.07-4.68.6-7.63 4.35-7.67 9.74.04 17.67.04 35.38.04 53.09z"/>
</svg>