<?xml version="1.0" encoding="UTF-8" standalone="no"?>
<svg
   viewBox="0 0 256 256"
   width="256"
   height="256"
   version="1.1"
   id="svg27"
   sodipodi:docname="icon.svg"
   inkscape:version="1.2.2 (b0a8486541, 2022-12-01)"
   xmlns:inkscape="http://www.inkscape.org/namespaces/inkscape"
   xmlns:sodipodi="http://sodipodi.sourceforge.net/DTD/sodipodi-0.dtd"
   xmlns="http://www.w3.org/2000/svg"
   xmlns:svg="http://www.w3.org/2000/svg">
  <defs
     id="defs31" />
  <sodipodi:namedview
     id="namedview29"
     pagecolor="#ffffff"
     bordercolor="#666666"
     borderopacity="1.0"
     inkscape:showpageshadow="2"
     inkscape:pageopacity="0.0"
     inkscape:pagecheckerboard="true"
     inkscape:deskcolor="#d1d1d1"
     showgrid="false"
     inkscape:zoom="1.1132813"
     inkscape:cx="129.34737"
     inkscape:cy="209.74035"
     inkscape:window-width="1280"
     inkscape:window-height="669"
     inkscape:window-x="0"
     inkscape:window-y="27"
     inkscape:window-maximized="1"
     inkscape:current-layer="svg27" />
  <g
     id="g363">
    <path
       d="M 250.64705,66.10916 C 247.69728,55.03907 239.03524,46.339607 228.01393,43.376294 208.05819,38.000002 127.99955,38 127.99955,38 c 0,0 -80.057557,2e-6 -100.014108,5.376294 C 16.96413,46.339607 8.3029282,55.03907 5.3526483,66.10916 2.0097139e-6,86.15378 0,128 0,128 c 0,0 2.0097139e-6,41.8464 5.3526483,61.8912 2.9502799,11.07 11.6114817,19.7694 22.6327937,22.7322 C 47.941993,218 127.99955,218 127.99955,218 c 0,0 80.05864,0 100.01438,-5.3766 11.02131,-2.9628 19.68335,-11.6622 22.63312,-22.7322 C 256,169.8464 256,128 256,128 c 0,0 -0.0215,-41.84622 -5.35295,-61.89084 z"
       class="style-scope yt-icon"
       fill="#ff0000"
       id="path2"
       style="stroke-width:8.98019" />
    <path
       d="m 102.37545,166.5686 66.5078,-38.565 -66.5078,-38.56563 z"
       class="style-scope yt-icon"
       fill="#ffffff"
       id="path4"
       style="stroke-width:8.98019" />
  </g>
</svg>
