<?xml version="1.0" encoding="UTF-8" standalone="no"?>
<svg
   height="48"
   width="48"
   version="1.1"
   id="svg4"
   sodipodi:docname="taskbar-search.svg"
   inkscape:version="1.1.2 (0a00cf5339, 2022-02-04)"
   xmlns:inkscape="http://www.inkscape.org/namespaces/inkscape"
   xmlns:sodipodi="http://sodipodi.sourceforge.net/DTD/sodipodi-0.dtd"
   xmlns="http://www.w3.org/2000/svg"
   xmlns:svg="http://www.w3.org/2000/svg">
  <defs
     id="defs8" />
  <sodipodi:namedview
     id="namedview6"
     pagecolor="#ffffff"
     bordercolor="#666666"
     borderopacity="1.0"
     inkscape:pageshadow="2"
     inkscape:pageopacity="0.0"
     inkscape:pagecheckerboard="true"
     showgrid="false"
     borderlayer="true"
     inkscape:zoom="8.7916667"
     inkscape:cx="31.905213"
     inkscape:cy="26.274881"
     inkscape:window-width="1920"
     inkscape:window-height="1029"
     inkscape:window-x="0"
     inkscape:window-y="27"
     inkscape:window-maximized="1"
     inkscape:current-layer="svg4" />
  <path
     d="M39.8 42.3 26.55 29.1q-1.45 1.25-3.45 1.95t-4.25.7q-5.5 0-9.325-3.8-3.825-3.8-3.825-9.2 0-5.4 3.825-9.2 3.825-3.8 9.225-3.8 5.4 0 9.2 3.8 3.8 3.8 3.8 9.2 0 2.15-.7 4.15-.7 2-2.05 3.75L42.3 39.8Zm-21-13.95q3.95 0 6.725-2.825Q28.3 22.7 28.3 18.75t-2.775-6.775Q22.75 9.15 18.8 9.15q-4.05 0-6.85 2.825t-2.8 6.775q0 3.95 2.8 6.775t6.85 2.825Z"
     id="path2"
     style="fill:#ffffff" />
</svg>
