<?xml version="1.0" encoding="UTF-8" standalone="no"?>
<svg
   height="48"
   viewBox="0 0 48 48"
   width="48"
   version="1.1"
   id="svg4"
   sodipodi:docname="search.svg"
   inkscape:version="1.2.2 (b0a8486541, 2022-12-01)"
   xmlns:inkscape="http://www.inkscape.org/namespaces/inkscape"
   xmlns:sodipodi="http://sodipodi.sourceforge.net/DTD/sodipodi-0.dtd"
   xmlns="http://www.w3.org/2000/svg"
   xmlns:svg="http://www.w3.org/2000/svg">
  <defs
     id="defs8" />
  <sodipodi:namedview
     id="namedview6"
     pagecolor="#ffffff"
     bordercolor="#666666"
     borderopacity="1.0"
     inkscape:showpageshadow="2"
     inkscape:pageopacity="0.0"
     inkscape:pagecheckerboard="true"
     inkscape:deskcolor="#d1d1d1"
     showgrid="false"
     inkscape:zoom="12.536414"
     inkscape:cx="33.741706"
     inkscape:cy="22.015865"
     inkscape:window-width="1920"
     inkscape:window-height="1030"
     inkscape:window-x="0"
     inkscape:window-y="27"
     inkscape:window-maximized="1"
     inkscape:current-layer="svg4" />
  <path
     d="M 38.044444,40 26.355555,28.311111 q -1.333333,1.155556 -3.109289,1.8 -1.775955,0.644444 -3.779599,0.644444 -4.807201,0 -8.136933,-3.333333 Q 8,24.088889 8,19.377778 8,14.666667 11.333334,11.333334 14.666667,8 19.4,8 q 4.733333,0 8.044445,3.333334 3.31111,3.333333 3.31111,8.05111 0,1.904445 -0.622222,3.682223 Q 29.511111,24.844445 28.266666,26.4 L 40,38.044444 Z M 19.422222,28.088889 q 3.611111,0 6.138889,-2.555556 2.527778,-2.555555 2.527778,-6.155555 0,-3.6 -2.527778,-6.155556 -2.527778,-2.555555 -6.138889,-2.555555 -3.648133,0 -6.201866,2.555555 -2.553689,2.555556 -2.553689,6.155556 0,3.6 2.553689,6.155555 2.553733,2.555556 6.201866,2.555556 z"
     id="path2"
     style="stroke-width:0.0444445;fill:#ffffff" />
</svg>
