<svg version="1.1" xmlns="http://www.w3.org/2000/svg" xmlns:xlink="http://www.w3.org/1999/xlink" width="26.88454" height="42.33333" viewBox="0,0,26.88454,42.33333"><g transform="translate(-228.78919,-141.19576)"><g data-paper-data="{&quot;isPaintingLayer&quot;:true}" fill="none" fill-rule="nonzero" stroke="none" stroke-width="none" stroke-linecap="butt" stroke-linejoin="miter" stroke-miterlimit="10" stroke-dasharray="" stroke-dashoffset="0" font-family="none" font-weight="none" font-size="none" text-anchor="none" style="mix-blend-mode: normal"><path d="M255.67372,154.27909c0,0.62281 -0.18796,16.64043 -0.26436,17.25853c-0.29525,2.38843 -1.80033,6.29571 -3.47476,8.02431c-3.39962,3.50959 -5.04654,3.96717 -10.09421,3.96717c-3.7405,0 -5.91491,-1.46779 -8.52142,-4.15059c-2.43551,-2.50678 -3.99472,-4.07918 -4.50624,-7.53664c-0.10869,-0.73464 0.19433,-16.82014 0.19433,-17.56277c0,-7.22573 5.96954,-13.08333 13.33333,-13.08333c7.3638,0 13.33333,5.85761 13.33333,13.08333z" data-paper-data="{&quot;origPos&quot;:null}" fill="#00cccc" stroke-width="0"/><path d="M239.2,167.302c0.233,-2.58 -0.21382,-1.46109 0.02118,-7.32609c-0.411,-0.058 0.10264,-5.52064 0.57264,-6.75264c1.231,-0.997 1.33818,-1.22327 2.68818,-1.22327c1.759,0 2.814,0.88 3.166,2.639c-0.118,0.235 -0.234,0.559 -0.352,0.968c-0.235,1.818 -0.439,5.277 -0.616,10.38c0,0.294 -0.03,0.938 -0.088,1.935c-0.059,0.998 -0.088,1.555 -0.088,1.672c0,0 -4.777,11.488 -5.304,-2.292z" data-paper-data="{&quot;origPos&quot;:null}" id="ID0.45730895223096013" fill="#ffffff" stroke-width="1"/></g></g></svg>