<svg version="1.1" xmlns="http://www.w3.org/2000/svg" xmlns:xlink="http://www.w3.org/1999/xlink" width="19.604" height="12.76543" viewBox="0,0,19.604,12.76543"><g transform="translate(-236.27175,-176.74288)"><g data-paper-data="{&quot;isPaintingLayer&quot;:true}" fill="#faa51f" fill-rule="nonzero" stroke="none" stroke-width="none" stroke-linecap="none" stroke-linejoin="none" stroke-miterlimit="10" stroke-dasharray="" stroke-dashoffset="0" font-family="none" font-weight="none" font-size="none" text-anchor="none" style="mix-blend-mode: normal"><path d="M236.81404,180.05538c0,-1.82944 1.48306,-3.3125 3.3125,-3.3125c1.82944,0 3.3125,1.48306 3.3125,3.3125c0,1.82944 -1.48306,3.3125 -3.3125,3.3125c-1.82944,0 -3.3125,-1.48306 -3.3125,-3.3125z" data-paper-data="{&quot;origPos&quot;:null}" stroke="none" stroke-width="0" stroke-linecap="butt" stroke-linejoin="miter"/><path d="M242.60188,182.58003c0.23034,1.61689 0.56485,3.24046 1.00171,4.86193c0.79531,0.5555 0.13461,0.93063 -0.25071,1.14013c-1.56729,0.72607 -3.23851,0.55567 -3.52344,0.50622c-3.18805,-2.05659 -2.61453,-4.2063 -3.13769,-9.45798" data-paper-data="{&quot;origPos&quot;:null,&quot;origRot&quot;:0}" id="ID0.30105241015553474-4" stroke="#8e5322" stroke-width="0.84" stroke-linecap="round" stroke-linejoin="round"/><path d="M241.63692,183.63391c6.54835,-4.41058 12.92821,-5.28503 13.45876,-4.05508c1.31422,2.85716 -0.60533,4.97581 -11.87814,9.17843" data-paper-data="{&quot;origPos&quot;:null,&quot;origRot&quot;:0}" id="ID0.1790580078959465-2" stroke="#8e5322" stroke-width="0.84" stroke-linecap="round" stroke-linejoin="round"/></g></g></svg>