<svg version="1.1" xmlns="http://www.w3.org/2000/svg" xmlns:xlink="http://www.w3.org/1999/xlink" width="208.7336" height="49.50656" viewBox="0,0,208.7336,49.50656"><g transform="translate(-230.78,-112.32344)"><g data-paper-data="{&quot;isPaintingLayer&quot;:true}" fill="#000000" fill-rule="nonzero" stroke="none" stroke-width="1" stroke-linecap="butt" stroke-linejoin="miter" stroke-miterlimit="10" stroke-dasharray="" stroke-dashoffset="0" font-family="none" font-weight="none" font-size="none" text-anchor="none" style="mix-blend-mode: normal"><g stroke="#000000"><path d="M239.42,137.73c-6.64,0 -7.9,-4.93 -7.9,-11.8c0,-6.87 1.8,-11.9 8.89,-11.9c1.93366,-0.042 3.8454,0.41613 5.55,1.33l-0.18,3.77c-1.57205,-0.87231 -3.33261,-1.34934 -5.13,-1.39c-3.45,0 -5.08,2.38 -5.08,6.66v3.06c0,4.86 1.72,6.56 4.12,6.56c1.04989,0.03018 2.08782,-0.22931 3,-0.75v-5.06h-2.94v-3.54h6.69v11.09c-2.09691,1.32924 -4.53767,2.01418 -7.02,1.97z"/><path d="M263.28,129.87h-9.16v0.38c0,2 0.9,3.94 3.63,3.94c1.61996,-0.0213 3.20989,-0.44025 4.63,-1.22l0.18,3.43c-1.59,0.90661 -3.40078,1.35325 -5.23,1.29c-5.62,0 -7.06,-3.46 -7.06,-8.9c0,-5.44 1.9,-9 7,-9c4.14,0 6.07,2.62 6.07,8.16c0,0.29 -0.03,1.41 -0.06,1.92zM257.12,122.77c-2.16,0 -3.06,2.11 -3.06,4.18h5.64c0,-2.01 -0.33,-4.18 -2.58,-4.18z"/><path d="M273.31,137.69c-2.86,0 -4.12,-1.59 -4.12,-4.76c0,0 0,-0.06 0,-9.18h-3.19v-3.53h3.21v-4.25l3.88,-0.51v4.76h3.72v3.53h-3.71v8.33c0,1.5 0.51,2.11 1.65,2.11c0.66008,-0.03842 1.30906,-0.18714 1.92,-0.44l0.18,3.2c-1.11974,0.47744 -2.32278,0.72892 -3.54,0.74z"/><path d="M286.92,137.69c-2.86,0 -4.12,-1.59 -4.12,-4.76c0,0 0,-0.06 0,-9.18h-3.21v-3.53h3.21v-4.25l3.88,-0.51v4.76h3.72v3.53h-3.72v8.33c0,1.5 0.51,2.11 1.65,2.11c0.66008,-0.03842 1.30906,-0.18714 1.92,-0.44l0.18,3.2c-1.11043,0.47359 -2.30289,0.72499 -3.51,0.74z"/><path d="M296.28,118.32c-1.13729,0.14958 -2.24855,-0.41988 -2.79135,-1.43042c-0.54279,-1.01054 -0.40396,-2.25147 0.34874,-3.11707c0.75269,-0.8656 1.96232,-1.1754 3.03844,-0.77819c1.07612,0.39721 1.79437,1.41863 1.80417,2.56568c0.08619,1.42044 -0.98136,2.64811 -2.4,2.76zM294.28,137.22v-17h3.91v17z"/><path d="M312.56,137.22v-10.41c0,-1.66 -0.43,-3.19 -2.53,-3.19c-1.69311,0.06779 -3.044,1.43615 -3.09,3.13v10.47h-3.94v-17h3.72v2.07h0.06c1.09497,-1.55911 2.86532,-2.50552 4.77,-2.55c3,0 4.87,1.7 4.87,5.72v11.76z"/><path d="M326.81,144.7c-1.81182,0.02065 -3.59869,-0.42348 -5.19,-1.29l0.17,-3.74c1.3674,0.88228 2.94435,1.38608 4.57,1.46c2.61,0 4.05,-1.29 4.05,-4.49v-1.64v0c-0.91501,1.45833 -2.53966,2.31643 -4.26,2.25c-4.17,0 -5.59,-3.57 -5.59,-8.71c0,-5 1.57,-8.77 5.83,-8.77c1.78232,-0.09568 3.44866,0.88522 4.23,2.49v0l0.18,-2h3.49v16.42c0,5.23 -3,8.02 -7.48,8.02zM330.41,127.22c0,-2.31 -1.35,-3.91 -2.91,-3.91c-2.13,0 -3,1.84 -3,4.22v2c0,2.62 1.14,4.08 2.88,4.08c1.74,0 3,-1.73 3,-3.8z"/><path d="M354.83,137.73c-6.85,0 -8.08,-4.73 -8.08,-11.87c0,-7.14 1.5,-11.86 8.35,-11.86c6.85,0 8.08,4.73 8.08,11.83c0,7.1 -1.47,11.9 -8.35,11.9zM359.12,124.4c0,-4.42 -1.32,-6.66 -4.11,-6.66c-2.79,0 -4.21,2.24 -4.21,6.66v3c0,4.42 1.33,6.66 4.12,6.66c2.79,0 4.2,-2.24 4.2,-6.66z"/><path d="M375.72,137.22h-4.72l-4.95,-17h4l3.4,13.5v0l3.39,-13.5h3.78z"/><path d="M396,129.87h-9.2v0.38c0,2 0.91,3.94 3.64,3.94c1.61696,-0.02007 3.20394,-0.43914 4.62,-1.22l0.18,3.43c-1.58589,0.90778 -3.39381,1.35456 -5.22,1.29c-5.62,0 -7.06,-3.46 -7.06,-8.9c0,-5.44 1.89,-9 7,-9c4.14,0 6.06,2.62 6.06,8.16c-0.02,0.29 -0.02,1.41 -0.02,1.92zM389.85,122.77c-2.16,0 -3.07,2.11 -3.07,4.18h5.65c-0.04,-2.01 -0.37,-4.18 -2.62,-4.18z"/><path d="M408.71,124c-0.36554,-0.07167 -0.73754,-0.10518 -1.11,-0.1c-0.99745,0.02332 -1.94372,0.44633 -2.62629,1.17402c-0.68257,0.7277 -1.04421,1.69908 -1.00371,2.69598v9.49h-3.87v-17h3.69v2.52v0c0.72155,-1.76509 2.41405,-2.94044 4.32,-3c0.25188,-0.00618 0.50361,0.01731 0.75,0.07z"/><path d="M420.91,137.22v-22.68h4v22.68z"/><path d="M435.52,137.69c-2.86,0 -4.12,-1.59 -4.12,-4.76c0,0 0,-0.06 0,-9.18h-3.21v-3.53h3.21v-4.25l3.87,-0.51v4.76h3.73v3.53h-3.7v8.33c0,1.5 0.51,2.11 1.65,2.11c0.66008,-0.03842 1.30906,-0.18714 1.92,-0.44l0.13,3.25c-1.10454,0.45263 -2.28632,0.68694 -3.48,0.69z"/></g><g stroke="none"><path d="M232.84,159.3c-0.72145,0.00858 -1.43227,-0.1743 -2.06,-0.53l0.06,-1.16c0.56991,0.38881 1.24027,0.60416 1.93,0.62c1.14,0 1.67,-0.65 1.67,-1.44c0,-0.79 -0.63,-1.25 -1.43,-1.58l-0.29,-0.12c-1.16569,-0.31051 -1.9543,-1.39538 -1.89,-2.6c-0.0274,-0.66439 0.2366,-1.30763 0.72285,-1.76121c0.48625,-0.45357 1.14627,-0.67227 1.80715,-0.59879c0.63783,-0.01444 1.26845,0.13718 1.83,0.44l-0.05,1.12c-0.52007,-0.29516 -1.10261,-0.46307 -1.7,-0.49c-0.92,0 -1.5,0.4 -1.5,1.29c0,0.89 0.5,1.16 1.36,1.52l0.3,0.12c1.17743,0.31568 1.98158,1.4017 1.94,2.62c0.03292,0.71271 -0.24646,1.40436 -0.76516,1.89424c-0.5187,0.48988 -1.22517,0.72932 -1.93484,0.65576z"/><path d="M239.27,159.3c-1.76,0 -2.29,-1.42 -2.29,-3.48c0,-2.06 0.62,-3.48 2.42,-3.48c0.49456,0.0021 0.97898,0.1405 1.4,0.4l-0.06,1c-0.39107,-0.23344 -0.83483,-0.36416 -1.29,-0.38c-0.81,0 -1.38,0.73 -1.38,2.06v0.81c0,1.38 0.65,2.05 1.4,2.05c0.47329,-0.00747 0.93465,-0.14969 1.33,-0.41l0.06,1c-0.47637,0.29615 -1.0293,0.44569 -1.59,0.43z"/><path d="M245.4,153.52c-0.12284,-0.01558 -0.24716,-0.01558 -0.37,0c-0.87818,0.05872 -1.55343,0.80017 -1.53,1.68v4h-1.05v-6.62h1v1.05v0c0.28588,-0.71642 0.96904,-1.19541 1.74,-1.22c0.08278,-0.01362 0.16722,-0.01362 0.25,0z"/><path d="M250.22,159.13l-0.07,-1v0c-0.35345,0.6834 -1.05086,1.12024 -1.82,1.14c-0.50281,0.02823 -0.99201,-0.16925 -1.33431,-0.53863c-0.3423,-0.36938 -0.50204,-0.87217 -0.43569,-1.37137c0,-1.36 1,-2.17 2.58,-2.17c0.33482,0.00272 0.66901,0.02945 1,0.08v-0.78c0,-0.83 -0.48,-1.17 -1.28,-1.17c-0.61927,0.0167 -1.22444,0.18862 -1.76,0.5l-0.06,-1c0.61057,-0.34203 1.3002,-0.51789 2,-0.51c1.25,0 2.14,0.48 2.14,2.19v2.76c0,0.69 0,1.51 0,1.83zM250.09,156.13c-0.29625,-0.05895 -0.598,-0.08577 -0.9,-0.08c-0.7,0 -1.58,0.29 -1.58,1.25c-0.01788,0.2703 0.08172,0.53518 0.27327,0.72673c0.19155,0.19155 0.45643,0.29115 0.72673,0.27327c0.89053,-0.11376 1.54377,-0.8933 1.5,-1.79z"/><path d="M255.27,159.3c-1,0 -1.43,-0.61 -1.43,-1.72v-4.08h-1.35v-1h1.35v-1.69l1.06,-0.16v1.85h1.55v1h-1.55v4c0,0.51 0.2,0.82 0.69,0.82c0.27967,-0.01845 0.55388,-0.08616 0.81,-0.2l0.06,0.91c-0.37242,0.17516 -0.77846,0.26729 -1.19,0.27z"/><path d="M260,159.3c-1.76,0 -2.28,-1.42 -2.28,-3.48c0,-2.06 0.62,-3.48 2.41,-3.48c0.49456,0.0021 0.97898,0.1405 1.4,0.4l-0.05,1c-0.39488,-0.23306 -0.84176,-0.36369 -1.3,-0.38c-0.81,0 -1.38,0.73 -1.38,2.06v0.81c0,1.38 0.66,2.05 1.4,2.05c0.47356,-0.00579 0.93538,-0.14816 1.33,-0.41l0.06,1c-0.47589,0.29725 -1.02916,0.44688 -1.59,0.43z"/><path d="M266.85,159.13v-4.2c0,-0.75 -0.17,-1.5 -1.16,-1.5c-0.81142,0.03587 -1.45955,0.68836 -1.49,1.5v4.2h-1.05v-9.33h1.05v3.57v0c0.41737,-0.60416 1.09612,-0.97506 1.83,-1c1.28,0 1.86,0.79 1.86,2.22v4.57z"/><path d="M277.47,156.11h-3.68v0.25c0,1 0.41,1.93 1.6,1.93c0.6217,-0.00013 1.23109,-0.17325 1.76,-0.5l0.05,1c-0.57593,0.34546 -1.23867,0.51895 -1.91,0.5c-2.05,0 -2.56,-1.44 -2.56,-3.47c0,-2.03 0.75,-3.49 2.55,-3.49c1.23,0 2.21,0.7 2.21,3c0,0.15 -0.01,0.58 -0.02,0.78zM275.25,153.25c-1,0 -1.47,1 -1.47,2h2.71c0,-1.03 -0.2,-2 -1.24,-2z"/><path d="M283,159.13l-0.07,-0.92v0c-0.32529,0.67892 -1.01733,1.10509 -1.77,1.09c-1.65,0 -2.17,-1.51 -2.17,-3.45c0,-1.94 0.57,-3.51 2.26,-3.51c0.69663,-0.01202 1.33831,0.37688 1.65,1v0v-3.54h1.05v7.51c0,0.77 0,1.53 0,1.82zM282.9,155.25c0.10949,-0.90187 -0.50536,-1.73192 -1.4,-1.89c-1,0 -1.44,0.94 -1.44,2.09v0.82c0,1.24 0.55,2 1.39,2c0.88637,-0.12419 1.52221,-0.91789 1.45,-1.81z"/><path d="M286.54,151.44c-0.42154,-0.02681 -0.74279,-0.38822 -0.72,-0.81c-0.03265,-0.27564 0.09604,-0.5455 0.33078,-0.69362c0.23474,-0.14812 0.53371,-0.14812 0.76845,0c0.23474,0.14812 0.36343,0.41798 0.33078,0.69362c0.01371,0.20167 -0.05349,0.40049 -0.18673,0.5525c-0.13324,0.15201 -0.32154,0.24467 -0.52327,0.2575zM286.01,159.13v-6.62h1.05v6.62z"/><path d="M291.23,159.3c-1,0 -1.44,-0.61 -1.44,-1.72v-4.08h-1.36v-1h1.36v-1.69l1.06,-0.16v1.85h1.55v1h-1.55v4c0,0.51 0.2,0.82 0.69,0.82c0.27967,-0.01845 0.55388,-0.08616 0.81,-0.2l0.06,0.91c-0.36936,0.17375 -0.77183,0.26585 -1.18,0.27z"/><path d="M294.54,151.44c-0.42154,-0.02681 -0.74279,-0.38822 -0.72,-0.81c-0.03265,-0.27564 0.09604,-0.5455 0.33078,-0.69362c0.23474,-0.14812 0.53371,-0.14812 0.76845,0c0.23474,0.14812 0.36343,0.41798 0.33078,0.69362c0.01371,0.20167 -0.05349,0.40049 -0.18673,0.5525c-0.13324,0.15201 -0.32154,0.24467 -0.52327,0.2575zM294.01,159.13v-6.62h1.05v6.62z"/><path d="M299.29,159.29c-1.85,0 -2.49,-1.33 -2.49,-3.44c0,-2.11 0.69,-3.51 2.54,-3.51c1.85,0 2.48,1.34 2.48,3.45c0,2.11 -0.69,3.5 -2.53,3.5zM300.74,155.29c0,-1.24 -0.49,-2 -1.42,-2c-0.93,0 -1.43,0.81 -1.43,2.05v0.94c0,1.24 0.49,2 1.41,2c0.92,0 1.44,-0.81 1.44,-2z"/><path d="M307.29,159.13v-4.2c0,-0.75 -0.17,-1.5 -1.17,-1.5c-0.80751,0.0409 -1.44994,0.69201 -1.48,1.5v4.2h-1.05v-6.62h1v0.92v0c0.39755,-0.64784 1.09065,-1.05621 1.85,-1.09c1.28,0 1.87,0.78 1.87,2.22v4.57z"/><path d="M319.45,159.13h-1.19l-1.26,-5.43v0l-1.28,5.43h-1.19l-1.53,-6.62h1l1.14,5.43v0l1.24,-5.43h1.26l1.23,5.43v0l1.13,-5.43h1z"/><path d="M323.08,151.44c-0.20173,-0.01283 -0.39003,-0.1055 -0.52327,-0.2575c-0.13324,-0.15201 -0.20044,-0.35083 -0.18673,-0.5525c-0.03265,-0.27564 0.09604,-0.5455 0.33078,-0.69362c0.23474,-0.14812 0.53371,-0.14812 0.76845,0c0.23474,0.14812 0.36343,0.41798 0.33078,0.69362c0.02279,0.42178 -0.29846,0.78319 -0.72,0.81zM322.56,159.13v-6.62h1.05v6.62z"/><path d="M327.78,159.3c-1,0 -1.44,-0.61 -1.44,-1.72v-4.08h-1.34v-1h1.35v-1.69l1.07,-0.16v1.85h1.58v1h-1.56v4c0,0.51 0.2,0.82 0.69,0.82c0.28285,-0.01873 0.56029,-0.0864 0.82,-0.2l0.06,0.91c-0.38558,0.17808 -0.80528,0.27021 -1.23,0.27z"/><path d="M334.22,159.13v-4.2c0,-0.75 -0.17,-1.5 -1.16,-1.5c-0.81142,0.03587 -1.45955,0.68836 -1.49,1.5v4.2h-1.05v-9.33h1.05v3.57v0c0.41737,-0.60416 1.09612,-0.97506 1.83,-1c1.28,0 1.86,0.79 1.86,2.22v4.57z"/><path d="M343.11,159.3c-2.52,0 -2.9,-2.09 -2.9,-4.56c0,-2.47 0.49,-4.61 3.25,-4.61c0.70071,-0.00484 1.39039,0.17448 2,0.52l-0.05,1.11c-0.57709,-0.35797 -1.24096,-0.55159 -1.92,-0.56c-1.49,0 -2.21,1 -2.21,2.89v1.31c0,2.1 0.81,2.83 1.88,2.83c0.50039,0.00037 0.99259,-0.12698 1.43,-0.37v-2.41h-1.34v-1h2.38v4.12c-0.74729,0.49162 -1.62564,0.74607 -2.52,0.73z"/><path d="M350.54,153.52c-0.1228,-0.01625 -0.2472,-0.01625 -0.37,0c-0.87818,0.05872 -1.55343,0.80017 -1.53,1.68v4h-1.05v-6.62h1v1.05v0c0.28588,-0.71642 0.96904,-1.19541 1.74,-1.22c0.08278,-0.01362 0.16722,-0.01362 0.25,0z"/><path d="M352.66,151.44c-0.20173,-0.01283 -0.39003,-0.1055 -0.52327,-0.2575c-0.13324,-0.15201 -0.20044,-0.35083 -0.18673,-0.5525c-0.04751,-0.28209 0.07649,-0.56556 0.31589,-0.72214c0.23941,-0.15659 0.54881,-0.15659 0.78821,0c0.23941,0.15659 0.36341,0.44005 0.31589,0.72214c0.01371,0.20167 -0.05349,0.40049 -0.18673,0.5525c-0.13324,0.15201 -0.32154,0.24467 -0.52327,0.2575zM352.13,159.13v-6.62h1.05v6.62z"/><path d="M357,153.5v5.63h-1.05v-5.63h-1.35v-1h1.35v-0.87c0,-1.27 0.6,-2 1.71,-2c0.26202,0.0086 0.5229,0.03871 0.78,0.09l-0.06,1c-0.18257,-0.04891 -0.37101,-0.07247 -0.56,-0.07c-0.56,0 -0.82,0.44 -0.82,1.13v0.75h1.55v1z"/><path d="M362,153.5v5.63h-1.1v-5.63h-1.36v-1h1.36v-0.87c0,-1.27 0.59,-2 1.7,-2c0.26208,0.00791 0.52301,0.03802 0.78,0.09l-0.06,1c-0.18242,-0.04969 -0.37096,-0.07325 -0.56,-0.07c-0.56,0 -0.81,0.44 -0.81,1.13v0.75h1.55v1z"/><path d="M367.59,159.3c-0.6937,0.01058 -1.33173,-0.37847 -1.64,-1v0v3.53h-1.06v-9.33h1v0.94v0c0.33933,-0.68289 1.03745,-1.1134 1.8,-1.11c1.63,0 2.17,1.51 2.17,3.45c0,1.94 -0.57,3.52 -2.27,3.52zM368.77,155.37c0,-1.24 -0.55,-2 -1.39,-2c-0.88235,0.12894 -1.51269,0.92125 -1.44,1.81v1.22c-0.10949,0.90187 0.50536,1.73192 1.4,1.89c1,0 1.43,-0.94 1.43,-2.09z"/><path d="M375,159.13l-0.07,-1v0c-0.35828,0.67893 -1.05277,1.11394 -1.82,1.14c-0.50346,0.02769 -0.99324,-0.16955 -1.337,-0.53842c-0.34376,-0.36887 -0.50605,-0.87131 -0.443,-1.37158c0,-1.36 1,-2.17 2.58,-2.17c0.33482,0.00272 0.66901,0.02945 1,0.08v-0.78c0,-0.83 -0.48,-1.17 -1.27,-1.17c-0.61947,0.01541 -1.22495,0.18742 -1.76,0.5l-0.06,-1c0.61057,-0.34203 1.3002,-0.51789 2,-0.51c1.25,0 2.13,0.48 2.13,2.19v2.76c0,0.69 0,1.51 0.05,1.83zM374.87,156.13c-0.29602,-0.06057 -0.59794,-0.08741 -0.9,-0.08c-0.7,0 -1.57,0.29 -1.57,1.25c-0.02131,0.27119 0.07718,0.53812 0.26953,0.73047c0.19235,0.19235 0.45928,0.29084 0.73047,0.26953c0.88406,-0.12295 1.52947,-0.8983 1.49,-1.79z"/><path d="M380,159.3c-1,0 -1.44,-0.61 -1.44,-1.72v-4.08h-1.36v-1h1.36v-1.69l1.06,-0.16v1.85h1.55v1h-1.55v4c0,0.51 0.2,0.82 0.69,0.82c0.28307,-0.01728 0.56077,-0.08501 0.82,-0.2l0.06,0.91c-0.37332,0.17252 -0.77878,0.26451 -1.19,0.27z"/><path d="M384.71,159.3c-1.76,0 -2.29,-1.42 -2.29,-3.48c0,-2.06 0.62,-3.48 2.42,-3.48c0.49427,0.00413 0.97815,0.14238 1.4,0.4l-0.06,1c-0.39419,-0.23466 -0.84149,-0.36541 -1.3,-0.38c-0.8,0 -1.37,0.73 -1.37,2.06v0.81c0,1.38 0.65,2.05 1.4,2.05c0.47329,-0.00747 0.93465,-0.14969 1.33,-0.41l0.06,1c-0.47637,0.29615 -1.0293,0.44569 -1.59,0.43z"/><path d="M391.59,159.13v-4.2c0,-0.75 -0.18,-1.5 -1.17,-1.5c-0.80751,0.0409 -1.44994,0.69201 -1.48,1.5v4.2h-1.05v-9.33h1.05v3.57v0c0.41529,-0.6014 1.08969,-0.97194 1.82,-1c1.28,0 1.87,0.79 1.87,2.22v4.57z"/></g></g></g></svg>