<svg version="1.1" xmlns="http://www.w3.org/2000/svg" xmlns:xlink="http://www.w3.org/1999/xlink" width="254.25" height="46.58333"><g transform="translate(-230.25,-224.16667)"><g data-paper-data="{&quot;isPaintingLayer&quot;:true}" fill="none" fill-rule="nonzero" stroke="none" stroke-width="none" stroke-linecap="none" stroke-linejoin="miter" stroke-miterlimit="10" stroke-dasharray="" stroke-dashoffset="0" font-family="none" font-weight="none" font-size="none" text-anchor="none" style="mix-blend-mode: normal"><g fill="#ff8c00" stroke="none" stroke-width="1" stroke-linecap="butt"><path d="M258.41,268.06c-0.98618,0.01626 -1.9591,-0.22869 -2.82,-0.71l0.09,-2c0.759,0.53706 1.66051,0.83641 2.59,0.86c1.31,0 1.83,-0.71 1.83,-1.55c0,-0.84 -0.66,-1.29 -1.54,-1.64l-0.41,-0.15c-1.59476,-0.41654 -2.66107,-1.91695 -2.53,-3.56c0,-1.88 1.25,-3.24 3.5,-3.24c0.88821,-0.01065 1.76605,0.19166 2.56,0.59l-0.09,2c-0.71944,-0.40577 -1.52475,-0.63537 -2.35,-0.67c-1,0 -1.58,0.47 -1.58,1.35c0,0.88 0.53,1.22 1.51,1.6l0.41,0.17c1.57856,0.40274 2.65391,1.86304 2.57,3.49c0,1.93 -1.23,3.46 -3.74,3.46z"/><path d="M267.24,268c-2.56,0 -3.45,-1.7 -3.45,-4.51c0,-2.81 0.95,-4.59 3.51,-4.59c2.56,0 3.42,1.69 3.42,4.52c0,2.83 -0.94,4.58 -3.48,4.58zM268.71,262.76c0,-1.29 -0.45,-2.14 -1.43,-2.14c-0.98,0 -1.48,0.88 -1.48,2.18v1.34c0,1.29 0.46,2.14 1.44,2.14c0.98,0 1.47,-0.88 1.47,-2.17z"/><path d="M277.64,267.8l-0.12,-1.05v0c-0.55674,0.76858 -1.43212,1.24305 -2.38,1.29c-1.41,0 -2.4,-0.86 -2.4,-2.89v-6h2v5.28c0,0.84 0.26,1.62 1.25,1.62c0.84587,-0.06319 1.49763,-0.77181 1.49,-1.62v-5.28h2v8.62z"/><path d="M286.61,267.8v-5.27c0,-0.85 -0.21,-1.63 -1.28,-1.63c-0.86143,0.03148 -1.54942,0.72824 -1.57,1.59v5.31h-2v-8.62h1.89v1.05v0c0.55143,-0.79511 1.4525,-1.27543 2.42,-1.29c1.49,0 2.47,0.86 2.47,2.9v6z"/><path d="M295.77,267.8l-0.09,-1.05v0c-0.44582,0.81589 -1.31055,1.31388 -2.24,1.29c-2.12,0 -2.85,-1.84 -2.85,-4.53c0,-2.69 0.79,-4.57 3,-4.57c0.82498,-0.03558 1.59926,0.39801 2,1.12v0v-4.41h2v12.15zM295.59,262.8c0,-1.25 -0.68,-2.09 -1.46,-2.09c-1.08,0 -1.52,1 -1.52,2.22v1.09c0,1.38 0.58,2.17 1.46,2.17c0.88,0 1.52,-0.93 1.52,-2z"/><path d="M304.15,267.8v-11.5h5.92v1.86h-3.91v2.74h3.57v1.85h-3.57v3.15h3.91v1.86z"/><path d="M314.92,261v6.83h-2v-6.83h-1.63v-1.79h1.71v-1.05c0,-1.85 1,-2.73 2.53,-2.73c0.40311,0.00431 0.80365,0.0649 1.19,0.18l-0.1,1.72c-0.22236,-0.05652 -0.45059,-0.08673 -0.68,-0.09c-0.61,0 -1,0.4 -1,1.19v0.78h1.89v1.79z"/><path d="M321.53,261v6.83h-2v-6.83h-1.63v-1.79h1.63v-1.05c0,-1.85 1,-2.73 2.53,-2.73c0.40311,0.00431 0.80365,0.0649 1.19,0.18l-0.1,1.72c-0.22236,-0.05652 -0.45059,-0.08673 -0.68,-0.09c-0.61,0 -1,0.4 -1,1.19v0.78h1.89v1.79z"/><path d="M331.25,264.08h-4.64v0.19c-0.0688,0.52026 0.09681,1.04423 0.45212,1.43045c0.35531,0.38621 0.86369,0.59484 1.38788,0.56955c0.8224,-0.01024 1.62958,-0.2232 2.35,-0.62l0.09,1.74c-0.80599,0.45816 -1.72349,0.68321 -2.65,0.65c-2.85,0 -3.58,-1.76 -3.58,-4.51c0,-2.75 1,-4.59 3.55,-4.59c2.1,0 3.07,1.33 3.07,4.14c0,0.17 -0.01,0.74 -0.03,1zM328.13,260.47c-1.09,0 -1.55,1.07 -1.55,2.12h2.86c0,-1.01 -0.17,-2.12 -1.31,-2.12z"/><path d="M336.11,268c-2.5,0 -3.2,-1.81 -3.2,-4.57c0,-2.76 0.85,-4.53 3.41,-4.53c0.66934,0.00282 1.32807,0.1675 1.92,0.48l-0.09,1.79c-0.49467,-0.28252 -1.05067,-0.4404 -1.62,-0.46c-1,0 -1.6,0.78 -1.6,2.28v1.01c0,1.58 0.74,2.27 1.6,2.27c0.60315,-0.00072 1.19458,-0.16673 1.71,-0.48l0.11,1.76c-0.69386,0.34508 -1.4667,0.50033 -2.24,0.45z"/><path d="M343.3,268c-1.45,0 -2.09,-0.81 -2.09,-2.41c0,0 0,0 0,-4.66h-1.61v-1.79h1.63v-2.14l2,-0.26v2.41h1.89v1.85h-1.89v4.23c0,0.76 0.26,1.07 0.84,1.07c0.34407,-0.01867 0.68235,-0.09647 1,-0.23l0.09,1.62c-0.59186,0.23095 -1.22523,0.33651 -1.86,0.31z"/><path d="M349.17,268c-0.85677,0.00452 -1.70152,-0.20152 -2.46,-0.6l0.1,-1.76c0.64127,0.43786 1.39393,0.68412 2.17,0.71c1,0 1.28,-0.47 1.28,-0.95c0,-0.48 -0.15,-0.69 -0.89,-1c-0.2,-0.09 -0.45,-0.18 -0.72,-0.28c-1.17072,-0.35261 -1.95836,-1.44793 -1.92,-2.67c0,-1.64 1.14,-2.52 3,-2.52c0.75436,0.00225 1.49643,0.1912 2.16,0.55l-0.09,1.74c-0.58761,-0.37018 -1.25732,-0.58998 -1.95,-0.64c-0.78,0 -1.08,0.31 -1.08,0.78c0,0.47 0.34,0.76 1.13,1.09l0.52,0.2c1.16851,0.32805 1.94823,1.42884 1.87,2.64c-0.03,1.71 -1.08,2.71 -3.12,2.71z"/></g><path d="M241.9,255.35c0.42482,-0.25982 0.95666,-0.27061 1.39167,-0.02825c0.43501,0.24236 0.70571,0.70029 0.70833,1.19825v12c-0.00262,0.49796 -0.27332,0.95589 -0.70833,1.19825c-0.43501,0.24236 -0.96685,0.23157 -1.39167,-0.02825l-5.9,-3.69h-2.62c-0.76215,0 -1.38,-0.61785 -1.38,-1.38v-4.24c0,-0.76215 0.61785,-1.38 1.38,-1.38h2.62z" data-paper-data="{&quot;origPos&quot;:null}" fill="none" stroke="#ff8c00" stroke-width="1.5" stroke-linecap="butt"/><path d="M231,270l16,-15" data-paper-data="{&quot;origPos&quot;:null}" fill="none" stroke="#ff8c00" stroke-width="1.5" stroke-linecap="round"/><path d="M479.5,226.66667c0,-1.38071 1.11929,-2.5 2.5,-2.5c1.38071,0 2.5,1.11929 2.5,2.5c0,1.38071 -1.11929,2.5 -2.5,2.5c-1.38071,0 -2.5,-1.11929 -2.5,-2.5z" fill="#fafafa" stroke="none" stroke-width="0.5" stroke-linecap="butt"/></g></g></svg>