<svg version="1.1" xmlns="http://www.w3.org/2000/svg" xmlns:xlink="http://www.w3.org/1999/xlink" width="24.7071" height="13.17985" viewBox="0,0,24.7071,13.17985"><g transform="translate(-237.46042,-169.32288)"><g data-paper-data="{&quot;isPaintingLayer&quot;:true}" fill="#faa51f" fill-rule="nonzero" stroke="none" stroke-width="none" stroke-linecap="none" stroke-linejoin="none" stroke-miterlimit="10" stroke-dasharray="" stroke-dashoffset="0" font-family="none" font-weight="none" font-size="none" text-anchor="none" style="mix-blend-mode: normal"><path d="M237.88042,177.76085c4.17666,-4.34509 10.01601,-8.47667 14.16991,-7.72254c0.2454,0.14598 -1.81851,0.9968 -1.18924,2.69191c0.13231,0.44445 -1.2675,2.69578 -2.2539,2.66148c-1.4922,1.15778 -3.93485,3.2112 -5.27173,4.50274" data-paper-data="{&quot;origPos&quot;:null,&quot;origRot&quot;:0,&quot;index&quot;:null}" id="ID0.30105241015553474-4" stroke="#8e5322" stroke-width="0.84" stroke-linecap="round" stroke-linejoin="round"/><path d="M250.57839,169.74288c10.69864,5.74888 12.3114,8.07367 10.56547,10.61419c-0.71623,1.09899 -6.99522,-0.71185 -12.91665,-5.94041" data-paper-data="{&quot;origPos&quot;:null,&quot;origRot&quot;:0,&quot;index&quot;:null}" id="ID0.1790580078959465-2" stroke="#8e5322" stroke-width="0.84" stroke-linecap="round" stroke-linejoin="round"/><path d="M241.25157,175.87773c1.82944,0 3.3125,1.48306 3.3125,3.3125c0,1.82944 -1.48306,3.3125 -3.3125,3.3125c-1.82944,0 -3.3125,-1.48306 -3.3125,-3.3125c0,-1.82944 1.48306,-3.3125 3.3125,-3.3125z" data-paper-data="{&quot;origPos&quot;:null,&quot;index&quot;:null}" stroke="none" stroke-width="0" stroke-linecap="butt" stroke-linejoin="miter"/></g></g></svg>