<svg version="1.1" xmlns="http://www.w3.org/2000/svg" xmlns:xlink="http://www.w3.org/1999/xlink" width="49.17999" height="74.90333" viewBox="0,0,49.17999,74.90333"><g transform="translate(-214.76334,-143.63167)"><g data-paper-data="{&quot;isPaintingLayer&quot;:true}" fill="none" fill-rule="nonzero" stroke="none" stroke-width="none" stroke-linecap="none" stroke-linejoin="none" stroke-miterlimit="10" stroke-dasharray="" stroke-dashoffset="0" font-family="none" font-weight="none" font-size="none" text-anchor="none" style="mix-blend-mode: normal"><g data-paper-data="{&quot;origPos&quot;:null,&quot;origRot&quot;:0}" id="Layer_3"><path d="M240.1496,186.3076c0.48088,0.31122 1.48342,0.84235 0.05281,2.94136c-1.43061,2.09901 -5.64368,2.51246 -6.14056,2.492c-2.28832,0.12993 -4.58026,-0.18156 -6.7509,-0.9175c-7.33755,-2.50704 -7.35601,-10.62458 -4.98006,-11.90258c2.37594,-1.278 3.38855,3.7219 6.66992,6.79133c1.31405,1.17541 2.94217,1.94237 4.68523,2.20706c2.07166,0.45237 5.98269,-1.9229 6.46357,-1.61168z" id="ID0.8535828334279358" fill="#faa51f" stroke="none" stroke-width="1" stroke-linecap="butt" stroke-linejoin="miter"/><path d="M225.31409,180.85824c1.0135,1.48233 2.90669,4.12873 2.90669,4.12873c0,0 -2.49008,-0.39835 -3.78227,0.68476c-1.29219,1.08312 0.06647,3.54329 -0.88021,2.89692c-1.17054,-1.20282 -2.03196,-2.67154 -2.51042,-4.28027c-0.54358,-2.12231 0.2041,-5.06091 1.40844,-5.44727c1.28721,-0.29237 1.84426,0.53479 2.85777,2.01712z" id="ID0.914295740891248" fill="#ffffff" stroke="none" stroke-width="1" stroke-linecap="butt" stroke-linejoin="miter"/><path d="M240.1496,186.3076c0.48088,0.31122 1.48342,0.84235 0.05281,2.94136c-1.43061,2.09901 -5.64368,2.51246 -6.14056,2.492c-2.28832,0.12993 -4.58026,-0.18156 -6.7509,-0.9175c-7.33755,-2.50704 -7.35601,-10.62458 -4.98006,-11.90258c2.37594,-1.278 3.38855,3.7219 6.66992,6.79133c1.31405,1.17541 2.94217,1.94237 4.68523,2.20706c2.07166,0.45237 5.98269,-1.9229 6.46357,-1.61168z" id="ID0.40227043256163597" fill="none" stroke="#8e5322" stroke-width="0.84" stroke-linecap="round" stroke-linejoin="round"/></g><path d="M246.74685,183.04456c0,4.47829 1.06581,11.08377 -6.52275,11.08377c-7.58856,0 -6.90644,-6.0457 -6.90644,-10.54638c0,-4.50068 2.62189,-9.74029 6.90644,-9.74029c4.28455,0 6.52275,4.70221 6.52275,9.20289z" data-paper-data="{&quot;origPos&quot;:null}" id="ID0.46792364912107587" fill="#faa51f" stroke="#8e5322" stroke-width="0.84" stroke-linecap="round" stroke-linejoin="round"/><path d="M245.08419,184.42912c0,3.06902 0.57554,7.67255 -3.51717,7.67255c-4.09271,0 -3.77296,-4.1651 -3.77296,-7.23412c0,-3.06902 1.40687,-3.94588 3.77296,-3.94588c2.3661,0 3.51717,0.43843 3.51717,3.50745z" data-paper-data="{&quot;origPos&quot;:null}" id="ID0.38032895559445024" fill="#ffffff" stroke="none" stroke-width="1" stroke-linecap="butt" stroke-linejoin="miter"/><path d="M248.6616,218.115h-17.4771l-2.9764,-23.13966h23.4405z" data-paper-data="{&quot;origPos&quot;:null}" fill="#cf6f19" stroke="#693d19" stroke-width="0.84" stroke-linecap="round" stroke-linejoin="round"/><path d="M226.51335,195.85095v-4.91595h26.83v4.91595z" data-paper-data="{&quot;origPos&quot;:null}" fill="#cf6f19" stroke="#693d19" stroke-width="0.84" stroke-linecap="round" stroke-linejoin="round"/><path d="M243.65335,176.46167l4.28,1.21c4.7,1.51 3.37,4.61 1.29,6c-0.86,0.55 -3.1,0.31 -3.1,0.32" data-paper-data="{&quot;origPos&quot;:null}" id="ID0.30105241015553474" fill="#faa51f" stroke="#8e5322" stroke-width="0.84" stroke-linecap="round" stroke-linejoin="round"/><path d="M234.07335,183.98167c0,0 -1.78,0.24 -2.47,-0.31c-1.69,-1.38 -2.75,-4.49 1,-6l3.41,-1.21" data-paper-data="{&quot;origPos&quot;:null}" id="ID0.30105241015553474-3" fill="#faa51f" stroke="#8e5322" stroke-width="0.84" stroke-linecap="round" stroke-linejoin="round"/><g data-paper-data="{&quot;origPos&quot;:null}"><g data-paper-data="{&quot;origPos&quot;:null}" id="Layer_2-3"><path d="M241.64335,148.25167l4.32,-4.2l1.68,6.72c0,0 3.72,2.76 4.9,4.66c1.07921,1.74457 1.73662,3.71682 1.92,5.76c0,0 4.14,1.26 4.86,4.56c0.72,3.3 -1.86,9.6 -12.78,11.76c-10.92,2.16 -19.7,-0.88 -23.82,-7.44c-4.12,-6.56 2.36,-14.48 2,-14l-1.32,-11l7.56,4.92c1.7148,-0.63867 3.51389,-1.02275 5.34,-1.14c1.02,-0.06 2.88,0.06 3.78,0.12z" id="ID0.2591130444779992" fill="#faa51f" stroke="none" stroke-width="1" stroke-linecap="butt" stroke-linejoin="miter"/><path d="M254.18335,161.51167c0,0 3.96,0.96 4.68,4.26c0.9,3.3 -2.04,9.54 -12.36,11.4c-2.54506,0.54034 -5.13827,0.82177 -7.74,0.84c-5.1,0.06 -10.68,-3.12 -10.26,-9.78c0.24,-3.84 5.1,-3.54 5.1,-3.54l4.26,-1.08c0,0 4.26,0.96 6.78,0.42c1.33876,-0.12032 2.39968,-1.18124 2.52,-2.52l5.28,-1.56l1.44,1.2z" id="ID0.3588979784399271" fill="#ffffff" stroke="none" stroke-width="1" stroke-linecap="butt" stroke-linejoin="miter"/><path d="M263.52333,161.99167c-0.78455,0.65192 -1.67835,1.15976 -2.64,1.5c-1.31067,0.3931 -2.64727,0.69383 -4,0.9" id="ID0.2727069961838424" fill="none" stroke="#8e5322" stroke-width="0.84" stroke-linecap="round" stroke-linejoin="round"/><path d="M263.12334,168.71167c-0.89974,0.0703 -1.80427,0.0502 -2.7,-0.06c-1.11196,-0.10242 -2.20326,-0.36514 -3.24,-0.78" id="ID0.5861211125738919" fill="none" stroke="#8e5322" stroke-width="0.84" stroke-linecap="round" stroke-linejoin="round"/><path d="M229.58335,149.09167l3.12,2.16" id="ID0.4793355236761272" fill="none" stroke="#8e5322" stroke-width="0.84" stroke-linecap="round" stroke-linejoin="round"/><path d="M241.64335,148.25167l4.32,-4.2l1.68,6.72c0,0 3.72,2.76 4.9,4.66c1.07921,1.74457 1.73662,3.71682 1.92,5.76c0,0 4.14,1.26 4.86,4.56c0.72,3.3 -1.86,9.6 -12.78,11.76c-10.92,2.16 -19.7,-0.88 -23.82,-7.44c-4.12,-6.56 2.36,-14.48 2,-14l-1.32,-11l7.56,4.92c1.7148,-0.63867 3.51389,-1.02275 5.34,-1.14c1.02,-0.06 2.88,0.06 3.78,0.12z" id="ID0.48413723474368453" fill="none" stroke="#8e5322" stroke-width="0.84" stroke-linecap="round" stroke-linejoin="round"/><path d="M222.32335,167.39167c0,0 -2.1,0.3 -3.18,0.36c-1.16235,0.00109 -2.32396,-0.05899 -3.48,-0.18" id="ID0.9024141579866409" fill="none" stroke="#8e5322" stroke-width="0.84" stroke-linecap="round" stroke-linejoin="round"/><path d="M215.18335,161.81167c1.2834,0.29742 2.5307,0.73331 3.72,1.3c1.24309,0.54824 2.42887,1.21817 3.54,2" id="ID0.16030752705410123" fill="none" stroke="#8e5322" stroke-width="0.84" stroke-linecap="round" stroke-linejoin="round"/></g><g data-paper-data="{&quot;origPos&quot;:null}" id="Layer_5"><path d="M251.18335,155.51167c1.68,2.58 1.74,5.58 0.12,6.6c-1.62,1.02 -4.32,-0.18 -6,-2.82c-1.68,-2.64 -1.74,-5.58 -0.12,-6.6c1.62,-1.02 4.32,0.24 6,2.82z" id="ID0.40023312577977777" fill="#ffffff" stroke="#8e5322" stroke-width="0.84" stroke-linecap="round" stroke-linejoin="round"/><path d="M249.76335,157.74167c0.19922,0.38477 0.14421,0.85206 -0.13892,1.18004c-0.28313,0.32799 -0.73738,0.45063 -1.14711,0.30972c-0.40973,-0.14091 -0.69246,-0.51701 -0.71397,-0.94976c-0.09344,-0.2784 -0.06948,-0.58285 0.06636,-0.8432c0.13584,-0.26036 0.37184,-0.45417 0.65364,-0.5368c0.59303,-0.11378 1.17191,0.2546 1.32,0.84" id="ID0.43813491938635707" fill="#414142" stroke="none" stroke-width="1" stroke-linecap="butt" stroke-linejoin="miter"/></g><g data-paper-data="{&quot;origPos&quot;:null}" id="Layer_7"><path d="M237.26335,157.37167c1.68,2.58 1.5,5.7 -0.42,7c-1.92,1.3 -4.86,0.18 -6.54,-2.46c-1.68,-2.64 -1.5,-5.7 0.42,-7c1.92,-1.3 4.86,-0.12 6.54,2.46z" id="ID0.4253597157076001" fill="#ffffff" stroke="#8e5322" stroke-width="0.84" stroke-linecap="round" stroke-linejoin="round"/><path d="M235.22335,159.95167c0.01373,0.58219 -0.42098,1.07777 -1,1.14c-0.29136,0.00287 -0.56947,-0.12147 -0.76161,-0.34051c-0.19214,-0.21904 -0.27919,-0.51099 -0.23839,-0.79949c-0.01373,-0.58219 0.42098,-1.07777 1,-1.14c0.58892,0.04274 1.03435,0.55053 1,1.14" id="ID0.814307457767427" fill="#414142" stroke="none" stroke-width="1" stroke-linecap="butt" stroke-linejoin="miter"/></g><path d="M243.86335,163.31167c1,-0.12 2.4,-0.9 2.58,0.24c0,0.48 -1,2.46 -2,2.52c-1,0.06 -3.34,-1.44 -3.28,-2.34c0.06,-0.9 1.8,-0.3 2.7,-0.42z" data-paper-data="{&quot;origPos&quot;:null}" id="ID0.5240494590252638" fill="#5f4b43" stroke="#8e5322" stroke-width="0.84" stroke-linecap="round" stroke-linejoin="round"/><path d="M243.14335,173.27167c-3.24,0.66 -4.74,-0.72 -4.74,-0.72" data-paper-data="{&quot;origPos&quot;:null}" id="ID0.046259244438260794" fill="#ffffff" stroke="#8e5322" stroke-width="0.84" stroke-linecap="round" stroke-linejoin="round"/></g></g></g></svg>