<svg version="1.1" xmlns="http://www.w3.org/2000/svg" xmlns:xlink="http://www.w3.org/1999/xlink" width="49.17996" height="34.98879" viewBox="0,0,49.17996,34.98879"><g transform="translate(-214.76337,-146.29833)"><g data-paper-data="{&quot;isPaintingLayer&quot;:true}" fill="none" fill-rule="nonzero" stroke="none" stroke-width="none" stroke-linecap="none" stroke-linejoin="none" stroke-miterlimit="10" stroke-dasharray="" stroke-dashoffset="0" font-family="none" font-weight="none" font-size="none" text-anchor="none" style="mix-blend-mode: normal"><g data-paper-data="{&quot;origPos&quot;:null}" id="Layer_2-3"><path d="M241.64337,150.91833l4.32,-4.2l1.68,6.72c0,0 3.72,2.76 4.9,4.66c1.07921,1.74457 1.73662,3.71682 1.92,5.76c0,0 4.14,1.26 4.86,4.56c0.72,3.3 -1.86,9.6 -12.78,11.76c-10.92,2.16 -19.7,-0.88 -23.82,-7.44c-4.12,-6.56 2.36,-14.48 2,-14l-1.32,-11l7.56,4.92c1.7148,-0.63867 3.51389,-1.02275 5.34,-1.14c1.02,-0.06 2.88,0.06 3.78,0.12z" data-paper-data="{&quot;origPos&quot;:null}" id="ID0.2591130444779992" fill="#faa51f" stroke="none" stroke-width="1" stroke-linecap="butt" stroke-linejoin="miter"/><path d="M254.18337,164.17833c0,0 3.96,0.96 4.68,4.26c0.9,3.3 -2.04,9.54 -12.36,11.4c-2.54506,0.54034 -5.13827,0.82177 -7.74,0.84c-5.1,0.06 -10.68,-3.12 -10.26,-9.78c0.24,-3.84 5.1,-3.54 5.1,-3.54l4.26,-1.08c0,0 4.26,0.96 6.78,0.42c1.33876,-0.12032 2.39968,-1.18124 2.52,-2.52l5.28,-1.56l1.44,1.2z" id="ID0.3588979784399271" fill="#ffffff" stroke="none" stroke-width="1" stroke-linecap="butt" stroke-linejoin="miter"/><path d="M263.52333,164.65833c-0.78455,0.65192 -1.67835,1.15976 -2.64,1.5c-1.31067,0.3931 -2.64727,0.69383 -4,0.9" id="ID0.2727069961838424" fill="none" stroke="#8e5322" stroke-width="0.84" stroke-linecap="round" stroke-linejoin="round"/><path d="M263.12334,171.37833c-0.89974,0.0703 -1.80427,0.0502 -2.7,-0.06c-1.11196,-0.10242 -2.20326,-0.36514 -3.24,-0.78" id="ID0.5861211125738919" fill="none" stroke="#8e5322" stroke-width="0.84" stroke-linecap="round" stroke-linejoin="round"/><path d="M229.58337,151.75833l3.12,2.16" id="ID0.4793355236761272" fill="none" stroke="#8e5322" stroke-width="0.84" stroke-linecap="round" stroke-linejoin="round"/><path d="M241.64337,150.91833l4.32,-4.2l1.68,6.72c0,0 3.72,2.76 4.9,4.66c1.07921,1.74457 1.73662,3.71682 1.92,5.76c0,0 4.14,1.26 4.86,4.56c0.72,3.3 -1.86,9.6 -12.78,11.76c-10.92,2.16 -19.7,-0.88 -23.82,-7.44c-4.12,-6.56 2.36,-14.48 2,-14l-1.32,-11l7.56,4.92c1.7148,-0.63867 3.51389,-1.02275 5.34,-1.14c1.02,-0.06 2.88,0.06 3.78,0.12z" id="ID0.48413723474368453" fill="none" stroke="#8e5322" stroke-width="0.84" stroke-linecap="round" stroke-linejoin="round"/><path d="M222.32337,170.05833c0,0 -2.1,0.3 -3.18,0.36c-1.16235,0.00109 -2.32396,-0.05899 -3.48,-0.18" id="ID0.9024141579866409" fill="none" stroke="#8e5322" stroke-width="0.84" stroke-linecap="round" stroke-linejoin="round"/><path d="M215.18337,164.47833c1.2834,0.29742 2.5307,0.73331 3.72,1.3c1.24309,0.54824 2.42887,1.21817 3.54,2" id="ID0.16030752705410123" fill="none" stroke="#8e5322" stroke-width="0.84" stroke-linecap="round" stroke-linejoin="round"/></g><path d="M237.59861,163.99561c0.90122,1.45884 -1.87632,0.29674 -3.57193,0.55237c-1.39128,0.20974 -2.96793,1.21738 -3.72331,0.03035c0,0 1.40031,-0.12309 2.29673,-0.20017c1.94974,-0.16765 4.96117,-0.44299 4.99851,-0.38255z" data-paper-data="{&quot;origPos&quot;:null}" id="ID0.4253597157076001" fill="#faa51f" stroke="#8e5322" stroke-width="0.84" stroke-linecap="round" stroke-linejoin="round"/><path d="M252.33737,162.4108c0.90122,1.45884 -1.87632,0.29674 -3.57193,0.55236c-1.39128,0.20974 -2.96793,1.21739 -3.72331,0.03036c0,0 1.40031,-0.12309 2.29673,-0.20017c1.94974,-0.16765 4.96117,-0.44299 4.99851,-0.38255z" data-paper-data="{&quot;origPos&quot;:null}" id="ID0.4253597157076001 1" fill="#faa51f" stroke="#8e5322" stroke-width="0.84" stroke-linecap="round" stroke-linejoin="round"/><path d="M243.86337,165.97833c1,-0.12 2.4,-0.9 2.58,0.24c0,0.48 -1,2.46 -2,2.52c-1,0.06 -3.34,-1.44 -3.28,-2.34c0.06,-0.9 1.8,-0.3 2.7,-0.42z" data-paper-data="{&quot;origPos&quot;:null}" id="ID0.5240494590252638" fill="#5f4b43" stroke="#8e5322" stroke-width="0.84" stroke-linecap="round" stroke-linejoin="round"/><path d="M238.40337,175.88982c0,0 1.45454,-0.06181 4.74,-0.49273" data-paper-data="{&quot;origPos&quot;:null,&quot;index&quot;:null}" id="ID0.046259244438260794" fill="#ffffff" stroke="#8e5322" stroke-width="0.84" stroke-linecap="round" stroke-linejoin="round"/></g></g></svg>