<svg version="1.1" xmlns="http://www.w3.org/2000/svg" xmlns:xlink="http://www.w3.org/1999/xlink" width="1001.4" height="205"><g transform="translate(15.5,-89.5)"><g data-paper-data="{&quot;isPaintingLayer&quot;:true}" fill="none" fill-rule="nonzero" stroke="none" stroke-width="none" stroke-linecap="butt" stroke-linejoin="miter" stroke-miterlimit="10" stroke-dasharray="" stroke-dashoffset="0" font-family="none" font-weight="none" font-size="none" text-anchor="none" style="mix-blend-mode: normal"><g data-paper-data="{&quot;origPos&quot;:null}" stroke-width="1"><path d="M985.9,294.5h-207.4h-479.9h-0.1h-301.2v-157.1c16.2,2.5 37,5.4 54.1,5.7c54.6,1.1 128.4,-4.2 181,-5.7c39,-1.1 66.1,1.6 66.1,1.6v0l37.2,3.7l53.6,-3c0,0 39.3,-8.4 61.9,-6.5c5.6,0.5 49.1,9.4 80.2,10c54.6,1.1 128.4,-4.2 181,-5.7c39,-1.1 66.1,1.6 66.1,1.6l37.2,3.7l53.6,-3c0,0 39.3,-8.4 61.9,-6.5c4.1,0.3 29.3,5.3 54.7,8.1z" fill="#004d87" opacity="0.8"/><g fill="#4fbaff"><path d="M444.9,133.3c-8,0 -15.9,0.2 -23.7,0.6c3.4,-0.3 6.7,-0.5 10.1,-0.6c4.8,-0.2 9.3,-0.2 13.6,0z"/><path d="M421.2,133.9c-37.6,2.9 -77.2,13.9 -119.9,9.5c-0.6,0.3 -1.3,0 -1.1,1c-3.4,-0.6 -3.7,-0.5 -7.3,-1.1c-68.9,-12.3 -115.9,-0.5 -183.9,-0.6c-16.2,0 -35.1,1.5 -51.5,2.3c0,-0.1 0,-0.1 0,-0.1c-24.7,1.1 -41.5,-3.6 -60.2,-7.4v-2.4c3.2,0.4 6.4,0.8 9.7,1.3c15.3,2.3 34.3,1.5 50,0.6v0c42.1,-2.1 63.1,4.8 110.1,-0.2c42.4,-4.5 82.8,-6 128.5,3.9c0.1,-1.2 0.7,-2.4 0.5,-3.5c3.2,0.3 3.7,0.4 7,0.7c41.2,3.5 79.2,-2.2 118.1,-4z"/><path d="M901.1,133.9c-37.6,2.9 -77.2,13.9 -120,9.5c-0.5,0.4 -1.4,0.2 -1.2,1.2c-3.4,-0.7 -3.6,-0.5 -7.3,-1.1c-69.2,-10.7 -115.8,-0.7 -183.8,-0.8c-16.2,0 -35.1,1.5 -51.5,2.3c0,-0.1 0,-0.1 0,-0.1c-37.5,1.7 -56.8,-10.2 -92.5,-11.6c13.8,0.1 27.7,0.9 42.1,3.1c15.3,2.3 34.3,1.5 50,0.6v0c42.1,-2.1 63.1,4.8 110.1,-0.2c42.5,-4.5 82.9,-6 128.6,3.9c0.1,-1.1 0.7,-2.4 0.5,-3.5c3.2,0.3 3.7,0.4 7,0.7c41.2,3.5 79.2,-2.2 118,-4z"/><path d="M924.9,133.3c-8,0 -15.9,0.2 -23.7,0.6c3.4,-0.3 6.7,-0.5 10.1,-0.6c4.8,-0.2 9.3,-0.2 13.6,0z"/><path d="M985.9,143.2c-20,-3.1 -36.7,-8.9 -61,-9.9c13.8,0.1 27.7,0.9 42.1,3.1c5.9,0.8 12.3,1.3 18.9,1.4z"/></g><g fill="#9acbe2"><path d="M934.4,133.9c-44.7,-3.4 -86.6,15.8 -133.1,14.3c-7.1,-0.2 -18.1,-3.6 -25.8,-4.4c1,0.1 0,0 0,0c-13.5,-3 -36.9,-8.5 -44.4,-9.2c-39.5,-3.8 -71,7.2 -108.3,4.2c47.2,-5.2 84.4,-10.6 132.4,-4.6c7.3,1 19.7,2.6 27.6,3.9c0,0.1 0,-0.1 0,0c13.8,2.4 38.9,5.9 45.5,5.2c34.8,-3.5 74.3,-16.6 106.1,-9.4z"/><path d="M303,137.8c0,0.1 0,-0.1 0,0c13.8,2.4 38.8,6.3 45.3,5.6c34.7,-3.6 74.3,-16.7 106.1,-9.4c-44.7,-3.4 -86.6,15.8 -133.1,14.3c-7.1,-0.2 -18.1,-3.6 -25.8,-4.4c0,-0.2 0,0.2 0,0c-13.5,-3 -36.8,-8.5 -44.3,-9.2c-39.5,-3.8 -71,7.2 -108.3,4.2c47.2,-5.2 84.4,-10.6 132.4,-4.6c7.3,0.9 19.8,2.2 27.7,3.5z"/></g></g><path d="M-15.5,92c0,-1.38071 1.11929,-2.5 2.5,-2.5c1.38071,0 2.5,1.11929 2.5,2.5c0,1.38071 -1.11929,2.5 -2.5,2.5c-1.38071,0 -2.5,-1.11929 -2.5,-2.5z" data-paper-data="{&quot;origPos&quot;:null}" fill="#9966ff" stroke-width="0.5"/></g></g></svg>