<svg version="1.1" xmlns="http://www.w3.org/2000/svg" xmlns:xlink="http://www.w3.org/1999/xlink" width="16.4177" height="12.82643" viewBox="0,0,16.4177,12.82643"><g transform="translate(-234.87425,-176.49288)"><g data-paper-data="{&quot;isPaintingLayer&quot;:true}" fill="none" fill-rule="nonzero" stroke="none" stroke-width="none" stroke-linecap="none" stroke-linejoin="none" stroke-miterlimit="10" stroke-dasharray="" stroke-dashoffset="0" font-family="none" font-weight="none" font-size="none" text-anchor="none" style="mix-blend-mode: normal"><path d="M235.81404,179.80538c0,-1.82944 1.48306,-3.3125 3.3125,-3.3125c1.82944,0 3.3125,1.48306 3.3125,3.3125c0,1.82944 -1.48306,3.3125 -3.3125,3.3125c-1.82944,0 -3.3125,-1.48306 -3.3125,-3.3125z" data-paper-data="{&quot;origPos&quot;:null}" fill="#faa51f" stroke="none" stroke-width="0" stroke-linecap="butt" stroke-linejoin="miter"/><path d="M241.11295,182.46827c-0.08759,1.63086 -0.07428,3.28848 0.03984,4.96389c0.67249,0.69919 -0.04842,0.93907 -0.46705,1.06987c-1.67834,0.40835 -3.28479,-0.08291 -3.55472,-0.18668c-2.7287,-2.6358 -1.74918,-4.63347 -1.24397,-9.88691" data-paper-data="{&quot;origPos&quot;:null,&quot;origRot&quot;:0}" id="ID0.30105241015553474-4" fill="#faa51f" stroke="#8e5322" stroke-width="0.84" stroke-linecap="round" stroke-linejoin="round"/><path d="M237.13199,183.82298c6.42027,-4.59501 12.77269,-5.65054 13.338,-4.43618c1.39494,2.81863 -0.46359,4.99101 -11.61232,9.51251" data-paper-data="{&quot;origPos&quot;:null,&quot;origRot&quot;:0}" id="ID0.1790580078959465-2" fill="#faa51f" stroke="#8e5322" stroke-width="0.84" stroke-linecap="round" stroke-linejoin="round"/></g></g></svg>