<svg version="1.1" xmlns="http://www.w3.org/2000/svg" xmlns:xlink="http://www.w3.org/1999/xlink" width="16.30047" height="12.92773" viewBox="0,0,16.30047,12.92773"><g transform="translate(-231.31512,-176.11788)"><g data-paper-data="{&quot;isPaintingLayer&quot;:true}" fill="#faa51f" fill-rule="nonzero" stroke="none" stroke-width="none" stroke-linecap="none" stroke-linejoin="none" stroke-miterlimit="10" stroke-dasharray="" stroke-dashoffset="0" font-family="none" font-weight="none" font-size="none" text-anchor="none" style="mix-blend-mode: normal"><path d="M235.06404,179.43038c0,-1.82944 1.48306,-3.3125 3.3125,-3.3125c1.82944,0 3.3125,1.48306 3.3125,3.3125c0,1.82944 -1.48306,3.3125 -3.3125,3.3125c-1.82944,0 -3.3125,-1.48306 -3.3125,-3.3125z" data-paper-data="{&quot;origPos&quot;:null}" stroke="none" stroke-width="0" stroke-linecap="butt" stroke-linejoin="miter"/><path d="M238.11867,183.00579c-0.82777,1.52018 -1.58285,3.11337 -2.26115,4.77094c0.24374,0.98521 -0.47496,0.87628 -0.88836,0.8049c-1.60377,-0.39729 -2.73105,-1.62206 -2.91066,-1.84817c-1.08205,-3.80492 0.66728,-5.25739 3.52181,-10.04954" data-paper-data="{&quot;origPos&quot;:null,&quot;origRot&quot;:0}" id="ID0.30105241015553474-4" stroke="#8e5322" stroke-width="0.84" stroke-linecap="round" stroke-linejoin="round"/><path d="M233.26147,183.16754c6.58522,-4.60048 13.02015,-5.53124 13.56257,-4.25699c1.34254,2.95976 -0.58321,5.16514 -11.93845,9.56719" data-paper-data="{&quot;origPos&quot;:null,&quot;origRot&quot;:0}" id="ID0.1790580078959465-2" stroke="#8e5322" stroke-width="0.84" stroke-linecap="round" stroke-linejoin="round"/></g></g></svg>