<svg version="1.1" xmlns="http://www.w3.org/2000/svg" xmlns:xlink="http://www.w3.org/1999/xlink" width="267.67" height="29.48887" viewBox="0,0,267.67,29.48887"><g transform="translate(-231.83,-199.6778)"><g data-paper-data="{&quot;isPaintingLayer&quot;:true}" fill="none" fill-rule="nonzero" stroke="none" stroke-width="none" stroke-linecap="butt" stroke-linejoin="miter" stroke-miterlimit="10" stroke-dasharray="" stroke-dashoffset="0" font-family="none" font-weight="none" font-size="none" text-anchor="none" style="mix-blend-mode: normal"><path d="M241.11,218.77l-6.28,-13v0v13h-3v-18.67h3.48l6.29,13v0l-0.07,-13h3v18.67z" fill="#ff8c00" stroke-width="1"/><path d="M258.49,212.73h-7.49v0.3c0,1.63 0.74,3.25 3,3.25c1.33322,-0.01268 2.64241,-0.3563 3.81,-1l0.15,2.83c-1.30873,0.75172 -2.80165,1.12235 -4.31,1.07c-4.62,0 -5.81,-2.86 -5.81,-7.34c0,-4.48 1.56,-7.45 5.76,-7.45c3.42,0 5,2.16 5,6.72c-0.06,0.27 -0.09,1.2 -0.11,1.62zM253.42,206.87c-1.78,0 -2.52,1.74 -2.52,3.45h4.65c0,-1.65 -0.28,-3.45 -2.13,-3.45z" fill="#ff8c00" stroke-width="1"/><path d="M275.34,218.77h-3.69l-2.22,-10.58v0l-2.25,10.58h-3.66l-3.09,-14h3l2,10.59v0l2.12,-10.59h3.79l2.12,10.59v0l2,-10.59h2.87z" fill="#ff8c00" stroke-width="1"/><path d="M293.71,219.19c-5.46,0 -6.5,-4.06 -6.5,-9.71c0,-5.65 1.48,-9.8 7.32,-9.8c1.59161,-0.03467 3.16538,0.34069 4.57,1.09l-0.14,3.11c-1.29554,-0.72153 -2.74747,-1.11627 -4.23,-1.15c-2.85,0 -4.18,2 -4.18,5.49v2.52c0,4 1.41,5.4 3.39,5.4c0.85331,0.01911 1.69607,-0.19158 2.44,-0.61v-4.18h-2.38v-2.91h5.52v9.13c-1.73583,1.09823 -3.75635,1.66161 -5.81,1.62z" fill="#ff8c00" stroke-width="1"/><path d="M310,218.77l-0.17,-1.82v0c-0.73429,1.40441 -2.20589,2.2664 -3.79,2.22c-2.55,0 -3.76,-1.74 -3.76,-4.15c0,-3.08 2.28,-4.65 5.54,-4.65c0.5952,0.00429 1.18961,0.04436 1.78,0.12v-1.21c0,-1.48 -0.94,-2 -2.37,-2c-1.33773,0.02615 -2.65024,0.36884 -3.83,1l-0.15,-2.85c1.39651,-0.7209 2.94851,-1.08829 4.52,-1.07c2.87,0 5.05,0.87 5.05,4.87v9.52zM309.58,212.7c-0.43358,-0.06476 -0.87164,-0.09485 -1.31,-0.09c-1.23,0 -2.79,0.51 -2.79,2.16c-0.05729,0.45718 0.09178,0.91615 0.40678,1.25241c0.315,0.33626 0.76327,0.51495 1.22322,0.48759c1.29,0 2.47,-1.35 2.47,-3.17z" fill="#ff8c00" stroke-width="1"/><path d="M331.3,218.77v-8.56c0,-1.38 -0.35,-2.64 -1.83,-2.64c-1.32646,0.12913 -2.33627,1.24729 -2.33,2.58v8.62h-3.21v-8.56c0,-1.38 -0.32,-2.64 -1.81,-2.64c-1.32477,0.12943 -2.33149,1.24897 -2.32,2.58v8.62h-3.22v-14h3.07v1.71v0c0.82231,-1.25098 2.1945,-2.03191 3.69,-2.1c1.53377,-0.12935 2.94348,0.84821 3.36,2.33c0.84359,-1.34563 2.27631,-2.21046 3.86,-2.33c2.82,0 3.91,1.85 3.91,4.71v9.68z" fill="#ff8c00" stroke-width="1"/><path d="M348.35,212.73h-7.54v0.3c0,1.63 0.74,3.25 3,3.25c1.33322,-0.01268 2.64241,-0.3563 3.81,-1l0.15,2.83c-1.30522,0.7514 -2.79485,1.12208 -4.3,1.07c-4.63,0 -5.82,-2.86 -5.82,-7.34c0,-4.48 1.56,-7.45 5.77,-7.45c3.41,0 5,2.16 5,6.72c-0.02,0.27 -0.04,1.2 -0.07,1.62zM343.28,206.87c-1.78,0 -2.52,1.74 -2.52,3.45h4.65c0,-1.65 -0.27,-3.45 -2.13,-3.45z" fill="#ff8c00" stroke-width="1"/><path d="M494.5,226.66667c0,-1.38071 1.11929,-2.5 2.5,-2.5c1.38071,0 2.5,1.11929 2.5,2.5c0,1.38071 -1.11929,2.5 -2.5,2.5c-1.38071,0 -2.5,-1.11929 -2.5,-2.5z" fill="#fafafa" stroke-width="0.5"/></g></g></svg>