<svg version="1.1" xmlns="http://www.w3.org/2000/svg" xmlns:xlink="http://www.w3.org/1999/xlink" width="16.27625" height="12.18446" viewBox="0,0,16.27625,12.18446"><g transform="translate(-227.71435,-171.49024)"><g data-paper-data="{&quot;isPaintingLayer&quot;:true}" fill="#faa51f" fill-rule="nonzero" stroke="none" stroke-width="none" stroke-linecap="none" stroke-linejoin="none" stroke-miterlimit="10" stroke-dasharray="" stroke-dashoffset="0" font-family="none" font-weight="none" font-size="none" text-anchor="none" style="mix-blend-mode: normal"><path d="M234.68904,180.3622c0,-1.82944 1.48306,-3.3125 3.3125,-3.3125c1.82944,0 3.3125,1.48306 3.3125,3.3125c0,1.82944 -1.48306,3.3125 -3.3125,3.3125c-1.82944,0 -3.3125,-1.48306 -3.3125,-3.3125z" data-paper-data="{&quot;origPos&quot;:null}" stroke="none" stroke-width="0" stroke-linecap="butt" stroke-linejoin="miter"/><path d="M235.77426,182.65956c-4.69451,-3.01242 -6.90841,-3.53053 -7.63991,-7.41809c0.0597,-0.28252 0.52118,-1.88186 1.77859,-2.95369c0.33799,-0.24853 0.93235,-0.66702 1.15435,0.32332c1.34728,1.18002 2.7345,2.26815 4.15414,3.25849" data-paper-data="{&quot;origPos&quot;:null,&quot;origRot&quot;:0,&quot;index&quot;:null}" id="ID0.30105241015553474-4" stroke="#8e5322" stroke-width="0.84" stroke-linecap="round" stroke-linejoin="round"/><path d="M231.26059,171.91024c11.35524,4.40205 13.28099,6.60743 11.93845,9.56719c-0.54242,1.27425 -6.97735,0.34349 -13.56257,-4.25699" data-paper-data="{&quot;origPos&quot;:null,&quot;origRot&quot;:0,&quot;index&quot;:null}" id="ID0.1790580078959465-2" stroke="#8e5322" stroke-width="0.84" stroke-linecap="round" stroke-linejoin="round"/></g></g></svg>