<svg version="1.1" xmlns="http://www.w3.org/2000/svg" xmlns:xlink="http://www.w3.org/1999/xlink" width="16.27625" height="12.27986" viewBox="0,0,16.27625,12.27986"><g transform="translate(-227.71435,-176.11788)"><g data-paper-data="{&quot;isPaintingLayer&quot;:true}" fill="none" fill-rule="nonzero" stroke="none" stroke-width="none" stroke-linecap="none" stroke-linejoin="none" stroke-miterlimit="10" stroke-dasharray="" stroke-dashoffset="0" font-family="none" font-weight="none" font-size="none" text-anchor="none" style="mix-blend-mode: normal"><path d="M235.06404,179.43038c0,-1.82944 1.48306,-3.3125 3.3125,-3.3125c1.82944,0 3.3125,1.48306 3.3125,3.3125c0,1.82944 -1.48306,3.3125 -3.3125,3.3125c-1.82944,0 -3.3125,-1.48306 -3.3125,-3.3125z" data-paper-data="{&quot;origPos&quot;:null}" fill="#faa51f" stroke="none" stroke-width="0" stroke-linecap="butt" stroke-linejoin="miter"/><path d="M235.22143,184.01839c-1.41964,0.99034 -2.80686,2.07847 -4.15414,3.25849c-0.222,0.99034 -0.81636,0.57185 -1.15435,0.32332c-1.25741,-1.07183 -1.71889,-2.67117 -1.77859,-2.95369c0.7315,-3.88756 2.9454,-4.40567 7.63991,-7.41809" data-paper-data="{&quot;origPos&quot;:null,&quot;origRot&quot;:0}" id="ID0.30105241015553474-4" fill="#faa51f" stroke="#8e5322" stroke-width="0.84" stroke-linecap="round" stroke-linejoin="round"/><path d="M229.63647,182.66754c6.58522,-4.60048 13.02015,-5.53124 13.56257,-4.25699c1.34254,2.95976 -0.58321,5.16514 -11.93845,9.56719" data-paper-data="{&quot;origPos&quot;:null,&quot;origRot&quot;:0}" id="ID0.1790580078959465-2" fill="#faa51f" stroke="#8e5322" stroke-width="0.84" stroke-linecap="round" stroke-linejoin="round"/></g></g></svg>