<svg version="1.1" xmlns="http://www.w3.org/2000/svg" xmlns:xlink="http://www.w3.org/1999/xlink" width="42.69577" height="7.7127" viewBox="0,0,42.69577,7.7127"><g transform="translate(-239.56404,-175.69787)"><g data-paper-data="{&quot;isPaintingLayer&quot;:true}" fill="#faa51f" fill-rule="nonzero" stroke="none" stroke-width="none" stroke-linecap="none" stroke-linejoin="none" stroke-miterlimit="10" stroke-dasharray="" stroke-dashoffset="0" font-family="none" font-weight="none" font-size="none" text-anchor="none" style="mix-blend-mode: normal"><path d="M241.80849,176.85792c9.62335,-1.21621 21.41715,-1.19677 26.65092,2.08569c0.22252,0.2837 -3.42516,-0.2626 -3.98319,1.63379c-0.19254,0.47667 -4.09724,1.58795 -5.46377,0.93662c-3.10091,0.08529 -10.12047,0.39424 -13.11593,0.6957" data-paper-data="{&quot;origPos&quot;:null,&quot;origRot&quot;:0,&quot;index&quot;:null}" id="ID0.30105241015553474-4" stroke="#8e5322" stroke-width="0.84" stroke-linecap="round" stroke-linejoin="round"/><path d="M256.69277,176.45094c17.37452,-0.85528 25.66861,0.37168 25.12167,3.6462c-0.18797,1.39679 -8.99475,3.29071 -19.72681,1.36193" data-paper-data="{&quot;origPos&quot;:null,&quot;origRot&quot;:0,&quot;index&quot;:null}" id="ID0.1790580078959465-2" stroke="#8e5322" stroke-width="0.84" stroke-linecap="round" stroke-linejoin="round"/><path d="M242.87654,176.78558c1.82944,0 3.3125,1.48306 3.3125,3.3125c0,1.82944 -1.48306,3.3125 -3.3125,3.3125c-1.82944,0 -3.3125,-1.48306 -3.3125,-3.3125c0,-1.82944 1.48306,-3.3125 3.3125,-3.3125z" data-paper-data="{&quot;origPos&quot;:null,&quot;index&quot;:null}" stroke="none" stroke-width="0" stroke-linecap="butt" stroke-linejoin="miter"/></g></g></svg>