<svg version="1.1" xmlns="http://www.w3.org/2000/svg" xmlns:xlink="http://www.w3.org/1999/xlink" width="22.7627" height="13.30608" viewBox="0,0,22.7627,13.30608"><g transform="translate(-237.42221,-169.0618)"><g data-paper-data="{&quot;isPaintingLayer&quot;:true}" fill="#faa51f" fill-rule="nonzero" stroke="none" stroke-width="none" stroke-linecap="none" stroke-linejoin="none" stroke-miterlimit="10" stroke-dasharray="" stroke-dashoffset="0" font-family="none" font-weight="none" font-size="none" text-anchor="none" style="mix-blend-mode: normal"><path d="M237.56404,179.05538c0,-1.82944 1.48306,-3.3125 3.3125,-3.3125c1.82944,0 3.3125,1.48306 3.3125,3.3125c0,1.82944 -1.48306,3.3125 -3.3125,3.3125c-1.82944,0 -3.3125,-1.48306 -3.3125,-3.3125z" data-paper-data="{&quot;origPos&quot;:null}" stroke="none" stroke-width="0" stroke-linecap="butt" stroke-linejoin="miter"/><path d="M237.84221,178.10258c3.76914,-5.4018 4.64131,-8.01032 8.65739,-8.62078c0.2739,0.09039 1.80473,0.74963 2.6797,2.3236c0.19549,0.42041 0.52065,1.15843 -0.5081,1.35651c-1.39816,1.52893 -2.71052,3.11175 -3.92994,4.73992" data-paper-data="{&quot;origPos&quot;:null,&quot;origRot&quot;:0,&quot;index&quot;:null}" id="ID0.30105241015553474-4" stroke="#8e5322" stroke-width="0.84" stroke-linecap="round" stroke-linejoin="round"/><path d="M247.82637,170.20588c11.42056,5.69503 13.14995,8.01169 11.30482,10.56095c-0.75662,1.10258 -7.45093,-0.67668 -13.78288,-5.87541" data-paper-data="{&quot;origPos&quot;:null,&quot;origRot&quot;:0,&quot;index&quot;:null}" id="ID0.1790580078959465-2" stroke="#8e5322" stroke-width="0.84" stroke-linecap="round" stroke-linejoin="round"/></g></g></svg>