<svg version="1.1" xmlns="http://www.w3.org/2000/svg" xmlns:xlink="http://www.w3.org/1999/xlink" width="298.30294" height="222.37433" viewBox="0,0,298.30294,222.37433"><g transform="translate(-90.30353,-62.30248)"><g data-paper-data="{&quot;isPaintingLayer&quot;:true}" fill="#ffffff" fill-rule="nonzero" stroke="#000000" stroke-width="none" stroke-linecap="butt" stroke-linejoin="miter" stroke-miterlimit="10" stroke-dasharray="" stroke-dashoffset="0" font-family="none" font-weight="none" font-size="none" text-anchor="none" style="mix-blend-mode: normal"><g stroke-width="1.15504"><path d="M105.51,83.72v10.54h-5.41v-10.54l-8.91,-20.17h5.86l5.86,14.64v0l5.94,-14.64h5.53z"/><path d="M124.25,94.91c-6.84,0 -9.2,-4.56 -9.2,-12.07c0,-7.51 2.53,-12.25 9.36,-12.25c6.83,0 9.15,4.52 9.15,12.07c0,7.55 -2.56,12.25 -9.31,12.25zM128.19,80.91c0,-3.45 -1.22,-5.71 -3.82,-5.71c-2.6,0 -4,2.35 -4,5.8v3.59c0,3.46 1.22,5.71 3.83,5.71c2.61,0 3.94,-2.34 3.94,-5.8z"/><path d="M152.07,94.26l-0.33,-2.8v0c-1.48048,2.0523 -3.8127,3.32141 -6.34,3.45c-3.79,0 -6.43,-2.3 -6.43,-7.74v-15.93h5.25v14.09c0,2.26 0.69,4.33 3.33,4.33c2.26393,-0.16813 4.01149,-2.05987 4,-4.33v-14.09h5.25v23z"/><path d="M184.77,95c-9,0 -10.69,-6.68 -10.69,-16c0,-9.32 2.44,-16.12 12,-16.12c2.61823,-0.05371 5.20676,0.56244 7.52,1.79l-0.24,5.12c-2.14227,-1.19639 -4.5467,-1.84558 -7,-1.89c-4.68,0 -6.87,3.22 -6.87,9v4.15c0,6.58 2.32,8.89 5.57,8.89c1.39867,0.02952 2.77977,-0.31575 4,-1v-6.86h-4v-4.81h9.07v15c-2.78872,1.79957 -6.0411,2.74818 -9.36,2.73z"/><path d="M208.58,94.91c-6.83,0 -9.19,-4.56 -9.19,-12.07c0,-7.51 2.52,-12.25 9.35,-12.25c6.83,0 9.16,4.52 9.16,12.07c0,7.55 -2.52,12.25 -9.32,12.25zM212.53,80.91c0,-3.45 -1.22,-5.71 -3.83,-5.71c-2.61,0 -3.94,2.35 -3.94,5.8v3.59c0,3.46 1.22,5.71 3.82,5.71c2.6,0 3.95,-2.34 3.95,-5.8z"/><path d="M231.28,94.91c-3.86,0 -5.57,-2.17 -5.57,-6.45c0,0 0,-0.09 0,-12.43h-4.36v-4.79h4.36v-5.76l5.25,-0.69v6.45h5v4.76h-5v11.28c0,2 0.7,2.86 2.24,2.86c0.89369,-0.05616 1.77207,-0.25887 2.6,-0.6l0.25,4.33c-1.50471,0.66139 -3.12654,1.01499 -4.77,1.04z"/><path d="M262.4,95c-9.28,0 -10.95,-6.41 -10.95,-16.08c0,-9.67 2,-16 11.31,-16c9.31,0 10.95,6.4 10.95,16c0,9.6 -2,16.08 -11.31,16.08zM268.21,76.94c0,-6 -1.79,-9 -5.57,-9c-3.78,0 -5.69,3 -5.69,9v4c0,6 1.79,9 5.57,9c3.78,0 5.69,-3 5.69,-9z"/><path d="M290.55,94.26h-6.38l-6.72,-23h5.45l4.6,18.28v0l4.6,-18.28h5.12z"/><path d="M317.82,84.32h-12.41v0.5c0,2.67 1.22,5.35 4.92,5.35c2.19457,-0.03031 4.34793,-0.60042 6.27,-1.66l0.24,4.65c-2.15203,1.22866 -4.60337,1.83457 -7.08,1.75c-7.6,0 -9.56,-4.7 -9.56,-12.07c0,-7.37 2.57,-12.25 9.48,-12.25c5.62,0 8.22,3.55 8.22,11.06c0,0.46 -0.04,1.98 -0.08,2.67zM309.48,74.69c-2.93,0 -4.15,2.86 -4.15,5.67h7.67c0,-2.72 -0.47,-5.67 -3.52,-5.67z"/><path d="M335,76.3c-0.49782,-0.09301 -1.00361,-0.13656 -1.51,-0.13c-1.35662,0.02 -2.64686,0.59046 -3.57462,1.58044c-0.92776,0.98999 -1.41337,2.3145 -1.34538,3.66956v12.84h-5.25v-23h5v3.41v0c0.97355,-2.39271 3.2679,-3.98503 5.85,-4.06c0.33629,-0.01097 0.67254,0.02266 1,0.1z"/><path d="M351.46,94.26v-30.71h5.41v30.71z"/><path d="M371.1,94.91c-3.86,0 -5.57,-2.17 -5.57,-6.45c0,0 0,-0.09 0,-12.43h-4.35v-4.79h4.35v-5.76l5.25,-0.69v6.45h5v4.76h-5v11.28c0,2 0.69,2.86 2.24,2.86c0.89333,-0.05864 1.77131,-0.26125 2.6,-0.6l0.24,4.33c-1.50161,0.66008 -3.11992,1.01366 -4.76,1.04z"/><path d="M383.46,94.91c-1.48689,0.16158 -2.91943,-0.61045 -3.60206,-1.94122c-0.68263,-1.33077 -0.47396,-2.94467 0.52468,-4.05806c0.99864,-1.11339 2.58043,-1.49569 3.97733,-0.96126c1.3969,0.53443 2.31958,1.8749 2.32005,3.37054c0.08052,0.91052 -0.22023,1.81365 -0.83056,2.49411c-0.61033,0.68046 -1.47556,1.07729 -2.38944,1.09589zM385.99,83.21h-5l-0.24,-19.66h5.49z"/></g><g stroke-width="0.55293"><path d="M96.18,279.51h-4.18v-14.81h4.35c2.28,0 4.33,0.66 4.33,3.64c0.0843,1.453 -0.79326,2.78965 -2.16,3.29v0c1.5863,0.34679 2.66381,1.82354 2.51,3.44c-0.03,2.82 -1.33,4.44 -4.85,4.44zM96.12,267h-1.57v3.71h1.45c0.55814,0.08493 1.12394,-0.09543 1.52996,-0.48772c0.40601,-0.39228 0.60573,-0.95155 0.54004,-1.51228c0,-1.3 -0.71,-1.71 -1.95,-1.71zM96.12,273h-1.57v4.26h1.45c1.59,0 2.42,-0.71 2.42,-2.13c0,-1.42 -0.85,-2.19 -2.3,-2.19z"/><path d="M109.27,270.85c-0.23675,-0.04941 -0.47817,-0.07288 -0.72,-0.07c-0.64917,0.02066 -1.2628,0.3014 -1.70287,0.77909c-0.44008,0.47769 -0.66966,1.11223 -0.63713,1.76091v6.19h-2.49v-11.1h2.38v1.64v0c0.4431,-1.16279 1.53667,-1.94953 2.78,-2c0.16149,-0.00414 0.32283,0.01267 0.48,0.05z"/><path d="M115.59,279.82c-3.25,0 -4.37,-2.19 -4.37,-5.82c0,-3.63 1.2,-5.91 4.45,-5.91c3.25,0 4.35,2.18 4.35,5.83c0,3.65 -1.2,5.9 -4.43,5.9zM117.47,273.07c0,-1.67 -0.58,-2.75 -1.82,-2.75c-1.24,0 -1.87,1.13 -1.87,2.8v1.73c0,1.66 0.58,2.75 1.81,2.75c1.23,0 1.88,-1.13 1.88,-2.8z"/><path d="M129,279.51l-0.15,-1.35v0c-0.70014,0.97559 -1.80152,1.58502 -3,1.66c-1.8,0 -3,-1.11 -3,-3.73v-7.68h2.49v6.79c0,1.09 0.33,2.09 1.58,2.09c1.08409,-0.08924 1.91418,-1.00233 1.9,-2.09v-6.79h2.49v11.1z"/><path d="M138,284.4c-1.16702,0.0117 -2.31736,-0.27761 -3.34,-0.84l0.11,-2.45c0.87089,0.59437 1.88732,0.94009 2.94,1c1.68,0 2.61,-0.85 2.61,-2.93v-1.09v0c-0.58627,0.94192 -1.63121,1.49871 -2.74,1.46c-2.69,0 -3.6,-2.33 -3.6,-5.68c0,-3.35 1,-5.74 3.75,-5.74c1.15532,-0.05645 2.23162,0.58617 2.73,1.63v0l0.11,-1.31h2.25v10.73c-0.01,3.4 -1.95,5.22 -4.82,5.22zM140.31,273c0,-1.51 -0.87,-2.55 -1.87,-2.55c-1.38,0 -1.92,1.2 -1.92,2.75v1.31c0,1.71 0.74,2.67 1.86,2.67c1.12,0 1.93,-1.13 1.93,-2.49z"/><path d="M152.11,279.51v-6.8c0,-1.08 -0.29,-2.08 -1.63,-2.08c-1.10969,0.04267 -1.99014,0.94953 -2,2.06v6.82h-2.48v-15.66h2.51v5.78v0c0.71202,-0.94493 1.81717,-1.51224 3,-1.54c1.93,0 3.13,1.16 3.13,3.74v7.68z"/><path d="M161.49,279.82c-1.84,0 -2.65,-1 -2.65,-3.11c0,0 0,0 0,-6h-2.07v-2.31h2.07v-2.78l2.49,-0.34v3.12h2.4v2.31h-2.4v5.44c0,1 0.33,1.38 1.07,1.38c0.42342,-0.02658 0.8393,-0.12463 1.23,-0.29l0.12,2.09c-0.71388,0.31006 -1.48181,0.47656 -2.26,0.49z"/><path d="M175.13,279.82c-1.84,0 -2.65,-1 -2.65,-3.11c0,0 0,0 0,-6h-2.07v-2.31h2.07v-2.78l2.5,-0.34v3.12h2.39v2.31h-2.37v5.44c0,1 0.33,1.38 1.06,1.38c0.42662,-0.02679 0.84575,-0.12481 1.24,-0.29l0.11,2.09c-0.71966,0.31392 -1.49491,0.48053 -2.28,0.49z"/><path d="M183.8,279.82c-3.24,0 -4.37,-2.19 -4.37,-5.82c0,-3.63 1.2,-5.91 4.45,-5.91c3.25,0 4.35,2.18 4.35,5.83c0,3.65 -1.23,5.9 -4.43,5.9zM185.68,273.07c0,-1.67 -0.58,-2.75 -1.82,-2.75c-1.24,0 -1.87,1.13 -1.87,2.8v1.73c0,1.66 0.58,2.75 1.81,2.75c1.23,0 1.88,-1.13 1.88,-2.8z"/><path d="M199.46,279.85c-1.25233,0.01454 -2.48662,-0.29921 -3.58,-0.91l0.12,-2.63c0.95539,0.69552 2.09875,1.08593 3.28,1.12c1.67,0 2.32,-0.92 2.32,-2c0,-1.08 -0.83,-1.67 -1.95,-2.11l-0.52,-0.2c-2.13,-0.85 -3.21,-2.07 -3.21,-4.58c0,-2.51 1.59,-4.18 4.45,-4.18c1.12539,-0.01081 2.2368,0.24989 3.24,0.76l-0.11,2.53c-0.9141,-0.53029 -1.94402,-0.82896 -3,-0.87c-1.27,0 -2,0.6 -2,1.74c0,1.14 0.68,1.57 1.91,2.06l0.53,0.22c2.1,0.83 3.26,2.09 3.26,4.49c0.01,2.58 -1.55,4.56 -4.74,4.56z"/><path d="M210.5,279.82c-3.17,0 -4.06,-2.33 -4.06,-5.88c0,-3.55 1.08,-5.85 4.33,-5.85c0.85012,0.00212 1.68594,0.21881 2.43,0.63l-0.11,2.31c-0.62147,-0.37044 -1.32687,-0.5769 -2.05,-0.6c-1.22,0 -2,1 -2,2.93v1.2c0,2 0.92,2.93 2,2.93c0.76347,-0.00305 1.51115,-0.21766 2.16,-0.62l0.14,2.27c-0.8681,0.47844 -1.84935,0.71339 -2.84,0.68z"/><path d="M221.42,270.85c-0.23675,-0.04941 -0.47817,-0.07288 -0.72,-0.07c-0.64917,0.02066 -1.2628,0.3014 -1.70287,0.77909c-0.44008,0.47769 -0.66966,1.11223 -0.63713,1.76091v6.19h-2.49v-11.1h2.38v1.64v0c0.45102,-1.16102 1.54564,-1.94569 2.79,-2c0.16146,-0.00338 0.3227,0.01342 0.48,0.05z"/><path d="M229.22,279.51l-0.14,-1.44v0c-0.57462,1.11708 -1.74478,1.79967 -3,1.75c-2,0 -2.94,-1.37 -2.94,-3.28c0,-2.45 1.78,-3.69 4.33,-3.69c0.46462,0.00483 0.92864,0.03487 1.39,0.09v-1c0,-1.18 -0.73,-1.6 -1.85,-1.6c-1.05246,0.02961 -2.08198,0.31444 -3,0.83l-0.12,-2.27c1.09357,-0.56633 2.30852,-0.85805 3.54,-0.85c2.24,0 3.95,0.69 3.95,3.87v7.55zM228.89,274.69c-0.33162,-0.04235 -0.6657,-0.0624 -1,-0.06c-1,0 -2.19,0.4 -2.19,1.71c-0.04512,0.35937 0.07177,0.72022 0.31904,0.98487c0.24727,0.26466 0.59935,0.40576 0.96096,0.38513c1.2141,-0.18074 2.0672,-1.29021 1.93,-2.51z"/><path d="M238.29,279.82c-1.83,0 -2.65,-1 -2.65,-3.11c0,0 0,0 0,-6h-2.07v-2.31h2.07v-2.78l2.5,-0.34v3.12h2.39v2.31h-2.39v5.44c0,1 0.33,1.38 1.06,1.38c0.42662,-0.02679 0.84575,-0.12481 1.24,-0.29l0.11,2.09c-0.71347,0.31132 -1.48166,0.47787 -2.26,0.49z"/><path d="M246.65,279.82c-3.17,0 -4.06,-2.33 -4.06,-5.88c0,-3.55 1.08,-5.85 4.33,-5.85c0.85012,0.00212 1.68594,0.21881 2.43,0.63l-0.11,2.31c-0.62002,-0.37374 -1.32631,-0.58046 -2.05,-0.6c-1.22,0 -2,1 -2,2.93v1.2c0,2 0.93,2.93 2,2.93c0.76347,-0.00305 1.51115,-0.21766 2.16,-0.62l0.14,2.27c-0.86718,0.48079 -1.8491,0.7159 -2.84,0.68z"/><path d="M258.15,279.51v-6.8c0,-1.08 -0.29,-2.08 -1.63,-2.08c-1.10969,0.04267 -1.99014,0.94953 -2,2.06v6.82h-2.52v-15.66h2.51v5.78v0c0.71202,-0.94493 1.81717,-1.51224 3,-1.54c1.93,0 3.13,1.16 3.13,3.74v7.68z"/><path d="M274.4,279.82c-1.16927,0.05616 -2.25321,-0.61088 -2.73,-1.68v0l-0.12,1.37h-2.25v-15.66h2.51v5.69v0c0.60033,-0.94609 1.6606,-1.4991 2.78,-1.45c2.69,0 3.54,2.38 3.54,5.85c0,3.47 -0.98,5.88 -3.73,5.88zM275.6,273.23c0,-1.78 -0.75,-2.8 -1.86,-2.8c-1.11,0 -1.93,1.2 -1.93,2.55v1.82c0,1.6 0.87,2.69 1.88,2.69c1.35,0 1.91,-1.26 1.91,-2.86z"/><path d="M284.37,284.07h-2.71c0.85,-2.07 1.49,-3.91 1.7,-4.56l-3.65,-11.1h2.61l2.32,8.35v0l2.45,-8.35h2.5c-0.85,2.84 -3.13,10.01 -5.22,15.66z"/><path d="M301.8,279.85c-4.27,0 -5.08,-3.22 -5.08,-7.71c0,-4.49 1.16,-7.78 5.72,-7.78c1.24844,-0.02401 2.48182,0.27572 3.58,0.87l-0.12,2.46c-1.01182,-0.57065 -2.14866,-0.8832 -3.31,-0.91c-2.22,0 -3.26,1.56 -3.26,4.36v2c0,3.17 1.1,4.29 2.64,4.29c0.67253,0.01326 1.33607,-0.15608 1.92,-0.49v-3.31h-1.89v-2.31h4.32v7.24c-1.34604,0.86732 -2.91895,1.31623 -4.52,1.29z"/><path d="M314.9,270.85c-0.23675,-0.04941 -0.47817,-0.07288 -0.72,-0.07c-0.64917,0.02066 -1.2628,0.3014 -1.70287,0.77909c-0.44008,0.47769 -0.66966,1.11223 -0.63713,1.76091v6.19h-2.49v-11.1h2.38v1.64v0c0.4431,-1.16279 1.53667,-1.94953 2.78,-2c0.16477,-0.00359 0.32935,0.01321 0.49,0.05z"/><path d="M318.63,267.16c-0.74725,0.10846 -1.48332,-0.25836 -1.84666,-0.92028c-0.36334,-0.66192 -0.27759,-1.47984 0.21512,-2.05202c0.49271,-0.57218 1.28885,-0.77837 1.99736,-0.51731c0.70851,0.26107 1.18052,0.93453 1.18418,1.68961c0.06884,0.92501 -0.62502,1.73078 -1.55,1.8zM317.38,279.51v-11.1h2.51v11.1z"/><path d="M326.64,270.72v8.79h-2.49v-8.79h-2.07v-2.31h2.07v-1.36c0,-2.38 1.23,-3.51 3.21,-3.51c0.50761,0.00561 1.01215,0.07961 1.5,0.22l-0.11,2.22c-0.28475,-0.0703 -0.57671,-0.10721 -0.87,-0.11c-0.78,0 -1.24,0.51 -1.24,1.54v1h2.36v2.31z"/><path d="M335.2,270.72v8.79h-2.5v-8.79h-2.07v-2.31h2.07v-1.36c0,-2.38 1.24,-3.51 3.21,-3.51c0.51095,0.00496 1.01888,0.07896 1.51,0.22l-0.12,2.24c-0.28461,-0.07102 -0.57666,-0.10795 -0.87,-0.11c-0.77,0 -1.23,0.51 -1.23,1.54v1h2.39v2.31z"/><path d="M344.9,279.82c-1.0714,0.07111 -2.08498,-0.49242 -2.59,-1.44v0v5.69h-2.52v-15.66h2.38v1.39v0c0.5527,-1.0655 1.65981,-1.72744 2.86,-1.71c2.69,0 3.6,2.38 3.6,5.85c0,3.47 -0.99,5.88 -3.73,5.88zM346.08,273.23c0,-1.78 -0.76,-2.8 -1.86,-2.8c-1.1,0 -1.93,1.2 -1.93,2.6v1.77c0,1.6 0.87,2.69 1.85,2.69c1.36,0 1.94,-1.26 1.94,-2.86z"/><path d="M356.88,279.51l-0.13,-1.44v0c-0.57273,1.11886 -1.74415,1.80219 -3,1.75c-2,0 -2.94,-1.37 -2.94,-3.28c0,-2.45 1.78,-3.69 4.33,-3.69c0.46793,0.00535 0.93524,0.03539 1.4,0.09v-1c0,-1.18 -0.74,-1.6 -1.86,-1.6c-1.05228,0.0308 -2.08152,0.31556 -3,0.83l-0.11,-2.27c1.09271,-0.56862 2.30824,-0.86048 3.54,-0.85c2.24,0 3.94,0.69 3.94,3.87v7.55zM356.56,274.69c-0.33171,-0.04138 -0.66573,-0.06142 -1,-0.06c-1,0 -2.18,0.4 -2.18,1.71c-0.04843,0.35832 0.06591,0.71951 0.31172,0.98468c0.24581,0.26517 0.59732,0.40651 0.95828,0.38532c1.21813,-0.17591 2.07679,-1.28685 1.94,-2.51z"/><path d="M366,279.82c-1.84,0 -2.65,-1 -2.65,-3.11c0,0 0,0 0,-6h-2.07v-2.31h2.07v-2.78l2.49,-0.34v3.12h2.4v2.31h-2.4v5.44c0,1 0.33,1.38 1.07,1.38c0.42342,-0.02658 0.8393,-0.12463 1.23,-0.29l0.12,2.09c-0.71388,0.31006 -1.48181,0.47656 -2.26,0.49z"/><path d="M374.31,279.82c-3.17,0 -4.06,-2.33 -4.06,-5.88c0,-3.55 1.08,-5.85 4.33,-5.85c0.85317,0.00301 1.69201,0.2196 2.44,0.63l-0.12,2.28c-0.60535,-0.36557 -1.29338,-0.57198 -2,-0.6c-1.22,0 -2,1 -2,2.93v1.2c0,2 0.93,2.93 2,2.93c0.76664,-0.00276 1.51762,-0.21733 2.17,-0.62l0.13,2.27c-0.87881,0.50019 -1.87945,0.74602 -2.89,0.71z"/><path d="M385.81,279.51v-6.8c0,-1.08 -0.29,-2.08 -1.62,-2.08c-1.10969,0.04267 -1.99014,0.94953 -2,2.06v6.82h-2.52v-15.66h2.52v5.78v0c0.70905,-0.94845 1.81604,-1.5167 3,-1.54c1.94,0 3.14,1.16 3.14,3.74v7.68z"/></g></g></g></svg>