<svg version="1.1" xmlns="http://www.w3.org/2000/svg" xmlns:xlink="http://www.w3.org/1999/xlink" width="16.30047" height="12.88375" viewBox="0,0,16.30047,12.88375"><g transform="translate(-231.31512,-170.65096)"><g data-paper-data="{&quot;isPaintingLayer&quot;:true}" fill="#faa51f" fill-rule="nonzero" stroke="none" stroke-width="none" stroke-linecap="none" stroke-linejoin="none" stroke-miterlimit="10" stroke-dasharray="" stroke-dashoffset="0" font-family="none" font-weight="none" font-size="none" text-anchor="none" style="mix-blend-mode: normal"><path d="M238.37654,176.90971c1.82944,0 3.3125,1.48306 3.3125,3.3125c0,1.82944 -1.48306,3.3125 -3.3125,3.3125c-1.82944,0 -3.3125,-1.48306 -3.3125,-3.3125c0,-1.82944 1.48306,-3.3125 3.3125,-3.3125z" data-paper-data="{&quot;origPos&quot;:null,&quot;index&quot;:null}" stroke="none" stroke-width="0" stroke-linecap="butt" stroke-linejoin="miter"/><path d="M235.58031,182.96867c-2.85453,-4.79215 -4.60386,-6.24462 -3.52181,-10.04954c0.17961,-0.22611 1.30689,-1.45088 2.91066,-1.84817c0.4134,-0.07138 1.1321,-0.18031 0.88836,0.8049c0.6783,1.65757 1.43338,3.25076 2.26115,4.77094" data-paper-data="{&quot;origPos&quot;:null,&quot;origRot&quot;:0,&quot;index&quot;:null}" id="ID0.30105241015553474-4" stroke="#8e5322" stroke-width="0.84" stroke-linecap="round" stroke-linejoin="round"/><path d="M234.88559,171.17485c11.35524,4.40205 13.28099,6.60743 11.93845,9.56719c-0.54242,1.27425 -6.97735,0.34349 -13.56257,-4.25699" data-paper-data="{&quot;origPos&quot;:null,&quot;origRot&quot;:0,&quot;index&quot;:null}" id="ID0.1790580078959465-2" stroke="#8e5322" stroke-width="0.84" stroke-linecap="round" stroke-linejoin="round"/></g></g></svg>