<svg version="1.1" xmlns="http://www.w3.org/2000/svg" xmlns:xlink="http://www.w3.org/1999/xlink" width="32.78743" height="10.8869"><g transform="translate(-237.56407,-176.99288)"><g data-paper-data="{&quot;isPaintingLayer&quot;:true}" fill="#faa51f" fill-rule="nonzero" stroke="none" stroke-width="none" stroke-linecap="none" stroke-linejoin="none" stroke-miterlimit="10" stroke-dasharray="" stroke-dashoffset="0" font-family="none" font-weight="none" font-size="none" text-anchor="none" style="mix-blend-mode: normal"><path d="M244.83807,179.91268c1.8818,0.82683 5.20064,2.04373 7.19042,2.69443c1.00359,-0.33677 3.32443,1.39119 3.36128,1.85822c0.01204,1.81959 2.47159,1.99977 2.27548,2.21539c-3.98866,2.00294 -11.61961,-0.16067 -17.61956,-3.04125" data-paper-data="{&quot;origPos&quot;:null,&quot;origRot&quot;:0}" id="ID0.30105241015553474-4" stroke="#8e5322" stroke-width="0.84" stroke-linecap="round" stroke-linejoin="round"/><path d="M253.6191,182.29157c8.18336,-3.46455 15.65474,-3.53269 16.0852,-2.27958c1.09407,2.92085 -1.42575,4.73437 -15.01652,7.4227" data-paper-data="{&quot;origPos&quot;:null,&quot;origRot&quot;:0}" id="ID0.1790580078959465-2" stroke="#8e5322" stroke-width="0.84" stroke-linecap="round" stroke-linejoin="round"/><path d="M237.56407,180.30538c0,-1.82944 1.48306,-3.3125 3.3125,-3.3125c1.82944,0 3.3125,1.48306 3.3125,3.3125c0,1.82944 -1.48306,3.3125 -3.3125,3.3125c-1.82944,0 -3.3125,-1.48306 -3.3125,-3.3125z" data-paper-data="{&quot;origPos&quot;:null}" stroke="none" stroke-width="0" stroke-linecap="butt" stroke-linejoin="miter"/></g></g></svg>