<svg version="1.1" xmlns="http://www.w3.org/2000/svg" xmlns:xlink="http://www.w3.org/1999/xlink" width="49.17996" height="34.98879" viewBox="0,0,49.17996,34.98879"><g transform="translate(-214.76337,-178.48982)"><g data-paper-data="{&quot;isPaintingLayer&quot;:true}" fill="none" fill-rule="nonzero" stroke="none" stroke-width="none" stroke-linecap="none" stroke-linejoin="none" stroke-miterlimit="10" stroke-dasharray="" stroke-dashoffset="0" font-family="none" font-weight="none" font-size="none" text-anchor="none" style="mix-blend-mode: normal"><g data-paper-data="{&quot;origPos&quot;:null,&quot;index&quot;:null}" id="Layer_2-3"><path d="M240.08337,208.13861c-0.9,0.06 -2.76,0.18 -3.78,0.12c-1.82611,-0.11725 -3.6252,-0.50133 -5.34,-1.14l-7.56,4.92l1.32,-11c0.36,0.48 -6.12,-7.44 -2,-14c4.12,-6.56 12.9,-9.6 23.82,-7.44c10.92,2.16 13.5,8.46 12.78,11.76c-0.72,3.3 -4.86,4.56 -4.86,4.56c-0.18338,2.04318 -0.84079,4.01543 -1.92,5.76c-1.18,1.9 -4.9,4.66 -4.9,4.66l-1.68,6.72l-4.32,-4.2z" data-paper-data="{&quot;origPos&quot;:null}" id="ID0.2591130444779992" fill="#faa51f" stroke="none" stroke-width="1" stroke-linecap="butt" stroke-linejoin="miter"/><path d="M253.88336,195.95861l-1.44,1.2l-5.28,-1.56c-0.12032,-1.33876 -1.18124,-2.39968 -2.52,-2.52c-2.52,-0.54 -6.78,0.42 -6.78,0.42l-4.26,-1.08c0,0 -4.86,0.3 -5.1,-3.54c-0.42,-6.66 5.16,-9.84 10.26,-9.78c2.60173,0.01823 5.19494,0.29966 7.74,0.84c10.32,1.86 13.26,8.1 12.36,11.4c-0.72,3.3 -4.68,4.26 -4.68,4.26z" id="ID0.3588979784399271" fill="#ffffff" stroke="none" stroke-width="1" stroke-linecap="butt" stroke-linejoin="miter"/><path d="M256.88333,192.71861c1.35273,0.20617 2.68933,0.5069 4,0.9c0.96165,0.34024 1.85545,0.84808 2.64,1.5" id="ID0.2727069961838424" fill="none" stroke="#8e5322" stroke-width="0.84" stroke-linecap="round" stroke-linejoin="round"/><path d="M257.18334,189.23861c1.03674,-0.41486 2.12804,-0.67758 3.24,-0.78c0.89573,-0.1102 1.80026,-0.1303 2.7,-0.06" id="ID0.5861211125738919" fill="none" stroke="#8e5322" stroke-width="0.84" stroke-linecap="round" stroke-linejoin="round"/><path d="M232.70337,205.85861l-3.12,2.16" id="ID0.4793355236761272" fill="none" stroke="#8e5322" stroke-width="0.84" stroke-linecap="round" stroke-linejoin="round"/><path d="M240.08337,208.13861c-0.9,0.06 -2.76,0.18 -3.78,0.12c-1.82611,-0.11725 -3.6252,-0.50133 -5.34,-1.14l-7.56,4.92l1.32,-11c0.36,0.48 -6.12,-7.44 -2,-14c4.12,-6.56 12.9,-9.6 23.82,-7.44c10.92,2.16 13.5,8.46 12.78,11.76c-0.72,3.3 -4.86,4.56 -4.86,4.56c-0.18338,2.04318 -0.84079,4.01543 -1.92,5.76c-1.18,1.9 -4.9,4.66 -4.9,4.66l-1.68,6.72l-4.32,-4.2z" id="ID0.48413723474368453" fill="none" stroke="#8e5322" stroke-width="0.84" stroke-linecap="round" stroke-linejoin="round"/><path d="M215.66337,189.53861c1.15604,-0.12101 2.31765,-0.18109 3.48,-0.18c1.08,0.06 3.18,0.36 3.18,0.36" id="ID0.9024141579866409" fill="none" stroke="#8e5322" stroke-width="0.84" stroke-linecap="round" stroke-linejoin="round"/><path d="M222.44337,191.99861c-1.11113,0.78183 -2.29691,1.45176 -3.54,2c-1.1893,0.56669 -2.4366,1.00258 -3.72,1.3" id="ID0.16030752705410123" fill="none" stroke="#8e5322" stroke-width="0.84" stroke-linecap="round" stroke-linejoin="round"/></g><path d="M232.6001,194.39878c-0.89642,-0.07708 -2.29673,-0.20017 -2.29673,-0.20017c0.75538,-1.18703 2.33203,-0.17939 3.72331,0.03035c1.69561,0.25563 4.47315,-0.90647 3.57193,0.55237c-0.03734,0.06044 -3.04877,-0.2149 -4.99851,-0.38255z" data-paper-data="{&quot;origPos&quot;:null,&quot;index&quot;:null}" id="ID0.4253597157076001" fill="#faa51f" stroke="#8e5322" stroke-width="0.84" stroke-linecap="round" stroke-linejoin="round"/><path d="M247.33885,195.98359c-0.89642,-0.07708 -2.29673,-0.20017 -2.29673,-0.20017c0.75538,-1.18703 2.33203,-0.17938 3.72331,0.03036c1.69561,0.25562 4.47315,-0.90648 3.57193,0.55236c-0.03734,0.06044 -3.04877,-0.2149 -4.99851,-0.38255z" data-paper-data="{&quot;origPos&quot;:null,&quot;index&quot;:null}" id="ID0.4253597157076001 1" fill="#faa51f" stroke="#8e5322" stroke-width="0.84" stroke-linecap="round" stroke-linejoin="round"/><path d="M241.16336,193.30168c-0.06,-0.9 2.28,-2.4 3.28,-2.34c1,0.06 2,2.04 2,2.52c-0.18,1.14 -1.58,0.36 -2.58,0.24c-0.9,-0.12 -2.64,0.48 -2.7,-0.42z" data-paper-data="{&quot;origPos&quot;:null,&quot;index&quot;:null}" id="ID0.5240494590252638" fill="#5f4b43" stroke="#8e5322" stroke-width="0.84" stroke-linecap="round" stroke-linejoin="round"/><path d="M238.40337,183.83116c0,0 1.45454,0.06181 4.74,0.49273" data-paper-data="{&quot;origPos&quot;:null,&quot;index&quot;:null}" id="ID0.046259244438260794" fill="#ffffff" stroke="#8e5322" stroke-width="0.84" stroke-linecap="round" stroke-linejoin="round"/></g></g></svg>