<svg version="1.1" xmlns="http://www.w3.org/2000/svg" xmlns:xlink="http://www.w3.org/1999/xlink" width="269.25" height="72.41333"><g transform="translate(-230.25,-224.16667)"><g data-paper-data="{&quot;isPaintingLayer&quot;:true}" fill="none" fill-rule="nonzero" stroke="none" stroke-width="none" stroke-linecap="none" stroke-linejoin="miter" stroke-miterlimit="10" stroke-dasharray="" stroke-dashoffset="0" font-family="none" font-weight="none" font-size="none" text-anchor="none" style="mix-blend-mode: normal"><path d="M241.9,280.35c0.42482,-0.25982 0.95666,-0.27061 1.39167,-0.02825c0.43501,0.24236 0.70571,0.70029 0.70833,1.19825v12c-0.00262,0.49796 -0.27332,0.95589 -0.70833,1.19825c-0.43501,0.24236 -0.96685,0.23157 -1.39167,-0.02825l-5.9,-3.69h-2.62c-0.76215,0 -1.38,-0.61785 -1.38,-1.38v-4.24c0,-0.76215 0.61785,-1.38 1.38,-1.38h2.62z" data-paper-data="{&quot;origPos&quot;:null}" fill="none" stroke="#ff8c00" stroke-width="1.5" stroke-linecap="butt"/><g fill="#ff8c00" stroke="none" stroke-width="1" stroke-linecap="butt"><path d="M259.47,293.3c-3.36,0 -4,-2.59 -4,-6c0,-3.41 0.87,-6 4.33,-6c0.7925,0.00298 1.57331,0.19133 2.28,0.55l-0.09,1.9c-0.61455,-0.33985 -1.29862,-0.53481 -2,-0.57c-1.63,0 -2.42,1.28 -2.42,3.36v1.56c0,2.5 1,3.34 2.42,3.34c0.77827,-0.0405 1.5268,-0.31206 2.15,-0.78l0.09,1.92c-0.82776,0.50951 -1.78883,0.76023 -2.76,0.72z"/><path d="M267,293.28c-2.56,0 -3.44,-1.7 -3.44,-4.52c0,-2.82 0.94,-4.58 3.5,-4.58c2.56,0 3.43,1.69 3.43,4.52c0,2.83 -0.95,4.58 -3.49,4.58zM268.48,288.04c0,-1.29 -0.46,-2.14 -1.43,-2.14c-0.97,0 -1.48,0.88 -1.48,2.18v1.34c0,1.29 0.46,2.14 1.43,2.14c0.97,0 1.48,-0.88 1.48,-2.17z"/><path d="M281.59,293v-5.28c0,-0.84 -0.22,-1.62 -1.13,-1.62c-0.81741,0.07791 -1.4389,0.76894 -1.43,1.59v5.31h-2v-5.28c0,-0.84 -0.2,-1.62 -1.11,-1.62c-0.81741,0.07791 -1.4389,0.76894 -1.43,1.59v5.31h-2v-8.62h1.89v1.05v0c0.50479,-0.77045 1.34975,-1.25063 2.27,-1.29c0.94095,-0.07136 1.80376,0.52468 2.07,1.43c0.51174,-0.8372 1.40055,-1.37123 2.38,-1.43c1.73,0 2.4,1.14 2.4,2.9v6z"/><path d="M295,293v-5.28c0,-0.84 -0.22,-1.62 -1.13,-1.62c-0.81741,0.07791 -1.4389,0.76894 -1.43,1.59v5.31h-2v-5.28c0,-0.84 -0.2,-1.62 -1.11,-1.62c-0.82137,0.07302 -1.44846,0.76543 -1.44,1.59v5.31h-2v-8.62h1.89v1.05v0c0.50479,-0.77045 1.34975,-1.25063 2.27,-1.29c0.94095,-0.07136 1.80376,0.52468 2.07,1.43c0.50975,-0.83441 1.39416,-1.36805 2.37,-1.43c1.74,0 2.41,1.14 2.41,2.9v6z"/><path d="M305.53,289.32h-4.65v0.19c-0.0688,0.52026 0.09681,1.04423 0.45212,1.43045c0.35531,0.38621 0.86369,0.59484 1.38788,0.56955c0.8224,-0.01024 1.62958,-0.2232 2.35,-0.62l0.09,1.74c-0.80599,0.45816 -1.72349,0.68321 -2.65,0.65c-2.85,0 -3.58,-1.76 -3.58,-4.52c0,-2.76 1,-4.58 3.55,-4.58c2.1,0 3.08,1.33 3.08,4.14c0,0.17 -0.02,0.74 -0.03,1zM302.4,285.71c-1.09,0 -1.55,1.07 -1.55,2.12h2.86c0,-1.01 -0.16,-2.12 -1.31,-2.12z"/><path d="M312.39,293v-5.28c0,-0.84 -0.21,-1.62 -1.28,-1.62c-0.85929,0.03633 -1.54455,0.73032 -1.57,1.59v5.31h-2v-8.62h1.88v1.05v0c0.56013,-0.79041 1.46147,-1.2689 2.43,-1.29c1.49,0 2.46,0.86 2.46,2.9v6z"/><path d="M319.65,293.28c-1.44,0 -2.08,-0.81 -2.08,-2.41c0,0 0,0 0,-4.66h-1.57v-1.79h1.63v-2.16l2,-0.25v2.41h1.89v1.79h-1.89v4.23c0,0.76 0.26,1.07 0.84,1.07c0.34407,-0.01867 0.68235,-0.09647 1,-0.23l0.09,1.62c-0.60216,0.26183 -1.25348,0.39141 -1.91,0.38z"/><path d="M327.73,293l-0.1,-1.12v0c-0.44817,0.86591 -1.35563,1.39559 -2.33,1.36c-1.57,0 -2.31,-1.07 -2.31,-2.55c0,-1.9 1.4,-2.86 3.41,-2.86c0.36772,0.00182 0.73502,0.02519 1.1,0.07v-0.74c0,-0.92 -0.58,-1.25 -1.47,-1.25c-0.8263,0.02309 -1.63524,0.24247 -2.36,0.64l-0.09,-1.76c0.86388,-0.43876 1.82116,-0.66178 2.79,-0.65c1.77,0 3.11,0.53 3.11,3v5.86zM327.48,289.26c-0.26832,-0.03742 -0.53912,-0.05414 -0.81,-0.05c-0.76,0 -1.72,0.31 -1.72,1.33c-0.01656,0.27545 0.08144,0.5455 0.2708,0.74622c0.18936,0.20072 0.45325,0.31428 0.7292,0.31378c0.95164,-0.12488 1.63034,-0.98546 1.53,-1.94z"/><path d="M336.18,286.32c-0.18329,-0.04413 -0.37152,-0.0643 -0.56,-0.06c-0.51218,0.01268 -0.99727,0.23274 -1.34415,0.60978c-0.34688,0.37704 -0.52583,0.87876 -0.49585,1.39022v4.74h-2v-8.62h1.88v1.28v0c0.36841,-0.89257 1.22495,-1.48706 2.19,-1.52c0.12638,-0.01206 0.25362,-0.01206 0.38,0z"/><path d="M341.25,296.58h-2.13c0.67,-1.61 1.17,-3 1.34,-3.54l-2.88,-8.62h2.06l1.82,6.48v0l1.93,-6.48h2c-0.7,2.21 -2.49,7.78 -4.14,12.16z"/></g><path d="M231,295l16,-15" data-paper-data="{&quot;origPos&quot;:null}" fill="none" stroke="#ff8c00" stroke-width="1.5" stroke-linecap="round"/><path d="M494.5,226.66667c0,-1.38071 1.11929,-2.5 2.5,-2.5c1.38071,0 2.5,1.11929 2.5,2.5c0,1.38071 -1.11929,2.5 -2.5,2.5c-1.38071,0 -2.5,-1.11929 -2.5,-2.5z" fill="#fafafa" stroke="none" stroke-width="0.5" stroke-linecap="butt"/></g></g></svg>