<svg version="1.1" xmlns="http://www.w3.org/2000/svg" xmlns:xlink="http://www.w3.org/1999/xlink" width="39.43703" height="8.73882" viewBox="0,0,39.43703,8.73882"><g transform="translate(-239.06407,-174.69788)"><g data-paper-data="{&quot;isPaintingLayer&quot;:true}" fill="#faa51f" fill-rule="nonzero" stroke="none" stroke-width="none" stroke-linecap="none" stroke-linejoin="none" stroke-miterlimit="10" stroke-dasharray="" stroke-dashoffset="0" font-family="none" font-weight="none" font-size="none" text-anchor="none" style="mix-blend-mode: normal"><path d="M241.16159,176.8749c8.12495,-1.92264 18.18148,-2.7731 22.8591,0.11436c0.20833,0.26651 -2.93747,-0.00926 -3.28881,1.9231c-0.13287,0.48957 -3.38905,1.8858 -4.59688,1.33704c-2.6382,0.31376 -8.60272,1.13958 -11.13684,1.66115" data-paper-data="{&quot;origPos&quot;:null,&quot;origRot&quot;:0,&quot;index&quot;:null}" id="ID0.30105241015553474-4" stroke="#8e5322" stroke-width="0.84" stroke-linecap="round" stroke-linejoin="round"/><path d="M254.19472,175.17309c16.6165,-0.2517 24.49004,1.2624 23.85034,4.51593c-0.22958,1.38942 -8.70458,2.97651 -18.8802,0.6764" data-paper-data="{&quot;origPos&quot;:null,&quot;origRot&quot;:0,&quot;index&quot;:null}" id="ID0.1790580078959465-2" stroke="#8e5322" stroke-width="0.84" stroke-linecap="round" stroke-linejoin="round"/><path d="M242.37657,176.8117c1.82944,0 3.3125,1.48306 3.3125,3.3125c0,1.82944 -1.48306,3.3125 -3.3125,3.3125c-1.82944,0 -3.3125,-1.48306 -3.3125,-3.3125c0,-1.82944 1.48306,-3.3125 3.3125,-3.3125z" data-paper-data="{&quot;origPos&quot;:null,&quot;index&quot;:null}" stroke="none" stroke-width="0" stroke-linecap="butt" stroke-linejoin="miter"/></g></g></svg>