<svg version="1.1" xmlns="http://www.w3.org/2000/svg" xmlns:xlink="http://www.w3.org/1999/xlink" width="988.63" height="135.56"><g transform="translate(254.71,-75.44)"><g data-paper-data="{&quot;isPaintingLayer&quot;:true}" fill="none" fill-rule="nonzero" stroke="none" stroke-width="1" stroke-linecap="butt" stroke-linejoin="miter" stroke-miterlimit="10" stroke-dasharray="" stroke-dashoffset="0" font-family="none" font-weight="none" font-size="none" text-anchor="none" style="mix-blend-mode: normal"><g><path d="M733.9,211h-988.56v-74.77c16.24,1.87 37.07,3.93 54.14,4.18c54.56,0.82 128.39,-3.08 181,-4.18c38.94,-0.86 66.08,1.14 66.08,1.14v0l37.17,2.71l53.56,-2.2c0,0 39.28,-6.09 61.89,-4.74c5.57,0.33 49.13,6.81 80.22,7.26c54.56,0.82 128.39,-3.08 181,-4.18c38.94,-0.86 66.08,1.14 66.08,1.14l37.24,2.72l53.56,-2.2c0,0 39.28,-6.09 61.89,-4.74c4.14,0.25 29.31,3.93 54.73,5.93z" fill="#0081e4" opacity="0.75"/><g fill="#0080d1"><path d="M192.88,133.29c-7.96,-0.04 -15.85,0.18 -23.69,0.55c3.39,-0.26 6.77,-0.47 10.12,-0.59c4.8,-0.16 9.3,-0.13 13.57,0.04z"/><path d="M169.17,133.83c-37.6,2.94 -77.19,13.88 -119.93,9.51c-0.54,0.38 -1.39,0.72 -1.24,1.72c-3.41,-0.67 -3.81,-0.76 -7.41,-1.4c-68.88,-12.28 -115.61,-0.88 -183.61,-1c-16.26,-0.03 -35.08,1.43 -51.51,2.28v-0.06c-24.67,1.12 -41.47,-3.6 -60.18,-7.36v-2.39c3.22,0.37 6.45,0.78 9.72,1.27c15.3,2.31 34.29,1.49 50,0.63v0c42.09,-2.11 63.09,4.8 110.09,-0.2c42.4,-4.49 82.8,-5.97 128.49,3.9c0.14,-1.15 0.72,-2.38 0.49,-3.49c3.16,0.32 3.66,0.41 7,0.68c41.25,3.44 79.19,-2.22 118.09,-4.09z"/><path d="M649.16,133.86c-37.63,2.94 -77.24,13.89 -120,9.51c-0.54,0.38 -1.4,0.72 -1.25,1.72c-3.41,-0.67 -3.81,-0.76 -7.41,-1.4c-68.88,-12.28 -115.61,-0.88 -183.61,-1c-16.26,-0.03 -35.08,1.43 -51.51,2.28v-0.06c-37.57,1.71 -56.84,-10.15 -92.52,-11.59c14.08285,0.00357 28.14672,1.03296 42.08,3.08c15.3,2.31 34.29,1.49 50,0.63v0c42.09,-2.11 63.09,4.8 110.09,-0.2c42.42,-4.49 82.84,-5.97 128.55,3.92c0.14,-1.16 0.73,-2.4 0.5,-3.51c3.16,0.32 3.66,0.41 7,0.68c41.25,3.44 79.19,-2.22 118.08,-4.06z"/><path d="M672.88,133.29c-7.96,-0.04 -15.85,0.18 -23.69,0.55c3.39,-0.26 6.77,-0.47 10.12,-0.59c4.8,-0.16 9.3,-0.13 13.57,0.04z"/><path d="M733.92,143.15c-20,-3.07 -36.71,-8.86 -61,-9.86c14.08285,0.00357 28.14672,1.03296 42.08,3.08c6.26264,0.88583 12.57553,1.37015 18.9,1.45z"/></g><g fill="#8ec7e2"><path d="M682.41,133.98c-44.7,-3.38 -86.61,15.83 -133.14,14.31c-7.09,-0.24 -18.24,-2.92 -25.89,-3.73c0.04,-0.23 0.11,-0.46 0.11,-0.68c-13.44,-3.04 -36.86,-8.49 -44.36,-9.21c-39.47,-3.83 -70.99,7.17 -108.31,4.17c47.2,-5.21 84.41,-10.57 132.41,-4.57c7.31,0.92 19.8,2.2 27.73,3.49c-0.09,0.13 -0.09,0.25 -0.09,0.37c13.78,2.38 38.92,5.89 45.47,5.22c34.71,-3.59 74.23,-16.69 106.07,-9.37z"/><path d="M51.02,137.76l-0.09,0.38c13.8,2.38 38.87,5.88 45.41,5.21c34.71,-3.59 74.23,-16.69 106.07,-9.37c-44.7,-3.38 -86.61,15.83 -133.14,14.31c-7.09,-0.24 -18.24,-2.92 -25.89,-3.73l0.12,-0.7c-13.46,-3.04 -36.81,-8.47 -44.3,-9.19c-39.47,-3.83 -70.99,7.17 -108.31,4.17c47.2,-5.21 84.4,-10.57 132.4,-4.57c7.32,0.92 19.81,2.2 27.73,3.49z"/></g></g><path d="M232.58,87.7v-12.26h17.62v12.26z" fill="#0080d1" opacity="0"/></g></g></svg>