<svg version="1.1" xmlns="http://www.w3.org/2000/svg" xmlns:xlink="http://www.w3.org/1999/xlink" width="42.69577" height="7.7127"><g transform="translate(-239.56404,-176.74288)"><g data-paper-data="{&quot;isPaintingLayer&quot;:true}" fill="#faa51f" fill-rule="nonzero" stroke="none" stroke-width="none" stroke-linecap="none" stroke-linejoin="none" stroke-miterlimit="10" stroke-dasharray="" stroke-dashoffset="0" font-family="none" font-weight="none" font-size="none" text-anchor="none" style="mix-blend-mode: normal"><path d="M245.89652,177.94374c2.99546,0.30146 10.01502,0.61041 13.11593,0.6957c1.36653,-0.65133 5.27123,0.45995 5.46377,0.93662c0.55803,1.89639 4.20571,1.35009 3.98319,1.63379c-5.23377,3.28246 -17.02757,3.3019 -26.65092,2.08569" data-paper-data="{&quot;origPos&quot;:null,&quot;origRot&quot;:0}" id="ID0.30105241015553474-4" stroke="#8e5322" stroke-width="0.84" stroke-linecap="round" stroke-linejoin="round"/><path d="M262.08763,178.69439c10.73206,-1.92878 19.53884,-0.03486 19.72681,1.36193c0.54694,3.27452 -7.74715,4.50148 -25.12167,3.6462" data-paper-data="{&quot;origPos&quot;:null,&quot;origRot&quot;:0}" id="ID0.1790580078959465-2" stroke="#8e5322" stroke-width="0.84" stroke-linecap="round" stroke-linejoin="round"/><path d="M239.56404,180.05538c0,-1.82944 1.48306,-3.3125 3.3125,-3.3125c1.82944,0 3.3125,1.48306 3.3125,3.3125c0,1.82944 -1.48306,3.3125 -3.3125,3.3125c-1.82944,0 -3.3125,-1.48306 -3.3125,-3.3125z" data-paper-data="{&quot;origPos&quot;:null}" stroke="none" stroke-width="0" stroke-linecap="butt" stroke-linejoin="miter"/></g></g></svg>