<?xml version="1.0" encoding="UTF-8" standalone="no"?>
<svg
   height="48"
   viewBox="0 0 48 48"
   width="48"
   version="1.1"
   id="svg4"
   sodipodi:docname="restore.svg"
   inkscape:version="1.2.2 (b0a8486541, 2022-12-01)"
   xml:space="preserve"
   xmlns:inkscape="http://www.inkscape.org/namespaces/inkscape"
   xmlns:sodipodi="http://sodipodi.sourceforge.net/DTD/sodipodi-0.dtd"
   xmlns="http://www.w3.org/2000/svg"
   xmlns:svg="http://www.w3.org/2000/svg"><defs
     id="defs8" /><sodipodi:namedview
     id="namedview6"
     pagecolor="#ffffff"
     bordercolor="#666666"
     borderopacity="1.0"
     inkscape:showpageshadow="2"
     inkscape:pageopacity="0.0"
     inkscape:pagecheckerboard="true"
     inkscape:deskcolor="#d1d1d1"
     showgrid="false"
     inkscape:zoom="12.536414"
     inkscape:cx="15.155849"
     inkscape:cy="27.998437"
     inkscape:window-width="1920"
     inkscape:window-height="1030"
     inkscape:window-x="0"
     inkscape:window-y="27"
     inkscape:window-maximized="1"
     inkscape:current-layer="svg4" /><path
     id="path2"
     style="fill:#333333;stroke-width:0.05"
     d="M 10 6 C 8.9000022 6 7.9591131 6.3924495 7.1757812 7.1757812 C 6.3924495 7.9591131 6 8.9000022 6 10 L 6 38 C 6 39.099998 6.3924495 40.040888 7.1757812 40.824219 C 7.9591131 41.60755 8.9000022 42 10 42 L 38 42 C 39.099998 42 40.040888 41.60755 40.824219 40.824219 C 41.60755 40.040888 42 39.099998 42 38 L 42 14 L 34 6 L 10 6 z M 24 12 C 25.666665 12 27.22804 12.315886 28.683594 12.949219 C 30.139148 13.582551 31.404646 14.439801 32.482422 15.517578 C 33.560199 16.595354 34.417449 17.860852 35.050781 19.316406 C 35.684114 20.77196 36 22.333335 36 24 C 36 25.666665 35.684114 27.22804 35.050781 28.683594 C 34.417449 30.139148 33.560199 31.404646 32.482422 32.482422 C 31.404646 33.560199 30.139148 34.417449 28.683594 35.050781 C 27.22804 35.684114 25.666665 36 24 36 C 20.911114 36 18.233462 34.98255 15.966797 32.949219 C 13.700132 30.915888 12.399739 28.378426 12.066406 25.333984 L 14.800781 25.333984 C 15.111892 27.645093 16.13837 29.555297 17.882812 31.066406 C 19.627256 32.577516 21.666669 33.333984 24 33.333984 C 26.599997 33.333984 28.806078 32.428297 30.617188 30.617188 C 32.428297 28.806078 33.333984 26.599997 33.333984 24 C 33.333984 21.400003 32.428297 19.193922 30.617188 17.382812 C 28.806078 15.571703 26.599997 14.666016 24 14.666016 C 22.466669 14.666016 21.03255 15.021312 19.699219 15.732422 C 18.365887 16.443532 17.245094 17.421572 16.333984 18.666016 L 20 18.666016 L 20 21.333984 L 12 21.333984 L 12 13.333984 L 14.666016 13.333984 L 14.666016 16.466797 C 15.799347 15.044575 17.183075 13.943792 18.816406 13.166016 C 20.449738 12.388238 22.17778 12 24 12 z " /></svg>
