<?xml version="1.0" encoding="UTF-8" standalone="no"?>
<svg
   height="48"
   viewBox="0 0 48 48"
   width="48"
   version="1.1"
   id="svg4"
   sodipodi:docname="save.svg"
   inkscape:version="1.2.2 (b0a8486541, 2022-12-01)"
   xmlns:inkscape="http://www.inkscape.org/namespaces/inkscape"
   xmlns:sodipodi="http://sodipodi.sourceforge.net/DTD/sodipodi-0.dtd"
   xmlns="http://www.w3.org/2000/svg"
   xmlns:svg="http://www.w3.org/2000/svg">
  <defs
     id="defs8" />
  <sodipodi:namedview
     id="namedview6"
     pagecolor="#ffffff"
     bordercolor="#666666"
     borderopacity="1.0"
     inkscape:showpageshadow="2"
     inkscape:pageopacity="0.0"
     inkscape:pagecheckerboard="true"
     inkscape:deskcolor="#d1d1d1"
     showgrid="false"
     inkscape:zoom="12.536414"
     inkscape:cx="14.996314"
     inkscape:cy="27.91867"
     inkscape:window-width="1920"
     inkscape:window-height="1030"
     inkscape:window-x="0"
     inkscape:window-y="27"
     inkscape:window-maximized="1"
     inkscape:current-layer="svg4" />
  <path
     d="m 42,14 v 24 q 0,1.65 -1.175,2.825 Q 39.65,42 38,42 H 10 Q 8.35,42 7.175,40.825 6,39.65 6,38 V 10 Q 6,8.35 7.175,7.175 8.35,6 10,6 H 34 Z M 24,36 q 2.5,0 4.25,-1.75 Q 30,32.5 30,30 30,27.5 28.25,25.75 26.5,24 24,24 21.5,24 19.75,25.75 18,27.5 18,30 18,32.5 19.75,34.25 21.5,36 24,36 Z M 12,20 H 30 V 12 H 12 Z"
     id="path2"
     style="stroke-width:0.05;fill:#333333" />
</svg>
