<?xml version="1.0" encoding="UTF-8" standalone="no"?>
<svg
   height="48"
   viewBox="0 0 48 48"
   width="48"
   version="1.1"
   id="svg4"
   sodipodi:docname="screenshot.svg"
   inkscape:version="1.2.2 (b0a8486541, 2022-12-01)"
   xmlns:inkscape="http://www.inkscape.org/namespaces/inkscape"
   xmlns:sodipodi="http://sodipodi.sourceforge.net/DTD/sodipodi-0.dtd"
   xmlns="http://www.w3.org/2000/svg"
   xmlns:svg="http://www.w3.org/2000/svg">
  <defs
     id="defs8" />
  <sodipodi:namedview
     id="namedview6"
     pagecolor="#ffffff"
     bordercolor="#666666"
     borderopacity="1.0"
     inkscape:showpageshadow="2"
     inkscape:pageopacity="0.0"
     inkscape:pagecheckerboard="true"
     inkscape:deskcolor="#d1d1d1"
     showgrid="false"
     inkscape:zoom="12.536414"
     inkscape:cx="27.280529"
     inkscape:cy="24.089823"
     inkscape:window-width="1920"
     inkscape:window-height="1030"
     inkscape:window-x="0"
     inkscape:window-y="27"
     inkscape:window-maximized="1"
     inkscape:current-layer="svg4" />
  <path
     d="m 30,32 h 8 v -8 h -3 v 5 H 30 Z M 10,20 h 3 v -5 h 5 v -3 h -8 z m 6,22 V 38 H 8 Q 6.35,38 5.175,36.825 4,35.65 4,34 V 10 Q 4,8.35 5.175,7.175 6.35,6 8,6 H 40 Q 41.65,6 42.825,7.175 44,8.35 44,10 v 24 q 0,1.65 -1.175,2.825 Q 41.65,38 40,38 h -8 v 4 z M 8,34 H 40 V 10 H 8 Z m 0,0 V 10 Z"
     id="path2"
     style="stroke-width:0.05;fill:#333333" />
</svg>
