<?xml version="1.0" encoding="UTF-8" standalone="no"?>
<svg
   height="48"
   viewBox="0 0 48 48"
   width="48"
   version="1.1"
   id="svg4"
   sodipodi:docname="settings.svg"
   inkscape:version="1.2.2 (b0a8486541, 2022-12-01)"
   xmlns:inkscape="http://www.inkscape.org/namespaces/inkscape"
   xmlns:sodipodi="http://sodipodi.sourceforge.net/DTD/sodipodi-0.dtd"
   xmlns="http://www.w3.org/2000/svg"
   xmlns:svg="http://www.w3.org/2000/svg">
  <defs
     id="defs8" />
  <sodipodi:namedview
     id="namedview6"
     pagecolor="#ffffff"
     bordercolor="#666666"
     borderopacity="1.0"
     inkscape:showpageshadow="2"
     inkscape:pageopacity="0.0"
     inkscape:pagecheckerboard="true"
     inkscape:deskcolor="#d1d1d1"
     showgrid="false"
     inkscape:zoom="12.536414"
     inkscape:cx="28.078205"
     inkscape:cy="22.015865"
     inkscape:window-width="1920"
     inkscape:window-height="1030"
     inkscape:window-x="0"
     inkscape:window-y="27"
     inkscape:window-maximized="1"
     inkscape:current-layer="svg4" />
  <path
     d="m 18.527363,44 -0.79602,-6.4 Q 17.084577,37.35 16.512438,37 15.940299,36.65 15.393035,36.25 L 9.472637,38.75 4,29.25 9.124378,25.35 Q 9.074627,25 9.074627,24.675 v -1.35 q 0,-0.325 0.049751,-0.675 L 4,18.75 l 5.472637,-9.5 5.920398,2.5 q 0.547264,-0.4 1.144278,-0.75 0.597016,-0.35 1.19403,-0.6 L 18.527363,4 h 10.945274 l 0.796019,6.4 q 0.646767,0.25 1.218906,0.6 0.572139,0.35 1.119403,0.75 L 38.527363,9.25 44,18.75 l -5.124378,3.9 q 0.04975,0.35 0.04975,0.675 v 1.35 q 0,0.325 -0.0995,0.675 l 5.124379,3.9 -5.472637,9.5 -5.870647,-2.5 q -0.547263,0.4 -1.144278,0.75 -0.597015,0.35 -1.19403,0.6 l -0.79602,6.4 z m 5.57214,-13 q 2.885571,0 4.925372,-2.05 2.039801,-2.05 2.039801,-4.95 0,-2.9 -2.039801,-4.95 Q 26.985074,17 24.099502,17 q -2.935323,0 -4.950249,2.05 -2.014925,2.05 -2.014925,4.95 0,2.9 2.014925,4.95 2.014926,2.05 4.95025,2.05 z"
     id="path2"
     style="stroke-width:0.0498755;fill:#333333" />
</svg>
