<svg xmlns="http://www.w3.org/2000/svg" xmlns:xlink="http://www.w3.org/1999/xlink" version="1.1"><metadata>Created by FontForge 20200314 at Fri Aug 7 17:52:05 2015 By Nitu Chiring Copyright (c) 2015 by Imangi Studios. All rights reserved.</metadata><defs><font id="TempleRunBrushedCAPS" horiz-adv-x="499"><font-face x-height="558" ascent="750" bbox="-168.113 -257 1260.37 976" cap-height="704" descent="-250" font-family="Temple Run Brushed CAPS" font-stretch="normal" font-variant="small-caps" font-weight="400" panose-1="2 0 0 0 0 0 0 0 0 0" underline-position="-100" underline-thickness="50" unicode-range="U+0020-FB05" units-per-em="1000"/><glyph glyph-name=".notdef" horiz-adv-x="399"/><glyph d="M25 18c0 -1 -3 26 2 50s9 48 10 64s16 98 18 118s9 72 13 91s15 75 17 82s7 22 7 27s-6 18 6 21s28 0 30 7s8 21 9 28c1 5 -2 10 -12 8c-8 -2 -3 0 -4 0c-27 -1 -10 9 -23 15s-7 7 -14 18s8 9 7 19s5 17 9 26s7 6 10 17s1 10 -2 23s5 10 12 16s18 0 31 1s7 2 7 7 s-30 5 -43 11s-2 21 11 25s38 3 49 1s25 -4 59 8c31 11 182 -12 195 -21c0 0 31 -10 59 -37c13 -12 20 -29 28 -46c1 -3 6 -3 7 -6c9 -21 13 -45 13 -72c0 -32 -10 -59 -24 -82l-3 -5c-2 -3 -3 -6 -5 -8c-31 -41 -71 -65 -75 -67c1 -1 13 -6 27 -20l5 -6l4 -5l6 -9 c13 -22 25 -55 25 -103c0 -62 -39 -110 -85 -144l-11 -7c-56 -37 -120 -54 -143 -52c-20 1 -37 3 -45 5s-14 44 -17 52s-14 6 -16 0s-1 -13 -1 -22s-3 -40 -14 -44s-20 -1 -23 -1s13 47 -1 46s-21 -41 -30 -43s-15 2 -18 6s-8 11 -11 8s-12 -20 -21 -19s-8 25 -13 24 s-10 -11 -15 -14s-7 10 -7 9zM198 159c1 -5 24 -12 36 -11s65 7 79 73s-29 73 -47 76c-8 1 -17 1 -24 -1s-16 -10 -19 -29s-19 -35 -18 -42s17 -7 15 -16s-14 -15 -14 -22s-9 -23 -8 -28zM321 520c-6 0 -29 6 -39 -23s-9 -30 -8 -32s-11 -8 -11 -13s-4 -31 -5 -37 s-4 -14 -2 -15c2 0 3 0 9 -3s15 0 25 1s55 25 67 66s-24 57 -36 56zM168 514c-2 0 -3 -1 -5 -3s-1 -3 0 -6s1 -3 3 -5s-2 -5 -5 -11s-1 -12 6 -13s7 4 8 4s1 5 3 7s1 4 1 6s-1 4 -2 6s-1 5 0 8s1 5 0 6s-7 1 -9 1z" glyph-name="B" horiz-adv-x="560" unicode="B"/><glyph d="M427 529c-24 0 -46 -5 -66 -14c-8 -3 -16 -7 -23 -11l-10 -6c-5 -3 -14 -5 -18 -9c-5 -4 -6 -9 -10 -13c-70 -62 -109 -164 -109 -216c0 -15 3 -30 8 -42c2 -4 8 -8 6 -12c-10 -21 2 -12 7 -11c6 1 7 -9 11 -13c25 -26 57 -38 73 -38c28 0 69 23 76 26s23 2 27 -4 s1 -9 3 -14s3 -8 1 -13s-11 -4 -14 -6s-8 -12 -5 -18s27 11 27 8s0 -18 -1 -25s3 -10 7 -14s7 -9 9 -18s-31 -68 -155 -68c-145 0 -210 90 -234 178c-12 45 -14 89 -9 121c2 13 4 26 7 39c1 3 5 5 6 9c1 3 -2 7 -1 10l6 22c11 34 26 68 43 102c7 14 15 27 23 40 c7 10 17 13 24 23c3 4 3 15 6 19l7 9l5 6l14 16c76 79 205 111 253 111s108 -33 108 -40s3 -20 3 -28s-7 -17 -9 -25s-5 -8 -11 -10s-5 2 -10 3s-9 1 -13 -5s15 -19 19 -21s-2 -12 -8 -24s-5 -12 -5 -21s-2 -24 -9 -26s-17 23 -59 23z" glyph-name="C" horiz-adv-x="522" unicode="C"/><glyph d="M30 64c1 1 5 57 9 67s6 46 9 65s5 51 9 78s34 193 38 204s10 31 15 37s7 8 11 1s9 0 15 0s2 -23 14 -23s7 30 -7 34s-31 0 -42 1s-12 1 -14 11s-1 19 1 26s10 8 8 14s-10 12 -5 25s27 21 29 33s-31 -24 -25 18s35 46 47 45s22 -5 42 -2s77 0 87 0s13 -4 22 -6s15 1 24 4 s26 2 35 -2s88 -21 111 -31s82 -51 107 -155s-21 -228 -25 -240s-23 -44 -34 -54s-1 -33 -65 -102s-156 -99 -173 -101s-21 3 -28 5s-22 -4 -38 1s-8 48 -20 49s-10 -8 -15 -34s-21 -32 -33 -28s-3 19 -8 19s-7 -8 -11 -11s-16 -11 -22 -12s-13 6 -20 7s8 31 -5 31 s-14 -38 -35 -38s-9 63 -8 64zM282 526c-20 -5 -9 -26 -12 -33s-7 -20 -13 -27s-3 -33 -4 -42s-5 -44 -8 -57s-21 -97 -23 -100s-5 -17 -5 -24s-8 -33 -13 -39s-11 -43 -5 -51s30 -5 99 38s83 127 87 137s4 25 2 30s10 9 5 79s-74 98 -110 89z" glyph-name="D" horiz-adv-x="604" unicode="D"/><glyph d="M93 520c-14 3 -16 14 -14 25s10 25 14 30s1 12 2 19s-2 9 -7 15s0 14 1 19s15 6 17 7s9 5 7 11s-20 0 -20 8s3 16 7 18s44 10 62 13s26 4 39 10s64 2 84 3s143 1 166 2s28 -9 30 -18s-3 -9 -7 -12s-5 0 -8 -3s4 -10 3 -13s-7 -4 -14 -1s-14 -7 -10 -15s30 -6 30 -17 s-12 -18 -17 -23s-9 -17 -9 -17l7 -13c2 -3 3 -20 1 -32s-17 -18 -22 -17s-48 1 -58 1s-84 2 -93 2s-5 -9 -1 -15s10 -11 11 -15s-3 -11 -6 -21s-10 -38 -13 -45s-1 -18 3 -28s89 -4 95 -3s16 -8 17 -14s-16 -11 -17 -16s10 -4 13 -15s-8 -30 -8 -32s-8 -20 -7 -28 s-12 -16 -24 -15s-28 -5 -37 -8s-60 -2 -65 -1s-4 9 -2 12s-3 11 -9 9s-14 -36 -14 -44s-16 -54 -18 -75s76 -10 81 -12s22 -2 33 -1s22 -2 29 -1s-1 0 12 0s19 -6 20 -13s0 -11 -2 -17s-2 -2 -5 -8s-3 -2 -10 -4s-5 -5 -8 -10s0 -4 4 -11s1 -4 2 -8s2 -12 1 -18 s0 -7 -6 -10s-4 5 -10 3s-5 -5 -6 -13s9 -4 14 -4s5 -10 5 -23s-12 -11 -19 -13s-47 -1 -63 -3s-77 3 -83 1s-5 10 -13 15s-13 -6 -20 -12s-23 -1 -36 -1s-64 -3 -80 -2s-17 19 -18 27s4 32 8 41s4 70 6 84s11 47 17 56s4 23 1 33s17 111 20 121s14 58 16 70s4 12 11 15 s0 36 6 47s10 4 22 3s19 6 23 7s0 -28 3 -38s4 -3 11 -2s3 46 1 51s-11 1 -22 0s-40 -1 -54 2z" glyph-name="E" horiz-adv-x="478" unicode="E"/><glyph d="M28 6c-6 5 6 35 9 50s2 29 1 42s7 53 10 72s21 120 21 127s11 9 14 13s-8 13 -7 20s22 88 25 112s14 47 18 61s2 15 -6 18s-13 -4 -24 -2s-5 13 -6 23s0 19 4 34s3 17 5 26s9 19 17 24s17 13 17 18s-18 9 -21 18s6 13 6 22s11 4 20 6s25 2 37 4s215 5 230 4s40 -8 59 -10 s30 -2 44 -5s6 -11 8 -21s-18 -4 -25 -7s-9 -9 -7 -13s27 0 26 -5s-3 -13 -2 -32s-4 -16 -7 -23s-4 -8 -4 -13s5 -4 5 -10s0 -6 -1 -17s-16 -11 -26 -13s-46 -2 -56 -1s-33 -1 -44 -2s-32 0 -48 0s-21 -2 -31 2s-14 -5 -24 -6s-5 -8 -11 -13s-4 -34 3 -33s4 10 5 16 s7 10 12 13s7 4 14 4s4 -18 3 -20s-4 -9 -3 -13s-9 -38 -13 -43s-3 -22 3 -27s37 -3 53 -3s20 -1 34 -6s12 -3 26 1s10 -4 10 -8s0 -14 3 -18s-1 -8 -5 -9s-11 -2 -16 -4s-3 -9 2 -11s15 1 15 -4s-3 -13 -7 -22s-3 -15 -4 -24s2 -13 2 -20s-19 -8 -27 -11s-24 -3 -36 1 s-31 1 -43 1s-25 -2 -35 -1s-2 20 -8 22s-7 -23 -10 -27s-12 -39 -15 -52s-6 -34 -8 -47s-7 -36 -11 -49s-12 -19 -16 -22s3 -18 1 -26s-5 -39 -7 -47s-10 -14 -17 -19s-10 -3 -18 1s6 12 3 13s2 11 -5 13s-12 -26 -18 -27s-16 1 -25 1s-10 1 -17 4s-4 7 -10 6s-5 -7 -13 -9 s-22 -2 -28 3z" glyph-name="F" horiz-adv-x="490" unicode="F"/><glyph d="M303 275c-2 1 -9 -5 -14 -6s-9 12 -9 21s29 0 34 4s-5 4 -11 12s-23 4 -21 15s2 15 8 20s10 9 14 16s-11 6 -9 13s2 14 2 25s8 6 30 9s94 -2 110 -4s36 -2 45 -4s10 3 18 6s19 -5 29 -5s5 -4 5 -17s-8 -42 -14 -47s-4 -9 -5 -19s-1 -3 -30 -97s-117 -161 -125 -169 s-6 0 -16 1s-18 -17 -23 -23s-51 -35 -124 -26c-150 19 -167 208 -171 215s1 29 4 39s-11 23 -5 83s73 181 86 195s24 33 29 36s4 -2 11 5s-4 13 42 52s127 70 204 77s133 -45 140 -50s-3 -26 -4 -32s-4 -21 -10 -23s-12 -15 -17 -21s-9 -17 -16 -17s-4 7 -7 10 s-19 -7 -19 -15s6 -10 13 -14s-1 -10 -8 -17s-23 -15 -31 -12s-1 18 -32 19s-50 -14 -86 -33s-60 -53 -63 -61s-14 -16 -20 -15s-12 -14 -10 -18s3 -7 -19 -40s-37 -122 -29 -162s37 -56 45 -58s30 -3 42 1s36 26 41 36s34 54 35 67s6 13 11 13s7 1 16 4s6 1 11 -5 s0 -10 -3 -17s3 -15 7 -16s7 8 9 20s0 26 -1 28s-10 0 -21 1s-18 1 -33 0s-33 -1 -35 0z" glyph-name="G" horiz-adv-x="558" unicode="G"/><glyph d="M151 1c-7 -3 -10 10 -15 11s-10 6 -14 3s-7 -3 -14 -8s-21 -4 -34 -5s-1 31 -11 30s-14 -27 -24 -26s-13 17 -12 27s2 24 5 31s11 92 9 99s-3 2 -2 7s8 4 12 14s4 20 4 31s-6 35 -5 41s26 159 31 194s16 101 21 111s5 16 6 25s15 83 18 89s13 13 23 13s15 -4 19 -6 s3 -9 8 -17s5 -12 10 -6s13 36 22 36s-2 -37 16 -35s0 23 10 27s21 3 27 5s7 -15 13 -20s10 18 17 21s10 5 18 4s-10 -55 -9 -72s0 -38 -4 -49s-11 -12 -11 -27s-15 -51 -15 -65s-14 -70 -17 -80s-13 -40 -6 -41s23 -3 27 -1s9 9 2 12s-16 -2 -15 6s3 11 13 11s36 -1 46 -3 s20 1 27 2s18 -2 23 5s11 21 13 31s27 121 30 131s8 18 8 31s-2 26 5 35s8 33 14 45s4 20 15 21s30 6 34 3s-7 -42 4 -43s14 36 22 41s19 8 26 8s10 8 18 6s16 -13 23 -16s19 8 27 7s16 0 18 -5s1 -13 -3 -24s-47 -149 -47 -161s-11 -59 -16 -68s-15 -17 -16 -22 s2 -21 1 -28s-22 -76 -28 -94s-7 -29 -11 -49s-31 -178 -34 -195s0 -50 -15 -49s-4 42 -11 42s-13 -6 -17 -13s-6 -27 -17 -28s-12 -1 -17 4s-20 15 -23 10s-31 -11 -36 -11s-19 7 -17 18s3 24 5 42s2 35 7 50s5 47 7 60s8 72 8 81s-26 13 -39 11s-44 3 -55 4s-20 8 -26 0 s-13 -16 -13 -24s-10 -65 -13 -73s-8 -44 -11 -53s-16 -83 -17 -91s-5 -18 -7 -21s-8 -4 -15 -7z" glyph-name="H" horiz-adv-x="589" unicode="H"/><glyph d="M33 5c-11 6 14 90 14 116s6 66 9 86s9 112 12 128s6 42 8 57s14 42 14 54s0 33 3 45s12 48 12 67s6 37 8 59s13 62 14 67s31 -12 39 -11s6 14 11 18s19 -1 31 -1s10 -7 23 -8s27 18 32 22s15 -4 19 -8s0 -50 10 -48s24 49 31 51s14 -9 20 -16s-7 -36 -7 -44 s-17 -38 -20 -50s-17 -51 -18 -61s-20 -65 -22 -83s-39 -148 -39 -148l-11 -20c-4 -7 3 -20 0 -39s-30 -150 -30 -163s-8 -50 -12 -58s-18 -9 -29 -5s7 18 1 21s0 18 -8 18s3 -9 -8 -13s-18 -33 -28 -33s-8 3 -16 6s-12 14 -18 14s-20 -5 -21 -13s-13 -13 -24 -7z" glyph-name="I" horiz-adv-x="345" unicode="I"/><glyph d="M82 134c34 0 51 29 59 39s16 54 13 69s0 32 4 42s4 51 6 63s13 106 14 119s11 17 13 27s0 49 0 62s23 97 26 106s13 23 17 29s10 -5 17 -8s0 -18 3 -27s13 -16 15 -10s1 17 1 27s3 16 7 18s28 2 37 4s10 -3 15 -6s2 -38 9 -36s16 21 22 33s14 4 30 5s23 2 33 4 s6 -7 3 -22s-5 -22 -10 -38s-28 -110 -29 -121s-2 -14 0 -25s-4 -25 -13 -35s-7 -17 -10 -31s-18 -108 -22 -119s-8 -33 -10 -37s-5 -19 -4 -29s2 -21 -9 -94s-108 -138 -214 -143s-156 43 -156 50s16 10 11 13s2 5 8 15s4 14 6 16s16 -4 24 -4s5 11 3 17s-11 -8 -17 0 s5 18 12 26s11 18 16 28s5 11 12 6s24 -33 58 -33z" glyph-name="J" horiz-adv-x="450" unicode="J"/><glyph d="M168 693c14 -1 12 -18 22 -22s7 9 14 13s30 0 43 0s5 -10 9 -16s8 -15 18 -13s9 39 19 39s18 -2 27 -7s-2 -36 -2 -46s4 -26 5 -31s-9 -12 -14 -21s-25 -43 -26 -58s-10 -38 -12 -47s-3 -14 4 -15s20 8 22 17s24 35 24 35l70 91c10 13 23 33 30 42s38 49 47 46 s4 -10 6 -14s7 -2 13 0s7 -5 10 -11s4 -8 9 -13s7 5 14 7s11 -3 13 -9s-6 -15 -9 -22s1 -13 9 -14s10 9 14 15s11 0 16 -5s11 -9 6 -15s-22 -32 -26 -43s-29 -47 -36 -54s-30 -37 -36 -45s-12 -22 -18 -31s-16 -3 -22 -8s-20 -38 -25 -45s-10 -25 -10 -25l17 -37 c6 -12 20 -53 29 -65s21 -32 25 -45s29 -74 34 -88s17 -36 23 -50s0 -25 -5 -29s-6 -8 -16 -9s-2 9 -6 16s-11 1 -14 -6s-2 -10 -4 -17s-17 -12 -35 -13s-10 9 -16 19s-14 7 -20 4s0 -20 3 -30s-10 -7 -32 -18s-17 8 -24 18s-34 107 -41 120s-5 26 -9 36s-7 8 -13 18 s-23 80 -27 87s-8 18 -14 22s-3 13 -1 23s8 3 15 10s-8 8 -19 7s-10 -17 -9 -24s-3 -18 -7 -27s-15 -68 -21 -78s-6 -16 -10 -22s4 -15 3 -28s-19 -76 -20 -93s-5 -61 -22 -63s-15 5 -28 6s-17 -4 -27 -4s11 33 -2 36s-27 -39 -47 -36s-26 17 -25 29s12 99 12 112 s23 165 28 178s15 80 16 95s19 84 20 99s14 57 14 73s13 66 16 78s15 22 31 21z" glyph-name="K" horiz-adv-x="581" unicode="K"/><glyph d="M29 51c0 1 9 76 9 92s18 62 23 75s-6 61 -7 75s23 137 27 154s9 51 13 76s20 116 24 128s8 36 16 41s15 2 33 -1s-3 -49 11 -49s19 55 29 56s11 -23 15 -26s12 10 17 19s16 8 24 7s26 2 38 0s18 0 23 -9s-19 -64 -17 -74s-14 -57 -19 -76s-34 -156 -38 -170 s-15 -36 -13 -43s-9 -74 -18 -116s-4 -51 5 -56s45 0 59 -2s47 -2 65 -1s44 0 54 -4s6 -13 5 -20s-17 -11 -24 -10s-21 -3 -21 -8s31 -9 35 -8s5 -10 6 -12s3 -9 3 -22s-6 -9 -13 -9s-12 3 -17 3s-3 -11 -1 -17s5 -8 12 -11s8 -7 9 -17s-13 -9 -18 -10s-69 -4 -88 -1 s-75 1 -81 4s-35 -6 -44 -7s-22 3 -26 6s4 20 4 24s-12 3 -17 0s-8 -25 -17 -27s-36 1 -57 2s-23 43 -23 44z" glyph-name="L" horiz-adv-x="431" unicode="L"/><glyph d="M-33 19c-7 5 -8 21 -4 35s21 63 29 77s38 110 40 114s9 12 7 22s13 47 13 47l24 56c5 11 37 93 43 99s68 150 71 160s12 27 19 36s19 24 25 25s-2 -31 5 -36s16 39 24 41s15 -14 20 -20s10 16 18 22s34 1 45 -3s13 -26 19 -52s20 -99 26 -139s11 -88 11 -101s6 -16 6 -30 s12 -11 18 -12s7 11 5 16s-7 -5 -13 -3s-2 20 -2 20l12 17c3 4 22 62 28 66s8 13 15 26s57 120 66 138s31 58 46 58s22 2 30 2s-8 -38 -1 -43s11 41 28 43s22 -28 30 -29s12 24 24 24s12 -30 15 -50s23 -159 28 -181s-6 -26 -6 -38s14 -68 16 -96s-2 -80 3 -111 s7 -162 8 -173s2 -41 -3 -43s-7 4 -18 5s-13 3 -18 10s-12 5 -19 2s-13 -12 -25 -13s-11 8 -15 9s-2 23 -12 25s-8 -36 -19 -38s-31 16 -34 27s-8 108 -12 120s0 24 0 31s-10 26 -11 35s-11 90 -11 98s-4 14 -11 12s-6 -4 -9 -10s-34 -83 -40 -92s-11 -13 -8 -19 s-29 -68 -34 -82s-8 -25 -18 -37s-20 -44 -32 -57s-69 -8 -88 -6s-18 20 -21 32s-36 160 -41 174s-15 45 -19 53s2 27 4 35s13 6 20 7s-4 15 -9 14s-18 -10 -25 -15s-11 -23 -17 -35s-7 -21 -12 -32s-10 -22 -15 -30s-8 -18 -10 -29s-39 -107 -44 -122s-13 -43 -18 -48 s-13 -15 -28 -14s3 33 -10 36s-13 -37 -21 -37s-14 6 -22 9s-23 -4 -30 -6s-29 -1 -36 4z" glyph-name="M" horiz-adv-x="800" unicode="M"/><glyph d="M50 187c1 -1 8 66 11 91s29 175 33 192s17 22 21 33s-5 39 -1 54s25 73 35 112s40 27 52 26s8 -72 20 -74s-8 76 8 72s14 -39 25 -41s6 41 29 39c20 -2 70 -115 76 -123s-2 -20 2 -26s9 -5 22 -24s54 -159 63 -161s8 12 10 20s18 115 22 159s32 159 40 160s16 5 32 1 s-4 -63 11 -65s33 68 45 69s9 -16 15 -18s5 17 17 16s6 -22 14 -24s16 22 26 21s6 -17 -2 -46s-79 -344 -89 -393s-35 -256 -51 -257s-21 27 -30 27s2 -27 -5 -28s-18 17 -24 17s-5 -16 -10 -16s-13 -6 -27 3s-91 157 -101 175s-66 177 -84 178s-45 -171 -50 -197 s-29 -154 -37 -156s-5 9 -11 11s-6 -10 -18 -11s-6 47 -12 49s-15 -38 -18 -45s-20 -8 -26 -6s-20 0 -32 0s-23 15 -20 32s18 155 19 154z" glyph-name="N" horiz-adv-x="687" unicode="N"/><glyph d="M332 483c-49 -19 -99 -77 -104 -87s0 -13 -2 -20s-13 -13 -25 -43s-42 -170 53 -170s125 85 132 91s15 11 12 16s2 17 21 72s11 111 3 134s-42 46 -52 49s-11 17 -19 14s1 -20 6 -33s1 -13 -25 -23zM225 637c33 16 42 22 50 17s13 -13 18 -18s15 -5 15 7s-5 12 -4 22 s-1 17 15 22s55 14 86 12s118 -19 149 -68s18 -41 22 -44s9 -5 12 -10s25 -54 29 -78s7 -110 -13 -166c-6 -17 -16 -42 -30 -72c-5 -11 -17 -22 -23 -34c-5 -9 -4 -18 -10 -28c-33 -55 -79 -112 -137 -149c-81 -51 -135 -50 -168 -50c-21 0 -102 8 -156 80c-4 5 -3 12 -6 18 c-4 7 -13 12 -17 20c-17 36 -27 82 -27 142c0 59 12 106 26 143c3 8 10 10 13 17c1 3 0 12 1 15c19 39 38 63 40 74c3 23 1 29 12 43s70 69 103 85zM327 557c3 -10 36 4 32 13s-35 -3 -32 -13z" glyph-name="O" horiz-adv-x="648" unicode="O"/><glyph d="M29 61c5 15 19 132 22 148s0 45 3 57s23 82 23 101s14 78 16 91s8 30 10 40s0 12 10 13s5 2 11 2s6 -26 13 -24s-1 31 -8 37s-37 2 -57 4s-14 9 -14 17s18 17 23 21s10 6 6 18s-14 6 -19 11s-3 13 1 25s6 19 9 26s39 5 40 12s-47 0 -47 5s-4 29 14 32s202 2 248 -1 s204 -16 204 -182s-155 -257 -227 -283s-81 -15 -80 -8s19 3 22 8s3 9 -4 13s-16 0 -17 10s2 10 9 14s0 15 -3 19s-17 -14 -17 -14l-19 -76c-3 -11 -29 -155 -30 -175s-20 -24 -30 -21s-7 7 -13 10s-25 -8 -43 -8s-3 23 -15 28s-18 -30 -37 -29s-9 44 -4 59zM191 483 c9 1 9 13 11 22s3 18 3 21s-9 8 -12 4s-6 -9 -6 -23s-5 -25 4 -24zM297 527c-14 -3 -9 -5 -12 -19s-10 -34 -15 -49s-15 -76 -17 -81s-6 -15 9 -19s42 16 51 19s52 42 58 77s-28 82 -74 72z" glyph-name="P" horiz-adv-x="547" unicode="P"/><glyph d="M269 146c29 -5 59 10 51 24s-24 43 -28 47s-3 14 11 18s23 4 30 4s18 2 17 10s-6 17 2 20s30 -48 40 -36s-22 45 -13 51s18 10 21 3s10 -13 13 -10s5 16 10 43s22 112 -20 159s-60 39 -63 34s0 -14 -13 -26s-90 -65 -118 -137s-30 -130 -23 -140s18 -28 24 -36 s30 -23 59 -28zM392 43c-34 0 -39 -45 -150 -45s-178 77 -206 180s11 211 36 256c29 51 -3 22 35 90s136 115 154 121s27 -18 34 -28s9 -8 -1 -15s-16 -23 -10 -27s20 11 30 16s3 9 3 15s-8 16 -10 23s-17 20 -17 25s-8 48 103 48s208 -134 208 -262s-80 -258 -88 -274 s13 -38 24 -52s15 -13 21 -23s4 -17 13 -30s8 -24 15 -37s-8 -18 -20 -19s-27 40 -33 35s19 -36 16 -38s-21 -5 -31 -2s-15 13 -23 17s-7 -5 -12 -6s0 -12 0 -16s-25 -12 -35 -11s-15 2 -22 13s-20 46 -34 46zM316 530c4 -11 39 7 33 17s-37 -6 -33 -17z" glyph-name="Q" horiz-adv-x="628" unicode="Q"/><glyph d="M39 131c0 1 27 154 28 170s1 30 -1 51s15 93 20 125s30 30 39 29s7 -29 12 -27s6 23 6 31s-4 12 -17 18s-11 -1 -22 -3s-35 4 -40 9s0 19 4 30s12 9 16 17s1 9 -4 12s-5 14 -5 20s-4 16 -6 23s14 3 18 9s11 2 18 3s8 4 6 10s-36 1 -38 8s0 15 5 24s14 3 21 3s78 5 82 6 s8 -14 13 -14s10 13 17 15s202 18 267 -56s52 -168 27 -228s-89 -109 -97 -115s-14 -9 -15 -15s13 1 15 0s1 -5 7 -15s8 -26 13 -43s11 -31 15 -43s41 -130 50 -153s-1 -22 -4 -25s-16 -9 -31 -10s-16 43 -26 39s3 -37 -5 -33s-8 1 -14 3s-9 8 -14 11s-7 -15 -12 -15 s-17 -3 -21 -1s-11 9 -14 16s-30 63 -35 71s-22 47 -28 55s-45 89 -49 93s-11 20 -12 27s3 10 10 13s8 12 4 14s-10 1 -16 -4s-10 -17 -10 -23s-1 -13 -4 -20s-14 -40 -14 -56s-11 -54 -16 -73s-8 -29 -10 -44s-11 -48 -12 -54s-12 -15 -30 -15s-6 0 -12 9s-9 6 -16 6 s-18 -17 -26 -16s3 35 -7 37s-3 -39 -16 -36s-19 7 -24 18s10 111 10 112zM198 523c-12 0 -25 -38 -13 -38s25 38 13 38zM284 522c-2 -5 -38 -134 -40 -142s2 -13 13 -12s44 14 62 33s17 28 22 28s7 1 11 12s13 61 -20 76s-46 10 -48 5z" glyph-name="R" horiz-adv-x="554" unicode="R"/><glyph d="M148 152c37 1 69 26 68 78c-1 14 -12 28 -28 43c-8 7 -15 18 -24 26s-20 12 -29 21c-35 35 -68 84 -70 163c-1 56 20 99 52 132c13 13 30 19 45 29c13 8 24 22 37 28c50 23 102 31 134 32c75 2 148 -33 144 -50s-7 -32 -13 -28c-7 3 -39 15 -40 6c0 -9 5 -16 14 -16 s17 2 18 -6s-4 -43 -12 -48s-10 -4 -14 -15s-9 -20 -9 -20s8 -24 -4 -20c-12 3 -54 28 -95 27s-58 -38 -47 -74c7 -24 54 -56 86 -114c6 -11 9 -25 14 -38c4 -12 10 -22 12 -36c2 -13 4 -28 4 -43c2 -82 -46 -148 -114 -189c-11 -6 -22 -9 -34 -14c-14 -6 -28 -15 -43 -19 c-27 -8 -56 -13 -84 -13c-102 -3 -124 62 -121 65s4 19 8 20s15 -17 25 -16s11 4 11 11c1 7 -10 14 -16 15s-13 4 -12 9s2 17 6 24c3 6 9 4 9 10s-2 17 0 21s8 13 10 19c1 6 11 4 18 1c8 -3 57 -22 94 -21z" glyph-name="S" horiz-adv-x="471" unicode="S"/><glyph d="M92 2c-1 -2 -1 -2 -11 2s2 123 2 134s9 67 14 77s0 25 -2 35s9 64 10 73s20 131 20 136s3 27 6 38s20 13 26 12s7 -26 15 -26s8 30 6 35s-27 8 -40 5s-9 1 -17 0s-73 3 -87 3s-2 10 1 20s28 5 28 13s-12 8 -25 10s-6 11 -5 17s5 13 8 20s2 13 0 19s9 5 16 9s21 10 21 12 s-15 3 -23 3s-16 7 -16 13s3 14 6 25s16 10 33 9s38 0 53 1s59 4 83 1s31 1 46 0s110 1 135 0s49 -3 65 -4s9 -4 9 -15s-4 -11 -4 -20s-2 -11 -9 -16s-18 -6 -28 -5s-16 -1 -16 -10s14 -9 35 -8s15 -4 11 -14s-8 -40 -6 -50s2 -18 -2 -28s-39 -4 -52 -5s-56 0 -68 -1 s-16 -19 -8 -36s-11 -56 -18 -75s-10 -15 -13 -21s3 -27 -1 -38s-3 -29 -2 -35s-36 -155 -43 -190s-24 -110 -30 -121s-24 -3 -46 -3s-11 12 -20 12s-18 -8 -26 -8s11 34 -5 34s-25 -37 -26 -39z" glyph-name="T" horiz-adv-x="464" unicode="T"/><glyph d="M174 0c-77 0 -108 70 -117 91s-1 44 -8 60s3 82 6 99s22 146 22 158s10 25 13 35s-2 31 3 45s36 152 40 163s5 27 15 35s14 1 18 -1s-5 -27 -3 -33s6 7 12 14s0 12 11 15s3 -5 11 -8s2 5 14 15s19 7 29 6s11 1 18 -2s-6 -37 -3 -45s8 12 13 21s20 29 27 30s10 1 24 -3 s6 -11 3 -20s-15 -40 -18 -56s5 -18 11 -29s-8 -22 -10 -30s-12 -56 -17 -67s-3 -18 -10 -29s-14 -51 -19 -61s6 -15 6 -26s-7 -10 -20 -24s-4 -13 -5 -30s-5 -23 -6 -36s-9 -40 -14 -64s-5 -75 25 -75s55 27 62 37s15 16 21 18s7 -7 13 -8s4 30 4 38s10 66 14 75 s35 176 35 189s13 32 14 38s3 34 6 47s19 57 17 69s19 27 23 37s17 6 27 8s10 -5 29 -9s14 2 20 7s26 -1 36 -2s11 -6 11 -17s-1 -25 2 -28s12 11 16 20s14 24 26 27s15 -2 16 -10s-3 -16 -9 -32s-20 -60 -22 -75s-23 -80 -26 -94s-36 -120 -40 -136s-14 -77 -18 -90 s-12 -34 -15 -48s-5 -65 -17 -79s-16 -49 -18 -67s-7 -55 -13 -59s-23 1 -31 4s12 37 -1 41s-23 -42 -31 -40s-5 26 -12 23s-6 -14 -15 -19s-27 -4 -43 -2s5 59 -2 60s1 4 -10 -19s-74 -52 -140 -52zM334 121c-2 5 -26 0 -23 -10s25 5 23 10z" glyph-name="U" horiz-adv-x="624" unicode="U"/><glyph d="M254 345c0 2 6 25 9 29s7 30 8 35s76 246 82 260s14 20 21 28s39 5 46 5s14 -15 21 -14s9 10 16 12s23 -2 30 -2s-4 -31 9 -33s15 31 23 33s12 4 17 -2s-5 -37 -7 -48s-13 -22 -17 -36s-28 -66 -34 -79s-25 -66 -34 -78s-7 -25 -9 -35s-30 -78 -35 -91s-47 -138 -50 -149 s-13 -31 -17 -50s-17 -34 -23 -44s-19 -60 -20 -72s-20 -12 -37 -12s8 31 -7 31s-25 -31 -33 -34s0 14 -3 19s-16 4 -26 0s-25 -23 -34 -19s-12 14 -16 23s-16 86 -16 86l-15 77c-2 12 -22 112 -25 120s-11 75 -17 85s-3 56 -3 56s-23 186 -30 209s4 37 9 36s9 1 18 5 s13 -5 23 -6s7 -15 10 -23s10 -33 13 -33s7 14 5 24s-2 34 16 40s15 -14 25 -21s15 -21 22 -24s7 14 5 22s10 19 30 23s14 2 25 -6s-1 -61 -2 -75s1 -56 3 -71s1 -70 5 -82s2 -44 4 -63s2 -48 2 -50s3 -33 4 -36s7 -19 10 -18s10 13 5 23s-6 23 -6 25z" glyph-name="V" unicode="V"/><glyph d="M124 1c-32 15 -39 154 -44 170s-5 48 -8 67s-15 142 -20 167s-18 212 -24 237s7 31 24 43s9 -1 23 4c5 2 7 2 7 3h3c9 0 13 -17 20 -13s6 6 10 12s7 9 18 7s21 2 29 -6s2 -11 -3 -22s9 -37 14 -25s1 25 1 34s7 13 20 20s9 0 20 -1s10 -6 13 -20s-1 -39 -1 -62 s-1 -126 -2 -141s3 -79 1 -99s-1 -37 3 -39s-3 10 4 12s42 91 48 107s64 165 69 173s12 26 21 38s10 18 20 21s8 -26 17 -31s3 22 6 32s7 3 13 5s15 0 26 -6s17 -6 27 -3s10 -7 14 -11s-4 -11 -10 -19s-2 -18 3 -21s4 3 13 15s3 34 13 39s14 2 21 -3s8 -96 5 -110 s11 -96 14 -104s14 -93 14 -102s6 -23 13 -16s9 27 10 37s20 68 23 78s39 100 43 111s39 99 41 109s8 6 16 4s10 -2 24 0s5 4 11 4s16 -1 21 -11s1 -33 5 -25s20 38 26 40s7 -11 7 -19s1 -16 6 -9s13 27 21 30s24 -1 38 2s10 1 12 -16s-72 -156 -72 -157s-66 -175 -73 -181 s-13 -22 -24 -37s-14 -27 -19 -39s-30 -97 -36 -118s-28 -63 -34 -73s-16 -28 -20 -51s-27 -32 -36 -28s-1 8 -9 11s-27 -18 -33 -18s-5 6 -10 12s2 23 0 28s-7 14 -12 11s-20 -50 -30 -50s-11 20 -11 20l-40 148c-4 13 -24 103 -28 110s0 20 3 31s20 28 21 36s-6 7 -14 1 s-15 -16 -24 -26s-19 -30 -28 -45s-57 -112 -62 -125s-58 -122 -67 -137s-15 -6 -31 -6s3 21 0 25s4 25 -8 20s-9 -45 -22 -47s-1 8 -5 12s-6 9 -15 3s12 -32 -20 -17z" glyph-name="W" horiz-adv-x="834" unicode="W"/><glyph d="M-1 27c35 52 126 198 166 263c3 4 11 12 15 23c9 25 -18 89 -32 148c-2 10 -42 150 -47 159s-14 48 -12 62s23 -5 38 -8s13 11 35 16s0 0 18 -5s1 -7 3 -25s7 -19 13 -15s11 3 1 17s-1 19 1 24s5 7 17 8s12 -1 18 -4s10 -11 10 -22s8 -23 11 -19s-2 15 -1 19s0 24 10 25 s9 -4 14 -9s27 -112 31 -122s8 -33 11 -42s4 9 7 12s11 12 15 22s88 119 93 128s23 14 32 15s16 -1 20 1s16 0 19 -2s-12 -22 -6 -28s22 33 26 32s4 -16 22 -17s6 10 15 14s27 3 38 6s6 -3 10 -11s-11 -27 -24 -39s-24 -29 -34 -39s-24 -32 -33 -42s-19 -24 -24 -31 s-40 -55 -44 -63s-81 -111 -86 -118s-7 -7 -7 -17s9 -37 15 -52s5 -21 7 -31s29 -103 31 -112s20 -66 24 -70s13 -39 17 -46s4 -30 -3 -34s-9 4 -20 4s-9 3 -13 4s-12 -4 -20 -1s-4 14 -3 25s-4 14 -9 13s-1 -12 1 -21s-4 -23 -11 -19s-6 7 -12 4s-32 -7 -40 -8 s-13 14 -13 14l-23 48c-5 10 -28 91 -34 99s-1 14 4 24s6 9 11 14s12 12 11 18s-13 15 -16 0c-2 -9 -1 -9 -7 -15s-12 -22 -18 -28c-8 -8 -61 -93 -65 -108c-5 -12 -33 -41 -35 -51s-20 -18 -25 -19s-23 0 -28 6s2 7 -5 8s-11 -7 -17 -10s-23 -3 -31 -2s-5 5 -3 13 s8 9 13 17s1 10 -4 12s-18 -38 -28 -39s-13 1 -17 2s5 22 7 25z" glyph-name="X" horiz-adv-x="591" unicode="X"/><glyph d="M138 330c0 3 10 4 13 8s1 5 -2 13s-10 17 -13 29s-73 199 -75 213s-28 78 -18 85s56 7 63 9s10 -22 20 -15s5 13 15 20s14 3 24 5s10 -5 16 -12s18 -49 21 -47s-3 14 -3 28s-6 19 -3 23s6 6 16 8s7 1 17 -8s3 -28 10 -40s3 -37 7 -50s11 -30 13 -40s0 -11 -4 -20 s-13 -20 -20 -26s0 -9 8 -7s22 26 22 30s7 6 11 13s78 110 80 116s34 28 40 33s17 3 20 0s-14 -37 -8 -40s28 27 33 34s14 7 21 6s21 -3 29 -1s11 -12 7 -21s-6 -15 0 -12s8 11 16 20s13 11 18 12s10 4 19 4s3 -15 2 -24s-35 -45 -39 -54s-49 -63 -58 -73s-36 -56 -36 -56 l-79 -110c-7 -10 -33 -50 -36 -56s0 -27 -1 -37s-7 -23 -10 -27s-12 -39 -15 -52s-6 -34 -8 -47s-7 -36 -11 -49s-12 -19 -16 -22s3 -18 1 -26s-5 -39 -7 -47s-10 -14 -17 -19s-10 -3 -18 1s6 12 3 13s2 11 -5 13s-12 -26 -18 -27s-16 1 -25 1s-10 1 -17 4s-4 7 -10 6 s-5 -7 -13 -9s-22 -2 -28 3s6 35 9 50s2 29 1 42s7 53 10 72s21 120 21 127s11 9 14 13s-7 17 -7 20z" glyph-name="Y" horiz-adv-x="486" unicode="Y"/><glyph d="M26 1c-14 7 -11 34 -10 46s5 12 3 19s-5 10 -8 20s4 28 4 32s9 22 15 27s80 144 84 153s3 20 6 28s86 170 92 178s15 3 32 6s11 6 9 12s-16 2 -25 5s-33 1 -53 1s-72 0 -91 6s-5 24 -3 33s22 12 23 23s-13 2 -13 12s3 20 4 31s12 10 22 18s34 4 31 14s-54 -3 -48 17 s51 11 63 12s214 5 228 7s72 -14 86 -11s23 -3 22 -14s-3 -16 -8 -29s1 -34 2 -45s-10 -20 -21 -21s-18 1 -25 1s-6 -13 0 -15s34 5 35 1s-4 -17 -10 -32s-33 -7 -42 -7s-6 -9 0 -14s-2 -16 -1 -25s-29 -45 -36 -55s-24 -32 -34 -44s-16 -7 -28 -15s3 -17 1 -26 s-15 -23 -25 -38s-78 -119 -86 -135s5 -19 14 -18s125 -1 145 -1s21 0 34 1s11 -9 12 -17s-4 -8 -11 -13s-19 -13 -20 -16s9 -11 16 -9s0 -20 -1 -33s-5 -19 -12 -20s-12 -1 -21 3s-20 -7 -21 -11s9 -4 18 -6s26 9 28 2s-4 -29 -13 -37s-26 4 -45 2s-126 -2 -146 1 s-158 -11 -172 -4z" glyph-name="Z" horiz-adv-x="510" unicode="Z"/><glyph d="M31 51c0 -1 8 72 10 85s6 18 17 25s39 5 51 4s-4 -12 11 -16s20 16 31 11s8 -6 25 -12s18 -5 15 -25s-17 -96 -25 -112s-21 -12 -34 -10s9 31 -7 33s-6 -31 -20 -33s-17 5 -27 9s-23 -10 -40 -8s-7 50 -7 49zM58 266c4 28 28 166 28 166l12 44c4 16 5 46 9 66 s21 90 25 112s8 26 16 41s44 2 53 1s32 3 47 -2s-17 -44 -1 -49s21 46 28 47s6 -10 16 -13s13 12 25 10s18 -15 2 -59s-53 -179 -64 -223s-45 -195 -49 -209s-47 -6 -62 -4s-5 13 -15 21s-19 -17 -33 -18s-9 6 -14 15s-13 9 -24 11s-3 15 1 43z" glyph-name="exclam" horiz-adv-x="356" unicode="!"/><glyph d="M27 48c5 16 14 77 20 94s21 21 32 19s30 1 35 0s0 -20 6 -21s18 22 24 20s5 -9 13 -10s16 10 31 11s16 -16 12 -34s-12 -83 -17 -100s-8 -19 -17 -18s-18 -10 -30 -8s14 26 -1 32s-19 -32 -26 -31s-26 -3 -36 -1s-3 21 -12 25s-14 -25 -29 -20s-10 26 -5 42zM52 213 c0 13 7 12 24 48c13 27 26 50 39 70c5 8 11 12 16 19s9 17 14 24c24 33 41 60 41 88c0 45 -37 66 -69 70c-22 2 -41 -7 -46 -7c-13 1 -20 3 -22 25s42 20 39 35s-40 -13 -41 -3s-2 9 -2 14s-5 7 -4 14s12 20 10 23s-16 -2 -19 10s22 57 145 57c88 0 151 -42 180 -107 c6 -12 6 -26 9 -40c4 -16 9 -32 9 -49c0 -46 -20 -94 -47 -138c-5 -9 -13 -16 -19 -24c-10 -15 -18 -30 -29 -44c-40 -49 -79 -87 -89 -103c-12 -19 -21 -6 -31 -6s-17 10 -26 12s-9 -12 -24 -10s10 43 2 47s-20 -50 -34 -50s-26 6 -26 25z" glyph-name="question" horiz-adv-x="401" unicode="?"/><glyph glyph-name="space" horiz-adv-x="282"/><glyph d="M143 89c-2 -7 -6 -16 -8 -18s-6 -12 -8 -19s-19 -40 -24 -43s-5 -7 -8 -7s-8 -6 -10 -4s10 29 4 29s-16 -17 -21 -18s-8 -5 -14 -7s-12 -3 -16 -1s1 15 -3 16s-1 8 -10 8s-4 -5 -13 -10s1 -10 -9 -12s-10 -6 -21 -4s-33 9 -13 53s63 132 68 138s14 14 12 21s1 13 2 16 s80 150 87 162s57 94 61 99s10 25 12 29l72 119s38 62 49 62s3 -30 17 -30s13 31 20 31s8 -8 16 -6s10 4 16 6s0 -30 16 -30s5 29 13 31s9 -1 19 1s15 6 22 3s15 -134 14 -156s5 -144 3 -147s-3 -13 -3 -19s6 -21 5 -24s3 -335 0 -341s0 -17 -6 -17s-15 -1 -19 1s-4 9 -8 9 s-11 -3 -14 -5s-10 -6 -13 -6s-6 32 -16 32s-5 -26 -10 -27s0 -3 -10 -4s-6 17 -12 17s-23 -21 -33 -19s-15 4 -15 14s0 68 -2 70s0 2 1 12v16c-6 0 -14 1 -27 1c-16 0 -13 -1 -33 0s-15 -1 -30 -2s-14 -5 -28 0s-7 6 -19 5s-12 -1 -19 -3c-5 -2 -14 -2 -22 -1 c-4 -8 -10 -15 -12 -21zM225 236h3c9 -1 26 1 35 1s38 0 48 -2s5 -11 2 -19s-17 -5 -22 -9s4 -5 13 -9s15 10 19 14s-2 44 -1 51s5 96 7 114s3 53 -2 55s-17 -26 -25 -48s-51 -91 -61 -111s-25 -34 -16 -37zM300 155c0 -12 33 -13 33 -1s-33 13 -33 1z" glyph-name="A" horiz-adv-x="567" unicode="A"/><glyph d="M269 656c17 0 18 -25 33 -22c12 2 31 9 26 17s-24 -5 -27 5s26 43 115 43c37 0 79 -15 115 -46c15 -13 28 -28 40 -46c14 -21 26 -47 35 -76c9 -30 14 -64 14 -102c0 -66 -25 -141 -66 -208c-17 -29 -41 -51 -63 -77c-27 -31 -53 -64 -85 -86c-51 -36 -106 -58 -159 -58 c-43 0 -77 9 -105 24c-21 11 -39 25 -53 41c-46 52 -62 126 -62 185c0 30 4 61 11 92c7 32 26 62 39 93c15 36 24 73 44 103c46 70 101 118 148 118zM339 485c-29 -11 -54 -27 -74 -45c-24 -21 -42 -46 -55 -72c-47 -95 -23 -205 45 -205c84 0 149 97 169 184 c4 17 13 34 13 50c0 30 -10 53 -15 70c-13 43 -36 50 -48 56c-14 8 -22 -6 -20 -11s13 -14 -15 -27zM341 543c6 -7 29 4 25 13s-31 -6 -25 -13z" glyph-name="zero" horiz-adv-x="647" unicode="0"/><glyph d="M41 2c-2 17 10 107 13 128s22 197 26 215s9 87 14 99s8 13 19 23s15 26 9 28s-21 -21 -29 -17s-48 13 -56 36s19 44 43 64s102 114 107 120s19 3 27 4s23 -18 33 -20s25 17 36 16s-1 -35 8 -37s14 38 37 36s-7 -61 -11 -68s-6 -34 -12 -54s6 -26 9 -40s-12 -52 -12 -52 l-43 -156c-3 -12 -15 -74 -20 -93s-38 -180 -45 -210s-25 -22 -40 -23s-6 6 -19 9s-19 -6 -30 -5s0 22 -9 26s-18 -4 -25 -17s-28 -29 -30 -12z" glyph-name="one" horiz-adv-x="315" unicode="1"/><glyph d="M213 171c-4 -6 2 -9 16 -9s75 1 92 1s44 3 42 -13s1 -16 -5 -23s-11 -13 -12 -20s4 -8 7 -11s7 -13 7 -21s-49 -12 -40 -24s34 7 34 -6s-13 -39 -23 -40s-59 0 -69 1s-219 -9 -231 -5s-22 13 -20 25s12 13 13 20s1 7 -1 13s-6 23 -1 28s40 -4 36 8s-40 5 -38 17 s-1 37 11 54s195 187 195 281c0 83 -84 78 -104 69s-20 23 -22 38s11 12 13 19s8 9 3 13s-17 -5 -18 5s0 14 -1 23s46 1 40 17s-41 9 -43 18s-5 27 11 36s79 14 117 14s177 -38 177 -222c0 -138 -135 -257 -157 -277s-25 -23 -29 -29z" glyph-name="two" horiz-adv-x="429" unicode="2"/><glyph d="M144 549c0 8 14 3 17 16s-12 12 -11 20s4 9 8 16s22 8 21 13s-20 4 -20 12s-2 27 4 38s40 35 112 35c34 0 70 -15 97 -42c19 -19 31 -46 39 -76c5 -17 11 -33 11 -53c0 -113 -101 -151 -101 -184s37 -28 37 -122c0 -9 -1 -18 -2 -26c-3 -24 -16 -44 -28 -64 c-7 -11 -10 -24 -19 -34c-57 -64 -155 -99 -239 -99c-41 0 -52 14 -57 21s0 20 6 26s4 3 10 6s3 7 3 12s3 9 3 15s28 -18 30 -4s-25 17 -25 22s3 18 5 25s10 16 13 20s-2 10 3 11s19 -4 39 -3s92 26 92 80s-72 44 -79 44s-9 18 -10 29s14 5 21 10s20 -1 15 5s-30 -1 -30 6 s-1 10 3 20s6 11 4 22s-8 15 2 18s39 5 45 8c3 1 26 6 44 21c9 8 15 21 20 32c3 7 5 15 5 23c0 46 -45 52 -69 52s-19 21 -19 29z" glyph-name="three" horiz-adv-x="452" unicode="3"/><glyph d="M59 215c-13 -1 -30 5 -31 18s21 12 21 21s-21 1 -21 11s-4 26 -3 37s21 -6 26 10s-32 7 -32 15s17 12 19 17s3 12 1 20s-6 5 -2 22s63 99 80 115s112 146 120 159s31 39 50 36s5 -11 15 -16s10 10 15 10s29 -11 38 -14s2 -15 -1 -23s-24 -21 -14 -32s20 14 25 24 s5 37 11 46s15 8 26 11s25 0 37 -2s-12 -44 5 -42s24 41 33 42s12 -20 21 -23s13 24 35 24s22 -7 20 -22s-43 -171 -47 -189s-37 -117 -42 -143s-47 -244 -53 -271s-15 -73 -23 -75s-5 6 -10 7s-7 -5 -17 -5s-24 1 -35 3s-4 11 -12 16s-18 -21 -29 -20s8 34 -1 40 s-11 -41 -24 -40s-16 4 -15 23s21 156 24 173s9 42 4 41s-5 -21 -10 -25s-27 1 -38 2s-153 0 -166 -1zM228 371c0 -10 27 -11 46 -10s24 11 27 18s10 46 12 62s7 26 4 31s-16 -6 -22 -12s-45 -49 -53 -60s-14 -19 -14 -29z" glyph-name="four" horiz-adv-x="551" unicode="4"/><glyph d="M64 167c13 -10 42 -16 75 -16c17 0 41 3 58 15c16 11 27 31 27 52c0 44 -30 64 -47 64s-30 -5 -40 -6s-15 11 -23 26s14 23 8 29s-14 -2 -20 0s-8 4 -11 23s31 16 35 32s-35 12 -40 20s5 36 7 48s6 25 10 32s-7 23 -4 41s24 121 33 145s31 17 40 19s40 6 49 6 s119 2 129 2s92 -2 110 -1s21 -9 24 -15s0 -19 -5 -26s-11 -10 -9 -16s1 -20 -1 -31s-28 8 -34 -5s29 -8 28 -16s-11 -2 -16 -9s-7 -8 -9 -17s8 -8 11 -13s-3 -12 -7 -25s-21 -7 -29 -5s-67 -1 -99 -1s-33 -13 -33 -13l-21 -70c-2 -6 -5 -9 0 -17s131 -40 131 -180 c0 -28 -6 -54 -15 -77c-4 -11 -14 -21 -20 -31c-9 -14 -15 -28 -26 -40c-57 -60 -142 -91 -199 -91c-60 0 -90 23 -105 34s-2 30 2 29s5 -6 10 -1s-12 18 -10 29s8 4 12 11s-6 17 -4 25s29 -1 30 7s-31 3 -27 20s12 23 25 13z" glyph-name="five" horiz-adv-x="478" unicode="5"/><glyph d="M214 0c-55 0 -96 31 -127 73c-16 21 -32 42 -41 69c-10 30 -15 62 -15 95c0 46 11 92 28 137c6 16 16 27 23 42s12 34 20 48c76 134 188 237 196 242c12 7 31 -15 41 -19s-4 -20 5 -25s20 10 24 8s12 0 19 -5s-16 -40 -7 -48s22 29 29 29s8 2 20 -8s42 -12 -9 -50 s-140 -153 -158 -177s-16 -39 -12 -41s9 27 14 27s9 6 27 6c36 0 80 -15 112 -47c11 -11 19 -29 26 -44c5 -11 11 -18 14 -30c3 -14 5 -28 5 -44c0 -61 -31 -123 -78 -169c-18 -17 -38 -32 -59 -43c-30 -16 -63 -26 -97 -26zM243 143c8 0 16 1 23 4c10 4 19 10 26 19 c9 11 14 25 14 43c0 17 -6 31 -16 42c-16 17 -42 26 -76 28c-16 1 -1 13 1 20s-2 23 -8 12s-22 -52 -17 -104s32 -64 53 -64zM217 336c-2 -10 19 -14 22 -5s-20 15 -22 5z" glyph-name="six" horiz-adv-x="475" unicode="6"/><glyph d="M50 519c-14 0 -18 9 -15 25s-8 20 -4 26s30 -10 27 5s-25 5 -22 15s36 9 37 21s-29 0 -26 12s15 29 13 36s-2 5 -4 19s11 24 32 22s139 0 150 1s95 -7 108 -6s86 2 97 1s17 -6 13 -18s-15 -18 -17 -25s7 -8 6 -17s-10 -15 -9 -23s12 -6 11 -19s-45 -4 -45 -16 s42 2 40 -17s-13 -50 -25 -47s-20 2 -31 3s-27 4 -35 -1s-31 -36 -22 -38s15 19 26 21s18 9 29 1s9 -22 2 -33s-62 -94 -79 -131s-65 -164 -67 -168s-36 -126 -41 -140s-10 -28 -24 -27s6 46 -4 45s-18 -46 -33 -42s-7 20 -18 22s-26 -24 -47 -23s-36 -4 -29 24 s37 147 51 191s63 195 73 221s43 80 0 81s-77 0 -85 -1s-19 0 -33 0z" glyph-name="seven" horiz-adv-x="457" unicode="7"/><glyph d="M192 0c-56 0 -107 28 -135 73c-15 24 -24 53 -24 85c0 13 1 25 4 37c5 21 16 37 26 53c6 10 11 22 18 30c28 31 57 49 61 50c7 2 8 7 4 12s-46 41 -46 115c0 20 6 38 10 54c3 10 3 19 7 28c26 61 74 92 77 94c4 3 -1 2 12 10s29 -11 41 -18s35 18 32 25s-24 -16 -29 -8 s-4 16 -7 32s31 29 101 29s167 -53 167 -171c0 -21 -8 -39 -14 -57c-5 -15 -6 -31 -13 -44c-38 -70 -104 -114 -104 -121c0 -10 35 -19 35 -117c0 -11 -5 -23 -7 -33c-5 -22 -12 -42 -26 -60c-44 -60 -124 -98 -190 -98zM289 532c-15 -9 -24 -35 -24 -52s10 -55 28 -55 c11 0 22 11 29 26c2 5 7 10 8 16c2 7 0 15 0 21c0 15 -6 29 -19 34c-9 3 -13 13 -19 24s0 -12 -3 -14zM283 567c4 -7 28 8 23 16s-27 -9 -23 -16zM219 139c56 0 61 102 29 102c-14 0 -15 13 -19 15s0 -8 -1 -17s-37 -24 -37 -62c0 -31 19 -38 28 -38z" glyph-name="eight" horiz-adv-x="538" unicode="8"/><glyph d="M252 383c7 0 55 14 53 -2s-1 -33 -11 -33s-18 1 -19 -7s26 -12 30 -4s26 57 25 110c0 9 4 23 2 30c-3 12 -11 17 -17 24c-11 15 -28 21 -47 21c-13 0 -27 -4 -39 -13c-6 -4 -12 -4 -17 -10c-4 -5 -5 -17 -8 -24c-4 -10 -6 -23 -6 -37c0 -43 47 -55 54 -55zM207 248 c-82 0 -171 57 -171 192c0 42 12 84 33 121c6 11 17 22 25 32c10 13 17 25 30 36c47 43 110 71 178 71c134 0 204 -92 208 -249c2 -92 -51 -193 -105 -270c-13 -18 -27 -28 -39 -43c-6 -7 -10 -20 -15 -26c-19 -22 -35 -39 -45 -49c-46 -43 -83 -66 -102 -63s22 37 8 41 s-27 -39 -45 -40s-13 23 -23 24s-23 -23 -30 -24s-5 14 -11 15s-7 -18 -24 -16s-9 20 -3 25s35 31 87 81s105 149 109 159s-7 14 -18 -4s-22 -13 -47 -13z" glyph-name="nine" horiz-adv-x="538" unicode="9"/><glyph d="M67 490c3 18 10 84 15 113s12 73 28 92s32 -2 44 -1s-3 -42 14 -41s12 44 27 42s22 -22 43 -16s30 21 40 17s14 -19 -9 -96s-46 -148 -52 -158s-36 -8 -41 -4s16 51 2 49s-18 -47 -29 -45s-19 23 -31 22s-34 -17 -43 -12s-11 20 -8 38zM457 449c-2 -9 -10 -19 -24 -24 s-9 7 -23 12s-30 -8 -48 -6s4 37 -10 45s-10 -40 -25 -43s-20 -2 -30 1s3 54 4 69c1 19 29 155 39 184s54 6 62 -1s16 8 27 8s6 -52 21 -47s9 40 19 44s11 -3 21 -10s12 9 29 11s4 -23 1 -46s-44 -134 -50 -153s-11 -35 -13 -44z" glyph-name="quotedbl" unicode="&quot;"/><glyph d="M-29 147c-5 4 1 14 1 22s-2 18 -3 29s9 -3 11 10s-11 6 -12 19s18 11 21 22s-20 9 -19 30s32 12 43 13s44 1 50 1s4 1 5 8s4 40 7 52s4 20 3 26s-51 -2 -65 0s-11 4 -10 11s-7 9 -5 20s35 9 34 21s-33 0 -33 17s5 16 4 24s-3 5 -5 13s-1 16 1 32s76 6 100 7s36 -9 38 8 s-32 22 -32 22l10 81c3 21 22 24 35 22s8 -46 20 -46s6 45 20 44s17 -7 27 -15s26 13 43 16s36 -13 34 -27s-11 -66 -16 -90s17 -16 27 -16s79 -2 88 1s14 55 16 78s3 44 13 53s19 -4 38 -10s32 13 50 12s8 -49 17 -51s-1 49 22 51s45 -4 44 -16s-15 -77 -21 -106 s-7 -56 1 -53s0 39 17 41s61 -6 62 -14s-5 -21 -9 -34s6 -24 7 -37s-32 -16 -37 -24s35 11 37 -3s-3 -31 -13 -31s-62 -3 -72 -2s-17 1 -20 -10s-8 -51 -12 -67s20 -9 39 -9s30 0 39 -7s-33 -31 -33 -38s31 -1 34 -7s-22 -11 -18 -25c2 -8 9 -16 8 -20c-2 -8 10 2 9 -19 s-3 -28 -13 -28s-65 -1 -74 0s-19 -5 -20 -14s-18 -101 -21 -116s-14 -13 -24 -11s-26 -8 -40 -7s16 50 0 53s-10 -50 -20 -54s-13 15 -23 18s-16 -16 -31 -18s-20 15 -19 27s12 83 14 99s-5 24 -12 23s-93 1 -105 1s-15 -3 -17 -15s-17 -126 -31 -132s-10 13 -26 19 s-38 -19 -51 -20s4 30 -10 34s-17 -35 -40 -35s-21 17 -19 31s10 80 15 96s31 5 35 14s-25 6 -37 7s-66 -5 -71 -1zM239 319c-2 -13 -2 -27 5 -28s96 0 108 1s13 6 14 13s7 53 10 67s-28 8 -28 8h-80c-9 0 -7 1 -4 18s-8 17 -10 10s-13 -76 -15 -89z" glyph-name="numbersign" horiz-adv-x="645" unicode="#"/><glyph d="M74 -115c-5 1 -3 15 0 34c4 25 11 59 16 76c-80 7 -97 61 -95 64c3 3 4 19 8 20s15 -17 25 -16s11 4 11 11c1 7 -10 14 -16 15s-13 4 -12 9s2 17 6 24c3 6 9 4 9 10s-2 17 0 21s8 13 10 19c1 6 11 4 18 1c8 -3 57 -22 94 -21s69 26 68 78s-147 86 -151 253 c-2 120 99 181 184 206c0 3 0 5 1 8c5 32 13 79 15 87c3 12 8 43 19 41s20 -22 34 -14s8 12 21 11s5 -33 17 -29s4 30 14 27s25 5 12 -49c-6 -26 -13 -50 -18 -69c63 -6 116 -34 113 -48c-4 -17 -7 -32 -13 -28c-7 3 -39 15 -40 6c0 -9 5 -16 14 -16s17 2 18 -6 s-4 -43 -12 -48s-10 -4 -14 -15s-9 -20 -9 -20s8 -24 -4 -20c-12 3 -54 28 -95 27s-58 -38 -47 -74s114 -92 116 -231c2 -106 -79 -185 -178 -218l-3 -18c-13 -54 -21 -100 -26 -112s-12 -7 -22 -6s-15 0 -22 5s-2 17 -10 13s-16 -12 -23 -12s10 26 -3 28s-16 -26 -30 -24z" glyph-name="dollar" horiz-adv-x="471" unicode="$"/><glyph d="M14 51c8 17 75 186 80 198s-2 6 7 27l43 99l31 70c7 16 14 30 19 43l17 40c4 9 18 31 30 58c4 8 4 20 8 28c14 33 28 66 33 76c10 21 35 2 46 2s6 5 21 7s17 -9 27 -14s21 13 39 14s-1 -51 11 -49s14 50 38 49s11 -30 -2 -58l-31 -66c-10 -21 -24 -41 -35 -64 c-9 -19 -15 -41 -23 -57l-24 -49c-15 -28 -70 -144 -77 -161s-43 -85 -50 -99s-37 -85 -47 -112s-21 -32 -39 -34s-16 2 -29 8s-28 -8 -41 -7s7 27 -7 32s-11 -31 -37 -31s-16 33 -8 50z" glyph-name="slash" horiz-adv-x="470" unicode="/"/><glyph d="M204 51c8 17 75 186 80 198s-2 6 7 27l43 99l31 70c7 16 14 30 19 43l17 40c4 9 18 31 30 58c4 8 4 20 8 28c14 33 28 66 33 76c10 21 35 2 46 2s6 5 21 7s17 -9 27 -14s21 13 39 14s-1 -51 11 -49s14 50 38 49s11 -30 -2 -58l-31 -66c-10 -21 -24 -41 -35 -64 c-9 -19 -15 -41 -23 -57l-24 -49c-15 -28 -70 -144 -77 -161s-43 -85 -50 -99s-37 -85 -47 -112s-21 -32 -39 -34s-16 2 -29 8s-28 -8 -41 -7s7 27 -7 32s-11 -31 -37 -31s-16 33 -8 50zM566 302c7 4 13 -4 16 -7c4 -4 8 -2 7 4s-10 16 -1 20c8 5 41 18 82 18 c29 0 87 -18 108 -57c22 -39 19 -50 19 -50s-3 0 -3 -3s0 -4 2 -6c1 -2 4 -2 2 -5c0 -3 1 -57 -15 -94c-18 -36 -37 -58 -39 -61c-1 0 -4 0 -8 -4c-1 -3 -4 -8 -6 -11c-6 -7 -13 -14 -16 -16c-5 -3 -47 -38 -112 -38c-4 0 -8 0 -12 1c-10 0 -14 3 -24 6l-15 3 c-31 14 -61 46 -71 87c-2 7 -1 16 -2 23c-1 6 -4 10 -4 16c-1 30 5 58 15 82c2 7 13 14 16 20s0 11 3 17c16 26 42 46 58 55zM125 667c7 4 13 -4 16 -7c4 -4 8 -2 7 4s-10 16 -1 20c8 5 41 18 82 18c29 0 87 -18 108 -57c22 -39 19 -50 19 -50s-3 0 -3 -3s0 -4 2 -6 c1 -2 4 -2 2 -5c0 -3 1 -57 -15 -94c-18 -36 -37 -58 -39 -61c-1 0 -4 0 -8 -4c-1 -3 -4 -8 -6 -11c-6 -7 -13 -14 -16 -16c-5 -3 -47 -38 -112 -38c-4 0 -8 0 -12 1c-10 0 -14 3 -24 6l-15 3c-31 14 -61 46 -71 87c-2 7 -1 16 -2 23c-1 6 -4 10 -4 16c-1 30 5 58 15 82 c2 7 13 14 16 20s0 11 3 17c16 26 42 46 58 55zM624 202c-4 -2 -8 -8 -13 -15l-3 -3c-1 -1 0 -3 -1 -5c-10 -23 -17 -54 -6 -67c2 -3 3 -7 6 -8c2 -1 7 0 11 0c16 0 30 14 39 31c5 7 11 15 14 24c0 3 -2 7 -1 10c2 13 6 21 3 29c-2 8 -12 16 -21 16c-8 0 -8 2 -13 0 c-5 -1 -5 2 -7 6c-3 5 3 4 3 7c1 3 -5 1 -7 1c-2 -1 -4 -7 -3 -9c0 -3 3 -6 4 -7c2 -2 6 -3 -5 -10zM183 567c-4 -2 -8 -8 -13 -15l-3 -3c-1 -1 0 -3 -1 -5c-10 -23 -17 -54 -6 -67c2 -3 3 -7 6 -8c2 -1 7 0 11 0c16 0 30 14 39 31c5 7 11 15 14 24c0 3 -2 7 -1 10 c2 13 6 21 3 29c-2 8 -12 16 -21 16c-8 0 -8 2 -13 0c-5 -1 -5 2 -7 6c-3 5 3 4 3 7c1 3 -5 1 -7 1c-2 -1 -4 -7 -3 -9c0 -3 3 -6 4 -7c2 -2 6 -3 -5 -10zM598 280c1 -5 18 2 16 6c-2 5 -17 -2 -16 -6zM157 645c1 -5 18 2 16 6c-2 5 -17 -2 -16 -6z" glyph-name="percent" horiz-adv-x="822" unicode="%"/><glyph d="M336 558c-7 0 -25 -4 -42 -16c-6 -4 -13 -9 -18 -16c-9 -12 -16 -27 -16 -48c0 -9 -2 -22 0 -28c3 -9 10 -11 15 -16c16 -17 41 -17 46 -17c8 0 31 2 38 2s6 7 8 28s10 33 24 37s6 -35 18 -36s6 40 19 42s27 -1 41 1s15 13 37 19s18 -33 14 -56s-11 -65 -2 -64 s7 36 14 37s13 -1 28 0s12 -12 13 -26c1 -8 -1 -37 -1 -40c0 -25 -25 -9 -28 -26s27 10 27 -22c0 -16 -7 -24 -16 -25s-32 1 -46 1s-17 0 -19 -8s2 13 -20 -96c-5 -24 -15 -45 -25 -66c-6 -12 -9 -24 -16 -34c-10 -14 -21 -27 -33 -38c-36 -33 -84 -54 -142 -54 c-19 0 -59 4 -100 21c-10 4 -17 13 -26 18c-7 4 -17 5 -24 10c-36 26 -65 66 -65 125c0 24 4 45 10 64c4 10 11 18 16 27c8 14 13 28 23 38c37 40 83 54 86 55c-4 1 -93 32 -93 134c0 44 18 84 44 117c7 9 16 14 25 22c9 9 20 21 30 28c43 30 91 48 131 48 c28 0 54 -6 76 -13c8 -3 16 -3 23 -6c6 -2 10 -7 15 -10c33 -17 52 -36 52 -39c0 -5 -6 -9 -13 -12s-7 -14 -12 -20s-17 23 -25 11s18 -16 14 -23s-11 -14 -21 -19s-15 -24 -20 -28s-5 -24 -20 -1s-30 18 -44 18zM338 291c-1 -1 -8 1 -42 1c-33 0 -57 -19 -70 -44 c-4 -8 -11 -17 -13 -25c-3 -12 -1 -24 0 -35c2 -28 16 -50 40 -50c21 0 37 12 49 30c8 13 14 28 19 43c9 27 13 53 15 60c5 17 34 11 35 16s-32 5 -33 4z" glyph-name="ampersand" horiz-adv-x="604" unicode="&amp;"/><glyph d="M67 490c3 18 10 84 15 113s12 73 28 92s32 -2 44 -1s-3 -42 14 -41s12 44 27 42s22 -22 43 -16s30 21 40 17s14 -19 -9 -96s-46 -148 -52 -158s-36 -8 -41 -4s16 51 2 49s-18 -47 -29 -45s-19 23 -31 22s-34 -17 -43 -12s-11 20 -8 38z" glyph-name="quotesingle" horiz-adv-x="257" unicode="'"/><glyph d="M256 -59c-32 6 -72 20 -110 45c-16 11 -28 26 -43 41c-7 7 -17 10 -23 18c-39 48 -66 116 -66 207c0 43 6 84 19 123c10 31 31 58 47 86c10 18 15 37 27 53c48 62 112 114 182 146c17 8 39 9 56 15c17 5 29 14 46 17c22 4 45 7 67 7c19 0 20 -4 16 -17s-43 -15 -42 -26 s35 2 36 -3s-11 -7 -15 -15s-2 -12 5 -18s-8 -20 -14 -45s3 -52 -8 -52c-18 0 -37 -3 -55 -9c-12 -4 -24 -5 -36 -11s-23 -17 -34 -25c-75 -54 -130 -145 -130 -222c0 -25 4 -46 11 -65c5 -14 8 -32 16 -43c15 -22 38 -32 56 -42c15 -8 30 -13 40 -13c36 -1 30 -11 30 -21 s-11 -21 -18 -36s1 -26 2 -40s-31 -3 -26 -16s17 -2 21 -11s-4 -29 -5 -31s-17 -3 -52 3z" glyph-name="parenleft" horiz-adv-x="479" unicode="("/><glyph d="M144 523c-16 0 -14 17 -8 24s10 7 14 14s-7 9 -5 16s26 -6 29 7s-28 -1 -26 30s21 37 17 51s-6 31 10 32c6 1 45 -6 93 -27c18 -8 35 -26 55 -38c18 -12 40 -17 57 -33c51 -48 91 -117 91 -216c0 -45 -9 -92 -26 -136c-11 -28 -19 -58 -36 -84 c-35 -56 -89 -105 -147 -144c-17 -11 -34 -22 -52 -31c-20 -10 -42 -13 -63 -20c-49 -17 -102 -33 -158 -33c-7 0 6 22 6 30s-4 19 3 22s12 15 9 22s-7 24 2 31s45 -7 44 7s-40 4 -36 18s-3 24 35 24c13 0 47 13 86 37c12 7 28 11 40 21c11 9 19 23 30 33c21 20 41 43 57 68 c21 33 34 70 34 110c0 17 -2 34 -5 48c-5 21 -8 44 -19 59c-14 20 -38 29 -57 39c-25 13 -52 19 -74 19z" glyph-name="parenright" horiz-adv-x="512" unicode=")"/><glyph d="M22 21c3 16 0 1 0 2c4 35 10 126 20 132s29 3 35 -3s6 -21 14 -14s19 20 29 18s22 -14 29 -12s0 -47 15 -43s9 51 24 49s33 3 30 -22s-29 -98 -31 -114s-4 -24 -24 -21s-25 15 -36 10s-16 -3 -32 -4s-28 0 -33 2s3 35 -5 29s-14 -27 -23 -28s-15 3 -12 19z" glyph-name="period" horiz-adv-x="239" unicode="."/><glyph d="M-5 -40c-1 1 43 85 52 101s24 58 33 72s30 24 51 19s30 -11 37 -9s16 9 24 7s-11 -38 8 -37s8 34 25 34s46 2 36 -18s-69 -95 -74 -108s-31 -32 -40 -48s-29 -65 -49 -66s-28 11 -44 9s-24 -6 -31 -7s31 47 14 47s-18 -47 -30 -48s-42 -7 -31 19s20 32 19 33z" glyph-name="comma" horiz-adv-x="303" unicode=","/><glyph d="M198 598c2 5 18 83 19 92c2 9 15 7 24 8s14 -13 24 -13s26 14 33 13s0 -38 17 -33c18 6 9 33 25 34c15 1 26 -6 20 -29c-5 -23 -19 -66 -10 -67s3 23 9 28c14 12 38 19 45 23c10 7 47 25 54 10c7 -16 -5 -25 3 -34c7 -9 12 -7 15 -13c3 -5 -18 -12 -11 -23 c8 -11 19 11 30 -3c11 -15 21 -41 9 -46c-12 -6 -93 -46 -103 -50s-9 4 -19 9c-10 6 -12 -6 5 -15c18 -9 42 -26 53 -34s9 -21 0 -37c-9 -17 -27 -14 -31 -22c-5 -8 1 -25 -6 -34c-6 -9 -29 15 -33 7c-3 -9 20 -22 15 -33c-6 -10 -23 1 -45 14s-42 45 -46 30 c-3 -16 -14 -62 -17 -72c-4 -11 -19 -14 -36 -13c-16 1 -19 5 -29 4s-19 -7 -27 -5c-7 2 7 23 -1 23c-7 0 -19 -24 -28 -23s-11 9 -7 45c3 35 13 53 11 56c-3 4 -8 -8 -12 -19c-5 -11 -10 -12 -18 -16l-35 -18s-12 3 -17 14c-4 11 9 20 3 29c-5 9 -14 -8 -20 0 c-6 9 -6 28 -9 30c-3 3 -20 27 -22 28s-8 9 12 21c19 12 59 32 66 35c8 2 8 7 0 11c-7 3 -41 28 -49 34c-8 5 -34 12 -20 34s29 -11 35 1c5 12 -26 22 -14 39c12 16 22 9 26 23c3 13 3 23 9 30c5 6 32 -10 46 -21c13 -11 44 -30 49 -33c4 -4 -8 -38 1 -40c9 -1 5 15 7 21z" glyph-name="asterisk" horiz-adv-x="521" unicode="*"/><glyph d="M211 333c0 0 20 87 22 100s2 23 5 35s27 11 38 10s18 -20 33 -15s22 16 31 15s-6 -26 10 -25s19 26 32 25s17 -11 12 -34l-24 -106s-5 -11 21 -10s125 0 126 -3s-5 -24 -8 -35s-44 -14 -36 -27s21 -9 20 -18s-3 -25 -6 -38s1 -27 -18 -27s-62 2 -84 2c-12 0 -24 2 -35 2 c-6 0 -3 15 -2 20c2 13 -5 20 -13 -15l-25 -107s-3 -47 -29 -47s-37 7 -49 6s-19 -6 -26 -6s26 49 7 49s-21 -48 -38 -48s-20 10 -14 42s15 84 18 90s-4 5 -22 4s-97 -2 -111 -3s-22 -1 -14 25s24 24 21 38s-10 31 -7 38s34 -4 32 8s-26 27 -22 37s21 12 43 11s94 2 97 1 s0 -7 -2 -20s8 -16 12 0s5 26 5 26z" glyph-name="plus" horiz-adv-x="542" unicode="+"/><glyph d="M62 169c-15 0 -30 -2 -28 22c1 10 1 12 3 17c4 9 33 -5 35 2c3 12 -29 4 -27 32s21 25 17 45s-12 39 5 38s194 1 206 1s146 -1 163 0s80 10 75 -10s-35 -23 -38 -29s31 -10 28 -20s-20 -29 -20 -36s-2 -31 -5 -38s3 -10 -42 -12s-208 -2 -215 -3s-9 -7 -29 -8 s-113 -1 -128 -1z" glyph-name="hyphen" horiz-adv-x="541" unicode="-"/><glyph d="M22 21c3 16 0 1 0 2c4 35 10 126 20 132s29 3 35 -3s6 -21 14 -14s19 20 29 18s22 -14 29 -12s0 -47 15 -43s9 51 24 49s33 3 30 -22s-29 -98 -31 -114s-4 -24 -24 -21s-25 15 -36 10s-16 -3 -32 -4s-28 0 -33 2s3 35 -5 29s-14 -27 -23 -28s-15 3 -12 19zM72 306 c3 16 0 1 0 2c4 35 10 126 20 132s29 3 35 -3s6 -21 14 -14s19 20 29 18s22 -14 29 -12s0 -47 15 -43s9 51 24 49s33 3 30 -22s-29 -98 -31 -114s-4 -24 -24 -21s-25 15 -36 10s-16 -3 -32 -4s-28 0 -33 2s3 35 -5 29s-14 -27 -23 -28s-15 3 -12 19z" glyph-name="colon" horiz-adv-x="288" unicode=":"/><glyph d="M105 306c3 16 0 1 0 2c4 35 10 126 20 132s29 3 35 -3s6 -21 14 -14s19 20 29 18s22 -14 29 -12s0 -47 15 -43s9 51 24 49s33 3 30 -22s-29 -98 -31 -114s-4 -24 -24 -21s-25 15 -36 10s-16 -3 -32 -4s-28 0 -33 2s3 35 -5 29s-14 -27 -23 -28s-15 3 -12 19zM-5 -40 c-1 1 43 85 52 101s24 58 33 72s30 24 51 19s30 -11 37 -9s16 9 24 7s-11 -38 8 -37s8 34 25 34s46 2 36 -18s-69 -95 -74 -108s-31 -32 -40 -48s-29 -65 -49 -66s-28 11 -44 9s-24 -6 -31 -7s31 47 14 47s-18 -47 -30 -48s-42 -7 -31 19s20 32 19 33z" glyph-name="semicolon" horiz-adv-x="369" unicode=";"/><glyph d="M81 258c-15 0 -30 -2 -28 22c1 10 1 12 3 17c4 9 33 -5 35 2c3 12 -29 4 -27 32s21 25 17 45s-12 39 5 38s194 1 206 1s146 -1 163 0s80 10 75 -10s-35 -23 -38 -29s31 -10 28 -20s-20 -29 -20 -36s-2 -31 -5 -38s3 -10 -42 -12s-208 -2 -215 -3s-9 -7 -29 -8 s-113 -1 -128 -1zM58 69c-7 1 -20 -6 -17 26s5 26 6 36s-4 21 -4 29s53 -4 52 11s-44 9 -39 34s90 13 102 13s92 2 112 2s169 0 193 -1s43 5 43 -8s-22 -28 -21 -41s9 -30 5 -41s-31 -3 -32 -17s25 -5 19 -23s-8 -18 -29 -18s-178 1 -194 1s-104 -2 -139 -3s-50 -1 -57 0z" glyph-name="equal" horiz-adv-x="565" unicode="="/><glyph d="M51 113c-31 12 -27 18 -23 46s34 -4 37 16s-22 10 -27 29s3 17 7 38s-12 29 2 42s98 35 136 51s62 29 73 34s153 64 169 69s67 26 68 12s-14 -28 -18 -44s0 -28 -2 -33s-26 -2 -20 -12s21 3 19 -11s-12 -40 -43 -49s-130 -49 -151 -61s-31 -12 -51 -25s-26 -22 -1 -17 s34 3 52 -7s74 -29 93 -41s29 -12 29 -20s3 -36 -8 -44s-41 8 -43 -9s35 -23 28 -37s-5 -37 -38 -41s-155 56 -186 73s-71 29 -102 41z" glyph-name="less" horiz-adv-x="521" unicode="&lt;"/><glyph d="M118 293c-15 4 -34 2 -31 24s18 27 22 35s-2 24 2 35s46 -14 52 3s-37 28 -33 44s39 11 90 -6s175 -75 193 -84s66 -24 75 -29s-3 -25 -7 -42s-28 6 -35 -10s23 -11 23 -22s-25 -17 -22 -37s12 -17 4 -34s-90 -27 -123 -40s-150 -70 -163 -77s-93 -41 -108 -46 s-20 -8 -28 -6s-9 27 0 41s18 14 13 24s-12 15 -9 25s36 -2 37 10s-31 28 -12 37s101 36 124 48s82 31 92 37s15 16 -6 10s-11 12 -35 23s-100 33 -115 37z" glyph-name="greater" horiz-adv-x="516" unicode="&gt;"/><glyph d="M463 157c0 1 -1 5 1 18s-8 14 -10 6s4 -25 1 -36s-43 -28 -72 -28c-42 0 -158 6 -158 136c0 226 168 262 207 262s60 -26 58 -39s-4 -26 4 -26s8 9 11 30s12 27 26 26s-2 -33 12 -36s10 37 21 36s15 -10 27 -15s10 11 39 8s10 -53 4 -80c-3 -10 -7 -31 -13 -57 c-1 -5 -6 -11 -7 -16c-2 -6 0 -12 -2 -18c-8 -34 -17 -68 -22 -87c-10 -40 -23 -94 4 -94c9 0 30 8 51 31c8 9 13 23 22 36c6 9 15 17 20 28c6 14 7 33 10 51c2 11 3 23 3 35c0 9 0 18 -1 28c-4 40 -15 82 -35 119c-7 13 -9 27 -19 38c-8 9 -23 16 -32 24 c-8 6 -17 15 -26 20c-13 7 -26 10 -41 15c-22 7 -48 10 -76 10c-59 0 -112 -14 -158 -39c-7 -4 -18 -6 -25 -11c-9 -6 -15 -14 -23 -21c-73 -58 -117 -145 -117 -236c0 -60 27 -110 66 -147c8 -8 15 -19 24 -25c14 -11 30 -16 46 -23c37 -18 78 -27 115 -27c15 0 37 3 50 5 c17 3 10 -19 15 -27c2 -3 12 -5 14 -8l6 -8l9 -13c3 -5 -20 -24 -16 -29s34 4 37 -1c2 -4 9 -12 -6 -15c-26 -12 -89 -21 -127 -21c-49 0 -101 10 -149 30c-18 8 -31 22 -47 32s-34 16 -48 28c-34 30 -62 68 -81 113c-8 19 -12 38 -16 59c-5 22 -10 48 -10 73 c0 60 15 121 43 176c8 15 20 25 30 40c7 11 11 27 19 37c9 11 19 23 29 33c23 24 49 46 78 65c11 7 22 17 34 23c9 5 18 8 27 12c58 27 123 42 191 42c125 0 213 -52 268 -127c11 -15 19 -34 27 -50c8 -15 15 -27 21 -44c14 -40 22 -83 21 -125c-2 -79 -24 -145 -54 -195 c-6 -10 -10 -26 -17 -35c-11 -15 -26 -21 -38 -32c-37 -33 -76 -51 -111 -53c-15 -1 -28 5 -40 8c-8 2 -16 0 -23 3c-54 21 -71 70 -71 108zM486 368c4 19 -1 31 -9 12s-11 6 -43 6s-92 -39 -92 -125c0 -42 11 -52 29 -52c50 0 56 41 76 41s9 -15 9 -25s7 -22 11 0 s15 124 19 143z" glyph-name="at" horiz-adv-x="944" unicode="@"/><glyph d="M96 137l42 238l18 109s7 20 40 15s26 16 -5 19s-62 -9 -60 9s19 42 21 65s39 0 45 21s-45 22 -37 36s0 27 12 35s33 8 56 7s84 -1 114 1s191 19 186 -5s-24 -27 -22 -43l2 -16s8 -2 7 -23s-43 -5 -43 -29s45 -29 28 -47s-54 -7 -87 -9s-99 6 -89 -6s15 -4 11 -26 s-33 -143 -43 -185s-36 -161 -40 -171s-3 -5 -14 -5s-32 -13 -4 -18s121 -1 145 -4s45 8 45 -16s-16 -30 -16 -53s-3 -36 -7 -38s-43 11 -37 -8s48 -4 39 -25s-78 -11 -95 -12s-64 3 -84 2s-119 -1 -133 -1s-44 -7 -56 3s-6 26 2 39s13 25 15 32s-8 18 0 34s39 -4 39 8 s-43 12 -33 40s33 -2 38 27z" glyph-name="bracketleft" horiz-adv-x="520" unicode="["/><glyph d="M181 517c-1 1 -39 -1 -31 27s14 25 15 40s16 16 16 25s39 -7 41 13s-47 3 -36 37s21 40 64 40s175 -9 192 -8s117 7 116 -10s-14 -21 -16 -37s-3 -30 -7 -41s-33 7 -38 -11s37 -18 34 -34s-8 -37 -12 -40s-31 -3 -54 -1s-29 2 -35 -24s8 -41 14 -5s46 13 39 -6 s-58 -204 -63 -222s-33 -119 -34 -126s1 -12 12 -14s16 -6 11 -28s-13 -34 -14 -44s-3 -26 -8 -31s-40 13 -44 0s44 -10 43 -24s-4 -42 -33 -42s-136 2 -157 2s-139 -5 -151 -3s-25 0 -18 28s7 25 10 41s44 -5 45 16s-39 15 -35 36s7 30 16 31s87 6 101 4s47 0 71 1 s51 15 6 19c-21 2 -10 20 -6 36s27 126 33 150s35 177 40 186s25 5 23 19s-88 3 -110 3s-39 -4 -40 -3z" glyph-name="bracketright" horiz-adv-x="520" unicode="]"/><glyph d="M97 436l-37 156l-12 54s-18 48 5 52s31 -13 42 -10s14 12 27 13s28 -56 48 -51s-16 49 7 50s43 5 53 -41s28 -137 28 -152s-3 -26 2 -36s10 -26 11 -34s29 -135 30 -152s-3 -35 0 -43s25 -137 30 -156s21 -86 -9 -84s-13 51 -28 49s-13 -49 -27 -50s-23 14 -35 10 s-23 -10 -34 -11s-17 32 -21 55s0 36 -6 49s-12 26 -12 36s-49 224 -53 243s-5 34 -9 53z" glyph-name="backslash" horiz-adv-x="364" unicode="\"/><glyph d="M82 534c-11 -5 -22 -9 -29 5s8 22 -1 23s-13 -6 -22 5s10 25 20 32s82 64 88 69l74 59c15 12 33 14 51 -7s39 -47 45 -50s31 -28 39 -37s40 -39 48 -50s13 -10 -8 -22s-18 -11 -24 -13s-11 28 -23 21s11 -20 0 -30s-17 -14 -27 -13s-6 -9 -29 14s-48 39 -56 46 s-15 10 -27 23s-32 17 -14 -4s3 -8 -11 -18s-63 -37 -70 -39s-13 -9 -24 -14z" glyph-name="asciicircum" horiz-adv-x="405" unicode="^"/><glyph d="M37 636c-17 11 -21 20 -8 33s23 10 28 19s8 16 13 22s26 -33 37 -23s-27 34 -14 47s39 -23 50 -37s41 -71 53 -74s29 -32 36 -41s11 -20 3 -27s-11 4 -16 -4s-11 -18 -16 -21s-9 -6 -25 5s-42 38 -54 43s-32 16 -41 24s-29 23 -46 34z" glyph-name="grave" horiz-adv-x="250" unicode="`"/><glyph d="M43 594c8 7 21 13 35 25l103 86s54 49 67 28s8 -18 14 -23s-30 -18 -19 -26s29 16 38 5s11 -24 18 -30s10 -9 15 -12s-6 -11 -24 -17s-83 -38 -93 -43s-57 -27 -68 -33s-37 -18 -49 -22s-25 -4 -29 5s5 19 -3 22s-4 -8 -16 8s3 20 11 27z" glyph-name="acute" horiz-adv-x="322" unicode="´"/><glyph d="M73 -123c-14 0 -32 0 -30 27s13 32 16 51s-8 22 -3 27s44 -14 45 4s-45 8 -39 27s14 22 43 21s178 0 200 -2s180 0 193 2s86 2 103 1s31 3 27 -17s-29 -27 -25 -39s18 6 17 -9s-9 -30 -9 -44s-41 -2 -39 -16s37 1 32 -18s-195 -16 -219 -13s-153 0 -169 2s-55 4 -76 2 s-53 -6 -67 -6z" glyph-name="underscore" horiz-adv-x="663" unicode="_"/><glyph d="M379 528c-22 -6 -52 -10 -66 -59s-23 -82 -50 -124s-41 -51 -58 -61s-12 -18 -6 -22s15 15 25 22s14 -13 25 -34s19 -95 10 -117s4 -34 21 -57s41 -19 48 -25s-4 -9 -9 -14s1 -18 0 -29s-48 -8 -48 -23s42 -7 40 -14s-10 -14 -13 -19s5 -17 8 -20s1 -38 -8 -38 c-74 0 -132 22 -180 99s-17 158 -30 187s-56 29 -58 35s4 22 5 35s33 8 36 26s-30 1 -30 17s7 22 14 31s-5 22 -5 24s-13 28 3 28c60 0 79 52 87 75s18 102 95 172s168 76 181 76s5 -13 0 -32s-12 -27 -15 -37s6 -21 1 -34s-29 2 -32 -15s27 -8 26 -26s5 -21 -17 -27z" glyph-name="braceleft" horiz-adv-x="452" unicode="{"/><glyph d="M131 556c0 14 13 21 13 35s-6 25 -3 34s38 -16 40 -2s-38 11 -34 34s1 42 26 38s100 -15 141 -71s43 -110 42 -173s34 -67 64 -74s1 -45 -3 -51s-15 3 -12 -15s-16 -20 -16 -20s-31 -2 -25 -9s46 3 44 -11s-7 -35 -9 -45s8 -15 -4 -17s-22 0 -42 -12s-31 -21 -48 -84 s-45 -113 -96 -152s-99 -60 -140 -65s-38 -9 -31 23s21 18 23 32s-15 12 -13 21s1 29 7 39s32 -6 37 10s-43 8 -35 21s21 14 42 25s32 28 54 94s26 78 45 104s21 25 26 19s15 -30 22 -25s4 17 -8 27s-19 8 -35 61s-14 81 -8 119s-30 56 -44 61s-27 8 -25 15s5 0 5 14z" glyph-name="braceright" horiz-adv-x="456" unicode="}"/><glyph d="M143 89c-2 -7 -6 -16 -8 -18s-6 -12 -8 -19s-19 -40 -24 -43s-5 -7 -8 -7s-8 -6 -10 -4s10 29 4 29s-16 -17 -21 -18s-8 -5 -14 -7s-12 -3 -16 -1s1 15 -3 16s-1 8 -10 8s-4 -5 -13 -10s1 -10 -9 -12s-10 -6 -21 -4s-33 9 -13 53s63 132 68 138s14 14 12 21s1 13 2 16 s80 150 87 162s57 94 61 99s10 25 12 29l72 119s38 62 49 62s3 -30 17 -30s13 31 20 31s8 -8 16 -6s10 4 16 6s0 -30 16 -30s5 29 13 31s9 -1 19 1s15 6 22 3s15 -134 14 -156s5 -144 3 -147s-3 -13 -3 -19s6 -21 5 -24s3 -335 0 -341s0 -17 -6 -17s-15 -1 -19 1s-4 9 -8 9 s-11 -3 -14 -5s-10 -6 -13 -6s-6 32 -16 32s-5 -26 -10 -27s0 -3 -10 -4s-6 17 -12 17s-23 -21 -33 -19s-15 4 -15 14s0 68 -2 70s0 2 1 12v16c-6 0 -14 1 -27 1c-16 0 -13 -1 -33 0s-15 -1 -30 -2s-14 -5 -28 0s-7 6 -19 5s-12 -1 -19 -3c-5 -2 -14 -2 -22 -1 c-4 -8 -10 -15 -12 -21zM272 836c-17 11 -21 20 -8 33s23 10 28 19s8 16 13 22s26 -33 37 -23s-27 34 -14 47s39 -23 50 -37s41 -71 53 -74s29 -32 36 -41s11 -20 3 -27s-11 4 -16 -4s-11 -18 -16 -21s-9 -6 -25 5s-42 38 -54 43s-32 16 -41 24s-29 23 -46 34zM225 236h3 c9 -1 26 1 35 1s38 0 48 -2s5 -11 2 -19s-17 -5 -22 -9s4 -5 13 -9s15 10 19 14s-2 44 -1 51s5 96 7 114s3 53 -2 55s-17 -26 -25 -48s-51 -91 -61 -111s-25 -34 -16 -37zM300 155c0 -12 33 -13 33 -1s-33 13 -33 1z" glyph-name="Agrave" horiz-adv-x="567" unicode="À"/><glyph d="M143 89c-2 -7 -6 -16 -8 -18s-6 -12 -8 -19s-19 -40 -24 -43s-5 -7 -8 -7s-8 -6 -10 -4s10 29 4 29s-16 -17 -21 -18s-8 -5 -14 -7s-12 -3 -16 -1s1 15 -3 16s-1 8 -10 8s-4 -5 -13 -10s1 -10 -9 -12s-10 -6 -21 -4s-33 9 -13 53s63 132 68 138s14 14 12 21s1 13 2 16 s80 150 87 162s57 94 61 99s10 25 12 29l72 119s38 62 49 62s3 -30 17 -30s13 31 20 31s8 -8 16 -6s10 4 16 6s0 -30 16 -30s5 29 13 31s9 -1 19 1s15 6 22 3s15 -134 14 -156s5 -144 3 -147s-3 -13 -3 -19s6 -21 5 -24s3 -335 0 -341s0 -17 -6 -17s-15 -1 -19 1s-4 9 -8 9 s-11 -3 -14 -5s-10 -6 -13 -6s-6 32 -16 32s-5 -26 -10 -27s0 -3 -10 -4s-6 17 -12 17s-23 -21 -33 -19s-15 4 -15 14s0 68 -2 70s0 2 1 12v16c-6 0 -14 1 -27 1c-16 0 -13 -1 -33 0s-15 -1 -30 -2s-14 -5 -28 0s-7 6 -19 5s-12 -1 -19 -3c-5 -2 -14 -2 -22 -1 c-4 -8 -10 -15 -12 -21zM296 794c8 7 21 13 35 25l103 86s54 49 67 28s8 -18 14 -23s-30 -18 -19 -26s29 16 38 5s11 -24 18 -30s10 -9 15 -12s-6 -11 -24 -17s-83 -38 -93 -43s-57 -27 -68 -33s-37 -18 -49 -22s-25 -4 -29 5s5 19 -3 22s-4 -8 -16 8s3 20 11 27zM225 236h3 c9 -1 26 1 35 1s38 0 48 -2s5 -11 2 -19s-17 -5 -22 -9s4 -5 13 -9s15 10 19 14s-2 44 -1 51s5 96 7 114s3 53 -2 55s-17 -26 -25 -48s-51 -91 -61 -111s-25 -34 -16 -37zM300 155c0 -12 33 -13 33 -1s-33 13 -33 1z" glyph-name="Aacute" horiz-adv-x="567" unicode="Á"/><glyph d="M82 534c-11 -5 -22 -9 -29 5s8 22 -1 23s-13 -6 -22 5s10 25 20 32s82 64 88 69l74 59c15 12 33 14 51 -7s39 -47 45 -50s31 -28 39 -37s40 -39 48 -50s13 -10 -8 -22s-18 -11 -24 -13s-11 28 -23 21s11 -20 0 -30s-17 -14 -27 -13s-6 -9 -29 14s-48 39 -56 46 s-15 10 -27 23s-32 17 -14 -4s3 -8 -11 -18s-63 -37 -70 -39s-13 -9 -24 -14z" glyph-name="circumflex" horiz-adv-x="405" unicode="ˆ"/><glyph d="M143 89c-2 -7 -6 -16 -8 -18s-6 -12 -8 -19s-19 -40 -24 -43s-5 -7 -8 -7s-8 -6 -10 -4s10 29 4 29s-16 -17 -21 -18s-8 -5 -14 -7s-12 -3 -16 -1s1 15 -3 16s-1 8 -10 8s-4 -5 -13 -10s1 -10 -9 -12s-10 -6 -21 -4s-33 9 -13 53s63 132 68 138s14 14 12 21s1 13 2 16 s80 150 87 162s57 94 61 99s10 25 12 29l72 119s38 62 49 62s3 -30 17 -30s13 31 20 31s8 -8 16 -6s10 4 16 6s0 -30 16 -30s5 29 13 31s9 -1 19 1s15 6 22 3s15 -134 14 -156s5 -144 3 -147s-3 -13 -3 -19s6 -21 5 -24s3 -335 0 -341s0 -17 -6 -17s-15 -1 -19 1s-4 9 -8 9 s-11 -3 -14 -5s-10 -6 -13 -6s-6 32 -16 32s-5 -26 -10 -27s0 -3 -10 -4s-6 17 -12 17s-23 -21 -33 -19s-15 4 -15 14s0 68 -2 70s0 2 1 12v16c-6 0 -14 1 -27 1c-16 0 -13 -1 -33 0s-15 -1 -30 -2s-14 -5 -28 0s-7 6 -19 5s-12 -1 -19 -3c-5 -2 -14 -2 -22 -1 c-4 -8 -10 -15 -12 -21zM264 734c-11 -5 -22 -9 -29 5s8 22 -1 23s-13 -6 -22 5s10 25 20 32s82 64 88 69l74 59c15 12 33 14 51 -7s39 -47 45 -50s31 -28 39 -37s40 -39 48 -50s13 -10 -8 -22s-18 -11 -24 -13s-11 28 -23 21s11 -20 0 -30s-17 -14 -27 -13s-6 -9 -29 14 s-48 39 -56 46s-15 10 -27 23s-32 17 -14 -4s3 -8 -11 -18s-63 -37 -70 -39s-13 -9 -24 -14zM225 236h3c9 -1 26 1 35 1s38 0 48 -2s5 -11 2 -19s-17 -5 -22 -9s4 -5 13 -9s15 10 19 14s-2 44 -1 51s5 96 7 114s3 53 -2 55s-17 -26 -25 -48s-51 -91 -61 -111 s-25 -34 -16 -37zM300 155c0 -12 33 -13 33 -1s-33 13 -33 1z" glyph-name="Acircumflex" horiz-adv-x="567" unicode="Â"/><glyph d="M93 520c-14 3 -16 14 -14 25s10 25 14 30s1 12 2 19s-2 9 -7 15s0 14 1 19s15 6 17 7s9 5 7 11s-20 0 -20 8s3 16 7 18s44 10 62 13s26 4 39 10s64 2 84 3s143 1 166 2s28 -9 30 -18s-3 -9 -7 -12s-5 0 -8 -3s4 -10 3 -13s-7 -4 -14 -1s-14 -7 -10 -15s30 -6 30 -17 s-12 -18 -17 -23s-9 -17 -9 -17l7 -13c2 -3 3 -20 1 -32s-17 -18 -22 -17s-48 1 -58 1s-84 2 -93 2s-5 -9 -1 -15s10 -11 11 -15s-3 -11 -6 -21s-10 -38 -13 -45s-1 -18 3 -28s89 -4 95 -3s16 -8 17 -14s-16 -11 -17 -16s10 -4 13 -15s-8 -30 -8 -32s-8 -20 -7 -28 s-12 -16 -24 -15s-28 -5 -37 -8s-60 -2 -65 -1s-4 9 -2 12s-3 11 -9 9s-14 -36 -14 -44s-16 -54 -18 -75s76 -10 81 -12s22 -2 33 -1s22 -2 29 -1s-1 0 12 0s19 -6 20 -13s0 -11 -2 -17s-2 -2 -5 -8s-3 -2 -10 -4s-5 -5 -8 -10s0 -4 4 -11s1 -4 2 -8s2 -12 1 -18 s0 -7 -6 -10s-4 5 -10 3s-5 -5 -6 -13s9 -4 14 -4s5 -10 5 -23s-12 -11 -19 -13s-47 -1 -63 -3s-77 3 -83 1s-5 10 -13 15s-13 -6 -20 -12s-23 -1 -36 -1s-64 -3 -80 -2s-17 19 -18 27s4 32 8 41s4 70 6 84s11 47 17 56s4 23 1 33s17 111 20 121s14 58 16 70s4 12 11 15 s0 36 6 47s10 4 22 3s19 6 23 7s0 -28 3 -38s4 -3 11 -2s3 46 1 51s-11 1 -22 0s-40 -1 -54 2zM178 836c-17 11 -21 20 -8 33s23 10 28 19s8 16 13 22s26 -33 37 -23s-27 34 -14 47s39 -23 50 -37s41 -71 53 -74s29 -32 36 -41s11 -20 3 -27s-11 4 -16 -4s-11 -18 -16 -21 s-9 -6 -25 5s-42 38 -54 43s-32 16 -41 24s-29 23 -46 34z" glyph-name="Egrave" horiz-adv-x="504" unicode="È"/><glyph d="M93 520c-14 3 -16 14 -14 25s10 25 14 30s1 12 2 19s-2 9 -7 15s0 14 1 19s15 6 17 7s9 5 7 11s-20 0 -20 8s3 16 7 18s44 10 62 13s26 4 39 10s64 2 84 3s143 1 166 2s28 -9 30 -18s-3 -9 -7 -12s-5 0 -8 -3s4 -10 3 -13s-7 -4 -14 -1s-14 -7 -10 -15s30 -6 30 -17 s-12 -18 -17 -23s-9 -17 -9 -17l7 -13c2 -3 3 -20 1 -32s-17 -18 -22 -17s-48 1 -58 1s-84 2 -93 2s-5 -9 -1 -15s10 -11 11 -15s-3 -11 -6 -21s-10 -38 -13 -45s-1 -18 3 -28s89 -4 95 -3s16 -8 17 -14s-16 -11 -17 -16s10 -4 13 -15s-8 -30 -8 -32s-8 -20 -7 -28 s-12 -16 -24 -15s-28 -5 -37 -8s-60 -2 -65 -1s-4 9 -2 12s-3 11 -9 9s-14 -36 -14 -44s-16 -54 -18 -75s76 -10 81 -12s22 -2 33 -1s22 -2 29 -1s-1 0 12 0s19 -6 20 -13s0 -11 -2 -17s-2 -2 -5 -8s-3 -2 -10 -4s-5 -5 -8 -10s0 -4 4 -11s1 -4 2 -8s2 -12 1 -18 s0 -7 -6 -10s-4 5 -10 3s-5 -5 -6 -13s9 -4 14 -4s5 -10 5 -23s-12 -11 -19 -13s-47 -1 -63 -3s-77 3 -83 1s-5 10 -13 15s-13 -6 -20 -12s-23 -1 -36 -1s-64 -3 -80 -2s-17 19 -18 27s4 32 8 41s4 70 6 84s11 47 17 56s4 23 1 33s17 111 20 121s14 58 16 70s4 12 11 15 s0 36 6 47s10 4 22 3s19 6 23 7s0 -28 3 -38s4 -3 11 -2s3 46 1 51s-11 1 -22 0s-40 -1 -54 2zM158 794c8 7 21 13 35 25l103 86s54 49 67 28s8 -18 14 -23s-30 -18 -19 -26s29 16 38 5s11 -24 18 -30s10 -9 15 -12s-6 -11 -24 -17s-83 -38 -93 -43s-57 -27 -68 -33 s-37 -18 -49 -22s-25 -4 -29 5s5 19 -3 22s-4 -8 -16 8s3 20 11 27z" glyph-name="Eacute" horiz-adv-x="504" unicode="É"/><glyph d="M93 520c-14 3 -16 14 -14 25s10 25 14 30s1 12 2 19s-2 9 -7 15s0 14 1 19s15 6 17 7s9 5 7 11s-20 0 -20 8s3 16 7 18s44 10 62 13s26 4 39 10s64 2 84 3s143 1 166 2s28 -9 30 -18s-3 -9 -7 -12s-5 0 -8 -3s4 -10 3 -13s-7 -4 -14 -1s-14 -7 -10 -15s30 -6 30 -17 s-12 -18 -17 -23s-9 -17 -9 -17l7 -13c2 -3 3 -20 1 -32s-17 -18 -22 -17s-48 1 -58 1s-84 2 -93 2s-5 -9 -1 -15s10 -11 11 -15s-3 -11 -6 -21s-10 -38 -13 -45s-1 -18 3 -28s89 -4 95 -3s16 -8 17 -14s-16 -11 -17 -16s10 -4 13 -15s-8 -30 -8 -32s-8 -20 -7 -28 s-12 -16 -24 -15s-28 -5 -37 -8s-60 -2 -65 -1s-4 9 -2 12s-3 11 -9 9s-14 -36 -14 -44s-16 -54 -18 -75s76 -10 81 -12s22 -2 33 -1s22 -2 29 -1s-1 0 12 0s19 -6 20 -13s0 -11 -2 -17s-2 -2 -5 -8s-3 -2 -10 -4s-5 -5 -8 -10s0 -4 4 -11s1 -4 2 -8s2 -12 1 -18 s0 -7 -6 -10s-4 5 -10 3s-5 -5 -6 -13s9 -4 14 -4s5 -10 5 -23s-12 -11 -19 -13s-47 -1 -63 -3s-77 3 -83 1s-5 10 -13 15s-13 -6 -20 -12s-23 -1 -36 -1s-64 -3 -80 -2s-17 19 -18 27s4 32 8 41s4 70 6 84s11 47 17 56s4 23 1 33s17 111 20 121s14 58 16 70s4 12 11 15 s0 36 6 47s10 4 22 3s19 6 23 7s0 -28 3 -38s4 -3 11 -2s3 46 1 51s-11 1 -22 0s-40 -1 -54 2zM169 734c-11 -5 -22 -9 -29 5s8 22 -1 23s-13 -6 -22 5s10 25 20 32s82 64 88 69l74 59c15 12 33 14 51 -7s39 -47 45 -50s31 -28 39 -37s40 -39 48 -50s13 -10 -8 -22 s-18 -11 -24 -13s-11 28 -23 21s11 -20 0 -30s-17 -14 -27 -13s-6 -9 -29 14s-48 39 -56 46s-15 10 -27 23s-32 17 -14 -4s3 -8 -11 -18s-63 -37 -70 -39s-13 -9 -24 -14z" glyph-name="Ecircumflex" horiz-adv-x="504" unicode="Ê"/><glyph d="M33 5c-11 6 14 90 14 116s6 66 9 86s9 112 12 128s6 42 8 57s14 42 14 54s0 33 3 45s12 48 12 67s6 37 8 59s13 62 14 67s31 -12 39 -11s6 14 11 18s19 -1 31 -1s10 -7 23 -8s27 18 32 22s15 -4 19 -8s0 -50 10 -48s24 49 31 51s14 -9 20 -16s-7 -36 -7 -44 s-17 -38 -20 -50s-17 -51 -18 -61s-20 -65 -22 -83s-39 -148 -39 -148l-11 -20c-4 -7 3 -20 0 -39s-30 -150 -30 -163s-8 -50 -12 -58s-18 -9 -29 -5s7 18 1 21s0 18 -8 18s3 -9 -8 -13s-18 -33 -28 -33s-8 3 -16 6s-12 14 -18 14s-20 -5 -21 -13s-13 -13 -24 -7zM105 836 c-17 11 -21 20 -8 33s23 10 28 19s8 16 13 22s26 -33 37 -23s-27 34 -14 47s39 -23 50 -37s41 -71 53 -74s29 -32 36 -41s11 -20 3 -27s-11 4 -16 -4s-11 -18 -16 -21s-9 -6 -25 5s-42 38 -54 43s-32 16 -41 24s-29 23 -46 34z" glyph-name="Igrave" horiz-adv-x="345" unicode="Ì"/><glyph d="M33 5c-11 6 14 90 14 116s6 66 9 86s9 112 12 128s6 42 8 57s14 42 14 54s0 33 3 45s12 48 12 67s6 37 8 59s13 62 14 67s31 -12 39 -11s6 14 11 18s19 -1 31 -1s10 -7 23 -8s27 18 32 22s15 -4 19 -8s0 -50 10 -48s24 49 31 51s14 -9 20 -16s-7 -36 -7 -44 s-17 -38 -20 -50s-17 -51 -18 -61s-20 -65 -22 -83s-39 -148 -39 -148l-11 -20c-4 -7 3 -20 0 -39s-30 -150 -30 -163s-8 -50 -12 -58s-18 -9 -29 -5s7 18 1 21s0 18 -8 18s3 -9 -8 -13s-18 -33 -28 -33s-8 3 -16 6s-12 14 -18 14s-20 -5 -21 -13s-13 -13 -24 -7zM130 794 c8 7 21 13 35 25l103 86s54 49 67 28s8 -18 14 -23s-30 -18 -19 -26s29 16 38 5s11 -24 18 -30s10 -9 15 -12s-6 -11 -24 -17s-83 -38 -93 -43s-57 -27 -68 -33s-37 -18 -49 -22s-25 -4 -29 5s5 19 -3 22s-4 -8 -16 8s3 20 11 27z" glyph-name="Iacute" horiz-adv-x="345" unicode="Í"/><glyph d="M33 5c-11 6 14 90 14 116s6 66 9 86s9 112 12 128s6 42 8 57s14 42 14 54s0 33 3 45s12 48 12 67s6 37 8 59s13 62 14 67s31 -12 39 -11s6 14 11 18s19 -1 31 -1s10 -7 23 -8s27 18 32 22s15 -4 19 -8s0 -50 10 -48s24 49 31 51s14 -9 20 -16s-7 -36 -7 -44 s-17 -38 -20 -50s-17 -51 -18 -61s-20 -65 -22 -83s-39 -148 -39 -148l-11 -20c-4 -7 3 -20 0 -39s-30 -150 -30 -163s-8 -50 -12 -58s-18 -9 -29 -5s7 18 1 21s0 18 -8 18s3 -9 -8 -13s-18 -33 -28 -33s-8 3 -16 6s-12 14 -18 14s-20 -5 -21 -13s-13 -13 -24 -7zM131 734 c-11 -5 -22 -9 -29 5s8 22 -1 23s-13 -6 -22 5s10 25 20 32s82 64 88 69l74 59c15 12 33 14 51 -7s39 -47 45 -50s31 -28 39 -37s40 -39 48 -50s13 -10 -8 -22s-18 -11 -24 -13s-11 28 -23 21s11 -20 0 -30s-17 -14 -27 -13s-6 -9 -29 14s-48 39 -56 46s-15 10 -27 23 s-32 17 -14 -4s3 -8 -11 -18s-63 -37 -70 -39s-13 -9 -24 -14z" glyph-name="Icircumflex" horiz-adv-x="345" unicode="Î"/><glyph d="M332 483c-49 -19 -99 -77 -104 -87s0 -13 -2 -20s-13 -13 -25 -43s-42 -170 53 -170s125 85 132 91s15 11 12 16s2 17 21 72s11 111 3 134s-42 46 -52 49s-11 17 -19 14s1 -20 6 -33s1 -13 -25 -23zM225 637c33 16 42 22 50 17s13 -13 18 -18s15 -5 15 7s-5 12 -4 22 s-1 17 15 22s55 14 86 12s118 -19 149 -68s18 -41 22 -44s9 -5 12 -10s25 -54 29 -78s7 -110 -13 -166c-6 -17 -16 -42 -30 -72c-5 -11 -17 -22 -23 -34c-5 -9 -4 -18 -10 -28c-33 -55 -79 -112 -137 -149c-81 -51 -135 -50 -168 -50c-21 0 -102 8 -156 80c-4 5 -3 12 -6 18 c-4 7 -13 12 -17 20c-17 36 -27 82 -27 142c0 59 12 106 26 143c3 8 10 10 13 17c1 3 0 12 1 15c19 39 38 63 40 74c3 23 1 29 12 43s70 69 103 85zM327 557c3 -10 36 4 32 13s-35 -3 -32 -13zM296 836c-17 11 -21 20 -8 33s23 10 28 19s8 16 13 22s26 -33 37 -23 s-27 34 -14 47s39 -23 50 -37s41 -71 53 -74s29 -32 36 -41s11 -20 3 -27s-11 4 -16 -4s-11 -18 -16 -21s-9 -6 -25 5s-42 38 -54 43s-32 16 -41 24s-29 23 -46 34z" glyph-name="Ograve" horiz-adv-x="648" unicode="Ò"/><glyph d="M332 483c-49 -19 -99 -77 -104 -87s0 -13 -2 -20s-13 -13 -25 -43s-42 -170 53 -170s125 85 132 91s15 11 12 16s2 17 21 72s11 111 3 134s-42 46 -52 49s-11 17 -19 14s1 -20 6 -33s1 -13 -25 -23zM225 637c33 16 42 22 50 17s13 -13 18 -18s15 -5 15 7s-5 12 -4 22 s-1 17 15 22s55 14 86 12s118 -19 149 -68s18 -41 22 -44s9 -5 12 -10s25 -54 29 -78s7 -110 -13 -166c-6 -17 -16 -42 -30 -72c-5 -11 -17 -22 -23 -34c-5 -9 -4 -18 -10 -28c-33 -55 -79 -112 -137 -149c-81 -51 -135 -50 -168 -50c-21 0 -102 8 -156 80c-4 5 -3 12 -6 18 c-4 7 -13 12 -17 20c-17 36 -27 82 -27 142c0 59 12 106 26 143c3 8 10 10 13 17c1 3 0 12 1 15c19 39 38 63 40 74c3 23 1 29 12 43s70 69 103 85zM327 557c3 -10 36 4 32 13s-35 -3 -32 -13zM287 794c8 7 21 13 35 25l103 86s54 49 67 28s8 -18 14 -23s-30 -18 -19 -26 s29 16 38 5s11 -24 18 -30s10 -9 15 -12s-6 -11 -24 -17s-83 -38 -93 -43s-57 -27 -68 -33s-37 -18 -49 -22s-25 -4 -29 5s5 19 -3 22s-4 -8 -16 8s3 20 11 27z" glyph-name="Oacute" horiz-adv-x="648" unicode="Ó"/><glyph d="M225 637c33 16 42 22 50 17s13 -13 18 -18s15 -5 15 7s-5 12 -4 22s-1 17 15 22s55 14 86 12s118 -19 149 -68s18 -41 22 -44s9 -5 12 -10s25 -54 29 -78s7 -110 -13 -166c-6 -17 -16 -42 -30 -72c-5 -11 -17 -22 -23 -34c-5 -9 -4 -18 -10 -28 c-33 -55 -79 -112 -137 -149c-81 -51 -135 -50 -168 -50c-21 0 -102 8 -156 80c-4 5 -3 12 -6 18c-4 7 -13 12 -17 20c-17 36 -27 82 -27 142c0 59 12 106 26 143c3 8 10 10 13 17c1 3 0 12 1 15c19 39 38 63 40 74c3 23 1 29 12 43s70 69 103 85zM332 483 c-49 -19 -99 -77 -104 -87s0 -13 -2 -20s-13 -13 -25 -43s-42 -170 53 -170s125 85 132 91s15 11 12 16s2 17 21 72s11 111 3 134s-42 46 -52 49s-11 17 -19 14s1 -20 6 -33s1 -13 -25 -23zM292 734c-11 -5 -22 -9 -29 5s8 22 -1 23s-13 -6 -22 5s10 25 20 32s82 64 88 69 l74 59c15 12 33 14 51 -7s39 -47 45 -50s31 -28 39 -37s40 -39 48 -50s13 -10 -8 -22s-18 -11 -24 -13s-11 28 -23 21s11 -20 0 -30s-17 -14 -27 -13s-6 -9 -29 14s-48 39 -56 46s-15 10 -27 23s-32 17 -14 -4s3 -8 -11 -18s-63 -37 -70 -39s-13 -9 -24 -14zM327 557 c3 -10 36 4 32 13s-35 -3 -32 -13z" glyph-name="Ocircumflex" horiz-adv-x="648" unicode="Ô"/><glyph d="M174 0c-77 0 -108 70 -117 91s-1 44 -8 60s3 82 6 99s22 146 22 158s10 25 13 35s-2 31 3 45s36 152 40 163s5 27 15 35s14 1 18 -1s-5 -27 -3 -33s6 7 12 14s0 12 11 15s3 -5 11 -8s2 5 14 15s19 7 29 6s11 1 18 -2s-6 -37 -3 -45s8 12 13 21s20 29 27 30s10 1 24 -3 s6 -11 3 -20s-15 -40 -18 -56s5 -18 11 -29s-8 -22 -10 -30s-12 -56 -17 -67s-3 -18 -10 -29s-14 -51 -19 -61s6 -15 6 -26s-7 -10 -20 -24s-4 -13 -5 -30s-5 -23 -6 -36s-9 -40 -14 -64s-5 -75 25 -75s55 27 62 37s15 16 21 18s7 -7 13 -8s4 30 4 38s10 66 14 75 s35 176 35 189s13 32 14 38s3 34 6 47s19 57 17 69s19 27 23 37s17 6 27 8s10 -5 29 -9s14 2 20 7s26 -1 36 -2s11 -6 11 -17s-1 -25 2 -28s12 11 16 20s14 24 26 27s15 -2 16 -10s-3 -16 -9 -32s-20 -60 -22 -75s-23 -80 -26 -94s-36 -120 -40 -136s-14 -77 -18 -90 s-12 -34 -15 -48s-5 -65 -17 -79s-16 -49 -18 -67s-7 -55 -13 -59s-23 1 -31 4s12 37 -1 41s-23 -42 -31 -40s-5 26 -12 23s-6 -14 -15 -19s-27 -4 -43 -2s5 59 -2 60s1 4 -10 -19s-74 -52 -140 -52zM334 121c-2 5 -26 0 -23 -10s25 5 23 10zM295 836c-17 11 -21 20 -8 33 s23 10 28 19s8 16 13 22s26 -33 37 -23s-27 34 -14 47s39 -23 50 -37s41 -71 53 -74s29 -32 36 -41s11 -20 3 -27s-11 4 -16 -4s-11 -18 -16 -21s-9 -6 -25 5s-42 38 -54 43s-32 16 -41 24s-29 23 -46 34z" glyph-name="Ugrave" horiz-adv-x="624" unicode="Ù"/><glyph d="M174 0c-77 0 -108 70 -117 91s-1 44 -8 60s3 82 6 99s22 146 22 158s10 25 13 35s-2 31 3 45s36 152 40 163s5 27 15 35s14 1 18 -1s-5 -27 -3 -33s6 7 12 14s0 12 11 15s3 -5 11 -8s2 5 14 15s19 7 29 6s11 1 18 -2s-6 -37 -3 -45s8 12 13 21s20 29 27 30s10 1 24 -3 s6 -11 3 -20s-15 -40 -18 -56s5 -18 11 -29s-8 -22 -10 -30s-12 -56 -17 -67s-3 -18 -10 -29s-14 -51 -19 -61s6 -15 6 -26s-7 -10 -20 -24s-4 -13 -5 -30s-5 -23 -6 -36s-9 -40 -14 -64s-5 -75 25 -75s55 27 62 37s15 16 21 18s7 -7 13 -8s4 30 4 38s10 66 14 75 s35 176 35 189s13 32 14 38s3 34 6 47s19 57 17 69s19 27 23 37s17 6 27 8s10 -5 29 -9s14 2 20 7s26 -1 36 -2s11 -6 11 -17s-1 -25 2 -28s12 11 16 20s14 24 26 27s15 -2 16 -10s-3 -16 -9 -32s-20 -60 -22 -75s-23 -80 -26 -94s-36 -120 -40 -136s-14 -77 -18 -90 s-12 -34 -15 -48s-5 -65 -17 -79s-16 -49 -18 -67s-7 -55 -13 -59s-23 1 -31 4s12 37 -1 41s-23 -42 -31 -40s-5 26 -12 23s-6 -14 -15 -19s-27 -4 -43 -2s5 59 -2 60s1 4 -10 -19s-74 -52 -140 -52zM334 121c-2 5 -26 0 -23 -10s25 5 23 10zM287 794c8 7 21 13 35 25 l103 86s54 49 67 28s8 -18 14 -23s-30 -18 -19 -26s29 16 38 5s11 -24 18 -30s10 -9 15 -12s-6 -11 -24 -17s-83 -38 -93 -43s-57 -27 -68 -33s-37 -18 -49 -22s-25 -4 -29 5s5 19 -3 22s-4 -8 -16 8s3 20 11 27z" glyph-name="Uacute" horiz-adv-x="624" unicode="Ú"/><glyph d="M174 0c-77 0 -108 70 -117 91s-1 44 -8 60s3 82 6 99s22 146 22 158s10 25 13 35s-2 31 3 45s36 152 40 163s5 27 15 35s14 1 18 -1s-5 -27 -3 -33s6 7 12 14s0 12 11 15s3 -5 11 -8s2 5 14 15s19 7 29 6s11 1 18 -2s-6 -37 -3 -45s8 12 13 21s20 29 27 30s10 1 24 -3 s6 -11 3 -20s-15 -40 -18 -56s5 -18 11 -29s-8 -22 -10 -30s-12 -56 -17 -67s-3 -18 -10 -29s-14 -51 -19 -61s6 -15 6 -26s-7 -10 -20 -24s-4 -13 -5 -30s-5 -23 -6 -36s-9 -40 -14 -64s-5 -75 25 -75s55 27 62 37s15 16 21 18s7 -7 13 -8s4 30 4 38s10 66 14 75 s35 176 35 189s13 32 14 38s3 34 6 47s19 57 17 69s19 27 23 37s17 6 27 8s10 -5 29 -9s14 2 20 7s26 -1 36 -2s11 -6 11 -17s-1 -25 2 -28s12 11 16 20s14 24 26 27s15 -2 16 -10s-3 -16 -9 -32s-20 -60 -22 -75s-23 -80 -26 -94s-36 -120 -40 -136s-14 -77 -18 -90 s-12 -34 -15 -48s-5 -65 -17 -79s-16 -49 -18 -67s-7 -55 -13 -59s-23 1 -31 4s12 37 -1 41s-23 -42 -31 -40s-5 26 -12 23s-6 -14 -15 -19s-27 -4 -43 -2s5 59 -2 60s1 4 -10 -19s-74 -52 -140 -52zM276 734c-11 -5 -22 -9 -29 5s8 22 -1 23s-13 -6 -22 5s10 25 20 32 s82 64 88 69l74 59c15 12 33 14 51 -7s39 -47 45 -50s31 -28 39 -37s40 -39 48 -50s13 -10 -8 -22s-18 -11 -24 -13s-11 28 -23 21s11 -20 0 -30s-17 -14 -27 -13s-6 -9 -29 14s-48 39 -56 46s-15 10 -27 23s-32 17 -14 -4s3 -8 -11 -18s-63 -37 -70 -39s-13 -9 -24 -14z M334 121c-2 5 -26 0 -23 -10s25 5 23 10z" glyph-name="Ucircumflex" horiz-adv-x="624" unicode="Û"/><glyph d="M427 529c-24 0 -46 -5 -66 -14c-8 -3 -16 -7 -23 -11l-10 -6c-5 -3 -14 -5 -18 -9c-5 -4 -6 -9 -10 -13c-70 -62 -109 -164 -109 -216c0 -15 3 -30 8 -42c2 -4 8 -8 6 -12c-10 -21 2 -12 7 -11c6 1 7 -9 11 -13c25 -26 57 -38 73 -38c28 0 69 23 76 26s23 2 27 -4 s1 -9 3 -14s3 -8 1 -13s-11 -4 -14 -6s-8 -12 -5 -18s27 11 27 8s0 -18 -1 -25s3 -10 7 -14s7 -9 9 -18s-31 -68 -155 -68c-145 0 -210 90 -234 178c-12 45 -14 89 -9 121c2 13 4 26 7 39c1 3 5 5 6 9c1 3 -2 7 -1 10l6 22c11 34 26 68 43 102c7 14 15 27 23 40 c7 10 17 13 24 23c3 4 3 15 6 19l7 9l5 6l14 16c76 79 205 111 253 111s108 -33 108 -40s3 -20 3 -28s-7 -17 -9 -25s-5 -8 -11 -10s-5 2 -10 3s-9 1 -13 -5s15 -19 19 -21s-2 -12 -8 -24s-5 -12 -5 -21s-2 -24 -9 -26s-17 23 -59 23zM233 794c8 7 21 13 35 25l103 86 s54 49 67 28s8 -18 14 -23s-30 -18 -19 -26s29 16 38 5s11 -24 18 -30s10 -9 15 -12s-6 -11 -24 -17s-83 -38 -93 -43s-57 -27 -68 -33s-37 -18 -49 -22s-25 -4 -29 5s5 19 -3 22s-4 -8 -16 8s3 20 11 27z" glyph-name="Cacute" horiz-adv-x="522" unicode="Ć"/><glyph d="M427 529c-24 0 -46 -5 -66 -14c-8 -3 -16 -7 -23 -11l-10 -6c-5 -3 -14 -5 -18 -9c-5 -4 -6 -9 -10 -13c-70 -62 -109 -164 -109 -216c0 -15 3 -30 8 -42c2 -4 8 -8 6 -12c-10 -21 2 -12 7 -11c6 1 7 -9 11 -13c25 -26 57 -38 73 -38c28 0 69 23 76 26s23 2 27 -4 s1 -9 3 -14s3 -8 1 -13s-11 -4 -14 -6s-8 -12 -5 -18s27 11 27 8s0 -18 -1 -25s3 -10 7 -14s7 -9 9 -18s-31 -68 -155 -68c-145 0 -210 90 -234 178c-12 45 -14 89 -9 121c2 13 4 26 7 39c1 3 5 5 6 9c1 3 -2 7 -1 10l6 22c11 34 26 68 43 102c7 14 15 27 23 40 c7 10 17 13 24 23c3 4 3 15 6 19l7 9l5 6l14 16c76 79 205 111 253 111s108 -33 108 -40s3 -20 3 -28s-7 -17 -9 -25s-5 -8 -11 -10s-5 2 -10 3s-9 1 -13 -5s15 -19 19 -21s-2 -12 -8 -24s-5 -12 -5 -21s-2 -24 -9 -26s-17 23 -59 23zM297 734c-11 -5 -22 -9 -29 5 s8 22 -1 23s-13 -6 -22 5s10 25 20 32s82 64 88 69l74 59c15 12 33 14 51 -7s39 -47 45 -50s31 -28 39 -37s40 -39 48 -50s13 -10 -8 -22s-18 -11 -24 -13s-11 28 -23 21s11 -20 0 -30s-17 -14 -27 -13s-6 -9 -29 14s-48 39 -56 46s-15 10 -27 23s-32 17 -14 -4 s3 -8 -11 -18s-63 -37 -70 -39s-13 -9 -24 -14z" glyph-name="Ccircumflex" horiz-adv-x="522" unicode="Ĉ"/><glyph d="M121 649c12 38 19 48 41 47s32 -9 45 -7s17 7 23 2s17 -13 27 -6s-10 -45 9 -46s8 64 27 61s39 -4 28 -44s-32 -98 -28 -112s-1 -40 -6 -60s-73 -281 -89 -384s-30 -189 -35 -226s-18 -28 -34 -29s5 36 -12 40s-28 -40 -38 -37s-18 17 -29 14s-23 -20 -36 -15 s-11 24 1 116s31 195 31 215s5 55 9 97s36 238 46 281s8 55 20 93z" glyph-name="bar" horiz-adv-x="338" unicode="|"/><glyph d="M66 562c-2 2 -9 -1 -14 6s22 15 13 27s-20 -18 -29 -9s-6 15 3 24s68 71 122 71s92 -44 134 -44s77 35 84 41s6 -1 12 -6s5 -5 13 -7s-7 -22 -1 -29s18 15 24 9s-8 -22 -13 -29s1 -6 -3 -11s-44 -69 -111 -69c-82 0 -107 47 -147 47s-72 -43 -77 -45s-7 8 -12 13 s4 9 2 11z" glyph-name="tilde" horiz-adv-x="465" unicode="˜"/><glyph d="M46 648c5 27 11 35 24 31s11 -9 20 -7s16 6 23 4s-3 -25 7 -25s7 31 19 29s32 3 30 -16s-4 -36 -8 -56s0 -52 -16 -53s-24 6 -38 3s-14 20 -23 18s-15 -18 -24 -19s-1 22 -7 19s-5 -19 -13 -20s-8 7 -3 40s4 25 9 52zM215 655c7 23 26 24 38 22s13 -13 22 -10 s13 14 19 12s-2 -34 9 -34s6 33 20 33s21 5 15 -27l-15 -78s6 -16 -28 -17s-13 16 -23 14s-17 -13 -26 -14s-2 34 -9 34s-10 -34 -22 -33s-16 3 -8 44s1 31 8 54z" glyph-name="dieresis" horiz-adv-x="386" unicode="¨"/><glyph d="M41 672c-14 15 -4 21 11 32s19 4 24 15s9 10 14 14s18 -27 24 -20s-13 25 -5 31s18 -2 27 -14s60 -50 69 -58l27 -23s14 0 6 9s-12 12 -1 18l70 36s44 24 49 26s13 -2 18 -12s-5 -11 0 -15s11 0 14 -4s-7 -6 -3 -11s13 0 15 -5s-10 -12 -22 -22s-93 -74 -101 -79 s-44 -35 -59 -48s-26 -30 -54 0s-68 82 -74 85s-12 9 -23 19s-12 11 -26 26z" glyph-name="caron" horiz-adv-x="431" unicode="ˇ"/><glyph d="M105 21c3 7 76 14 73 4s-7 -33 -9 -44s-10 -9 -22 -10s-8 -9 1 -8s87 13 87 -76c0 -123 -121 -135 -159 -135s-31 4 -31 8s3 2 6 9s-3 11 0 17s24 -1 27 9s-25 0 -24 4s-31 20 5 20s75 4 75 48s-35 46 -45 48s-12 6 -9 14s6 22 10 37s12 48 15 55z" glyph-name="cedilla" horiz-adv-x="273" unicode="¸"/><glyph d="M161 681c-4 -2 -5 1 -8 10s-15 11 -11 -2s6 -10 1 -15s-21 -14 -21 -38s27 -29 32 -29s43 7 43 48c0 24 -24 26 -27 26s-5 2 -9 0zM118 748c4 -9 2 -8 -5 -13c-16 -12 3 -16 15 -6c9 8 5 16 2 23s-9 9 -4 12s14 12 57 12c27 0 65 -10 89 -39c7 -9 9 -22 13 -34 c4 -11 9 -21 9 -36c0 -50 -27 -94 -65 -122c-5 -4 -11 -8 -17 -11c-22 -12 -46 -20 -70 -20c-35 0 -62 10 -82 28c-7 6 -9 13 -14 21c-4 7 -11 15 -14 23c-4 13 -6 27 -6 42c0 68 60 111 69 118s19 10 23 2z" glyph-name="ring" horiz-adv-x="323" unicode="˚"/><glyph d="M66 562c-2 2 -9 -1 -14 6s22 15 13 27s-20 -18 -29 -9s-6 15 3 24s68 71 122 71s92 -44 134 -44s77 35 84 41s6 -1 12 -6s5 -5 13 -7s-7 -22 -1 -29s18 15 24 9s-8 -22 -13 -29s1 -6 -3 -11s-44 -69 -111 -69c-82 0 -107 47 -147 47s-72 -43 -77 -45s-7 8 -12 13 s4 9 2 11z" glyph-name="asciitilde" horiz-adv-x="465" unicode="~"/><glyph d="M143 89c-2 -7 -6 -16 -8 -18s-6 -12 -8 -19s-19 -40 -24 -43s-5 -7 -8 -7s-8 -6 -10 -4s10 29 4 29s-16 -17 -21 -18s-8 -5 -14 -7s-12 -3 -16 -1s1 15 -3 16s-1 8 -10 8s-4 -5 -13 -10s1 -10 -9 -12s-10 -6 -21 -4s-33 9 -13 53s63 132 68 138s14 14 12 21s1 13 2 16 s80 150 87 162s57 94 61 99s10 25 12 29l72 119s38 62 49 62s3 -30 17 -30s13 31 20 31s8 -8 16 -6s10 4 16 6s0 -30 16 -30s5 29 13 31s9 -1 19 1s15 6 22 3s15 -134 14 -156s5 -144 3 -147s-3 -13 -3 -19s6 -21 5 -24s3 -335 0 -341s0 -17 -6 -17s-15 -1 -19 1s-4 9 -8 9 s-11 -3 -14 -5s-10 -6 -13 -6s-6 32 -16 32s-5 -26 -10 -27s0 -3 -10 -4s-6 17 -12 17s-23 -21 -33 -19s-15 4 -15 14s0 68 -2 70s0 2 1 12v16c-6 0 -14 1 -27 1c-16 0 -13 -1 -33 0s-15 -1 -30 -2s-14 -5 -28 0s-7 6 -19 5s-12 -1 -19 -3c-5 -2 -14 -2 -22 -1 c-4 -8 -10 -15 -12 -21zM245 762c-2 2 -9 -1 -14 6s22 15 13 27s-20 -18 -29 -9s-6 15 3 24s68 71 122 71s92 -44 134 -44s77 35 84 41s6 -1 12 -6s5 -5 13 -7s-7 -22 -1 -29s18 15 24 9s-8 -22 -13 -29s1 -6 -3 -11s-44 -69 -111 -69c-82 0 -107 47 -147 47 s-72 -43 -77 -45s-7 8 -12 13s4 9 2 11zM225 236h3c9 -1 26 1 35 1s38 0 48 -2s5 -11 2 -19s-17 -5 -22 -9s4 -5 13 -9s15 10 19 14s-2 44 -1 51s5 96 7 114s3 53 -2 55s-17 -26 -25 -48s-51 -91 -61 -111s-25 -34 -16 -37zM300 155c0 -12 33 -13 33 -1s-33 13 -33 1z" glyph-name="Atilde" horiz-adv-x="567" unicode="Ã"/><glyph d="M143 89c-2 -7 -6 -16 -8 -18s-6 -12 -8 -19s-19 -40 -24 -43s-5 -7 -8 -7s-8 -6 -10 -4s10 29 4 29s-16 -17 -21 -18s-8 -5 -14 -7s-12 -3 -16 -1s1 15 -3 16s-1 8 -10 8s-4 -5 -13 -10s1 -10 -9 -12s-10 -6 -21 -4s-33 9 -13 53s63 132 68 138s14 14 12 21s1 13 2 16 s80 150 87 162s57 94 61 99s10 25 12 29l72 119s38 62 49 62s3 -30 17 -30s13 31 20 31s8 -8 16 -6s10 4 16 6s0 -30 16 -30s5 29 13 31s9 -1 19 1s15 6 22 3s15 -134 14 -156s5 -144 3 -147s-3 -13 -3 -19s6 -21 5 -24s3 -335 0 -341s0 -17 -6 -17s-15 -1 -19 1s-4 9 -8 9 s-11 -3 -14 -5s-10 -6 -13 -6s-6 32 -16 32s-5 -26 -10 -27s0 -3 -10 -4s-6 17 -12 17s-23 -21 -33 -19s-15 4 -15 14s0 68 -2 70s0 2 1 12v16c-6 0 -14 1 -27 1c-16 0 -13 -1 -33 0s-15 -1 -30 -2s-14 -5 -28 0s-7 6 -19 5s-12 -1 -19 -3c-5 -2 -14 -2 -22 -1 c-4 -8 -10 -15 -12 -21zM283 848c5 27 11 35 24 31s11 -9 20 -7s16 6 23 4s-3 -25 7 -25s7 31 19 29s32 3 30 -16s-4 -36 -8 -56s0 -52 -16 -53s-24 6 -38 3s-14 20 -23 18s-15 -18 -24 -19s-1 22 -7 19s-5 -19 -13 -20s-8 7 -3 40s4 25 9 52zM452 855c7 23 26 24 38 22 s13 -13 22 -10s13 14 19 12s-2 -34 9 -34s6 33 20 33s21 5 15 -27l-15 -78s6 -16 -28 -17s-13 16 -23 14s-17 -13 -26 -14s-2 34 -9 34s-10 -34 -22 -33s-16 3 -8 44s1 31 8 54zM225 236h3c9 -1 26 1 35 1s38 0 48 -2s5 -11 2 -19s-17 -5 -22 -9s4 -5 13 -9s15 10 19 14 s-2 44 -1 51s5 96 7 114s3 53 -2 55s-17 -26 -25 -48s-51 -91 -61 -111s-25 -34 -16 -37zM300 155c0 -12 33 -13 33 -1s-33 13 -33 1z" glyph-name="Adieresis" horiz-adv-x="567" unicode="Ä"/><glyph d="M143 89c-2 -7 -6 -16 -8 -18s-6 -12 -8 -19s-19 -40 -24 -43s-5 -7 -8 -7s-8 -6 -10 -4s10 29 4 29s-16 -17 -21 -18s-8 -5 -14 -7s-12 -3 -16 -1s1 15 -3 16s-1 8 -10 8s-4 -5 -13 -10s1 -10 -9 -12s-10 -6 -21 -4s-33 9 -13 53s63 132 68 138s14 14 12 21s1 13 2 16 s80 150 87 162s57 94 61 99s10 25 12 29l72 119s38 62 49 62s3 -30 17 -30s13 31 20 31s8 -8 16 -6s10 4 16 6s0 -30 16 -30s5 29 13 31s9 -1 19 1s15 6 22 3s15 -134 14 -156s5 -144 3 -147s-3 -13 -3 -19s6 -21 5 -24s3 -335 0 -341s0 -17 -6 -17s-15 -1 -19 1s-4 9 -8 9 s-11 -3 -14 -5s-10 -6 -13 -6s-6 32 -16 32s-5 -26 -10 -27s0 -3 -10 -4s-6 17 -12 17s-23 -21 -33 -19s-15 4 -15 14s0 68 -2 70s0 2 1 12v16c-6 0 -14 1 -27 1c-16 0 -13 -1 -33 0s-15 -1 -30 -2s-14 -5 -28 0s-7 6 -19 5s-12 -1 -19 -3c-5 -2 -14 -2 -22 -1 c-4 -8 -10 -15 -12 -21zM389 948c4 -9 2 -8 -5 -13c-16 -12 3 -16 15 -6c9 8 5 16 2 23s-9 9 -4 12s14 12 57 12c27 0 65 -10 89 -39c7 -9 9 -22 13 -34c4 -11 9 -21 9 -36c0 -50 -27 -94 -65 -122c-5 -4 -11 -8 -17 -11c-22 -12 -46 -20 -70 -20c-35 0 -62 10 -82 28 c-7 6 -9 13 -14 21c-4 7 -11 15 -14 23c-4 13 -6 27 -6 42c0 68 60 111 69 118s19 10 23 2zM225 236h3c9 -1 26 1 35 1s38 0 48 -2s5 -11 2 -19s-17 -5 -22 -9s4 -5 13 -9s15 10 19 14s-2 44 -1 51s5 96 7 114s3 53 -2 55s-17 -26 -25 -48s-51 -91 -61 -111s-25 -34 -16 -37 zM432 881c-4 -2 -5 1 -8 10s-15 11 -11 -2s6 -10 1 -15s-21 -14 -21 -38s27 -29 32 -29s43 7 43 48c0 24 -24 26 -27 26s-5 2 -9 0zM300 155c0 -12 33 -13 33 -1s-33 13 -33 1z" glyph-name="Aring" horiz-adv-x="567" unicode="Å"/><glyph d="M427 529c-24 0 -46 -5 -66 -14c-8 -3 -16 -7 -23 -11l-10 -6c-5 -3 -14 -5 -18 -9c-5 -4 -6 -9 -10 -13c-70 -62 -109 -164 -109 -216c0 -15 3 -30 8 -42c2 -4 8 -8 6 -12c-10 -21 2 -12 7 -11c6 1 7 -9 11 -13c25 -26 57 -38 73 -38c28 0 69 23 76 26s23 2 27 -4 s1 -9 3 -14s3 -8 1 -13s-11 -4 -14 -6s-8 -12 -5 -18s27 11 27 8s0 -18 -1 -25s3 -10 7 -14s7 -9 9 -18c2 -8 -25 -57 -122 -66c-2 -7 -2 -14 -3 -19c-2 -11 -10 -9 -22 -10s-8 -9 1 -8s87 13 87 -76c0 -123 -121 -135 -159 -135s-31 4 -31 8s3 2 6 9s-3 11 0 17s24 -1 27 9 s-25 0 -24 4s-31 20 5 20s75 4 75 48s-35 46 -45 48s-12 6 -9 14s6 22 10 37l8 34c-117 15 -172 96 -193 176c-12 45 -14 89 -9 121c2 13 4 26 7 39c1 3 5 5 6 9c1 3 -2 7 -1 10l6 22c11 34 26 68 43 102c7 14 15 27 23 40c7 10 17 13 24 23c3 4 3 15 6 19l7 9l5 6l14 16 c76 79 205 111 253 111s108 -33 108 -40s3 -20 3 -28s-7 -17 -9 -25s-5 -8 -11 -10s-5 2 -10 3s-9 1 -13 -5s15 -19 19 -21s-2 -12 -8 -24s-5 -12 -5 -21s-2 -24 -9 -26s-17 23 -59 23z" glyph-name="Ccedilla" horiz-adv-x="522" unicode="Ç"/><glyph d="M93 520c-14 3 -16 14 -14 25s10 25 14 30s1 12 2 19s-2 9 -7 15s0 14 1 19s15 6 17 7s9 5 7 11s-20 0 -20 8s3 16 7 18s44 10 62 13s26 4 39 10s64 2 84 3s143 1 166 2s28 -9 30 -18s-3 -9 -7 -12s-5 0 -8 -3s4 -10 3 -13s-7 -4 -14 -1s-14 -7 -10 -15s30 -6 30 -17 s-12 -18 -17 -23s-9 -17 -9 -17l7 -13c2 -3 3 -20 1 -32s-17 -18 -22 -17s-48 1 -58 1s-84 2 -93 2s-5 -9 -1 -15s10 -11 11 -15s-3 -11 -6 -21s-10 -38 -13 -45s-1 -18 3 -28s89 -4 95 -3s16 -8 17 -14s-16 -11 -17 -16s10 -4 13 -15s-8 -30 -8 -32s-8 -20 -7 -28 s-12 -16 -24 -15s-28 -5 -37 -8s-60 -2 -65 -1s-4 9 -2 12s-3 11 -9 9s-14 -36 -14 -44s-16 -54 -18 -75s76 -10 81 -12s22 -2 33 -1s22 -2 29 -1s-1 0 12 0s19 -6 20 -13s0 -11 -2 -17s-2 -2 -5 -8s-3 -2 -10 -4s-5 -5 -8 -10s0 -4 4 -11s1 -4 2 -8s2 -12 1 -18 s0 -7 -6 -10s-4 5 -10 3s-5 -5 -6 -13s9 -4 14 -4s5 -10 5 -23s-12 -11 -19 -13s-47 -1 -63 -3s-77 3 -83 1s-5 10 -13 15s-13 -6 -20 -12s-23 -1 -36 -1s-64 -3 -80 -2s-17 19 -18 27s4 32 8 41s4 70 6 84s11 47 17 56s4 23 1 33s17 111 20 121s14 58 16 70s4 12 11 15 s0 36 6 47s10 4 22 3s19 6 23 7s0 -28 3 -38s4 -3 11 -2s3 46 1 51s-11 1 -22 0s-40 -1 -54 2zM160 848c5 27 11 35 24 31s11 -9 20 -7s16 6 23 4s-3 -25 7 -25s7 31 19 29s32 3 30 -16s-4 -36 -8 -56s0 -52 -16 -53s-24 6 -38 3s-14 20 -23 18s-15 -18 -24 -19s-1 22 -7 19 s-5 -19 -13 -20s-8 7 -3 40s4 25 9 52zM329 855c7 23 26 24 38 22s13 -13 22 -10s13 14 19 12s-2 -34 9 -34s6 33 20 33s21 5 15 -27l-15 -78s6 -16 -28 -17s-13 16 -23 14s-17 -13 -26 -14s-2 34 -9 34s-10 -34 -22 -33s-16 3 -8 44s1 31 8 54z" glyph-name="Edieresis" horiz-adv-x="504" unicode="Ë"/><glyph d="M33 5c-11 6 14 90 14 116s6 66 9 86s9 112 12 128s6 42 8 57s14 42 14 54s0 33 3 45s12 48 12 67s6 37 8 59s13 62 14 67s31 -12 39 -11s6 14 11 18s19 -1 31 -1s10 -7 23 -8s27 18 32 22s15 -4 19 -8s0 -50 10 -48s24 49 31 51s14 -9 20 -16s-7 -36 -7 -44 s-17 -38 -20 -50s-17 -51 -18 -61s-20 -65 -22 -83s-39 -148 -39 -148l-11 -20c-4 -7 3 -20 0 -39s-30 -150 -30 -163s-8 -50 -12 -58s-18 -9 -29 -5s7 18 1 21s0 18 -8 18s3 -9 -8 -13s-18 -33 -28 -33s-8 3 -16 6s-12 14 -18 14s-20 -5 -21 -13s-13 -13 -24 -7zM112 848 c5 27 11 35 24 31s11 -9 20 -7s16 6 23 4s-3 -25 7 -25s7 31 19 29s32 3 30 -16s-4 -36 -8 -56s0 -52 -16 -53s-24 6 -38 3s-14 20 -23 18s-15 -18 -24 -19s-1 22 -7 19s-5 -19 -13 -20s-8 7 -3 40s4 25 9 52zM281 855c7 23 26 24 38 22s13 -13 22 -10s13 14 19 12 s-2 -34 9 -34s6 33 20 33s21 5 15 -27l-15 -78s6 -16 -28 -17s-13 16 -23 14s-17 -13 -26 -14s-2 34 -9 34s-10 -34 -22 -33s-16 3 -8 44s1 31 8 54z" glyph-name="Idieresis" horiz-adv-x="345" unicode="Ï"/><glyph d="M50 187c1 -1 8 66 11 91s29 175 33 192s17 22 21 33s-5 39 -1 54s25 73 35 112s40 27 52 26s8 -72 20 -74s-8 76 8 72s14 -39 25 -41s6 41 29 39c20 -2 70 -115 76 -123s-2 -20 2 -26s9 -5 22 -24s54 -159 63 -161s8 12 10 20s18 115 22 159s32 159 40 160s16 5 32 1 s-4 -63 11 -65s33 68 45 69s9 -16 15 -18s5 17 17 16s6 -22 14 -24s16 22 26 21s6 -17 -2 -46s-79 -344 -89 -393s-35 -256 -51 -257s-21 27 -30 27s2 -27 -5 -28s-18 17 -24 17s-5 -16 -10 -16s-13 -6 -27 3s-91 157 -101 175s-66 177 -84 178s-45 -171 -50 -197 s-29 -154 -37 -156s-5 9 -11 11s-6 -10 -18 -11s-6 47 -12 49s-15 -38 -18 -45s-20 -8 -26 -6s-20 0 -32 0s-23 15 -20 32s18 155 19 154zM246 762c-2 2 -9 -1 -14 6s22 15 13 27s-20 -18 -29 -9s-6 15 3 24s68 71 122 71s92 -44 134 -44s77 35 84 41s6 -1 12 -6s5 -5 13 -7 s-7 -22 -1 -29s18 15 24 9s-8 -22 -13 -29s1 -6 -3 -11s-44 -69 -111 -69c-82 0 -107 47 -147 47s-72 -43 -77 -45s-7 8 -12 13s4 9 2 11z" glyph-name="Ntilde" horiz-adv-x="687" unicode="Ñ"/><glyph d="M332 483c-49 -19 -99 -77 -104 -87s0 -13 -2 -20s-13 -13 -25 -43s-42 -170 53 -170s125 85 132 91s15 11 12 16s2 17 21 72s11 111 3 134s-42 46 -52 49s-11 17 -19 14s1 -20 6 -33s1 -13 -25 -23zM225 637c33 16 42 22 50 17s13 -13 18 -18s15 -5 15 7s-5 12 -4 22 s-1 17 15 22s55 14 86 12s118 -19 149 -68s18 -41 22 -44s9 -5 12 -10s25 -54 29 -78s7 -110 -13 -166c-6 -17 -16 -42 -30 -72c-5 -11 -17 -22 -23 -34c-5 -9 -4 -18 -10 -28c-33 -55 -79 -112 -137 -149c-81 -51 -135 -50 -168 -50c-21 0 -102 8 -156 80c-4 5 -3 12 -6 18 c-4 7 -13 12 -17 20c-17 36 -27 82 -27 142c0 59 12 106 26 143c3 8 10 10 13 17c1 3 0 12 1 15c19 39 38 63 40 74c3 23 1 29 12 43s70 69 103 85zM327 557c3 -10 36 4 32 13s-35 -3 -32 -13zM248 762c-2 2 -9 -1 -14 6s22 15 13 27s-20 -18 -29 -9s-6 15 3 24 s68 71 122 71s92 -44 134 -44s77 35 84 41s6 -1 12 -6s5 -5 13 -7s-7 -22 -1 -29s18 15 24 9s-8 -22 -13 -29s1 -6 -3 -11s-44 -69 -111 -69c-82 0 -107 47 -147 47s-72 -43 -77 -45s-7 8 -12 13s4 9 2 11z" glyph-name="Otilde" horiz-adv-x="648" unicode="Õ"/><glyph d="M332 483c-49 -19 -99 -77 -104 -87s0 -13 -2 -20s-13 -13 -25 -43s-42 -170 53 -170s125 85 132 91s15 11 12 16s2 17 21 72s11 111 3 134s-42 46 -52 49s-11 17 -19 14s1 -20 6 -33s1 -13 -25 -23zM225 637c33 16 42 22 50 17s13 -13 18 -18s15 -5 15 7s-5 12 -4 22 s-1 17 15 22s55 14 86 12s118 -19 149 -68s18 -41 22 -44s9 -5 12 -10s25 -54 29 -78s7 -110 -13 -166c-6 -17 -16 -42 -30 -72c-5 -11 -17 -22 -23 -34c-5 -9 -4 -18 -10 -28c-33 -55 -79 -112 -137 -149c-81 -51 -135 -50 -168 -50c-21 0 -102 8 -156 80c-4 5 -3 12 -6 18 c-4 7 -13 12 -17 20c-17 36 -27 82 -27 142c0 59 12 106 26 143c3 8 10 10 13 17c1 3 0 12 1 15c19 39 38 63 40 74c3 23 1 29 12 43s70 69 103 85zM327 557c3 -10 36 4 32 13s-35 -3 -32 -13zM281 848c5 27 11 35 24 31s11 -9 20 -7s16 6 23 4s-3 -25 7 -25s7 31 19 29 s32 3 30 -16s-4 -36 -8 -56s0 -52 -16 -53s-24 6 -38 3s-14 20 -23 18s-15 -18 -24 -19s-1 22 -7 19s-5 -19 -13 -20s-8 7 -3 40s4 25 9 52zM450 855c7 23 26 24 38 22s13 -13 22 -10s13 14 19 12s-2 -34 9 -34s6 33 20 33s21 5 15 -27l-15 -78s6 -16 -28 -17s-13 16 -23 14 s-17 -13 -26 -14s-2 34 -9 34s-10 -34 -22 -33s-16 3 -8 44s1 31 8 54z" glyph-name="Odieresis" horiz-adv-x="648" unicode="Ö"/><glyph d="M174 0c-77 0 -108 70 -117 91s-1 44 -8 60s3 82 6 99s22 146 22 158s10 25 13 35s-2 31 3 45s36 152 40 163s5 27 15 35s14 1 18 -1s-5 -27 -3 -33s6 7 12 14s0 12 11 15s3 -5 11 -8s2 5 14 15s19 7 29 6s11 1 18 -2s-6 -37 -3 -45s8 12 13 21s20 29 27 30s10 1 24 -3 s6 -11 3 -20s-15 -40 -18 -56s5 -18 11 -29s-8 -22 -10 -30s-12 -56 -17 -67s-3 -18 -10 -29s-14 -51 -19 -61s6 -15 6 -26s-7 -10 -20 -24s-4 -13 -5 -30s-5 -23 -6 -36s-9 -40 -14 -64s-5 -75 25 -75s55 27 62 37s15 16 21 18s7 -7 13 -8s4 30 4 38s10 66 14 75 s35 176 35 189s13 32 14 38s3 34 6 47s19 57 17 69s19 27 23 37s17 6 27 8s10 -5 29 -9s14 2 20 7s26 -1 36 -2s11 -6 11 -17s-1 -25 2 -28s12 11 16 20s14 24 26 27s15 -2 16 -10s-3 -16 -9 -32s-20 -60 -22 -75s-23 -80 -26 -94s-36 -120 -40 -136s-14 -77 -18 -90 s-12 -34 -15 -48s-5 -65 -17 -79s-16 -49 -18 -67s-7 -55 -13 -59s-23 1 -31 4s12 37 -1 41s-23 -42 -31 -40s-5 26 -12 23s-6 -14 -15 -19s-27 -4 -43 -2s5 59 -2 60s1 4 -10 -19s-74 -52 -140 -52zM334 121c-2 5 -26 0 -23 -10s25 5 23 10zM268 848c5 27 11 35 24 31 s11 -9 20 -7s16 6 23 4s-3 -25 7 -25s7 31 19 29s32 3 30 -16s-4 -36 -8 -56s0 -52 -16 -53s-24 6 -38 3s-14 20 -23 18s-15 -18 -24 -19s-1 22 -7 19s-5 -19 -13 -20s-8 7 -3 40s4 25 9 52zM437 855c7 23 26 24 38 22s13 -13 22 -10s13 14 19 12s-2 -34 9 -34s6 33 20 33 s21 5 15 -27l-15 -78s6 -16 -28 -17s-13 16 -23 14s-17 -13 -26 -14s-2 34 -9 34s-10 -34 -22 -33s-16 3 -8 44s1 31 8 54z" glyph-name="Udieresis" horiz-adv-x="624" unicode="Ü"/><glyph d="M138 330c0 3 10 4 13 8s1 5 -2 13s-10 17 -13 29s-73 199 -75 213s-28 78 -18 85s56 7 63 9s10 -22 20 -15s5 13 15 20s14 3 24 5s10 -5 16 -12s18 -49 21 -47s-3 14 -3 28s-6 19 -3 23s6 6 16 8s7 1 17 -8s3 -28 10 -40s3 -37 7 -50s11 -30 13 -40s0 -11 -4 -20 s-13 -20 -20 -26s0 -9 8 -7s22 26 22 30s7 6 11 13s78 110 80 116s34 28 40 33s17 3 20 0s-14 -37 -8 -40s28 27 33 34s14 7 21 6s21 -3 29 -1s11 -12 7 -21s-6 -15 0 -12s8 11 16 20s13 11 18 12s10 4 19 4s3 -15 2 -24s-35 -45 -39 -54s-49 -63 -58 -73s-36 -56 -36 -56 l-79 -110c-7 -10 -33 -50 -36 -56s0 -27 -1 -37s-7 -23 -10 -27s-12 -39 -15 -52s-6 -34 -8 -47s-7 -36 -11 -49s-12 -19 -16 -22s3 -18 1 -26s-5 -39 -7 -47s-10 -14 -17 -19s-10 -3 -18 1s6 12 3 13s2 11 -5 13s-12 -26 -18 -27s-16 1 -25 1s-10 1 -17 4s-4 7 -10 6 s-5 -7 -13 -9s-22 -2 -28 3s6 35 9 50s2 29 1 42s7 53 10 72s21 120 21 127s11 9 14 13s-7 17 -7 20zM243 794c8 7 21 13 35 25l103 86s54 49 67 28s8 -18 14 -23s-30 -18 -19 -26s29 16 38 5s11 -24 18 -30s10 -9 15 -12s-6 -11 -24 -17s-83 -38 -93 -43s-57 -27 -68 -33 s-37 -18 -49 -22s-25 -4 -29 5s5 19 -3 22s-4 -8 -16 8s3 20 11 27z" glyph-name="Yacute" horiz-adv-x="486" unicode="Ý"/><glyph d="M427 529c-24 0 -46 -5 -66 -14c-8 -3 -16 -7 -23 -11l-10 -6c-5 -3 -14 -5 -18 -9c-5 -4 -6 -9 -10 -13c-70 -62 -109 -164 -109 -216c0 -15 3 -30 8 -42c2 -4 8 -8 6 -12c-10 -21 2 -12 7 -11c6 1 7 -9 11 -13c25 -26 57 -38 73 -38c28 0 69 23 76 26s23 2 27 -4 s1 -9 3 -14s3 -8 1 -13s-11 -4 -14 -6s-8 -12 -5 -18s27 11 27 8s0 -18 -1 -25s3 -10 7 -14s7 -9 9 -18s-31 -68 -155 -68c-145 0 -210 90 -234 178c-12 45 -14 89 -9 121c2 13 4 26 7 39c1 3 5 5 6 9c1 3 -2 7 -1 10l6 22c11 34 26 68 43 102c7 14 15 27 23 40 c7 10 17 13 24 23c3 4 3 15 6 19l7 9l5 6l14 16c76 79 205 111 253 111s108 -33 108 -40s3 -20 3 -28s-7 -17 -9 -25s-5 -8 -11 -10s-5 2 -10 3s-9 1 -13 -5s15 -19 19 -21s-2 -12 -8 -24s-5 -12 -5 -21s-2 -24 -9 -26s-17 23 -59 23zM216 872c-14 15 -4 21 11 32 s19 4 24 15s9 10 14 14s18 -27 24 -20s-13 25 -5 31s18 -2 27 -14s60 -50 69 -58l27 -23s14 0 6 9s-12 12 -1 18l70 36s44 24 49 26s13 -2 18 -12s-5 -11 0 -15s11 0 14 -4s-7 -6 -3 -11s13 0 15 -5s-10 -12 -22 -22s-93 -74 -101 -79s-44 -35 -59 -48s-26 -30 -54 0 s-68 82 -74 85s-12 9 -23 19s-12 11 -26 26z" glyph-name="Ccaron" horiz-adv-x="522" unicode="Č"/><glyph d="M30 64c1 1 5 57 9 67s6 46 9 65s5 51 9 78s34 193 38 204s10 31 15 37s7 8 11 1s9 0 15 0s2 -23 14 -23s7 30 -7 34s-31 0 -42 1s-12 1 -14 11s-1 19 1 26s10 8 8 14s-10 12 -5 25s27 21 29 33s-31 -24 -25 18s35 46 47 45s22 -5 42 -2s77 0 87 0s13 -4 22 -6s15 1 24 4 s26 2 35 -2s88 -21 111 -31s82 -51 107 -155s-21 -228 -25 -240s-23 -44 -34 -54s-1 -33 -65 -102s-156 -99 -173 -101s-21 3 -28 5s-22 -4 -38 1s-8 48 -20 49s-10 -8 -15 -34s-21 -32 -33 -28s-3 19 -8 19s-7 -8 -11 -11s-16 -11 -22 -12s-13 6 -20 7s8 31 -5 31 s-14 -38 -35 -38s-9 63 -8 64zM282 526c-20 -5 -9 -26 -12 -33s-7 -20 -13 -27s-3 -33 -4 -42s-5 -44 -8 -57s-21 -97 -23 -100s-5 -17 -5 -24s-8 -33 -13 -39s-11 -43 -5 -51s30 -5 99 38s83 127 87 137s4 25 2 30s10 9 5 79s-74 98 -110 89zM168 872c-14 15 -4 21 11 32 s19 4 24 15s9 10 14 14s18 -27 24 -20s-13 25 -5 31s18 -2 27 -14s60 -50 69 -58l27 -23s14 0 6 9s-12 12 -1 18l70 36s44 24 49 26s13 -2 18 -12s-5 -11 0 -15s11 0 14 -4s-7 -6 -3 -11s13 0 15 -5s-10 -12 -22 -22s-93 -74 -101 -79s-44 -35 -59 -48s-26 -30 -54 0 s-68 82 -74 85s-12 9 -23 19s-12 11 -26 26z" glyph-name="Dcaron" horiz-adv-x="604" unicode="Ď"/><glyph d="M93 520c-14 3 -16 14 -14 25s10 25 14 30s1 12 2 19s-2 9 -7 15s0 14 1 19s15 6 17 7s9 5 7 11s-20 0 -20 8s3 16 7 18s44 10 62 13s26 4 39 10s64 2 84 3s143 1 166 2s28 -9 30 -18s-3 -9 -7 -12s-5 0 -8 -3s4 -10 3 -13s-7 -4 -14 -1s-14 -7 -10 -15s30 -6 30 -17 s-12 -18 -17 -23s-9 -17 -9 -17l7 -13c2 -3 3 -20 1 -32s-17 -18 -22 -17s-48 1 -58 1s-84 2 -93 2s-5 -9 -1 -15s10 -11 11 -15s-3 -11 -6 -21s-10 -38 -13 -45s-1 -18 3 -28s89 -4 95 -3s16 -8 17 -14s-16 -11 -17 -16s10 -4 13 -15s-8 -30 -8 -32s-8 -20 -7 -28 s-12 -16 -24 -15s-28 -5 -37 -8s-60 -2 -65 -1s-4 9 -2 12s-3 11 -9 9s-14 -36 -14 -44s-16 -54 -18 -75s76 -10 81 -12s22 -2 33 -1s22 -2 29 -1s-1 0 12 0s19 -6 20 -13s0 -11 -2 -17s-2 -2 -5 -8s-3 -2 -10 -4s-5 -5 -8 -10s0 -4 4 -11s1 -4 2 -8s2 -12 1 -18 s0 -7 -6 -10s-4 5 -10 3s-5 -5 -6 -13s9 -4 14 -4s5 -10 5 -23s-12 -11 -19 -13s-47 -1 -63 -3s-77 3 -83 1s-5 10 -13 15s-13 -6 -20 -12s-23 -1 -36 -1s-64 -3 -80 -2s-17 19 -18 27s4 32 8 41s4 70 6 84s11 47 17 56s4 23 1 33s17 111 20 121s14 58 16 70s4 12 11 15 s0 36 6 47s10 4 22 3s19 6 23 7s0 -28 3 -38s4 -3 11 -2s3 46 1 51s-11 1 -22 0s-40 -1 -54 2zM148 872c-14 15 -4 21 11 32s19 4 24 15s9 10 14 14s18 -27 24 -20s-13 25 -5 31s18 -2 27 -14s60 -50 69 -58l27 -23s14 0 6 9s-12 12 -1 18l70 36s44 24 49 26s13 -2 18 -12 s-5 -11 0 -15s11 0 14 -4s-7 -6 -3 -11s13 0 15 -5s-10 -12 -22 -22s-93 -74 -101 -79s-44 -35 -59 -48s-26 -30 -54 0s-68 82 -74 85s-12 9 -23 19s-12 11 -26 26z" glyph-name="Ecaron" horiz-adv-x="504" unicode="Ě"/><glyph d="M303 275c-2 1 -9 -5 -14 -6s-9 12 -9 21s29 0 34 4s-5 4 -11 12s-23 4 -21 15s2 15 8 20s10 9 14 16s-11 6 -9 13s2 14 2 25s8 6 30 9s94 -2 110 -4s36 -2 45 -4s10 3 18 6s19 -5 29 -5s5 -4 5 -17s-8 -42 -14 -47s-4 -9 -5 -19s-1 -3 -30 -97s-117 -161 -125 -169 s-6 0 -16 1s-18 -17 -23 -23s-51 -35 -124 -26c-150 19 -167 208 -171 215s1 29 4 39s-11 23 -5 83s73 181 86 195s24 33 29 36s4 -2 11 5s-4 13 42 52s127 70 204 77s133 -45 140 -50s-3 -26 -4 -32s-4 -21 -10 -23s-12 -15 -17 -21s-9 -17 -16 -17s-4 7 -7 10 s-19 -7 -19 -15s6 -10 13 -14s-1 -10 -8 -17s-23 -15 -31 -12s-1 18 -32 19s-50 -14 -86 -33s-60 -53 -63 -61s-14 -16 -20 -15s-12 -14 -10 -18s3 -7 -19 -40s-37 -122 -29 -162s37 -56 45 -58s30 -3 42 1s36 26 41 36s34 54 35 67s6 13 11 13s7 1 16 4s6 1 11 -5 s0 -10 -3 -17s3 -15 7 -16s7 8 9 20s0 26 -1 28s-10 0 -21 1s-18 1 -33 0s-33 -1 -35 0zM277 734c-11 -5 -22 -9 -29 5s8 22 -1 23s-13 -6 -22 5s10 25 20 32s82 64 88 69l74 59c15 12 33 14 51 -7s39 -47 45 -50s31 -28 39 -37s40 -39 48 -50s13 -10 -8 -22 s-18 -11 -24 -13s-11 28 -23 21s11 -20 0 -30s-17 -14 -27 -13s-6 -9 -29 14s-48 39 -56 46s-15 10 -27 23s-32 17 -14 -4s3 -8 -11 -18s-63 -37 -70 -39s-13 -9 -24 -14z" glyph-name="Gcircumflex" horiz-adv-x="558" unicode="Ĝ"/><glyph d="M45 292c6 27 21 10 31 6s42 -15 52 -13s9 6 21 4s-21 -35 2 -44s7 45 23 42s13 -16 23 -14s28 13 25 1s-59 -230 -71 -287s-25 -144 -30 -171s-34 -14 -49 -10s0 22 -19 21s-28 -19 -37 -18s13 42 -1 43s-9 -53 -27 -45s-10 44 -2 96s23 157 32 229s21 133 27 160z M65 381l25 95c9 33 27 39 41 31s5 -13 28 -13s18 11 41 4s-19 -46 8 -47s25 49 41 43s30 -4 23 -27s-23 -65 -25 -83s-6 -55 -27 -54s-20 7 -34 10s-26 -6 -47 2s3 50 -12 52s-27 -51 -42 -48s-27 9 -20 35z" glyph-name="exclamdown" horiz-adv-x="313" unicode="¡"/><glyph d="M74 -115c-5 1 -3 15 0 34c5 32 17 79 19 87c0 3 1 7 2 11c-11 7 -21 16 -30 26c-19 20 -41 74 -45 103c-5 40 -3 83 9 126c12 44 33 87 61 123c20 27 56 57 87 73c10 5 20 10 32 14l3 14l21 86c4 11 11 42 22 39s18 -23 33 -16s9 11 22 10c13 -2 2 -34 15 -31 c12 4 6 30 15 26c10 -3 26 4 9 -49c-7 -24 -15 -46 -21 -64c46 -6 66 -22 73 -27c8 -6 -5 -31 -9 -35s-9 1 -13 4s-10 -6 -9 -9s7 -10 8 -14s-1 -12 -8 -12s-5 4 -9 9s-11 6 -13 8s4 -8 7 -12s10 -12 14 -13s-1 -8 -3 -15s-7 -10 -13 -17s-7 -10 -10 -20s-30 -27 -30 -27 s-12 13 -27 13c-22 0 -41 -9 -59 -22c-47 -40 -78 -125 -58 -172c3 -7 7 -16 12 -21c7 -6 17 -6 29 -6c21 0 43 10 52 15s14 5 18 2s2 -4 6 -5s4 -12 4 -15s-2 -8 -5 -10s-2 -4 -5 -8s-5 -4 -3 -8s2 -4 5 -4s7 4 11 4s4 -7 5 -11s4 -7 2 -8s-12 -5 -16 -5s3 -5 3 -10 s17 9 17 6s18 -7 7 -19c-10 -11 -25 -34 -101 -38v-2c-13 -54 -21 -100 -26 -112s-12 -7 -22 -6s-15 0 -22 5s-2 17 -10 13s-16 -12 -23 -12s10 26 -3 28s-16 -26 -30 -24z" glyph-name="cent" horiz-adv-x="395" unicode="¢"/><glyph d="M327 460c-3 -15 -7 -20 -4 -28s51 0 71 0s67 4 71 -7s-15 -13 -21 -18s19 -10 19 -24s-32 -14 -40 -25s35 3 37 -4s-6 -14 -14 -20s2 -19 -3 -36s-21 -10 -45 -11s-92 0 -99 -2s-10 -58 -18 -81s-11 -13 -32 -8s-22 -11 -7 -14s40 -18 66 -18s48 30 62 50s22 25 35 27 s33 -14 43 -14s22 12 29 11s-5 -36 6 -34s11 36 19 36s74 5 1 -105s-193 -135 -226 -135s-77 15 -105 25s-52 -3 -72 -10s-44 -12 -62 -14s-25 2 -22 10s4 35 5 40s7 38 11 49s40 9 41 18s-36 0 -39 11s7 37 7 39s37 3 58 23s30 62 32 74s3 12 -5 12s-49 -1 -75 -2 s-27 10 -22 24s9 14 10 32s-1 19 3 35s42 -1 43 13s-45 -2 -43 22s10 31 21 31s52 1 61 0s31 -7 32 2s6 102 87 183s193 83 196 79s-7 -22 -13 -34s1 -25 1 -39s-47 -10 -47 -21s43 3 43 -6s-5 -18 -8 -30s29 -34 -3 -34s-76 -25 -85 -72z" glyph-name="sterling" horiz-adv-x="556" unicode="£"/><glyph d="M532 506c-7 -3 -19 23 -59 23c-48 0 -94 -29 -107 -35s-18 -16 -34 -15s-11 -11 6 -12s26 2 42 1s106 -1 113 -4s2 -12 -3 -23s1 -27 -9 -41s-32 -3 -36 -12s29 -4 31 -8s5 -19 -8 -21s-163 -2 -185 -1s-21 -2 -26 -11s-6 -25 -6 -25h68c15 0 134 -2 141 0s8 -3 5 -14 s-26 -12 -23 -23s18 9 19 -7s-8 -19 -10 -36s-6 -28 -12 -28s-168 -4 -192 -3s-23 -12 -14 -11s17 1 21 1s44 -58 85 -58s92 31 98 27s7 -13 8 -18s1 -10 5 -20s-21 -13 -17 -22s20 13 26 7s-3 -16 -2 -25s10 -13 17 -25s-45 -69 -158 -69c-215 0 -236 197 -238 206 s-17 2 -30 3s-41 -1 -39 7s1 24 2 35s21 19 24 28s-20 1 -21 12s2 22 6 29s44 1 51 3s8 0 8 9s1 13 25 13s28 9 -1 10s-54 1 -65 9s4 46 8 56s27 -3 31 10s-30 0 -30 16s2 21 9 21s65 1 72 2s29 68 82 120s165 116 246 116s137 -50 131 -61s-15 -17 -15 -36s3 -19 -3 -28 s-35 10 -44 4s7 -8 26 -18s8 -7 -2 -20s-2 -32 -17 -38z" glyph-name="Euro" horiz-adv-x="595" unicode="€"/><glyph d="M33 5c-11 6 14 90 14 116s6 66 9 86s9 112 12 128s6 42 8 57s14 42 14 54s0 33 3 45s12 48 12 67s6 37 8 59s13 62 14 67s31 -12 39 -11s6 14 11 18s19 -1 31 -1s10 -7 23 -8s27 18 32 22s15 -4 19 -8s0 -50 10 -48s24 49 31 51s14 -9 20 -16s-7 -36 -7 -44 s-17 -38 -20 -50s-17 -51 -18 -61s-20 -65 -22 -83s-39 -148 -39 -148l-11 -20c-4 -7 3 -20 0 -39s-30 -150 -30 -163s-8 -50 -12 -58s-18 -9 -29 -5s7 18 1 21s0 18 -8 18s3 -9 -8 -13s-18 -33 -28 -33s-8 3 -16 6s-12 14 -18 14s-20 -5 -21 -13s-13 -13 -24 -7zM99 762 c-2 2 -9 -1 -14 6s22 15 13 27s-20 -18 -29 -9s-6 15 3 24s68 71 122 71s92 -44 134 -44s77 35 84 41s6 -1 12 -6s5 -5 13 -7s-7 -22 -1 -29s18 15 24 9s-8 -22 -13 -29s1 -6 -3 -11s-44 -69 -111 -69c-82 0 -107 47 -147 47s-72 -43 -77 -45s-7 8 -12 13s4 9 2 11z" glyph-name="Itilde" horiz-adv-x="345" unicode="Ĩ"/><glyph d="M104 131l4 27c1 7 -24 2 -74 4s-48 15 -50 32s44 -3 47 14s-37 11 -32 23s-3 33 2 42s63 3 80 2s47 3 47 3l8 26c3 10 -38 4 -64 4s-53 2 -57 12s4 29 8 42s-2 8 13 17s-9 5 -10 25s8 15 15 16s43 1 54 0s27 -1 24 7s-8 29 -10 38s-29 82 -34 96s-18 48 -29 88 s28 36 45 37s22 -47 41 -44s-2 47 9 51s12 0 22 -6s21 3 37 6s27 10 31 -7s22 -101 26 -116s5 -14 -8 -42s11 -11 19 7s65 101 88 132s40 35 54 32s0 -33 14 -36s24 30 42 34s13 -3 27 -12s19 15 52 12s3 -29 -5 -41s-76 -96 -88 -112s-65 -97 -69 -106s-17 -13 -15 -16 s7 1 17 0s59 3 70 1s15 -16 18 -19s-19 -7 -23 -16s10 -8 10 -25s-38 -3 -43 -17s35 -3 32 -17s-7 -17 -20 -17s-107 -2 -133 -2s-23 -10 -13 -11s19 5 21 -1s-8 -21 -4 -23s9 0 23 0s85 4 97 3s17 -7 19 -22s-34 -14 -26 -24s14 3 15 -1s0 -11 1 -23s-9 -21 -10 -36 s-13 -2 -34 -4s-96 -2 -117 -2s-29 -7 -23 -10s24 5 24 -4s-19 -61 -23 -84s-10 -69 -28 -69s-5 41 -19 42s-3 -40 -25 -38s-6 7 -23 8s-15 -10 -29 -8s-34 2 -31 23s11 94 13 105z" glyph-name="yen" horiz-adv-x="486" unicode="¥"/><glyph d="M25 51c-4 3 4 15 14 31c19 27 50 64 55 70c4 5 10 14 17 21c-6 13 -11 26 -14 41c-2 10 0 23 -1 34c-1 8 -5 14 -5 23c0 44 10 84 25 119c4 10 19 20 24 29s0 16 5 24c9 14 20 27 32 38c-21 48 -41 85 -44 98c-3 12 5 12 14 18c9 5 12 9 20 9c9 0 12 -12 16 -4 s6 19 11 23c6 4 9 -27 20 -20c11 6 -4 30 9 37c4 2 11 -11 21 -27l29 -62c19 8 61 22 110 22c26 0 68 -10 103 -32c17 24 37 52 42 58c7 9 25 35 34 29c9 -7 9 -29 25 -28c16 2 12 8 24 1c11 -6 -10 -32 3 -33c12 -2 16 25 24 18s25 -6 -10 -49c-34 -41 -64 -75 -75 -86 c9 -26 7 -34 7 -34s-5 -1 -5 -5s1 -6 3 -9s6 -3 4 -7s-2 -82 -28 -135s-55 -85 -58 -89c-1 -1 -3 -1 -6 -2c0 -1 1 -1 1 -1c15 -28 37 -69 40 -78c5 -10 20 -38 11 -44c-11 -4 -30 6 -37 -9c-5 -15 2 -14 -10 -22c-10 -7 -24 24 -31 13c-7 -10 15 -26 5 -30s-16 -19 -39 32 c-11 25 -20 48 -27 66c-29 -13 -68 -26 -115 -26c-6 0 -12 0 -18 1c-14 1 -20 5 -33 9c-6 2 -17 3 -22 5c-1 0 -2 0 -2 1c-35 -43 -61 -80 -71 -89c-9 -8 -13 -1 -22 4c-9 6 -14 7 -18 14c-4 8 6 16 -3 16s-20 -4 -26 -1s20 20 9 27s-25 -17 -37 -9zM305 404 c-9 -5 -19 -17 -28 -32c-2 -3 -6 -4 -8 -7s0 -8 -2 -11c-24 -49 -41 -116 -18 -146c4 -5 5 -14 11 -17c6 -2 16 2 24 2c35 0 65 29 87 66c10 17 24 33 30 51c2 7 -3 15 -1 22c6 28 15 45 9 64c-5 16 -24 35 -41 35c-19 0 -20 2 -30 -1s-10 5 -15 14s7 8 8 14s-11 2 -16 1 s-9 -14 -8 -19s6 -12 9 -16s12 -6 -11 -20z" glyph-name="currency" horiz-adv-x="682" unicode="¤"/><glyph d="M126 662c12 41 29 35 51 30s-1 -57 20 -60s12 58 31 57s15 -13 32 -12s38 18 58 15s7 -57 -4 -93s-46 -191 -53 -222s-22 -94 -24 -96s-6 3 -34 4s-3 31 -20 44s-21 -51 -38 -45s-15 24 -34 21s-14 -17 -27 -12s-22 9 -17 55c7 68 47 273 59 314zM7 -107 c4 54 20 213 28 274s21 72 42 70s-6 -44 14 -54s11 52 32 47s17 -32 33 -28s29 25 46 28s29 2 25 -18s-44 -205 -50 -240s-17 -127 -31 -127s1 17 -10 24s-24 -27 -41 -25s17 35 -5 39s-13 -35 -31 -28s-6 -7 -33 -7s-21 18 -19 45z" glyph-name="brokenbar" horiz-adv-x="343" unicode="¦"/><glyph d="M602 515c-5 -5 1 -14 -12 -7s-61 25 -81 25s-61 -3 -61 -53s121 -113 121 -260c0 -36 -10 -65 -25 -91c-5 -9 -18 -15 -25 -23c-9 -11 -12 -24 -22 -33c-49 -43 -106 -62 -113 -64c-13 -3 -20 -15 -22 9s-14 10 -12 -8s3 -20 3 -36c0 -63 -33 -114 -79 -151 c-9 -7 -23 -10 -33 -16c-5 -3 -5 -9 -10 -12c-50 -28 -107 -43 -148 -43c-74 0 -138 46 -128 64s14 4 21 10s-7 22 -3 37s46 -8 48 11s-40 16 -39 20s3 -2 6 12s-8 37 25 26s55 -23 95 -23c31 0 69 22 69 73c0 27 -19 45 -44 65c-5 4 -9 13 -15 18c-7 6 -17 8 -24 15 c-35 33 -68 78 -68 161c0 44 12 80 32 108c6 8 18 12 25 19c9 9 12 22 22 29c58 43 131 58 150 61c34 6 24 14 9 13s-20 -10 -21 -1s-2 17 -1 32c5 56 32 98 68 129c10 8 24 8 35 15c17 11 32 26 51 33c45 17 91 25 124 25c88 0 137 -47 131 -68s-45 10 -51 -14 s32 -25 29 -39s-4 -13 -13 -27s-9 -36 -14 -41zM387 249c1 2 9 12 17 19s10 20 -14 7s-26 -21 -38 -11s-26 28 -66 28s-53 -27 -53 -59s46 -69 61 -89s24 -11 16 -1s5 9 15 9s68 7 68 72c0 21 -9 15 -6 25z" glyph-name="section" horiz-adv-x="646" unicode="§"/><glyph d="M548 399c-12 6 -20 14 -44 14c-55 0 -125 -77 -125 -150c0 -36 37 -51 52 -51c22 0 43 16 51 16s13 -18 15 -25s5 -8 10 -16s-24 -11 -17 -18s17 12 21 3s12 -15 7 -20s-21 -46 -101 -46c-95 0 -160 54 -160 154c0 116 89 268 249 268c59 0 77 -48 70 -56 s-13 -30 -17 -35s-26 12 -29 1s26 -14 24 -18s6 -27 -6 -21zM332 570c-12 22 -21 16 -15 3s25 -28 5 -39c-44 -24 -163 -119 -163 -256s114 -227 231 -227c106 0 303 95 303 293c0 220 -203 239 -228 239s-63 -4 -97 -16s-24 -19 -36 3zM289 646c1 9 43 54 185 54 c192 0 338 -156 338 -329c0 -296 -280 -435 -434 -435c-96 0 -336 67 -336 326c0 263 203 381 217 389s14 -2 22 -21s7 7 8 16z" glyph-name="copyright" horiz-adv-x="853" unicode="©"/><glyph d="M304 384c-2 -8 -5 -41 -7 -73s-15 -128 -21 -160s4 -31 13 -33s16 9 22 12s2 -13 16 -10s4 27 16 28s-4 -31 7 -33s9 -1 22 2s15 48 19 65s15 68 20 81s12 16 7 -5s2 -25 9 -45s54 -106 60 -108s17 0 27 2s-9 29 2 33s12 -21 21 -29s4 6 17 10s25 0 22 7s-30 94 -36 119 s-8 29 -22 26s-8 7 4 15s63 57 63 118c0 176 -236 118 -259 119s-19 -17 -23 -34s27 -12 25 -25s-27 13 -31 8s2 -12 3 -20s-6 -11 -11 -27s23 -8 40 -9s14 -33 4 -32s6 19 -9 20s-18 -14 -20 -22zM430 347l15 54s32 3 27 -27s-39 -27 -42 -27zM329 570c-12 22 -21 16 -15 3 s25 -28 5 -39c-44 -24 -163 -119 -163 -256s114 -227 231 -227c106 0 303 95 303 293c0 220 -203 239 -228 239s-63 -4 -97 -16s-24 -19 -36 3zM286 646c1 9 43 54 185 54c192 0 338 -156 338 -329c0 -296 -280 -435 -434 -435c-96 0 -336 67 -336 326 c0 263 203 381 217 389s14 -2 22 -21s7 7 8 16z" glyph-name="registered" horiz-adv-x="853" unicode="®"/><glyph d="M608 317c-1 14 -2 42 -4 54s-6 42 -8 69s-7 17 -7 17l-35 -88c-4 -10 -13 -30 -19 -47s-13 -21 -21 -21s-37 -4 -49 -4s-20 3 -21 13s-16 68 -19 81s-11 31 -15 50s30 12 31 23s-25 3 -32 -3s-15 -34 -15 -34l-37 -99c-15 -39 -23 -39 -36 -37s5 40 -4 43 s-20 -44 -31 -43s3 16 -4 20s-17 -23 -31 -21s-14 15 -6 36s29 84 38 108s45 116 56 140s38 96 47 113s28 20 38 18s1 -35 14 -38s-2 35 9 38s32 2 39 -10s20 -97 22 -124s3 -45 11 -51s9 -11 19 -14s7 13 -4 20s-17 15 -13 21s36 74 47 96s32 66 43 66s2 -35 14 -34 s8 33 11 30s13 -2 23 -4s15 10 24 -1s20 -101 24 -125s6 -79 6 -101s11 -147 12 -168s-12 -16 -27 -15s-9 27 -23 29s-4 -29 -11 -30s-7 1 -17 7s-14 -7 -28 -6s-10 12 -11 26zM113 527c-2 -15 0 -6 -4 -27s-14 -114 -17 -143s-4 -54 6 -62s12 -3 25 -2s14 45 29 48 s-5 -51 -5 -51l16 8c9 4 17 -10 27 -7s18 62 18 62l18 97c3 18 20 80 23 101s-17 17 -17 27s25 3 31 3s55 -3 63 3s-4 15 -7 22s9 4 11 18s-26 -2 -27 16s28 5 29 15s6 28 5 38s-13 6 -43 7s-135 1 -155 2s-56 1 -62 -2s-2 -30 -6 -44s33 -8 33 -23s-40 2 -40 0 s1 -11 -4 -23s-3 -19 -1 -24s36 -4 65 -4s38 -12 24 -12s-27 4 -30 -8s-3 -20 -5 -35z" glyph-name="trademark" horiz-adv-x="749" unicode="™"/><glyph d="M35 474c0 165 109 233 190 233s37 -60 54 -60s-1 57 22 57s21 -9 29 -9s22 13 30 12s-7 -52 13 -48s9 46 31 45s14 -30 0 -80s-36 -131 -43 -168s-17 -109 -34 -109s-13 10 -23 8s3 34 -11 29s-26 -32 -41 -33s3 45 -4 52s-8 -32 -20 -40s-20 -16 -63 -16 s-130 21 -130 127zM252 481l9 81l3 18s-4 16 -8 2s-3 -12 -8 -13s-7 16 -23 16c-23 0 -71 -32 -71 -107c0 -36 7 -35 18 -35c28 0 49 35 62 35s6 -40 14 -40s3 35 4 43z" glyph-name="ordfeminine" horiz-adv-x="436" unicode="ª"/><glyph d="M157 647c13 9 -18 25 -1 42s61 18 78 18s139 -12 139 -127s-73 -236 -205 -236s-135 129 -135 154s10 107 83 163c26 20 27 -24 41 -14zM198 607c-3 15 -20 12 -12 -5s13 -25 2 -32c-18 -11 -65 -130 -17 -130c74 0 104 153 56 153c-24 0 -23 -16 -29 14z" glyph-name="degree" horiz-adv-x="400" unicode="°"/><glyph d="M72 476c3 16 -1 27 6 37s28 20 21 27s-23 -23 -35 -18s-49 29 -28 54s64 61 74 76s27 44 44 47s35 1 44 0s-2 -58 21 -48s16 48 33 46s15 -23 7 -54s-14 -43 -9 -55s1 -27 -4 -44s-31 -98 -38 -136s-26 -103 -29 -126s-14 -73 -16 -82s-10 -16 -24 -12s-17 10 -24 8 s-14 -5 -20 -3s14 48 -2 51s-17 -50 -36 -50s-19 22 -14 53s26 213 29 229z" glyph-name="onesuperior" horiz-adv-x="278" unicode="¹"/><glyph d="M87 625c-1 9 41 5 39 17s-40 -2 -44 13s34 48 99 48s140 -66 140 -168s-106 -187 -128 -207s-12 -16 5 -16s85 9 86 -9s-9 -28 -5 -39s5 -18 2 -25s-50 6 -43 -10s42 -4 37 -18s-7 -18 -24 -19s-161 -3 -174 -2s-38 -7 -44 4s-6 15 -6 32s-9 21 0 25s49 -7 43 11 s-54 9 -49 24s0 26 31 51s91 87 117 131s7 90 -32 90s-28 -10 -36 -6c-14 7 -13 64 -14 73z" glyph-name="twosuperior" horiz-adv-x="344" unicode="²"/><glyph d="M118 581c0 54 5 38 9 41s34 -10 38 4s-39 4 -36 28s41 48 86 48s117 -30 117 -141c0 -79 -73 -94 -73 -129c0 -20 27 -14 27 -88c0 -121 -138 -157 -209 -157s-59 29 -49 47s29 3 28 19s-26 7 -15 36s7 33 22 30s89 -11 89 38c0 24 -44 24 -57 18s-11 13 -9 26s2 27 4 33 s35 -9 33 5s-33 3 -32 19s-6 24 7 24s82 -4 82 44s-62 1 -62 55z" glyph-name="threesuperior" horiz-adv-x="361" unicode="³"/><glyph d="M226 51c8 17 75 186 80 198s-2 6 7 27l43 99l31 70c7 16 14 30 19 43l17 40c4 9 18 31 30 58c4 8 4 20 8 28c14 33 28 66 33 76c10 21 35 2 46 2s6 5 21 7s17 -9 27 -14s21 13 39 14s-1 -51 11 -49s14 50 38 49s11 -30 -2 -58l-31 -66c-10 -21 -24 -41 -35 -64 c-9 -19 -15 -41 -23 -57l-24 -49c-15 -28 -70 -144 -77 -161s-43 -85 -50 -99s-37 -85 -47 -112s-21 -32 -39 -34s-16 2 -29 8s-28 -8 -41 -7s7 27 -7 32s-11 -31 -37 -31s-16 33 -8 50zM582 142c20 3 100 -4 117 -2s8 8 13 29s17 14 14 1s-18 -105 -23 -130s-6 -37 10 -39 s29 38 42 36s4 -34 16 -35s47 -4 52 -1s22 112 27 139s27 115 33 141s33 144 43 177s3 49 -11 50s-7 -19 -25 -22s-53 21 -71 19s-11 -47 -33 -57s-3 57 -22 57s-46 5 -55 -8s-58 -72 -75 -100s-52 -75 -80 -111s-24 -50 -17 -72s42 4 43 -9s-39 -13 -35 -38s17 -28 37 -25z M118 581c0 -54 62 -7 62 -55s-69 -44 -82 -44s-6 -8 -7 -24s30 -5 32 -19s-31 1 -33 -5s-2 -20 -4 -33s-4 -32 9 -26s57 6 57 -18c0 -49 -74 -41 -89 -38s-11 -1 -22 -30s14 -20 15 -36s-18 -1 -28 -19s-22 -47 49 -47s209 36 209 157c0 74 -27 68 -27 88c0 35 73 50 73 129 c0 111 -72 141 -117 141s-83 -24 -86 -48s40 -14 36 -28s-34 -1 -38 -4s-9 13 -9 -41zM709 270c-9 4 34 51 41 50s-5 -44 -12 -49s-20 -5 -29 -1z" glyph-name="threequarters" horiz-adv-x="957" unicode="¾"/><glyph d="M152 51c8 17 75 186 80 198s-2 6 7 27l43 99l31 70c7 16 14 30 19 43l17 40c4 9 18 31 30 58c4 8 4 20 8 28c14 33 28 66 33 76c10 21 35 2 46 2s6 5 21 7s17 -9 27 -14s21 13 39 14s-1 -51 11 -49s14 50 38 49s11 -30 -2 -58l-31 -66c-10 -21 -24 -41 -35 -64 c-9 -19 -15 -41 -23 -57l-24 -49c-15 -28 -70 -144 -77 -161s-43 -85 -50 -99s-37 -85 -47 -112s-21 -32 -39 -34s-16 2 -29 8s-28 -8 -41 -7s7 27 -7 32s-11 -31 -37 -31s-16 33 -8 50zM535 435c1 -9 0 -66 14 -73c8 -4 -3 6 36 6s58 -46 32 -90s-89 -106 -120 -131 s-26 -36 -31 -51s43 -6 49 -24s-34 -7 -43 -11s0 -8 0 -25s0 -21 6 -32s31 -3 44 -4s157 1 174 2s19 5 24 19s-30 2 -37 18s40 3 43 10s2 14 -2 25s6 21 5 39s-69 9 -86 9s-27 -4 -5 16s131 105 131 207s-75 168 -140 168s-103 -33 -99 -48s42 -1 44 -13s-40 -8 -39 -17z M72 476c-3 -16 -24 -198 -29 -229s-5 -53 14 -53s20 53 36 50s-4 -49 2 -51s13 1 20 3s10 -4 24 -8s22 3 24 12s13 59 16 82s22 88 29 126s33 119 38 136s9 32 4 44s1 24 9 55s10 52 -7 54s-10 -36 -33 -46s-12 47 -21 48s-27 3 -44 0s-34 -32 -44 -47s-53 -51 -74 -76 s16 -49 28 -54s28 25 35 18s-14 -17 -21 -27s-3 -21 -6 -37z" glyph-name="onehalf" horiz-adv-x="799" unicode="½"/><glyph d="M152 51c8 17 75 186 80 198s-2 6 7 27l43 99l31 70c7 16 14 30 19 43l17 40c4 9 18 31 30 58c4 8 4 20 8 28c14 33 28 66 33 76c10 21 35 2 46 2s6 5 21 7s17 -9 27 -14s21 13 39 14s-1 -51 11 -49s14 50 38 49s11 -30 -2 -58l-31 -66c-10 -21 -24 -41 -35 -64 c-9 -19 -15 -41 -23 -57l-24 -49c-15 -28 -70 -144 -77 -161s-43 -85 -50 -99s-37 -85 -47 -112s-21 -32 -39 -34s-16 2 -29 8s-28 -8 -41 -7s7 27 -7 32s-11 -31 -37 -31s-16 33 -8 50zM509 139c20 3 100 -4 117 -2s8 8 13 29s17 14 14 1s-18 -105 -23 -130s-6 -37 10 -39 s29 38 42 36s4 -34 16 -35s47 -4 52 -1s22 112 27 139s27 115 33 141s33 144 43 177s3 49 -11 50s-7 -19 -25 -22s-53 21 -71 19s-11 -47 -33 -57s-3 57 -22 57s-46 5 -55 -8s-58 -72 -75 -100s-52 -75 -80 -111s-24 -50 -17 -72s42 4 43 -9s-39 -13 -35 -38s17 -28 37 -25z M72 476c-3 -16 -24 -198 -29 -229s-5 -53 14 -53s20 53 36 50s-4 -49 2 -51s13 1 20 3s10 -4 24 -8s22 3 24 12s13 59 16 82s22 88 29 126s33 119 38 136s9 32 4 44s1 24 9 55s10 52 -7 54s-10 -36 -33 -46s-12 47 -21 48s-27 3 -44 0s-34 -32 -44 -47s-53 -51 -74 -76 s16 -49 28 -54s28 25 35 18s-14 -17 -21 -27s-3 -21 -6 -37zM636 267c-9 4 34 51 41 50s-5 -44 -12 -49s-20 -5 -29 -1z" glyph-name="onequarter" horiz-adv-x="897" unicode="¼"/><glyph d="M49 250c2 2 21 42 43 50s98 42 118 50s69 19 81 27s14 14 28 19s105 44 115 46s3 -11 0 -23s-35 -14 -33 -29s24 -7 20 -23s-1 -29 -12 -33s-145 -59 -156 -65s-97 -46 -106 -44s-20 13 -19 5s19 -12 31 -20s97 -50 111 -59s69 -35 77 -41s5 -23 0 -37s-18 0 -16 -19 s7 -32 3 -37s-1 -20 -14 -15s-103 53 -128 67s-91 42 -101 51s-51 23 -57 33s-7 22 -3 28s26 -9 30 5s-26 4 -22 24s15 20 14 28s-6 10 -4 12zM335 213c3 14 33 -6 36 7s-28 20 -26 32s6 14 7 20s-1 10 18 19s71 33 86 37s39 16 51 22s54 23 72 30s62 23 73 28s37 16 55 25 s28 1 22 -19s-27 -17 -22 -25s16 -2 11 -18s-5 -26 -9 -30s-21 -14 -29 -18s-108 -42 -128 -51s-63 -28 -74 -32s-24 -16 -33 -13s-40 15 -26 1s30 -13 44 -22s59 -32 77 -42s71 -34 87 -44s23 -23 17 -40s-27 -1 -29 -17s19 -16 18 -27s-6 -24 -7 -27s-6 -11 -25 0 s-111 57 -126 65s-38 25 -50 29s-61 27 -70 35s-37 12 -32 26s9 35 12 49z" glyph-name="guillemotleft" horiz-adv-x="746" unicode="«"/><glyph d="M101 387c1 10 8 -1 10 16s-7 42 4 40s96 -49 107 -55s89 -49 113 -61s85 -35 78 -55s-23 -9 -29 -24s20 -20 17 -29s-51 -11 -55 -25s45 -16 41 -27s-76 -46 -105 -56s-200 -81 -221 -89s-59 -35 -55 -8s28 19 32 37s-15 26 -11 43s29 23 51 32s158 69 173 73 s51 14 59 11s17 3 -9 15s-99 51 -122 61s-91 41 -90 60s13 2 30 17s-19 14 -18 24zM392 376c4 12 31 -26 37 -8s-36 28 -28 49s20 22 44 8s77 -43 97 -51s134 -70 150 -79s19 -21 13 -38s-43 29 -50 17s39 -33 39 -43s-15 -11 -16 -22s5 -17 4 -30s-13 -24 -41 -38 s-242 -103 -273 -114s-73 -38 -67 -15s13 25 17 38s-4 4 -1 21s39 4 42 14s-41 16 -26 25s129 57 153 65s106 44 109 43s7 -13 16 -17s8 25 -14 32s-40 9 -56 16s-116 63 -133 74s-25 15 -22 30s2 11 6 23z" glyph-name="guillemotright" horiz-adv-x="730" unicode="»"/><glyph d="M32 354c-3 13 2 22 5 46s42 0 49 16s-42 5 -40 27s4 19 7 35s15 20 48 20s198 -5 225 -5s235 5 264 3s31 -15 23 -36s-23 -10 -24 -27s14 -20 10 -30s-48 8 -50 -10s46 -13 38 -40s-43 -175 -49 -197s-19 -9 -39 -10s-26 -13 -44 -8s14 63 -6 63s-20 -62 -41 -65 s-38 13 -19 64s31 107 36 118s10 25 14 42s-2 38 -13 10s-4 -30 -27 -31s-165 8 -192 5s-150 -6 -161 -3s-11 0 -14 13z" glyph-name="logicalnot" horiz-adv-x="649" unicode="¬"/><glyph d="M62 169c-15 0 -30 -2 -28 22c1 10 1 12 3 17c4 9 33 -5 35 2c3 12 -29 4 -27 32s21 25 17 45s-12 39 5 38s194 1 206 1s146 -1 163 0s80 10 75 -10s-35 -23 -38 -29s31 -10 28 -20s-20 -29 -20 -36s-2 -31 -5 -38s3 -10 -42 -12s-208 -2 -215 -3s-9 -7 -29 -8 s-113 -1 -128 -1z" glyph-name="uni00AD" horiz-adv-x="541" unicode="­"/><glyph d="M237 494c0 0 20 87 22 100s2 23 5 35s27 11 38 10s18 -20 33 -15s22 16 31 15s-6 -26 10 -25s19 26 32 25s17 -11 12 -34l-24 -106s-5 -11 21 -10s125 0 126 -3s-5 -24 -8 -35s-44 -14 -36 -27s21 -9 20 -18s-3 -25 -6 -38s1 -27 -18 -27s-62 2 -84 2c-12 0 -24 2 -35 2 c-6 0 -3 15 -2 20c2 13 -5 20 -13 -15l-25 -107s-3 -47 -29 -47s-37 7 -49 6s-19 -6 -26 -6s26 49 7 49s-21 -48 -38 -48s-20 10 -14 42s15 84 18 90s-4 5 -22 4s-97 -2 -111 -3s-22 -1 -14 25s24 24 21 38s-10 31 -7 38s34 -4 32 8s-26 27 -22 37s21 12 43 11s94 2 97 1 s0 -7 -2 -20s8 -16 12 0s5 26 5 26zM37 -1c-15 0 -30 -2 -28 22c1 10 1 12 3 17c4 9 33 -5 35 2c3 12 -29 4 -27 32s21 25 17 45s-12 39 5 38s194 1 206 1s146 -1 163 0s80 10 75 -10s-35 -23 -38 -29s31 -10 28 -20s-20 -29 -20 -36s-2 -31 -5 -38s3 -10 -42 -12 s-208 -2 -215 -3s-9 -7 -29 -8s-113 -1 -128 -1z" glyph-name="plusminus" horiz-adv-x="542" unicode="±"/><glyph d="M243 345c-6 -19 -27 -58 -27 -144s74 -51 85 -44s27 28 22 -10s14 13 19 38s7 64 12 95s21 132 24 171s20 33 36 33s-4 -33 12 -33s9 25 15 23s7 9 20 10s11 -19 23 -26s14 23 35 27s48 8 40 -20s-37 -166 -50 -209s-39 -178 -47 -216s-15 -40 -29 -40s7 42 -9 44 s-21 -41 -34 -43s-6 26 -24 31s-28 -33 -38 -32s-21 -4 -15 22c2 8 4 17 5 25c-4 -4 -10 -9 -20 -15c-52 -31 -111 -31 -119 -31s-21 1 -39 10s-22 -11 -10 -14s34 -4 32 -17s-7 -55 -18 -94s-11 -41 -24 -38s-14 -12 -35 -7s21 30 -1 37s-26 -33 -35 -28s-12 4 -27 2 s-34 -28 -32 -3s15 95 15 95l35 214c5 30 26 186 37 255s16 73 43 72s15 -46 37 -52s21 45 36 36s34 14 54 15s30 -3 25 -19s-23 -101 -29 -120zM292 73c5 0 20 -3 27 -10c0 13 -4 24 -14 25c-21 2 -24 -15 -13 -15z" glyph-name="mu" horiz-adv-x="574" unicode="µ"/><glyph d="M29 247c3 16 0 1 0 2c4 35 10 126 20 132s29 3 35 -3s6 -21 14 -14s19 20 29 18s22 -14 29 -12s0 -47 15 -43s9 51 24 49s33 3 30 -22s-29 -98 -31 -114s-4 -24 -24 -21s-25 15 -36 10s-16 -3 -32 -4s-28 0 -33 2s3 35 -5 29s-14 -27 -23 -28s-15 3 -12 19z" glyph-name="periodcentered" horiz-adv-x="248" unicode="·"/><glyph d="M444 481c10 11 11 37 23 32s34 -8 29 -26c-51 -185 -114 -470 -160 -657c-4 -18 -29 -9 -38 -9s-3 20 -13 21s-15 -14 -30 -18s5 58 -8 60s-18 -54 -36 -56s-35 -5 -17 62s46 188 53 225s26 128 33 149s-9 27 -17 6s-5 -18 -9 -20s-27 11 -28 -1s27 -5 25 -18 s-40 -32 -102 10s-117 81 -117 189s79 268 340 268s207 11 207 -16s-76 8 -76 -23s61 -11 56 -39s-27 -23 -26 -37s17 -13 13 -35s-22 -16 -39 -16s-63 4 -70 -17s-3 -45 7 -34z" glyph-name="paragraph" horiz-adv-x="602" unicode="¶"/><glyph d="M157 647c13 9 -18 25 -1 42s61 18 78 18s139 -12 139 -127s-73 -236 -205 -236s-135 129 -135 154s10 107 83 163c26 20 27 -24 41 -14zM198 607c-3 15 -20 12 -12 -5s13 -25 2 -32c-18 -11 -65 -130 -17 -130c74 0 104 153 56 153c-24 0 -23 -16 -29 14z" glyph-name="ordmasculine" horiz-adv-x="388" unicode="º"/><glyph d="M17 -1c0 -131 94 -196 194 -196s154 40 151 51s-7 13 -12 21s3 16 -2 33s-36 -8 -41 9s41 32 33 51s-34 3 -59 3c-34 0 -74 16 -74 68s59 115 74 139s48 89 60 112s-10 22 -29 21s-17 -47 -39 -48s10 47 -2 49s-14 -5 -24 -1s-25 19 -41 3s-189 -184 -189 -315zM365 399 c-4 -20 -15 -49 -23 -59s-17 -4 -40 2s10 29 -8 37s-26 -35 -45 -34s-39 2 -47 13s9 79 17 112s21 28 29 25s25 4 47 1s9 -28 19 -32s9 32 27 32s42 1 40 -16s-12 -61 -16 -81z" glyph-name="questiondown" horiz-adv-x="401" unicode="¿"/><glyph d="M301 98c0 8 2 5 -1 11s-2 0 -26 -1s-17 2 -38 -2s-32 4 -51 5s-22 -1 -28 -6s-49 -98 -58 -102s-1 15 -5 15s-11 -12 -30 -18s-8 7 -27 11s-15 -8 -50 -9s-20 30 -8 58s55 112 61 126s13 18 13 30s34 57 52 99s113 199 131 236s92 141 106 143s1 -26 10 -30s21 35 31 35 s3 -14 12 -25s7 4 22 17s27 8 52 7s172 1 192 2s76 -2 84 -16s-7 -13 -13 -36s1 -26 0 -46s-49 4 -47 -14s39 3 37 -5s-4 -12 3 -29s-1 -26 -11 -32s-75 -2 -93 -2s-72 9 -81 -3s17 -17 20 -26s-10 -39 -15 -51s-9 -30 -1 -41s34 -7 67 -5s50 -2 49 -14s1 -15 -1 -28 s-26 -1 -25 -11s13 -14 6 -40s-1 -26 -22 -26s-49 -7 -73 -9s-39 -3 -37 10s-7 20 -13 3s-14 -55 -22 -80s-8 -29 2 -40s77 -7 109 -4s49 -3 58 -14s-6 -18 -6 -34s-46 -14 -46 -29s35 1 36 -4s-11 -7 -12 -31s9 -18 2 -34s-38 -7 -62 -6s-113 -2 -136 -1s-108 -12 -121 8 s4 80 4 88zM353 411c7 32 -11 40 -30 5s-67 -119 -73 -134s-34 -48 -17 -48s57 3 66 2s17 7 15 -11s-8 -35 1 -30s13 15 13 45s2 65 8 97s10 42 17 74z" glyph-name="AE" horiz-adv-x="774" unicode="Æ"/><glyph d="M54 247c1 8 18 -2 37 -1s4 14 -5 16s-67 -2 -92 -1s-16 9 -14 21s10 20 14 34s-3 18 -2 29s33 1 36 16s-34 -1 -32 8s0 21 2 41s33 7 63 7s26 23 26 23l8 38c4 11 10 31 15 37s7 8 11 1s9 0 15 0s2 -23 14 -23s7 30 -7 34s-31 0 -42 1s-12 1 -14 11s-1 19 1 26s10 8 8 14 s-10 12 -5 25s27 21 29 33s-31 -24 -25 18s35 46 47 45s22 -5 42 -2s77 0 87 0s13 -4 22 -6s15 1 24 4s26 2 35 -2s88 -21 111 -31s82 -51 107 -155s-21 -228 -25 -240s-23 -44 -34 -54s-1 -33 -65 -102s-156 -99 -173 -101s-21 3 -28 5s-22 -4 -38 1s-8 48 -20 49 s-10 -8 -15 -34s-21 -32 -33 -28s-3 19 -8 19s-7 -8 -11 -11s-16 -11 -22 -12s-13 6 -20 7s8 31 -5 31s-14 -38 -35 -38s-9 63 -8 64s5 57 9 67s6 46 9 65zM253 424c0 -5 1 -3 2 -7s76 -1 85 1s17 1 11 -11c-8 -16 -15 -14 -16 -31c-1 -9 -2 -13 -8 -27s-29 -8 -19 -16 s28 1 21 -13s-15 -10 -14 -26s-22 -22 -37 -22s-25 -1 -38 -1s-15 -2 -18 -4s-5 -17 -5 -24s-8 -33 -13 -39s-11 -43 -5 -51s30 -5 99 38s83 127 87 137s4 25 2 30s10 9 5 79s-74 98 -110 89c-20 -5 -9 -26 -12 -33s-7 -20 -13 -27s-4 -37 -4 -42z" glyph-name="Eth" horiz-adv-x="604" unicode="Ð"/><glyph d="M173 246l-81 97s-17 25 5 41s57 -47 65 -26s-41 46 -22 61s27 3 39 23s18 46 31 34s57 -69 68 -83s17 -31 30 -19s57 46 88 74s48 25 62 5s-3 -33 7 -38s19 1 24 -4s-24 -34 -12 -38s29 16 39 4s-31 -38 -42 -50s-58 -46 -66 -53s-10 2 -21 13s-28 6 -14 -14 s56 -67 71 -85s24 -50 8 -61s-37 8 -40 -1s-3 -37 -10 -41s-41 43 -52 28s25 -51 9 -65s-31 7 -57 38s-38 60 -50 58s-55 -40 -71 -55s-45 -34 -54 -43s-22 -1 -29 13s29 30 21 37s-27 -18 -36 -10s-4 25 -14 31s-25 9 -33 21s19 22 41 44s46 43 58 52s10 16 23 2 s37 -22 15 10z" glyph-name="multiply" horiz-adv-x="557" unicode="×"/><glyph d="M225 637c33 16 42 22 50 17s13 -13 18 -18s15 -5 15 7s-5 12 -4 22s-1 17 15 22s55 14 86 12l17 68c4 11 11 42 22 39s18 -23 33 -16s9 11 22 10c13 -2 2 -34 15 -31c12 4 6 30 15 26c10 -3 26 4 9 -49c-9 -31 -19 -58 -26 -78c17 -10 32 -22 42 -37 c31 -49 18 -41 22 -44s9 -5 12 -10s25 -54 29 -78s7 -110 -13 -166c-6 -17 -16 -42 -30 -72c-5 -11 -17 -22 -23 -34c-5 -9 -4 -18 -10 -28c-33 -55 -79 -112 -137 -149c-60 -38 -105 -47 -138 -50l-3 -11c-17 -53 -28 -98 -34 -110c-6 -11 -13 -6 -23 -4s-15 1 -21 7 c-7 5 -1 17 -9 13c-9 -3 -17 -10 -24 -10c-7 1 12 25 -1 28s-18 -25 -32 -22c-5 2 -2 16 3 34c7 32 22 78 25 86c1 2 1 6 3 10c-24 12 -49 31 -70 59c-4 5 -3 12 -6 18c-4 7 -13 12 -17 20c-17 36 -27 82 -27 142c0 59 12 106 26 143c3 8 10 10 13 17c1 3 0 12 1 15 c19 39 38 63 40 74c3 23 1 29 12 43s70 69 103 85zM332 483c-49 -19 -99 -77 -104 -87s0 -13 -2 -20s-13 -13 -25 -43s-42 -170 53 -170s125 85 132 91s15 11 12 16s2 17 21 72s11 111 3 134s-42 46 -52 49s-11 17 -19 14s1 -20 6 -33s1 -13 -25 -23zM327 557 c3 -10 36 4 32 13s-35 -3 -32 -13z" glyph-name="Oslash" horiz-adv-x="648" unicode="Ø"/><glyph d="M146 21c3 16 0 1 0 2c4 35 10 126 20 132s29 3 35 -3s6 -21 14 -14s19 20 29 18s22 -14 29 -12s0 -47 15 -43s9 51 24 49s33 3 30 -22s-29 -98 -31 -114s-4 -24 -24 -21s-25 15 -36 10s-16 -3 -32 -4s-28 0 -33 2s3 35 -5 29s-14 -27 -23 -28s-15 3 -12 19zM196 375 c3 16 0 1 0 2c4 35 10 126 20 132s29 3 35 -3s6 -21 14 -14s19 20 29 18s22 -14 29 -12s0 -47 15 -43s9 51 24 49s33 3 30 -22s-29 -98 -31 -114s-4 -24 -24 -21s-25 15 -36 10s-16 -3 -32 -4s-28 0 -33 2s3 35 -5 29s-14 -27 -23 -28s-15 3 -12 19zM62 169 c-15 0 -30 -2 -28 22c1 10 1 12 3 17c4 9 33 -5 35 2c3 12 -29 4 -27 32s21 25 17 45s-12 39 5 38s194 1 206 1s146 -1 163 0s80 10 75 -10s-35 -23 -38 -29s31 -10 28 -20s-20 -29 -20 -36s-2 -31 -5 -38s3 -10 -42 -12s-208 -2 -215 -3s-9 -7 -29 -8s-113 -1 -128 -1z" glyph-name="divide" horiz-adv-x="546" unicode="÷"/><glyph d="M22 48l12 94c7 53 47 259 56 294s41 201 48 231s15 67 24 82s39 7 47 5s1 -37 11 -36s17 33 20 34s11 -8 11 -8l26 7c4 1 3 -16 12 -18s13 17 22 18s31 -3 27 -17s-22 -72 -25 -91c-5 -30 -19 -27 32 -33s174 -38 174 -188c0 -199 -240 -290 -283 -290 c-11 0 -21 1 -22 20s2 18 7 37s-12 21 -18 -4s-29 -121 -34 -149s-7 -34 -18 -35s-7 4 -17 9s-23 -11 -35 -9s17 26 1 29s-24 -28 -30 -28s-3 1 -13 2s-14 -5 -31 -5s-6 31 -4 49zM266 422c-3 -5 -31 -120 -33 -139s4 -30 8 -21s15 16 27 19s86 51 86 102s-45 62 -57 62 s-23 1 -38 2s-19 -7 -2 -9s12 -11 9 -16z" glyph-name="Thorn" horiz-adv-x="556" unicode="Þ"/><glyph d="M195 49c1 16 -9 32 -13 14s0 -49 -8 -58s-17 -6 -27 -4s-10 14 -23 12s-22 -11 -27 -10s9 50 -6 52s-18 -54 -30 -54s-11 10 -20 6s-20 -5 -17 32c2 20 7 57 13 92l3 15c2 10 7 16 8 25c2 12 0 25 1 32c5 27 31 158 48 228c4 15 13 25 15 33c4 14 3 30 8 46s12 32 19 48 c10 23 23 46 40 66c9 11 21 16 33 25c8 6 16 16 25 21c30 16 67 26 114 26c100 0 146 -50 166 -100c3 -7 3 -20 5 -27c2 -8 6 -10 7 -18c4 -23 4 -42 2 -52c-11 -85 -101 -142 -101 -142s35 -15 54 -66c2 -5 0 -18 1 -24c2 -7 7 -7 8 -15c2 -11 3 -24 3 -38 c0 -50 -28 -98 -66 -135c-6 -6 -12 -7 -18 -12c-10 -8 -20 -20 -31 -27c-38 -25 -79 -40 -112 -40c-70 0 -75 33 -74 49zM206 135c3 14 11 14 22 12s50 4 74 40c6 10 11 22 13 35s8 26 4 38c-2 7 -12 15 -17 21c-9 10 -23 17 -43 17c-34 0 -36 -23 -41 -46s-15 -86 -18 -103 s3 -28 6 -14zM255 402c2 -4 4 -5 14 -7c9 -2 34 0 62 24c29 25 38 58 30 85c-9 26 -63 38 -81 -11l-11 -33c-2 -6 -7 -11 -9 -17s0 -13 -1 -18c-3 -12 -5 -21 -4 -23z" glyph-name="germandbls" horiz-adv-x="552" unicode="ß"/><glyph d="M62 169c-15 0 -30 -2 -28 22c1 10 1 12 3 17c4 9 33 -5 35 2c3 12 -29 4 -27 32s21 25 17 45s-12 39 5 38s194 1 206 1s146 -1 163 0s80 10 75 -10s-35 -23 -38 -29s31 -10 28 -20s-20 -29 -20 -36s-2 -31 -5 -38s3 -10 -42 -12s-208 -2 -215 -3s-9 -7 -29 -8 s-113 -1 -128 -1z" glyph-name="minus" horiz-adv-x="541" unicode="−"/><glyph d="M473 555c0 0 -360 -6 -364 -6s-29 4 -27 32s21 25 17 45s-12 39 5 38s194 1 206 1s102 -1 119 0s80 10 75 -10s-35 -23 -38 -29s31 -10 28 -20s-20 -29 -20 -36c0 -3 0 -9 -1 -15z" glyph-name="uni02C9" horiz-adv-x="577" unicode="ˉ"/><glyph d="M241 612c44 0 64 29 67 37s21 6 37 3s3 -14 15 -14s12 14 17 15s-2 -28 6 -24s9 22 11 22s32 8 25 -11c-20 -53 -86 -126 -203 -126c-128 0 -148 103 -140 129c3 11 12 8 21 8s15 -22 24 -23s4 22 7 22s20 1 27 0s22 11 26 -7s35 -31 60 -31z" glyph-name="breve" horiz-adv-x="450" unicode="˘"/><glyph d="M82 587c3 16 0 1 0 2c4 35 10 126 20 132s29 3 35 -3s6 -21 14 -14s19 20 29 18s22 -14 29 -12s0 -47 15 -43s9 51 24 49s33 3 30 -22s-29 -98 -31 -114s-4 -24 -24 -21s-25 15 -36 10s-16 -3 -32 -4s-28 0 -33 2s3 35 -5 29s-14 -27 -23 -28s-15 3 -12 19z" glyph-name="dotaccent" horiz-adv-x="342" unicode="˙"/><glyph d="M149 24c3 8 10 4 22 6s61 2 57 -16s-14 -46 -20 -76c-2 -8 -4 -12 -13 -14c-10 -2 -59 -18 -59 -58c0 -20 9 -41 52 -41c5 0 8 -6 10 -15c1 -5 -26 -11 -26 -17c0 -5 28 -9 28 -14c0 -6 -5 -10 -6 -15c-2 -9 -2 -16 -6 -16c-108 0 -138 67 -138 117c0 23 11 42 25 57 c3 4 9 3 13 6c6 5 10 13 16 17c21 12 41 18 48 18c15 0 14 6 -1 8c-8 1 -12 1 -10 9s5 36 8 44z" glyph-name="ogonek" horiz-adv-x="252" unicode="˛"/><glyph d="M150 709c7 15 19 24 30 24s7 -13 19 -10s21 8 28 9s-16 -23 0 -24s17 23 31 24s41 2 34 -6s-48 -48 -57 -61s-69 -75 -84 -92s-30 -33 -35 -34s-13 -3 -15 3s15 19 13 26s-6 1 -17 -12s-8 -20 -17 -18s-6 8 -15 7s-16 -12 -18 -6s-5 7 8 25s31 48 40 64s48 66 55 81z M309 698c5 9 24 35 36 35s-4 -22 5 -23s18 20 28 21s3 -3 20 -2s42 3 51 3s14 -5 -1 -18s-67 -71 -84 -89s-59 -66 -67 -74s-12 -13 -18 -12s0 12 -1 22s-11 -17 -21 -20s6 11 -10 6s-1 -10 -19 -9s-23 2 -8 24s39 57 48 77s36 50 41 59z" glyph-name="hungarumlaut" horiz-adv-x="505" unicode="˝"/><glyph d="M143 89c-2 -7 -6 -16 -8 -18s-6 -12 -8 -19s-19 -40 -24 -43s-5 -7 -8 -7s-8 -6 -10 -4s10 29 4 29s-16 -17 -21 -18s-8 -5 -14 -7s-12 -3 -16 -1s1 15 -3 16s-1 8 -10 8s-4 -5 -13 -10s1 -10 -9 -12s-10 -6 -21 -4s-33 9 -13 53s63 132 68 138s14 14 12 21s1 13 2 16 s80 150 87 162s57 94 61 99s10 25 12 29l72 119s38 62 49 62s3 -30 17 -30s13 31 20 31s8 -8 16 -6s10 4 16 6s0 -30 16 -30s5 29 13 31s9 -1 19 1s15 6 22 3s15 -134 14 -156s5 -144 3 -147s-3 -13 -3 -19s6 -21 5 -24s3 -335 0 -341s0 -17 -6 -17s-15 -1 -19 1s-4 9 -8 9 s-11 -3 -14 -5s-10 -6 -13 -6s-6 32 -16 32s-5 -26 -10 -27s0 -3 -10 -4s-6 17 -12 17s-23 -21 -33 -19s-15 4 -15 14s0 68 -2 70s0 2 1 12v16c-6 0 -14 1 -27 1c-16 0 -13 -1 -33 0s-15 -1 -30 -2s-14 -5 -28 0s-7 6 -19 5s-12 -1 -19 -3c-5 -2 -14 -2 -22 -1 c-4 -8 -10 -15 -12 -21zM418 812c44 0 64 29 67 37s21 6 37 3s3 -14 15 -14s12 14 17 15s-2 -28 6 -24s9 22 11 22s32 8 25 -11c-20 -53 -86 -126 -203 -126c-128 0 -148 103 -140 129c3 11 12 8 21 8s15 -22 24 -23s4 22 7 22s20 1 27 0s22 11 26 -7s35 -31 60 -31z M225 236h3c9 -1 26 1 35 1s38 0 48 -2s5 -11 2 -19s-17 -5 -22 -9s4 -5 13 -9s15 10 19 14s-2 44 -1 51s5 96 7 114s3 53 -2 55s-17 -26 -25 -48s-51 -91 -61 -111s-25 -34 -16 -37zM300 155c0 -12 33 -13 33 -1s-33 13 -33 1z" glyph-name="Abreve" horiz-adv-x="567" unicode="Ă"/><glyph d="M143 89c-2 -7 -6 -16 -8 -18s-6 -12 -8 -19s-19 -40 -24 -43s-5 -7 -8 -7s-8 -6 -10 -4s10 29 4 29s-16 -17 -21 -18s-8 -5 -14 -7s-12 -3 -16 -1s1 15 -3 16s-1 8 -10 8s-4 -5 -13 -10s1 -10 -9 -12s-10 -6 -21 -4s-33 9 -13 53s63 132 68 138s14 14 12 21s1 13 2 16 s80 150 87 162s57 94 61 99s10 25 12 29l72 119s38 62 49 62s3 -30 17 -30s13 31 20 31s8 -8 16 -6s10 4 16 6s0 -30 16 -30s5 29 13 31s9 -1 19 1s15 6 22 3s15 -134 14 -156s5 -144 3 -147s-3 -13 -3 -19s6 -21 5 -24s3 -335 0 -341s0 -17 -6 -17s-15 -1 -19 1s-4 9 -8 9 h-3c-5 -18 -14 -44 -19 -72c-2 -8 -4 -12 -13 -14c-10 -2 -59 -18 -59 -58c0 -20 9 -41 52 -41c5 0 8 -6 10 -15c1 -5 -26 -11 -26 -17c0 -5 28 -9 28 -14c0 -6 -5 -10 -6 -15c-2 -9 -2 -16 -6 -16c-108 0 -138 67 -138 117c0 23 11 42 25 57c3 4 9 3 13 6c6 5 10 13 16 17 c21 12 41 18 48 18c15 0 14 6 -1 8c-8 1 -12 1 -10 9l5 32c-8 -6 -18 -15 -24 -14c-10 2 -15 4 -15 14s0 68 -2 70s0 2 1 12v16c-6 0 -14 1 -27 1c-16 0 -13 -1 -33 0s-15 -1 -30 -2s-14 -5 -28 0s-7 6 -19 5s-12 -1 -19 -3c-5 -2 -14 -2 -22 -1c-4 -8 -10 -15 -12 -21z M225 236h3c9 -1 26 1 35 1s38 0 48 -2s5 -11 2 -19s-17 -5 -22 -9s4 -5 13 -9s15 10 19 14s-2 44 -1 51s5 96 7 114s3 53 -2 55s-17 -26 -25 -48s-51 -91 -61 -111s-25 -34 -16 -37zM300 155c0 -12 33 -13 33 -1s-33 13 -33 1z" glyph-name="Aogonek" horiz-adv-x="567" unicode="Ą"/><glyph d="M427 529c-24 0 -46 -5 -66 -14c-8 -3 -16 -7 -23 -11l-10 -6c-5 -3 -14 -5 -18 -9c-5 -4 -6 -9 -10 -13c-70 -62 -109 -164 -109 -216c0 -15 3 -30 8 -42c2 -4 8 -8 6 -12c-10 -21 2 -12 7 -11c6 1 7 -9 11 -13c25 -26 57 -38 73 -38c28 0 69 23 76 26s23 2 27 -4 s1 -9 3 -14s3 -8 1 -13s-11 -4 -14 -6s-8 -12 -5 -18s27 11 27 8s0 -18 -1 -25s3 -10 7 -14s7 -9 9 -18s-31 -68 -155 -68c-145 0 -210 90 -234 178c-12 45 -14 89 -9 121c2 13 4 26 7 39c1 3 5 5 6 9c1 3 -2 7 -1 10l6 22c11 34 26 68 43 102c7 14 15 27 23 40 c7 10 17 13 24 23c3 4 3 15 6 19l7 9l5 6l14 16c76 79 205 111 253 111s108 -33 108 -40s3 -20 3 -28s-7 -17 -9 -25s-5 -8 -11 -10s-5 2 -10 3s-9 1 -13 -5s15 -19 19 -21s-2 -12 -8 -24s-5 -12 -5 -21s-2 -24 -9 -26s-17 23 -59 23zM350 787c3 16 0 1 0 2 c4 35 10 126 20 132s29 3 35 -3s6 -21 14 -14s19 20 29 18s22 -14 29 -12s0 -47 15 -43s9 51 24 49s33 3 30 -22s-29 -98 -31 -114s-4 -24 -24 -21s-25 15 -36 10s-16 -3 -32 -4s-28 0 -33 2s3 35 -5 29s-14 -27 -23 -28s-15 3 -12 19z" glyph-name="Cdotaccent" horiz-adv-x="522" unicode="Ċ"/><glyph d="M54 247c1 8 18 -2 37 -1s4 14 -5 16s-67 -2 -92 -1s-16 9 -14 21s10 20 14 34s-3 18 -2 29s33 1 36 16s-34 -1 -32 8s0 21 2 41s33 7 63 7s26 23 26 23l8 38c4 11 10 31 15 37s7 8 11 1s9 0 15 0s2 -23 14 -23s7 30 -7 34s-31 0 -42 1s-12 1 -14 11s-1 19 1 26s10 8 8 14 s-10 12 -5 25s27 21 29 33s-31 -24 -25 18s35 46 47 45s22 -5 42 -2s77 0 87 0s13 -4 22 -6s15 1 24 4s26 2 35 -2s88 -21 111 -31s82 -51 107 -155s-21 -228 -25 -240s-23 -44 -34 -54s-1 -33 -65 -102s-156 -99 -173 -101s-21 3 -28 5s-22 -4 -38 1s-8 48 -20 49 s-10 -8 -15 -34s-21 -32 -33 -28s-3 19 -8 19s-7 -8 -11 -11s-16 -11 -22 -12s-13 6 -20 7s8 31 -5 31s-14 -38 -35 -38s-9 63 -8 64s5 57 9 67s6 46 9 65zM253 424c0 -5 1 -3 2 -7s76 -1 85 1s17 1 11 -11c-8 -16 -15 -14 -16 -31c-1 -9 -2 -13 -8 -27s-29 -8 -19 -16 s28 1 21 -13s-15 -10 -14 -26s-22 -22 -37 -22s-25 -1 -38 -1s-15 -2 -18 -4s-5 -17 -5 -24s-8 -33 -13 -39s-11 -43 -5 -51s30 -5 99 38s83 127 87 137s4 25 2 30s10 9 5 79s-74 98 -110 89c-20 -5 -9 -26 -12 -33s-7 -20 -13 -27s-4 -37 -4 -42z" glyph-name="Dcroat" horiz-adv-x="604" unicode="Đ"/><glyph d="M448 555c0 0 -335 -6 -339 -6s-29 4 -27 32s21 25 17 45s-12 39 5 38s194 1 206 1s77 -1 94 0s80 10 75 -10s-35 -23 -38 -29s31 -10 28 -20s-20 -29 -20 -36c0 -3 0 -9 -1 -15z" glyph-name="macron" horiz-adv-x="577" unicode="¯"/><glyph d="M93 520c-14 3 -16 14 -14 25s10 25 14 30s1 12 2 19s-2 9 -7 15s0 14 1 19s15 6 17 7s9 5 7 11s-20 0 -20 8s3 16 7 18s44 10 62 13s26 4 39 10s64 2 84 3s143 1 166 2s28 -9 30 -18s-3 -9 -7 -12s-5 0 -8 -3s4 -10 3 -13s-7 -4 -14 -1s-14 -7 -10 -15s30 -6 30 -17 s-12 -18 -17 -23s-9 -17 -9 -17l7 -13c2 -3 3 -20 1 -32s-17 -18 -22 -17s-48 1 -58 1s-84 2 -93 2s-5 -9 -1 -15s10 -11 11 -15s-3 -11 -6 -21s-10 -38 -13 -45s-1 -18 3 -28s89 -4 95 -3s16 -8 17 -14s-16 -11 -17 -16s10 -4 13 -15s-8 -30 -8 -32s-8 -20 -7 -28 s-12 -16 -24 -15s-28 -5 -37 -8s-60 -2 -65 -1s-4 9 -2 12s-3 11 -9 9s-14 -36 -14 -44s-16 -54 -18 -75s76 -10 81 -12s22 -2 33 -1s22 -2 29 -1s-1 0 12 0s19 -6 20 -13s0 -11 -2 -17s-2 -2 -5 -8s-3 -2 -10 -4s-5 -5 -8 -10s0 -4 4 -11s1 -4 2 -8s2 -12 1 -18 s0 -7 -6 -10s-4 5 -10 3s-5 -5 -6 -13s9 -4 14 -4s5 -10 5 -23s-12 -11 -19 -13s-47 -1 -63 -3s-77 3 -83 1s-5 10 -13 15s-13 -6 -20 -12s-23 -1 -36 -1s-64 -3 -80 -2s-17 19 -18 27s4 32 8 41s4 70 6 84s11 47 17 56s4 23 1 33s17 111 20 121s14 58 16 70s4 12 11 15 s0 36 6 47s10 4 22 3s19 6 23 7s0 -28 3 -38s4 -3 11 -2s3 46 1 51s-11 1 -22 0s-40 -1 -54 2zM478 755c0 0 -335 -6 -339 -6s-29 4 -27 32s21 25 17 45s-12 39 5 38s194 1 206 1s77 -1 94 0s80 10 75 -10s-35 -23 -38 -29s31 -10 28 -20s-20 -29 -20 -36c0 -3 0 -9 -1 -15z" glyph-name="Emacron" horiz-adv-x="504" unicode="Ē"/><glyph d="M143 89c-2 -7 -6 -16 -8 -18s-6 -12 -8 -19s-19 -40 -24 -43s-5 -7 -8 -7s-8 -6 -10 -4s10 29 4 29s-16 -17 -21 -18s-8 -5 -14 -7s-12 -3 -16 -1s1 15 -3 16s-1 8 -10 8s-4 -5 -13 -10s1 -10 -9 -12s-10 -6 -21 -4s-33 9 -13 53s63 132 68 138s14 14 12 21s1 13 2 16 s80 150 87 162s57 94 61 99s10 25 12 29l72 119s38 62 49 62s3 -30 17 -30s13 31 20 31s8 -8 16 -6s10 4 16 6s0 -30 16 -30s5 29 13 31s9 -1 19 1s15 6 22 3s15 -134 14 -156s5 -144 3 -147s-3 -13 -3 -19s6 -21 5 -24s3 -335 0 -341s0 -17 -6 -17s-15 -1 -19 1s-4 9 -8 9 s-11 -3 -14 -5s-10 -6 -13 -6s-6 32 -16 32s-5 -26 -10 -27s0 -3 -10 -4s-6 17 -12 17s-23 -21 -33 -19s-15 4 -15 14s0 68 -2 70s0 2 1 12v16c-6 0 -14 1 -27 1c-16 0 -13 -1 -33 0s-15 -1 -30 -2s-14 -5 -28 0s-7 6 -19 5s-12 -1 -19 -3c-5 -2 -14 -2 -22 -1 c-4 -8 -10 -15 -12 -21zM562 755c0 0 -335 -6 -339 -6s-29 4 -27 32s21 25 17 45s-12 39 5 38s194 1 206 1s77 -1 94 0s80 10 75 -10s-35 -23 -38 -29s31 -10 28 -20s-20 -29 -20 -36c0 -3 0 -9 -1 -15zM225 236h3c9 -1 26 1 35 1s38 0 48 -2s5 -11 2 -19s-17 -5 -22 -9 s4 -5 13 -9s15 10 19 14s-2 44 -1 51s5 96 7 114s3 53 -2 55s-17 -26 -25 -48s-51 -91 -61 -111s-25 -34 -16 -37zM300 155c0 -12 33 -13 33 -1s-33 13 -33 1z" glyph-name="Amacron" horiz-adv-x="567" unicode="Ā"/><glyph d="M93 520c-14 3 -16 14 -14 25s10 25 14 30s1 12 2 19s-2 9 -7 15s0 14 1 19s15 6 17 7s9 5 7 11s-20 0 -20 8s3 16 7 18s44 10 62 13s26 4 39 10s64 2 84 3s143 1 166 2s28 -9 30 -18s-3 -9 -7 -12s-5 0 -8 -3s4 -10 3 -13s-7 -4 -14 -1s-14 -7 -10 -15s30 -6 30 -17 s-12 -18 -17 -23s-9 -17 -9 -17l7 -13c2 -3 3 -20 1 -32s-17 -18 -22 -17s-48 1 -58 1s-84 2 -93 2s-5 -9 -1 -15s10 -11 11 -15s-3 -11 -6 -21s-10 -38 -13 -45s-1 -18 3 -28s89 -4 95 -3s16 -8 17 -14s-16 -11 -17 -16s10 -4 13 -15s-8 -30 -8 -32s-8 -20 -7 -28 s-12 -16 -24 -15s-28 -5 -37 -8s-60 -2 -65 -1s-4 9 -2 12s-3 11 -9 9s-14 -36 -14 -44s-16 -54 -18 -75s76 -10 81 -12s22 -2 33 -1s22 -2 29 -1s-1 0 12 0s19 -6 20 -13s0 -11 -2 -17s-2 -2 -5 -8s-3 -2 -10 -4s-5 -5 -8 -10s0 -4 4 -11s1 -4 2 -8s2 -12 1 -18 s0 -7 -6 -10s-4 5 -10 3s-5 -5 -6 -13s9 -4 14 -4s5 -10 5 -23s-12 -11 -19 -13s-47 -1 -63 -3s-77 3 -83 1s-5 10 -13 15s-13 -6 -20 -12s-23 -1 -36 -1s-64 -3 -80 -2s-17 19 -18 27s4 32 8 41s4 70 6 84s11 47 17 56s4 23 1 33s17 111 20 121s14 58 16 70s4 12 11 15 s0 36 6 47s10 4 22 3s19 6 23 7s0 -28 3 -38s4 -3 11 -2s3 46 1 51s-11 1 -22 0s-40 -1 -54 2zM336 812c44 0 64 29 67 37s21 6 37 3s3 -14 15 -14s12 14 17 15s-2 -28 6 -24s9 22 11 22s32 8 25 -11c-20 -53 -86 -126 -203 -126c-128 0 -148 103 -140 129c3 11 12 8 21 8 s15 -22 24 -23s4 22 7 22s20 1 27 0s22 11 26 -7s35 -31 60 -31z" glyph-name="Ebreve" horiz-adv-x="504" unicode="Ĕ"/><glyph d="M93 520c-14 3 -16 14 -14 25s10 25 14 30s1 12 2 19s-2 9 -7 15s0 14 1 19s15 6 17 7s9 5 7 11s-20 0 -20 8s3 16 7 18s44 10 62 13s26 4 39 10s64 2 84 3s143 1 166 2s28 -9 30 -18s-3 -9 -7 -12s-5 0 -8 -3s4 -10 3 -13s-7 -4 -14 -1s-14 -7 -10 -15s30 -6 30 -17 s-12 -18 -17 -23s-9 -17 -9 -17l7 -13c2 -3 3 -20 1 -32s-17 -18 -22 -17s-48 1 -58 1s-84 2 -93 2s-5 -9 -1 -15s10 -11 11 -15s-3 -11 -6 -21s-10 -38 -13 -45s-1 -18 3 -28s89 -4 95 -3s16 -8 17 -14s-16 -11 -17 -16s10 -4 13 -15s-8 -30 -8 -32s-8 -20 -7 -28 s-12 -16 -24 -15s-28 -5 -37 -8s-60 -2 -65 -1s-4 9 -2 12s-3 11 -9 9s-14 -36 -14 -44s-16 -54 -18 -75s76 -10 81 -12s22 -2 33 -1s22 -2 29 -1s-1 0 12 0s19 -6 20 -13s0 -11 -2 -17s-2 -2 -5 -8s-3 -2 -10 -4s-5 -5 -8 -10s0 -4 4 -11s1 -4 2 -8s2 -12 1 -18 s0 -7 -6 -10s-4 5 -10 3s-5 -5 -6 -13s9 -4 14 -4s5 -10 5 -23s-12 -11 -19 -13s-47 -1 -63 -3s-77 3 -83 1s-5 10 -13 15s-13 -6 -20 -12s-23 -1 -36 -1s-64 -3 -80 -2s-17 19 -18 27s4 32 8 41s4 70 6 84s11 47 17 56s4 23 1 33s17 111 20 121s14 58 16 70s4 12 11 15 s0 36 6 47s10 4 22 3s19 6 23 7s0 -28 3 -38s4 -3 11 -2s3 46 1 51s-11 1 -22 0s-40 -1 -54 2zM227 787c3 16 0 1 0 2c4 35 10 126 20 132s29 3 35 -3s6 -21 14 -14s19 20 29 18s22 -14 29 -12s0 -47 15 -43s9 51 24 49s33 3 30 -22s-29 -98 -31 -114s-4 -24 -24 -21 s-25 15 -36 10s-16 -3 -32 -4s-28 0 -33 2s3 35 -5 29s-14 -27 -23 -28s-15 3 -12 19z" glyph-name="Edotaccent" horiz-adv-x="504" unicode="Ė"/><glyph d="M93 520c-14 3 -16 14 -14 25s10 25 14 30s1 12 2 19s-2 9 -7 15s0 14 1 19s15 6 17 7s9 5 7 11s-20 0 -20 8s3 16 7 18s44 10 62 13s26 4 39 10s64 2 84 3s143 1 166 2s28 -9 30 -18s-3 -9 -7 -12s-5 0 -8 -3s4 -10 3 -13s-7 -4 -14 -1s-14 -7 -10 -15s30 -6 30 -17 s-12 -18 -17 -23s-9 -17 -9 -17l7 -13c2 -3 3 -20 1 -32s-17 -18 -22 -17s-48 1 -58 1s-84 2 -93 2s-5 -9 -1 -15s10 -11 11 -15s-3 -11 -6 -21s-10 -38 -13 -45s-1 -18 3 -28s89 -4 95 -3s16 -8 17 -14s-16 -11 -17 -16s10 -4 13 -15s-8 -30 -8 -32s-8 -20 -7 -28 s-12 -16 -24 -15s-28 -5 -37 -8s-60 -2 -65 -1s-4 9 -2 12s-3 11 -9 9s-14 -36 -14 -44s-16 -54 -18 -75s76 -10 81 -12s22 -2 33 -1s22 -2 29 -1s-1 0 12 0s19 -6 20 -13s0 -11 -2 -17s-2 -2 -5 -8s-3 -2 -10 -4s-5 -5 -8 -10s0 -4 4 -11s1 -4 2 -8s2 -12 1 -18 s0 -7 -6 -10s-4 5 -10 3s-5 -5 -6 -13s9 -4 14 -4s5 -10 5 -23s-12 -11 -19 -13s-47 -1 -63 -3c-10 -2 -38 0 -59 1c-5 -17 -12 -40 -17 -65c-2 -8 -4 -12 -13 -14c-10 -2 -59 -18 -59 -58c0 -20 9 -41 52 -41c5 0 8 -6 10 -15c1 -5 -26 -11 -26 -17c0 -5 28 -9 28 -14 c0 -6 -5 -10 -6 -15c-2 -9 -2 -16 -6 -16c-108 0 -138 67 -138 117c0 23 11 42 25 57c3 4 9 3 13 6c6 5 10 13 16 17c21 12 41 18 48 18c15 0 14 6 -1 8c-8 1 -12 1 -10 9l4 24c-5 0 -9 1 -13 1c-13 0 -64 -3 -80 -2s-17 19 -18 27s4 32 8 41s4 70 6 84s11 47 17 56 s4 23 1 33s17 111 20 121s14 58 16 70s4 12 11 15s0 36 6 47s10 4 22 3s19 6 23 7s0 -28 3 -38s4 -3 11 -2s3 46 1 51s-11 1 -22 0s-40 -1 -54 2z" glyph-name="Eogonek" horiz-adv-x="504" unicode="Ę"/><glyph d="M303 275c-2 1 -9 -5 -14 -6s-9 12 -9 21s29 0 34 4s-5 4 -11 12s-23 4 -21 15s2 15 8 20s10 9 14 16s-11 6 -9 13s2 14 2 25s8 6 30 9s94 -2 110 -4s36 -2 45 -4s10 3 18 6s19 -5 29 -5s5 -4 5 -17s-8 -42 -14 -47s-4 -9 -5 -19s-1 -3 -30 -97s-117 -161 -125 -169 s-6 0 -16 1s-18 -17 -23 -23s-51 -35 -124 -26c-150 19 -167 208 -171 215s1 29 4 39s-11 23 -5 83s73 181 86 195s24 33 29 36s4 -2 11 5s-4 13 42 52s127 70 204 77s133 -45 140 -50s-3 -26 -4 -32s-4 -21 -10 -23s-12 -15 -17 -21s-9 -17 -16 -17s-4 7 -7 10 s-19 -7 -19 -15s6 -10 13 -14s-1 -10 -8 -17s-23 -15 -31 -12s-1 18 -32 19s-50 -14 -86 -33s-60 -53 -63 -61s-14 -16 -20 -15s-12 -14 -10 -18s3 -7 -19 -40s-37 -122 -29 -162s37 -56 45 -58s30 -3 42 1s36 26 41 36s34 54 35 67s6 13 11 13s7 1 16 4s6 1 11 -5 s0 -10 -3 -17s3 -15 7 -16s7 8 9 20s0 26 -1 28s-10 0 -21 1s-18 1 -33 0s-33 -1 -35 0zM413 812c44 0 64 29 67 37s21 6 37 3s3 -14 15 -14s12 14 17 15s-2 -28 6 -24s9 22 11 22s32 8 25 -11c-20 -53 -86 -126 -203 -126c-128 0 -148 103 -140 129c3 11 12 8 21 8 s15 -22 24 -23s4 22 7 22s20 1 27 0s22 11 26 -7s35 -31 60 -31z" glyph-name="Gbreve" horiz-adv-x="558" unicode="Ğ"/><glyph d="M303 275c-2 1 -9 -5 -14 -6s-9 12 -9 21s29 0 34 4s-5 4 -11 12s-23 4 -21 15s2 15 8 20s10 9 14 16s-11 6 -9 13s2 14 2 25s8 6 30 9s94 -2 110 -4s36 -2 45 -4s10 3 18 6s19 -5 29 -5s5 -4 5 -17s-8 -42 -14 -47s-4 -9 -5 -19s-1 -3 -30 -97s-117 -161 -125 -169 s-6 0 -16 1s-18 -17 -23 -23s-51 -35 -124 -26c-150 19 -167 208 -171 215s1 29 4 39s-11 23 -5 83s73 181 86 195s24 33 29 36s4 -2 11 5s-4 13 42 52s127 70 204 77s133 -45 140 -50s-3 -26 -4 -32s-4 -21 -10 -23s-12 -15 -17 -21s-9 -17 -16 -17s-4 7 -7 10 s-19 -7 -19 -15s6 -10 13 -14s-1 -10 -8 -17s-23 -15 -31 -12s-1 18 -32 19s-50 -14 -86 -33s-60 -53 -63 -61s-14 -16 -20 -15s-12 -14 -10 -18s3 -7 -19 -40s-37 -122 -29 -162s37 -56 45 -58s30 -3 42 1s36 26 41 36s34 54 35 67s6 13 11 13s7 1 16 4s6 1 11 -5 s0 -10 -3 -17s3 -15 7 -16s7 8 9 20s0 26 -1 28s-10 0 -21 1s-18 1 -33 0s-33 -1 -35 0zM361 787c3 16 0 1 0 2c4 35 10 126 20 132s29 3 35 -3s6 -21 14 -14s19 20 29 18s22 -14 29 -12s0 -47 15 -43s9 51 24 49s33 3 30 -22s-29 -98 -31 -114s-4 -24 -24 -21 s-25 15 -36 10s-16 -3 -32 -4s-28 0 -33 2s3 35 -5 29s-14 -27 -23 -28s-15 3 -12 19z" glyph-name="Gdotaccent" horiz-adv-x="558" unicode="Ġ"/><glyph d="M151 1c-7 -3 -10 10 -15 11s-10 6 -14 3s-7 -3 -14 -8s-21 -4 -34 -5s-1 31 -11 30s-14 -27 -24 -26s-13 17 -12 27s2 24 5 31s11 92 9 99s-3 2 -2 7s8 4 12 14s4 20 4 31s-6 35 -5 41s26 159 31 194s16 101 21 111s5 16 6 25s15 83 18 89s13 13 23 13s15 -4 19 -6 s3 -9 8 -17s5 -12 10 -6s13 36 22 36s-2 -37 16 -35s0 23 10 27s21 3 27 5s7 -15 13 -20s10 18 17 21s10 5 18 4s-10 -55 -9 -72s0 -38 -4 -49s-11 -12 -11 -27s-15 -51 -15 -65s-14 -70 -17 -80s-13 -40 -6 -41s23 -3 27 -1s9 9 2 12s-16 -2 -15 6s3 11 13 11s36 -1 46 -3 s20 1 27 2s18 -2 23 5s11 21 13 31s27 121 30 131s8 18 8 31s-2 26 5 35s8 33 14 45s4 20 15 21s30 6 34 3s-7 -42 4 -43s14 36 22 41s19 8 26 8s10 8 18 6s16 -13 23 -16s19 8 27 7s16 0 18 -5s1 -13 -3 -24s-47 -149 -47 -161s-11 -59 -16 -68s-15 -17 -16 -22 s2 -21 1 -28s-22 -76 -28 -94s-7 -29 -11 -49s-31 -178 -34 -195s0 -50 -15 -49s-4 42 -11 42s-13 -6 -17 -13s-6 -27 -17 -28s-12 -1 -17 4s-20 15 -23 10s-31 -11 -36 -11s-19 7 -17 18s3 24 5 42s2 35 7 50s5 47 7 60s8 72 8 81s-26 13 -39 11s-44 3 -55 4s-20 8 -26 0 s-13 -16 -13 -24s-10 -65 -13 -73s-8 -44 -11 -53s-16 -83 -17 -91s-5 -18 -7 -21s-8 -4 -15 -7zM255 734c-11 -5 -22 -9 -29 5s8 22 -1 23s-13 -6 -22 5s10 25 20 32s82 64 88 69l74 59c15 12 33 14 51 -7s39 -47 45 -50s31 -28 39 -37s40 -39 48 -50s13 -10 -8 -22 s-18 -11 -24 -13s-11 28 -23 21s11 -20 0 -30s-17 -14 -27 -13s-6 -9 -29 14s-48 39 -56 46s-15 10 -27 23s-32 17 -14 -4s3 -8 -11 -18s-63 -37 -70 -39s-13 -9 -24 -14z" glyph-name="Hcircumflex" horiz-adv-x="639" unicode="Ĥ"/><glyph d="M33 5c-11 6 14 90 14 116s6 66 9 86s9 112 12 128s6 42 8 57s14 42 14 54s0 33 3 45s12 48 12 67s6 37 8 59s13 62 14 67s31 -12 39 -11s6 14 11 18s19 -1 31 -1s10 -7 23 -8s27 18 32 22s15 -4 19 -8s0 -50 10 -48s24 49 31 51s14 -9 20 -16s-7 -36 -7 -44 s-17 -38 -20 -50s-17 -51 -18 -61s-20 -65 -22 -83s-39 -148 -39 -148l-11 -20c-4 -7 3 -20 0 -39s-30 -150 -30 -163s-8 -50 -12 -58s-18 -9 -29 -5s7 18 1 21s0 18 -8 18s3 -9 -8 -13s-18 -33 -28 -33s-8 3 -16 6s-12 14 -18 14s-20 -5 -21 -13s-13 -13 -24 -7zM428 755 c0 0 -335 -6 -339 -6s-29 4 -27 32s21 25 17 45s-12 39 5 38s194 1 206 1s77 -1 94 0s80 10 75 -10s-35 -23 -38 -29s31 -10 28 -20s-20 -29 -20 -36c0 -3 0 -9 -1 -15z" glyph-name="Imacron" horiz-adv-x="345" unicode="Ī"/><glyph d="M26 4c-8 5 12 72 12 93s4 53 7 69c2 16 7 89 9 102c3 13 5 34 7 46c1 12 11 33 11 43c0 9 0 26 2 36c3 9 10 38 10 53c0 16 5 30 6 48c2 17 11 49 12 53c0 4 24 -9 31 -9c6 1 5 12 9 15s15 -1 24 -1c10 0 8 -6 19 -6c10 -1 21 14 25 17s12 -3 16 -6c3 -3 0 -40 8 -39 c8 2 19 40 24 41c6 2 12 -7 16 -13c5 -5 -5 -28 -5 -35c0 -6 -14 -30 -16 -40c-3 -9 -14 -41 -15 -49c0 -8 -16 -52 -17 -66c-2 -14 -31 -118 -31 -118l-9 -16c-3 -6 2 -16 0 -32c-3 -15 -24 -120 -24 -130s-7 -40 -10 -46c-3 -7 -14 -8 -23 -4c-9 3 6 14 1 16 c-5 3 0 15 -7 15c-6 0 3 -7 -6 -11c-9 -3 -14 -26 -22 -26s-7 2 -13 5c-7 2 -10 11 -15 11c-4 0 -16 -4 -16 -10c-1 -7 -11 -11 -20 -6zM378 615c0 0 -335 -6 -339 -6s-29 4 -27 32s21 25 17 45s-12 39 5 38s194 1 206 1s77 -1 94 0s80 10 75 -10s-35 -23 -38 -29 s31 -10 28 -20s-20 -29 -20 -36c0 -3 0 -9 -1 -15z" glyph-name="imacron" horiz-adv-x="286" unicode="ī"/><glyph d="M33 5c-11 6 14 90 14 116s6 66 9 86s9 112 12 128s6 42 8 57s14 42 14 54s0 33 3 45s12 48 12 67s6 37 8 59s13 62 14 67s31 -12 39 -11s6 14 11 18s19 -1 31 -1s10 -7 23 -8s27 18 32 22s15 -4 19 -8s0 -50 10 -48s24 49 31 51s14 -9 20 -16s-7 -36 -7 -44 s-17 -38 -20 -50s-17 -51 -18 -61s-20 -65 -22 -83s-39 -148 -39 -148l-11 -20c-4 -7 3 -20 0 -39s-30 -150 -30 -163s-8 -50 -12 -58s-18 -9 -29 -5c-9 3 -13 -13 -17 -18c-4 -16 -10 -36 -14 -56c-2 -8 -4 -12 -13 -14c-10 -2 -59 -18 -59 -58c0 -20 9 -41 52 -41 c5 0 8 -6 10 -15c1 -5 -26 -11 -26 -17c0 -5 28 -9 28 -14c0 -6 -5 -10 -6 -15c-2 -9 -2 -16 -6 -16c-108 0 -138 67 -138 117c0 23 11 42 25 57c3 4 9 3 13 6c6 5 10 13 16 17c21 12 41 18 48 18c15 0 14 6 -1 8c-8 1 -12 1 -10 9c2 7 4 30 7 40c-4 -2 -7 -5 -7 -8 c-1 -8 -13 -13 -24 -7z" glyph-name="Iogonek" horiz-adv-x="345" unicode="Į"/><glyph d="M26 4c-8 5 12 72 12 93s4 53 7 69c2 16 7 89 9 102c3 13 5 34 7 46c1 12 11 33 11 43c0 9 0 26 2 36c3 9 10 38 10 53c0 16 5 30 6 48c2 17 11 49 12 53c0 4 24 -9 31 -9c6 1 5 12 9 15s15 -1 24 -1c10 0 8 -6 19 -6c10 -1 21 14 25 17s12 -3 16 -6c3 -3 0 -40 8 -39 c8 2 19 40 24 41c6 2 12 -7 16 -13c5 -5 -5 -28 -5 -35c0 -6 -14 -30 -16 -40c-3 -9 -14 -41 -15 -49c0 -8 -16 -52 -17 -66c-2 -14 -31 -118 -31 -118l-9 -16c-3 -6 2 -16 0 -32c-3 -15 -24 -120 -24 -130s-7 -40 -10 -46c-2 -5 -8 -7 -14 -7c-4 -17 -13 -42 -18 -69 c-2 -8 -4 -12 -13 -14c-10 -2 -59 -18 -59 -58c0 -20 9 -41 52 -41c5 0 8 -6 10 -15c1 -5 -26 -11 -26 -17c0 -5 28 -9 28 -14c0 -6 -5 -10 -6 -15c-2 -9 -2 -16 -6 -16c-108 0 -138 67 -138 117c0 23 11 42 25 57c3 4 9 3 13 6c6 5 10 13 16 17c21 12 41 18 48 18 c15 0 14 6 -1 8c-8 1 -12 1 -10 9l6 38c-4 -2 -8 -5 -8 -8c-1 -7 -11 -11 -20 -6zM118 41c-6 0 3 -7 -6 -11c4 -1 8 -2 12 -4c-4 4 0 15 -6 15z" glyph-name="iogonek" horiz-adv-x="286" unicode="į"/><glyph d="M33 5c-11 6 14 90 14 116s6 66 9 86s9 112 12 128s6 42 8 57s14 42 14 54s0 33 3 45s12 48 12 67s6 37 8 59s13 62 14 67s31 -12 39 -11s6 14 11 18s19 -1 31 -1s10 -7 23 -8s27 18 32 22s15 -4 19 -8s0 -50 10 -48s24 49 31 51s14 -9 20 -16s-7 -36 -7 -44 s-17 -38 -20 -50s-17 -51 -18 -61s-20 -65 -22 -83s-39 -148 -39 -148l-11 -20c-4 -7 3 -20 0 -39s-30 -150 -30 -163s-8 -50 -12 -58s-18 -9 -29 -5s7 18 1 21s0 18 -8 18s3 -9 -8 -13s-18 -33 -28 -33s-8 3 -16 6s-12 14 -18 14s-20 -5 -21 -13s-13 -13 -24 -7zM173 787 c3 16 0 1 0 2c4 35 10 126 20 132s29 3 35 -3s6 -21 14 -14s19 20 29 18s22 -14 29 -12s0 -47 15 -43s9 51 24 49s33 3 30 -22s-29 -98 -31 -114s-4 -24 -24 -21s-25 15 -36 10s-16 -3 -32 -4s-28 0 -33 2s3 35 -5 29s-14 -27 -23 -28s-15 3 -12 19z" glyph-name="Idotaccent" horiz-adv-x="345" unicode="İ"/><glyph d="M82 134c34 0 51 29 59 39s16 54 13 69s0 32 4 42s4 51 6 63s13 106 14 119s11 17 13 27s0 49 0 62s23 97 26 106s13 23 17 29s10 -5 17 -8s0 -18 3 -27s13 -16 15 -10s1 17 1 27s3 16 7 18s28 2 37 4s10 -3 15 -6s2 -38 9 -36s16 21 22 33s14 4 30 5s23 2 33 4 s6 -7 3 -22s-5 -22 -10 -38s-28 -110 -29 -121s-2 -14 0 -25s-4 -25 -13 -35s-7 -17 -10 -31s-18 -108 -22 -119s-8 -33 -10 -37s-5 -19 -4 -29s2 -21 -9 -94s-108 -138 -214 -143s-156 43 -156 50s16 10 11 13s2 5 8 15s4 14 6 16s16 -4 24 -4s5 11 3 17s-11 -8 -17 0 s5 18 12 26s11 18 16 28s5 11 12 6s24 -33 58 -33zM218 734c-11 -5 -22 -9 -29 5s8 22 -1 23s-13 -6 -22 5s10 25 20 32s82 64 88 69l74 59c15 12 33 14 51 -7s39 -47 45 -50s31 -28 39 -37s40 -39 48 -50s13 -10 -8 -22s-18 -11 -24 -13s-11 28 -23 21s11 -20 0 -30 s-17 -14 -27 -13s-6 -9 -29 14s-48 39 -56 46s-15 10 -27 23s-32 17 -14 -4s3 -8 -11 -18s-63 -37 -70 -39s-13 -9 -24 -14z" glyph-name="Jcircumflex" horiz-adv-x="450" unicode="Ĵ"/><glyph d="M29 51c0 1 9 76 9 92s18 62 23 75s-6 61 -7 75s23 137 27 154s9 51 13 76s20 116 24 128s8 36 16 41s15 2 33 -1s-3 -49 11 -49s19 55 29 56s11 -23 15 -26s12 10 17 19s16 8 24 7s26 2 38 0s18 0 23 -9s-19 -64 -17 -74s-14 -57 -19 -76s-34 -156 -38 -170 s-15 -36 -13 -43s-9 -74 -18 -116s-4 -51 5 -56s45 0 59 -2s47 -2 65 -1s44 0 54 -4s6 -13 5 -20s-17 -11 -24 -10s-21 -3 -21 -8s31 -9 35 -8s5 -10 6 -12s3 -9 3 -22s-6 -9 -13 -9s-12 3 -17 3s-3 -11 -1 -17s5 -8 12 -11s8 -7 9 -17s-13 -9 -18 -10s-69 -4 -88 -1 s-75 1 -81 4s-35 -6 -44 -7s-22 3 -26 6s4 20 4 24s-12 3 -17 0s-8 -25 -17 -27s-36 1 -57 2s-23 43 -23 44zM180 794c8 7 21 13 35 25l103 86s54 49 67 28s8 -18 14 -23s-30 -18 -19 -26s29 16 38 5s11 -24 18 -30s10 -9 15 -12s-6 -11 -24 -17s-83 -38 -93 -43 s-57 -27 -68 -33s-37 -18 -49 -22s-25 -4 -29 5s5 19 -3 22s-4 -8 -16 8s3 20 11 27z" glyph-name="Lacute" horiz-adv-x="431" unicode="Ĺ"/><glyph d="M50 187c1 -1 8 66 11 91s29 175 33 192s17 22 21 33s-5 39 -1 54s25 73 35 112s40 27 52 26s8 -72 20 -74s-8 76 8 72s14 -39 25 -41s6 41 29 39c20 -2 70 -115 76 -123s-2 -20 2 -26s9 -5 22 -24s54 -159 63 -161s8 12 10 20s18 115 22 159s32 159 40 160s16 5 32 1 s-4 -63 11 -65s33 68 45 69s9 -16 15 -18s5 17 17 16s6 -22 14 -24s16 22 26 21s6 -17 -2 -46s-79 -344 -89 -393s-35 -256 -51 -257s-21 27 -30 27s2 -27 -5 -28s-18 17 -24 17s-5 -16 -10 -16s-13 -6 -27 3s-91 157 -101 175s-66 177 -84 178s-45 -171 -50 -197 s-29 -154 -37 -156s-5 9 -11 11s-6 -10 -18 -11s-6 47 -12 49s-15 -38 -18 -45s-20 -8 -26 -6s-20 0 -32 0s-23 15 -20 32s18 155 19 154zM170 872c-14 15 -4 21 11 32s19 4 24 15s9 10 14 14s18 -27 24 -20s-13 25 -5 31s18 -2 27 -14s60 -50 69 -58l27 -23s14 0 6 9 s-12 12 -1 18l70 36s44 24 49 26s13 -2 18 -12s-5 -11 0 -15s11 0 14 -4s-7 -6 -3 -11s13 0 15 -5s-10 -12 -22 -22s-93 -74 -101 -79s-44 -35 -59 -48s-26 -30 -54 0s-68 82 -74 85s-12 9 -23 19s-12 11 -26 26z" glyph-name="Ncaron" horiz-adv-x="687" unicode="Ň"/><glyph d="M91 873c-14 15 -4 21 11 32s19 4 24 15s9 10 14 14s18 -27 24 -20s-13 25 -5 31s18 -2 27 -14s60 -50 69 -58l27 -23s14 0 6 9s-12 12 -1 18l70 36s44 24 49 26s13 -2 18 -12s-5 -11 0 -15s11 0 14 -4s-7 -6 -3 -11s13 0 15 -5s-10 -12 -22 -22s-93 -74 -101 -79 s-44 -35 -59 -48s-26 -30 -54 0s-68 82 -74 85s-12 9 -23 19s-12 11 -26 26zM29 51c0 1 9 76 9 92s18 62 23 75s-6 61 -7 75s23 137 27 154s9 51 13 76s20 116 24 128s8 36 16 41s15 2 33 -1s-3 -49 11 -49s19 55 29 56s11 -23 15 -26s12 10 17 19s16 8 24 7s26 2 38 0 s18 0 23 -9s-19 -64 -17 -74s-14 -57 -19 -76s-34 -156 -38 -170s-15 -36 -13 -43s-9 -74 -18 -116s-4 -51 5 -56s45 0 59 -2s47 -2 65 -1s44 0 54 -4s6 -13 5 -20s-17 -11 -24 -10s-21 -3 -21 -8s31 -9 35 -8s5 -10 6 -12s3 -9 3 -22s-6 -9 -13 -9s-12 3 -17 3 s-3 -11 -1 -17s5 -8 12 -11s8 -7 9 -17s-13 -9 -18 -10s-69 -4 -88 -1s-75 1 -81 4s-35 -6 -44 -7s-22 3 -26 6s4 20 4 24s-12 3 -17 0s-8 -25 -17 -27s-36 1 -57 2s-23 43 -23 44z" glyph-name="Lcaron" horiz-adv-x="431" unicode="Ľ"/><glyph d="M29 51c0 1 9 76 9 92s18 62 23 75s-6 61 -7 75s23 137 27 154s9 51 13 76s20 116 24 128s8 36 16 41s15 2 33 -1s-3 -49 11 -49s19 55 29 56s11 -23 15 -26s12 10 17 19s16 8 24 7s26 2 38 0s18 0 23 -9s-19 -64 -17 -74s-14 -57 -19 -76s-34 -156 -38 -170 s-15 -36 -13 -43s-9 -74 -18 -116s-4 -51 5 -56s45 0 59 -2s47 -2 65 -1s44 0 54 -4s6 -13 5 -20s-17 -11 -24 -10s-21 -3 -21 -8s31 -9 35 -8s5 -10 6 -12s3 -9 3 -22s-6 -9 -13 -9s-12 3 -17 3s-3 -11 -1 -17s5 -8 12 -11s8 -7 9 -17s-13 -9 -18 -10s-69 -4 -88 -1 s-75 1 -81 4s-35 -6 -44 -7s-22 3 -26 6s4 20 4 24s-12 3 -17 0s-8 -25 -17 -27s-36 1 -57 2s-23 43 -23 44zM301 247c3 16 0 1 0 2c4 35 10 126 20 132s29 3 35 -3s6 -21 14 -14s19 20 29 18s22 -14 29 -12s0 -47 15 -43s9 51 24 49s33 3 30 -22s-29 -98 -31 -114 s-4 -24 -24 -21s-25 15 -36 10s-16 -3 -32 -4s-28 0 -33 2s3 35 -5 29s-14 -27 -23 -28s-15 3 -12 19z" glyph-name="Ldot" horiz-adv-x="483" unicode="Ŀ"/><glyph d="M4 227c-15 0 -30 -2 -28 22c1 10 1 12 3 17c4 9 33 -5 35 2c3 12 -29 4 -27 32s21 25 17 45s-12 39 5 38c5 -1 30 -1 59 -1c5 30 11 57 13 65c4 17 9 51 13 76s20 116 24 128s8 36 16 41s15 2 33 -1s-3 -49 11 -49s19 55 29 56s11 -23 15 -26s12 10 17 19s16 8 24 7 s26 2 38 0s18 0 23 -9s-19 -64 -17 -74s-14 -57 -19 -76l-35 -156c44 0 112 0 125 1c17 1 80 10 75 -10s-35 -23 -38 -29s31 -10 28 -20s-20 -29 -20 -36s-2 -31 -5 -38s3 -10 -42 -12c-28 -1 -99 -2 -152 -2c-2 -10 -3 -19 -5 -27c-9 -42 -4 -51 5 -56s45 0 59 -2 s47 -2 65 -1s44 0 54 -4s6 -13 5 -20s-17 -11 -24 -10s-21 -3 -21 -8s31 -9 35 -8s5 -10 6 -12s3 -9 3 -22s-6 -9 -13 -9s-12 3 -17 3s-3 -11 -1 -17s5 -8 12 -11s8 -7 9 -17s-13 -9 -18 -10s-69 -4 -88 -1s-75 1 -81 4s-35 -6 -44 -7s-22 3 -26 6s4 20 4 24s-12 3 -17 0 s-8 -25 -17 -27s-36 1 -57 2s-23 43 -23 44s9 76 9 92s18 62 23 75c1 2 1 5 1 9h-58z" glyph-name="Lslash" horiz-adv-x="431" unicode="Ł"/><glyph d="M50 187c1 -1 8 66 11 91s29 175 33 192s17 22 21 33s-5 39 -1 54s25 73 35 112s40 27 52 26s8 -72 20 -74s-8 76 8 72s14 -39 25 -41s6 41 29 39c20 -2 70 -115 76 -123s-2 -20 2 -26s9 -5 22 -24s54 -159 63 -161s8 12 10 20s18 115 22 159s32 159 40 160s16 5 32 1 s-4 -63 11 -65s33 68 45 69s9 -16 15 -18s5 17 17 16s6 -22 14 -24s16 22 26 21s6 -17 -2 -46s-79 -344 -89 -393s-35 -256 -51 -257s-21 27 -30 27s2 -27 -5 -28s-18 17 -24 17s-5 -16 -10 -16s-13 -6 -27 3s-91 157 -101 175s-66 177 -84 178s-45 -171 -50 -197 s-29 -154 -37 -156s-5 9 -11 11s-6 -10 -18 -11s-6 47 -12 49s-15 -38 -18 -45s-20 -8 -26 -6s-20 0 -32 0s-23 15 -20 32s18 155 19 154zM334 794c8 7 21 13 35 25l103 86s54 49 67 28s8 -18 14 -23s-30 -18 -19 -26s29 16 38 5s11 -24 18 -30s10 -9 15 -12s-6 -11 -24 -17 s-83 -38 -93 -43s-57 -27 -68 -33s-37 -18 -49 -22s-25 -4 -29 5s5 19 -3 22s-4 -8 -16 8s3 20 11 27z" glyph-name="Nacute" horiz-adv-x="687" unicode="Ń"/><glyph d="M332 483c-49 -19 -99 -77 -104 -87s0 -13 -2 -20s-13 -13 -25 -43s-42 -170 53 -170s125 85 132 91s15 11 12 16s2 17 21 72s11 111 3 134s-42 46 -52 49s-11 17 -19 14s1 -20 6 -33s1 -13 -25 -23zM225 637c33 16 42 22 50 17s13 -13 18 -18s15 -5 15 7s-5 12 -4 22 s-1 17 15 22s55 14 86 12s118 -19 149 -68s18 -41 22 -44s9 -5 12 -10s25 -54 29 -78s7 -110 -13 -166c-6 -17 -16 -42 -30 -72c-5 -11 -17 -22 -23 -34c-5 -9 -4 -18 -10 -28c-33 -55 -79 -112 -137 -149c-81 -51 -135 -50 -168 -50c-21 0 -102 8 -156 80c-4 5 -3 12 -6 18 c-4 7 -13 12 -17 20c-17 36 -27 82 -27 142c0 59 12 106 26 143c3 8 10 10 13 17c1 3 0 12 1 15c19 39 38 63 40 74c3 23 1 29 12 43s70 69 103 85zM327 557c3 -10 36 4 32 13s-35 -3 -32 -13zM601 755c0 0 -335 -6 -339 -6s-29 4 -27 32s21 25 17 45s-12 39 5 38 s194 1 206 1s77 -1 94 0s80 10 75 -10s-35 -23 -38 -29s31 -10 28 -20s-20 -29 -20 -36c0 -3 0 -9 -1 -15z" glyph-name="Omacron" horiz-adv-x="648" unicode="Ō"/><glyph d="M332 483c-49 -19 -99 -77 -104 -87s0 -13 -2 -20s-13 -13 -25 -43s-42 -170 53 -170s125 85 132 91s15 11 12 16s2 17 21 72s11 111 3 134s-42 46 -52 49s-11 17 -19 14s1 -20 6 -33s1 -13 -25 -23zM225 637c33 16 42 22 50 17s13 -13 18 -18s15 -5 15 7s-5 12 -4 22 s-1 17 15 22s55 14 86 12s118 -19 149 -68s18 -41 22 -44s9 -5 12 -10s25 -54 29 -78s7 -110 -13 -166c-6 -17 -16 -42 -30 -72c-5 -11 -17 -22 -23 -34c-5 -9 -4 -18 -10 -28c-33 -55 -79 -112 -137 -149c-81 -51 -135 -50 -168 -50c-21 0 -102 8 -156 80c-4 5 -3 12 -6 18 c-4 7 -13 12 -17 20c-17 36 -27 82 -27 142c0 59 12 106 26 143c3 8 10 10 13 17c1 3 0 12 1 15c19 39 38 63 40 74c3 23 1 29 12 43s70 69 103 85zM327 557c3 -10 36 4 32 13s-35 -3 -32 -13zM407 812c44 0 64 29 67 37s21 6 37 3s3 -14 15 -14s12 14 17 15s-2 -28 6 -24 s9 22 11 22s32 8 25 -11c-20 -53 -86 -126 -203 -126c-128 0 -148 103 -140 129c3 11 12 8 21 8s15 -22 24 -23s4 22 7 22s20 1 27 0s22 11 26 -7s35 -31 60 -31z" glyph-name="Obreve" horiz-adv-x="648" unicode="Ŏ"/><glyph d="M332 483c-49 -19 -99 -77 -104 -87s0 -13 -2 -20s-13 -13 -25 -43s-42 -170 53 -170s125 85 132 91s15 11 12 16s2 17 21 72s11 111 3 134s-42 46 -52 49s-11 17 -19 14s1 -20 6 -33s1 -13 -25 -23zM225 637c33 16 42 22 50 17s13 -13 18 -18s15 -5 15 7s-5 12 -4 22 s-1 17 15 22s55 14 86 12s118 -19 149 -68s18 -41 22 -44s9 -5 12 -10s25 -54 29 -78s7 -110 -13 -166c-6 -17 -16 -42 -30 -72c-5 -11 -17 -22 -23 -34c-5 -9 -4 -18 -10 -28c-33 -55 -79 -112 -137 -149c-81 -51 -135 -50 -168 -50c-21 0 -102 8 -156 80c-4 5 -3 12 -6 18 c-4 7 -13 12 -17 20c-17 36 -27 82 -27 142c0 59 12 106 26 143c3 8 10 10 13 17c1 3 0 12 1 15c19 39 38 63 40 74c3 23 1 29 12 43s70 69 103 85zM327 557c3 -10 36 4 32 13s-35 -3 -32 -13zM379 909c7 15 19 24 30 24s7 -13 19 -10s21 8 28 9s-16 -23 0 -24s17 23 31 24 s41 2 34 -6s-48 -48 -57 -61s-69 -75 -84 -92s-30 -33 -35 -34s-13 -3 -15 3s15 19 13 26s-6 1 -17 -12s-8 -20 -17 -18s-6 8 -15 7s-16 -12 -18 -6s-5 7 8 25s31 48 40 64s48 66 55 81zM538 898c5 9 24 35 36 35s-4 -22 5 -23s18 20 28 21s3 -3 20 -2s42 3 51 3 s14 -5 -1 -18s-67 -71 -84 -89s-59 -66 -67 -74s-12 -13 -18 -12s0 12 -1 22s-11 -17 -21 -20s6 11 -10 6s-1 -10 -19 -9s-23 2 -8 24s39 57 48 77s36 50 41 59z" glyph-name="Ohungarumlaut" horiz-adv-x="648" unicode="Ő"/><glyph d="M225 637c33 16 42 22 50 17s13 -13 18 -18s15 -5 15 7s-5 12 -4 22s-1 17 15 22s55 14 86 12c16 -1 49 -6 81 -19c14 -13 32 -33 41 -25c18 11 -31 16 -16 32l7 1c18 3 20 1 33 7s64 2 84 3s143 1 166 2s28 -9 30 -18s-3 -9 -7 -12s-5 0 -8 -3s4 -10 3 -13s-7 -4 -14 -1 s-14 -7 -10 -15s30 -6 30 -17s-12 -18 -17 -23s-9 -17 -9 -17l7 -13c2 -3 3 -20 1 -32s-17 -18 -22 -17s-48 1 -58 1s-84 2 -93 2s-5 -9 -1 -15s10 -11 11 -15s-3 -11 -6 -21s-10 -38 -13 -45s-1 -18 3 -28s89 -4 95 -3s16 -8 17 -14s-16 -11 -17 -16s10 -4 13 -15 s-8 -30 -8 -32s-8 -20 -7 -28s-12 -16 -24 -15s-28 -5 -37 -8s-60 -2 -65 -1s-4 9 -2 12c2 2 -2 9 -7 9l-12 -26c-1 -1 -2 -3 -2 -4c-2 -6 -2 -12 -2 -14c0 -8 -16 -54 -18 -75s76 -10 81 -12s22 -2 33 -1s22 -2 29 -1s-1 0 12 0s19 -6 20 -13s0 -11 -2 -17s-2 -2 -5 -8 s-3 -2 -10 -4s-5 -5 -8 -10s0 -4 4 -11s1 -4 2 -8s2 -12 1 -18s0 -7 -6 -10s-4 5 -10 3s-5 -5 -6 -13s9 -4 14 -4s5 -10 5 -23s-12 -11 -19 -13s-47 -1 -63 -3s-77 3 -83 1s-5 10 -13 15s-13 -6 -20 -12s-23 -1 -36 -1s-64 -3 -80 -2c-12 1 -25 17 -17 21c48 26 51 49 33 36 l-27 -20c-6 -6 -12 -11 -20 -14c-58 -26 -99 -26 -125 -26c-21 0 -102 8 -156 80c-4 5 -3 12 -6 18c-4 7 -13 12 -17 20c-17 36 -27 82 -27 142c0 59 12 106 26 143c3 8 10 10 13 17c1 3 0 12 1 15c19 39 38 63 40 74c3 23 1 29 12 43s70 69 103 85zM332 483 c-49 -19 -99 -77 -104 -87s0 -13 -2 -20s-13 -13 -25 -43s-42 -170 53 -170s125 85 132 91s15 11 12 16s2 17 21 72s11 111 3 134s-42 46 -52 49s-11 17 -19 14s1 -20 6 -33s1 -13 -25 -23zM327 557c3 -10 36 4 32 13s-35 -3 -32 -13z" glyph-name="OE" horiz-adv-x="853" unicode="Œ"/><glyph d="M39 131c0 1 27 154 28 170s1 30 -1 51s15 93 20 125s30 30 39 29s7 -29 12 -27s6 23 6 31s-4 12 -17 18s-11 -1 -22 -3s-35 4 -40 9s0 19 4 30s12 9 16 17s1 9 -4 12s-5 14 -5 20s-4 16 -6 23s14 3 18 9s11 2 18 3s8 4 6 10s-36 1 -38 8s0 15 5 24s14 3 21 3s78 5 82 6 s8 -14 13 -14s10 13 17 15s202 18 267 -56s52 -168 27 -228s-89 -109 -97 -115s-14 -9 -15 -15s13 1 15 0s1 -5 7 -15s8 -26 13 -43s11 -31 15 -43s41 -130 50 -153s-1 -22 -4 -25s-16 -9 -31 -10s-16 43 -26 39s3 -37 -5 -33s-8 1 -14 3s-9 8 -14 11s-7 -15 -12 -15 s-17 -3 -21 -1s-11 9 -14 16s-30 63 -35 71s-22 47 -28 55s-45 89 -49 93s-11 20 -12 27s3 10 10 13s8 12 4 14s-10 1 -16 -4s-10 -17 -10 -23s-1 -13 -4 -20s-14 -40 -14 -56s-11 -54 -16 -73s-8 -29 -10 -44s-11 -48 -12 -54s-12 -15 -30 -15s-6 0 -12 9s-9 6 -16 6 s-18 -17 -26 -16s3 35 -7 37s-3 -39 -16 -36s-19 7 -24 18s10 111 10 112zM198 523c-12 0 -25 -38 -13 -38s25 38 13 38zM284 522c-2 -5 -38 -134 -40 -142s2 -13 13 -12s44 14 62 33s17 28 22 28s7 1 11 12s13 61 -20 76s-46 10 -48 5zM192 794c8 7 21 13 35 25l103 86 s54 49 67 28s8 -18 14 -23s-30 -18 -19 -26s29 16 38 5s11 -24 18 -30s10 -9 15 -12s-6 -11 -24 -17s-83 -38 -93 -43s-57 -27 -68 -33s-37 -18 -49 -22s-25 -4 -29 5s5 19 -3 22s-4 -8 -16 8s3 20 11 27z" glyph-name="Racute" horiz-adv-x="554" unicode="Ŕ"/><glyph d="M39 131c0 1 27 154 28 170s1 30 -1 51s15 93 20 125s30 30 39 29s7 -29 12 -27s6 23 6 31s-4 12 -17 18s-11 -1 -22 -3s-35 4 -40 9s0 19 4 30s12 9 16 17s1 9 -4 12s-5 14 -5 20s-4 16 -6 23s14 3 18 9s11 2 18 3s8 4 6 10s-36 1 -38 8s0 15 5 24s14 3 21 3s78 5 82 6 s8 -14 13 -14s10 13 17 15s202 18 267 -56s52 -168 27 -228s-89 -109 -97 -115s-14 -9 -15 -15s13 1 15 0s1 -5 7 -15s8 -26 13 -43s11 -31 15 -43s41 -130 50 -153s-1 -22 -4 -25s-16 -9 -31 -10s-16 43 -26 39s3 -37 -5 -33s-8 1 -14 3s-9 8 -14 11s-7 -15 -12 -15 s-17 -3 -21 -1s-11 9 -14 16s-30 63 -35 71s-22 47 -28 55s-45 89 -49 93s-11 20 -12 27s3 10 10 13s8 12 4 14s-10 1 -16 -4s-10 -17 -10 -23s-1 -13 -4 -20s-14 -40 -14 -56s-11 -54 -16 -73s-8 -29 -10 -44s-11 -48 -12 -54s-12 -15 -30 -15s-6 0 -12 9s-9 6 -16 6 s-18 -17 -26 -16s3 35 -7 37s-3 -39 -16 -36s-19 7 -24 18s10 111 10 112zM198 523c-12 0 -25 -38 -13 -38s25 38 13 38zM284 522c-2 -5 -38 -134 -40 -142s2 -13 13 -12s44 14 62 33s17 28 22 28s7 1 11 12s13 61 -20 76s-46 10 -48 5zM153 872c-14 15 -4 21 11 32 s19 4 24 15s9 10 14 14s18 -27 24 -20s-13 25 -5 31s18 -2 27 -14s60 -50 69 -58l27 -23s14 0 6 9s-12 12 -1 18l70 36s44 24 49 26s13 -2 18 -12s-5 -11 0 -15s11 0 14 -4s-7 -6 -3 -11s13 0 15 -5s-10 -12 -22 -22s-93 -74 -101 -79s-44 -35 -59 -48s-26 -30 -54 0 s-68 82 -74 85s-12 9 -23 19s-12 11 -26 26z" glyph-name="Rcaron" horiz-adv-x="554" unicode="Ř"/><glyph d="M148 152c37 1 69 26 68 78c-1 14 -12 28 -28 43c-8 7 -15 18 -24 26s-20 12 -29 21c-35 35 -68 84 -70 163c-1 56 20 99 52 132c13 13 30 19 45 29c13 8 24 22 37 28c50 23 102 31 134 32c75 2 148 -33 144 -50s-7 -32 -13 -28c-7 3 -39 15 -40 6c0 -9 5 -16 14 -16 s17 2 18 -6s-4 -43 -12 -48s-10 -4 -14 -15s-9 -20 -9 -20s8 -24 -4 -20c-12 3 -54 28 -95 27s-58 -38 -47 -74c7 -24 54 -56 86 -114c6 -11 9 -25 14 -38c4 -12 10 -22 12 -36c2 -13 4 -28 4 -43c2 -82 -46 -148 -114 -189c-11 -6 -22 -9 -34 -14c-14 -6 -28 -15 -43 -19 c-27 -8 -56 -13 -84 -13c-102 -3 -124 62 -121 65s4 19 8 20s15 -17 25 -16s11 4 11 11c1 7 -10 14 -16 15s-13 4 -12 9s2 17 6 24c3 6 9 4 9 10s-2 17 0 21s8 13 10 19c1 6 11 4 18 1c8 -3 57 -22 94 -21zM198 794c8 7 21 13 35 25l103 86s54 49 67 28s8 -18 14 -23 s-30 -18 -19 -26s29 16 38 5s11 -24 18 -30s10 -9 15 -12s-6 -11 -24 -17s-83 -38 -93 -43s-57 -27 -68 -33s-37 -18 -49 -22s-25 -4 -29 5s5 19 -3 22s-4 -8 -16 8s3 20 11 27z" glyph-name="Sacute" horiz-adv-x="471" unicode="Ś"/><glyph d="M148 152c37 1 69 26 68 78c-1 14 -12 28 -28 43c-8 7 -15 18 -24 26s-20 12 -29 21c-35 35 -68 84 -70 163c-1 56 20 99 52 132c13 13 30 19 45 29c13 8 24 22 37 28c50 23 102 31 134 32c75 2 148 -33 144 -50s-7 -32 -13 -28c-7 3 -39 15 -40 6c0 -9 5 -16 14 -16 s17 2 18 -6s-4 -43 -12 -48s-10 -4 -14 -15s-9 -20 -9 -20s8 -24 -4 -20c-12 3 -54 28 -95 27s-58 -38 -47 -74c7 -24 54 -56 86 -114c6 -11 9 -25 14 -38c4 -12 10 -22 12 -36c2 -13 4 -28 4 -43c2 -82 -46 -148 -114 -189c-11 -6 -22 -9 -34 -14c-14 -6 -28 -15 -43 -19 c-27 -8 -56 -13 -84 -13c-102 -3 -124 62 -121 65s4 19 8 20s15 -17 25 -16s11 4 11 11c1 7 -10 14 -16 15s-13 4 -12 9s2 17 6 24c3 6 9 4 9 10s-2 17 0 21s8 13 10 19c1 6 11 4 18 1c8 -3 57 -22 94 -21zM220 734c-11 -5 -22 -9 -29 5s8 22 -1 23s-13 -6 -22 5 s10 25 20 32s82 64 88 69l74 59c15 12 33 14 51 -7s39 -47 45 -50s31 -28 39 -37s40 -39 48 -50s13 -10 -8 -22s-18 -11 -24 -13s-11 28 -23 21s11 -20 0 -30s-17 -14 -27 -13s-6 -9 -29 14s-48 39 -56 46s-15 10 -27 23s-32 17 -14 -4s3 -8 -11 -18s-63 -37 -70 -39 s-13 -9 -24 -14z" glyph-name="Scircumflex" horiz-adv-x="471" unicode="Ŝ"/><glyph d="M148 152c37 1 69 26 68 78c-1 14 -12 28 -28 43c-8 7 -15 18 -24 26s-20 12 -29 21c-35 35 -68 84 -70 163c-1 56 20 99 52 132c13 13 30 19 45 29c13 8 24 22 37 28c50 23 102 31 134 32c75 2 148 -33 144 -50s-7 -32 -13 -28c-7 3 -39 15 -40 6c0 -9 5 -16 14 -16 s17 2 18 -6s-4 -43 -12 -48s-10 -4 -14 -15s-9 -20 -9 -20s8 -24 -4 -20c-12 3 -54 28 -95 27s-58 -38 -47 -74c7 -24 54 -56 86 -114c6 -11 9 -25 14 -38c4 -12 10 -22 12 -36c2 -13 4 -28 4 -43c2 -82 -46 -148 -114 -189c-11 -6 -22 -9 -34 -14c-14 -6 -28 -15 -43 -19 c-27 -8 -56 -13 -84 -13c-102 -3 -124 62 -121 65s4 19 8 20s15 -17 25 -16s11 4 11 11c1 7 -10 14 -16 15s-13 4 -12 9s2 17 6 24c3 6 9 4 9 10s-2 17 0 21s8 13 10 19c1 6 11 4 18 1c8 -3 57 -22 94 -21zM141 872c-14 15 -4 21 11 32s19 4 24 15s9 10 14 14s18 -27 24 -20 s-13 25 -5 31s18 -2 27 -14s60 -50 69 -58l27 -23s14 0 6 9s-12 12 -1 18l70 36s44 24 49 26s13 -2 18 -12s-5 -11 0 -15s11 0 14 -4s-7 -6 -3 -11s13 0 15 -5s-10 -12 -22 -22s-93 -74 -101 -79s-44 -35 -59 -48s-26 -30 -54 0s-68 82 -74 85s-12 9 -23 19s-12 11 -26 26z" glyph-name="Scaron" horiz-adv-x="471" unicode="Š"/><glyph d="M92 2c-1 -2 -1 -2 -11 2s2 123 2 134s9 67 14 77s0 25 -2 35s9 64 10 73s20 131 20 136s3 27 6 38s20 13 26 12s7 -26 15 -26s8 30 6 35s-27 8 -40 5s-9 1 -17 0s-73 3 -87 3s-2 10 1 20s28 5 28 13s-12 8 -25 10s-6 11 -5 17s5 13 8 20s2 13 0 19s9 5 16 9s21 10 21 12 s-15 3 -23 3s-16 7 -16 13s3 14 6 25s16 10 33 9s38 0 53 1s59 4 83 1s31 1 46 0s110 1 135 0s49 -3 65 -4s9 -4 9 -15s-4 -11 -4 -20s-2 -11 -9 -16s-18 -6 -28 -5s-16 -1 -16 -10s14 -9 35 -8s15 -4 11 -14s-8 -40 -6 -50s2 -18 -2 -28s-39 -4 -52 -5s-56 0 -68 -1 s-16 -19 -8 -36s-11 -56 -18 -75s-10 -15 -13 -21s3 -27 -1 -38s-3 -29 -2 -35s-36 -155 -43 -190s-24 -110 -30 -121s-24 -3 -46 -3s-11 12 -20 12s-18 -8 -26 -8s11 34 -5 34s-25 -37 -26 -39zM121 872c-14 15 -4 21 11 32s19 4 24 15s9 10 14 14s18 -27 24 -20 s-13 25 -5 31s18 -2 27 -14s60 -50 69 -58l27 -23s14 0 6 9s-12 12 -1 18l70 36s44 24 49 26s13 -2 18 -12s-5 -11 0 -15s11 0 14 -4s-7 -6 -3 -11s13 0 15 -5s-10 -12 -22 -22s-93 -74 -101 -79s-44 -35 -59 -48s-26 -30 -54 0s-68 82 -74 85s-12 9 -23 19s-12 11 -26 26z" glyph-name="Tcaron" horiz-adv-x="464" unicode="Ť"/><glyph d="M369 255c0 0 -41 -1 -95 -2c-11 -47 -25 -106 -29 -126c-7 -35 -24 -110 -30 -121s-24 -3 -46 -3s-11 12 -20 12s-18 -8 -26 -8s11 34 -5 34s-25 -37 -26 -39s-1 -2 -11 2s2 123 2 134s9 67 14 77s0 25 -2 35c-38 -1 -64 -1 -65 -1c-4 0 -29 4 -27 32s21 25 17 45 s-12 39 5 38c7 -1 45 -1 86 0c6 39 14 91 14 95c0 5 3 27 6 38s20 13 26 12s7 -26 15 -26s8 30 6 35s-27 8 -40 5s-9 1 -17 0s-73 3 -87 3s-2 10 1 20s28 5 28 13s-12 8 -25 10s-6 11 -5 17s5 13 8 20s2 13 0 19s9 5 16 9s21 10 21 12s-15 3 -23 3s-16 7 -16 13s3 14 6 25 s16 10 33 9s38 0 53 1s59 4 83 1s31 1 46 0s110 1 135 0s49 -3 65 -4s9 -4 9 -15s-4 -11 -4 -20s-2 -11 -9 -16s-18 -6 -28 -5s-16 -1 -16 -10s14 -9 35 -8s15 -4 11 -14s-8 -40 -6 -50s2 -18 -2 -28s-39 -4 -52 -5s-56 0 -68 -1s-16 -19 -8 -36s-11 -56 -18 -75 s-10 -15 -13 -21c-2 -4 0 -16 0 -26c14 0 28 0 34 1c17 1 80 10 75 -10s-35 -23 -38 -29s31 -10 28 -20s-20 -29 -20 -36c0 -3 0 -9 -1 -15z" glyph-name="Tbar" horiz-adv-x="464" unicode="Ŧ"/><glyph d="M174 0c-77 0 -108 70 -117 91s-1 44 -8 60s3 82 6 99s22 146 22 158s10 25 13 35s-2 31 3 45s36 152 40 163s5 27 15 35s14 1 18 -1s-5 -27 -3 -33s6 7 12 14s0 12 11 15s3 -5 11 -8s2 5 14 15s19 7 29 6s11 1 18 -2s-6 -37 -3 -45s8 12 13 21s20 29 27 30s10 1 24 -3 s6 -11 3 -20s-15 -40 -18 -56s5 -18 11 -29s-8 -22 -10 -30s-12 -56 -17 -67s-3 -18 -10 -29s-14 -51 -19 -61s6 -15 6 -26s-7 -10 -20 -24s-4 -13 -5 -30s-5 -23 -6 -36s-9 -40 -14 -64s-5 -75 25 -75s55 27 62 37s15 16 21 18s7 -7 13 -8s4 30 4 38s10 66 14 75 s35 176 35 189s13 32 14 38s3 34 6 47s19 57 17 69s19 27 23 37s17 6 27 8s10 -5 29 -9s14 2 20 7s26 -1 36 -2s11 -6 11 -17s-1 -25 2 -28s12 11 16 20s14 24 26 27s15 -2 16 -10s-3 -16 -9 -32s-20 -60 -22 -75s-23 -80 -26 -94s-36 -120 -40 -136s-14 -77 -18 -90 s-12 -34 -15 -48s-5 -65 -17 -79s-16 -49 -18 -67s-7 -55 -13 -59s-23 1 -31 4s12 37 -1 41s-23 -42 -31 -40s-5 26 -12 23s-6 -14 -15 -19s-27 -4 -43 -2s5 59 -2 60s1 4 -10 -19s-74 -52 -140 -52zM334 121c-2 5 -26 0 -23 -10s25 5 23 10zM237 762c-2 2 -9 -1 -14 6 s22 15 13 27s-20 -18 -29 -9s-6 15 3 24s68 71 122 71s92 -44 134 -44s77 35 84 41s6 -1 12 -6s5 -5 13 -7s-7 -22 -1 -29s18 15 24 9s-8 -22 -13 -29s1 -6 -3 -11s-44 -69 -111 -69c-82 0 -107 47 -147 47s-72 -43 -77 -45s-7 8 -12 13s4 9 2 11z" glyph-name="Utilde" horiz-adv-x="624" unicode="Ũ"/><glyph d="M174 0c-77 0 -108 70 -117 91s-1 44 -8 60s3 82 6 99s22 146 22 158s10 25 13 35s-2 31 3 45s36 152 40 163s5 27 15 35s14 1 18 -1s-5 -27 -3 -33s6 7 12 14s0 12 11 15s3 -5 11 -8s2 5 14 15s19 7 29 6s11 1 18 -2s-6 -37 -3 -45s8 12 13 21s20 29 27 30s10 1 24 -3 s6 -11 3 -20s-15 -40 -18 -56s5 -18 11 -29s-8 -22 -10 -30s-12 -56 -17 -67s-3 -18 -10 -29s-14 -51 -19 -61s6 -15 6 -26s-7 -10 -20 -24s-4 -13 -5 -30s-5 -23 -6 -36s-9 -40 -14 -64s-5 -75 25 -75s55 27 62 37s15 16 21 18s7 -7 13 -8s4 30 4 38s10 66 14 75 s35 176 35 189s13 32 14 38s3 34 6 47s19 57 17 69s19 27 23 37s17 6 27 8s10 -5 29 -9s14 2 20 7s26 -1 36 -2s11 -6 11 -17s-1 -25 2 -28s12 11 16 20s14 24 26 27s15 -2 16 -10s-3 -16 -9 -32s-20 -60 -22 -75s-23 -80 -26 -94s-36 -120 -40 -136s-14 -77 -18 -90 s-12 -34 -15 -48s-5 -65 -17 -79s-16 -49 -18 -67s-7 -55 -13 -59s-23 1 -31 4s12 37 -1 41s-23 -42 -31 -40s-5 26 -12 23s-6 -14 -15 -19s-27 -4 -43 -2s5 59 -2 60s1 4 -10 -19s-74 -52 -140 -52zM334 121c-2 5 -26 0 -23 -10s25 5 23 10zM572 755c0 0 -335 -6 -339 -6 s-29 4 -27 32s21 25 17 45s-12 39 5 38s194 1 206 1s77 -1 94 0s80 10 75 -10s-35 -23 -38 -29s31 -10 28 -20s-20 -29 -20 -36c0 -3 0 -9 -1 -15z" glyph-name="Umacron" horiz-adv-x="624" unicode="Ū"/><glyph d="M174 0c-77 0 -108 70 -117 91s-1 44 -8 60s3 82 6 99s22 146 22 158s10 25 13 35s-2 31 3 45s36 152 40 163s5 27 15 35s14 1 18 -1s-5 -27 -3 -33s6 7 12 14s0 12 11 15s3 -5 11 -8s2 5 14 15s19 7 29 6s11 1 18 -2s-6 -37 -3 -45s8 12 13 21s20 29 27 30s10 1 24 -3 s6 -11 3 -20s-15 -40 -18 -56s5 -18 11 -29s-8 -22 -10 -30s-12 -56 -17 -67s-3 -18 -10 -29s-14 -51 -19 -61s6 -15 6 -26s-7 -10 -20 -24s-4 -13 -5 -30s-5 -23 -6 -36s-9 -40 -14 -64s-5 -75 25 -75s55 27 62 37s15 16 21 18s7 -7 13 -8s4 30 4 38s10 66 14 75 s35 176 35 189s13 32 14 38s3 34 6 47s19 57 17 69s19 27 23 37s17 6 27 8s10 -5 29 -9s14 2 20 7s26 -1 36 -2s11 -6 11 -17s-1 -25 2 -28s12 11 16 20s14 24 26 27s15 -2 16 -10s-3 -16 -9 -32s-20 -60 -22 -75s-23 -80 -26 -94s-36 -120 -40 -136s-14 -77 -18 -90 s-12 -34 -15 -48s-5 -65 -17 -79s-16 -49 -18 -67s-7 -55 -13 -59s-23 1 -31 4s12 37 -1 41s-23 -42 -31 -40s-5 26 -12 23s-6 -14 -15 -19s-27 -4 -43 -2s5 59 -2 60s1 4 -10 -19s-74 -52 -140 -52zM334 121c-2 5 -26 0 -23 -10s25 5 23 10zM394 812c44 0 64 29 67 37 s21 6 37 3s3 -14 15 -14s12 14 17 15s-2 -28 6 -24s9 22 11 22s32 8 25 -11c-20 -53 -86 -126 -203 -126c-128 0 -148 103 -140 129c3 11 12 8 21 8s15 -22 24 -23s4 22 7 22s20 1 27 0s22 11 26 -7s35 -31 60 -31z" glyph-name="Ubreve" horiz-adv-x="624" unicode="Ŭ"/><glyph d="M153 0c-77 0 -108 70 -117 91s-1 44 -8 60s3 82 6 99s22 146 22 158s10 25 13 35s-2 31 3 45s36 152 40 163s5 27 15 35s14 1 18 -1s-5 -27 -3 -33s6 7 12 14s0 12 11 15s3 -5 11 -8s2 5 14 15s19 7 29 6s11 1 18 -2s-6 -37 -3 -45s8 12 13 21s20 29 27 30s10 1 24 -3 s6 -11 3 -20s-15 -40 -18 -56s5 -18 11 -29s-8 -22 -10 -30s-12 -56 -17 -67s-3 -18 -10 -29s-14 -51 -19 -61s6 -15 6 -26s-7 -10 -20 -24s-4 -13 -5 -30s-5 -23 -6 -36s-9 -40 -14 -64s-5 -75 25 -75s55 27 62 37s15 16 21 18s7 -7 13 -8s4 30 4 38s10 66 14 75 s35 176 35 189s13 32 14 38s3 34 6 47s19 57 17 69s19 27 23 37s17 6 27 8s10 -5 29 -9s14 2 20 7s26 -1 36 -2s11 -6 11 -17s-1 -25 2 -28s12 11 16 20s14 24 26 27s15 -2 16 -10s-3 -16 -9 -32s-20 -60 -22 -75s-23 -80 -26 -94s-36 -120 -40 -136s-14 -77 -18 -90 s-12 -34 -15 -48s-5 -65 -17 -79s-16 -49 -18 -67s-7 -55 -13 -59s-23 1 -31 4s12 37 -1 41s-23 -42 -31 -40s-5 26 -12 23s-6 -14 -15 -19s-27 -4 -43 -2s5 59 -2 60s1 4 -10 -19s-74 -52 -140 -52zM313 121c-2 5 -26 0 -23 -10s25 5 23 10zM401 881c-4 -2 -5 1 -8 10 s-15 11 -11 -2s6 -10 1 -15s-21 -14 -21 -38s27 -29 32 -29s43 7 43 48c0 24 -24 26 -27 26s-5 2 -9 0zM358 948c4 -9 2 -8 -5 -13c-16 -12 3 -16 15 -6c9 8 5 16 2 23s-9 9 -4 12s14 12 57 12c27 0 65 -10 89 -39c7 -9 9 -22 13 -34c4 -11 9 -21 9 -36 c0 -50 -27 -94 -65 -122c-5 -4 -11 -8 -17 -11c-22 -12 -46 -20 -70 -20c-35 0 -62 10 -82 28c-7 6 -9 13 -14 21c-4 7 -11 15 -14 23c-4 13 -6 27 -6 42c0 68 60 111 69 118s19 10 23 2z" glyph-name="Uring" horiz-adv-x="643" unicode="Ů"/><glyph d="M174 0c-77 0 -108 70 -117 91s-1 44 -8 60s3 82 6 99s22 146 22 158s10 25 13 35s-2 31 3 45s36 152 40 163s5 27 15 35s14 1 18 -1s-5 -27 -3 -33s6 7 12 14s0 12 11 15s3 -5 11 -8s2 5 14 15s19 7 29 6s11 1 18 -2s-6 -37 -3 -45s8 12 13 21s20 29 27 30s10 1 24 -3 s6 -11 3 -20s-15 -40 -18 -56s5 -18 11 -29s-8 -22 -10 -30s-12 -56 -17 -67s-3 -18 -10 -29s-14 -51 -19 -61s6 -15 6 -26s-7 -10 -20 -24s-4 -13 -5 -30s-5 -23 -6 -36s-9 -40 -14 -64s-5 -75 25 -75s55 27 62 37s15 16 21 18s7 -7 13 -8s4 30 4 38s10 66 14 75 s35 176 35 189s13 32 14 38s3 34 6 47s19 57 17 69s19 27 23 37s17 6 27 8s10 -5 29 -9s14 2 20 7s26 -1 36 -2s11 -6 11 -17s-1 -25 2 -28s12 11 16 20s14 24 26 27s15 -2 16 -10s-3 -16 -9 -32s-20 -60 -22 -75s-23 -80 -26 -94s-36 -120 -40 -136s-14 -77 -18 -90 s-12 -34 -15 -48s-5 -65 -17 -79s-16 -49 -18 -67s-7 -55 -13 -59s-23 1 -31 4s12 37 -1 41s-23 -42 -31 -40s-5 26 -12 23s-6 -14 -15 -19s-27 -4 -43 -2s5 59 -2 60s1 4 -10 -19s-74 -52 -140 -52zM334 121c-2 5 -26 0 -23 -10s25 5 23 10zM355 909c7 15 19 24 30 24 s7 -13 19 -10s21 8 28 9s-16 -23 0 -24s17 23 31 24s41 2 34 -6s-48 -48 -57 -61s-69 -75 -84 -92s-30 -33 -35 -34s-13 -3 -15 3s15 19 13 26s-6 1 -17 -12s-8 -20 -17 -18s-6 8 -15 7s-16 -12 -18 -6s-5 7 8 25s31 48 40 64s48 66 55 81zM514 898c5 9 24 35 36 35 s-4 -22 5 -23s18 20 28 21s3 -3 20 -2s42 3 51 3s14 -5 -1 -18s-67 -71 -84 -89s-59 -66 -67 -74s-12 -13 -18 -12s0 12 -1 22s-11 -17 -21 -20s6 11 -10 6s-1 -10 -19 -9s-23 2 -8 24s39 57 48 77s36 50 41 59z" glyph-name="Uhungarumlaut" horiz-adv-x="614" unicode="Ű"/><glyph d="M174 0c-77 0 -108 70 -117 91s-1 44 -8 60s3 82 6 99s22 146 22 158s10 25 13 35s-2 31 3 45s36 152 40 163s5 27 15 35s14 1 18 -1s-5 -27 -3 -33s6 7 12 14s0 12 11 15s3 -5 11 -8s2 5 14 15s19 7 29 6s11 1 18 -2s-6 -37 -3 -45s8 12 13 21s20 29 27 30s10 1 24 -3 s6 -11 3 -20s-15 -40 -18 -56s5 -18 11 -29s-8 -22 -10 -30s-12 -56 -17 -67s-3 -18 -10 -29s-14 -51 -19 -61s6 -15 6 -26s-7 -10 -20 -24s-4 -13 -5 -30s-5 -23 -6 -36s-9 -40 -14 -64s-5 -75 25 -75s55 27 62 37s15 16 21 18s7 -7 13 -8s4 30 4 38s10 66 14 75 s35 176 35 189s13 32 14 38s3 34 6 47s19 57 17 69s19 27 23 37s17 6 27 8s10 -5 29 -9s14 2 20 7s26 -1 36 -2s11 -6 11 -17s-1 -25 2 -28s12 11 16 20s14 24 26 27s15 -2 16 -10s-3 -16 -9 -32s-20 -60 -22 -75s-23 -80 -26 -94s-36 -120 -40 -136s-14 -77 -18 -90 s-12 -34 -15 -48s-5 -65 -17 -79s-16 -49 -18 -67s-7 -55 -13 -59c-3 -2 -9 -2 -15 -1c-5 -17 -12 -40 -17 -65c-2 -8 -4 -12 -13 -14c-10 -2 -59 -18 -59 -58c0 -20 9 -41 52 -41c5 0 8 -6 10 -15c1 -5 -26 -11 -26 -17c0 -5 28 -9 28 -14c0 -6 -5 -10 -6 -15 c-2 -9 -2 -16 -6 -16c-108 0 -138 67 -138 117c0 23 11 42 25 57c3 4 9 3 13 6c6 5 10 13 16 17c21 12 41 18 48 18c15 0 14 6 -1 8c-8 1 -12 1 -10 9l5 31c-10 -3 -25 -2 -39 0c-16 2 5 59 -2 60s1 4 -10 -19s-74 -52 -140 -52zM334 121c-2 5 -26 0 -23 -10s25 5 23 10z" glyph-name="Uogonek" horiz-adv-x="624" unicode="Ų"/><glyph d="M124 1c-32 15 -39 154 -44 170s-5 48 -8 67s-15 142 -20 167s-18 212 -24 237s7 31 24 43s9 -1 23 4c5 2 7 2 7 3h3c9 0 13 -17 20 -13s6 6 10 12s7 9 18 7s21 2 29 -6s2 -11 -3 -22s9 -37 14 -25s1 25 1 34s7 13 20 20s9 0 20 -1s10 -6 13 -20s-1 -39 -1 -62 s-1 -126 -2 -141s3 -79 1 -99s-1 -37 3 -39s-3 10 4 12s42 91 48 107s64 165 69 173s12 26 21 38s10 18 20 21s8 -26 17 -31s3 22 6 32s7 3 13 5s15 0 26 -6s17 -6 27 -3s10 -7 14 -11s-4 -11 -10 -19s-2 -18 3 -21s4 3 13 15s3 34 13 39s14 2 21 -3s8 -96 5 -110 s11 -96 14 -104s14 -93 14 -102s6 -23 13 -16s9 27 10 37s20 68 23 78s39 100 43 111s39 99 41 109s8 6 16 4s10 -2 24 0s5 4 11 4s16 -1 21 -11s1 -33 5 -25s20 38 26 40s7 -11 7 -19s1 -16 6 -9s13 27 21 30s24 -1 38 2s10 1 12 -16s-72 -156 -72 -157s-66 -175 -73 -181 s-13 -22 -24 -37s-14 -27 -19 -39s-30 -97 -36 -118s-28 -63 -34 -73s-16 -28 -20 -51s-27 -32 -36 -28s-1 8 -9 11s-27 -18 -33 -18s-5 6 -10 12s2 23 0 28s-7 14 -12 11s-20 -50 -30 -50s-11 20 -11 20l-40 148c-4 13 -24 103 -28 110s0 20 3 31s20 28 21 36s-6 7 -14 1 s-15 -16 -24 -26s-19 -30 -28 -45s-57 -112 -62 -125s-58 -122 -67 -137s-15 -6 -31 -6s3 21 0 25s4 25 -8 20s-9 -45 -22 -47s-1 8 -5 12s-6 9 -15 3s12 -32 -20 -17zM352 734c-11 -5 -22 -9 -29 5s8 22 -1 23s-13 -6 -22 5s10 25 20 32s82 64 88 69l74 59 c15 12 33 14 51 -7s39 -47 45 -50s31 -28 39 -37s40 -39 48 -50s13 -10 -8 -22s-18 -11 -24 -13s-11 28 -23 21s11 -20 0 -30s-17 -14 -27 -13s-6 -9 -29 14s-48 39 -56 46s-15 10 -27 23s-32 17 -14 -4s3 -8 -11 -18s-63 -37 -70 -39s-13 -9 -24 -14z" glyph-name="Wcircumflex" horiz-adv-x="834" unicode="Ŵ"/><glyph d="M138 330c0 3 10 4 13 8s1 5 -2 13s-10 17 -13 29s-73 199 -75 213s-28 78 -18 85s56 7 63 9s10 -22 20 -15s5 13 15 20s14 3 24 5s10 -5 16 -12s18 -49 21 -47s-3 14 -3 28s-6 19 -3 23s6 6 16 8s7 1 17 -8s3 -28 10 -40s3 -37 7 -50s11 -30 13 -40s0 -11 -4 -20 s-13 -20 -20 -26s0 -9 8 -7s22 26 22 30s7 6 11 13s78 110 80 116s34 28 40 33s17 3 20 0s-14 -37 -8 -40s28 27 33 34s14 7 21 6s21 -3 29 -1s11 -12 7 -21s-6 -15 0 -12s8 11 16 20s13 11 18 12s10 4 19 4s3 -15 2 -24s-35 -45 -39 -54s-49 -63 -58 -73s-36 -56 -36 -56 l-79 -110c-7 -10 -33 -50 -36 -56s0 -27 -1 -37s-7 -23 -10 -27s-12 -39 -15 -52s-6 -34 -8 -47s-7 -36 -11 -49s-12 -19 -16 -22s3 -18 1 -26s-5 -39 -7 -47s-10 -14 -17 -19s-10 -3 -18 1s6 12 3 13s2 11 -5 13s-12 -26 -18 -27s-16 1 -25 1s-10 1 -17 4s-4 7 -10 6 s-5 -7 -13 -9s-22 -2 -28 3s6 35 9 50s2 29 1 42s7 53 10 72s21 120 21 127s11 9 14 13s-7 17 -7 20zM176 734c-11 -5 -22 -9 -29 5s8 22 -1 23s-13 -6 -22 5s10 25 20 32s82 64 88 69l74 59c15 12 33 14 51 -7s39 -47 45 -50s31 -28 39 -37s40 -39 48 -50s13 -10 -8 -22 s-18 -11 -24 -13s-11 28 -23 21s11 -20 0 -30s-17 -14 -27 -13s-6 -9 -29 14s-48 39 -56 46s-15 10 -27 23s-32 17 -14 -4s3 -8 -11 -18s-63 -37 -70 -39s-13 -9 -24 -14z" glyph-name="Ycircumflex" horiz-adv-x="486" unicode="Ŷ"/><glyph d="M138 330c0 3 10 4 13 8s1 5 -2 13s-10 17 -13 29s-73 199 -75 213s-28 78 -18 85s56 7 63 9s10 -22 20 -15s5 13 15 20s14 3 24 5s10 -5 16 -12s18 -49 21 -47s-3 14 -3 28s-6 19 -3 23s6 6 16 8s7 1 17 -8s3 -28 10 -40s3 -37 7 -50s11 -30 13 -40s0 -11 -4 -20 s-13 -20 -20 -26s0 -9 8 -7s22 26 22 30s7 6 11 13s78 110 80 116s34 28 40 33s17 3 20 0s-14 -37 -8 -40s28 27 33 34s14 7 21 6s21 -3 29 -1s11 -12 7 -21s-6 -15 0 -12s8 11 16 20s13 11 18 12s10 4 19 4s3 -15 2 -24s-35 -45 -39 -54s-49 -63 -58 -73s-36 -56 -36 -56 l-79 -110c-7 -10 -33 -50 -36 -56s0 -27 -1 -37s-7 -23 -10 -27s-12 -39 -15 -52s-6 -34 -8 -47s-7 -36 -11 -49s-12 -19 -16 -22s3 -18 1 -26s-5 -39 -7 -47s-10 -14 -17 -19s-10 -3 -18 1s6 12 3 13s2 11 -5 13s-12 -26 -18 -27s-16 1 -25 1s-10 1 -17 4s-4 7 -10 6 s-5 -7 -13 -9s-22 -2 -28 3s6 35 9 50s2 29 1 42s7 53 10 72s21 120 21 127s11 9 14 13s-7 17 -7 20zM175 848c5 27 11 35 24 31s11 -9 20 -7s16 6 23 4s-3 -25 7 -25s7 31 19 29s32 3 30 -16s-4 -36 -8 -56s0 -52 -16 -53s-24 6 -38 3s-14 20 -23 18s-15 -18 -24 -19 s-1 22 -7 19s-5 -19 -13 -20s-8 7 -3 40s4 25 9 52zM344 855c7 23 26 24 38 22s13 -13 22 -10s13 14 19 12s-2 -34 9 -34s6 33 20 33s21 5 15 -27l-15 -78s6 -16 -28 -17s-13 16 -23 14s-17 -13 -26 -14s-2 34 -9 34s-10 -34 -22 -33s-16 3 -8 44s1 31 8 54z" glyph-name="Ydieresis" horiz-adv-x="486" unicode="Ÿ"/><glyph d="M26 1c-14 7 -11 34 -10 46s5 12 3 19s-5 10 -8 20s4 28 4 32s9 22 15 27s80 144 84 153s3 20 6 28s86 170 92 178s15 3 32 6s11 6 9 12s-16 2 -25 5s-33 1 -53 1s-72 0 -91 6s-5 24 -3 33s22 12 23 23s-13 2 -13 12s3 20 4 31s12 10 22 18s34 4 31 14s-54 -3 -48 17 s51 11 63 12s214 5 228 7s72 -14 86 -11s23 -3 22 -14s-3 -16 -8 -29s1 -34 2 -45s-10 -20 -21 -21s-18 1 -25 1s-6 -13 0 -15s34 5 35 1s-4 -17 -10 -32s-33 -7 -42 -7s-6 -9 0 -14s-2 -16 -1 -25s-29 -45 -36 -55s-24 -32 -34 -44s-16 -7 -28 -15s3 -17 1 -26 s-15 -23 -25 -38s-78 -119 -86 -135s5 -19 14 -18s125 -1 145 -1s21 0 34 1s11 -9 12 -17s-4 -8 -11 -13s-19 -13 -20 -16s9 -11 16 -9s0 -20 -1 -33s-5 -19 -12 -20s-12 -1 -21 3s-20 -7 -21 -11s9 -4 18 -6s26 9 28 2s-4 -29 -13 -37s-26 4 -45 2s-126 -2 -146 1 s-158 -11 -172 -4zM228 794c8 7 21 13 35 25l103 86s54 49 67 28s8 -18 14 -23s-30 -18 -19 -26s29 16 38 5s11 -24 18 -30s10 -9 15 -12s-6 -11 -24 -17s-83 -38 -93 -43s-57 -27 -68 -33s-37 -18 -49 -22s-25 -4 -29 5s5 19 -3 22s-4 -8 -16 8s3 20 11 27z" glyph-name="Zacute" horiz-adv-x="510" unicode="Ź"/><glyph d="M26 1c-14 7 -11 34 -10 46s5 12 3 19s-5 10 -8 20s4 28 4 32s9 22 15 27s80 144 84 153s3 20 6 28s86 170 92 178s15 3 32 6s11 6 9 12s-16 2 -25 5s-33 1 -53 1s-72 0 -91 6s-5 24 -3 33s22 12 23 23s-13 2 -13 12s3 20 4 31s12 10 22 18s34 4 31 14s-54 -3 -48 17 s51 11 63 12s214 5 228 7s72 -14 86 -11s23 -3 22 -14s-3 -16 -8 -29s1 -34 2 -45s-10 -20 -21 -21s-18 1 -25 1s-6 -13 0 -15s34 5 35 1s-4 -17 -10 -32s-33 -7 -42 -7s-6 -9 0 -14s-2 -16 -1 -25s-29 -45 -36 -55s-24 -32 -34 -44s-16 -7 -28 -15s3 -17 1 -26 s-15 -23 -25 -38s-78 -119 -86 -135s5 -19 14 -18s125 -1 145 -1s21 0 34 1s11 -9 12 -17s-4 -8 -11 -13s-19 -13 -20 -16s9 -11 16 -9s0 -20 -1 -33s-5 -19 -12 -20s-12 -1 -21 3s-20 -7 -21 -11s9 -4 18 -6s26 9 28 2s-4 -29 -13 -37s-26 4 -45 2s-126 -2 -146 1 s-158 -11 -172 -4zM249 787c3 16 0 1 0 2c4 35 10 126 20 132s29 3 35 -3s6 -21 14 -14s19 20 29 18s22 -14 29 -12s0 -47 15 -43s9 51 24 49s33 3 30 -22s-29 -98 -31 -114s-4 -24 -24 -21s-25 15 -36 10s-16 -3 -32 -4s-28 0 -33 2s3 35 -5 29s-14 -27 -23 -28 s-15 3 -12 19z" glyph-name="Zdotaccent" horiz-adv-x="510" unicode="Ż"/><glyph d="M26 1c-14 7 -11 34 -10 46s5 12 3 19s-5 10 -8 20s4 28 4 32s9 22 15 27s80 144 84 153s3 20 6 28s86 170 92 178s15 3 32 6s11 6 9 12s-16 2 -25 5s-33 1 -53 1s-72 0 -91 6s-5 24 -3 33s22 12 23 23s-13 2 -13 12s3 20 4 31s12 10 22 18s34 4 31 14s-54 -3 -48 17 s51 11 63 12s214 5 228 7s72 -14 86 -11s23 -3 22 -14s-3 -16 -8 -29s1 -34 2 -45s-10 -20 -21 -21s-18 1 -25 1s-6 -13 0 -15s34 5 35 1s-4 -17 -10 -32s-33 -7 -42 -7s-6 -9 0 -14s-2 -16 -1 -25s-29 -45 -36 -55s-24 -32 -34 -44s-16 -7 -28 -15s3 -17 1 -26 s-15 -23 -25 -38s-78 -119 -86 -135s5 -19 14 -18s125 -1 145 -1s21 0 34 1s11 -9 12 -17s-4 -8 -11 -13s-19 -13 -20 -16s9 -11 16 -9s0 -20 -1 -33s-5 -19 -12 -20s-12 -1 -21 3s-20 -7 -21 -11s9 -4 18 -6s26 9 28 2s-4 -29 -13 -37s-26 4 -45 2s-126 -2 -146 1 s-158 -11 -172 -4zM178 872c-14 15 -4 21 11 32s19 4 24 15s9 10 14 14s18 -27 24 -20s-13 25 -5 31s18 -2 27 -14s60 -50 69 -58l27 -23s14 0 6 9s-12 12 -1 18l70 36s44 24 49 26s13 -2 18 -12s-5 -11 0 -15s11 0 14 -4s-7 -6 -3 -11s13 0 15 -5s-10 -12 -22 -22 s-93 -74 -101 -79s-44 -35 -59 -48s-26 -30 -54 0s-68 82 -74 85s-12 9 -23 19s-12 11 -26 26z" glyph-name="Zcaron" horiz-adv-x="510" unicode="Ž"/><glyph d="M124 1c-32 15 -39 154 -44 170s-5 48 -8 67s-15 142 -20 167s-18 212 -24 237s7 31 24 43s9 -1 23 4c5 2 7 2 7 3h3c9 0 13 -17 20 -13s6 6 10 12s7 9 18 7s21 2 29 -6s2 -11 -3 -22s9 -37 14 -25s1 25 1 34s7 13 20 20s9 0 20 -1s10 -6 13 -20s-1 -39 -1 -62 s-1 -126 -2 -141s3 -79 1 -99s-1 -37 3 -39s-3 10 4 12s42 91 48 107s64 165 69 173s12 26 21 38s10 18 20 21s8 -26 17 -31s3 22 6 32s7 3 13 5s15 0 26 -6s17 -6 27 -3s10 -7 14 -11s-4 -11 -10 -19s-2 -18 3 -21s4 3 13 15s3 34 13 39s14 2 21 -3s8 -96 5 -110 s11 -96 14 -104s14 -93 14 -102s6 -23 13 -16s9 27 10 37s20 68 23 78s39 100 43 111s39 99 41 109s8 6 16 4s10 -2 24 0s5 4 11 4s16 -1 21 -11s1 -33 5 -25s20 38 26 40s7 -11 7 -19s1 -16 6 -9s13 27 21 30s24 -1 38 2s10 1 12 -16s-72 -156 -72 -157s-66 -175 -73 -181 s-13 -22 -24 -37s-14 -27 -19 -39s-30 -97 -36 -118s-28 -63 -34 -73s-16 -28 -20 -51s-27 -32 -36 -28s-1 8 -9 11s-27 -18 -33 -18s-5 6 -10 12s2 23 0 28s-7 14 -12 11s-20 -50 -30 -50s-11 20 -11 20l-40 148c-4 13 -24 103 -28 110s0 20 3 31s20 28 21 36s-6 7 -14 1 s-15 -16 -24 -26s-19 -30 -28 -45s-57 -112 -62 -125s-58 -122 -67 -137s-15 -6 -31 -6s3 21 0 25s4 25 -8 20s-9 -45 -22 -47s-1 8 -5 12s-6 9 -15 3s12 -32 -20 -17zM337 836c-17 11 -21 20 -8 33s23 10 28 19s8 16 13 22s26 -33 37 -23s-27 34 -14 47s39 -23 50 -37 s41 -71 53 -74s29 -32 36 -41s11 -20 3 -27s-11 4 -16 -4s-11 -18 -16 -21s-9 -6 -25 5s-42 38 -54 43s-32 16 -41 24s-29 23 -46 34z" glyph-name="Wgrave" horiz-adv-x="834" unicode="Ẁ"/><glyph d="M124 1c-32 15 -39 154 -44 170s-5 48 -8 67s-15 142 -20 167s-18 212 -24 237s7 31 24 43s9 -1 23 4c5 2 7 2 7 3h3c9 0 13 -17 20 -13s6 6 10 12s7 9 18 7s21 2 29 -6s2 -11 -3 -22s9 -37 14 -25s1 25 1 34s7 13 20 20s9 0 20 -1s10 -6 13 -20s-1 -39 -1 -62 s-1 -126 -2 -141s3 -79 1 -99s-1 -37 3 -39s-3 10 4 12s42 91 48 107s64 165 69 173s12 26 21 38s10 18 20 21s8 -26 17 -31s3 22 6 32s7 3 13 5s15 0 26 -6s17 -6 27 -3s10 -7 14 -11s-4 -11 -10 -19s-2 -18 3 -21s4 3 13 15s3 34 13 39s14 2 21 -3s8 -96 5 -110 s11 -96 14 -104s14 -93 14 -102s6 -23 13 -16s9 27 10 37s20 68 23 78s39 100 43 111s39 99 41 109s8 6 16 4s10 -2 24 0s5 4 11 4s16 -1 21 -11s1 -33 5 -25s20 38 26 40s7 -11 7 -19s1 -16 6 -9s13 27 21 30s24 -1 38 2s10 1 12 -16s-72 -156 -72 -157s-66 -175 -73 -181 s-13 -22 -24 -37s-14 -27 -19 -39s-30 -97 -36 -118s-28 -63 -34 -73s-16 -28 -20 -51s-27 -32 -36 -28s-1 8 -9 11s-27 -18 -33 -18s-5 6 -10 12s2 23 0 28s-7 14 -12 11s-20 -50 -30 -50s-11 20 -11 20l-40 148c-4 13 -24 103 -28 110s0 20 3 31s20 28 21 36s-6 7 -14 1 s-15 -16 -24 -26s-19 -30 -28 -45s-57 -112 -62 -125s-58 -122 -67 -137s-15 -6 -31 -6s3 21 0 25s4 25 -8 20s-9 -45 -22 -47s-1 8 -5 12s-6 9 -15 3s12 -32 -20 -17zM404 794c8 7 21 13 35 25l103 86s54 49 67 28s8 -18 14 -23s-30 -18 -19 -26s29 16 38 5s11 -24 18 -30 s10 -9 15 -12s-6 -11 -24 -17s-83 -38 -93 -43s-57 -27 -68 -33s-37 -18 -49 -22s-25 -4 -29 5s5 19 -3 22s-4 -8 -16 8s3 20 11 27z" glyph-name="Wacute" horiz-adv-x="834" unicode="Ẃ"/><glyph d="M124 1c-32 15 -39 154 -44 170s-5 48 -8 67s-15 142 -20 167s-18 212 -24 237s7 31 24 43s9 -1 23 4c5 2 7 2 7 3h3c9 0 13 -17 20 -13s6 6 10 12s7 9 18 7s21 2 29 -6s2 -11 -3 -22s9 -37 14 -25s1 25 1 34s7 13 20 20s9 0 20 -1s10 -6 13 -20s-1 -39 -1 -62 s-1 -126 -2 -141s3 -79 1 -99s-1 -37 3 -39s-3 10 4 12s42 91 48 107s64 165 69 173s12 26 21 38s10 18 20 21s8 -26 17 -31s3 22 6 32s7 3 13 5s15 0 26 -6s17 -6 27 -3s10 -7 14 -11s-4 -11 -10 -19s-2 -18 3 -21s4 3 13 15s3 34 13 39s14 2 21 -3s8 -96 5 -110 s11 -96 14 -104s14 -93 14 -102s6 -23 13 -16s9 27 10 37s20 68 23 78s39 100 43 111s39 99 41 109s8 6 16 4s10 -2 24 0s5 4 11 4s16 -1 21 -11s1 -33 5 -25s20 38 26 40s7 -11 7 -19s1 -16 6 -9s13 27 21 30s24 -1 38 2s10 1 12 -16s-72 -156 -72 -157s-66 -175 -73 -181 s-13 -22 -24 -37s-14 -27 -19 -39s-30 -97 -36 -118s-28 -63 -34 -73s-16 -28 -20 -51s-27 -32 -36 -28s-1 8 -9 11s-27 -18 -33 -18s-5 6 -10 12s2 23 0 28s-7 14 -12 11s-20 -50 -30 -50s-11 20 -11 20l-40 148c-4 13 -24 103 -28 110s0 20 3 31s20 28 21 36s-6 7 -14 1 s-15 -16 -24 -26s-19 -30 -28 -45s-57 -112 -62 -125s-58 -122 -67 -137s-15 -6 -31 -6s3 21 0 25s4 25 -8 20s-9 -45 -22 -47s-1 8 -5 12s-6 9 -15 3s12 -32 -20 -17zM330 848c5 27 11 35 24 31s11 -9 20 -7s16 6 23 4s-3 -25 7 -25s7 31 19 29s32 3 30 -16s-4 -36 -8 -56 s0 -52 -16 -53s-24 6 -38 3s-14 20 -23 18s-15 -18 -24 -19s-1 22 -7 19s-5 -19 -13 -20s-8 7 -3 40s4 25 9 52zM499 855c7 23 26 24 38 22s13 -13 22 -10s13 14 19 12s-2 -34 9 -34s6 33 20 33s21 5 15 -27l-15 -78s6 -16 -28 -17s-13 16 -23 14s-17 -13 -26 -14 s-2 34 -9 34s-10 -34 -22 -33s-16 3 -8 44s1 31 8 54z" glyph-name="Wdieresis" horiz-adv-x="834" unicode="Ẅ"/><glyph d="M62 169c-15 0 -30 -2 -28 22c1 10 1 12 3 17c4 9 33 -5 35 2c3 12 -29 4 -27 32s21 25 17 45s-12 39 5 38s194 1 206 1s146 -1 163 0s80 10 75 -10s-35 -23 -38 -29s31 -10 28 -20s-20 -29 -20 -36s-2 -31 -5 -38s3 -10 -42 -12s-208 -2 -215 -3s-9 -7 -29 -8 s-113 -1 -128 -1z" glyph-name="endash" horiz-adv-x="541" unicode="–"/><glyph d="M62 169c-15 0 -30 -2 -28 22c1 10 1 12 3 17c4 9 33 -5 35 2c3 12 -29 4 -27 32s21 25 17 45s-12 39 5 38s194 1 206 1s310 1 327 2s80 10 75 -10s-35 -23 -38 -29s31 -10 28 -20s-20 -29 -20 -36s-2 -31 -5 -38s3 -10 -42 -12s-372 -4 -379 -5s-9 -7 -29 -8 s-113 -1 -128 -1z" glyph-name="emdash" horiz-adv-x="714" unicode="—"/><glyph d="M574 477c-4 -17 -10 -35 -13 -40c-5 -9 -15 -17 -16 -22s2 -21 1 -28s-22 -76 -28 -94s-7 -29 -11 -49s-31 -178 -34 -195s0 -50 -15 -49s-4 42 -11 42s-13 -6 -17 -13s-6 -27 -17 -28s-12 -1 -17 4s-20 15 -23 10s-31 -11 -36 -11s-19 7 -17 18s3 24 5 42s2 35 7 50 s5 47 7 60s8 72 8 81s-26 13 -39 11s-44 3 -55 4s-20 8 -26 0s-13 -16 -13 -24s-10 -65 -13 -73s-8 -44 -11 -53s-16 -83 -17 -91s-5 -18 -7 -21s-8 -4 -15 -7s-10 10 -15 11s-10 6 -14 3s-7 -3 -14 -8s-21 -4 -34 -5s-1 31 -11 30s-14 -27 -24 -26s-13 17 -12 27s2 24 5 31 s11 92 9 99s-3 2 -2 7s8 4 12 14s4 20 4 31s-6 35 -5 41l27 180c1 7 1 14 5 27c2 4 11 8 27 8s16 13 9 13s-25 -2 -42 0s-64 -4 -73 3s2 21 6 37s1 21 6 24s32 -4 33 9s-34 10 -31 16s-4 10 2 30s53 4 71 4s23 7 25 19s9 46 11 49c3 6 13 13 23 13s15 -4 19 -6s3 -9 8 -17 s5 -12 10 -6s13 36 22 36s-2 -37 16 -35s0 23 10 27s21 3 27 5s7 -15 13 -20s10 18 17 21s10 5 18 4s-10 -55 -9 -72c-2 -7 -2 -14 6 -15s20 -1 31 -3s62 0 77 2s11 7 12 14s8 33 14 45s4 20 15 21s30 6 34 3s-7 -42 4 -43s14 36 22 41s19 8 26 8s10 8 18 6s16 -13 23 -16 s19 8 27 7s16 0 18 -5s1 -13 -3 -24l-14 -43c-3 -4 -8 -11 11 -10c11 1 13 2 40 2s18 2 22 -12s-9 -16 -9 -36s-36 -5 -34 -19s29 0 25 -10s-6 -6 -8 -23s-19 -27 -19 -27h-39c-12 0 -23 -4 -25 -11zM391 467c4 7 10 1 31 6s-1 14 -25 14s-89 -3 -100 -3s-24 -1 -28 -11 s-14 -61 -16 -69c-3 -10 -13 -40 -6 -41s23 -3 27 -1s9 9 2 12s-16 -2 -15 6s3 11 13 11s36 -1 46 -3s20 1 27 2s18 -2 23 5s11 21 13 31c1 4 4 34 8 41z" glyph-name="Hbar" horiz-adv-x="639" unicode="Ħ"/><glyph d="M266 484l-8 -21l-21 -83c-1 -3 -3 -11 -5 -24s-14 -47 -9 -48s13 41 17 48s18 22 26 24s76 56 83 61s54 37 57 40s26 -9 29 -14s-28 -27 -22 -30s12 8 17 12s13 12 17 8s-7 -16 4 -15s9 7 17 4s15 -4 17 -11s14 -9 16 -13s11 -14 -6 -27s-134 -91 -139 -94 s-37 -29 -41 -30s-17 -13 -19 -17s1 -6 9 -2s15 9 19 5l101 -104s57 -53 68 -67s33 -31 8 -47s-26 -16 -32 -7s-7 15 -14 9s-7 -14 -9 -18s-10 -13 -13 -10s-3 8 -8 6s-26 -19 -36 -18s-22 15 -37 32s-85 87 -96 95s-43 44 -47 52s1 23 -4 29s-12 -18 -10 -20s-2 -10 -2 -12 c-3 -19 -26 -124 -32 -151s-15 -26 -24 -24s-1 8 -7 8s-14 -8 -24 -7s12 26 0 26s-18 -27 -24 -25s-11 5 -19 4s-21 -7 -33 -7s-9 25 -9 26s2 12 7 40s45 328 50 364l5 42s1 28 17 27s13 -13 22 -11s13 15 23 14s-11 -52 8 -50s16 48 29 47s19 -14 28 -12s19 14 34 13 s27 -3 22 -17z" glyph-name="kgreenlandic" horiz-adv-x="509" unicode="ĸ"/><glyph d="M29 51c0 1 9 76 9 92s18 62 23 75s-6 61 -7 75s23 137 27 154s9 51 13 76s20 116 24 128s8 36 16 41s15 2 33 -1s-3 -49 11 -49s19 55 29 56s11 -23 15 -26s12 10 17 19s16 8 24 7s26 2 38 0s18 0 23 -9s-19 -64 -17 -74s-14 -57 -19 -76s-34 -156 -38 -170 s-15 -36 -13 -43s-9 -74 -18 -116s-4 -51 5 -56s45 0 59 -2s47 -2 65 -1s44 0 54 -4s6 -13 5 -20s-17 -11 -24 -10s-21 -3 -21 -8s31 -9 35 -8s5 -10 6 -12s3 -9 3 -22s-6 -9 -13 -9s-12 3 -17 3s-3 -11 -1 -17s5 -8 12 -11s8 -7 9 -17s-13 -9 -18 -10s-69 -4 -88 -1 s-75 1 -81 4s-35 -6 -44 -7s-22 3 -26 6s4 20 4 24s-12 3 -17 0s-8 -25 -17 -27s-36 1 -57 2s-23 43 -23 44zM159 -56l117 -115c25 -24 45 -43 58 -40s6 10 12 13s5 -11 24 -10s35 8 30 12s-49 65 -75 100s-59 69 -66 69s1 -20 -7 -21s-8 18 -13 21s-18 -13 -30 -13 s-17 14 -38 13s-28 -13 -12 -29z" glyph-name="uni013B" horiz-adv-x="431" unicode="Ļ"/><glyph d="M50 187c1 -1 8 66 11 91s29 175 33 192s17 22 21 33s-5 39 -1 54s25 73 35 112s40 27 52 26s8 -72 20 -74s-8 76 8 72s14 -39 25 -41s6 41 29 39c20 -2 70 -115 76 -123s-2 -20 2 -26s9 -5 22 -24s54 -159 63 -161s8 12 10 20s18 115 22 159s32 159 40 160s16 5 32 1 s-4 -63 11 -65s33 68 45 69s9 -16 15 -18s5 17 17 16s6 -22 14 -24s16 22 26 21s6 -17 -2 -46s-79 -344 -89 -393s-35 -256 -51 -257s-21 27 -30 27s2 -27 -5 -28s-18 17 -24 17s-5 -16 -10 -16s-13 -6 -27 3s-91 157 -101 175s-66 177 -84 178s-45 -171 -50 -197 s-29 -154 -37 -156s-5 9 -11 11s-6 -10 -18 -11s-6 47 -12 49s-15 -38 -18 -45s-20 -8 -26 -6s-20 0 -32 0s-23 15 -20 32s18 155 19 154zM228 -60c-7 -15 -46 -65 -55 -81s-27 -46 -40 -64s-10 -19 -8 -25s9 5 18 6s6 -5 15 -7s6 5 17 18s15 19 17 12s-15 -20 -13 -26 s10 -4 15 -3s20 17 35 34s75 79 84 92s50 53 57 61s-20 7 -34 6s-15 -25 -31 -24s7 25 0 24s-16 -6 -28 -9s-8 10 -19 10s-23 -9 -30 -24z" glyph-name="uni0145" horiz-adv-x="687" unicode="Ņ"/><glyph d="M148 152c37 1 69 26 68 78c-1 14 -12 28 -28 43c-8 7 -15 18 -24 26s-20 12 -29 21c-35 35 -68 84 -70 163c-1 56 20 99 52 132c13 13 30 19 45 29c13 8 24 22 37 28c50 23 102 31 134 32c75 2 148 -33 144 -50s-7 -32 -13 -28c-7 3 -39 15 -40 6c0 -9 5 -16 14 -16 s17 2 18 -6s-4 -43 -12 -48s-10 -4 -14 -15s-9 -20 -9 -20s8 -24 -4 -20c-12 3 -54 28 -95 27s-58 -38 -47 -74c7 -24 54 -56 86 -114c6 -11 9 -25 14 -38c4 -12 10 -22 12 -36c2 -13 4 -28 4 -43c2 -82 -46 -148 -114 -189c-11 -6 -22 -9 -34 -14c-14 -6 -28 -15 -43 -19 l-16 -5c-2 -7 -3 -15 -4 -21c-2 -11 -10 -9 -22 -10s-8 -9 1 -8s87 13 87 -76c0 -123 -121 -135 -159 -135s-31 4 -31 8s3 2 6 9s-3 11 0 17s24 -1 27 9s-25 0 -24 4s-31 20 5 20s75 4 75 48s-35 46 -45 48s-12 6 -9 14s6 22 10 37l7 28c-95 1 -116 62 -113 65s4 19 8 20 s15 -17 25 -16s11 4 11 11c1 7 -10 14 -16 15s-13 4 -12 9s2 17 6 24c3 6 9 4 9 10s-2 17 0 21s8 13 10 19c1 6 11 4 18 1c8 -3 57 -22 94 -21z" glyph-name="Scedilla" horiz-adv-x="471" unicode="Ş"/><glyph d="M92 2c-1 -2 -1 -2 -11 2s2 123 2 134s9 67 14 77s0 25 -2 35s9 64 10 73s20 131 20 136s3 27 6 38s20 13 26 12s7 -26 15 -26s8 30 6 35s-27 8 -40 5s-9 1 -17 0s-73 3 -87 3s-2 10 1 20s28 5 28 13s-12 8 -25 10s-6 11 -5 17s5 13 8 20s2 13 0 19s9 5 16 9s21 10 21 12 s-15 3 -23 3s-16 7 -16 13s3 14 6 25s16 10 33 9s38 0 53 1s59 4 83 1s31 1 46 0s110 1 135 0s49 -3 65 -4s9 -4 9 -15s-4 -11 -4 -20s-2 -11 -9 -16s-18 -6 -28 -5s-16 -1 -16 -10s14 -9 35 -8s15 -4 11 -14s-8 -40 -6 -50s2 -18 -2 -28s-39 -4 -52 -5s-56 0 -68 -1 s-16 -19 -8 -36s-11 -56 -18 -75s-10 -15 -13 -21s3 -27 -1 -38s-3 -29 -2 -35s-36 -155 -43 -190s-24 -110 -30 -121s-24 -3 -46 -3s-11 12 -20 12s-18 -8 -26 -8s11 34 -5 34s-25 -37 -26 -39zM56 -40c-7 -15 -46 -65 -55 -81s-27 -46 -40 -64s-10 -19 -8 -25s9 5 18 6 s6 -5 15 -7s6 5 17 18s15 19 17 12s-15 -20 -13 -26s10 -4 15 -3s20 17 35 34s75 79 84 92s50 53 57 61s-20 7 -34 6s-15 -25 -31 -24s7 25 0 24s-16 -6 -28 -9s-8 10 -19 10s-23 -9 -30 -24z" glyph-name="uni0162" horiz-adv-x="464" unicode="Ţ"/><glyph d="M39 131c0 1 27 154 28 170s1 30 -1 51s15 93 20 125s30 30 39 29s7 -29 12 -27s6 23 6 31s-4 12 -17 18s-11 -1 -22 -3s-35 4 -40 9s0 19 4 30s12 9 16 17s1 9 -4 12s-5 14 -5 20s-4 16 -6 23s14 3 18 9s11 2 18 3s8 4 6 10s-36 1 -38 8s0 15 5 24s14 3 21 3s78 5 82 6 s8 -14 13 -14s10 13 17 15s202 18 267 -56s52 -168 27 -228s-89 -109 -97 -115s-14 -9 -15 -15s13 1 15 0s1 -5 7 -15s8 -26 13 -43s11 -31 15 -43s41 -130 50 -153s-1 -22 -4 -25s-16 -9 -31 -10s-16 43 -26 39s3 -37 -5 -33s-8 1 -14 3s-9 8 -14 11s-7 -15 -12 -15 s-17 -3 -21 -1s-11 9 -14 16s-30 63 -35 71s-22 47 -28 55s-45 89 -49 93s-11 20 -12 27s3 10 10 13s8 12 4 14s-10 1 -16 -4s-10 -17 -10 -23s-1 -13 -4 -20s-14 -40 -14 -56s-11 -54 -16 -73s-8 -29 -10 -44s-11 -48 -12 -54s-12 -15 -30 -15s-6 0 -12 9s-9 6 -16 6 s-18 -17 -26 -16s3 35 -7 37s-3 -39 -16 -36s-19 7 -24 18s10 111 10 112zM198 523c-12 0 -25 -38 -13 -38s25 38 13 38zM284 522c-2 -5 -38 -134 -40 -142s2 -13 13 -12s44 14 62 33s17 28 22 28s7 1 11 12s13 61 -20 76s-46 10 -48 5zM188 -40c-7 -15 -46 -65 -55 -81 s-27 -46 -40 -64s-10 -19 -8 -25s9 5 18 6s6 -5 15 -7s6 5 17 18s15 19 17 12s-15 -20 -13 -26s10 -4 15 -3s20 17 35 34s75 79 84 92s50 53 57 61s-20 7 -34 6s-15 -25 -31 -24s7 25 0 24s-16 -6 -28 -9s-8 10 -19 10s-23 -9 -30 -24z" glyph-name="uni0156" horiz-adv-x="554" unicode="Ŗ"/><glyph d="M49 909c7 15 19 24 30 24s7 -13 19 -10s21 8 28 9s-16 -23 0 -24s17 23 31 24s41 2 34 -6s-48 -48 -57 -61s-69 -75 -84 -92s-30 -33 -35 -34s-13 -3 -15 3s15 19 13 26s-6 1 -17 -12s-8 -20 -17 -18s-6 8 -15 7s-16 -12 -18 -6s-5 7 8 25s31 48 40 64s48 66 55 81z M208 898c5 9 24 35 36 35s-4 -22 5 -23s18 20 28 21s3 -3 20 -2s42 3 51 3s14 -5 -1 -18s-67 -71 -84 -89s-59 -66 -67 -74s-12 -13 -18 -12s0 12 -1 22s-11 -17 -21 -20s6 11 -10 6s-1 -10 -19 -9s-23 2 -8 24s39 57 48 77s36 50 41 59z" glyph-name="hungarumlaut.case" horiz-adv-x="302"/><glyph d="M41 672c-14 15 -4 21 11 32s19 4 24 15s9 10 14 14s18 -27 24 -20s-13 25 -5 31s18 -2 27 -14s60 -50 69 -58l27 -23s14 0 6 9s-12 12 -1 18l70 36s44 24 49 26s13 -2 18 -12s-5 -11 0 -15s11 0 14 -4s-7 -6 -3 -11s13 0 15 -5s-10 -12 -22 -22s-93 -74 -101 -79 s-44 -35 -59 -48s-26 -30 -54 0s-68 82 -74 85s-12 9 -23 19s-12 11 -26 26z" glyph-name="caron.salt" horiz-adv-x="431"/><glyph d="M-13 762c-2 2 -9 -1 -14 6s22 15 13 27s-20 -18 -29 -9s-6 15 3 24s68 71 122 71s92 -44 134 -44s77 35 84 41s6 -1 12 -6s5 -5 13 -7s-7 -22 -1 -29s18 15 24 9s-8 -22 -13 -29s1 -6 -3 -11s-44 -69 -111 -69c-82 0 -107 47 -147 47s-72 -43 -77 -45s-7 8 -12 13 s4 9 2 11z" glyph-name="tilde.case" horiz-adv-x="302"/><glyph d="M152 881c-4 -2 -5 1 -8 10s-15 11 -11 -2s6 -10 1 -15s-21 -14 -21 -38s27 -29 32 -29s43 7 43 48c0 24 -24 26 -27 26s-5 2 -9 0zM109 948c4 -9 2 -8 -5 -13c-16 -12 3 -16 15 -6c9 8 5 16 2 23s-9 9 -4 12s14 12 57 12c27 0 65 -10 89 -39c7 -9 9 -22 13 -34 c4 -11 9 -21 9 -36c0 -50 -27 -94 -65 -122c-5 -4 -11 -8 -17 -11c-22 -12 -46 -20 -70 -20c-35 0 -62 10 -82 28c-7 6 -9 13 -14 21c-4 7 -11 15 -14 23c-4 13 -6 27 -6 42c0 68 60 111 69 118s19 10 23 2z" glyph-name="ring.case" horiz-adv-x="302"/><glyph d="M53 787c3 16 0 1 0 2c4 35 10 126 20 132s29 3 35 -3s6 -21 14 -14s19 20 29 18s22 -14 29 -12s0 -47 15 -43s9 51 24 49s33 3 30 -22s-29 -98 -31 -114s-4 -24 -24 -21s-25 15 -36 10s-16 -3 -32 -4s-28 0 -33 2s3 35 -5 29s-14 -27 -23 -28s-15 3 -12 19z" glyph-name="dotaccent.case" horiz-adv-x="302"/><glyph d="M145 812c44 0 64 29 67 37s21 6 37 3s3 -14 15 -14s12 14 17 15s-2 -28 6 -24s9 22 11 22s32 8 25 -11c-20 -53 -86 -126 -203 -126c-128 0 -148 103 -140 129c3 11 12 8 21 8s15 -22 24 -23s4 22 7 22s20 1 27 0s22 11 26 -7s35 -31 60 -31z" glyph-name="breve.case" horiz-adv-x="302"/><glyph d="M-22 872c-14 15 -4 21 11 32s19 4 24 15s9 10 14 14s18 -27 24 -20s-13 25 -5 31s18 -2 27 -14s60 -50 69 -58l27 -23s14 0 6 9s-12 12 -1 18l70 36s44 24 49 26s13 -2 18 -12s-5 -11 0 -15s11 0 14 -4s-7 -6 -3 -11s13 0 15 -5s-10 -12 -22 -22s-93 -74 -101 -79 s-44 -35 -59 -48s-26 -30 -54 0s-68 82 -74 85s-12 9 -23 19s-12 11 -26 26z" glyph-name="caron.case" horiz-adv-x="302"/><glyph d="M19 734c-11 -5 -22 -9 -29 5s8 22 -1 23s-13 -6 -22 5s10 25 20 32s82 64 88 69l74 59c15 12 33 14 51 -7s39 -47 45 -50s31 -28 39 -37s40 -39 48 -50s13 -10 -8 -22s-18 -11 -24 -13s-11 28 -23 21s11 -20 0 -30s-17 -14 -27 -13s-6 -9 -29 14s-48 39 -56 46 s-15 10 -27 23s-32 17 -14 -4s3 -8 -11 -18s-63 -37 -70 -39s-13 -9 -24 -14z" glyph-name="circumflex.case" horiz-adv-x="302"/><glyph d="M25 794c8 7 21 13 35 25l103 86s54 49 67 28s8 -18 14 -23s-30 -18 -19 -26s29 16 38 5s11 -24 18 -30s10 -9 15 -12s-6 -11 -24 -17s-83 -38 -93 -43s-57 -27 -68 -33s-37 -18 -49 -22s-25 -4 -29 5s5 19 -3 22s-4 -8 -16 8s3 20 11 27z" glyph-name="acute.case" horiz-adv-x="302"/><glyph d="M317 755c0 0 -335 -6 -339 -6s-29 4 -27 32s21 25 17 45s-12 39 5 38s194 1 206 1s77 -1 94 0s80 10 75 -10s-35 -23 -38 -29s31 -10 28 -20s-20 -29 -20 -36c0 -3 0 -9 -1 -15z" glyph-name="macron.case" horiz-adv-x="302"/><glyph d="M9 848c5 27 11 35 24 31s11 -9 20 -7s16 6 23 4s-3 -25 7 -25s7 31 19 29s32 3 30 -16s-4 -36 -8 -56s0 -52 -16 -53s-24 6 -38 3s-14 20 -23 18s-15 -18 -24 -19s-1 22 -7 19s-5 -19 -13 -20s-8 7 -3 40s4 25 9 52zM178 855c7 23 26 24 38 22s13 -13 22 -10s13 14 19 12 s-2 -34 9 -34s6 33 20 33s21 5 15 -27l-15 -78s6 -16 -28 -17s-13 16 -23 14s-17 -13 -26 -14s-2 34 -9 34s-10 -34 -22 -33s-16 3 -8 44s1 31 8 54z" glyph-name="dieresis.case" horiz-adv-x="302"/><glyph d="M58 836c-17 11 -21 20 -8 33s23 10 28 19s8 16 13 22s26 -33 37 -23s-27 34 -14 47s39 -23 50 -37s41 -71 53 -74s29 -32 36 -41s11 -20 3 -27s-11 4 -16 -4s-11 -18 -16 -21s-9 -6 -25 5s-42 38 -54 43s-32 16 -41 24s-29 23 -46 34z" glyph-name="grave.case" horiz-adv-x="302"/><glyph glyph-name="uniF8FF" horiz-adv-x="0" unicode=""/><glyph d="M42 78l17 110l13 97c2 13 -11 12 -27 12s-17 2 -16 9c1 8 6 13 7 20c1 6 30 -4 30 4c1 9 -32 3 -31 7c2 4 5 8 5 13c0 6 -5 8 1 26c5 18 22 12 33 10c12 -1 11 -8 12 -3c0 5 2 55 59 122s122 66 141 66c32 0 54 -7 48 -22c-4 -10 -16 -5 -16 -15c0 -4 10 -6 8 -11 c-3 -5 -3 -13 -8 -21c-4 -9 -36 1 -35 -6c2 -7 37 -6 35 -12c-1 -6 0 -44 -36 -44c-37 0 -56 -38 -61 -47c-6 -10 1 -10 11 -10s23 4 31 2c8 -3 3 -21 -1 -31c-4 -11 -33 -4 -37 -12s33 2 30 -11s-17 -11 -13 -14c5 -3 12 -2 6 -11c-6 -8 1 -30 -13 -30c-13 0 -32 2 -49 2 c-16 1 -20 -11 -10 -11s18 -1 16 -9c-2 -9 -6 -48 -12 -75c-6 -26 -18 -97 -24 -136c-6 -38 -14 -46 -23 -49c-10 -2 -8 13 -18 16c-9 4 -15 -14 -24 -13s11 28 -1 27c-13 -1 -11 -26 -18 -27c-7 -2 -22 1 -34 5c-11 5 0 44 4 72z" glyph-name="longs" horiz-adv-x="311" unicode="ſ"/><glyph d="M148 152c37 1 69 26 68 78c-1 14 -12 28 -28 43c-8 7 -15 18 -24 26s-20 12 -29 21c-35 35 -68 84 -70 163c-1 56 20 99 52 132c13 13 30 19 45 29c13 8 24 22 37 28c50 23 102 31 134 32c75 2 148 -33 144 -50s-7 -32 -13 -28c-7 3 -39 15 -40 6c0 -9 5 -16 14 -16 s17 2 18 -6s-4 -43 -12 -48s-10 -4 -14 -15s-9 -20 -9 -20s8 -24 -4 -20c-12 3 -54 28 -95 27s-58 -38 -47 -74c7 -24 54 -56 86 -114c6 -11 9 -25 14 -38c4 -12 10 -22 12 -36c2 -13 4 -28 4 -43c2 -82 -46 -148 -114 -189c-11 -6 -22 -9 -34 -14c-14 -6 -28 -15 -43 -19 c-27 -8 -56 -13 -84 -13c-102 -3 -124 62 -121 65s4 19 8 20s15 -17 25 -16s11 4 11 11c1 7 -10 14 -16 15s-13 4 -12 9s2 17 6 24c3 6 9 4 9 10s-2 17 0 21s8 13 10 19c1 6 11 4 18 1c8 -3 57 -22 94 -21zM56 -40c-7 -15 -46 -65 -55 -81s-27 -46 -40 -64s-10 -19 -8 -25 s9 5 18 6s6 -5 15 -7s6 5 17 18s15 19 17 12s-15 -20 -13 -26s10 -4 15 -3s20 17 35 34s75 79 84 92s50 53 57 61s-20 7 -34 6s-15 -25 -31 -24s7 25 0 24s-16 -6 -28 -9s-8 10 -19 10s-23 -9 -30 -24z" glyph-name="uni0218" horiz-adv-x="471" unicode="Ș"/><glyph d="M92 2c-1 -2 -1 -2 -11 2s2 123 2 134s9 67 14 77s0 25 -2 35s9 64 10 73s20 131 20 136s3 27 6 38s20 13 26 12s7 -26 15 -26s8 30 6 35s-27 8 -40 5s-9 1 -17 0s-73 3 -87 3s-2 10 1 20s28 5 28 13s-12 8 -25 10s-6 11 -5 17s5 13 8 20s2 13 0 19s9 5 16 9s21 10 21 12 s-15 3 -23 3s-16 7 -16 13s3 14 6 25s16 10 33 9s38 0 53 1s59 4 83 1s31 1 46 0s110 1 135 0s49 -3 65 -4s9 -4 9 -15s-4 -11 -4 -20s-2 -11 -9 -16s-18 -6 -28 -5s-16 -1 -16 -10s14 -9 35 -8s15 -4 11 -14s-8 -40 -6 -50s2 -18 -2 -28s-39 -4 -52 -5s-56 0 -68 -1 s-16 -19 -8 -36s-11 -56 -18 -75s-10 -15 -13 -21s3 -27 -1 -38s-3 -29 -2 -35s-36 -155 -43 -190s-24 -110 -30 -121s-24 -3 -46 -3s-11 12 -20 12s-18 -8 -26 -8s11 34 -5 34s-25 -37 -26 -39zM56 -40c-7 -15 -46 -65 -55 -81s-27 -46 -40 -64s-10 -19 -8 -25s9 5 18 6 s6 -5 15 -7s6 5 17 18s15 19 17 12s-15 -20 -13 -26s10 -4 15 -3s20 17 35 34s75 79 84 92s50 53 57 61s-20 7 -34 6s-15 -25 -31 -24s7 25 0 24s-16 -6 -28 -9s-8 10 -19 10s-23 -9 -30 -24z" glyph-name="uni021A" horiz-adv-x="464" unicode="Ț"/><glyph d="M168 693c14 -1 12 -18 22 -22s7 9 14 13s30 0 43 0s5 -10 9 -16s8 -15 18 -13s9 39 19 39s18 -2 27 -7s-2 -36 -2 -46s4 -26 5 -31s-9 -12 -14 -21s-25 -43 -26 -58s-10 -38 -12 -47s-3 -14 4 -15s20 8 22 17s24 35 24 35l70 91c10 13 23 33 30 42s38 49 47 46 s4 -10 6 -14s7 -2 13 0s7 -5 10 -11s4 -8 9 -13s7 5 14 7s11 -3 13 -9s-6 -15 -9 -22s1 -13 9 -14s10 9 14 15s11 0 16 -5s11 -9 6 -15s-22 -32 -26 -43s-29 -47 -36 -54s-30 -37 -36 -45s-12 -22 -18 -31s-16 -3 -22 -8s-20 -38 -25 -45s-10 -25 -10 -25l17 -37 c6 -12 20 -53 29 -65s21 -32 25 -45s29 -74 34 -88s17 -36 23 -50s0 -25 -5 -29s-6 -8 -16 -9s-2 9 -6 16s-11 1 -14 -6s-2 -10 -4 -17s-17 -12 -35 -13s-10 9 -16 19s-14 7 -20 4s0 -20 3 -30s-10 -7 -32 -18s-17 8 -24 18s-34 107 -41 120s-5 26 -9 36s-7 8 -13 18 s-23 80 -27 87s-8 18 -14 22s-3 13 -1 23s8 3 15 10s-8 8 -19 7s-10 -17 -9 -24s-3 -18 -7 -27s-15 -68 -21 -78s-6 -16 -10 -22s4 -15 3 -28s-19 -76 -20 -93s-5 -61 -22 -63s-15 5 -28 6s-17 -4 -27 -4s11 33 -2 36s-27 -39 -47 -36s-26 17 -25 29s12 99 12 112 s23 165 28 178s15 80 16 95s19 84 20 99s14 57 14 73s13 66 16 78s15 22 31 21zM193 -40c-7 -15 -46 -65 -55 -81s-27 -46 -40 -64s-10 -19 -8 -25s9 5 18 6s6 -5 15 -7s6 5 17 18s15 19 17 12s-15 -20 -13 -26s10 -4 15 -3s20 17 35 34s75 79 84 92s50 53 57 61 s-20 7 -34 6s-15 -25 -31 -24s7 25 0 24s-16 -6 -28 -9s-8 10 -19 10s-23 -9 -30 -24z" glyph-name="uni0136" horiz-adv-x="581" unicode="Ķ"/><glyph d="M303 275c-2 1 -9 -5 -14 -6s-9 12 -9 21s29 0 34 4s-5 4 -11 12s-23 4 -21 15s2 15 8 20s10 9 14 16s-11 6 -9 13s2 14 2 25s8 6 30 9s94 -2 110 -4s36 -2 45 -4s10 3 18 6s19 -5 29 -5s5 -4 5 -17s-8 -42 -14 -47s-4 -9 -5 -19s-1 -3 -30 -97s-117 -161 -125 -169 s-6 0 -16 1s-18 -17 -23 -23s-51 -35 -124 -26c-150 19 -167 208 -171 215s1 29 4 39s-11 23 -5 83s73 181 86 195s24 33 29 36s4 -2 11 5s-4 13 42 52s127 70 204 77s133 -45 140 -50s-3 -26 -4 -32s-4 -21 -10 -23s-12 -15 -17 -21s-9 -17 -16 -17s-4 7 -7 10 s-19 -7 -19 -15s6 -10 13 -14s-1 -10 -8 -17s-23 -15 -31 -12s-1 18 -32 19s-50 -14 -86 -33s-60 -53 -63 -61s-14 -16 -20 -15s-12 -14 -10 -18s3 -7 -19 -40s-37 -122 -29 -162s37 -56 45 -58s30 -3 42 1s36 26 41 36s34 54 35 67s6 13 11 13s7 1 16 4s6 1 11 -5 s0 -10 -3 -17s3 -15 7 -16s7 8 9 20s0 26 -1 28s-10 0 -21 1s-18 1 -33 0s-33 -1 -35 0zM136 -40c-7 -15 -46 -65 -55 -81s-27 -46 -40 -64s-10 -19 -8 -25s9 5 18 6s6 -5 15 -7s6 5 17 18s15 19 17 12s-15 -20 -13 -26s10 -4 15 -3s20 17 35 34s75 79 84 92s50 53 57 61 s-20 7 -34 6s-15 -25 -31 -24s7 25 0 24s-16 -6 -28 -9s-8 10 -19 10s-23 -9 -30 -24z" glyph-name="uni0122" horiz-adv-x="558" unicode="Ģ"/><glyph d="M620 262c-32 -121 -88 -195 -161 -234c-12 -6 -25 -6 -38 -11c-26 -9 -52 -20 -81 -23c-19 -2 -38 -3 -58 -3s-40 1 -58 3c-10 1 -21 11 -30 13c-61 11 -105 25 -130 41c-17 11 -32 8 -23 34c0 1 14 0 16 17c1 8 -12 16 -11 26l3 25c1 5 30 7 31 12c2 12 -23 26 -25 36 c-5 22 9 26 15 22c1 -1 2 -5 27 -19c15 -8 33 -22 54 -30c18 -7 38 -10 60 -14c21 -4 43 -7 67 -7c28 0 51 4 70 10c18 6 33 15 45 25c32 28 41 67 44 99c6 56 4 51 6 63s13 106 14 119s11 17 13 27s0 49 0 62s23 97 26 106s13 23 17 29s10 -5 17 -8s0 -18 3 -27 s13 -16 15 -10s1 17 1 27s3 16 7 18s28 2 37 4s10 -3 15 -6s2 -38 9 -36s16 21 22 33s14 4 30 5s23 2 33 4s6 -7 3 -22s-5 -22 -10 -38s-28 -110 -29 -121s-2 -14 0 -25s-4 -25 -13 -35s-7 -17 -10 -31c-9 -44 -14 -124 -23 -160zM59 281l3 30c3 16 12 66 14 81s14 42 14 54 s0 33 3 45s12 48 12 67s6 37 8 59s13 62 14 67s31 -12 39 -11s6 14 11 18s19 -1 31 -1s10 -7 23 -8s27 18 32 22s15 -4 19 -8s0 -50 10 -48s24 49 31 51s14 -9 20 -16s-7 -36 -7 -44s-17 -38 -20 -50s-17 -51 -18 -61s-20 -65 -22 -83s-54 -187 -54 -187 c-12 -30 -19 -21 -36 -16s9 15 -2 23s-24 -12 -36 -8s18 44 3 50s-21 -49 -39 -44s-11 -7 -26 -8s-32 1 -27 26z" glyph-name="IJ" horiz-adv-x="705" unicode="Ĳ"/><glyph d="M290 648c20 34 45 52 64 50s4 -18 20 -17s22 14 35 12s-3 -48 12 -45s13 53 33 51s24 4 27 -62s4 -206 7 -250s1 -125 1 -175s3 -119 2 -150s11 -61 -21 -61c-13 0 -57 -1 -105 -2l-83 -2c-39 -1 -71 6 -77 6c-8 0 -47 -5 -92 -4c-60 2 -130 4 -137 4c-13 0 -17 19 2 64 s57 114 71 149s30 59 44 85s109 203 131 237s46 76 66 110zM331 125c2 12 3 40 0 68s-10 117 -4 143s8 95 1 97s-18 -39 -28 -57s-55 -98 -65 -113s-60 -107 -67 -119s-25 -6 -35 -6s-19 -13 1 -14s47 5 65 3s56 -1 70 0c6 0 15 -3 29 -4s26 -15 1 -17s-30 -21 -18 -21 s26 10 35 7s16 3 17 16s-4 5 -2 17z" glyph-name="uni0394" horiz-adv-x="567" unicode="Δ"/><glyph d="M58 0c-16 3 -63 -9 -64 17s19 10 27 20s-29 15 -27 28s18 17 19 28s-14 29 -14 48s18 21 39 21s35 1 49 1s21 11 3 11s-31 -6 -35 8s-7 39 -7 56s5 143 61 235s11 47 23 65s77 88 142 115s27 -6 36 -12s12 -1 13 17s3 25 25 33s68 9 85 9s207 -30 207 -253 c0 -155 -86 -258 -93 -267s-20 -6 -26 -5s-23 -11 2 -11s46 -1 63 -2s18 -21 15 -32s-41 1 -46 -10s32 -5 39 -13s10 -17 5 -24s-19 -2 -18 -18s22 -19 21 -35s0 -28 -31 -29s-72 1 -86 3s-66 -7 -93 -5s-92 -13 -94 23s-4 40 0 46s16 11 12 23s-11 16 -11 37s-10 32 9 38 s55 14 102 102s48 156 28 214s-73 54 -65 37s1 -29 -8 -32s-66 -17 -109 -80s-61 -149 -40 -198s42 -29 40 -57s-26 -19 -21 -32s17 -1 19 -14s-6 -41 -3 -50s7 -21 5 -35s-11 -20 -40 -20s-41 11 -63 7s-79 -11 -95 -8z" glyph-name="uni03A9" horiz-adv-x="667" unicode="Ω"/><glyph d="M243 345c-6 -19 -27 -58 -27 -144s74 -51 85 -44s27 28 22 -10s14 13 19 38s7 64 12 95s21 132 24 171s20 33 36 33s-4 -33 12 -33s9 25 15 23s7 9 20 10s11 -19 23 -26s14 23 35 27s48 8 40 -20s-37 -166 -50 -209s-39 -178 -47 -216s-15 -40 -29 -40s7 42 -9 44 s-21 -41 -34 -43s-6 26 -24 31s-28 -33 -38 -32s-21 -4 -15 22c2 8 4 17 5 25c-4 -4 -10 -9 -20 -15c-52 -31 -111 -31 -119 -31s-21 1 -39 10s-22 -11 -10 -14s34 -4 32 -17s-7 -55 -18 -94s-11 -41 -24 -38s-14 -12 -35 -7s21 30 -1 37s-26 -33 -35 -28s-12 4 -27 2 s-34 -28 -32 -3s15 95 15 95l35 214c5 30 26 186 37 255s16 73 43 72s15 -46 37 -52s21 45 36 36s34 14 54 15s30 -3 25 -19s-23 -101 -29 -120zM292 73c5 0 20 -3 27 -10c0 13 -4 24 -14 25c-21 2 -24 -15 -13 -15z" glyph-name="uni03BC" horiz-adv-x="574" unicode="μ"/><glyph d="M51 77c4 15 12 98 16 118s10 85 15 108s4 23 20 33s14 13 7 16s-17 -5 -31 -4s-45 -1 -54 7s0 37 6 53s40 10 41 21s-29 6 -37 18s5 11 10 31s7 23 21 25s143 0 161 -2s175 0 199 0s138 1 162 0s22 -21 13 -36s-30 -13 -41 -28s40 -4 35 -30s-17 -15 -14 -33 s3 -16 -3 -22s-42 -2 -54 -1s-19 -4 -22 -13s-27 -115 -30 -130s-18 -48 -24 -88s-23 -119 -45 -119s-8 38 -18 39s-16 -36 -30 -38s-8 6 -19 10s-13 -12 -34 -10s-15 25 -12 47s9 74 14 94s12 96 15 114s6 51 7 62s3 19 15 20s19 10 -2 12s-56 0 -69 0s-23 -72 -29 -102 s-28 -104 -41 -165s-26 -88 -45 -83s-1 38 -11 44s-22 -46 -30 -44s-13 1 -27 8s-16 -11 -36 -7s-3 60 1 75z" glyph-name="pi" horiz-adv-x="597" unicode="π"/></font>
</defs>
</svg>
