<svg version="1.1" xmlns="http://www.w3.org/2000/svg" xmlns:xlink="http://www.w3.org/1999/xlink" width="329.82552" height="354.05437" viewBox="0,0,329.82552,354.05437"><g transform="translate(-74.78045,-3.61615)"><g fill-opacity="0.00784" fill="#00ffff" stroke="none" stroke-width="0" stroke-miterlimit="10"><path d="M167,156.79576v-78.52282h12v78.52282z"/><path d="M171.11526,112.63127h41.30122v11.24289h-41.30122z"/><path d="M301.51822,156.79576v-78.52282h12v78.52283z"/><path d="M201.33749,78.59385h78.52282v12h-78.52282z"/><path d="M245.91933,82.7091v41.14616h-10.64085v-41.14616z"/><path d="M201.33749,280.76767h78.52282v12h-78.52282z"/><path d="M245.91933,284.88293v40.80637h-10.64085v-40.80637z"/><path d="M201.67728,146.21165h27.55463v5.20424h-27.55463z"/><path d="M252.64547,146.21165h27.55463v5.20424h-27.55463z"/><path d="M275.03367,190.74102v-40.07432h5.20424v40.07432z"/><path d="M201.58483,190.74102v-40.07432h5.20424v40.07432z"/><path d="M278.8934,190.83354h-75.96409v-5.20424h75.96409z"/><path d="M167,224.4021v-43.88502h12v43.88502z"/><path d="M301.79532,224.4021v-43.88502h12v43.88502z"/><path d="M268.3515,112.63127h41.30122v11.24289h-41.30122z"/><path d="M201.33749,213.25102h78.52282v11.49236h-78.52282z"/><path d="M245.91933,216.85863v40.80637h-10.64085v-40.80637z"/><path d="M167.80974,249.08381h43.88502v9.12488h-43.88502z"/><path d="M268.32325,249.08381h43.88502v9.12488h-43.88502z"/><path d="M111.9689,78.17852h32.71685v12h-32.71685z"/><path d="M336.85519,78.17852h32.71686v12h-32.71686z"/><path d="M111.9689,33.50585h32.71685v22.15288h-32.71685z"/><path d="M336.34755,33.50585h32.71685v22.15288h-32.71685z"/><path d="M269.84618,33.50585h43.88502v22.15288h-43.88502z"/><path d="M167.3021,33.50585h43.88502v22.15288h-43.88502z"/><path d="M111.46126,246.71634h33.73214v12h-33.73214z"/><path d="M144.98785,257.67895v33.73215h-12v-33.73215z"/><path d="M369.0644,258.71634h-33.73214v-12h33.73214z"/><path d="M347.5378,257.67895v33.73215h-12v-33.73215z"/><path d="M246.32732,9.11145v46.4255h-12v-46.4255z"/><path d="M369.92572,280.33745h27.8785v12h-27.8785z"/><path d="M82.85042,280.33745h27.8785v12h-27.8785z"/><path d="M111.42486,313.6893h99.89219v12h-99.89219z"/><path d="M167.54161,321.57403v-40.80637h10.64085v40.80637z"/><path d="M368.56335,325.6893h-99.89219v-12h99.89219z"/><path d="M301.80575,321.57403v-40.80637h10.64085v40.80637z"/><path d="M77.33573,157.04536v-7.26644h67.99316v7.26644z"/><path d="M77.33574,187.1492v-7.26644h67.99316v7.26644z"/><path d="M375.94138,157.04536v-7.26644h27.86534v7.26644z"/><path d="M335.81355,187.1492v-7.26645h67.99316v7.26645z"/><path d="M336.15427,157.04536v-7.26644h17.64708v7.26644z"/><path d="M138.11773,112.34003h7.26644v42.26988h-7.26644z"/><path d="M77.33574,119.73808v-7.26644h67.99316v7.26644z"/><path d="M81.56058,5.35843h7.26644v109.3889h-7.26644z"/><path d="M81.76491,10.8826v-7.26644h315.51588v7.26644z"/><path d="M343.53853,154.60991h-7.26644v-42.26988h7.26644z"/><path d="M336.32737,119.73808v-7.26644h67.99316v7.26644z"/><path d="M400.09568,114.74734h-7.26644v-109.3889h7.26644z"/><path d="M138.11773,182.35506h7.26644v42.26987h-7.26644z"/><path d="M77.33575,224.45648v-7.26644h67.99316v7.26644z"/><path d="M81.73093,218.12917h7.26644v139.54136h-7.26644z"/><path d="M74.78045,355.28748v-7.26644h329.82552v7.26644z"/><path d="M343.02749,224.62494h-7.26644v-42.26988h7.26644z"/><path d="M335.81631,224.45648v-7.26644h67.99316v7.26644z"/><path d="M399.75499,357.67053h-7.26644v-139.54136h7.26644z"/></g></g></svg>